0, 0, Header, 1, 14, 192
1, 0, Start_track
1, 0, Tempo, 750000
1, 0, Time_signature, 4, 2, 96, 8
1, 0, Key_signature, 0, "major"
1, 1536, Tempo, 789473
1, 3456, Tempo, 468750
1, 3456, End_track
2, 0, Start_track
2, 0, Title_t, "Edited"
2, 0, Channel_prefix, 13
2, 0, Control_c, 13, 7, 110
2, 0, Control_c, 13, 10, 64
2, 0, Program_c, 13, 100
2, 0, Control_c, 13, 0, 0
2, 0, Control_c, 13, 91, 50
2, 0, Control_c, 13, 93, 20
2, 0, End_track
3, 0, Start_track
3, 0, Title_t, "And"
3, 0, Channel_prefix, 0
3, 0, Control_c, 0, 7, 110
3, 0, Control_c, 0, 10, 64
3, 0, Program_c, 0, 63
3, 0, Control_c, 0, 32, 0
3, 0, Control_c, 0, 0, 0
3, 0, Control_c, 0, 91, 50
3, 0, Control_c, 0, 93, 20
3, 0, Note_on_c, 0, 60, 114
3, 0, Pitch_bend_c, 0, 7424
3, 4, Pitch_bend_c, 0, 7534
3, 8, Pitch_bend_c, 0, 7641
3, 12, Pitch_bend_c, 0, 7744
3, 16, Pitch_bend_c, 0, 7840
3, 20, Pitch_bend_c, 0, 7928
3, 24, Pitch_bend_c, 0, 8006
3, 28, Pitch_bend_c, 0, 8071
3, 32, Pitch_bend_c, 0, 8124
3, 36, Pitch_bend_c, 0, 8162
3, 40, Pitch_bend_c, 0, 8186
3, 44, Pitch_bend_c, 0, 8192
3, 192, Note_on_c, 0, 63, 114
3, 240, Note_off_c, 0, 60, 0
3, 376, Note_off_c, 0, 63, 0
3, 384, Note_on_c, 0, 65, 114
3, 384, Pitch_bend_c, 0, 7568
3, 388, Pitch_bend_c, 0, 7657
3, 392, Pitch_bend_c, 0, 7745
3, 396, Pitch_bend_c, 0, 7828
3, 400, Pitch_bend_c, 0, 7906
3, 404, Pitch_bend_c, 0, 7978
3, 408, Pitch_bend_c, 0, 8041
3, 412, Pitch_bend_c, 0, 8094
3, 416, Pitch_bend_c, 0, 8137
3, 420, Pitch_bend_c, 0, 8168
3, 424, Pitch_bend_c, 0, 8187
3, 428, Pitch_bend_c, 0, 8192
3, 524, Note_off_c, 0, 65, 0
3, 528, Note_on_c, 0, 63, 114
3, 660, Note_off_c, 0, 63, 0
3, 672, Note_on_c, 0, 65, 114
3, 752, Note_off_c, 0, 65, 0
3, 768, Note_on_c, 0, 65, 114
3, 852, Note_off_c, 0, 65, 0
3, 864, Note_on_c, 0, 65, 114
3, 940, Note_off_c, 0, 65, 0
3, 960, Note_on_c, 0, 70, 114
3, 960, Pitch_bend_c, 0, 7136
3, 964, Pitch_bend_c, 0, 7372
3, 968, Pitch_bend_c, 0, 7595
3, 972, Pitch_bend_c, 0, 7796
3, 976, Pitch_bend_c, 0, 7963
3, 980, Pitch_bend_c, 0, 8089
3, 984, Pitch_bend_c, 0, 8167
3, 988, Pitch_bend_c, 0, 8192
3, 1052, Note_off_c, 0, 70, 0
3, 1056, Note_on_c, 0, 68, 114
3, 1140, Note_off_c, 0, 68, 0
3, 1152, Note_on_c, 0, 67, 114
3, 1196, Note_off_c, 0, 67, 0
3, 1200, Note_on_c, 0, 65, 114
3, 1292, Note_off_c, 0, 65, 0
3, 1296, Note_on_c, 0, 67, 114
3, 1400, Note_off_c, 0, 67, 0
3, 1536, Note_on_c, 0, 67, 114
3, 1724, Note_off_c, 0, 67, 0
3, 1728, Note_on_c, 0, 70, 114
3, 1728, Pitch_bend_c, 0, 7445
3, 1732, Pitch_bend_c, 0, 7605
3, 1736, Pitch_bend_c, 0, 7751
3, 1740, Pitch_bend_c, 0, 7881
3, 1744, Pitch_bend_c, 0, 7990
3, 1748, Pitch_bend_c, 0, 8078
3, 1752, Pitch_bend_c, 0, 8142
3, 1756, Pitch_bend_c, 0, 8180
3, 1760, Pitch_bend_c, 0, 8192
3, 1916, Note_off_c, 0, 70, 0
3, 1920, Note_on_c, 0, 72, 114
3, 2060, Note_off_c, 0, 72, 0
3, 2064, Note_on_c, 0, 65, 114
3, 2200, Note_off_c, 0, 65, 0
3, 2208, Note_on_c, 0, 63, 114
3, 2300, Note_off_c, 0, 63, 0
3, 2304, Note_on_c, 0, 70, 114
3, 2392, Note_off_c, 0, 70, 0
3, 2400, Note_on_c, 0, 70, 114
3, 2484, Note_off_c, 0, 70, 0
3, 2496, Note_on_c, 0, 67, 114
3, 2588, Note_off_c, 0, 67, 0
3, 2592, Note_on_c, 0, 70, 114
3, 2684, Note_off_c, 0, 70, 0
3, 2688, Note_on_c, 0, 70, 114
3, 2688, Pitch_bend_c, 0, 7088
3, 2692, Pitch_bend_c, 0, 7246
3, 2696, Pitch_bend_c, 0, 7400
3, 2700, Pitch_bend_c, 0, 7548
3, 2704, Pitch_bend_c, 0, 7686
3, 2708, Pitch_bend_c, 0, 7812
3, 2712, Pitch_bend_c, 0, 7924
3, 2716, Pitch_bend_c, 0, 8018
3, 2720, Pitch_bend_c, 0, 8094
3, 2724, Pitch_bend_c, 0, 8149
3, 2728, Pitch_bend_c, 0, 8182
3, 2732, Pitch_bend_c, 0, 8192
3, 2828, Note_off_c, 0, 70, 0
3, 2832, Note_on_c, 0, 72, 114
3, 3840, Note_off_c, 0, 72, 0
3, 4492, Program_c, 0, 63
3, 7012, Program_c, 0, 29
3, 7016, Program_c, 0, 37
3, 7024, Program_c, 0, 50
3, 7028, Program_c, 0, 87
3, 7052, Program_c, 0, 63
3, 7052, Program_c, 0, 0
3, 7056, Control_c, 0, 11, 120
3, 7068, Program_c, 0, 33
3, 7072, Program_c, 0, 63
3, 7104, Note_on_c, 0, 63, 114
3, 7200, Note_on_c, 0, 58, 114
3, 7224, Note_off_c, 0, 63, 0
3, 7244, Note_off_c, 0, 58, 0
3, 7248, Note_on_c, 0, 58, 114
3, 7388, Note_off_c, 0, 58, 0
3, 7584, Note_on_c, 0, 63, 114
3, 7660, Note_off_c, 0, 63, 0
3, 7680, Note_on_c, 0, 63, 114
3, 7820, Note_off_c, 0, 63, 0
3, 7824, Note_on_c, 0, 65, 114
3, 7964, Note_off_c, 0, 65, 0
3, 7968, Note_on_c, 0, 58, 114
3, 8052, Note_off_c, 0, 58, 0
3, 8064, Note_on_c, 0, 58, 114
3, 8160, Note_off_c, 0, 58, 0
3, 8352, Note_on_c, 0, 58, 114
3, 8448, Note_off_c, 0, 58, 0
3, 8448, Note_on_c, 0, 67, 114
3, 8448, Pitch_bend_c, 0, 7472
3, 8452, Pitch_bend_c, 0, 7575
3, 8456, Pitch_bend_c, 0, 7676
3, 8460, Pitch_bend_c, 0, 7772
3, 8464, Pitch_bend_c, 0, 7862
3, 8468, Pitch_bend_c, 0, 7945
3, 8472, Pitch_bend_c, 0, 8017
3, 8476, Pitch_bend_c, 0, 8079
3, 8480, Pitch_bend_c, 0, 8128
3, 8484, Pitch_bend_c, 0, 8164
3, 8488, Pitch_bend_c, 0, 8186
3, 8492, Pitch_bend_c, 0, 8192
3, 8588, Note_off_c, 0, 67, 0
3, 8592, Note_on_c, 0, 68, 114
3, 8732, Note_off_c, 0, 68, 0
3, 8736, Note_on_c, 0, 67, 114
3, 8820, Note_off_c, 0, 67, 0
3, 8832, Note_on_c, 0, 65, 114
3, 8972, Note_off_c, 0, 65, 0
3, 8976, Note_on_c, 0, 63, 114
3, 9116, Note_off_c, 0, 63, 0
3, 9120, Note_on_c, 0, 65, 114
3, 9204, Note_off_c, 0, 65, 0
3, 9216, Note_on_c, 0, 67, 114
3, 9356, Note_off_c, 0, 67, 0
3, 9360, Note_on_c, 0, 68, 114
3, 9500, Note_off_c, 0, 68, 0
3, 9504, Note_on_c, 0, 67, 114
3, 9588, Note_off_c, 0, 67, 0
3, 9600, Note_on_c, 0, 60, 114
3, 9708, Note_off_c, 0, 60, 0
3, 9888, Note_on_c, 0, 60, 114
3, 9928, Note_off_c, 0, 60, 0
3, 9936, Note_on_c, 0, 62, 114
3, 9976, Note_off_c, 0, 62, 0
3, 9984, Note_on_c, 0, 63, 114
3, 10124, Note_off_c, 0, 63, 0
3, 10128, Note_on_c, 0, 63, 114
3, 10268, Note_off_c, 0, 63, 0
3, 10272, Note_on_c, 0, 62, 114
3, 10356, Note_off_c, 0, 62, 0
3, 10368, Control_c, 0, 1, 60
3, 10368, Note_on_c, 0, 62, 114
3, 10500, Note_off_c, 0, 62, 0
3, 10656, Control_c, 0, 1, 0
3, 10656, Note_on_c, 0, 63, 114
3, 10696, Note_off_c, 0, 63, 0
3, 10704, Note_on_c, 0, 65, 114
3, 10744, Note_off_c, 0, 65, 0
3, 10752, Note_on_c, 0, 68, 114
3, 10752, Pitch_bend_c, 0, 7264
3, 10756, Pitch_bend_c, 0, 7397
3, 10760, Pitch_bend_c, 0, 7526
3, 10764, Pitch_bend_c, 0, 7650
3, 10768, Pitch_bend_c, 0, 7767
3, 10772, Pitch_bend_c, 0, 7873
3, 10776, Pitch_bend_c, 0, 7967
3, 10780, Pitch_bend_c, 0, 8046
3, 10784, Pitch_bend_c, 0, 8110
3, 10788, Pitch_bend_c, 0, 8156
3, 10792, Pitch_bend_c, 0, 8184
3, 10796, Pitch_bend_c, 0, 8192
3, 10892, Note_off_c, 0, 68, 0
3, 10896, Note_on_c, 0, 67, 114
3, 11036, Note_off_c, 0, 67, 0
3, 11040, Note_on_c, 0, 65, 114
3, 11124, Note_off_c, 0, 65, 0
3, 11136, Control_c, 0, 1, 60
3, 11136, Note_on_c, 0, 63, 114
3, 11268, Note_off_c, 0, 63, 0
3, 11424, Control_c, 0, 1, 0
3, 11424, Note_on_c, 0, 67, 114
3, 11512, Note_off_c, 0, 67, 0
3, 11520, Note_on_c, 0, 67, 114
3, 11660, Note_off_c, 0, 67, 0
3, 11664, Note_on_c, 0, 65, 114
3, 11804, Note_off_c, 0, 65, 0
3, 11808, Note_on_c, 0, 64, 114
3, 11892, Note_off_c, 0, 64, 0
3, 11904, Note_on_c, 0, 65, 114
3, 12048, Pitch_bend_c, 0, 8192
3, 12052, Pitch_bend_c, 0, 8184
3, 12056, Pitch_bend_c, 0, 8157
3, 12060, Pitch_bend_c, 0, 8111
3, 12064, Pitch_bend_c, 0, 8049
3, 12068, Pitch_bend_c, 0, 7970
3, 12072, Pitch_bend_c, 0, 7878
3, 12076, Pitch_bend_c, 0, 7774
3, 12080, Pitch_bend_c, 0, 7660
3, 12084, Pitch_bend_c, 0, 7538
3, 12088, Pitch_bend_c, 0, 7410
3, 12092, Pitch_bend_c, 0, 7280
3, 12096, Note_off_c, 0, 65, 0
3, 12096, Pitch_bend_c, 0, 8192
3, 12096, Note_on_c, 0, 60, 114
3, 12276, Note_off_c, 0, 60, 0
3, 12288, Note_on_c, 0, 60, 114
3, 12572, Note_off_c, 0, 60, 0
3, 12576, Note_on_c, 0, 62, 114
3, 12660, Note_off_c, 0, 62, 0
3, 12672, Control_c, 0, 1, 60
3, 12672, Note_on_c, 0, 62, 114
3, 12864, Note_off_c, 0, 62, 0
3, 13248, Control_c, 0, 1, 0
3, 13248, Note_on_c, 0, 63, 114
3, 13340, Note_off_c, 0, 63, 0
3, 13380, Note_on_c, 0, 58, 114
3, 13472, Note_off_c, 0, 58, 0
3, 13728, Note_on_c, 0, 63, 114
3, 13804, Note_off_c, 0, 63, 0
3, 13824, Note_on_c, 0, 63, 114
3, 13964, Note_off_c, 0, 63, 0
3, 13968, Note_on_c, 0, 65, 114
3, 14108, Note_off_c, 0, 65, 0
3, 14112, Note_on_c, 0, 58, 114
3, 14196, Note_off_c, 0, 58, 0
3, 14208, Note_on_c, 0, 58, 114
3, 14304, Note_off_c, 0, 58, 0
3, 14496, Note_on_c, 0, 58, 114
3, 14592, Note_off_c, 0, 58, 0
3, 14592, Note_on_c, 0, 67, 114
3, 14732, Note_off_c, 0, 67, 0
3, 14736, Note_on_c, 0, 68, 114
3, 14876, Note_off_c, 0, 68, 0
3, 14880, Note_on_c, 0, 67, 114
3, 14964, Note_off_c, 0, 67, 0
3, 14976, Note_on_c, 0, 65, 114
3, 15116, Note_off_c, 0, 65, 0
3, 15120, Note_on_c, 0, 63, 114
3, 15260, Note_off_c, 0, 63, 0
3, 15264, Note_on_c, 0, 65, 114
3, 15348, Note_off_c, 0, 65, 0
3, 15360, Note_on_c, 0, 67, 114
3, 15500, Note_off_c, 0, 67, 0
3, 15504, Note_on_c, 0, 68, 114
3, 15644, Note_off_c, 0, 68, 0
3, 15648, Note_on_c, 0, 67, 114
3, 15732, Note_off_c, 0, 67, 0
3, 15744, Control_c, 0, 1, 60
3, 15744, Note_on_c, 0, 60, 114
3, 15876, Note_off_c, 0, 60, 0
3, 16032, Control_c, 0, 1, 0
3, 16032, Note_on_c, 0, 60, 114
3, 16072, Note_off_c, 0, 60, 0
3, 16080, Note_on_c, 0, 62, 114
3, 16120, Note_off_c, 0, 62, 0
3, 16128, Note_on_c, 0, 63, 114
3, 16268, Note_off_c, 0, 63, 0
3, 16272, Note_on_c, 0, 63, 114
3, 16412, Note_off_c, 0, 63, 0
3, 16416, Note_on_c, 0, 62, 114
3, 16500, Note_off_c, 0, 62, 0
3, 16512, Note_on_c, 0, 62, 114
3, 16644, Note_off_c, 0, 62, 0
3, 16800, Note_on_c, 0, 63, 114
3, 16840, Note_off_c, 0, 63, 0
3, 16848, Note_on_c, 0, 65, 114
3, 16888, Note_off_c, 0, 65, 0
3, 16896, Note_on_c, 0, 68, 114
3, 16896, Pitch_bend_c, 0, 7344
3, 16900, Pitch_bend_c, 0, 7465
3, 16904, Pitch_bend_c, 0, 7584
3, 16908, Pitch_bend_c, 0, 7697
3, 16912, Pitch_bend_c, 0, 7804
3, 16916, Pitch_bend_c, 0, 7900
3, 16920, Pitch_bend_c, 0, 7986
3, 16924, Pitch_bend_c, 0, 8059
3, 16928, Pitch_bend_c, 0, 8117
3, 16932, Pitch_bend_c, 0, 8159
3, 16936, Pitch_bend_c, 0, 8185
3, 16940, Pitch_bend_c, 0, 8192
3, 17036, Note_off_c, 0, 68, 0
3, 17040, Note_on_c, 0, 67, 114
3, 17180, Note_off_c, 0, 67, 0
3, 17184, Note_on_c, 0, 65, 114
3, 17268, Note_off_c, 0, 65, 0
3, 17280, Note_on_c, 0, 63, 114
3, 17412, Note_off_c, 0, 63, 0
3, 17568, Note_on_c, 0, 67, 114
3, 17656, Note_off_c, 0, 67, 0
3, 17664, Note_on_c, 0, 67, 114
3, 17804, Note_off_c, 0, 67, 0
3, 17808, Note_on_c, 0, 65, 114
3, 17948, Note_off_c, 0, 65, 0
3, 17952, Note_on_c, 0, 64, 114
3, 18036, Note_off_c, 0, 64, 0
3, 18048, Note_on_c, 0, 65, 114
3, 18188, Note_off_c, 0, 65, 0
3, 18192, Note_on_c, 0, 67, 114
3, 18332, Note_off_c, 0, 67, 0
3, 18336, Note_on_c, 0, 68, 114
3, 18420, Note_off_c, 0, 68, 0
3, 18432, Control_c, 0, 1, 60
3, 18432, Note_on_c, 0, 67, 114
3, 18624, Control_c, 0, 11, 120
3, 18656, Control_c, 0, 11, 119
3, 18672, Control_c, 0, 11, 117
3, 18688, Control_c, 0, 11, 115
3, 18704, Control_c, 0, 11, 112
3, 18720, Control_c, 0, 11, 108
3, 18736, Control_c, 0, 11, 104
3, 18752, Control_c, 0, 11, 100
3, 18768, Control_c, 0, 11, 95
3, 18784, Control_c, 0, 11, 90
3, 18800, Control_c, 0, 11, 86
3, 18816, Note_off_c, 0, 67, 0
3, 19200, Control_c, 0, 11, 120
3, 19200, Control_c, 0, 1, 0
3, 19200, Note_on_c, 0, 63, 114
3, 19324, Note_off_c, 0, 63, 0
3, 19344, Note_on_c, 0, 63, 114
3, 19460, Note_off_c, 0, 63, 0
3, 19488, Note_on_c, 0, 62, 114
3, 19560, Note_off_c, 0, 62, 0
3, 19584, Note_on_c, 0, 63, 114
3, 19708, Note_off_c, 0, 63, 0
3, 19728, Note_on_c, 0, 63, 114
3, 19844, Note_off_c, 0, 63, 0
3, 19872, Note_on_c, 0, 62, 114
3, 19944, Note_off_c, 0, 62, 0
3, 19968, Note_on_c, 0, 65, 114
3, 20092, Note_off_c, 0, 65, 0
3, 20112, Note_on_c, 0, 65, 114
3, 20228, Note_off_c, 0, 65, 0
3, 20256, Note_on_c, 0, 63, 114
3, 20328, Note_off_c, 0, 63, 0
3, 20352, Note_on_c, 0, 62, 114
3, 20476, Note_off_c, 0, 62, 0
3, 20496, Note_on_c, 0, 60, 114
3, 20612, Note_off_c, 0, 60, 0
3, 20640, Note_on_c, 0, 62, 114
3, 20712, Note_off_c, 0, 62, 0
3, 20736, Note_on_c, 0, 63, 114
3, 20860, Note_off_c, 0, 63, 0
3, 20880, Note_on_c, 0, 63, 114
3, 20996, Note_off_c, 0, 63, 0
3, 21024, Note_on_c, 0, 62, 114
3, 21096, Note_off_c, 0, 62, 0
3, 21120, Note_on_c, 0, 65, 114
3, 21244, Note_off_c, 0, 65, 0
3, 21264, Note_on_c, 0, 62, 114
3, 21380, Note_off_c, 0, 62, 0
3, 21408, Note_on_c, 0, 60, 114
3, 21480, Note_off_c, 0, 60, 0
3, 21504, Note_on_c, 0, 58, 114
3, 21684, Note_off_c, 0, 58, 0
3, 22272, Note_on_c, 0, 63, 114
3, 22396, Note_off_c, 0, 63, 0
3, 22416, Note_on_c, 0, 63, 114
3, 22532, Note_off_c, 0, 63, 0
3, 22560, Note_on_c, 0, 62, 114
3, 22632, Note_off_c, 0, 62, 0
3, 22656, Note_on_c, 0, 60, 114
3, 22656, Note_on_c, 0, 63, 114
3, 22780, Note_off_c, 0, 63, 0
3, 22780, Note_off_c, 0, 60, 0
3, 22800, Note_on_c, 0, 60, 114
3, 22800, Note_on_c, 0, 63, 114
3, 22916, Note_off_c, 0, 63, 0
3, 22916, Note_off_c, 0, 60, 0
3, 22944, Note_on_c, 0, 58, 114
3, 22944, Note_on_c, 0, 62, 114
3, 23016, Note_off_c, 0, 62, 0
3, 23016, Note_off_c, 0, 58, 0
3, 23040, Note_on_c, 0, 62, 114
3, 23040, Note_on_c, 0, 65, 114
3, 23164, Note_off_c, 0, 65, 0
3, 23164, Note_off_c, 0, 62, 0
3, 23184, Note_on_c, 0, 62, 114
3, 23184, Note_on_c, 0, 65, 114
3, 23300, Note_off_c, 0, 65, 0
3, 23300, Note_off_c, 0, 62, 0
3, 23328, Note_on_c, 0, 60, 114
3, 23328, Note_on_c, 0, 63, 114
3, 23400, Note_off_c, 0, 63, 0
3, 23400, Note_off_c, 0, 60, 0
3, 23424, Note_on_c, 0, 58, 114
3, 23424, Note_on_c, 0, 62, 114
3, 23548, Note_off_c, 0, 62, 0
3, 23548, Note_off_c, 0, 58, 0
3, 23568, Note_on_c, 0, 60, 114
3, 23568, Note_on_c, 0, 63, 114
3, 23684, Note_off_c, 0, 63, 0
3, 23684, Note_off_c, 0, 60, 0
3, 23712, Note_on_c, 0, 62, 114
3, 23712, Note_on_c, 0, 65, 114
3, 23784, Note_off_c, 0, 65, 0
3, 23784, Note_off_c, 0, 62, 0
3, 23808, Note_on_c, 0, 62, 114
3, 23808, Note_on_c, 0, 67, 114
3, 23932, Note_off_c, 0, 67, 0
3, 23932, Note_off_c, 0, 62, 0
3, 23952, Note_on_c, 0, 62, 114
3, 23952, Note_on_c, 0, 68, 114
3, 24068, Note_off_c, 0, 68, 0
3, 24068, Note_off_c, 0, 62, 0
3, 24096, Note_on_c, 0, 62, 114
3, 24096, Note_on_c, 0, 67, 114
3, 24168, Note_off_c, 0, 67, 0
3, 24168, Note_off_c, 0, 62, 0
3, 24192, Note_on_c, 0, 62, 114
3, 24192, Note_on_c, 0, 65, 114
3, 24316, Note_off_c, 0, 65, 0
3, 24316, Note_off_c, 0, 62, 0
3, 24336, Note_on_c, 0, 60, 114
3, 24336, Note_on_c, 0, 63, 114
3, 24452, Note_off_c, 0, 63, 0
3, 24452, Note_off_c, 0, 60, 0
3, 24480, Note_on_c, 0, 62, 114
3, 24480, Note_on_c, 0, 65, 114
3, 24552, Note_off_c, 0, 65, 0
3, 24552, Note_off_c, 0, 62, 0
3, 24576, Control_c, 0, 1, 60
3, 24576, Note_on_c, 0, 59, 114
3, 24576, Note_on_c, 0, 67, 114
3, 24956, Note_off_c, 0, 67, 0
3, 24956, Note_off_c, 0, 59, 0
3, 25296, Control_c, 0, 11, 127
3, 25344, Control_c, 0, 1, 0
3, 25344, Note_on_c, 0, 60, 114
3, 25344, Pitch_bend_c, 0, 7424
3, 25348, Pitch_bend_c, 0, 7534
3, 25352, Pitch_bend_c, 0, 7641
3, 25356, Pitch_bend_c, 0, 7744
3, 25360, Pitch_bend_c, 0, 7840
3, 25364, Pitch_bend_c, 0, 7928
3, 25368, Pitch_bend_c, 0, 8006
3, 25372, Pitch_bend_c, 0, 8071
3, 25376, Pitch_bend_c, 0, 8124
3, 25380, Pitch_bend_c, 0, 8162
3, 25384, Pitch_bend_c, 0, 8186
3, 25388, Pitch_bend_c, 0, 8192
3, 25528, Note_off_c, 0, 60, 0
3, 25536, Note_on_c, 0, 63, 114
3, 25720, Note_off_c, 0, 63, 0
3, 25728, Note_on_c, 0, 65, 114
3, 25728, Pitch_bend_c, 0, 7568
3, 25732, Pitch_bend_c, 0, 7657
3, 25736, Pitch_bend_c, 0, 7745
3, 25740, Pitch_bend_c, 0, 7828
3, 25744, Pitch_bend_c, 0, 7906
3, 25748, Pitch_bend_c, 0, 7978
3, 25752, Pitch_bend_c, 0, 8041
3, 25756, Pitch_bend_c, 0, 8094
3, 25760, Pitch_bend_c, 0, 8137
3, 25764, Pitch_bend_c, 0, 8168
3, 25768, Pitch_bend_c, 0, 8187
3, 25772, Pitch_bend_c, 0, 8192
3, 25868, Note_off_c, 0, 65, 0
3, 25872, Note_on_c, 0, 63, 114
3, 26004, Note_off_c, 0, 63, 0
3, 26016, Note_on_c, 0, 65, 114
3, 26096, Note_off_c, 0, 65, 0
3, 26112, Note_on_c, 0, 65, 114
3, 26184, Note_off_c, 0, 65, 0
3, 26208, Note_on_c, 0, 65, 114
3, 26272, Note_off_c, 0, 65, 0
3, 26304, Note_on_c, 0, 70, 114
3, 26304, Pitch_bend_c, 0, 7136
3, 26308, Pitch_bend_c, 0, 7372
3, 26312, Pitch_bend_c, 0, 7595
3, 26316, Pitch_bend_c, 0, 7796
3, 26320, Pitch_bend_c, 0, 7963
3, 26324, Pitch_bend_c, 0, 8089
3, 26328, Pitch_bend_c, 0, 8167
3, 26332, Pitch_bend_c, 0, 8192
3, 26396, Note_off_c, 0, 70, 0
3, 26400, Note_on_c, 0, 68, 114
3, 26484, Note_off_c, 0, 68, 0
3, 26496, Note_on_c, 0, 67, 114
3, 26540, Note_off_c, 0, 67, 0
3, 26544, Note_on_c, 0, 65, 114
3, 26636, Note_off_c, 0, 65, 0
3, 26640, Control_c, 0, 1, 60
3, 26640, Note_on_c, 0, 67, 114
3, 26744, Note_off_c, 0, 67, 0
3, 26880, Control_c, 0, 1, 0
3, 26880, Note_on_c, 0, 67, 114
3, 27068, Note_off_c, 0, 67, 0
3, 27072, Control_c, 0, 1, 60
3, 27072, Note_on_c, 0, 70, 114
3, 27072, Pitch_bend_c, 0, 7445
3, 27076, Pitch_bend_c, 0, 7605
3, 27080, Pitch_bend_c, 0, 7751
3, 27084, Pitch_bend_c, 0, 7881
3, 27088, Pitch_bend_c, 0, 7990
3, 27092, Pitch_bend_c, 0, 8078
3, 27096, Pitch_bend_c, 0, 8142
3, 27100, Pitch_bend_c, 0, 8180
3, 27104, Pitch_bend_c, 0, 8192
3, 27260, Note_off_c, 0, 70, 0
3, 27264, Control_c, 0, 1, 0
3, 27264, Note_on_c, 0, 72, 114
3, 27404, Note_off_c, 0, 72, 0
3, 27408, Note_on_c, 0, 65, 114
3, 27544, Note_off_c, 0, 65, 0
3, 27552, Note_on_c, 0, 63, 114
3, 27644, Note_off_c, 0, 63, 0
3, 27648, Note_on_c, 0, 62, 114
3, 27724, Note_off_c, 0, 62, 0
3, 27744, Note_on_c, 0, 62, 114
3, 27812, Note_off_c, 0, 62, 0
3, 27840, Note_on_c, 0, 60, 114
3, 27920, Note_off_c, 0, 60, 0
3, 27936, Note_on_c, 0, 62, 114
3, 28024, Note_off_c, 0, 62, 0
3, 28032, Note_on_c, 0, 65, 114
3, 28068, Note_off_c, 0, 65, 0
3, 28080, Note_on_c, 0, 63, 114
3, 28148, Note_off_c, 0, 63, 0
3, 28176, Note_on_c, 0, 63, 114
3, 28268, Note_off_c, 0, 63, 0
3, 28416, Note_on_c, 0, 60, 114
3, 28416, Pitch_bend_c, 0, 7424
3, 28420, Pitch_bend_c, 0, 7534
3, 28424, Pitch_bend_c, 0, 7641
3, 28428, Pitch_bend_c, 0, 7744
3, 28432, Pitch_bend_c, 0, 7840
3, 28436, Pitch_bend_c, 0, 7928
3, 28440, Pitch_bend_c, 0, 8006
3, 28444, Pitch_bend_c, 0, 8071
3, 28448, Pitch_bend_c, 0, 8124
3, 28452, Pitch_bend_c, 0, 8162
3, 28456, Pitch_bend_c, 0, 8186
3, 28460, Pitch_bend_c, 0, 8192
3, 28600, Note_off_c, 0, 60, 0
3, 28608, Note_on_c, 0, 63, 114
3, 28792, Note_off_c, 0, 63, 0
3, 28800, Note_on_c, 0, 65, 114
3, 28800, Pitch_bend_c, 0, 7568
3, 28804, Pitch_bend_c, 0, 7657
3, 28808, Pitch_bend_c, 0, 7745
3, 28812, Pitch_bend_c, 0, 7828
3, 28816, Pitch_bend_c, 0, 7906
3, 28820, Pitch_bend_c, 0, 7978
3, 28824, Pitch_bend_c, 0, 8041
3, 28828, Pitch_bend_c, 0, 8094
3, 28832, Pitch_bend_c, 0, 8137
3, 28836, Pitch_bend_c, 0, 8168
3, 28840, Pitch_bend_c, 0, 8187
3, 28844, Pitch_bend_c, 0, 8192
3, 28940, Note_off_c, 0, 65, 0
3, 28944, Note_on_c, 0, 63, 114
3, 29076, Note_off_c, 0, 63, 0
3, 29088, Note_on_c, 0, 65, 114
3, 29168, Note_off_c, 0, 65, 0
3, 29184, Note_on_c, 0, 65, 114
3, 29252, Note_off_c, 0, 65, 0
3, 29280, Note_on_c, 0, 65, 114
3, 29344, Note_off_c, 0, 65, 0
3, 29376, Note_on_c, 0, 70, 114
3, 29376, Pitch_bend_c, 0, 7136
3, 29380, Pitch_bend_c, 0, 7372
3, 29384, Pitch_bend_c, 0, 7595
3, 29388, Pitch_bend_c, 0, 7796
3, 29392, Pitch_bend_c, 0, 7963
3, 29396, Pitch_bend_c, 0, 8089
3, 29400, Pitch_bend_c, 0, 8167
3, 29404, Pitch_bend_c, 0, 8192
3, 29468, Note_off_c, 0, 70, 0
3, 29472, Note_on_c, 0, 68, 114
3, 29552, Note_off_c, 0, 68, 0
3, 29568, Note_on_c, 0, 67, 114
3, 29612, Note_off_c, 0, 67, 0
3, 29616, Note_on_c, 0, 65, 114
3, 29684, Note_off_c, 0, 65, 0
3, 29712, Control_c, 0, 1, 60
3, 29712, Note_on_c, 0, 67, 114
3, 29816, Note_off_c, 0, 67, 0
3, 29952, Control_c, 0, 1, 0
3, 29952, Note_on_c, 0, 67, 114
3, 30140, Note_off_c, 0, 67, 0
3, 30144, Control_c, 0, 1, 60
3, 30144, Note_on_c, 0, 70, 114
3, 30144, Pitch_bend_c, 0, 7445
3, 30148, Pitch_bend_c, 0, 7605
3, 30152, Pitch_bend_c, 0, 7751
3, 30156, Pitch_bend_c, 0, 7881
3, 30160, Pitch_bend_c, 0, 7990
3, 30164, Pitch_bend_c, 0, 8078
3, 30168, Pitch_bend_c, 0, 8142
3, 30172, Pitch_bend_c, 0, 8180
3, 30176, Pitch_bend_c, 0, 8192
3, 30332, Note_off_c, 0, 70, 0
3, 30336, Control_c, 0, 1, 0
3, 30336, Note_on_c, 0, 72, 114
3, 30476, Note_off_c, 0, 72, 0
3, 30480, Note_on_c, 0, 65, 114
3, 30616, Note_off_c, 0, 65, 0
3, 30624, Note_on_c, 0, 63, 114
3, 30716, Note_off_c, 0, 63, 0
3, 30720, Note_on_c, 0, 70, 114
3, 30792, Note_off_c, 0, 70, 0
3, 30816, Note_on_c, 0, 70, 114
3, 30884, Note_off_c, 0, 70, 0
3, 30912, Note_on_c, 0, 67, 114
3, 30992, Note_off_c, 0, 67, 0
3, 31008, Note_on_c, 0, 70, 114
3, 31076, Note_off_c, 0, 70, 0
3, 31104, Note_on_c, 0, 70, 114
3, 31104, Pitch_bend_c, 0, 7088
3, 31108, Pitch_bend_c, 0, 7246
3, 31112, Pitch_bend_c, 0, 7400
3, 31116, Pitch_bend_c, 0, 7548
3, 31120, Pitch_bend_c, 0, 7686
3, 31124, Pitch_bend_c, 0, 7812
3, 31128, Pitch_bend_c, 0, 7924
3, 31132, Pitch_bend_c, 0, 8018
3, 31136, Pitch_bend_c, 0, 8094
3, 31140, Pitch_bend_c, 0, 8149
3, 31144, Pitch_bend_c, 0, 8182
3, 31148, Pitch_bend_c, 0, 8192
3, 31244, Note_off_c, 0, 70, 0
3, 31248, Note_on_c, 0, 72, 114
3, 31316, Note_off_c, 0, 72, 0
3, 31488, Note_on_c, 0, 60, 114
3, 31488, Pitch_bend_c, 0, 7424
3, 31492, Pitch_bend_c, 0, 7534
3, 31496, Pitch_bend_c, 0, 7641
3, 31500, Pitch_bend_c, 0, 7744
3, 31504, Pitch_bend_c, 0, 7840
3, 31508, Pitch_bend_c, 0, 7928
3, 31512, Pitch_bend_c, 0, 8006
3, 31516, Pitch_bend_c, 0, 8071
3, 31520, Pitch_bend_c, 0, 8124
3, 31524, Pitch_bend_c, 0, 8162
3, 31528, Pitch_bend_c, 0, 8186
3, 31532, Pitch_bend_c, 0, 8192
3, 31672, Note_off_c, 0, 60, 0
3, 31680, Note_on_c, 0, 63, 114
3, 31864, Note_off_c, 0, 63, 0
3, 31872, Note_on_c, 0, 65, 114
3, 31872, Pitch_bend_c, 0, 7568
3, 31876, Pitch_bend_c, 0, 7657
3, 31880, Pitch_bend_c, 0, 7745
3, 31884, Pitch_bend_c, 0, 7828
3, 31888, Pitch_bend_c, 0, 7906
3, 31892, Pitch_bend_c, 0, 7978
3, 31896, Pitch_bend_c, 0, 8041
3, 31900, Pitch_bend_c, 0, 8094
3, 31904, Pitch_bend_c, 0, 8137
3, 31908, Pitch_bend_c, 0, 8168
3, 31912, Pitch_bend_c, 0, 8187
3, 31916, Pitch_bend_c, 0, 8192
3, 32012, Note_off_c, 0, 65, 0
3, 32016, Note_on_c, 0, 63, 114
3, 32148, Note_off_c, 0, 63, 0
3, 32160, Note_on_c, 0, 65, 114
3, 32240, Note_off_c, 0, 65, 0
3, 32256, Note_on_c, 0, 65, 114
3, 32324, Note_off_c, 0, 65, 0
3, 32352, Note_on_c, 0, 65, 114
3, 32412, Note_off_c, 0, 65, 0
3, 32448, Note_on_c, 0, 70, 114
3, 32448, Pitch_bend_c, 0, 7136
3, 32452, Pitch_bend_c, 0, 7372
3, 32456, Pitch_bend_c, 0, 7595
3, 32460, Pitch_bend_c, 0, 7796
3, 32464, Pitch_bend_c, 0, 7963
3, 32468, Pitch_bend_c, 0, 8089
3, 32472, Pitch_bend_c, 0, 8167
3, 32476, Pitch_bend_c, 0, 8192
3, 32540, Note_off_c, 0, 70, 0
3, 32544, Note_on_c, 0, 68, 114
3, 32628, Note_off_c, 0, 68, 0
3, 32640, Note_on_c, 0, 67, 114
3, 32684, Note_off_c, 0, 67, 0
3, 32688, Note_on_c, 0, 65, 114
3, 32764, Note_off_c, 0, 65, 0
3, 32784, Control_c, 0, 1, 60
3, 32784, Note_on_c, 0, 67, 114
3, 32888, Note_off_c, 0, 67, 0
3, 33024, Control_c, 0, 1, 0
3, 33024, Note_on_c, 0, 67, 114
3, 33212, Note_off_c, 0, 67, 0
3, 33216, Control_c, 0, 1, 60
3, 33216, Note_on_c, 0, 70, 114
3, 33216, Pitch_bend_c, 0, 7445
3, 33220, Pitch_bend_c, 0, 7605
3, 33224, Pitch_bend_c, 0, 7751
3, 33228, Pitch_bend_c, 0, 7881
3, 33232, Pitch_bend_c, 0, 7990
3, 33236, Pitch_bend_c, 0, 8078
3, 33240, Pitch_bend_c, 0, 8142
3, 33244, Pitch_bend_c, 0, 8180
3, 33248, Pitch_bend_c, 0, 8192
3, 33404, Note_off_c, 0, 70, 0
3, 33408, Control_c, 0, 1, 0
3, 33408, Note_on_c, 0, 72, 114
3, 33548, Note_off_c, 0, 72, 0
3, 33552, Note_on_c, 0, 65, 114
3, 33688, Note_off_c, 0, 65, 0
3, 33696, Note_on_c, 0, 63, 114
3, 33788, Note_off_c, 0, 63, 0
3, 33792, Note_on_c, 0, 70, 114
3, 33864, Note_off_c, 0, 70, 0
3, 33888, Note_on_c, 0, 70, 114
3, 33956, Note_off_c, 0, 70, 0
3, 33984, Note_on_c, 0, 67, 114
3, 34064, Note_off_c, 0, 67, 0
3, 34080, Note_on_c, 0, 70, 114
3, 34148, Note_off_c, 0, 70, 0
3, 34176, Note_on_c, 0, 70, 114
3, 34176, Pitch_bend_c, 0, 7088
3, 34180, Pitch_bend_c, 0, 7246
3, 34184, Pitch_bend_c, 0, 7400
3, 34188, Pitch_bend_c, 0, 7548
3, 34192, Pitch_bend_c, 0, 7686
3, 34196, Pitch_bend_c, 0, 7812
3, 34200, Pitch_bend_c, 0, 7924
3, 34204, Pitch_bend_c, 0, 8018
3, 34208, Pitch_bend_c, 0, 8094
3, 34212, Pitch_bend_c, 0, 8149
3, 34216, Pitch_bend_c, 0, 8182
3, 34220, Pitch_bend_c, 0, 8192
3, 34316, Note_off_c, 0, 70, 0
3, 34320, Note_on_c, 0, 72, 114
3, 34392, Note_off_c, 0, 72, 0
3, 53184, Control_c, 0, 1, 0
3, 53184, Note_on_c, 0, 63, 114
3, 53276, Note_off_c, 0, 63, 0
3, 53316, Note_on_c, 0, 58, 114
3, 53456, Note_off_c, 0, 58, 0
3, 53664, Note_on_c, 0, 63, 114
3, 53740, Note_off_c, 0, 63, 0
3, 53760, Note_on_c, 0, 63, 114
3, 53900, Note_off_c, 0, 63, 0
3, 53904, Note_on_c, 0, 65, 114
3, 54044, Note_off_c, 0, 65, 0
3, 54048, Note_on_c, 0, 58, 114
3, 54132, Note_off_c, 0, 58, 0
3, 54144, Note_on_c, 0, 58, 114
3, 54240, Note_off_c, 0, 58, 0
3, 54432, Note_on_c, 0, 58, 114
3, 54528, Note_off_c, 0, 58, 0
3, 54528, Note_on_c, 0, 67, 114
3, 54528, Pitch_bend_c, 0, 7472
3, 54532, Pitch_bend_c, 0, 7575
3, 54536, Pitch_bend_c, 0, 7676
3, 54540, Pitch_bend_c, 0, 7772
3, 54544, Pitch_bend_c, 0, 7862
3, 54548, Pitch_bend_c, 0, 7945
3, 54552, Pitch_bend_c, 0, 8017
3, 54556, Pitch_bend_c, 0, 8079
3, 54560, Pitch_bend_c, 0, 8128
3, 54564, Pitch_bend_c, 0, 8164
3, 54568, Pitch_bend_c, 0, 8186
3, 54572, Pitch_bend_c, 0, 8192
3, 54668, Note_off_c, 0, 67, 0
3, 54672, Note_on_c, 0, 68, 114
3, 54812, Note_off_c, 0, 68, 0
3, 54816, Note_on_c, 0, 67, 114
3, 54900, Note_off_c, 0, 67, 0
3, 54912, Note_on_c, 0, 65, 114
3, 55052, Note_off_c, 0, 65, 0
3, 55056, Note_on_c, 0, 63, 114
3, 55196, Note_off_c, 0, 63, 0
3, 55200, Note_on_c, 0, 65, 114
3, 55284, Note_off_c, 0, 65, 0
3, 55296, Note_on_c, 0, 67, 114
3, 55436, Note_off_c, 0, 67, 0
3, 55440, Note_on_c, 0, 68, 114
3, 55580, Note_off_c, 0, 68, 0
3, 55584, Note_on_c, 0, 67, 114
3, 55668, Note_off_c, 0, 67, 0
3, 55680, Note_on_c, 0, 60, 114
3, 55788, Note_off_c, 0, 60, 0
3, 55968, Note_on_c, 0, 60, 114
3, 56008, Note_off_c, 0, 60, 0
3, 56016, Note_on_c, 0, 62, 114
3, 56056, Note_off_c, 0, 62, 0
3, 56064, Note_on_c, 0, 63, 114
3, 56204, Note_off_c, 0, 63, 0
3, 56208, Note_on_c, 0, 63, 114
3, 56348, Note_off_c, 0, 63, 0
3, 56352, Note_on_c, 0, 62, 114
3, 56436, Note_off_c, 0, 62, 0
3, 56448, Control_c, 0, 1, 60
3, 56448, Note_on_c, 0, 62, 114
3, 56580, Note_off_c, 0, 62, 0
3, 56736, Control_c, 0, 1, 0
3, 56736, Note_on_c, 0, 63, 114
3, 56776, Note_off_c, 0, 63, 0
3, 56784, Note_on_c, 0, 65, 114
3, 56824, Note_off_c, 0, 65, 0
3, 56832, Note_on_c, 0, 68, 114
3, 56832, Pitch_bend_c, 0, 7264
3, 56836, Pitch_bend_c, 0, 7397
3, 56840, Pitch_bend_c, 0, 7526
3, 56844, Pitch_bend_c, 0, 7650
3, 56848, Pitch_bend_c, 0, 7767
3, 56852, Pitch_bend_c, 0, 7873
3, 56856, Pitch_bend_c, 0, 7967
3, 56860, Pitch_bend_c, 0, 8046
3, 56864, Pitch_bend_c, 0, 8110
3, 56868, Pitch_bend_c, 0, 8156
3, 56872, Pitch_bend_c, 0, 8184
3, 56876, Pitch_bend_c, 0, 8192
3, 56972, Note_off_c, 0, 68, 0
3, 56976, Note_on_c, 0, 67, 114
3, 57116, Note_off_c, 0, 67, 0
3, 57120, Note_on_c, 0, 65, 114
3, 57204, Note_off_c, 0, 65, 0
3, 57216, Control_c, 0, 1, 60
3, 57216, Note_on_c, 0, 63, 114
3, 57348, Note_off_c, 0, 63, 0
3, 57504, Control_c, 0, 1, 0
3, 57504, Note_on_c, 0, 67, 114
3, 57592, Note_off_c, 0, 67, 0
3, 57600, Note_on_c, 0, 67, 114
3, 57740, Note_off_c, 0, 67, 0
3, 57744, Note_on_c, 0, 65, 114
3, 57884, Note_off_c, 0, 65, 0
3, 57888, Note_on_c, 0, 64, 114
3, 57972, Note_off_c, 0, 64, 0
3, 57984, Note_on_c, 0, 65, 114
3, 58128, Pitch_bend_c, 0, 8192
3, 58132, Pitch_bend_c, 0, 8184
3, 58136, Pitch_bend_c, 0, 8157
3, 58140, Pitch_bend_c, 0, 8111
3, 58144, Pitch_bend_c, 0, 8049
3, 58148, Pitch_bend_c, 0, 7970
3, 58152, Pitch_bend_c, 0, 7878
3, 58156, Pitch_bend_c, 0, 7774
3, 58160, Pitch_bend_c, 0, 7660
3, 58164, Pitch_bend_c, 0, 7538
3, 58168, Pitch_bend_c, 0, 7410
3, 58172, Pitch_bend_c, 0, 7280
3, 58176, Note_off_c, 0, 65, 0
3, 58176, Pitch_bend_c, 0, 8192
3, 58176, Note_on_c, 0, 60, 114
3, 58356, Note_off_c, 0, 60, 0
3, 58368, Note_on_c, 0, 60, 114
3, 58652, Note_off_c, 0, 60, 0
3, 58656, Note_on_c, 0, 62, 114
3, 58740, Note_off_c, 0, 62, 0
3, 58752, Control_c, 0, 1, 60
3, 58752, Note_on_c, 0, 62, 114
3, 58944, Note_off_c, 0, 62, 0
3, 59328, Control_c, 0, 1, 0
3, 59328, Note_on_c, 0, 63, 114
3, 59420, Note_off_c, 0, 63, 0
3, 59424, Note_on_c, 0, 58, 114
3, 59468, Note_off_c, 0, 58, 0
3, 59472, Note_on_c, 0, 58, 114
3, 59612, Note_off_c, 0, 58, 0
3, 59808, Note_on_c, 0, 63, 114
3, 59884, Note_off_c, 0, 63, 0
3, 59904, Note_on_c, 0, 63, 114
3, 60044, Note_off_c, 0, 63, 0
3, 60048, Note_on_c, 0, 65, 114
3, 60188, Note_off_c, 0, 65, 0
3, 60192, Note_on_c, 0, 58, 114
3, 60276, Note_off_c, 0, 58, 0
3, 60288, Note_on_c, 0, 58, 114
3, 60384, Note_off_c, 0, 58, 0
3, 60576, Note_on_c, 0, 58, 114
3, 60672, Note_off_c, 0, 58, 0
3, 60672, Note_on_c, 0, 67, 114
3, 60812, Note_off_c, 0, 67, 0
3, 60816, Note_on_c, 0, 68, 114
3, 60956, Note_off_c, 0, 68, 0
3, 60960, Note_on_c, 0, 67, 114
3, 61044, Note_off_c, 0, 67, 0
3, 61056, Note_on_c, 0, 65, 114
3, 61196, Note_off_c, 0, 65, 0
3, 61200, Note_on_c, 0, 63, 114
3, 61340, Note_off_c, 0, 63, 0
3, 61344, Note_on_c, 0, 65, 114
3, 61428, Note_off_c, 0, 65, 0
3, 61440, Note_on_c, 0, 67, 114
3, 61580, Note_off_c, 0, 67, 0
3, 61584, Note_on_c, 0, 68, 114
3, 61724, Note_off_c, 0, 68, 0
3, 61728, Note_on_c, 0, 67, 114
3, 61812, Note_off_c, 0, 67, 0
3, 61824, Control_c, 0, 1, 60
3, 61824, Note_on_c, 0, 60, 114
3, 61956, Note_off_c, 0, 60, 0
3, 62112, Control_c, 0, 1, 0
3, 62112, Note_on_c, 0, 60, 114
3, 62152, Note_off_c, 0, 60, 0
3, 62160, Note_on_c, 0, 62, 114
3, 62200, Note_off_c, 0, 62, 0
3, 62208, Note_on_c, 0, 63, 114
3, 62348, Note_off_c, 0, 63, 0
3, 62352, Note_on_c, 0, 63, 114
3, 62492, Note_off_c, 0, 63, 0
3, 62496, Note_on_c, 0, 62, 114
3, 62580, Note_off_c, 0, 62, 0
3, 62592, Note_on_c, 0, 62, 114
3, 62724, Note_off_c, 0, 62, 0
3, 62880, Note_on_c, 0, 63, 114
3, 62920, Note_off_c, 0, 63, 0
3, 62928, Note_on_c, 0, 65, 114
3, 62968, Note_off_c, 0, 65, 0
3, 62976, Note_on_c, 0, 68, 114
3, 62976, Pitch_bend_c, 0, 7344
3, 62980, Pitch_bend_c, 0, 7465
3, 62984, Pitch_bend_c, 0, 7584
3, 62988, Pitch_bend_c, 0, 7697
3, 62992, Pitch_bend_c, 0, 7804
3, 62996, Pitch_bend_c, 0, 7900
3, 63000, Pitch_bend_c, 0, 7986
3, 63004, Pitch_bend_c, 0, 8059
3, 63008, Pitch_bend_c, 0, 8117
3, 63012, Pitch_bend_c, 0, 8159
3, 63016, Pitch_bend_c, 0, 8185
3, 63020, Pitch_bend_c, 0, 8192
3, 63116, Note_off_c, 0, 68, 0
3, 63120, Note_on_c, 0, 67, 114
3, 63260, Note_off_c, 0, 67, 0
3, 63264, Note_on_c, 0, 65, 114
3, 63348, Note_off_c, 0, 65, 0
3, 63360, Note_on_c, 0, 63, 114
3, 63492, Note_off_c, 0, 63, 0
3, 63648, Note_on_c, 0, 67, 114
3, 63736, Note_off_c, 0, 67, 0
3, 63744, Note_on_c, 0, 67, 114
3, 63884, Note_off_c, 0, 67, 0
3, 63888, Note_on_c, 0, 65, 114
3, 64028, Note_off_c, 0, 65, 0
3, 64032, Note_on_c, 0, 64, 114
3, 64116, Note_off_c, 0, 64, 0
3, 64128, Note_on_c, 0, 65, 114
3, 64268, Note_off_c, 0, 65, 0
3, 64272, Note_on_c, 0, 67, 114
3, 64412, Note_off_c, 0, 67, 0
3, 64416, Note_on_c, 0, 68, 114
3, 64500, Note_off_c, 0, 68, 0
3, 64512, Control_c, 0, 1, 60
3, 64512, Note_on_c, 0, 67, 114
3, 64704, Control_c, 0, 11, 120
3, 64736, Control_c, 0, 11, 119
3, 64752, Control_c, 0, 11, 117
3, 64768, Control_c, 0, 11, 115
3, 64784, Control_c, 0, 11, 112
3, 64800, Control_c, 0, 11, 108
3, 64816, Control_c, 0, 11, 104
3, 64832, Control_c, 0, 11, 100
3, 64848, Control_c, 0, 11, 95
3, 64864, Control_c, 0, 11, 90
3, 64880, Control_c, 0, 11, 86
3, 64896, Note_off_c, 0, 67, 0
3, 65280, Control_c, 0, 11, 120
3, 65280, Control_c, 0, 1, 0
3, 65280, Note_on_c, 0, 63, 114
3, 65404, Note_off_c, 0, 63, 0
3, 65424, Note_on_c, 0, 63, 114
3, 65540, Note_off_c, 0, 63, 0
3, 65568, Note_on_c, 0, 62, 114
3, 65640, Note_off_c, 0, 62, 0
3, 65664, Note_on_c, 0, 63, 114
3, 65788, Note_off_c, 0, 63, 0
3, 65808, Note_on_c, 0, 63, 114
3, 65924, Note_off_c, 0, 63, 0
3, 65952, Note_on_c, 0, 62, 114
3, 66024, Note_off_c, 0, 62, 0
3, 66048, Note_on_c, 0, 65, 114
3, 66172, Note_off_c, 0, 65, 0
3, 66192, Note_on_c, 0, 65, 114
3, 66308, Note_off_c, 0, 65, 0
3, 66336, Note_on_c, 0, 63, 114
3, 66408, Note_off_c, 0, 63, 0
3, 66432, Note_on_c, 0, 62, 114
3, 66556, Note_off_c, 0, 62, 0
3, 66576, Note_on_c, 0, 60, 114
3, 66692, Note_off_c, 0, 60, 0
3, 66720, Note_on_c, 0, 62, 114
3, 66792, Note_off_c, 0, 62, 0
3, 66816, Note_on_c, 0, 63, 114
3, 66940, Note_off_c, 0, 63, 0
3, 66960, Note_on_c, 0, 63, 114
3, 67076, Note_off_c, 0, 63, 0
3, 67104, Note_on_c, 0, 62, 114
3, 67176, Note_off_c, 0, 62, 0
3, 67200, Note_on_c, 0, 65, 114
3, 67324, Note_off_c, 0, 65, 0
3, 67344, Note_on_c, 0, 62, 114
3, 67460, Note_off_c, 0, 62, 0
3, 67488, Note_on_c, 0, 60, 114
3, 67560, Note_off_c, 0, 60, 0
3, 67584, Note_on_c, 0, 58, 114
3, 67764, Note_off_c, 0, 58, 0
3, 68352, Note_on_c, 0, 63, 114
3, 68476, Note_off_c, 0, 63, 0
3, 68496, Note_on_c, 0, 63, 114
3, 68612, Note_off_c, 0, 63, 0
3, 68640, Note_on_c, 0, 62, 114
3, 68712, Note_off_c, 0, 62, 0
3, 68736, Note_on_c, 0, 60, 114
3, 68736, Note_on_c, 0, 63, 114
3, 68860, Note_off_c, 0, 63, 0
3, 68860, Note_off_c, 0, 60, 0
3, 68880, Note_on_c, 0, 60, 114
3, 68880, Note_on_c, 0, 63, 114
3, 68996, Note_off_c, 0, 63, 0
3, 68996, Note_off_c, 0, 60, 0
3, 69024, Note_on_c, 0, 58, 114
3, 69024, Note_on_c, 0, 62, 114
3, 69096, Note_off_c, 0, 62, 0
3, 69096, Note_off_c, 0, 58, 0
3, 69120, Note_on_c, 0, 62, 114
3, 69120, Note_on_c, 0, 65, 114
3, 69244, Note_off_c, 0, 65, 0
3, 69244, Note_off_c, 0, 62, 0
3, 69264, Note_on_c, 0, 62, 114
3, 69264, Note_on_c, 0, 65, 114
3, 69380, Note_off_c, 0, 65, 0
3, 69380, Note_off_c, 0, 62, 0
3, 69408, Note_on_c, 0, 60, 114
3, 69408, Note_on_c, 0, 63, 114
3, 69480, Note_off_c, 0, 63, 0
3, 69480, Note_off_c, 0, 60, 0
3, 69504, Note_on_c, 0, 58, 114
3, 69504, Note_on_c, 0, 62, 114
3, 69628, Note_off_c, 0, 62, 0
3, 69628, Note_off_c, 0, 58, 0
3, 69648, Note_on_c, 0, 60, 114
3, 69648, Note_on_c, 0, 63, 114
3, 69764, Note_off_c, 0, 63, 0
3, 69764, Note_off_c, 0, 60, 0
3, 69792, Note_on_c, 0, 62, 114
3, 69792, Note_on_c, 0, 65, 114
3, 69864, Note_off_c, 0, 65, 0
3, 69864, Note_off_c, 0, 62, 0
3, 69888, Note_on_c, 0, 62, 114
3, 69888, Note_on_c, 0, 67, 114
3, 70012, Note_off_c, 0, 67, 0
3, 70012, Note_off_c, 0, 62, 0
3, 70032, Note_on_c, 0, 62, 114
3, 70032, Note_on_c, 0, 68, 114
3, 70148, Note_off_c, 0, 68, 0
3, 70148, Note_off_c, 0, 62, 0
3, 70176, Note_on_c, 0, 62, 114
3, 70176, Note_on_c, 0, 67, 114
3, 70248, Note_off_c, 0, 67, 0
3, 70248, Note_off_c, 0, 62, 0
3, 70272, Note_on_c, 0, 62, 114
3, 70272, Note_on_c, 0, 65, 114
3, 70396, Note_off_c, 0, 65, 0
3, 70396, Note_off_c, 0, 62, 0
3, 70416, Note_on_c, 0, 60, 114
3, 70416, Note_on_c, 0, 63, 114
3, 70532, Note_off_c, 0, 63, 0
3, 70532, Note_off_c, 0, 60, 0
3, 70560, Note_on_c, 0, 62, 114
3, 70560, Note_on_c, 0, 65, 114
3, 70632, Note_off_c, 0, 65, 0
3, 70632, Note_off_c, 0, 62, 0
3, 70656, Control_c, 0, 1, 60
3, 70656, Note_on_c, 0, 59, 114
3, 70656, Note_on_c, 0, 67, 114
3, 71036, Note_off_c, 0, 67, 0
3, 71036, Note_off_c, 0, 59, 0
3, 71376, Control_c, 0, 11, 127
3, 71424, Control_c, 0, 1, 0
3, 71424, Note_on_c, 0, 60, 114
3, 71424, Pitch_bend_c, 0, 7424
3, 71428, Pitch_bend_c, 0, 7534
3, 71432, Pitch_bend_c, 0, 7641
3, 71436, Pitch_bend_c, 0, 7744
3, 71440, Pitch_bend_c, 0, 7840
3, 71444, Pitch_bend_c, 0, 7928
3, 71448, Pitch_bend_c, 0, 8006
3, 71452, Pitch_bend_c, 0, 8071
3, 71456, Pitch_bend_c, 0, 8124
3, 71460, Pitch_bend_c, 0, 8162
3, 71464, Pitch_bend_c, 0, 8186
3, 71468, Pitch_bend_c, 0, 8192
3, 71608, Note_off_c, 0, 60, 0
3, 71616, Note_on_c, 0, 63, 114
3, 71800, Note_off_c, 0, 63, 0
3, 71808, Note_on_c, 0, 65, 114
3, 71808, Pitch_bend_c, 0, 7568
3, 71812, Pitch_bend_c, 0, 7657
3, 71816, Pitch_bend_c, 0, 7745
3, 71820, Pitch_bend_c, 0, 7828
3, 71824, Pitch_bend_c, 0, 7906
3, 71828, Pitch_bend_c, 0, 7978
3, 71832, Pitch_bend_c, 0, 8041
3, 71836, Pitch_bend_c, 0, 8094
3, 71840, Pitch_bend_c, 0, 8137
3, 71844, Pitch_bend_c, 0, 8168
3, 71848, Pitch_bend_c, 0, 8187
3, 71852, Pitch_bend_c, 0, 8192
3, 71948, Note_off_c, 0, 65, 0
3, 71952, Note_on_c, 0, 63, 114
3, 72084, Note_off_c, 0, 63, 0
3, 72096, Note_on_c, 0, 65, 114
3, 72176, Note_off_c, 0, 65, 0
3, 72192, Note_on_c, 0, 65, 114
3, 72264, Note_off_c, 0, 65, 0
3, 72288, Note_on_c, 0, 65, 114
3, 72352, Note_off_c, 0, 65, 0
3, 72384, Note_on_c, 0, 70, 114
3, 72384, Pitch_bend_c, 0, 7136
3, 72388, Pitch_bend_c, 0, 7372
3, 72392, Pitch_bend_c, 0, 7595
3, 72396, Pitch_bend_c, 0, 7796
3, 72400, Pitch_bend_c, 0, 7963
3, 72404, Pitch_bend_c, 0, 8089
3, 72408, Pitch_bend_c, 0, 8167
3, 72412, Pitch_bend_c, 0, 8192
3, 72476, Note_off_c, 0, 70, 0
3, 72480, Note_on_c, 0, 68, 114
3, 72564, Note_off_c, 0, 68, 0
3, 72576, Note_on_c, 0, 67, 114
3, 72620, Note_off_c, 0, 67, 0
3, 72624, Note_on_c, 0, 65, 114
3, 72716, Note_off_c, 0, 65, 0
3, 72720, Control_c, 0, 1, 60
3, 72720, Note_on_c, 0, 67, 114
3, 72824, Note_off_c, 0, 67, 0
3, 72960, Control_c, 0, 1, 0
3, 72960, Note_on_c, 0, 67, 114
3, 73148, Note_off_c, 0, 67, 0
3, 73152, Control_c, 0, 1, 60
3, 73152, Note_on_c, 0, 70, 114
3, 73152, Pitch_bend_c, 0, 7445
3, 73156, Pitch_bend_c, 0, 7605
3, 73160, Pitch_bend_c, 0, 7751
3, 73164, Pitch_bend_c, 0, 7881
3, 73168, Pitch_bend_c, 0, 7990
3, 73172, Pitch_bend_c, 0, 8078
3, 73176, Pitch_bend_c, 0, 8142
3, 73180, Pitch_bend_c, 0, 8180
3, 73184, Pitch_bend_c, 0, 8192
3, 73340, Note_off_c, 0, 70, 0
3, 73344, Control_c, 0, 1, 0
3, 73344, Note_on_c, 0, 72, 114
3, 73484, Note_off_c, 0, 72, 0
3, 73488, Note_on_c, 0, 65, 114
3, 73624, Note_off_c, 0, 65, 0
3, 73632, Note_on_c, 0, 63, 114
3, 73724, Note_off_c, 0, 63, 0
3, 73728, Note_on_c, 0, 62, 114
3, 73804, Note_off_c, 0, 62, 0
3, 73824, Note_on_c, 0, 62, 114
3, 73892, Note_off_c, 0, 62, 0
3, 73920, Note_on_c, 0, 60, 114
3, 74000, Note_off_c, 0, 60, 0
3, 74016, Note_on_c, 0, 62, 114
3, 74104, Note_off_c, 0, 62, 0
3, 74112, Note_on_c, 0, 65, 114
3, 74148, Note_off_c, 0, 65, 0
3, 74160, Note_on_c, 0, 63, 114
3, 74228, Note_off_c, 0, 63, 0
3, 74256, Note_on_c, 0, 63, 114
3, 74348, Note_off_c, 0, 63, 0
3, 74496, Note_on_c, 0, 60, 114
3, 74496, Pitch_bend_c, 0, 7424
3, 74500, Pitch_bend_c, 0, 7534
3, 74504, Pitch_bend_c, 0, 7641
3, 74508, Pitch_bend_c, 0, 7744
3, 74512, Pitch_bend_c, 0, 7840
3, 74516, Pitch_bend_c, 0, 7928
3, 74520, Pitch_bend_c, 0, 8006
3, 74524, Pitch_bend_c, 0, 8071
3, 74528, Pitch_bend_c, 0, 8124
3, 74532, Pitch_bend_c, 0, 8162
3, 74536, Pitch_bend_c, 0, 8186
3, 74540, Pitch_bend_c, 0, 8192
3, 74680, Note_off_c, 0, 60, 0
3, 74688, Note_on_c, 0, 63, 114
3, 74872, Note_off_c, 0, 63, 0
3, 74880, Note_on_c, 0, 65, 114
3, 74880, Pitch_bend_c, 0, 7568
3, 74884, Pitch_bend_c, 0, 7657
3, 74888, Pitch_bend_c, 0, 7745
3, 74892, Pitch_bend_c, 0, 7828
3, 74896, Pitch_bend_c, 0, 7906
3, 74900, Pitch_bend_c, 0, 7978
3, 74904, Pitch_bend_c, 0, 8041
3, 74908, Pitch_bend_c, 0, 8094
3, 74912, Pitch_bend_c, 0, 8137
3, 74916, Pitch_bend_c, 0, 8168
3, 74920, Pitch_bend_c, 0, 8187
3, 74924, Pitch_bend_c, 0, 8192
3, 75020, Note_off_c, 0, 65, 0
3, 75024, Note_on_c, 0, 63, 114
3, 75156, Note_off_c, 0, 63, 0
3, 75168, Note_on_c, 0, 65, 114
3, 75248, Note_off_c, 0, 65, 0
3, 75264, Note_on_c, 0, 65, 114
3, 75332, Note_off_c, 0, 65, 0
3, 75360, Note_on_c, 0, 65, 114
3, 75424, Note_off_c, 0, 65, 0
3, 75456, Note_on_c, 0, 70, 114
3, 75456, Pitch_bend_c, 0, 7136
3, 75460, Pitch_bend_c, 0, 7372
3, 75464, Pitch_bend_c, 0, 7595
3, 75468, Pitch_bend_c, 0, 7796
3, 75472, Pitch_bend_c, 0, 7963
3, 75476, Pitch_bend_c, 0, 8089
3, 75480, Pitch_bend_c, 0, 8167
3, 75484, Pitch_bend_c, 0, 8192
3, 75548, Note_off_c, 0, 70, 0
3, 75552, Note_on_c, 0, 68, 114
3, 75632, Note_off_c, 0, 68, 0
3, 75648, Note_on_c, 0, 67, 114
3, 75692, Note_off_c, 0, 67, 0
3, 75696, Note_on_c, 0, 65, 114
3, 75764, Note_off_c, 0, 65, 0
3, 75792, Control_c, 0, 1, 60
3, 75792, Note_on_c, 0, 67, 114
3, 75896, Note_off_c, 0, 67, 0
3, 76032, Control_c, 0, 1, 0
3, 76032, Note_on_c, 0, 67, 114
3, 76220, Note_off_c, 0, 67, 0
3, 76224, Control_c, 0, 1, 60
3, 76224, Note_on_c, 0, 70, 114
3, 76224, Pitch_bend_c, 0, 7445
3, 76228, Pitch_bend_c, 0, 7605
3, 76232, Pitch_bend_c, 0, 7751
3, 76236, Pitch_bend_c, 0, 7881
3, 76240, Pitch_bend_c, 0, 7990
3, 76244, Pitch_bend_c, 0, 8078
3, 76248, Pitch_bend_c, 0, 8142
3, 76252, Pitch_bend_c, 0, 8180
3, 76256, Pitch_bend_c, 0, 8192
3, 76412, Note_off_c, 0, 70, 0
3, 76416, Control_c, 0, 1, 0
3, 76416, Note_on_c, 0, 72, 114
3, 76556, Note_off_c, 0, 72, 0
3, 76560, Note_on_c, 0, 65, 114
3, 76696, Note_off_c, 0, 65, 0
3, 76704, Note_on_c, 0, 63, 114
3, 76796, Note_off_c, 0, 63, 0
3, 76800, Note_on_c, 0, 70, 114
3, 76872, Note_off_c, 0, 70, 0
3, 76896, Note_on_c, 0, 70, 114
3, 76964, Note_off_c, 0, 70, 0
3, 76992, Note_on_c, 0, 67, 114
3, 77072, Note_off_c, 0, 67, 0
3, 77088, Note_on_c, 0, 70, 114
3, 77156, Note_off_c, 0, 70, 0
3, 77184, Note_on_c, 0, 70, 114
3, 77184, Pitch_bend_c, 0, 7088
3, 77188, Pitch_bend_c, 0, 7246
3, 77192, Pitch_bend_c, 0, 7400
3, 77196, Pitch_bend_c, 0, 7548
3, 77200, Pitch_bend_c, 0, 7686
3, 77204, Pitch_bend_c, 0, 7812
3, 77208, Pitch_bend_c, 0, 7924
3, 77212, Pitch_bend_c, 0, 8018
3, 77216, Pitch_bend_c, 0, 8094
3, 77220, Pitch_bend_c, 0, 8149
3, 77224, Pitch_bend_c, 0, 8182
3, 77228, Pitch_bend_c, 0, 8192
3, 77324, Note_off_c, 0, 70, 0
3, 77328, Note_on_c, 0, 72, 114
3, 77396, Note_off_c, 0, 72, 0
3, 77568, Note_on_c, 0, 60, 114
3, 77568, Pitch_bend_c, 0, 7424
3, 77572, Pitch_bend_c, 0, 7534
3, 77576, Pitch_bend_c, 0, 7641
3, 77580, Pitch_bend_c, 0, 7744
3, 77584, Pitch_bend_c, 0, 7840
3, 77588, Pitch_bend_c, 0, 7928
3, 77592, Pitch_bend_c, 0, 8006
3, 77596, Pitch_bend_c, 0, 8071
3, 77600, Pitch_bend_c, 0, 8124
3, 77604, Pitch_bend_c, 0, 8162
3, 77608, Pitch_bend_c, 0, 8186
3, 77612, Pitch_bend_c, 0, 8192
3, 77752, Note_off_c, 0, 60, 0
3, 77760, Note_on_c, 0, 63, 114
3, 77944, Note_off_c, 0, 63, 0
3, 77952, Note_on_c, 0, 65, 114
3, 77952, Pitch_bend_c, 0, 7568
3, 77956, Pitch_bend_c, 0, 7657
3, 77960, Pitch_bend_c, 0, 7745
3, 77964, Pitch_bend_c, 0, 7828
3, 77968, Pitch_bend_c, 0, 7906
3, 77972, Pitch_bend_c, 0, 7978
3, 77976, Pitch_bend_c, 0, 8041
3, 77980, Pitch_bend_c, 0, 8094
3, 77984, Pitch_bend_c, 0, 8137
3, 77988, Pitch_bend_c, 0, 8168
3, 77992, Pitch_bend_c, 0, 8187
3, 77996, Pitch_bend_c, 0, 8192
3, 78092, Note_off_c, 0, 65, 0
3, 78096, Note_on_c, 0, 63, 114
3, 78228, Note_off_c, 0, 63, 0
3, 78240, Note_on_c, 0, 65, 114
3, 78320, Note_off_c, 0, 65, 0
3, 78336, Note_on_c, 0, 65, 114
3, 78404, Note_off_c, 0, 65, 0
3, 78432, Note_on_c, 0, 65, 114
3, 78492, Note_off_c, 0, 65, 0
3, 78528, Note_on_c, 0, 70, 114
3, 78528, Pitch_bend_c, 0, 7136
3, 78532, Pitch_bend_c, 0, 7372
3, 78536, Pitch_bend_c, 0, 7595
3, 78540, Pitch_bend_c, 0, 7796
3, 78544, Pitch_bend_c, 0, 7963
3, 78548, Pitch_bend_c, 0, 8089
3, 78552, Pitch_bend_c, 0, 8167
3, 78556, Pitch_bend_c, 0, 8192
3, 78620, Note_off_c, 0, 70, 0
3, 78624, Note_on_c, 0, 68, 114
3, 78708, Note_off_c, 0, 68, 0
3, 78720, Note_on_c, 0, 67, 114
3, 78764, Note_off_c, 0, 67, 0
3, 78768, Note_on_c, 0, 65, 114
3, 78844, Note_off_c, 0, 65, 0
3, 78864, Control_c, 0, 1, 60
3, 78864, Note_on_c, 0, 67, 114
3, 78968, Note_off_c, 0, 67, 0
3, 79104, Control_c, 0, 1, 0
3, 79104, Note_on_c, 0, 67, 114
3, 79292, Note_off_c, 0, 67, 0
3, 79296, Control_c, 0, 1, 60
3, 79296, Note_on_c, 0, 70, 114
3, 79296, Pitch_bend_c, 0, 7445
3, 79300, Pitch_bend_c, 0, 7605
3, 79304, Pitch_bend_c, 0, 7751
3, 79308, Pitch_bend_c, 0, 7881
3, 79312, Pitch_bend_c, 0, 7990
3, 79316, Pitch_bend_c, 0, 8078
3, 79320, Pitch_bend_c, 0, 8142
3, 79324, Pitch_bend_c, 0, 8180
3, 79328, Pitch_bend_c, 0, 8192
3, 79484, Note_off_c, 0, 70, 0
3, 79488, Control_c, 0, 1, 0
3, 79488, Note_on_c, 0, 72, 114
3, 79628, Note_off_c, 0, 72, 0
3, 79632, Note_on_c, 0, 65, 114
3, 79768, Note_off_c, 0, 65, 0
3, 79776, Note_on_c, 0, 63, 114
3, 79868, Note_off_c, 0, 63, 0
3, 79872, Note_on_c, 0, 70, 114
3, 79944, Note_off_c, 0, 70, 0
3, 79968, Note_on_c, 0, 70, 114
3, 80036, Note_off_c, 0, 70, 0
3, 80064, Note_on_c, 0, 67, 114
3, 80144, Note_off_c, 0, 67, 0
3, 80160, Note_on_c, 0, 70, 114
3, 80228, Note_off_c, 0, 70, 0
3, 80256, Note_on_c, 0, 70, 114
3, 80256, Pitch_bend_c, 0, 7088
3, 80260, Pitch_bend_c, 0, 7246
3, 80264, Pitch_bend_c, 0, 7400
3, 80268, Pitch_bend_c, 0, 7548
3, 80272, Pitch_bend_c, 0, 7686
3, 80276, Pitch_bend_c, 0, 7812
3, 80280, Pitch_bend_c, 0, 7924
3, 80284, Pitch_bend_c, 0, 8018
3, 80288, Pitch_bend_c, 0, 8094
3, 80292, Pitch_bend_c, 0, 8149
3, 80296, Pitch_bend_c, 0, 8182
3, 80300, Pitch_bend_c, 0, 8192
3, 80396, Note_off_c, 0, 70, 0
3, 80400, Note_on_c, 0, 72, 114
3, 80472, Note_off_c, 0, 72, 0
3, 80640, Control_c, 0, 11, 120
3, 80640, Control_c, 0, 1, 0
3, 80640, Note_on_c, 0, 63, 114
3, 80764, Note_off_c, 0, 63, 0
3, 80784, Note_on_c, 0, 63, 114
3, 80900, Note_off_c, 0, 63, 0
3, 80928, Note_on_c, 0, 62, 114
3, 81000, Note_off_c, 0, 62, 0
3, 81024, Note_on_c, 0, 63, 114
3, 81148, Note_off_c, 0, 63, 0
3, 81168, Note_on_c, 0, 63, 114
3, 81284, Note_off_c, 0, 63, 0
3, 81312, Note_on_c, 0, 62, 114
3, 81384, Note_off_c, 0, 62, 0
3, 81408, Note_on_c, 0, 65, 114
3, 81532, Note_off_c, 0, 65, 0
3, 81552, Note_on_c, 0, 65, 114
3, 81668, Note_off_c, 0, 65, 0
3, 81696, Note_on_c, 0, 63, 114
3, 81768, Note_off_c, 0, 63, 0
3, 81792, Note_on_c, 0, 62, 114
3, 81916, Note_off_c, 0, 62, 0
3, 81936, Note_on_c, 0, 60, 114
3, 82052, Note_off_c, 0, 60, 0
3, 82080, Note_on_c, 0, 62, 114
3, 82152, Note_off_c, 0, 62, 0
3, 82176, Note_on_c, 0, 63, 114
3, 82300, Note_off_c, 0, 63, 0
3, 82320, Note_on_c, 0, 63, 114
3, 82436, Note_off_c, 0, 63, 0
3, 82464, Note_on_c, 0, 62, 114
3, 82536, Note_off_c, 0, 62, 0
3, 82560, Note_on_c, 0, 65, 114
3, 82684, Note_off_c, 0, 65, 0
3, 82704, Note_on_c, 0, 62, 114
3, 82820, Note_off_c, 0, 62, 0
3, 82848, Note_on_c, 0, 60, 114
3, 82920, Note_off_c, 0, 60, 0
3, 82944, Note_on_c, 0, 58, 114
3, 83124, Note_off_c, 0, 58, 0
3, 83712, Note_on_c, 0, 63, 114
3, 83836, Note_off_c, 0, 63, 0
3, 83856, Note_on_c, 0, 63, 114
3, 83972, Note_off_c, 0, 63, 0
3, 84000, Note_on_c, 0, 62, 114
3, 84072, Note_off_c, 0, 62, 0
3, 84096, Note_on_c, 0, 60, 114
3, 84096, Note_on_c, 0, 63, 114
3, 84220, Note_off_c, 0, 63, 0
3, 84220, Note_off_c, 0, 60, 0
3, 84240, Note_on_c, 0, 60, 114
3, 84240, Note_on_c, 0, 63, 114
3, 84356, Note_off_c, 0, 63, 0
3, 84356, Note_off_c, 0, 60, 0
3, 84384, Note_on_c, 0, 58, 114
3, 84384, Note_on_c, 0, 62, 114
3, 84456, Note_off_c, 0, 62, 0
3, 84456, Note_off_c, 0, 58, 0
3, 84480, Note_on_c, 0, 62, 114
3, 84480, Note_on_c, 0, 65, 114
3, 84604, Note_off_c, 0, 65, 0
3, 84604, Note_off_c, 0, 62, 0
3, 84624, Note_on_c, 0, 62, 114
3, 84624, Note_on_c, 0, 65, 114
3, 84740, Note_off_c, 0, 65, 0
3, 84740, Note_off_c, 0, 62, 0
3, 84768, Note_on_c, 0, 60, 114
3, 84768, Note_on_c, 0, 63, 114
3, 84840, Note_off_c, 0, 63, 0
3, 84840, Note_off_c, 0, 60, 0
3, 84864, Note_on_c, 0, 58, 114
3, 84864, Note_on_c, 0, 62, 114
3, 84988, Note_off_c, 0, 62, 0
3, 84988, Note_off_c, 0, 58, 0
3, 85008, Note_on_c, 0, 60, 114
3, 85008, Note_on_c, 0, 63, 114
3, 85124, Note_off_c, 0, 63, 0
3, 85124, Note_off_c, 0, 60, 0
3, 85152, Note_on_c, 0, 62, 114
3, 85152, Note_on_c, 0, 65, 114
3, 85224, Note_off_c, 0, 65, 0
3, 85224, Note_off_c, 0, 62, 0
3, 85248, Note_on_c, 0, 62, 114
3, 85248, Note_on_c, 0, 67, 114
3, 85372, Note_off_c, 0, 67, 0
3, 85372, Note_off_c, 0, 62, 0
3, 85392, Note_on_c, 0, 62, 114
3, 85392, Note_on_c, 0, 68, 114
3, 85508, Note_off_c, 0, 68, 0
3, 85508, Note_off_c, 0, 62, 0
3, 85536, Note_on_c, 0, 62, 114
3, 85536, Note_on_c, 0, 67, 114
3, 85608, Note_off_c, 0, 67, 0
3, 85608, Note_off_c, 0, 62, 0
3, 85632, Note_on_c, 0, 62, 114
3, 85632, Note_on_c, 0, 65, 114
3, 85756, Note_off_c, 0, 65, 0
3, 85756, Note_off_c, 0, 62, 0
3, 85776, Note_on_c, 0, 60, 114
3, 85776, Note_on_c, 0, 63, 114
3, 85892, Note_off_c, 0, 63, 0
3, 85892, Note_off_c, 0, 60, 0
3, 85920, Note_on_c, 0, 62, 114
3, 85920, Note_on_c, 0, 65, 114
3, 85992, Note_off_c, 0, 65, 0
3, 85992, Note_off_c, 0, 62, 0
3, 86016, Control_c, 0, 1, 60
3, 86016, Note_on_c, 0, 59, 114
3, 86016, Note_on_c, 0, 67, 114
3, 86396, Note_off_c, 0, 67, 0
3, 86396, Note_off_c, 0, 59, 0
3, 86736, Control_c, 0, 11, 127
3, 86784, Control_c, 0, 1, 0
3, 86784, Note_on_c, 0, 60, 114
3, 86784, Pitch_bend_c, 0, 7424
3, 86788, Pitch_bend_c, 0, 7534
3, 86792, Pitch_bend_c, 0, 7641
3, 86796, Pitch_bend_c, 0, 7744
3, 86800, Pitch_bend_c, 0, 7840
3, 86804, Pitch_bend_c, 0, 7928
3, 86808, Pitch_bend_c, 0, 8006
3, 86812, Pitch_bend_c, 0, 8071
3, 86816, Pitch_bend_c, 0, 8124
3, 86820, Pitch_bend_c, 0, 8162
3, 86824, Pitch_bend_c, 0, 8186
3, 86828, Pitch_bend_c, 0, 8192
3, 86968, Note_off_c, 0, 60, 0
3, 86976, Note_on_c, 0, 63, 114
3, 87160, Note_off_c, 0, 63, 0
3, 87168, Note_on_c, 0, 65, 114
3, 87168, Pitch_bend_c, 0, 7568
3, 87172, Pitch_bend_c, 0, 7657
3, 87176, Pitch_bend_c, 0, 7745
3, 87180, Pitch_bend_c, 0, 7828
3, 87184, Pitch_bend_c, 0, 7906
3, 87188, Pitch_bend_c, 0, 7978
3, 87192, Pitch_bend_c, 0, 8041
3, 87196, Pitch_bend_c, 0, 8094
3, 87200, Pitch_bend_c, 0, 8137
3, 87204, Pitch_bend_c, 0, 8168
3, 87208, Pitch_bend_c, 0, 8187
3, 87212, Pitch_bend_c, 0, 8192
3, 87308, Note_off_c, 0, 65, 0
3, 87312, Note_on_c, 0, 63, 114
3, 87444, Note_off_c, 0, 63, 0
3, 87456, Note_on_c, 0, 65, 114
3, 87536, Note_off_c, 0, 65, 0
3, 87552, Note_on_c, 0, 65, 114
3, 87624, Note_off_c, 0, 65, 0
3, 87648, Note_on_c, 0, 65, 114
3, 87712, Note_off_c, 0, 65, 0
3, 87744, Note_on_c, 0, 70, 114
3, 87744, Pitch_bend_c, 0, 7136
3, 87748, Pitch_bend_c, 0, 7372
3, 87752, Pitch_bend_c, 0, 7595
3, 87756, Pitch_bend_c, 0, 7796
3, 87760, Pitch_bend_c, 0, 7963
3, 87764, Pitch_bend_c, 0, 8089
3, 87768, Pitch_bend_c, 0, 8167
3, 87772, Pitch_bend_c, 0, 8192
3, 87836, Note_off_c, 0, 70, 0
3, 87840, Note_on_c, 0, 68, 114
3, 87924, Note_off_c, 0, 68, 0
3, 87936, Note_on_c, 0, 67, 114
3, 87980, Note_off_c, 0, 67, 0
3, 87984, Note_on_c, 0, 65, 114
3, 88076, Note_off_c, 0, 65, 0
3, 88080, Control_c, 0, 1, 60
3, 88080, Note_on_c, 0, 67, 114
3, 88184, Note_off_c, 0, 67, 0
3, 88320, Control_c, 0, 1, 0
3, 88320, Note_on_c, 0, 67, 114
3, 88508, Note_off_c, 0, 67, 0
3, 88512, Control_c, 0, 1, 60
3, 88512, Note_on_c, 0, 70, 114
3, 88512, Pitch_bend_c, 0, 7445
3, 88516, Pitch_bend_c, 0, 7605
3, 88520, Pitch_bend_c, 0, 7751
3, 88524, Pitch_bend_c, 0, 7881
3, 88528, Pitch_bend_c, 0, 7990
3, 88532, Pitch_bend_c, 0, 8078
3, 88536, Pitch_bend_c, 0, 8142
3, 88540, Pitch_bend_c, 0, 8180
3, 88544, Pitch_bend_c, 0, 8192
3, 88700, Note_off_c, 0, 70, 0
3, 88704, Control_c, 0, 1, 0
3, 88704, Note_on_c, 0, 72, 114
3, 88844, Note_off_c, 0, 72, 0
3, 88848, Note_on_c, 0, 65, 114
3, 88984, Note_off_c, 0, 65, 0
3, 88992, Note_on_c, 0, 63, 114
3, 89084, Note_off_c, 0, 63, 0
3, 89088, Note_on_c, 0, 62, 114
3, 89164, Note_off_c, 0, 62, 0
3, 89184, Note_on_c, 0, 62, 114
3, 89252, Note_off_c, 0, 62, 0
3, 89280, Note_on_c, 0, 60, 114
3, 89360, Note_off_c, 0, 60, 0
3, 89376, Note_on_c, 0, 62, 114
3, 89464, Note_off_c, 0, 62, 0
3, 89472, Note_on_c, 0, 65, 114
3, 89508, Note_off_c, 0, 65, 0
3, 89520, Note_on_c, 0, 63, 114
3, 89588, Note_off_c, 0, 63, 0
3, 89616, Note_on_c, 0, 63, 114
3, 89708, Note_off_c, 0, 63, 0
3, 89856, Note_on_c, 0, 60, 114
3, 89856, Pitch_bend_c, 0, 7424
3, 89860, Pitch_bend_c, 0, 7534
3, 89864, Pitch_bend_c, 0, 7641
3, 89868, Pitch_bend_c, 0, 7744
3, 89872, Pitch_bend_c, 0, 7840
3, 89876, Pitch_bend_c, 0, 7928
3, 89880, Pitch_bend_c, 0, 8006
3, 89884, Pitch_bend_c, 0, 8071
3, 89888, Pitch_bend_c, 0, 8124
3, 89892, Pitch_bend_c, 0, 8162
3, 89896, Pitch_bend_c, 0, 8186
3, 89900, Pitch_bend_c, 0, 8192
3, 90040, Note_off_c, 0, 60, 0
3, 90048, Note_on_c, 0, 63, 114
3, 90232, Note_off_c, 0, 63, 0
3, 90240, Note_on_c, 0, 65, 114
3, 90240, Pitch_bend_c, 0, 7568
3, 90244, Pitch_bend_c, 0, 7657
3, 90248, Pitch_bend_c, 0, 7745
3, 90252, Pitch_bend_c, 0, 7828
3, 90256, Pitch_bend_c, 0, 7906
3, 90260, Pitch_bend_c, 0, 7978
3, 90264, Pitch_bend_c, 0, 8041
3, 90268, Pitch_bend_c, 0, 8094
3, 90272, Pitch_bend_c, 0, 8137
3, 90276, Pitch_bend_c, 0, 8168
3, 90280, Pitch_bend_c, 0, 8187
3, 90284, Pitch_bend_c, 0, 8192
3, 90380, Note_off_c, 0, 65, 0
3, 90384, Note_on_c, 0, 63, 114
3, 90516, Note_off_c, 0, 63, 0
3, 90528, Note_on_c, 0, 65, 114
3, 90608, Note_off_c, 0, 65, 0
3, 90624, Note_on_c, 0, 65, 114
3, 90692, Note_off_c, 0, 65, 0
3, 90720, Note_on_c, 0, 65, 114
3, 90784, Note_off_c, 0, 65, 0
3, 90816, Note_on_c, 0, 70, 114
3, 90816, Pitch_bend_c, 0, 7136
3, 90820, Pitch_bend_c, 0, 7372
3, 90824, Pitch_bend_c, 0, 7595
3, 90828, Pitch_bend_c, 0, 7796
3, 90832, Pitch_bend_c, 0, 7963
3, 90836, Pitch_bend_c, 0, 8089
3, 90840, Pitch_bend_c, 0, 8167
3, 90844, Pitch_bend_c, 0, 8192
3, 90908, Note_off_c, 0, 70, 0
3, 90912, Note_on_c, 0, 68, 114
3, 90992, Note_off_c, 0, 68, 0
3, 91008, Note_on_c, 0, 67, 114
3, 91052, Note_off_c, 0, 67, 0
3, 91056, Note_on_c, 0, 65, 114
3, 91124, Note_off_c, 0, 65, 0
3, 91152, Control_c, 0, 1, 60
3, 91152, Note_on_c, 0, 67, 114
3, 91256, Note_off_c, 0, 67, 0
3, 91392, Control_c, 0, 1, 0
3, 91392, Note_on_c, 0, 67, 114
3, 91580, Note_off_c, 0, 67, 0
3, 91584, Control_c, 0, 1, 60
3, 91584, Note_on_c, 0, 70, 114
3, 91584, Pitch_bend_c, 0, 7445
3, 91588, Pitch_bend_c, 0, 7605
3, 91592, Pitch_bend_c, 0, 7751
3, 91596, Pitch_bend_c, 0, 7881
3, 91600, Pitch_bend_c, 0, 7990
3, 91604, Pitch_bend_c, 0, 8078
3, 91608, Pitch_bend_c, 0, 8142
3, 91612, Pitch_bend_c, 0, 8180
3, 91616, Pitch_bend_c, 0, 8192
3, 91772, Note_off_c, 0, 70, 0
3, 91776, Control_c, 0, 1, 0
3, 91776, Note_on_c, 0, 72, 114
3, 91916, Note_off_c, 0, 72, 0
3, 91920, Note_on_c, 0, 65, 114
3, 92056, Note_off_c, 0, 65, 0
3, 92064, Note_on_c, 0, 63, 114
3, 92156, Note_off_c, 0, 63, 0
3, 92160, Note_on_c, 0, 70, 114
3, 92232, Note_off_c, 0, 70, 0
3, 92256, Note_on_c, 0, 70, 114
3, 92324, Note_off_c, 0, 70, 0
3, 92352, Note_on_c, 0, 67, 114
3, 92432, Note_off_c, 0, 67, 0
3, 92448, Note_on_c, 0, 70, 114
3, 92516, Note_off_c, 0, 70, 0
3, 92544, Note_on_c, 0, 70, 114
3, 92544, Pitch_bend_c, 0, 7088
3, 92548, Pitch_bend_c, 0, 7246
3, 92552, Pitch_bend_c, 0, 7400
3, 92556, Pitch_bend_c, 0, 7548
3, 92560, Pitch_bend_c, 0, 7686
3, 92564, Pitch_bend_c, 0, 7812
3, 92568, Pitch_bend_c, 0, 7924
3, 92572, Pitch_bend_c, 0, 8018
3, 92576, Pitch_bend_c, 0, 8094
3, 92580, Pitch_bend_c, 0, 8149
3, 92584, Pitch_bend_c, 0, 8182
3, 92588, Pitch_bend_c, 0, 8192
3, 92684, Note_off_c, 0, 70, 0
3, 92688, Note_on_c, 0, 72, 114
3, 92756, Note_off_c, 0, 72, 0
3, 92928, Note_on_c, 0, 60, 114
3, 92928, Pitch_bend_c, 0, 7424
3, 92932, Pitch_bend_c, 0, 7534
3, 92936, Pitch_bend_c, 0, 7641
3, 92940, Pitch_bend_c, 0, 7744
3, 92944, Pitch_bend_c, 0, 7840
3, 92948, Pitch_bend_c, 0, 7928
3, 92952, Pitch_bend_c, 0, 8006
3, 92956, Pitch_bend_c, 0, 8071
3, 92960, Pitch_bend_c, 0, 8124
3, 92964, Pitch_bend_c, 0, 8162
3, 92968, Pitch_bend_c, 0, 8186
3, 92972, Pitch_bend_c, 0, 8192
3, 93112, Note_off_c, 0, 60, 0
3, 93120, Note_on_c, 0, 63, 114
3, 93304, Note_off_c, 0, 63, 0
3, 93312, Note_on_c, 0, 65, 114
3, 93312, Pitch_bend_c, 0, 7568
3, 93316, Pitch_bend_c, 0, 7657
3, 93320, Pitch_bend_c, 0, 7745
3, 93324, Pitch_bend_c, 0, 7828
3, 93328, Pitch_bend_c, 0, 7906
3, 93332, Pitch_bend_c, 0, 7978
3, 93336, Pitch_bend_c, 0, 8041
3, 93340, Pitch_bend_c, 0, 8094
3, 93344, Pitch_bend_c, 0, 8137
3, 93348, Pitch_bend_c, 0, 8168
3, 93352, Pitch_bend_c, 0, 8187
3, 93356, Pitch_bend_c, 0, 8192
3, 93452, Note_off_c, 0, 65, 0
3, 93456, Note_on_c, 0, 63, 114
3, 93588, Note_off_c, 0, 63, 0
3, 93600, Note_on_c, 0, 65, 114
3, 93680, Note_off_c, 0, 65, 0
3, 93696, Note_on_c, 0, 65, 114
3, 93764, Note_off_c, 0, 65, 0
3, 93792, Note_on_c, 0, 65, 114
3, 93852, Note_off_c, 0, 65, 0
3, 93888, Note_on_c, 0, 70, 114
3, 93888, Pitch_bend_c, 0, 7136
3, 93892, Pitch_bend_c, 0, 7372
3, 93896, Pitch_bend_c, 0, 7595
3, 93900, Pitch_bend_c, 0, 7796
3, 93904, Pitch_bend_c, 0, 7963
3, 93908, Pitch_bend_c, 0, 8089
3, 93912, Pitch_bend_c, 0, 8167
3, 93916, Pitch_bend_c, 0, 8192
3, 93980, Note_off_c, 0, 70, 0
3, 93984, Note_on_c, 0, 68, 114
3, 94068, Note_off_c, 0, 68, 0
3, 94080, Note_on_c, 0, 67, 114
3, 94124, Note_off_c, 0, 67, 0
3, 94128, Note_on_c, 0, 65, 114
3, 94204, Note_off_c, 0, 65, 0
3, 94224, Control_c, 0, 1, 60
3, 94224, Note_on_c, 0, 67, 114
3, 94328, Note_off_c, 0, 67, 0
3, 94464, Control_c, 0, 1, 0
3, 94464, Note_on_c, 0, 67, 114
3, 94652, Note_off_c, 0, 67, 0
3, 94656, Control_c, 0, 1, 60
3, 94656, Note_on_c, 0, 70, 114
3, 94656, Pitch_bend_c, 0, 7445
3, 94660, Pitch_bend_c, 0, 7605
3, 94664, Pitch_bend_c, 0, 7751
3, 94668, Pitch_bend_c, 0, 7881
3, 94672, Pitch_bend_c, 0, 7990
3, 94676, Pitch_bend_c, 0, 8078
3, 94680, Pitch_bend_c, 0, 8142
3, 94684, Pitch_bend_c, 0, 8180
3, 94688, Pitch_bend_c, 0, 8192
3, 94844, Note_off_c, 0, 70, 0
3, 94848, Control_c, 0, 1, 0
3, 94848, Note_on_c, 0, 72, 114
3, 94988, Note_off_c, 0, 72, 0
3, 94992, Note_on_c, 0, 65, 114
3, 95128, Note_off_c, 0, 65, 0
3, 95136, Note_on_c, 0, 63, 114
3, 95228, Note_off_c, 0, 63, 0
3, 95232, Note_on_c, 0, 70, 114
3, 95304, Note_off_c, 0, 70, 0
3, 95328, Note_on_c, 0, 70, 114
3, 95396, Note_off_c, 0, 70, 0
3, 95424, Note_on_c, 0, 67, 114
3, 95504, Note_off_c, 0, 67, 0
3, 95520, Note_on_c, 0, 70, 114
3, 95588, Note_off_c, 0, 70, 0
3, 95616, Note_on_c, 0, 70, 114
3, 95616, Pitch_bend_c, 0, 7088
3, 95620, Pitch_bend_c, 0, 7246
3, 95624, Pitch_bend_c, 0, 7400
3, 95628, Pitch_bend_c, 0, 7548
3, 95632, Pitch_bend_c, 0, 7686
3, 95636, Pitch_bend_c, 0, 7812
3, 95640, Pitch_bend_c, 0, 7924
3, 95644, Pitch_bend_c, 0, 8018
3, 95648, Pitch_bend_c, 0, 8094
3, 95652, Pitch_bend_c, 0, 8149
3, 95656, Pitch_bend_c, 0, 8182
3, 95660, Pitch_bend_c, 0, 8192
3, 95756, Note_off_c, 0, 70, 0
3, 95760, Note_on_c, 0, 72, 114
3, 95832, Note_off_c, 0, 72, 0
3, 95832, End_track
4, 0, Start_track
4, 0, Title_t, "Remixed"
4, 0, Channel_prefix, 1
4, 0, Control_c, 1, 7, 100
4, 0, Program_c, 1, 32
4, 0, Control_c, 1, 0, 0
4, 3836, Note_on_c, 1, 36, 127
4, 3904, Note_off_c, 1, 36, 0
4, 3932, Note_on_c, 1, 36, 127
4, 4000, Note_off_c, 1, 36, 0
4, 4028, Note_on_c, 1, 36, 127
4, 4096, Note_off_c, 1, 36, 0
4, 4124, Note_on_c, 1, 38, 127
4, 4168, Note_off_c, 1, 38, 0
4, 4172, Note_on_c, 1, 39, 127
4, 4216, Note_off_c, 1, 39, 0
4, 4220, Note_on_c, 1, 41, 127
4, 4264, Note_off_c, 1, 41, 0
4, 4268, Note_on_c, 1, 41, 127
4, 4336, Note_off_c, 1, 41, 0
4, 4364, Note_on_c, 1, 41, 127
4, 4408, Note_off_c, 1, 41, 0
4, 4412, Note_on_c, 1, 39, 127
4, 4500, Note_off_c, 1, 39, 0
4, 4508, Note_on_c, 1, 36, 127
4, 4596, Note_off_c, 1, 36, 0
4, 4604, Note_on_c, 1, 34, 127
4, 4672, Note_off_c, 1, 34, 0
4, 4700, Note_on_c, 1, 34, 127
4, 4768, Note_off_c, 1, 34, 0
4, 4796, Note_on_c, 1, 34, 127
4, 4864, Note_off_c, 1, 34, 0
4, 4892, Note_on_c, 1, 38, 127
4, 4960, Note_off_c, 1, 38, 0
4, 4988, Note_on_c, 1, 39, 127
4, 5032, Note_off_c, 1, 39, 0
4, 5036, Note_on_c, 1, 39, 127
4, 5104, Note_off_c, 1, 39, 0
4, 5132, Note_on_c, 1, 39, 127
4, 5176, Note_off_c, 1, 39, 0
4, 5180, Note_on_c, 1, 39, 127
4, 5268, Note_off_c, 1, 39, 0
4, 5276, Note_on_c, 1, 38, 127
4, 5364, Note_off_c, 1, 38, 0
4, 5372, Note_on_c, 1, 36, 127
4, 5440, Note_off_c, 1, 36, 0
4, 5468, Note_on_c, 1, 36, 127
4, 5536, Note_off_c, 1, 36, 0
4, 5564, Note_on_c, 1, 36, 127
4, 5632, Note_off_c, 1, 36, 0
4, 5660, Note_on_c, 1, 38, 127
4, 5704, Note_off_c, 1, 38, 0
4, 5708, Note_on_c, 1, 39, 127
4, 5752, Note_off_c, 1, 39, 0
4, 5756, Note_on_c, 1, 41, 127
4, 5800, Note_off_c, 1, 41, 0
4, 5804, Note_on_c, 1, 41, 127
4, 5872, Note_off_c, 1, 41, 0
4, 5900, Note_on_c, 1, 41, 127
4, 5944, Note_off_c, 1, 41, 0
4, 5948, Note_on_c, 1, 39, 127
4, 6036, Note_off_c, 1, 39, 0
4, 6044, Note_on_c, 1, 36, 127
4, 6132, Note_off_c, 1, 36, 0
4, 6140, Note_on_c, 1, 34, 127
4, 6208, Note_off_c, 1, 34, 0
4, 6236, Note_on_c, 1, 34, 127
4, 6304, Note_off_c, 1, 34, 0
4, 6332, Note_on_c, 1, 34, 127
4, 6400, Note_off_c, 1, 34, 0
4, 6428, Note_on_c, 1, 34, 127
4, 6496, Note_off_c, 1, 34, 0
4, 6524, Note_on_c, 1, 36, 127
4, 6592, Note_off_c, 1, 36, 0
4, 6620, Note_on_c, 1, 36, 127
4, 6688, Note_off_c, 1, 36, 0
4, 6716, Note_on_c, 1, 36, 127
4, 6784, Note_off_c, 1, 36, 0
4, 6812, Note_on_c, 1, 36, 127
4, 6880, Note_off_c, 1, 36, 0
4, 6908, Note_on_c, 1, 39, 127
4, 7672, Note_off_c, 1, 39, 0
4, 7676, Note_on_c, 1, 34, 127
4, 8440, Note_off_c, 1, 34, 0
4, 8444, Note_on_c, 1, 36, 127
4, 8824, Note_off_c, 1, 36, 0
4, 8828, Note_on_c, 1, 34, 127
4, 9208, Note_off_c, 1, 34, 0
4, 9212, Note_on_c, 1, 32, 127
4, 9976, Note_off_c, 1, 32, 0
4, 9980, Note_on_c, 1, 34, 127
4, 10360, Note_off_c, 1, 34, 0
4, 10364, Note_on_c, 1, 34, 127
4, 10744, Note_off_c, 1, 34, 0
4, 10748, Note_on_c, 1, 39, 127
4, 11128, Note_off_c, 1, 39, 0
4, 11132, Note_on_c, 1, 36, 127
4, 11512, Note_off_c, 1, 36, 0
4, 11516, Note_on_c, 1, 38, 127
4, 12280, Note_off_c, 1, 38, 0
4, 12284, Note_on_c, 1, 31, 127
4, 12664, Note_off_c, 1, 31, 0
4, 12668, Note_on_c, 1, 43, 127
4, 13048, Note_off_c, 1, 43, 0
4, 13052, Note_on_c, 1, 39, 127
4, 13816, Note_off_c, 1, 39, 0
4, 13820, Note_on_c, 1, 34, 127
4, 14584, Note_off_c, 1, 34, 0
4, 14588, Note_on_c, 1, 36, 127
4, 14968, Note_off_c, 1, 36, 0
4, 14972, Note_on_c, 1, 34, 127
4, 15352, Note_off_c, 1, 34, 0
4, 15356, Note_on_c, 1, 32, 127
4, 16120, Note_off_c, 1, 32, 0
4, 16124, Note_on_c, 1, 34, 127
4, 16504, Note_off_c, 1, 34, 0
4, 16508, Note_on_c, 1, 34, 127
4, 16888, Note_off_c, 1, 34, 0
4, 16892, Note_on_c, 1, 39, 127
4, 17272, Note_off_c, 1, 39, 0
4, 17276, Note_on_c, 1, 36, 127
4, 17656, Note_off_c, 1, 36, 0
4, 17660, Note_on_c, 1, 38, 127
4, 18424, Note_off_c, 1, 38, 0
4, 18428, Note_on_c, 1, 31, 127
4, 18616, Note_off_c, 1, 31, 0
4, 18620, Note_on_c, 1, 31, 127
4, 18808, Note_off_c, 1, 31, 0
4, 18812, Note_on_c, 1, 43, 127
4, 19000, Note_off_c, 1, 43, 0
4, 19004, Note_on_c, 1, 31, 127
4, 19192, Note_off_c, 1, 31, 0
4, 19196, Note_on_c, 1, 32, 127
4, 19264, Note_off_c, 1, 32, 0
4, 19292, Note_on_c, 1, 32, 127
4, 19360, Note_off_c, 1, 32, 0
4, 19388, Note_on_c, 1, 32, 127
4, 19432, Note_off_c, 1, 32, 0
4, 19436, Note_on_c, 1, 32, 127
4, 19528, Note_off_c, 1, 32, 0
4, 19532, Note_on_c, 1, 32, 127
4, 19576, Note_off_c, 1, 32, 0
4, 19580, Note_on_c, 1, 32, 127
4, 19616, Note_off_c, 1, 32, 0
4, 19628, Note_on_c, 1, 32, 127
4, 19712, Note_off_c, 1, 32, 0
4, 19724, Note_on_c, 1, 32, 127
4, 19760, Note_off_c, 1, 32, 0
4, 19772, Note_on_c, 1, 32, 127
4, 19816, Note_off_c, 1, 32, 0
4, 19820, Note_on_c, 1, 32, 127
4, 19912, Note_off_c, 1, 32, 0
4, 19916, Note_on_c, 1, 32, 127
4, 19952, Note_off_c, 1, 32, 0
4, 19964, Note_on_c, 1, 31, 127
4, 20032, Note_off_c, 1, 31, 0
4, 20060, Note_on_c, 1, 31, 127
4, 20128, Note_off_c, 1, 31, 0
4, 20156, Note_on_c, 1, 31, 127
4, 20196, Note_off_c, 1, 31, 0
4, 20204, Note_on_c, 1, 31, 127
4, 20248, Note_off_c, 1, 31, 0
4, 20252, Note_on_c, 1, 29, 127
4, 20296, Note_off_c, 1, 29, 0
4, 20300, Note_on_c, 1, 31, 127
4, 20340, Note_off_c, 1, 31, 0
4, 20348, Note_on_c, 1, 36, 127
4, 20384, Note_off_c, 1, 36, 0
4, 20396, Note_on_c, 1, 36, 127
4, 20480, Note_off_c, 1, 36, 0
4, 20492, Note_on_c, 1, 36, 127
4, 20528, Note_off_c, 1, 36, 0
4, 20540, Note_on_c, 1, 36, 127
4, 20584, Note_off_c, 1, 36, 0
4, 20588, Note_on_c, 1, 36, 127
4, 20632, Note_off_c, 1, 36, 0
4, 20636, Note_on_c, 1, 34, 127
4, 20676, Note_off_c, 1, 34, 0
4, 20684, Note_on_c, 1, 36, 127
4, 20720, Note_off_c, 1, 36, 0
4, 20732, Note_on_c, 1, 29, 127
4, 20800, Note_off_c, 1, 29, 0
4, 20828, Note_on_c, 1, 29, 127
4, 20896, Note_off_c, 1, 29, 0
4, 20924, Note_on_c, 1, 29, 127
4, 20964, Note_off_c, 1, 29, 0
4, 20972, Note_on_c, 1, 29, 127
4, 21016, Note_off_c, 1, 29, 0
4, 21020, Note_on_c, 1, 29, 127
4, 21064, Note_off_c, 1, 29, 0
4, 21068, Note_on_c, 1, 29, 127
4, 21108, Note_off_c, 1, 29, 0
4, 21116, Note_on_c, 1, 34, 127
4, 21152, Note_off_c, 1, 34, 0
4, 21164, Note_on_c, 1, 34, 127
4, 21248, Note_off_c, 1, 34, 0
4, 21260, Note_on_c, 1, 34, 127
4, 21296, Note_off_c, 1, 34, 0
4, 21308, Note_on_c, 1, 34, 127
4, 21352, Note_off_c, 1, 34, 0
4, 21356, Note_on_c, 1, 34, 127
4, 21400, Note_off_c, 1, 34, 0
4, 21404, Note_on_c, 1, 34, 127
4, 21444, Note_off_c, 1, 34, 0
4, 21452, Note_on_c, 1, 34, 127
4, 21488, Note_off_c, 1, 34, 0
4, 21500, Note_on_c, 1, 34, 127
4, 21568, Note_off_c, 1, 34, 0
4, 21596, Note_on_c, 1, 34, 127
4, 21664, Note_off_c, 1, 34, 0
4, 21692, Note_on_c, 1, 34, 127
4, 21732, Note_off_c, 1, 34, 0
4, 21740, Note_on_c, 1, 34, 127
4, 21784, Note_off_c, 1, 34, 0
4, 21788, Note_on_c, 1, 29, 127
4, 21832, Note_off_c, 1, 29, 0
4, 21836, Note_on_c, 1, 34, 127
4, 21876, Note_off_c, 1, 34, 0
4, 21884, Note_on_c, 1, 39, 127
4, 21920, Note_off_c, 1, 39, 0
4, 21932, Note_on_c, 1, 39, 127
4, 22016, Note_off_c, 1, 39, 0
4, 22028, Note_on_c, 1, 39, 127
4, 22064, Note_off_c, 1, 39, 0
4, 22076, Note_on_c, 1, 39, 127
4, 22120, Note_off_c, 1, 39, 0
4, 22124, Note_on_c, 1, 39, 127
4, 22168, Note_off_c, 1, 39, 0
4, 22172, Note_on_c, 1, 34, 127
4, 22212, Note_off_c, 1, 34, 0
4, 22220, Note_on_c, 1, 31, 127
4, 22256, Note_off_c, 1, 31, 0
4, 22268, Note_on_c, 1, 32, 127
4, 22336, Note_off_c, 1, 32, 0
4, 22364, Note_on_c, 1, 32, 127
4, 22432, Note_off_c, 1, 32, 0
4, 22460, Note_on_c, 1, 32, 127
4, 22504, Note_off_c, 1, 32, 0
4, 22508, Note_on_c, 1, 32, 127
4, 22600, Note_off_c, 1, 32, 0
4, 22604, Note_on_c, 1, 32, 127
4, 22648, Note_off_c, 1, 32, 0
4, 22652, Note_on_c, 1, 32, 127
4, 22688, Note_off_c, 1, 32, 0
4, 22700, Note_on_c, 1, 32, 127
4, 22784, Note_off_c, 1, 32, 0
4, 22796, Note_on_c, 1, 32, 127
4, 22832, Note_off_c, 1, 32, 0
4, 22844, Note_on_c, 1, 32, 127
4, 22888, Note_off_c, 1, 32, 0
4, 22892, Note_on_c, 1, 32, 127
4, 22984, Note_off_c, 1, 32, 0
4, 22988, Note_on_c, 1, 32, 127
4, 23024, Note_off_c, 1, 32, 0
4, 23036, Note_on_c, 1, 31, 127
4, 23104, Note_off_c, 1, 31, 0
4, 23132, Note_on_c, 1, 31, 127
4, 23200, Note_off_c, 1, 31, 0
4, 23228, Note_on_c, 1, 31, 127
4, 23268, Note_off_c, 1, 31, 0
4, 23276, Note_on_c, 1, 31, 127
4, 23320, Note_off_c, 1, 31, 0
4, 23324, Note_on_c, 1, 29, 127
4, 23368, Note_off_c, 1, 29, 0
4, 23372, Note_on_c, 1, 31, 127
4, 23412, Note_off_c, 1, 31, 0
4, 23420, Note_on_c, 1, 36, 127
4, 23456, Note_off_c, 1, 36, 0
4, 23468, Note_on_c, 1, 36, 127
4, 23552, Note_off_c, 1, 36, 0
4, 23564, Note_on_c, 1, 36, 127
4, 23600, Note_off_c, 1, 36, 0
4, 23612, Note_on_c, 1, 36, 127
4, 23656, Note_off_c, 1, 36, 0
4, 23660, Note_on_c, 1, 36, 127
4, 23704, Note_off_c, 1, 36, 0
4, 23708, Note_on_c, 1, 34, 127
4, 23748, Note_off_c, 1, 34, 0
4, 23756, Note_on_c, 1, 36, 127
4, 23792, Note_off_c, 1, 36, 0
4, 23804, Note_on_c, 1, 38, 127
4, 23872, Note_off_c, 1, 38, 0
4, 23900, Note_on_c, 1, 38, 127
4, 23968, Note_off_c, 1, 38, 0
4, 23996, Note_on_c, 1, 38, 127
4, 24036, Note_off_c, 1, 38, 0
4, 24044, Note_on_c, 1, 38, 127
4, 24088, Note_off_c, 1, 38, 0
4, 24092, Note_on_c, 1, 38, 127
4, 24136, Note_off_c, 1, 38, 0
4, 24140, Note_on_c, 1, 38, 127
4, 24180, Note_off_c, 1, 38, 0
4, 24188, Note_on_c, 1, 38, 127
4, 24224, Note_off_c, 1, 38, 0
4, 24236, Note_on_c, 1, 38, 127
4, 24320, Note_off_c, 1, 38, 0
4, 24332, Note_on_c, 1, 38, 127
4, 24368, Note_off_c, 1, 38, 0
4, 24380, Note_on_c, 1, 38, 127
4, 24424, Note_off_c, 1, 38, 0
4, 24428, Note_on_c, 1, 38, 127
4, 24472, Note_off_c, 1, 38, 0
4, 24476, Note_on_c, 1, 38, 127
4, 24516, Note_off_c, 1, 38, 0
4, 24524, Note_on_c, 1, 38, 127
4, 24560, Note_off_c, 1, 38, 0
4, 24572, Note_on_c, 1, 31, 127
4, 24640, Note_off_c, 1, 31, 0
4, 24668, Note_on_c, 1, 31, 127
4, 24736, Note_off_c, 1, 31, 0
4, 24764, Note_on_c, 1, 31, 127
4, 24804, Note_off_c, 1, 31, 0
4, 24812, Note_on_c, 1, 31, 127
4, 24856, Note_off_c, 1, 31, 0
4, 24860, Note_on_c, 1, 31, 127
4, 24904, Note_off_c, 1, 31, 0
4, 24908, Note_on_c, 1, 31, 127
4, 24948, Note_off_c, 1, 31, 0
4, 24956, Note_on_c, 1, 31, 127
4, 24992, Note_off_c, 1, 31, 0
4, 25004, Note_on_c, 1, 31, 127
4, 25088, Note_off_c, 1, 31, 0
4, 25100, Note_on_c, 1, 31, 127
4, 25136, Note_off_c, 1, 31, 0
4, 25148, Note_on_c, 1, 31, 127
4, 25192, Note_off_c, 1, 31, 0
4, 25196, Note_on_c, 1, 31, 127
4, 25240, Note_off_c, 1, 31, 0
4, 25244, Note_on_c, 1, 31, 127
4, 25284, Note_off_c, 1, 31, 0
4, 25292, Note_on_c, 1, 31, 127
4, 25328, Note_off_c, 1, 31, 0
4, 25340, Note_on_c, 1, 36, 127
4, 25408, Note_off_c, 1, 36, 0
4, 25436, Note_on_c, 1, 36, 127
4, 25504, Note_off_c, 1, 36, 0
4, 25532, Note_on_c, 1, 36, 127
4, 25600, Note_off_c, 1, 36, 0
4, 25628, Note_on_c, 1, 38, 127
4, 25672, Note_off_c, 1, 38, 0
4, 25676, Note_on_c, 1, 39, 127
4, 25720, Note_off_c, 1, 39, 0
4, 25724, Note_on_c, 1, 41, 127
4, 25768, Note_off_c, 1, 41, 0
4, 25772, Note_on_c, 1, 41, 127
4, 25840, Note_off_c, 1, 41, 0
4, 25868, Note_on_c, 1, 41, 127
4, 25912, Note_off_c, 1, 41, 0
4, 25916, Note_on_c, 1, 39, 127
4, 26004, Note_off_c, 1, 39, 0
4, 26012, Note_on_c, 1, 36, 127
4, 26100, Note_off_c, 1, 36, 0
4, 26108, Note_on_c, 1, 34, 127
4, 26176, Note_off_c, 1, 34, 0
4, 26204, Note_on_c, 1, 34, 127
4, 26272, Note_off_c, 1, 34, 0
4, 26300, Note_on_c, 1, 34, 127
4, 26368, Note_off_c, 1, 34, 0
4, 26396, Note_on_c, 1, 38, 127
4, 26464, Note_off_c, 1, 38, 0
4, 26492, Note_on_c, 1, 39, 127
4, 26536, Note_off_c, 1, 39, 0
4, 26540, Note_on_c, 1, 39, 127
4, 26608, Note_off_c, 1, 39, 0
4, 26636, Note_on_c, 1, 39, 127
4, 26680, Note_off_c, 1, 39, 0
4, 26684, Note_on_c, 1, 39, 127
4, 26772, Note_off_c, 1, 39, 0
4, 26780, Note_on_c, 1, 38, 127
4, 26868, Note_off_c, 1, 38, 0
4, 26876, Note_on_c, 1, 36, 127
4, 26944, Note_off_c, 1, 36, 0
4, 26972, Note_on_c, 1, 36, 127
4, 27040, Note_off_c, 1, 36, 0
4, 27068, Note_on_c, 1, 36, 127
4, 27136, Note_off_c, 1, 36, 0
4, 27164, Note_on_c, 1, 38, 127
4, 27208, Note_off_c, 1, 38, 0
4, 27212, Note_on_c, 1, 39, 127
4, 27256, Note_off_c, 1, 39, 0
4, 27260, Note_on_c, 1, 41, 127
4, 27304, Note_off_c, 1, 41, 0
4, 27308, Note_on_c, 1, 41, 127
4, 27376, Note_off_c, 1, 41, 0
4, 27404, Note_on_c, 1, 41, 127
4, 27448, Note_off_c, 1, 41, 0
4, 27452, Note_on_c, 1, 39, 127
4, 27540, Note_off_c, 1, 39, 0
4, 27548, Note_on_c, 1, 36, 127
4, 27636, Note_off_c, 1, 36, 0
4, 27644, Note_on_c, 1, 34, 127
4, 27712, Note_off_c, 1, 34, 0
4, 27740, Note_on_c, 1, 34, 127
4, 27808, Note_off_c, 1, 34, 0
4, 27836, Note_on_c, 1, 34, 127
4, 27904, Note_off_c, 1, 34, 0
4, 27932, Note_on_c, 1, 38, 127
4, 28000, Note_off_c, 1, 38, 0
4, 28028, Note_on_c, 1, 39, 127
4, 28072, Note_off_c, 1, 39, 0
4, 28076, Note_on_c, 1, 39, 127
4, 28144, Note_off_c, 1, 39, 0
4, 28172, Note_on_c, 1, 39, 127
4, 28216, Note_off_c, 1, 39, 0
4, 28220, Note_on_c, 1, 39, 127
4, 28308, Note_off_c, 1, 39, 0
4, 28316, Note_on_c, 1, 38, 127
4, 28404, Note_off_c, 1, 38, 0
4, 28412, Note_on_c, 1, 36, 127
4, 28480, Note_off_c, 1, 36, 0
4, 28508, Note_on_c, 1, 36, 127
4, 28576, Note_off_c, 1, 36, 0
4, 28604, Note_on_c, 1, 36, 127
4, 28672, Note_off_c, 1, 36, 0
4, 28700, Note_on_c, 1, 38, 127
4, 28744, Note_off_c, 1, 38, 0
4, 28748, Note_on_c, 1, 39, 127
4, 28792, Note_off_c, 1, 39, 0
4, 28796, Note_on_c, 1, 41, 127
4, 28840, Note_off_c, 1, 41, 0
4, 28844, Note_on_c, 1, 41, 127
4, 28912, Note_off_c, 1, 41, 0
4, 28940, Note_on_c, 1, 41, 127
4, 28984, Note_off_c, 1, 41, 0
4, 28988, Note_on_c, 1, 39, 127
4, 29076, Note_off_c, 1, 39, 0
4, 29084, Note_on_c, 1, 36, 127
4, 29172, Note_off_c, 1, 36, 0
4, 29180, Note_on_c, 1, 34, 127
4, 29248, Note_off_c, 1, 34, 0
4, 29276, Note_on_c, 1, 34, 127
4, 29344, Note_off_c, 1, 34, 0
4, 29372, Note_on_c, 1, 34, 127
4, 29440, Note_off_c, 1, 34, 0
4, 29468, Note_on_c, 1, 38, 127
4, 29536, Note_off_c, 1, 38, 0
4, 29564, Note_on_c, 1, 39, 127
4, 29608, Note_off_c, 1, 39, 0
4, 29612, Note_on_c, 1, 39, 127
4, 29680, Note_off_c, 1, 39, 0
4, 29708, Note_on_c, 1, 39, 127
4, 29752, Note_off_c, 1, 39, 0
4, 29756, Note_on_c, 1, 39, 127
4, 29844, Note_off_c, 1, 39, 0
4, 29852, Note_on_c, 1, 38, 127
4, 29940, Note_off_c, 1, 38, 0
4, 29948, Note_on_c, 1, 36, 127
4, 30016, Note_off_c, 1, 36, 0
4, 30044, Note_on_c, 1, 36, 127
4, 30112, Note_off_c, 1, 36, 0
4, 30140, Note_on_c, 1, 36, 127
4, 30208, Note_off_c, 1, 36, 0
4, 30236, Note_on_c, 1, 38, 127
4, 30280, Note_off_c, 1, 38, 0
4, 30284, Note_on_c, 1, 39, 127
4, 30328, Note_off_c, 1, 39, 0
4, 30332, Note_on_c, 1, 41, 127
4, 30376, Note_off_c, 1, 41, 0
4, 30380, Note_on_c, 1, 41, 127
4, 30448, Note_off_c, 1, 41, 0
4, 30476, Note_on_c, 1, 41, 127
4, 30520, Note_off_c, 1, 41, 0
4, 30524, Note_on_c, 1, 39, 127
4, 30612, Note_off_c, 1, 39, 0
4, 30620, Note_on_c, 1, 36, 127
4, 30708, Note_off_c, 1, 36, 0
4, 30716, Note_on_c, 1, 34, 127
4, 30784, Note_off_c, 1, 34, 0
4, 30812, Note_on_c, 1, 34, 127
4, 30880, Note_off_c, 1, 34, 0
4, 30908, Note_on_c, 1, 34, 127
4, 30976, Note_off_c, 1, 34, 0
4, 31004, Note_on_c, 1, 34, 127
4, 31048, Note_off_c, 1, 34, 0
4, 31052, Note_on_c, 1, 34, 127
4, 31096, Note_off_c, 1, 34, 0
4, 31100, Note_on_c, 1, 36, 127
4, 31144, Note_off_c, 1, 36, 0
4, 31148, Note_on_c, 1, 36, 127
4, 31216, Note_off_c, 1, 36, 0
4, 31244, Note_on_c, 1, 36, 127
4, 31288, Note_off_c, 1, 36, 0
4, 31292, Note_on_c, 1, 36, 127
4, 31360, Note_off_c, 1, 36, 0
4, 31388, Note_on_c, 1, 36, 127
4, 31456, Note_off_c, 1, 36, 0
4, 31484, Note_on_c, 1, 36, 127
4, 31552, Note_off_c, 1, 36, 0
4, 31580, Note_on_c, 1, 36, 127
4, 31648, Note_off_c, 1, 36, 0
4, 31676, Note_on_c, 1, 36, 127
4, 31744, Note_off_c, 1, 36, 0
4, 31772, Note_on_c, 1, 38, 127
4, 31816, Note_off_c, 1, 38, 0
4, 31820, Note_on_c, 1, 39, 127
4, 31864, Note_off_c, 1, 39, 0
4, 31868, Note_on_c, 1, 41, 127
4, 31912, Note_off_c, 1, 41, 0
4, 31916, Note_on_c, 1, 41, 127
4, 31984, Note_off_c, 1, 41, 0
4, 32012, Note_on_c, 1, 41, 127
4, 32056, Note_off_c, 1, 41, 0
4, 32060, Note_on_c, 1, 39, 127
4, 32148, Note_off_c, 1, 39, 0
4, 32156, Note_on_c, 1, 36, 127
4, 32244, Note_off_c, 1, 36, 0
4, 32252, Note_on_c, 1, 34, 127
4, 32320, Note_off_c, 1, 34, 0
4, 32348, Note_on_c, 1, 34, 127
4, 32416, Note_off_c, 1, 34, 0
4, 32444, Note_on_c, 1, 34, 127
4, 32512, Note_off_c, 1, 34, 0
4, 32540, Note_on_c, 1, 38, 127
4, 32608, Note_off_c, 1, 38, 0
4, 32636, Note_on_c, 1, 39, 127
4, 32680, Note_off_c, 1, 39, 0
4, 32684, Note_on_c, 1, 39, 127
4, 32752, Note_off_c, 1, 39, 0
4, 32780, Note_on_c, 1, 39, 127
4, 32824, Note_off_c, 1, 39, 0
4, 32828, Note_on_c, 1, 39, 127
4, 32916, Note_off_c, 1, 39, 0
4, 32924, Note_on_c, 1, 38, 127
4, 33012, Note_off_c, 1, 38, 0
4, 33020, Note_on_c, 1, 36, 127
4, 33088, Note_off_c, 1, 36, 0
4, 33116, Note_on_c, 1, 36, 127
4, 33184, Note_off_c, 1, 36, 0
4, 33212, Note_on_c, 1, 36, 127
4, 33280, Note_off_c, 1, 36, 0
4, 33308, Note_on_c, 1, 38, 127
4, 33352, Note_off_c, 1, 38, 0
4, 33356, Note_on_c, 1, 39, 127
4, 33400, Note_off_c, 1, 39, 0
4, 33404, Note_on_c, 1, 41, 127
4, 33448, Note_off_c, 1, 41, 0
4, 33452, Note_on_c, 1, 41, 127
4, 33520, Note_off_c, 1, 41, 0
4, 33548, Note_on_c, 1, 41, 127
4, 33592, Note_off_c, 1, 41, 0
4, 33596, Note_on_c, 1, 39, 127
4, 33684, Note_off_c, 1, 39, 0
4, 33692, Note_on_c, 1, 36, 127
4, 33780, Note_off_c, 1, 36, 0
4, 33788, Note_on_c, 1, 34, 127
4, 33856, Note_off_c, 1, 34, 0
4, 33884, Note_on_c, 1, 34, 127
4, 33952, Note_off_c, 1, 34, 0
4, 33980, Note_on_c, 1, 31, 127
4, 34048, Note_off_c, 1, 31, 0
4, 34076, Note_on_c, 1, 34, 127
4, 34144, Note_off_c, 1, 34, 0
4, 34172, Note_on_c, 1, 34, 127
4, 34312, Note_off_c, 1, 34, 0
4, 34316, Note_on_c, 1, 36, 127
4, 34384, Note_off_c, 1, 36, 0
4, 34556, Note_on_c, 1, 24, 127
4, 34600, Note_off_c, 1, 24, 0
4, 34604, Note_on_c, 1, 34, 127
4, 34648, Note_off_c, 1, 34, 0
4, 34652, Note_on_c, 1, 36, 127
4, 34696, Note_off_c, 1, 36, 0
4, 34700, Note_on_c, 1, 31, 127
4, 34744, Note_off_c, 1, 31, 0
4, 34748, Note_on_c, 1, 22, 127
4, 34792, Note_off_c, 1, 22, 0
4, 34796, Note_on_c, 1, 24, 127
4, 34840, Note_off_c, 1, 24, 0
4, 34844, Note_on_c, 1, 27, 127
4, 34888, Note_off_c, 1, 27, 0
4, 34892, Note_on_c, 1, 31, 127
4, 34936, Note_off_c, 1, 31, 0
4, 34940, Note_on_c, 1, 24, 127
4, 34984, Note_off_c, 1, 24, 0
4, 34988, Note_on_c, 1, 34, 127
4, 35032, Note_off_c, 1, 34, 0
4, 35036, Note_on_c, 1, 36, 127
4, 35080, Note_off_c, 1, 36, 0
4, 35084, Note_on_c, 1, 31, 127
4, 35128, Note_off_c, 1, 31, 0
4, 35132, Note_on_c, 1, 22, 127
4, 35176, Note_off_c, 1, 22, 0
4, 35180, Note_on_c, 1, 24, 127
4, 35224, Note_off_c, 1, 24, 0
4, 35228, Note_on_c, 1, 27, 127
4, 35272, Note_off_c, 1, 27, 0
4, 35276, Note_on_c, 1, 31, 127
4, 35320, Note_off_c, 1, 31, 0
4, 35324, Note_on_c, 1, 24, 127
4, 35368, Note_off_c, 1, 24, 0
4, 35372, Note_on_c, 1, 34, 127
4, 35416, Note_off_c, 1, 34, 0
4, 35420, Note_on_c, 1, 36, 127
4, 35464, Note_off_c, 1, 36, 0
4, 35468, Note_on_c, 1, 31, 127
4, 35512, Note_off_c, 1, 31, 0
4, 35516, Note_on_c, 1, 22, 127
4, 35560, Note_off_c, 1, 22, 0
4, 35564, Note_on_c, 1, 24, 127
4, 35608, Note_off_c, 1, 24, 0
4, 35612, Note_on_c, 1, 27, 127
4, 35656, Note_off_c, 1, 27, 0
4, 35660, Note_on_c, 1, 31, 127
4, 35704, Note_off_c, 1, 31, 0
4, 35708, Note_on_c, 1, 24, 127
4, 35752, Note_off_c, 1, 24, 0
4, 35756, Note_on_c, 1, 34, 127
4, 35800, Note_off_c, 1, 34, 0
4, 35804, Note_on_c, 1, 36, 127
4, 35848, Note_off_c, 1, 36, 0
4, 35852, Note_on_c, 1, 31, 127
4, 35896, Note_off_c, 1, 31, 0
4, 35900, Note_on_c, 1, 22, 127
4, 35944, Note_off_c, 1, 22, 0
4, 35948, Note_on_c, 1, 24, 127
4, 35992, Note_off_c, 1, 24, 0
4, 35996, Note_on_c, 1, 27, 127
4, 36040, Note_off_c, 1, 27, 0
4, 36044, Note_on_c, 1, 31, 127
4, 36088, Note_off_c, 1, 31, 0
4, 36092, Note_on_c, 1, 20, 127
4, 36136, Note_off_c, 1, 20, 0
4, 36140, Note_on_c, 1, 31, 127
4, 36184, Note_off_c, 1, 31, 0
4, 36188, Note_on_c, 1, 32, 127
4, 36232, Note_off_c, 1, 32, 0
4, 36236, Note_on_c, 1, 27, 127
4, 36280, Note_off_c, 1, 27, 0
4, 36284, Note_on_c, 1, 24, 127
4, 36328, Note_off_c, 1, 24, 0
4, 36332, Note_on_c, 1, 27, 127
4, 36376, Note_off_c, 1, 27, 0
4, 36380, Note_on_c, 1, 31, 127
4, 36424, Note_off_c, 1, 31, 0
4, 36428, Note_on_c, 1, 32, 127
4, 36472, Note_off_c, 1, 32, 0
4, 36476, Note_on_c, 1, 20, 127
4, 36520, Note_off_c, 1, 20, 0
4, 36524, Note_on_c, 1, 31, 127
4, 36568, Note_off_c, 1, 31, 0
4, 36572, Note_on_c, 1, 32, 127
4, 36616, Note_off_c, 1, 32, 0
4, 36620, Note_on_c, 1, 27, 127
4, 36664, Note_off_c, 1, 27, 0
4, 36668, Note_on_c, 1, 24, 127
4, 36712, Note_off_c, 1, 24, 0
4, 36716, Note_on_c, 1, 27, 127
4, 36760, Note_off_c, 1, 27, 0
4, 36764, Note_on_c, 1, 31, 127
4, 36808, Note_off_c, 1, 31, 0
4, 36812, Note_on_c, 1, 32, 127
4, 36856, Note_off_c, 1, 32, 0
4, 36860, Note_on_c, 1, 22, 127
4, 36904, Note_off_c, 1, 22, 0
4, 36908, Note_on_c, 1, 32, 127
4, 36952, Note_off_c, 1, 32, 0
4, 36956, Note_on_c, 1, 34, 127
4, 37000, Note_off_c, 1, 34, 0
4, 37004, Note_on_c, 1, 29, 127
4, 37048, Note_off_c, 1, 29, 0
4, 37052, Note_on_c, 1, 26, 127
4, 37096, Note_off_c, 1, 26, 0
4, 37100, Note_on_c, 1, 29, 127
4, 37144, Note_off_c, 1, 29, 0
4, 37148, Note_on_c, 1, 32, 127
4, 37192, Note_off_c, 1, 32, 0
4, 37196, Note_on_c, 1, 34, 127
4, 37240, Note_off_c, 1, 34, 0
4, 37244, Note_on_c, 1, 22, 127
4, 37288, Note_off_c, 1, 22, 0
4, 37292, Note_on_c, 1, 32, 127
4, 37336, Note_off_c, 1, 32, 0
4, 37340, Note_on_c, 1, 34, 127
4, 37384, Note_off_c, 1, 34, 0
4, 37388, Note_on_c, 1, 29, 127
4, 37432, Note_off_c, 1, 29, 0
4, 37436, Note_on_c, 1, 26, 127
4, 37480, Note_off_c, 1, 26, 0
4, 37484, Note_on_c, 1, 29, 127
4, 37528, Note_off_c, 1, 29, 0
4, 37532, Note_on_c, 1, 32, 127
4, 37576, Note_off_c, 1, 32, 0
4, 37580, Note_on_c, 1, 34, 127
4, 37624, Note_off_c, 1, 34, 0
4, 37628, Note_on_c, 1, 24, 127
4, 37672, Note_off_c, 1, 24, 0
4, 37676, Note_on_c, 1, 34, 127
4, 37720, Note_off_c, 1, 34, 0
4, 37724, Note_on_c, 1, 36, 127
4, 37768, Note_off_c, 1, 36, 0
4, 37772, Note_on_c, 1, 31, 127
4, 37816, Note_off_c, 1, 31, 0
4, 37820, Note_on_c, 1, 22, 127
4, 37864, Note_off_c, 1, 22, 0
4, 37868, Note_on_c, 1, 24, 127
4, 37912, Note_off_c, 1, 24, 0
4, 37916, Note_on_c, 1, 27, 127
4, 37960, Note_off_c, 1, 27, 0
4, 37964, Note_on_c, 1, 31, 127
4, 38008, Note_off_c, 1, 31, 0
4, 38012, Note_on_c, 1, 24, 127
4, 38056, Note_off_c, 1, 24, 0
4, 38060, Note_on_c, 1, 34, 127
4, 38104, Note_off_c, 1, 34, 0
4, 38108, Note_on_c, 1, 36, 127
4, 38152, Note_off_c, 1, 36, 0
4, 38156, Note_on_c, 1, 31, 127
4, 38200, Note_off_c, 1, 31, 0
4, 38204, Note_on_c, 1, 22, 127
4, 38248, Note_off_c, 1, 22, 0
4, 38252, Note_on_c, 1, 24, 127
4, 38296, Note_off_c, 1, 24, 0
4, 38300, Note_on_c, 1, 27, 127
4, 38344, Note_off_c, 1, 27, 0
4, 38348, Note_on_c, 1, 31, 127
4, 38392, Note_off_c, 1, 31, 0
4, 38396, Note_on_c, 1, 24, 127
4, 38440, Note_off_c, 1, 24, 0
4, 38444, Note_on_c, 1, 34, 127
4, 38488, Note_off_c, 1, 34, 0
4, 38492, Note_on_c, 1, 36, 127
4, 38536, Note_off_c, 1, 36, 0
4, 38540, Note_on_c, 1, 31, 127
4, 38584, Note_off_c, 1, 31, 0
4, 38588, Note_on_c, 1, 22, 127
4, 38632, Note_off_c, 1, 22, 0
4, 38636, Note_on_c, 1, 24, 127
4, 38680, Note_off_c, 1, 24, 0
4, 38684, Note_on_c, 1, 27, 127
4, 38728, Note_off_c, 1, 27, 0
4, 38732, Note_on_c, 1, 31, 127
4, 38776, Note_off_c, 1, 31, 0
4, 38780, Note_on_c, 1, 24, 127
4, 38824, Note_off_c, 1, 24, 0
4, 38828, Note_on_c, 1, 34, 127
4, 38872, Note_off_c, 1, 34, 0
4, 38876, Note_on_c, 1, 36, 127
4, 38920, Note_off_c, 1, 36, 0
4, 38924, Note_on_c, 1, 31, 127
4, 38968, Note_off_c, 1, 31, 0
4, 38972, Note_on_c, 1, 22, 127
4, 39016, Note_off_c, 1, 22, 0
4, 39020, Note_on_c, 1, 24, 127
4, 39064, Note_off_c, 1, 24, 0
4, 39068, Note_on_c, 1, 27, 127
4, 39112, Note_off_c, 1, 27, 0
4, 39116, Note_on_c, 1, 31, 127
4, 39160, Note_off_c, 1, 31, 0
4, 39164, Note_on_c, 1, 20, 127
4, 39208, Note_off_c, 1, 20, 0
4, 39212, Note_on_c, 1, 31, 127
4, 39256, Note_off_c, 1, 31, 0
4, 39260, Note_on_c, 1, 32, 127
4, 39304, Note_off_c, 1, 32, 0
4, 39308, Note_on_c, 1, 27, 127
4, 39352, Note_off_c, 1, 27, 0
4, 39356, Note_on_c, 1, 24, 127
4, 39400, Note_off_c, 1, 24, 0
4, 39404, Note_on_c, 1, 27, 127
4, 39448, Note_off_c, 1, 27, 0
4, 39452, Note_on_c, 1, 31, 127
4, 39496, Note_off_c, 1, 31, 0
4, 39500, Note_on_c, 1, 32, 127
4, 39544, Note_off_c, 1, 32, 0
4, 39548, Note_on_c, 1, 20, 127
4, 39592, Note_off_c, 1, 20, 0
4, 39596, Note_on_c, 1, 31, 127
4, 39640, Note_off_c, 1, 31, 0
4, 39644, Note_on_c, 1, 32, 127
4, 39688, Note_off_c, 1, 32, 0
4, 39692, Note_on_c, 1, 27, 127
4, 39736, Note_off_c, 1, 27, 0
4, 39740, Note_on_c, 1, 24, 127
4, 39784, Note_off_c, 1, 24, 0
4, 39788, Note_on_c, 1, 27, 127
4, 39832, Note_off_c, 1, 27, 0
4, 39836, Note_on_c, 1, 31, 127
4, 39880, Note_off_c, 1, 31, 0
4, 39884, Note_on_c, 1, 32, 127
4, 39928, Note_off_c, 1, 32, 0
4, 39932, Note_on_c, 1, 22, 127
4, 39976, Note_off_c, 1, 22, 0
4, 39980, Note_on_c, 1, 32, 127
4, 40024, Note_off_c, 1, 32, 0
4, 40028, Note_on_c, 1, 34, 127
4, 40072, Note_off_c, 1, 34, 0
4, 40076, Note_on_c, 1, 29, 127
4, 40120, Note_off_c, 1, 29, 0
4, 40124, Note_on_c, 1, 26, 127
4, 40168, Note_off_c, 1, 26, 0
4, 40172, Note_on_c, 1, 29, 127
4, 40216, Note_off_c, 1, 29, 0
4, 40220, Note_on_c, 1, 32, 127
4, 40264, Note_off_c, 1, 32, 0
4, 40268, Note_on_c, 1, 34, 127
4, 40312, Note_off_c, 1, 34, 0
4, 40316, Note_on_c, 1, 22, 127
4, 40360, Note_off_c, 1, 22, 0
4, 40364, Note_on_c, 1, 32, 127
4, 40408, Note_off_c, 1, 32, 0
4, 40412, Note_on_c, 1, 34, 127
4, 40456, Note_off_c, 1, 34, 0
4, 40460, Note_on_c, 1, 29, 127
4, 40504, Note_off_c, 1, 29, 0
4, 40508, Note_on_c, 1, 26, 127
4, 40552, Note_off_c, 1, 26, 0
4, 40556, Note_on_c, 1, 29, 127
4, 40600, Note_off_c, 1, 29, 0
4, 40604, Note_on_c, 1, 32, 127
4, 40648, Note_off_c, 1, 32, 0
4, 40652, Note_on_c, 1, 34, 127
4, 40696, Note_off_c, 1, 34, 0
4, 40700, Note_on_c, 1, 29, 127
4, 40760, Note_off_c, 1, 29, 0
4, 40796, Note_on_c, 1, 29, 127
4, 40924, Note_off_c, 1, 29, 0
4, 40940, Note_on_c, 1, 29, 127
4, 40976, Note_off_c, 1, 29, 0
4, 40988, Note_on_c, 1, 29, 127
4, 41024, Note_off_c, 1, 29, 0
4, 41036, Note_on_c, 1, 29, 127
4, 41072, Note_off_c, 1, 29, 0
4, 41084, Note_on_c, 1, 29, 127
4, 41144, Note_off_c, 1, 29, 0
4, 41180, Note_on_c, 1, 29, 127
4, 41308, Note_off_c, 1, 29, 0
4, 41324, Note_on_c, 1, 29, 127
4, 41360, Note_off_c, 1, 29, 0
4, 41372, Note_on_c, 1, 29, 127
4, 41408, Note_off_c, 1, 29, 0
4, 41420, Note_on_c, 1, 29, 127
4, 41456, Note_off_c, 1, 29, 0
4, 41468, Note_on_c, 1, 31, 127
4, 41528, Note_off_c, 1, 31, 0
4, 41564, Note_on_c, 1, 31, 127
4, 41692, Note_off_c, 1, 31, 0
4, 41708, Note_on_c, 1, 31, 127
4, 41744, Note_off_c, 1, 31, 0
4, 41756, Note_on_c, 1, 31, 127
4, 41792, Note_off_c, 1, 31, 0
4, 41804, Note_on_c, 1, 31, 127
4, 41840, Note_off_c, 1, 31, 0
4, 41852, Note_on_c, 1, 31, 127
4, 41912, Note_off_c, 1, 31, 0
4, 41948, Note_on_c, 1, 31, 127
4, 42076, Note_off_c, 1, 31, 0
4, 42092, Note_on_c, 1, 31, 127
4, 42128, Note_off_c, 1, 31, 0
4, 42140, Note_on_c, 1, 31, 127
4, 42176, Note_off_c, 1, 31, 0
4, 42188, Note_on_c, 1, 31, 127
4, 42224, Note_off_c, 1, 31, 0
4, 42236, Note_on_c, 1, 32, 127
4, 42296, Note_off_c, 1, 32, 0
4, 42332, Note_on_c, 1, 32, 127
4, 42460, Note_off_c, 1, 32, 0
4, 42476, Note_on_c, 1, 32, 127
4, 42512, Note_off_c, 1, 32, 0
4, 42524, Note_on_c, 1, 32, 127
4, 42560, Note_off_c, 1, 32, 0
4, 42572, Note_on_c, 1, 32, 127
4, 42608, Note_off_c, 1, 32, 0
4, 42620, Note_on_c, 1, 32, 127
4, 42680, Note_off_c, 1, 32, 0
4, 42716, Note_on_c, 1, 32, 127
4, 42844, Note_off_c, 1, 32, 0
4, 42860, Note_on_c, 1, 32, 127
4, 42896, Note_off_c, 1, 32, 0
4, 42908, Note_on_c, 1, 32, 127
4, 42944, Note_off_c, 1, 32, 0
4, 42956, Note_on_c, 1, 32, 127
4, 42992, Note_off_c, 1, 32, 0
4, 43004, Note_on_c, 1, 31, 127
4, 43064, Note_off_c, 1, 31, 0
4, 43100, Note_on_c, 1, 31, 127
4, 43228, Note_off_c, 1, 31, 0
4, 43244, Note_on_c, 1, 31, 127
4, 43280, Note_off_c, 1, 31, 0
4, 43292, Note_on_c, 1, 31, 127
4, 43328, Note_off_c, 1, 31, 0
4, 43340, Note_on_c, 1, 31, 127
4, 43376, Note_off_c, 1, 31, 0
4, 43388, Note_on_c, 1, 31, 127
4, 43448, Note_off_c, 1, 31, 0
4, 43484, Note_on_c, 1, 31, 127
4, 43612, Note_off_c, 1, 31, 0
4, 43628, Note_on_c, 1, 31, 127
4, 43664, Note_off_c, 1, 31, 0
4, 43676, Note_on_c, 1, 31, 127
4, 43712, Note_off_c, 1, 31, 0
4, 43724, Note_on_c, 1, 31, 127
4, 43760, Note_off_c, 1, 31, 0
4, 43772, Note_on_c, 1, 29, 127
4, 43832, Note_off_c, 1, 29, 0
4, 43868, Note_on_c, 1, 29, 127
4, 43996, Note_off_c, 1, 29, 0
4, 44012, Note_on_c, 1, 29, 127
4, 44048, Note_off_c, 1, 29, 0
4, 44060, Note_on_c, 1, 29, 127
4, 44096, Note_off_c, 1, 29, 0
4, 44108, Note_on_c, 1, 29, 127
4, 44144, Note_off_c, 1, 29, 0
4, 44156, Note_on_c, 1, 29, 127
4, 44216, Note_off_c, 1, 29, 0
4, 44252, Note_on_c, 1, 29, 127
4, 44380, Note_off_c, 1, 29, 0
4, 44396, Note_on_c, 1, 29, 127
4, 44432, Note_off_c, 1, 29, 0
4, 44444, Note_on_c, 1, 29, 127
4, 44480, Note_off_c, 1, 29, 0
4, 44492, Note_on_c, 1, 29, 127
4, 44528, Note_off_c, 1, 29, 0
4, 44540, Note_on_c, 1, 31, 127
4, 44600, Note_off_c, 1, 31, 0
4, 44636, Note_on_c, 1, 31, 127
4, 44764, Note_off_c, 1, 31, 0
4, 44780, Note_on_c, 1, 31, 127
4, 44816, Note_off_c, 1, 31, 0
4, 44828, Note_on_c, 1, 31, 127
4, 44864, Note_off_c, 1, 31, 0
4, 44876, Note_on_c, 1, 31, 127
4, 44912, Note_off_c, 1, 31, 0
4, 44924, Note_on_c, 1, 31, 127
4, 44984, Note_off_c, 1, 31, 0
4, 45020, Note_on_c, 1, 31, 127
4, 45148, Note_off_c, 1, 31, 0
4, 45164, Note_on_c, 1, 31, 127
4, 45200, Note_off_c, 1, 31, 0
4, 45212, Note_on_c, 1, 31, 127
4, 45248, Note_off_c, 1, 31, 0
4, 45260, Note_on_c, 1, 31, 127
4, 45296, Note_off_c, 1, 31, 0
4, 45308, Note_on_c, 1, 32, 127
4, 45368, Note_off_c, 1, 32, 0
4, 45404, Note_on_c, 1, 32, 127
4, 45532, Note_off_c, 1, 32, 0
4, 45548, Note_on_c, 1, 32, 127
4, 45584, Note_off_c, 1, 32, 0
4, 45596, Note_on_c, 1, 32, 127
4, 45632, Note_off_c, 1, 32, 0
4, 45644, Note_on_c, 1, 32, 127
4, 45680, Note_off_c, 1, 32, 0
4, 45692, Note_on_c, 1, 32, 127
4, 45752, Note_off_c, 1, 32, 0
4, 45788, Note_on_c, 1, 32, 127
4, 45916, Note_off_c, 1, 32, 0
4, 45932, Note_on_c, 1, 32, 127
4, 45968, Note_off_c, 1, 32, 0
4, 45980, Note_on_c, 1, 32, 127
4, 46016, Note_off_c, 1, 32, 0
4, 46028, Note_on_c, 1, 32, 127
4, 46064, Note_off_c, 1, 32, 0
4, 46076, Note_on_c, 1, 34, 127
4, 46136, Note_off_c, 1, 34, 0
4, 46172, Note_on_c, 1, 34, 127
4, 46300, Note_off_c, 1, 34, 0
4, 46316, Note_on_c, 1, 34, 127
4, 46352, Note_off_c, 1, 34, 0
4, 46364, Note_on_c, 1, 34, 127
4, 46400, Note_off_c, 1, 34, 0
4, 46412, Note_on_c, 1, 34, 127
4, 46448, Note_off_c, 1, 34, 0
4, 46460, Note_on_c, 1, 34, 127
4, 46652, Note_off_c, 1, 34, 0
4, 46652, Note_on_c, 1, 35, 127
4, 46844, Note_off_c, 1, 35, 0
4, 46844, Note_on_c, 1, 36, 127
4, 46912, Note_off_c, 1, 36, 0
4, 46940, Note_on_c, 1, 36, 127
4, 47008, Note_off_c, 1, 36, 0
4, 47036, Note_on_c, 1, 36, 127
4, 47104, Note_off_c, 1, 36, 0
4, 47132, Note_on_c, 1, 38, 127
4, 47176, Note_off_c, 1, 38, 0
4, 47180, Note_on_c, 1, 39, 127
4, 47224, Note_off_c, 1, 39, 0
4, 47228, Note_on_c, 1, 41, 127
4, 47272, Note_off_c, 1, 41, 0
4, 47276, Note_on_c, 1, 41, 127
4, 47344, Note_off_c, 1, 41, 0
4, 47372, Note_on_c, 1, 41, 127
4, 47416, Note_off_c, 1, 41, 0
4, 47420, Note_on_c, 1, 39, 127
4, 47508, Note_off_c, 1, 39, 0
4, 47516, Note_on_c, 1, 36, 127
4, 47604, Note_off_c, 1, 36, 0
4, 47612, Note_on_c, 1, 34, 127
4, 47680, Note_off_c, 1, 34, 0
4, 47708, Note_on_c, 1, 34, 127
4, 47776, Note_off_c, 1, 34, 0
4, 47804, Note_on_c, 1, 34, 127
4, 47872, Note_off_c, 1, 34, 0
4, 47900, Note_on_c, 1, 38, 127
4, 47968, Note_off_c, 1, 38, 0
4, 47996, Note_on_c, 1, 39, 127
4, 48040, Note_off_c, 1, 39, 0
4, 48044, Note_on_c, 1, 39, 127
4, 48112, Note_off_c, 1, 39, 0
4, 48140, Note_on_c, 1, 39, 127
4, 48184, Note_off_c, 1, 39, 0
4, 48188, Note_on_c, 1, 39, 127
4, 48276, Note_off_c, 1, 39, 0
4, 48284, Note_on_c, 1, 38, 127
4, 48372, Note_off_c, 1, 38, 0
4, 48380, Note_on_c, 1, 36, 127
4, 48448, Note_off_c, 1, 36, 0
4, 48476, Note_on_c, 1, 36, 127
4, 48544, Note_off_c, 1, 36, 0
4, 48572, Note_on_c, 1, 36, 127
4, 48640, Note_off_c, 1, 36, 0
4, 48668, Note_on_c, 1, 38, 127
4, 48712, Note_off_c, 1, 38, 0
4, 48716, Note_on_c, 1, 39, 127
4, 48760, Note_off_c, 1, 39, 0
4, 48764, Note_on_c, 1, 41, 127
4, 48808, Note_off_c, 1, 41, 0
4, 48812, Note_on_c, 1, 41, 127
4, 48880, Note_off_c, 1, 41, 0
4, 48908, Note_on_c, 1, 41, 127
4, 48952, Note_off_c, 1, 41, 0
4, 48956, Note_on_c, 1, 39, 127
4, 49044, Note_off_c, 1, 39, 0
4, 49052, Note_on_c, 1, 36, 127
4, 49140, Note_off_c, 1, 36, 0
4, 49148, Note_on_c, 1, 34, 127
4, 49216, Note_off_c, 1, 34, 0
4, 49244, Note_on_c, 1, 34, 127
4, 49312, Note_off_c, 1, 34, 0
4, 49340, Note_on_c, 1, 34, 127
4, 49408, Note_off_c, 1, 34, 0
4, 49436, Note_on_c, 1, 34, 127
4, 49504, Note_off_c, 1, 34, 0
4, 49532, Note_on_c, 1, 36, 127
4, 49576, Note_off_c, 1, 36, 0
4, 49580, Note_on_c, 1, 36, 127
4, 49648, Note_off_c, 1, 36, 0
4, 49676, Note_on_c, 1, 36, 127
4, 49720, Note_off_c, 1, 36, 0
4, 49724, Note_on_c, 1, 34, 127
4, 49812, Note_off_c, 1, 34, 0
4, 49820, Note_on_c, 1, 36, 127
4, 49908, Note_off_c, 1, 36, 0
4, 49916, Note_on_c, 1, 36, 127
4, 49984, Note_off_c, 1, 36, 0
4, 50012, Note_on_c, 1, 36, 127
4, 50080, Note_off_c, 1, 36, 0
4, 50108, Note_on_c, 1, 36, 127
4, 50176, Note_off_c, 1, 36, 0
4, 50204, Note_on_c, 1, 38, 127
4, 50248, Note_off_c, 1, 38, 0
4, 50252, Note_on_c, 1, 39, 127
4, 50296, Note_off_c, 1, 39, 0
4, 50300, Note_on_c, 1, 41, 127
4, 50344, Note_off_c, 1, 41, 0
4, 50348, Note_on_c, 1, 41, 127
4, 50416, Note_off_c, 1, 41, 0
4, 50444, Note_on_c, 1, 41, 127
4, 50488, Note_off_c, 1, 41, 0
4, 50492, Note_on_c, 1, 39, 127
4, 50580, Note_off_c, 1, 39, 0
4, 50588, Note_on_c, 1, 36, 127
4, 50676, Note_off_c, 1, 36, 0
4, 50684, Note_on_c, 1, 34, 127
4, 50752, Note_off_c, 1, 34, 0
4, 50780, Note_on_c, 1, 34, 127
4, 50848, Note_off_c, 1, 34, 0
4, 50876, Note_on_c, 1, 34, 127
4, 50944, Note_off_c, 1, 34, 0
4, 50972, Note_on_c, 1, 38, 127
4, 51040, Note_off_c, 1, 38, 0
4, 51068, Note_on_c, 1, 39, 127
4, 51112, Note_off_c, 1, 39, 0
4, 51116, Note_on_c, 1, 39, 127
4, 51184, Note_off_c, 1, 39, 0
4, 51212, Note_on_c, 1, 39, 127
4, 51256, Note_off_c, 1, 39, 0
4, 51260, Note_on_c, 1, 39, 127
4, 51348, Note_off_c, 1, 39, 0
4, 51356, Note_on_c, 1, 38, 127
4, 51444, Note_off_c, 1, 38, 0
4, 51452, Note_on_c, 1, 36, 127
4, 51520, Note_off_c, 1, 36, 0
4, 51548, Note_on_c, 1, 36, 127
4, 51616, Note_off_c, 1, 36, 0
4, 51644, Note_on_c, 1, 36, 127
4, 51712, Note_off_c, 1, 36, 0
4, 51740, Note_on_c, 1, 38, 127
4, 51784, Note_off_c, 1, 38, 0
4, 51788, Note_on_c, 1, 39, 127
4, 51832, Note_off_c, 1, 39, 0
4, 51836, Note_on_c, 1, 41, 127
4, 51880, Note_off_c, 1, 41, 0
4, 51884, Note_on_c, 1, 41, 127
4, 51952, Note_off_c, 1, 41, 0
4, 51980, Note_on_c, 1, 41, 127
4, 52024, Note_off_c, 1, 41, 0
4, 52028, Note_on_c, 1, 39, 127
4, 52116, Note_off_c, 1, 39, 0
4, 52124, Note_on_c, 1, 36, 127
4, 52212, Note_off_c, 1, 36, 0
4, 52220, Note_on_c, 1, 34, 127
4, 52288, Note_off_c, 1, 34, 0
4, 52316, Note_on_c, 1, 34, 127
4, 52384, Note_off_c, 1, 34, 0
4, 52412, Note_on_c, 1, 34, 127
4, 52480, Note_off_c, 1, 34, 0
4, 52508, Note_on_c, 1, 34, 127
4, 52576, Note_off_c, 1, 34, 0
4, 52604, Note_on_c, 1, 36, 127
4, 52672, Note_off_c, 1, 36, 0
4, 52700, Note_on_c, 1, 36, 127
4, 52768, Note_off_c, 1, 36, 0
4, 52796, Note_on_c, 1, 36, 127
4, 52864, Note_off_c, 1, 36, 0
4, 52892, Note_on_c, 1, 36, 127
4, 52960, Note_off_c, 1, 36, 0
4, 52988, Note_on_c, 1, 39, 127
4, 53752, Note_off_c, 1, 39, 0
4, 53756, Note_on_c, 1, 34, 127
4, 54520, Note_off_c, 1, 34, 0
4, 54524, Note_on_c, 1, 36, 127
4, 54904, Note_off_c, 1, 36, 0
4, 54908, Note_on_c, 1, 34, 127
4, 55288, Note_off_c, 1, 34, 0
4, 55292, Note_on_c, 1, 32, 127
4, 56056, Note_off_c, 1, 32, 0
4, 56060, Note_on_c, 1, 34, 127
4, 56440, Note_off_c, 1, 34, 0
4, 56444, Note_on_c, 1, 34, 127
4, 56824, Note_off_c, 1, 34, 0
4, 56828, Note_on_c, 1, 39, 127
4, 57208, Note_off_c, 1, 39, 0
4, 57212, Note_on_c, 1, 36, 127
4, 57592, Note_off_c, 1, 36, 0
4, 57596, Note_on_c, 1, 38, 127
4, 58360, Note_off_c, 1, 38, 0
4, 58364, Note_on_c, 1, 31, 127
4, 58744, Note_off_c, 1, 31, 0
4, 58748, Note_on_c, 1, 43, 127
4, 59128, Note_off_c, 1, 43, 0
4, 59132, Note_on_c, 1, 39, 127
4, 59896, Note_off_c, 1, 39, 0
4, 59900, Note_on_c, 1, 34, 127
4, 60664, Note_off_c, 1, 34, 0
4, 60668, Note_on_c, 1, 36, 127
4, 61048, Note_off_c, 1, 36, 0
4, 61052, Note_on_c, 1, 34, 127
4, 61432, Note_off_c, 1, 34, 0
4, 61436, Note_on_c, 1, 32, 127
4, 62200, Note_off_c, 1, 32, 0
4, 62204, Note_on_c, 1, 34, 127
4, 62584, Note_off_c, 1, 34, 0
4, 62588, Note_on_c, 1, 34, 127
4, 62968, Note_off_c, 1, 34, 0
4, 62972, Note_on_c, 1, 39, 127
4, 63352, Note_off_c, 1, 39, 0
4, 63356, Note_on_c, 1, 36, 127
4, 63736, Note_off_c, 1, 36, 0
4, 63740, Note_on_c, 1, 38, 127
4, 64504, Note_off_c, 1, 38, 0
4, 64508, Note_on_c, 1, 31, 127
4, 64696, Note_off_c, 1, 31, 0
4, 64700, Note_on_c, 1, 31, 127
4, 64888, Note_off_c, 1, 31, 0
4, 64892, Note_on_c, 1, 43, 127
4, 65080, Note_off_c, 1, 43, 0
4, 65084, Note_on_c, 1, 31, 127
4, 65272, Note_off_c, 1, 31, 0
4, 65276, Note_on_c, 1, 32, 127
4, 65344, Note_off_c, 1, 32, 0
4, 65372, Note_on_c, 1, 32, 127
4, 65440, Note_off_c, 1, 32, 0
4, 65468, Note_on_c, 1, 32, 127
4, 65512, Note_off_c, 1, 32, 0
4, 65516, Note_on_c, 1, 32, 127
4, 65608, Note_off_c, 1, 32, 0
4, 65612, Note_on_c, 1, 32, 127
4, 65656, Note_off_c, 1, 32, 0
4, 65660, Note_on_c, 1, 32, 127
4, 65696, Note_off_c, 1, 32, 0
4, 65708, Note_on_c, 1, 32, 127
4, 65792, Note_off_c, 1, 32, 0
4, 65804, Note_on_c, 1, 32, 127
4, 65840, Note_off_c, 1, 32, 0
4, 65852, Note_on_c, 1, 32, 127
4, 65896, Note_off_c, 1, 32, 0
4, 65900, Note_on_c, 1, 32, 127
4, 65992, Note_off_c, 1, 32, 0
4, 65996, Note_on_c, 1, 32, 127
4, 66032, Note_off_c, 1, 32, 0
4, 66044, Note_on_c, 1, 31, 127
4, 66112, Note_off_c, 1, 31, 0
4, 66140, Note_on_c, 1, 31, 127
4, 66208, Note_off_c, 1, 31, 0
4, 66236, Note_on_c, 1, 31, 127
4, 66276, Note_off_c, 1, 31, 0
4, 66284, Note_on_c, 1, 31, 127
4, 66328, Note_off_c, 1, 31, 0
4, 66332, Note_on_c, 1, 29, 127
4, 66376, Note_off_c, 1, 29, 0
4, 66380, Note_on_c, 1, 31, 127
4, 66420, Note_off_c, 1, 31, 0
4, 66428, Note_on_c, 1, 36, 127
4, 66464, Note_off_c, 1, 36, 0
4, 66476, Note_on_c, 1, 36, 127
4, 66560, Note_off_c, 1, 36, 0
4, 66572, Note_on_c, 1, 36, 127
4, 66608, Note_off_c, 1, 36, 0
4, 66620, Note_on_c, 1, 36, 127
4, 66664, Note_off_c, 1, 36, 0
4, 66668, Note_on_c, 1, 36, 127
4, 66712, Note_off_c, 1, 36, 0
4, 66716, Note_on_c, 1, 34, 127
4, 66756, Note_off_c, 1, 34, 0
4, 66764, Note_on_c, 1, 36, 127
4, 66800, Note_off_c, 1, 36, 0
4, 66812, Note_on_c, 1, 29, 127
4, 66880, Note_off_c, 1, 29, 0
4, 66908, Note_on_c, 1, 29, 127
4, 66976, Note_off_c, 1, 29, 0
4, 67004, Note_on_c, 1, 29, 127
4, 67044, Note_off_c, 1, 29, 0
4, 67052, Note_on_c, 1, 29, 127
4, 67096, Note_off_c, 1, 29, 0
4, 67100, Note_on_c, 1, 29, 127
4, 67144, Note_off_c, 1, 29, 0
4, 67148, Note_on_c, 1, 29, 127
4, 67188, Note_off_c, 1, 29, 0
4, 67196, Note_on_c, 1, 34, 127
4, 67232, Note_off_c, 1, 34, 0
4, 67244, Note_on_c, 1, 34, 127
4, 67328, Note_off_c, 1, 34, 0
4, 67340, Note_on_c, 1, 34, 127
4, 67376, Note_off_c, 1, 34, 0
4, 67388, Note_on_c, 1, 34, 127
4, 67432, Note_off_c, 1, 34, 0
4, 67436, Note_on_c, 1, 34, 127
4, 67480, Note_off_c, 1, 34, 0
4, 67484, Note_on_c, 1, 34, 127
4, 67524, Note_off_c, 1, 34, 0
4, 67532, Note_on_c, 1, 34, 127
4, 67568, Note_off_c, 1, 34, 0
4, 67580, Note_on_c, 1, 34, 127
4, 67648, Note_off_c, 1, 34, 0
4, 67676, Note_on_c, 1, 34, 127
4, 67744, Note_off_c, 1, 34, 0
4, 67772, Note_on_c, 1, 34, 127
4, 67812, Note_off_c, 1, 34, 0
4, 67820, Note_on_c, 1, 34, 127
4, 67864, Note_off_c, 1, 34, 0
4, 67868, Note_on_c, 1, 29, 127
4, 67912, Note_off_c, 1, 29, 0
4, 67916, Note_on_c, 1, 34, 127
4, 67956, Note_off_c, 1, 34, 0
4, 67964, Note_on_c, 1, 39, 127
4, 68000, Note_off_c, 1, 39, 0
4, 68012, Note_on_c, 1, 39, 127
4, 68096, Note_off_c, 1, 39, 0
4, 68108, Note_on_c, 1, 39, 127
4, 68144, Note_off_c, 1, 39, 0
4, 68156, Note_on_c, 1, 39, 127
4, 68200, Note_off_c, 1, 39, 0
4, 68204, Note_on_c, 1, 39, 127
4, 68248, Note_off_c, 1, 39, 0
4, 68252, Note_on_c, 1, 34, 127
4, 68292, Note_off_c, 1, 34, 0
4, 68300, Note_on_c, 1, 31, 127
4, 68336, Note_off_c, 1, 31, 0
4, 68348, Note_on_c, 1, 32, 127
4, 68416, Note_off_c, 1, 32, 0
4, 68444, Note_on_c, 1, 32, 127
4, 68512, Note_off_c, 1, 32, 0
4, 68540, Note_on_c, 1, 32, 127
4, 68584, Note_off_c, 1, 32, 0
4, 68588, Note_on_c, 1, 32, 127
4, 68680, Note_off_c, 1, 32, 0
4, 68684, Note_on_c, 1, 32, 127
4, 68728, Note_off_c, 1, 32, 0
4, 68732, Note_on_c, 1, 32, 127
4, 68768, Note_off_c, 1, 32, 0
4, 68780, Note_on_c, 1, 32, 127
4, 68864, Note_off_c, 1, 32, 0
4, 68876, Note_on_c, 1, 32, 127
4, 68912, Note_off_c, 1, 32, 0
4, 68924, Note_on_c, 1, 32, 127
4, 68968, Note_off_c, 1, 32, 0
4, 68972, Note_on_c, 1, 32, 127
4, 69064, Note_off_c, 1, 32, 0
4, 69068, Note_on_c, 1, 32, 127
4, 69104, Note_off_c, 1, 32, 0
4, 69116, Note_on_c, 1, 31, 127
4, 69184, Note_off_c, 1, 31, 0
4, 69212, Note_on_c, 1, 31, 127
4, 69280, Note_off_c, 1, 31, 0
4, 69308, Note_on_c, 1, 31, 127
4, 69348, Note_off_c, 1, 31, 0
4, 69356, Note_on_c, 1, 31, 127
4, 69400, Note_off_c, 1, 31, 0
4, 69404, Note_on_c, 1, 29, 127
4, 69448, Note_off_c, 1, 29, 0
4, 69452, Note_on_c, 1, 31, 127
4, 69492, Note_off_c, 1, 31, 0
4, 69500, Note_on_c, 1, 36, 127
4, 69536, Note_off_c, 1, 36, 0
4, 69548, Note_on_c, 1, 36, 127
4, 69632, Note_off_c, 1, 36, 0
4, 69644, Note_on_c, 1, 36, 127
4, 69680, Note_off_c, 1, 36, 0
4, 69692, Note_on_c, 1, 36, 127
4, 69736, Note_off_c, 1, 36, 0
4, 69740, Note_on_c, 1, 36, 127
4, 69784, Note_off_c, 1, 36, 0
4, 69788, Note_on_c, 1, 34, 127
4, 69828, Note_off_c, 1, 34, 0
4, 69836, Note_on_c, 1, 36, 127
4, 69872, Note_off_c, 1, 36, 0
4, 69884, Note_on_c, 1, 38, 127
4, 69952, Note_off_c, 1, 38, 0
4, 69980, Note_on_c, 1, 38, 127
4, 70048, Note_off_c, 1, 38, 0
4, 70076, Note_on_c, 1, 38, 127
4, 70116, Note_off_c, 1, 38, 0
4, 70124, Note_on_c, 1, 38, 127
4, 70168, Note_off_c, 1, 38, 0
4, 70172, Note_on_c, 1, 38, 127
4, 70216, Note_off_c, 1, 38, 0
4, 70220, Note_on_c, 1, 38, 127
4, 70260, Note_off_c, 1, 38, 0
4, 70268, Note_on_c, 1, 38, 127
4, 70304, Note_off_c, 1, 38, 0
4, 70316, Note_on_c, 1, 38, 127
4, 70400, Note_off_c, 1, 38, 0
4, 70412, Note_on_c, 1, 38, 127
4, 70448, Note_off_c, 1, 38, 0
4, 70460, Note_on_c, 1, 38, 127
4, 70504, Note_off_c, 1, 38, 0
4, 70508, Note_on_c, 1, 38, 127
4, 70552, Note_off_c, 1, 38, 0
4, 70556, Note_on_c, 1, 38, 127
4, 70596, Note_off_c, 1, 38, 0
4, 70604, Note_on_c, 1, 38, 127
4, 70640, Note_off_c, 1, 38, 0
4, 70652, Note_on_c, 1, 31, 127
4, 70720, Note_off_c, 1, 31, 0
4, 70748, Note_on_c, 1, 31, 127
4, 70816, Note_off_c, 1, 31, 0
4, 70844, Note_on_c, 1, 31, 127
4, 70884, Note_off_c, 1, 31, 0
4, 70892, Note_on_c, 1, 31, 127
4, 70936, Note_off_c, 1, 31, 0
4, 70940, Note_on_c, 1, 31, 127
4, 70984, Note_off_c, 1, 31, 0
4, 70988, Note_on_c, 1, 31, 127
4, 71028, Note_off_c, 1, 31, 0
4, 71036, Note_on_c, 1, 31, 127
4, 71072, Note_off_c, 1, 31, 0
4, 71084, Note_on_c, 1, 31, 127
4, 71168, Note_off_c, 1, 31, 0
4, 71180, Note_on_c, 1, 31, 127
4, 71216, Note_off_c, 1, 31, 0
4, 71228, Note_on_c, 1, 31, 127
4, 71272, Note_off_c, 1, 31, 0
4, 71276, Note_on_c, 1, 31, 127
4, 71320, Note_off_c, 1, 31, 0
4, 71324, Note_on_c, 1, 31, 127
4, 71364, Note_off_c, 1, 31, 0
4, 71372, Note_on_c, 1, 31, 127
4, 71408, Note_off_c, 1, 31, 0
4, 71420, Note_on_c, 1, 36, 127
4, 71488, Note_off_c, 1, 36, 0
4, 71516, Note_on_c, 1, 36, 127
4, 71584, Note_off_c, 1, 36, 0
4, 71612, Note_on_c, 1, 36, 127
4, 71680, Note_off_c, 1, 36, 0
4, 71708, Note_on_c, 1, 38, 127
4, 71752, Note_off_c, 1, 38, 0
4, 71756, Note_on_c, 1, 39, 127
4, 71800, Note_off_c, 1, 39, 0
4, 71804, Note_on_c, 1, 41, 127
4, 71848, Note_off_c, 1, 41, 0
4, 71852, Note_on_c, 1, 41, 127
4, 71920, Note_off_c, 1, 41, 0
4, 71948, Note_on_c, 1, 41, 127
4, 71992, Note_off_c, 1, 41, 0
4, 71996, Note_on_c, 1, 39, 127
4, 72084, Note_off_c, 1, 39, 0
4, 72092, Note_on_c, 1, 36, 127
4, 72180, Note_off_c, 1, 36, 0
4, 72188, Note_on_c, 1, 34, 127
4, 72256, Note_off_c, 1, 34, 0
4, 72284, Note_on_c, 1, 34, 127
4, 72352, Note_off_c, 1, 34, 0
4, 72380, Note_on_c, 1, 34, 127
4, 72448, Note_off_c, 1, 34, 0
4, 72476, Note_on_c, 1, 38, 127
4, 72544, Note_off_c, 1, 38, 0
4, 72572, Note_on_c, 1, 39, 127
4, 72616, Note_off_c, 1, 39, 0
4, 72620, Note_on_c, 1, 39, 127
4, 72688, Note_off_c, 1, 39, 0
4, 72716, Note_on_c, 1, 39, 127
4, 72760, Note_off_c, 1, 39, 0
4, 72764, Note_on_c, 1, 39, 127
4, 72852, Note_off_c, 1, 39, 0
4, 72860, Note_on_c, 1, 38, 127
4, 72948, Note_off_c, 1, 38, 0
4, 72956, Note_on_c, 1, 36, 127
4, 73024, Note_off_c, 1, 36, 0
4, 73052, Note_on_c, 1, 36, 127
4, 73120, Note_off_c, 1, 36, 0
4, 73148, Note_on_c, 1, 36, 127
4, 73216, Note_off_c, 1, 36, 0
4, 73244, Note_on_c, 1, 38, 127
4, 73288, Note_off_c, 1, 38, 0
4, 73292, Note_on_c, 1, 39, 127
4, 73336, Note_off_c, 1, 39, 0
4, 73340, Note_on_c, 1, 41, 127
4, 73384, Note_off_c, 1, 41, 0
4, 73388, Note_on_c, 1, 41, 127
4, 73456, Note_off_c, 1, 41, 0
4, 73484, Note_on_c, 1, 41, 127
4, 73528, Note_off_c, 1, 41, 0
4, 73532, Note_on_c, 1, 39, 127
4, 73620, Note_off_c, 1, 39, 0
4, 73628, Note_on_c, 1, 36, 127
4, 73716, Note_off_c, 1, 36, 0
4, 73724, Note_on_c, 1, 34, 127
4, 73792, Note_off_c, 1, 34, 0
4, 73820, Note_on_c, 1, 34, 127
4, 73888, Note_off_c, 1, 34, 0
4, 73916, Note_on_c, 1, 34, 127
4, 73984, Note_off_c, 1, 34, 0
4, 74012, Note_on_c, 1, 38, 127
4, 74080, Note_off_c, 1, 38, 0
4, 74108, Note_on_c, 1, 39, 127
4, 74152, Note_off_c, 1, 39, 0
4, 74156, Note_on_c, 1, 39, 127
4, 74224, Note_off_c, 1, 39, 0
4, 74252, Note_on_c, 1, 39, 127
4, 74296, Note_off_c, 1, 39, 0
4, 74300, Note_on_c, 1, 39, 127
4, 74388, Note_off_c, 1, 39, 0
4, 74396, Note_on_c, 1, 38, 127
4, 74484, Note_off_c, 1, 38, 0
4, 74492, Note_on_c, 1, 36, 127
4, 74560, Note_off_c, 1, 36, 0
4, 74588, Note_on_c, 1, 36, 127
4, 74656, Note_off_c, 1, 36, 0
4, 74684, Note_on_c, 1, 36, 127
4, 74752, Note_off_c, 1, 36, 0
4, 74780, Note_on_c, 1, 38, 127
4, 74824, Note_off_c, 1, 38, 0
4, 74828, Note_on_c, 1, 39, 127
4, 74872, Note_off_c, 1, 39, 0
4, 74876, Note_on_c, 1, 41, 127
4, 74920, Note_off_c, 1, 41, 0
4, 74924, Note_on_c, 1, 41, 127
4, 74992, Note_off_c, 1, 41, 0
4, 75020, Note_on_c, 1, 41, 127
4, 75064, Note_off_c, 1, 41, 0
4, 75068, Note_on_c, 1, 39, 127
4, 75156, Note_off_c, 1, 39, 0
4, 75164, Note_on_c, 1, 36, 127
4, 75252, Note_off_c, 1, 36, 0
4, 75260, Note_on_c, 1, 34, 127
4, 75328, Note_off_c, 1, 34, 0
4, 75356, Note_on_c, 1, 34, 127
4, 75424, Note_off_c, 1, 34, 0
4, 75452, Note_on_c, 1, 34, 127
4, 75520, Note_off_c, 1, 34, 0
4, 75548, Note_on_c, 1, 38, 127
4, 75616, Note_off_c, 1, 38, 0
4, 75644, Note_on_c, 1, 39, 127
4, 75688, Note_off_c, 1, 39, 0
4, 75692, Note_on_c, 1, 39, 127
4, 75760, Note_off_c, 1, 39, 0
4, 75788, Note_on_c, 1, 39, 127
4, 75832, Note_off_c, 1, 39, 0
4, 75836, Note_on_c, 1, 39, 127
4, 75924, Note_off_c, 1, 39, 0
4, 75932, Note_on_c, 1, 38, 127
4, 76020, Note_off_c, 1, 38, 0
4, 76028, Note_on_c, 1, 36, 127
4, 76096, Note_off_c, 1, 36, 0
4, 76124, Note_on_c, 1, 36, 127
4, 76192, Note_off_c, 1, 36, 0
4, 76220, Note_on_c, 1, 36, 127
4, 76288, Note_off_c, 1, 36, 0
4, 76316, Note_on_c, 1, 38, 127
4, 76360, Note_off_c, 1, 38, 0
4, 76364, Note_on_c, 1, 39, 127
4, 76408, Note_off_c, 1, 39, 0
4, 76412, Note_on_c, 1, 41, 127
4, 76456, Note_off_c, 1, 41, 0
4, 76460, Note_on_c, 1, 41, 127
4, 76528, Note_off_c, 1, 41, 0
4, 76556, Note_on_c, 1, 41, 127
4, 76600, Note_off_c, 1, 41, 0
4, 76604, Note_on_c, 1, 39, 127
4, 76692, Note_off_c, 1, 39, 0
4, 76700, Note_on_c, 1, 36, 127
4, 76788, Note_off_c, 1, 36, 0
4, 76796, Note_on_c, 1, 34, 127
4, 76864, Note_off_c, 1, 34, 0
4, 76892, Note_on_c, 1, 34, 127
4, 76960, Note_off_c, 1, 34, 0
4, 76988, Note_on_c, 1, 34, 127
4, 77056, Note_off_c, 1, 34, 0
4, 77084, Note_on_c, 1, 34, 127
4, 77128, Note_off_c, 1, 34, 0
4, 77132, Note_on_c, 1, 34, 127
4, 77176, Note_off_c, 1, 34, 0
4, 77180, Note_on_c, 1, 36, 127
4, 77224, Note_off_c, 1, 36, 0
4, 77228, Note_on_c, 1, 36, 127
4, 77296, Note_off_c, 1, 36, 0
4, 77324, Note_on_c, 1, 36, 127
4, 77368, Note_off_c, 1, 36, 0
4, 77372, Note_on_c, 1, 36, 127
4, 77440, Note_off_c, 1, 36, 0
4, 77468, Note_on_c, 1, 36, 127
4, 77536, Note_off_c, 1, 36, 0
4, 77564, Note_on_c, 1, 36, 127
4, 77632, Note_off_c, 1, 36, 0
4, 77660, Note_on_c, 1, 36, 127
4, 77728, Note_off_c, 1, 36, 0
4, 77756, Note_on_c, 1, 36, 127
4, 77824, Note_off_c, 1, 36, 0
4, 77852, Note_on_c, 1, 38, 127
4, 77896, Note_off_c, 1, 38, 0
4, 77900, Note_on_c, 1, 39, 127
4, 77944, Note_off_c, 1, 39, 0
4, 77948, Note_on_c, 1, 41, 127
4, 77992, Note_off_c, 1, 41, 0
4, 77996, Note_on_c, 1, 41, 127
4, 78064, Note_off_c, 1, 41, 0
4, 78092, Note_on_c, 1, 41, 127
4, 78136, Note_off_c, 1, 41, 0
4, 78140, Note_on_c, 1, 39, 127
4, 78228, Note_off_c, 1, 39, 0
4, 78236, Note_on_c, 1, 36, 127
4, 78324, Note_off_c, 1, 36, 0
4, 78332, Note_on_c, 1, 34, 127
4, 78400, Note_off_c, 1, 34, 0
4, 78428, Note_on_c, 1, 34, 127
4, 78496, Note_off_c, 1, 34, 0
4, 78524, Note_on_c, 1, 34, 127
4, 78592, Note_off_c, 1, 34, 0
4, 78620, Note_on_c, 1, 38, 127
4, 78688, Note_off_c, 1, 38, 0
4, 78716, Note_on_c, 1, 39, 127
4, 78760, Note_off_c, 1, 39, 0
4, 78764, Note_on_c, 1, 39, 127
4, 78832, Note_off_c, 1, 39, 0
4, 78860, Note_on_c, 1, 39, 127
4, 78904, Note_off_c, 1, 39, 0
4, 78908, Note_on_c, 1, 39, 127
4, 78996, Note_off_c, 1, 39, 0
4, 79004, Note_on_c, 1, 38, 127
4, 79092, Note_off_c, 1, 38, 0
4, 79100, Note_on_c, 1, 36, 127
4, 79168, Note_off_c, 1, 36, 0
4, 79196, Note_on_c, 1, 36, 127
4, 79264, Note_off_c, 1, 36, 0
4, 79292, Note_on_c, 1, 36, 127
4, 79360, Note_off_c, 1, 36, 0
4, 79388, Note_on_c, 1, 38, 127
4, 79432, Note_off_c, 1, 38, 0
4, 79436, Note_on_c, 1, 39, 127
4, 79480, Note_off_c, 1, 39, 0
4, 79484, Note_on_c, 1, 41, 127
4, 79528, Note_off_c, 1, 41, 0
4, 79532, Note_on_c, 1, 41, 127
4, 79600, Note_off_c, 1, 41, 0
4, 79628, Note_on_c, 1, 41, 127
4, 79672, Note_off_c, 1, 41, 0
4, 79676, Note_on_c, 1, 39, 127
4, 79764, Note_off_c, 1, 39, 0
4, 79772, Note_on_c, 1, 36, 127
4, 79860, Note_off_c, 1, 36, 0
4, 79868, Note_on_c, 1, 29, 127
4, 79936, Note_off_c, 1, 29, 0
4, 79964, Note_on_c, 1, 29, 127
4, 80032, Note_off_c, 1, 29, 0
4, 80060, Note_on_c, 1, 31, 127
4, 80128, Note_off_c, 1, 31, 0
4, 80156, Note_on_c, 1, 31, 127
4, 80224, Note_off_c, 1, 31, 0
4, 80252, Note_on_c, 1, 32, 127
4, 80320, Note_off_c, 1, 32, 0
4, 80348, Note_on_c, 1, 32, 127
4, 80416, Note_off_c, 1, 32, 0
4, 80444, Note_on_c, 1, 34, 127
4, 80512, Note_off_c, 1, 34, 0
4, 80540, Note_on_c, 1, 34, 127
4, 80608, Note_off_c, 1, 34, 0
4, 80636, Note_on_c, 1, 32, 127
4, 80704, Note_off_c, 1, 32, 0
4, 80732, Note_on_c, 1, 32, 127
4, 80800, Note_off_c, 1, 32, 0
4, 80828, Note_on_c, 1, 32, 127
4, 80872, Note_off_c, 1, 32, 0
4, 80876, Note_on_c, 1, 32, 127
4, 80968, Note_off_c, 1, 32, 0
4, 80972, Note_on_c, 1, 32, 127
4, 81016, Note_off_c, 1, 32, 0
4, 81020, Note_on_c, 1, 32, 127
4, 81056, Note_off_c, 1, 32, 0
4, 81068, Note_on_c, 1, 32, 127
4, 81152, Note_off_c, 1, 32, 0
4, 81164, Note_on_c, 1, 32, 127
4, 81200, Note_off_c, 1, 32, 0
4, 81212, Note_on_c, 1, 32, 127
4, 81256, Note_off_c, 1, 32, 0
4, 81260, Note_on_c, 1, 32, 127
4, 81352, Note_off_c, 1, 32, 0
4, 81356, Note_on_c, 1, 32, 127
4, 81392, Note_off_c, 1, 32, 0
4, 81404, Note_on_c, 1, 31, 127
4, 81472, Note_off_c, 1, 31, 0
4, 81500, Note_on_c, 1, 31, 127
4, 81568, Note_off_c, 1, 31, 0
4, 81596, Note_on_c, 1, 31, 127
4, 81636, Note_off_c, 1, 31, 0
4, 81644, Note_on_c, 1, 31, 127
4, 81688, Note_off_c, 1, 31, 0
4, 81692, Note_on_c, 1, 29, 127
4, 81736, Note_off_c, 1, 29, 0
4, 81740, Note_on_c, 1, 31, 127
4, 81780, Note_off_c, 1, 31, 0
4, 81788, Note_on_c, 1, 36, 127
4, 81824, Note_off_c, 1, 36, 0
4, 81836, Note_on_c, 1, 36, 127
4, 81920, Note_off_c, 1, 36, 0
4, 81932, Note_on_c, 1, 36, 127
4, 81968, Note_off_c, 1, 36, 0
4, 81980, Note_on_c, 1, 36, 127
4, 82024, Note_off_c, 1, 36, 0
4, 82028, Note_on_c, 1, 36, 127
4, 82072, Note_off_c, 1, 36, 0
4, 82076, Note_on_c, 1, 34, 127
4, 82116, Note_off_c, 1, 34, 0
4, 82124, Note_on_c, 1, 36, 127
4, 82160, Note_off_c, 1, 36, 0
4, 82172, Note_on_c, 1, 29, 127
4, 82240, Note_off_c, 1, 29, 0
4, 82268, Note_on_c, 1, 29, 127
4, 82336, Note_off_c, 1, 29, 0
4, 82364, Note_on_c, 1, 29, 127
4, 82404, Note_off_c, 1, 29, 0
4, 82412, Note_on_c, 1, 29, 127
4, 82456, Note_off_c, 1, 29, 0
4, 82460, Note_on_c, 1, 29, 127
4, 82504, Note_off_c, 1, 29, 0
4, 82508, Note_on_c, 1, 29, 127
4, 82548, Note_off_c, 1, 29, 0
4, 82556, Note_on_c, 1, 34, 127
4, 82592, Note_off_c, 1, 34, 0
4, 82604, Note_on_c, 1, 34, 127
4, 82688, Note_off_c, 1, 34, 0
4, 82700, Note_on_c, 1, 34, 127
4, 82736, Note_off_c, 1, 34, 0
4, 82748, Note_on_c, 1, 34, 127
4, 82792, Note_off_c, 1, 34, 0
4, 82796, Note_on_c, 1, 34, 127
4, 82840, Note_off_c, 1, 34, 0
4, 82844, Note_on_c, 1, 34, 127
4, 82884, Note_off_c, 1, 34, 0
4, 82892, Note_on_c, 1, 34, 127
4, 82928, Note_off_c, 1, 34, 0
4, 82940, Note_on_c, 1, 34, 127
4, 83008, Note_off_c, 1, 34, 0
4, 83036, Note_on_c, 1, 34, 127
4, 83104, Note_off_c, 1, 34, 0
4, 83132, Note_on_c, 1, 34, 127
4, 83172, Note_off_c, 1, 34, 0
4, 83180, Note_on_c, 1, 34, 127
4, 83224, Note_off_c, 1, 34, 0
4, 83228, Note_on_c, 1, 29, 127
4, 83272, Note_off_c, 1, 29, 0
4, 83276, Note_on_c, 1, 34, 127
4, 83316, Note_off_c, 1, 34, 0
4, 83324, Note_on_c, 1, 39, 127
4, 83360, Note_off_c, 1, 39, 0
4, 83372, Note_on_c, 1, 39, 127
4, 83456, Note_off_c, 1, 39, 0
4, 83468, Note_on_c, 1, 39, 127
4, 83504, Note_off_c, 1, 39, 0
4, 83516, Note_on_c, 1, 39, 127
4, 83560, Note_off_c, 1, 39, 0
4, 83564, Note_on_c, 1, 39, 127
4, 83608, Note_off_c, 1, 39, 0
4, 83612, Note_on_c, 1, 34, 127
4, 83652, Note_off_c, 1, 34, 0
4, 83660, Note_on_c, 1, 31, 127
4, 83696, Note_off_c, 1, 31, 0
4, 83708, Note_on_c, 1, 32, 127
4, 83776, Note_off_c, 1, 32, 0
4, 83804, Note_on_c, 1, 32, 127
4, 83872, Note_off_c, 1, 32, 0
4, 83900, Note_on_c, 1, 32, 127
4, 83944, Note_off_c, 1, 32, 0
4, 83948, Note_on_c, 1, 32, 127
4, 84040, Note_off_c, 1, 32, 0
4, 84044, Note_on_c, 1, 32, 127
4, 84088, Note_off_c, 1, 32, 0
4, 84092, Note_on_c, 1, 32, 127
4, 84128, Note_off_c, 1, 32, 0
4, 84140, Note_on_c, 1, 32, 127
4, 84224, Note_off_c, 1, 32, 0
4, 84236, Note_on_c, 1, 32, 127
4, 84272, Note_off_c, 1, 32, 0
4, 84284, Note_on_c, 1, 32, 127
4, 84328, Note_off_c, 1, 32, 0
4, 84332, Note_on_c, 1, 32, 127
4, 84424, Note_off_c, 1, 32, 0
4, 84428, Note_on_c, 1, 32, 127
4, 84464, Note_off_c, 1, 32, 0
4, 84476, Note_on_c, 1, 31, 127
4, 84544, Note_off_c, 1, 31, 0
4, 84572, Note_on_c, 1, 31, 127
4, 84640, Note_off_c, 1, 31, 0
4, 84668, Note_on_c, 1, 31, 127
4, 84708, Note_off_c, 1, 31, 0
4, 84716, Note_on_c, 1, 31, 127
4, 84760, Note_off_c, 1, 31, 0
4, 84764, Note_on_c, 1, 29, 127
4, 84808, Note_off_c, 1, 29, 0
4, 84812, Note_on_c, 1, 31, 127
4, 84852, Note_off_c, 1, 31, 0
4, 84860, Note_on_c, 1, 36, 127
4, 84896, Note_off_c, 1, 36, 0
4, 84908, Note_on_c, 1, 36, 127
4, 84992, Note_off_c, 1, 36, 0
4, 85004, Note_on_c, 1, 36, 127
4, 85040, Note_off_c, 1, 36, 0
4, 85052, Note_on_c, 1, 36, 127
4, 85096, Note_off_c, 1, 36, 0
4, 85100, Note_on_c, 1, 36, 127
4, 85144, Note_off_c, 1, 36, 0
4, 85148, Note_on_c, 1, 34, 127
4, 85188, Note_off_c, 1, 34, 0
4, 85196, Note_on_c, 1, 36, 127
4, 85232, Note_off_c, 1, 36, 0
4, 85244, Note_on_c, 1, 38, 127
4, 85312, Note_off_c, 1, 38, 0
4, 85340, Note_on_c, 1, 38, 127
4, 85408, Note_off_c, 1, 38, 0
4, 85436, Note_on_c, 1, 38, 127
4, 85476, Note_off_c, 1, 38, 0
4, 85484, Note_on_c, 1, 38, 127
4, 85528, Note_off_c, 1, 38, 0
4, 85532, Note_on_c, 1, 38, 127
4, 85576, Note_off_c, 1, 38, 0
4, 85580, Note_on_c, 1, 38, 127
4, 85620, Note_off_c, 1, 38, 0
4, 85628, Note_on_c, 1, 38, 127
4, 85664, Note_off_c, 1, 38, 0
4, 85676, Note_on_c, 1, 38, 127
4, 85760, Note_off_c, 1, 38, 0
4, 85772, Note_on_c, 1, 38, 127
4, 85808, Note_off_c, 1, 38, 0
4, 85820, Note_on_c, 1, 38, 127
4, 85864, Note_off_c, 1, 38, 0
4, 85868, Note_on_c, 1, 38, 127
4, 85912, Note_off_c, 1, 38, 0
4, 85916, Note_on_c, 1, 38, 127
4, 85956, Note_off_c, 1, 38, 0
4, 85964, Note_on_c, 1, 38, 127
4, 86000, Note_off_c, 1, 38, 0
4, 86012, Note_on_c, 1, 31, 127
4, 86080, Note_off_c, 1, 31, 0
4, 86108, Note_on_c, 1, 31, 127
4, 86176, Note_off_c, 1, 31, 0
4, 86204, Note_on_c, 1, 31, 127
4, 86244, Note_off_c, 1, 31, 0
4, 86252, Note_on_c, 1, 31, 127
4, 86296, Note_off_c, 1, 31, 0
4, 86300, Note_on_c, 1, 31, 127
4, 86344, Note_off_c, 1, 31, 0
4, 86348, Note_on_c, 1, 31, 127
4, 86388, Note_off_c, 1, 31, 0
4, 86396, Note_on_c, 1, 31, 127
4, 86432, Note_off_c, 1, 31, 0
4, 86444, Note_on_c, 1, 31, 127
4, 86528, Note_off_c, 1, 31, 0
4, 86540, Note_on_c, 1, 31, 127
4, 86576, Note_off_c, 1, 31, 0
4, 86588, Note_on_c, 1, 31, 127
4, 86632, Note_off_c, 1, 31, 0
4, 86636, Note_on_c, 1, 31, 127
4, 86680, Note_off_c, 1, 31, 0
4, 86684, Note_on_c, 1, 31, 127
4, 86724, Note_off_c, 1, 31, 0
4, 86732, Note_on_c, 1, 31, 127
4, 86768, Note_off_c, 1, 31, 0
4, 86780, Note_on_c, 1, 36, 127
4, 86848, Note_off_c, 1, 36, 0
4, 86876, Note_on_c, 1, 36, 127
4, 86944, Note_off_c, 1, 36, 0
4, 86972, Note_on_c, 1, 36, 127
4, 87040, Note_off_c, 1, 36, 0
4, 87068, Note_on_c, 1, 38, 127
4, 87112, Note_off_c, 1, 38, 0
4, 87116, Note_on_c, 1, 39, 127
4, 87160, Note_off_c, 1, 39, 0
4, 87164, Note_on_c, 1, 41, 127
4, 87208, Note_off_c, 1, 41, 0
4, 87212, Note_on_c, 1, 41, 127
4, 87280, Note_off_c, 1, 41, 0
4, 87308, Note_on_c, 1, 41, 127
4, 87352, Note_off_c, 1, 41, 0
4, 87356, Note_on_c, 1, 39, 127
4, 87444, Note_off_c, 1, 39, 0
4, 87452, Note_on_c, 1, 36, 127
4, 87540, Note_off_c, 1, 36, 0
4, 87548, Note_on_c, 1, 34, 127
4, 87616, Note_off_c, 1, 34, 0
4, 87644, Note_on_c, 1, 34, 127
4, 87712, Note_off_c, 1, 34, 0
4, 87740, Note_on_c, 1, 34, 127
4, 87808, Note_off_c, 1, 34, 0
4, 87836, Note_on_c, 1, 38, 127
4, 87904, Note_off_c, 1, 38, 0
4, 87932, Note_on_c, 1, 39, 127
4, 87976, Note_off_c, 1, 39, 0
4, 87980, Note_on_c, 1, 39, 127
4, 88048, Note_off_c, 1, 39, 0
4, 88076, Note_on_c, 1, 39, 127
4, 88120, Note_off_c, 1, 39, 0
4, 88124, Note_on_c, 1, 39, 127
4, 88212, Note_off_c, 1, 39, 0
4, 88220, Note_on_c, 1, 38, 127
4, 88308, Note_off_c, 1, 38, 0
4, 88316, Note_on_c, 1, 36, 127
4, 88384, Note_off_c, 1, 36, 0
4, 88412, Note_on_c, 1, 36, 127
4, 88480, Note_off_c, 1, 36, 0
4, 88508, Note_on_c, 1, 36, 127
4, 88576, Note_off_c, 1, 36, 0
4, 88604, Note_on_c, 1, 38, 127
4, 88648, Note_off_c, 1, 38, 0
4, 88652, Note_on_c, 1, 39, 127
4, 88696, Note_off_c, 1, 39, 0
4, 88700, Note_on_c, 1, 41, 127
4, 88744, Note_off_c, 1, 41, 0
4, 88748, Note_on_c, 1, 41, 127
4, 88816, Note_off_c, 1, 41, 0
4, 88844, Note_on_c, 1, 41, 127
4, 88888, Note_off_c, 1, 41, 0
4, 88892, Note_on_c, 1, 39, 127
4, 88980, Note_off_c, 1, 39, 0
4, 88988, Note_on_c, 1, 36, 127
4, 89076, Note_off_c, 1, 36, 0
4, 89084, Note_on_c, 1, 34, 127
4, 89152, Note_off_c, 1, 34, 0
4, 89180, Note_on_c, 1, 34, 127
4, 89248, Note_off_c, 1, 34, 0
4, 89276, Note_on_c, 1, 34, 127
4, 89344, Note_off_c, 1, 34, 0
4, 89372, Note_on_c, 1, 38, 127
4, 89440, Note_off_c, 1, 38, 0
4, 89468, Note_on_c, 1, 39, 127
4, 89512, Note_off_c, 1, 39, 0
4, 89516, Note_on_c, 1, 39, 127
4, 89584, Note_off_c, 1, 39, 0
4, 89612, Note_on_c, 1, 39, 127
4, 89656, Note_off_c, 1, 39, 0
4, 89660, Note_on_c, 1, 39, 127
4, 89748, Note_off_c, 1, 39, 0
4, 89756, Note_on_c, 1, 38, 127
4, 89844, Note_off_c, 1, 38, 0
4, 89852, Note_on_c, 1, 36, 127
4, 89920, Note_off_c, 1, 36, 0
4, 89948, Note_on_c, 1, 36, 127
4, 90016, Note_off_c, 1, 36, 0
4, 90044, Note_on_c, 1, 36, 127
4, 90112, Note_off_c, 1, 36, 0
4, 90140, Note_on_c, 1, 38, 127
4, 90184, Note_off_c, 1, 38, 0
4, 90188, Note_on_c, 1, 39, 127
4, 90232, Note_off_c, 1, 39, 0
4, 90236, Note_on_c, 1, 41, 127
4, 90280, Note_off_c, 1, 41, 0
4, 90284, Note_on_c, 1, 41, 127
4, 90352, Note_off_c, 1, 41, 0
4, 90380, Note_on_c, 1, 41, 127
4, 90424, Note_off_c, 1, 41, 0
4, 90428, Note_on_c, 1, 39, 127
4, 90516, Note_off_c, 1, 39, 0
4, 90524, Note_on_c, 1, 36, 127
4, 90612, Note_off_c, 1, 36, 0
4, 90620, Note_on_c, 1, 34, 127
4, 90688, Note_off_c, 1, 34, 0
4, 90716, Note_on_c, 1, 34, 127
4, 90784, Note_off_c, 1, 34, 0
4, 90812, Note_on_c, 1, 34, 127
4, 90880, Note_off_c, 1, 34, 0
4, 90908, Note_on_c, 1, 38, 127
4, 90976, Note_off_c, 1, 38, 0
4, 91004, Note_on_c, 1, 39, 127
4, 91048, Note_off_c, 1, 39, 0
4, 91052, Note_on_c, 1, 39, 127
4, 91120, Note_off_c, 1, 39, 0
4, 91148, Note_on_c, 1, 39, 127
4, 91192, Note_off_c, 1, 39, 0
4, 91196, Note_on_c, 1, 39, 127
4, 91284, Note_off_c, 1, 39, 0
4, 91292, Note_on_c, 1, 38, 127
4, 91380, Note_off_c, 1, 38, 0
4, 91388, Note_on_c, 1, 36, 127
4, 91456, Note_off_c, 1, 36, 0
4, 91484, Note_on_c, 1, 36, 127
4, 91552, Note_off_c, 1, 36, 0
4, 91580, Note_on_c, 1, 36, 127
4, 91648, Note_off_c, 1, 36, 0
4, 91676, Note_on_c, 1, 38, 127
4, 91720, Note_off_c, 1, 38, 0
4, 91724, Note_on_c, 1, 39, 127
4, 91768, Note_off_c, 1, 39, 0
4, 91772, Note_on_c, 1, 41, 127
4, 91816, Note_off_c, 1, 41, 0
4, 91820, Note_on_c, 1, 41, 127
4, 91888, Note_off_c, 1, 41, 0
4, 91916, Note_on_c, 1, 41, 127
4, 91960, Note_off_c, 1, 41, 0
4, 91964, Note_on_c, 1, 39, 127
4, 92052, Note_off_c, 1, 39, 0
4, 92060, Note_on_c, 1, 36, 127
4, 92148, Note_off_c, 1, 36, 0
4, 92156, Note_on_c, 1, 34, 127
4, 92224, Note_off_c, 1, 34, 0
4, 92252, Note_on_c, 1, 34, 127
4, 92320, Note_off_c, 1, 34, 0
4, 92348, Note_on_c, 1, 34, 127
4, 92416, Note_off_c, 1, 34, 0
4, 92444, Note_on_c, 1, 34, 127
4, 92488, Note_off_c, 1, 34, 0
4, 92492, Note_on_c, 1, 34, 127
4, 92536, Note_off_c, 1, 34, 0
4, 92540, Note_on_c, 1, 36, 127
4, 92584, Note_off_c, 1, 36, 0
4, 92588, Note_on_c, 1, 36, 127
4, 92656, Note_off_c, 1, 36, 0
4, 92684, Note_on_c, 1, 36, 127
4, 92728, Note_off_c, 1, 36, 0
4, 92732, Note_on_c, 1, 36, 127
4, 92800, Note_off_c, 1, 36, 0
4, 92828, Note_on_c, 1, 36, 127
4, 92896, Note_off_c, 1, 36, 0
4, 92924, Note_on_c, 1, 36, 127
4, 92992, Note_off_c, 1, 36, 0
4, 93020, Note_on_c, 1, 36, 127
4, 93088, Note_off_c, 1, 36, 0
4, 93116, Note_on_c, 1, 36, 127
4, 93184, Note_off_c, 1, 36, 0
4, 93212, Note_on_c, 1, 38, 127
4, 93256, Note_off_c, 1, 38, 0
4, 93260, Note_on_c, 1, 39, 127
4, 93304, Note_off_c, 1, 39, 0
4, 93308, Note_on_c, 1, 41, 127
4, 93352, Note_off_c, 1, 41, 0
4, 93356, Note_on_c, 1, 41, 127
4, 93424, Note_off_c, 1, 41, 0
4, 93452, Note_on_c, 1, 41, 127
4, 93496, Note_off_c, 1, 41, 0
4, 93500, Note_on_c, 1, 39, 127
4, 93588, Note_off_c, 1, 39, 0
4, 93596, Note_on_c, 1, 36, 127
4, 93684, Note_off_c, 1, 36, 0
4, 93692, Note_on_c, 1, 34, 127
4, 93760, Note_off_c, 1, 34, 0
4, 93788, Note_on_c, 1, 34, 127
4, 93856, Note_off_c, 1, 34, 0
4, 93884, Note_on_c, 1, 34, 127
4, 93952, Note_off_c, 1, 34, 0
4, 93980, Note_on_c, 1, 38, 127
4, 94048, Note_off_c, 1, 38, 0
4, 94076, Note_on_c, 1, 39, 127
4, 94120, Note_off_c, 1, 39, 0
4, 94124, Note_on_c, 1, 39, 127
4, 94192, Note_off_c, 1, 39, 0
4, 94220, Note_on_c, 1, 39, 127
4, 94264, Note_off_c, 1, 39, 0
4, 94268, Note_on_c, 1, 39, 127
4, 94356, Note_off_c, 1, 39, 0
4, 94364, Note_on_c, 1, 38, 127
4, 94452, Note_off_c, 1, 38, 0
4, 94460, Note_on_c, 1, 36, 127
4, 94528, Note_off_c, 1, 36, 0
4, 94556, Note_on_c, 1, 36, 127
4, 94624, Note_off_c, 1, 36, 0
4, 94652, Note_on_c, 1, 36, 127
4, 94720, Note_off_c, 1, 36, 0
4, 94748, Note_on_c, 1, 38, 127
4, 94792, Note_off_c, 1, 38, 0
4, 94796, Note_on_c, 1, 39, 127
4, 94840, Note_off_c, 1, 39, 0
4, 94844, Note_on_c, 1, 41, 127
4, 94888, Note_off_c, 1, 41, 0
4, 94892, Note_on_c, 1, 41, 127
4, 94960, Note_off_c, 1, 41, 0
4, 94988, Note_on_c, 1, 41, 127
4, 95032, Note_off_c, 1, 41, 0
4, 95036, Note_on_c, 1, 39, 127
4, 95124, Note_off_c, 1, 39, 0
4, 95132, Note_on_c, 1, 36, 127
4, 95220, Note_off_c, 1, 36, 0
4, 95228, Note_on_c, 1, 34, 127
4, 95296, Note_off_c, 1, 34, 0
4, 95324, Note_on_c, 1, 34, 127
4, 95392, Note_off_c, 1, 34, 0
4, 95420, Note_on_c, 1, 31, 127
4, 95488, Note_off_c, 1, 31, 0
4, 95516, Note_on_c, 1, 34, 127
4, 95584, Note_off_c, 1, 34, 0
4, 95612, Note_on_c, 1, 34, 127
4, 95752, Note_off_c, 1, 34, 0
4, 95756, Note_on_c, 1, 36, 127
4, 95824, Note_off_c, 1, 36, 0
4, 95824, End_track
5, 0, Start_track
5, 0, Title_t, "by"
5, 0, Channel_prefix, 2
5, 0, Control_c, 2, 7, 100
5, 0, Program_c, 2, 61
5, 0, Control_c, 2, 0, 0
5, 3840, Note_on_c, 2, 60, 95
5, 3840, Note_on_c, 2, 72, 95
5, 3864, Note_off_c, 2, 72, 0
5, 3864, Note_off_c, 2, 60, 0
5, 3872, Note_on_c, 2, 60, 95
5, 3872, Note_on_c, 2, 72, 95
5, 3968, Note_off_c, 2, 72, 0
5, 3968, Note_off_c, 2, 60, 0
5, 4032, Note_on_c, 2, 63, 95
5, 4032, Note_on_c, 2, 75, 95
5, 4152, Note_off_c, 2, 75, 0
5, 4152, Note_off_c, 2, 63, 0
5, 4204, Note_on_c, 2, 63, 95
5, 4204, Note_on_c, 2, 75, 95
5, 4216, Note_on_c, 2, 64, 95
5, 4216, Note_on_c, 2, 76, 95
5, 4224, Note_off_c, 2, 75, 0
5, 4224, Note_off_c, 2, 63, 0
5, 4228, Note_on_c, 2, 65, 95
5, 4228, Note_on_c, 2, 77, 95
5, 4236, Note_off_c, 2, 64, 0
5, 4236, Note_off_c, 2, 76, 0
5, 4364, Note_off_c, 2, 65, 0
5, 4364, Note_off_c, 2, 77, 0
5, 4368, Note_on_c, 2, 63, 95
5, 4368, Note_on_c, 2, 75, 95
5, 4504, Note_off_c, 2, 75, 0
5, 4504, Note_off_c, 2, 63, 0
5, 4512, Note_on_c, 2, 65, 95
5, 4512, Note_on_c, 2, 77, 95
5, 4596, Note_off_c, 2, 77, 0
5, 4596, Note_off_c, 2, 65, 0
5, 4608, Note_on_c, 2, 65, 95
5, 4608, Note_on_c, 2, 77, 95
5, 4664, Note_off_c, 2, 77, 0
5, 4664, Note_off_c, 2, 65, 0
5, 4704, Note_on_c, 2, 65, 95
5, 4704, Note_on_c, 2, 77, 95
5, 4752, Note_off_c, 2, 77, 0
5, 4752, Note_off_c, 2, 65, 0
5, 4800, Note_on_c, 2, 70, 95
5, 4800, Note_on_c, 2, 82, 95
5, 4856, Note_off_c, 2, 82, 0
5, 4856, Note_off_c, 2, 70, 0
5, 4896, Note_on_c, 2, 68, 95
5, 4896, Note_on_c, 2, 80, 95
5, 4952, Note_off_c, 2, 80, 0
5, 4952, Note_off_c, 2, 68, 0
5, 4992, Note_on_c, 2, 67, 95
5, 4992, Note_on_c, 2, 79, 95
5, 5040, Note_off_c, 2, 79, 0
5, 5040, Note_off_c, 2, 67, 0
5, 5040, Note_on_c, 2, 65, 95
5, 5040, Note_on_c, 2, 77, 95
5, 5116, Note_off_c, 2, 77, 0
5, 5116, Note_off_c, 2, 65, 0
5, 5136, Note_on_c, 2, 67, 95
5, 5136, Note_on_c, 2, 79, 95
5, 5248, Note_off_c, 2, 79, 0
5, 5248, Note_off_c, 2, 67, 0
5, 5376, Note_on_c, 2, 67, 95
5, 5376, Note_on_c, 2, 79, 95
5, 5496, Note_off_c, 2, 79, 0
5, 5496, Note_off_c, 2, 67, 0
5, 5568, Note_on_c, 2, 70, 95
5, 5568, Note_on_c, 2, 82, 95
5, 5740, Note_off_c, 2, 82, 0
5, 5740, Note_off_c, 2, 70, 0
5, 5760, Note_on_c, 2, 72, 95
5, 5760, Note_on_c, 2, 84, 95
5, 5896, Note_off_c, 2, 84, 0
5, 5896, Note_off_c, 2, 72, 0
5, 5904, Note_on_c, 2, 65, 95
5, 5904, Note_on_c, 2, 77, 95
5, 6028, Note_off_c, 2, 77, 0
5, 6028, Note_off_c, 2, 65, 0
5, 6048, Note_on_c, 2, 63, 95
5, 6048, Note_on_c, 2, 75, 95
5, 6120, Note_off_c, 2, 75, 0
5, 6120, Note_off_c, 2, 63, 0
5, 6144, Note_on_c, 2, 70, 95
5, 6144, Note_on_c, 2, 82, 95
5, 6200, Note_off_c, 2, 82, 0
5, 6200, Note_off_c, 2, 70, 0
5, 6240, Note_on_c, 2, 70, 95
5, 6240, Note_on_c, 2, 82, 95
5, 6296, Note_off_c, 2, 82, 0
5, 6296, Note_off_c, 2, 70, 0
5, 6336, Note_on_c, 2, 67, 95
5, 6336, Note_on_c, 2, 79, 95
5, 6392, Note_off_c, 2, 79, 0
5, 6392, Note_off_c, 2, 67, 0
5, 6432, Note_on_c, 2, 70, 95
5, 6432, Note_on_c, 2, 82, 95
5, 6488, Note_off_c, 2, 82, 0
5, 6488, Note_off_c, 2, 70, 0
5, 6528, Note_on_c, 2, 70, 95
5, 6528, Note_on_c, 2, 82, 95
5, 6668, Note_off_c, 2, 82, 0
5, 6668, Note_off_c, 2, 70, 0
5, 6672, Note_on_c, 2, 72, 95
5, 6672, Note_on_c, 2, 84, 95
5, 6760, Note_off_c, 2, 84, 0
5, 6760, Note_off_c, 2, 72, 0
5, 11904, Control_c, 2, 91, 60
5, 11904, Control_c, 2, 93, 75
5, 12000, Control_c, 2, 11, 75
5, 12000, Program_c, 2, 62
5, 12288, Note_on_c, 2, 55, 95
5, 12288, Note_on_c, 2, 60, 95
5, 12668, Note_off_c, 2, 60, 0
5, 12668, Note_off_c, 2, 55, 0
5, 12672, Note_on_c, 2, 55, 95
5, 12672, Note_on_c, 2, 59, 95
5, 12672, Note_on_c, 2, 62, 95
5, 13052, Note_off_c, 2, 62, 0
5, 13052, Note_off_c, 2, 59, 0
5, 13052, Note_off_c, 2, 55, 0
5, 18432, Note_on_c, 2, 55, 95
5, 18432, Note_on_c, 2, 60, 95
5, 18616, Note_off_c, 2, 60, 0
5, 18616, Note_off_c, 2, 55, 0
5, 18624, Note_on_c, 2, 55, 95
5, 18624, Note_on_c, 2, 59, 95
5, 18808, Note_off_c, 2, 59, 0
5, 18808, Note_off_c, 2, 55, 0
5, 18816, Note_on_c, 2, 55, 95
5, 18816, Note_on_c, 2, 57, 95
5, 19000, Note_off_c, 2, 57, 0
5, 19000, Note_off_c, 2, 55, 0
5, 19008, Note_on_c, 2, 55, 95
5, 19008, Note_on_c, 2, 59, 95
5, 19056, Note_on_c, 2, 67, 95
5, 19080, Note_on_c, 2, 71, 95
5, 19104, Note_off_c, 2, 67, 0
5, 19104, Note_on_c, 2, 74, 95
5, 19128, Note_off_c, 2, 71, 0
5, 19128, Note_on_c, 2, 77, 95
5, 19152, Note_off_c, 2, 74, 0
5, 19152, Note_on_c, 2, 79, 95
5, 19172, Note_off_c, 2, 59, 0
5, 19172, Note_off_c, 2, 55, 0
5, 19176, Note_off_c, 2, 77, 0
5, 19176, Note_on_c, 2, 83, 95
5, 19200, Note_off_c, 2, 79, 0
5, 19200, Note_on_c, 2, 80, 95
5, 19200, Note_on_c, 2, 84, 95
5, 19200, Note_on_c, 2, 75, 95
5, 19212, Note_off_c, 2, 83, 0
5, 19232, Pitch_bend_c, 2, 8192
5, 19240, Pitch_bend_c, 2, 8187
5, 19248, Pitch_bend_c, 2, 8168
5, 19256, Pitch_bend_c, 2, 8136
5, 19264, Pitch_bend_c, 2, 8092
5, 19272, Pitch_bend_c, 2, 8037
5, 19280, Pitch_bend_c, 2, 7972
5, 19288, Pitch_bend_c, 2, 7899
5, 19292, Pitch_bend_c, 2, 7819
5, 19296, Pitch_bend_c, 2, 7733
5, 19300, Pitch_bend_c, 2, 7644
5, 19304, Pitch_bend_c, 2, 7552
5, 19308, Pitch_bend_c, 2, 7552
5, 19312, Pitch_bend_c, 2, 7477
5, 19320, Pitch_bend_c, 2, 7248
5, 19328, Pitch_bend_c, 2, 6871
5, 19336, Pitch_bend_c, 2, 6354
5, 19344, Pitch_bend_c, 2, 5709
5, 19352, Pitch_bend_c, 2, 4947
5, 19360, Pitch_bend_c, 2, 4084
5, 19368, Pitch_bend_c, 2, 3138
5, 19376, Pitch_bend_c, 2, 2128
5, 19384, Pitch_bend_c, 2, 1075
5, 19392, Pitch_bend_c, 2, 0
5, 19404, Note_off_c, 2, 80, 0
5, 19404, Note_off_c, 2, 84, 0
5, 19404, Note_off_c, 2, 75, 0
5, 19968, Pitch_bend_c, 2, 8192
5, 21024, Control_c, 2, 91, 35
5, 21024, Control_c, 2, 93, 5
5, 21120, Control_c, 2, 11, 75
5, 21120, Program_c, 2, 100
5, 21504, Note_on_c, 2, 65, 95
5, 21696, Note_off_c, 2, 65, 0
5, 21696, Note_on_c, 2, 67, 95
5, 21888, Note_off_c, 2, 67, 0
5, 21888, Note_on_c, 2, 68, 95
5, 22080, Note_off_c, 2, 68, 0
5, 22080, Note_on_c, 2, 70, 95
5, 22272, Note_off_c, 2, 70, 0
5, 22272, Note_on_c, 2, 72, 95
5, 23036, Note_off_c, 2, 72, 0
5, 23040, Note_on_c, 2, 70, 95
5, 23420, Note_off_c, 2, 70, 0
5, 23424, Note_on_c, 2, 72, 95
5, 23804, Note_off_c, 2, 72, 0
5, 23808, Note_on_c, 2, 74, 95
5, 24380, Note_off_c, 2, 74, 0
5, 24384, Control_c, 2, 91, 60
5, 24384, Control_c, 2, 93, 75
5, 24480, Control_c, 2, 11, 90
5, 24480, Program_c, 2, 62
5, 24576, Note_on_c, 2, 59, 95
5, 24576, Note_on_c, 2, 62, 95
5, 24576, Note_on_c, 2, 67, 95
5, 24576, Pitch_bend_c, 2, 7264
5, 24584, Pitch_bend_c, 2, 7397
5, 24592, Pitch_bend_c, 2, 7526
5, 24600, Pitch_bend_c, 2, 7650
5, 24608, Pitch_bend_c, 2, 7767
5, 24616, Pitch_bend_c, 2, 7873
5, 24624, Pitch_bend_c, 2, 7967
5, 24632, Pitch_bend_c, 2, 8046
5, 24640, Pitch_bend_c, 2, 8110
5, 24648, Pitch_bend_c, 2, 8156
5, 24656, Pitch_bend_c, 2, 8184
5, 24664, Pitch_bend_c, 2, 8192
5, 24912, Pitch_bend_c, 2, 8216
5, 24920, Pitch_bend_c, 2, 8290
5, 24924, Pitch_bend_c, 2, 8413
5, 24928, Pitch_bend_c, 2, 8582
5, 24932, Pitch_bend_c, 2, 8793
5, 24936, Pitch_bend_c, 2, 9041
5, 24940, Pitch_bend_c, 2, 9323
5, 24944, Pitch_bend_c, 2, 9632
5, 24948, Pitch_bend_c, 2, 9961
5, 24952, Pitch_bend_c, 2, 10305
5, 24956, Pitch_bend_c, 2, 10656
5, 24960, Note_off_c, 2, 67, 0
5, 24960, Note_off_c, 2, 62, 0
5, 24960, Note_off_c, 2, 59, 0
5, 24960, Pitch_bend_c, 2, 8192
5, 24960, Control_c, 2, 11, 75
5, 24960, Note_on_c, 2, 71, 95
5, 24960, Note_on_c, 2, 74, 95
5, 24960, Note_on_c, 2, 79, 95
5, 24960, Pitch_bend_c, 2, 6592
5, 24964, Pitch_bend_c, 2, 6820
5, 24968, Pitch_bend_c, 2, 7044
5, 24972, Pitch_bend_c, 2, 7258
5, 24976, Pitch_bend_c, 2, 7458
5, 24980, Pitch_bend_c, 2, 7641
5, 24984, Pitch_bend_c, 2, 7802
5, 24988, Pitch_bend_c, 2, 7939
5, 24992, Pitch_bend_c, 2, 8049
5, 24996, Pitch_bend_c, 2, 8129
5, 25000, Pitch_bend_c, 2, 8177
5, 25004, Pitch_bend_c, 2, 8192
5, 25100, Note_off_c, 2, 79, 0
5, 25100, Note_off_c, 2, 74, 0
5, 25100, Note_off_c, 2, 71, 0
5, 25104, Note_on_c, 2, 74, 95
5, 25104, Note_on_c, 2, 77, 95
5, 25104, Note_on_c, 2, 81, 95
5, 25236, Note_off_c, 2, 81, 0
5, 25236, Note_off_c, 2, 77, 0
5, 25236, Note_off_c, 2, 74, 0
5, 25248, Note_on_c, 2, 74, 95
5, 25248, Note_on_c, 2, 79, 95
5, 25248, Note_on_c, 2, 83, 95
5, 25316, Note_off_c, 2, 83, 0
5, 25316, Note_off_c, 2, 79, 0
5, 25316, Note_off_c, 2, 74, 0
5, 25440, Control_c, 2, 11, 85
5, 25536, Note_on_c, 2, 79, 95
5, 25536, Note_on_c, 2, 84, 95
5, 25536, Note_on_c, 2, 75, 95
5, 25600, Pitch_bend_c, 2, 8192
5, 25604, Pitch_bend_c, 2, 8185
5, 25608, Pitch_bend_c, 2, 8161
5, 25612, Pitch_bend_c, 2, 8121
5, 25616, Pitch_bend_c, 2, 8066
5, 25620, Pitch_bend_c, 2, 7998
5, 25624, Pitch_bend_c, 2, 7917
5, 25628, Pitch_bend_c, 2, 7826
5, 25632, Pitch_bend_c, 2, 7725
5, 25636, Pitch_bend_c, 2, 7618
5, 25640, Pitch_bend_c, 2, 7506
5, 25644, Pitch_bend_c, 2, 7392
5, 25648, Pitch_bend_c, 2, 7318
5, 25656, Pitch_bend_c, 2, 7094
5, 25664, Pitch_bend_c, 2, 6725
5, 25672, Pitch_bend_c, 2, 6220
5, 25680, Pitch_bend_c, 2, 5588
5, 25688, Pitch_bend_c, 2, 4842
5, 25696, Pitch_bend_c, 2, 3997
5, 25704, Pitch_bend_c, 2, 3072
5, 25712, Pitch_bend_c, 2, 2083
5, 25720, Pitch_bend_c, 2, 1053
5, 25728, Pitch_bend_c, 2, 0
5, 25740, Note_off_c, 2, 75, 0
5, 25740, Note_off_c, 2, 84, 0
5, 25740, Note_off_c, 2, 79, 0
5, 27840, Pitch_bend_c, 2, 8192
5, 27840, Control_c, 2, 91, 45
5, 27840, Control_c, 2, 93, 30
5, 27936, Control_c, 2, 11, 127
5, 27936, Program_c, 2, 61
5, 28272, Note_on_c, 2, 65, 95
5, 28272, Note_on_c, 2, 77, 95
5, 28308, Note_off_c, 2, 77, 0
5, 28308, Note_off_c, 2, 65, 0
5, 28320, Note_on_c, 2, 67, 95
5, 28320, Note_on_c, 2, 79, 95
5, 28356, Note_off_c, 2, 79, 0
5, 28356, Note_off_c, 2, 67, 0
5, 28368, Note_on_c, 2, 70, 95
5, 28368, Note_on_c, 2, 82, 95
5, 28404, Note_off_c, 2, 82, 0
5, 28404, Note_off_c, 2, 70, 0
5, 28416, Note_on_c, 2, 72, 95
5, 28416, Note_on_c, 2, 84, 95
5, 28512, Note_on_c, 2, 70, 95
5, 28512, Note_on_c, 2, 82, 95
5, 28520, Note_off_c, 2, 72, 0
5, 28524, Note_off_c, 2, 84, 0
5, 28528, Note_on_c, 2, 68, 95
5, 28528, Note_on_c, 2, 80, 95
5, 28540, Note_off_c, 2, 70, 0
5, 28540, Note_off_c, 2, 82, 0
5, 28544, Note_on_c, 2, 67, 95
5, 28544, Note_on_c, 2, 79, 95
5, 28556, Note_off_c, 2, 68, 0
5, 28556, Note_off_c, 2, 80, 0
5, 28560, Note_on_c, 2, 65, 95
5, 28560, Note_on_c, 2, 77, 95
5, 28572, Note_off_c, 2, 67, 0
5, 28572, Note_off_c, 2, 79, 0
5, 28576, Note_on_c, 2, 63, 95
5, 28576, Note_on_c, 2, 75, 95
5, 28588, Note_off_c, 2, 65, 0
5, 28588, Note_off_c, 2, 77, 0
5, 28604, Note_off_c, 2, 63, 0
5, 28604, Note_off_c, 2, 75, 0
5, 30720, Note_on_c, 2, 70, 95
5, 30720, Note_on_c, 2, 82, 95
5, 30776, Note_off_c, 2, 82, 0
5, 30776, Note_off_c, 2, 70, 0
5, 30816, Note_on_c, 2, 70, 95
5, 30816, Note_on_c, 2, 82, 95
5, 30872, Note_off_c, 2, 82, 0
5, 30872, Note_off_c, 2, 70, 0
5, 30912, Note_on_c, 2, 67, 95
5, 30912, Note_on_c, 2, 79, 95
5, 30968, Note_off_c, 2, 79, 0
5, 30968, Note_off_c, 2, 67, 0
5, 31008, Note_on_c, 2, 70, 95
5, 31008, Note_on_c, 2, 82, 95
5, 31064, Note_off_c, 2, 82, 0
5, 31064, Note_off_c, 2, 70, 0
5, 31104, Note_on_c, 2, 70, 95
5, 31104, Note_on_c, 2, 82, 95
5, 31244, Note_off_c, 2, 82, 0
5, 31244, Note_off_c, 2, 70, 0
5, 31248, Note_on_c, 2, 72, 95
5, 31248, Note_on_c, 2, 84, 95
5, 31336, Note_off_c, 2, 84, 0
5, 31336, Note_off_c, 2, 72, 0
5, 31344, Program_c, 2, 55
5, 31344, Control_c, 2, 93, 100
5, 31392, Note_on_c, 2, 94, 95
5, 31440, Note_off_c, 2, 94, 0
5, 31440, Note_on_c, 2, 96, 95
5, 31488, Note_off_c, 2, 96, 0
5, 31488, Control_c, 2, 91, 60
5, 31488, Control_c, 2, 93, 75
5, 31584, Control_c, 2, 11, 75
5, 31584, Program_c, 2, 62
5, 31680, Note_on_c, 2, 79, 95
5, 31680, Note_on_c, 2, 84, 95
5, 31680, Note_on_c, 2, 87, 95
5, 31776, Pitch_bend_c, 2, 8192
5, 31784, Pitch_bend_c, 2, 8110
5, 31792, Pitch_bend_c, 2, 7862
5, 31800, Pitch_bend_c, 2, 7453
5, 31808, Pitch_bend_c, 2, 6893
5, 31816, Pitch_bend_c, 2, 6192
5, 31824, Pitch_bend_c, 2, 5366
5, 31832, Pitch_bend_c, 2, 4430
5, 31840, Pitch_bend_c, 2, 3404
5, 31848, Pitch_bend_c, 2, 2309
5, 31856, Pitch_bend_c, 2, 1166
5, 31864, Pitch_bend_c, 2, 0
5, 31880, Note_off_c, 2, 87, 0
5, 31880, Note_off_c, 2, 84, 0
5, 31880, Note_off_c, 2, 79, 0
5, 32544, Pitch_bend_c, 2, 8192
5, 32544, Control_c, 2, 91, 45
5, 32544, Control_c, 2, 93, 30
5, 32640, Control_c, 2, 11, 127
5, 32640, Program_c, 2, 61
5, 33792, Note_on_c, 2, 70, 95
5, 33792, Note_on_c, 2, 82, 95
5, 33848, Note_off_c, 2, 82, 0
5, 33848, Note_off_c, 2, 70, 0
5, 33888, Note_on_c, 2, 70, 95
5, 33888, Note_on_c, 2, 82, 95
5, 33944, Note_off_c, 2, 82, 0
5, 33944, Note_off_c, 2, 70, 0
5, 33984, Note_on_c, 2, 67, 95
5, 33984, Note_on_c, 2, 79, 95
5, 34040, Note_off_c, 2, 79, 0
5, 34040, Note_off_c, 2, 67, 0
5, 34080, Note_on_c, 2, 70, 95
5, 34080, Note_on_c, 2, 82, 95
5, 34136, Note_off_c, 2, 82, 0
5, 34136, Note_off_c, 2, 70, 0
5, 34176, Note_on_c, 2, 70, 95
5, 34176, Note_on_c, 2, 82, 95
5, 34316, Note_off_c, 2, 82, 0
5, 34316, Note_off_c, 2, 70, 0
5, 34320, Note_on_c, 2, 72, 95
5, 34320, Note_on_c, 2, 84, 95
5, 34396, Note_off_c, 2, 84, 0
5, 34396, Note_off_c, 2, 72, 0
5, 34416, Control_c, 2, 91, 10
5, 34416, Control_c, 2, 93, 25
5, 34464, Control_c, 2, 11, 80
5, 34464, Control_c, 2, 10, 0
5, 34464, Control_c, 2, 0, 0
5, 34464, Control_c, 2, 32, 8
5, 34464, Program_c, 2, 39
5, 34560, Pitch_bend_c, 2, 8172
5, 34560, Note_on_c, 2, 24, 95
5, 34604, Note_off_c, 2, 24, 0
5, 34608, Note_on_c, 2, 34, 95
5, 34652, Note_off_c, 2, 34, 0
5, 34656, Note_on_c, 2, 36, 95
5, 34700, Note_off_c, 2, 36, 0
5, 34704, Note_on_c, 2, 31, 95
5, 34748, Note_off_c, 2, 31, 0
5, 34752, Note_on_c, 2, 22, 95
5, 34796, Note_off_c, 2, 22, 0
5, 34800, Note_on_c, 2, 24, 95
5, 34844, Note_off_c, 2, 24, 0
5, 34848, Note_on_c, 2, 27, 95
5, 34892, Note_off_c, 2, 27, 0
5, 34896, Note_on_c, 2, 31, 95
5, 34940, Note_off_c, 2, 31, 0
5, 34944, Note_on_c, 2, 24, 95
5, 34988, Note_off_c, 2, 24, 0
5, 34992, Note_on_c, 2, 34, 95
5, 35036, Note_off_c, 2, 34, 0
5, 35040, Note_on_c, 2, 36, 95
5, 35084, Note_off_c, 2, 36, 0
5, 35088, Note_on_c, 2, 31, 95
5, 35132, Note_off_c, 2, 31, 0
5, 35136, Note_on_c, 2, 22, 95
5, 35180, Note_off_c, 2, 22, 0
5, 35184, Note_on_c, 2, 24, 95
5, 35228, Note_off_c, 2, 24, 0
5, 35232, Note_on_c, 2, 27, 95
5, 35276, Note_off_c, 2, 27, 0
5, 35280, Note_on_c, 2, 31, 95
5, 35324, Note_off_c, 2, 31, 0
5, 35328, Note_on_c, 2, 24, 95
5, 35372, Note_off_c, 2, 24, 0
5, 35376, Note_on_c, 2, 34, 95
5, 35420, Note_off_c, 2, 34, 0
5, 35424, Note_on_c, 2, 36, 95
5, 35468, Note_off_c, 2, 36, 0
5, 35472, Note_on_c, 2, 31, 95
5, 35516, Note_off_c, 2, 31, 0
5, 35520, Note_on_c, 2, 22, 95
5, 35564, Note_off_c, 2, 22, 0
5, 35568, Note_on_c, 2, 24, 95
5, 35612, Note_off_c, 2, 24, 0
5, 35616, Note_on_c, 2, 27, 95
5, 35660, Note_off_c, 2, 27, 0
5, 35664, Note_on_c, 2, 31, 95
5, 35708, Note_off_c, 2, 31, 0
5, 35712, Note_on_c, 2, 24, 95
5, 35756, Note_off_c, 2, 24, 0
5, 35760, Note_on_c, 2, 34, 95
5, 35804, Note_off_c, 2, 34, 0
5, 35808, Note_on_c, 2, 36, 95
5, 35852, Note_off_c, 2, 36, 0
5, 35856, Note_on_c, 2, 31, 95
5, 35900, Note_off_c, 2, 31, 0
5, 35904, Note_on_c, 2, 22, 95
5, 35948, Note_off_c, 2, 22, 0
5, 35952, Note_on_c, 2, 24, 95
5, 35996, Note_off_c, 2, 24, 0
5, 36000, Note_on_c, 2, 27, 95
5, 36044, Note_off_c, 2, 27, 0
5, 36048, Note_on_c, 2, 31, 95
5, 36092, Note_off_c, 2, 31, 0
5, 36096, Note_on_c, 2, 20, 95
5, 36140, Note_off_c, 2, 20, 0
5, 36144, Note_on_c, 2, 31, 95
5, 36188, Note_off_c, 2, 31, 0
5, 36192, Note_on_c, 2, 32, 95
5, 36236, Note_off_c, 2, 32, 0
5, 36240, Note_on_c, 2, 27, 95
5, 36284, Note_off_c, 2, 27, 0
5, 36288, Note_on_c, 2, 24, 95
5, 36332, Note_off_c, 2, 24, 0
5, 36336, Note_on_c, 2, 27, 95
5, 36380, Note_off_c, 2, 27, 0
5, 36384, Note_on_c, 2, 31, 95
5, 36428, Note_off_c, 2, 31, 0
5, 36432, Note_on_c, 2, 32, 95
5, 36476, Note_off_c, 2, 32, 0
5, 36480, Note_on_c, 2, 20, 95
5, 36524, Note_off_c, 2, 20, 0
5, 36528, Note_on_c, 2, 31, 95
5, 36572, Note_off_c, 2, 31, 0
5, 36576, Note_on_c, 2, 32, 95
5, 36620, Note_off_c, 2, 32, 0
5, 36624, Note_on_c, 2, 27, 95
5, 36668, Note_off_c, 2, 27, 0
5, 36672, Note_on_c, 2, 24, 95
5, 36716, Note_off_c, 2, 24, 0
5, 36720, Note_on_c, 2, 27, 95
5, 36764, Note_off_c, 2, 27, 0
5, 36768, Note_on_c, 2, 31, 95
5, 36812, Note_off_c, 2, 31, 0
5, 36816, Note_on_c, 2, 32, 95
5, 36860, Note_off_c, 2, 32, 0
5, 36864, Note_on_c, 2, 22, 95
5, 36908, Note_off_c, 2, 22, 0
5, 36912, Note_on_c, 2, 32, 95
5, 36956, Note_off_c, 2, 32, 0
5, 36960, Note_on_c, 2, 34, 95
5, 37004, Note_off_c, 2, 34, 0
5, 37008, Note_on_c, 2, 29, 95
5, 37052, Note_off_c, 2, 29, 0
5, 37056, Note_on_c, 2, 26, 95
5, 37100, Note_off_c, 2, 26, 0
5, 37104, Note_on_c, 2, 29, 95
5, 37148, Note_off_c, 2, 29, 0
5, 37152, Note_on_c, 2, 32, 95
5, 37196, Note_off_c, 2, 32, 0
5, 37200, Note_on_c, 2, 34, 95
5, 37244, Note_off_c, 2, 34, 0
5, 37248, Note_on_c, 2, 22, 95
5, 37292, Note_off_c, 2, 22, 0
5, 37296, Note_on_c, 2, 32, 95
5, 37340, Note_off_c, 2, 32, 0
5, 37344, Note_on_c, 2, 34, 95
5, 37388, Note_off_c, 2, 34, 0
5, 37392, Note_on_c, 2, 29, 95
5, 37436, Note_off_c, 2, 29, 0
5, 37440, Note_on_c, 2, 26, 95
5, 37484, Note_off_c, 2, 26, 0
5, 37488, Note_on_c, 2, 29, 95
5, 37532, Note_off_c, 2, 29, 0
5, 37536, Note_on_c, 2, 32, 95
5, 37580, Note_off_c, 2, 32, 0
5, 37584, Note_on_c, 2, 34, 95
5, 37628, Note_off_c, 2, 34, 0
5, 37632, Note_on_c, 2, 24, 95
5, 37676, Note_off_c, 2, 24, 0
5, 37680, Note_on_c, 2, 34, 95
5, 37724, Note_off_c, 2, 34, 0
5, 37728, Note_on_c, 2, 36, 95
5, 37772, Note_off_c, 2, 36, 0
5, 37776, Note_on_c, 2, 31, 95
5, 37820, Note_off_c, 2, 31, 0
5, 37824, Note_on_c, 2, 22, 95
5, 37868, Note_off_c, 2, 22, 0
5, 37872, Note_on_c, 2, 24, 95
5, 37916, Note_off_c, 2, 24, 0
5, 37920, Note_on_c, 2, 27, 95
5, 37964, Note_off_c, 2, 27, 0
5, 37968, Note_on_c, 2, 31, 95
5, 38012, Note_off_c, 2, 31, 0
5, 38016, Note_on_c, 2, 24, 95
5, 38060, Note_off_c, 2, 24, 0
5, 38064, Note_on_c, 2, 34, 95
5, 38108, Note_off_c, 2, 34, 0
5, 38112, Note_on_c, 2, 36, 95
5, 38156, Note_off_c, 2, 36, 0
5, 38160, Note_on_c, 2, 31, 95
5, 38204, Note_off_c, 2, 31, 0
5, 38208, Note_on_c, 2, 22, 95
5, 38252, Note_off_c, 2, 22, 0
5, 38256, Note_on_c, 2, 24, 95
5, 38300, Note_off_c, 2, 24, 0
5, 38304, Note_on_c, 2, 27, 95
5, 38348, Note_off_c, 2, 27, 0
5, 38352, Note_on_c, 2, 31, 95
5, 38396, Note_off_c, 2, 31, 0
5, 38400, Note_on_c, 2, 24, 95
5, 38444, Note_off_c, 2, 24, 0
5, 38448, Note_on_c, 2, 34, 95
5, 38492, Note_off_c, 2, 34, 0
5, 38496, Note_on_c, 2, 36, 95
5, 38540, Note_off_c, 2, 36, 0
5, 38544, Note_on_c, 2, 31, 95
5, 38588, Note_off_c, 2, 31, 0
5, 38592, Note_on_c, 2, 22, 95
5, 38636, Note_off_c, 2, 22, 0
5, 38640, Note_on_c, 2, 24, 95
5, 38684, Note_off_c, 2, 24, 0
5, 38688, Note_on_c, 2, 27, 95
5, 38732, Note_off_c, 2, 27, 0
5, 38736, Note_on_c, 2, 31, 95
5, 38780, Note_off_c, 2, 31, 0
5, 38784, Note_on_c, 2, 24, 95
5, 38828, Note_off_c, 2, 24, 0
5, 38832, Note_on_c, 2, 34, 95
5, 38876, Note_off_c, 2, 34, 0
5, 38880, Note_on_c, 2, 36, 95
5, 38924, Note_off_c, 2, 36, 0
5, 38928, Note_on_c, 2, 31, 95
5, 38972, Note_off_c, 2, 31, 0
5, 38976, Note_on_c, 2, 22, 95
5, 39020, Note_off_c, 2, 22, 0
5, 39024, Note_on_c, 2, 24, 95
5, 39068, Note_off_c, 2, 24, 0
5, 39072, Note_on_c, 2, 27, 95
5, 39116, Note_off_c, 2, 27, 0
5, 39120, Note_on_c, 2, 31, 95
5, 39164, Note_off_c, 2, 31, 0
5, 39168, Note_on_c, 2, 20, 95
5, 39212, Note_off_c, 2, 20, 0
5, 39216, Note_on_c, 2, 31, 95
5, 39260, Note_off_c, 2, 31, 0
5, 39264, Note_on_c, 2, 32, 95
5, 39308, Note_off_c, 2, 32, 0
5, 39312, Note_on_c, 2, 27, 95
5, 39356, Note_off_c, 2, 27, 0
5, 39360, Note_on_c, 2, 24, 95
5, 39404, Note_off_c, 2, 24, 0
5, 39408, Note_on_c, 2, 27, 95
5, 39452, Note_off_c, 2, 27, 0
5, 39456, Note_on_c, 2, 31, 95
5, 39500, Note_off_c, 2, 31, 0
5, 39504, Note_on_c, 2, 32, 95
5, 39548, Note_off_c, 2, 32, 0
5, 39552, Note_on_c, 2, 20, 95
5, 39596, Note_off_c, 2, 20, 0
5, 39600, Note_on_c, 2, 31, 95
5, 39644, Note_off_c, 2, 31, 0
5, 39648, Note_on_c, 2, 32, 95
5, 39692, Note_off_c, 2, 32, 0
5, 39696, Note_on_c, 2, 27, 95
5, 39740, Note_off_c, 2, 27, 0
5, 39744, Note_on_c, 2, 24, 95
5, 39788, Note_off_c, 2, 24, 0
5, 39792, Note_on_c, 2, 27, 95
5, 39836, Note_off_c, 2, 27, 0
5, 39840, Note_on_c, 2, 31, 95
5, 39884, Note_off_c, 2, 31, 0
5, 39888, Note_on_c, 2, 32, 95
5, 39932, Note_off_c, 2, 32, 0
5, 39936, Note_on_c, 2, 22, 95
5, 39980, Note_off_c, 2, 22, 0
5, 39984, Note_on_c, 2, 32, 95
5, 40028, Note_off_c, 2, 32, 0
5, 40032, Note_on_c, 2, 34, 95
5, 40076, Note_off_c, 2, 34, 0
5, 40080, Note_on_c, 2, 29, 95
5, 40124, Note_off_c, 2, 29, 0
5, 40128, Note_on_c, 2, 26, 95
5, 40172, Note_off_c, 2, 26, 0
5, 40176, Note_on_c, 2, 29, 95
5, 40220, Note_off_c, 2, 29, 0
5, 40224, Note_on_c, 2, 32, 95
5, 40268, Note_off_c, 2, 32, 0
5, 40272, Note_on_c, 2, 34, 95
5, 40316, Note_off_c, 2, 34, 0
5, 40320, Note_on_c, 2, 22, 95
5, 40364, Note_off_c, 2, 22, 0
5, 40368, Note_on_c, 2, 32, 95
5, 40412, Note_off_c, 2, 32, 0
5, 40416, Note_on_c, 2, 34, 95
5, 40460, Note_off_c, 2, 34, 0
5, 40464, Note_on_c, 2, 29, 95
5, 40508, Note_off_c, 2, 29, 0
5, 40512, Note_on_c, 2, 26, 95
5, 40556, Note_off_c, 2, 26, 0
5, 40560, Note_on_c, 2, 29, 95
5, 40604, Note_off_c, 2, 29, 0
5, 40608, Note_on_c, 2, 32, 95
5, 40652, Note_off_c, 2, 32, 0
5, 40656, Note_on_c, 2, 34, 95
5, 40700, Note_off_c, 2, 34, 0
5, 45456, Pitch_bend_c, 2, 8192
5, 45504, Control_c, 2, 10, 64
5, 45552, Control_c, 2, 91, 45
5, 45600, Control_c, 2, 93, 30
5, 45696, Control_c, 2, 11, 100
5, 45792, Control_c, 2, 0, 0
5, 45792, Control_c, 2, 32, 0
5, 45792, Program_c, 2, 61
5, 46080, Note_on_c, 2, 58, 95
5, 46080, Note_on_c, 2, 70, 95
5, 46448, Note_off_c, 2, 70, 0
5, 46448, Note_off_c, 2, 58, 0
5, 46464, Control_c, 2, 11, 115
5, 46464, Note_on_c, 2, 58, 95
5, 46464, Note_on_c, 2, 70, 95
5, 46512, Note_on_c, 2, 62, 95
5, 46512, Note_on_c, 2, 74, 95
5, 46516, Note_off_c, 2, 70, 0
5, 46516, Note_off_c, 2, 58, 0
5, 46560, Note_on_c, 2, 65, 95
5, 46560, Note_on_c, 2, 77, 95
5, 46564, Note_off_c, 2, 62, 0
5, 46564, Note_off_c, 2, 74, 0
5, 46608, Note_on_c, 2, 70, 95
5, 46608, Note_on_c, 2, 82, 95
5, 46612, Note_off_c, 2, 65, 0
5, 46612, Note_off_c, 2, 77, 0
5, 46656, Note_on_c, 2, 59, 95
5, 46656, Note_on_c, 2, 71, 95
5, 46660, Note_off_c, 2, 70, 0
5, 46660, Note_off_c, 2, 82, 0
5, 46704, Note_on_c, 2, 62, 95
5, 46704, Note_on_c, 2, 74, 95
5, 46708, Note_off_c, 2, 59, 0
5, 46708, Note_off_c, 2, 71, 0
5, 46752, Note_on_c, 2, 67, 95
5, 46752, Note_on_c, 2, 79, 95
5, 46756, Note_off_c, 2, 62, 0
5, 46756, Note_off_c, 2, 74, 0
5, 46800, Note_on_c, 2, 71, 95
5, 46800, Note_on_c, 2, 83, 95
5, 46804, Note_off_c, 2, 67, 0
5, 46804, Note_off_c, 2, 79, 0
5, 46848, Note_off_c, 2, 71, 0
5, 46848, Note_off_c, 2, 83, 0
5, 46848, Control_c, 2, 11, 127
5, 46848, Note_on_c, 2, 60, 95
5, 46848, Note_on_c, 2, 72, 95
5, 46872, Note_off_c, 2, 72, 0
5, 46872, Note_off_c, 2, 60, 0
5, 46880, Note_on_c, 2, 60, 95
5, 46880, Note_on_c, 2, 72, 95
5, 46976, Note_off_c, 2, 72, 0
5, 46976, Note_off_c, 2, 60, 0
5, 47040, Note_on_c, 2, 63, 95
5, 47040, Note_on_c, 2, 75, 95
5, 47160, Note_off_c, 2, 75, 0
5, 47160, Note_off_c, 2, 63, 0
5, 47212, Note_on_c, 2, 63, 95
5, 47212, Note_on_c, 2, 75, 95
5, 47224, Note_on_c, 2, 64, 95
5, 47224, Note_on_c, 2, 76, 95
5, 47232, Note_off_c, 2, 75, 0
5, 47232, Note_off_c, 2, 63, 0
5, 47236, Note_on_c, 2, 65, 95
5, 47236, Note_on_c, 2, 77, 95
5, 47244, Note_off_c, 2, 64, 0
5, 47244, Note_off_c, 2, 76, 0
5, 47372, Note_off_c, 2, 65, 0
5, 47372, Note_off_c, 2, 77, 0
5, 47376, Note_on_c, 2, 63, 95
5, 47376, Note_on_c, 2, 75, 95
5, 47512, Note_off_c, 2, 75, 0
5, 47512, Note_off_c, 2, 63, 0
5, 47520, Note_on_c, 2, 65, 95
5, 47520, Note_on_c, 2, 77, 95
5, 47604, Note_off_c, 2, 77, 0
5, 47604, Note_off_c, 2, 65, 0
5, 47616, Note_on_c, 2, 65, 95
5, 47616, Note_on_c, 2, 77, 95
5, 47672, Note_off_c, 2, 77, 0
5, 47672, Note_off_c, 2, 65, 0
5, 47712, Note_on_c, 2, 65, 95
5, 47712, Note_on_c, 2, 77, 95
5, 47760, Note_off_c, 2, 77, 0
5, 47760, Note_off_c, 2, 65, 0
5, 47808, Note_on_c, 2, 70, 95
5, 47808, Note_on_c, 2, 82, 95
5, 47864, Note_off_c, 2, 82, 0
5, 47864, Note_off_c, 2, 70, 0
5, 47904, Note_on_c, 2, 68, 95
5, 47904, Note_on_c, 2, 80, 95
5, 47960, Note_off_c, 2, 80, 0
5, 47960, Note_off_c, 2, 68, 0
5, 48000, Note_on_c, 2, 67, 95
5, 48000, Note_on_c, 2, 79, 95
5, 48048, Note_off_c, 2, 79, 0
5, 48048, Note_off_c, 2, 67, 0
5, 48048, Note_on_c, 2, 65, 95
5, 48048, Note_on_c, 2, 77, 95
5, 48124, Note_off_c, 2, 77, 0
5, 48124, Note_off_c, 2, 65, 0
5, 48144, Note_on_c, 2, 67, 95
5, 48144, Note_on_c, 2, 79, 95
5, 48256, Note_off_c, 2, 79, 0
5, 48256, Note_off_c, 2, 67, 0
5, 48384, Note_on_c, 2, 67, 95
5, 48384, Note_on_c, 2, 79, 95
5, 48504, Note_off_c, 2, 79, 0
5, 48504, Note_off_c, 2, 67, 0
5, 48576, Note_on_c, 2, 70, 95
5, 48576, Note_on_c, 2, 82, 95
5, 48748, Note_off_c, 2, 82, 0
5, 48748, Note_off_c, 2, 70, 0
5, 48768, Note_on_c, 2, 72, 95
5, 48768, Note_on_c, 2, 84, 95
5, 48904, Note_off_c, 2, 84, 0
5, 48904, Note_off_c, 2, 72, 0
5, 48912, Note_on_c, 2, 65, 95
5, 48912, Note_on_c, 2, 77, 95
5, 49036, Note_off_c, 2, 77, 0
5, 49036, Note_off_c, 2, 65, 0
5, 49056, Note_on_c, 2, 63, 95
5, 49056, Note_on_c, 2, 75, 95
5, 49128, Note_off_c, 2, 75, 0
5, 49128, Note_off_c, 2, 63, 0
5, 49152, Note_on_c, 2, 62, 95
5, 49152, Note_on_c, 2, 74, 95
5, 49208, Note_off_c, 2, 74, 0
5, 49208, Note_off_c, 2, 62, 0
5, 49248, Note_on_c, 2, 62, 95
5, 49248, Note_on_c, 2, 74, 95
5, 49304, Note_off_c, 2, 74, 0
5, 49304, Note_off_c, 2, 62, 0
5, 49344, Note_on_c, 2, 60, 95
5, 49344, Note_on_c, 2, 72, 95
5, 49400, Note_off_c, 2, 72, 0
5, 49400, Note_off_c, 2, 60, 0
5, 49440, Note_on_c, 2, 62, 95
5, 49440, Note_on_c, 2, 74, 95
5, 49496, Note_off_c, 2, 74, 0
5, 49496, Note_off_c, 2, 62, 0
5, 49536, Note_on_c, 2, 65, 95
5, 49536, Note_on_c, 2, 77, 95
5, 49584, Note_off_c, 2, 77, 0
5, 49584, Note_off_c, 2, 65, 0
5, 49584, Note_on_c, 2, 63, 95
5, 49584, Note_on_c, 2, 75, 95
5, 49660, Note_off_c, 2, 75, 0
5, 49660, Note_off_c, 2, 63, 0
5, 49680, Note_on_c, 2, 63, 95
5, 49680, Note_on_c, 2, 75, 95
5, 49792, Note_off_c, 2, 75, 0
5, 49792, Note_off_c, 2, 63, 0
5, 49920, Note_on_c, 2, 60, 95
5, 49920, Note_on_c, 2, 72, 95
5, 49944, Note_off_c, 2, 72, 0
5, 49944, Note_off_c, 2, 60, 0
5, 49952, Note_on_c, 2, 60, 95
5, 49952, Note_on_c, 2, 72, 95
5, 50048, Note_off_c, 2, 72, 0
5, 50048, Note_off_c, 2, 60, 0
5, 50112, Note_on_c, 2, 63, 95
5, 50112, Note_on_c, 2, 75, 95
5, 50232, Note_off_c, 2, 75, 0
5, 50232, Note_off_c, 2, 63, 0
5, 50284, Note_on_c, 2, 63, 95
5, 50284, Note_on_c, 2, 75, 95
5, 50296, Note_on_c, 2, 64, 95
5, 50296, Note_on_c, 2, 76, 95
5, 50304, Note_off_c, 2, 75, 0
5, 50304, Note_off_c, 2, 63, 0
5, 50308, Note_on_c, 2, 65, 95
5, 50308, Note_on_c, 2, 77, 95
5, 50316, Note_off_c, 2, 64, 0
5, 50316, Note_off_c, 2, 76, 0
5, 50444, Note_off_c, 2, 65, 0
5, 50444, Note_off_c, 2, 77, 0
5, 50448, Note_on_c, 2, 63, 95
5, 50448, Note_on_c, 2, 75, 95
5, 50584, Note_off_c, 2, 75, 0
5, 50584, Note_off_c, 2, 63, 0
5, 50592, Note_on_c, 2, 65, 95
5, 50592, Note_on_c, 2, 77, 95
5, 50676, Note_off_c, 2, 77, 0
5, 50676, Note_off_c, 2, 65, 0
5, 50688, Note_on_c, 2, 65, 95
5, 50688, Note_on_c, 2, 77, 95
5, 50744, Note_off_c, 2, 77, 0
5, 50744, Note_off_c, 2, 65, 0
5, 50784, Note_on_c, 2, 65, 95
5, 50784, Note_on_c, 2, 77, 95
5, 50832, Note_off_c, 2, 77, 0
5, 50832, Note_off_c, 2, 65, 0
5, 50880, Note_on_c, 2, 70, 95
5, 50880, Note_on_c, 2, 82, 95
5, 50936, Note_off_c, 2, 82, 0
5, 50936, Note_off_c, 2, 70, 0
5, 50976, Note_on_c, 2, 68, 95
5, 50976, Note_on_c, 2, 80, 95
5, 51032, Note_off_c, 2, 80, 0
5, 51032, Note_off_c, 2, 68, 0
5, 51072, Note_on_c, 2, 67, 95
5, 51072, Note_on_c, 2, 79, 95
5, 51120, Note_off_c, 2, 79, 0
5, 51120, Note_off_c, 2, 67, 0
5, 51120, Note_on_c, 2, 65, 95
5, 51120, Note_on_c, 2, 77, 95
5, 51196, Note_off_c, 2, 77, 0
5, 51196, Note_off_c, 2, 65, 0
5, 51216, Note_on_c, 2, 67, 95
5, 51216, Note_on_c, 2, 79, 95
5, 51328, Note_off_c, 2, 79, 0
5, 51328, Note_off_c, 2, 67, 0
5, 51456, Note_on_c, 2, 67, 95
5, 51456, Note_on_c, 2, 79, 95
5, 51576, Note_off_c, 2, 79, 0
5, 51576, Note_off_c, 2, 67, 0
5, 51648, Note_on_c, 2, 70, 95
5, 51648, Note_on_c, 2, 82, 95
5, 51820, Note_off_c, 2, 82, 0
5, 51820, Note_off_c, 2, 70, 0
5, 51840, Note_on_c, 2, 72, 95
5, 51840, Note_on_c, 2, 84, 95
5, 51976, Note_off_c, 2, 84, 0
5, 51976, Note_off_c, 2, 72, 0
5, 51984, Note_on_c, 2, 65, 95
5, 51984, Note_on_c, 2, 77, 95
5, 52108, Note_off_c, 2, 77, 0
5, 52108, Note_off_c, 2, 65, 0
5, 52128, Note_on_c, 2, 63, 95
5, 52128, Note_on_c, 2, 75, 95
5, 52200, Note_off_c, 2, 75, 0
5, 52200, Note_off_c, 2, 63, 0
5, 52224, Note_on_c, 2, 70, 95
5, 52224, Note_on_c, 2, 82, 95
5, 52280, Note_off_c, 2, 82, 0
5, 52280, Note_off_c, 2, 70, 0
5, 52320, Note_on_c, 2, 70, 95
5, 52320, Note_on_c, 2, 82, 95
5, 52376, Note_off_c, 2, 82, 0
5, 52376, Note_off_c, 2, 70, 0
5, 52416, Note_on_c, 2, 67, 95
5, 52416, Note_on_c, 2, 79, 95
5, 52472, Note_off_c, 2, 79, 0
5, 52472, Note_off_c, 2, 67, 0
5, 52512, Note_on_c, 2, 70, 95
5, 52512, Note_on_c, 2, 82, 95
5, 52568, Note_off_c, 2, 82, 0
5, 52568, Note_off_c, 2, 70, 0
5, 52608, Note_on_c, 2, 70, 95
5, 52608, Note_on_c, 2, 82, 95
5, 52748, Note_off_c, 2, 82, 0
5, 52748, Note_off_c, 2, 70, 0
5, 52752, Note_on_c, 2, 72, 95
5, 52752, Note_on_c, 2, 84, 95
5, 52840, Note_off_c, 2, 84, 0
5, 52840, Note_off_c, 2, 72, 0
5, 57984, Control_c, 2, 91, 60
5, 57984, Control_c, 2, 93, 75
5, 58080, Control_c, 2, 11, 75
5, 58080, Program_c, 2, 62
5, 58368, Note_on_c, 2, 55, 95
5, 58368, Note_on_c, 2, 60, 95
5, 58748, Note_off_c, 2, 60, 0
5, 58748, Note_off_c, 2, 55, 0
5, 58752, Note_on_c, 2, 55, 95
5, 58752, Note_on_c, 2, 59, 95
5, 58752, Note_on_c, 2, 62, 95
5, 59132, Note_off_c, 2, 62, 0
5, 59132, Note_off_c, 2, 59, 0
5, 59132, Note_off_c, 2, 55, 0
5, 64512, Note_on_c, 2, 55, 95
5, 64512, Note_on_c, 2, 60, 95
5, 64696, Note_off_c, 2, 60, 0
5, 64696, Note_off_c, 2, 55, 0
5, 64704, Note_on_c, 2, 55, 95
5, 64704, Note_on_c, 2, 59, 95
5, 64888, Note_off_c, 2, 59, 0
5, 64888, Note_off_c, 2, 55, 0
5, 64896, Note_on_c, 2, 55, 95
5, 64896, Note_on_c, 2, 57, 95
5, 65080, Note_off_c, 2, 57, 0
5, 65080, Note_off_c, 2, 55, 0
5, 65088, Note_on_c, 2, 55, 95
5, 65088, Note_on_c, 2, 59, 95
5, 65136, Note_on_c, 2, 67, 95
5, 65160, Note_on_c, 2, 71, 95
5, 65184, Note_off_c, 2, 67, 0
5, 65184, Note_on_c, 2, 74, 95
5, 65208, Note_off_c, 2, 71, 0
5, 65208, Note_on_c, 2, 77, 95
5, 65232, Note_off_c, 2, 74, 0
5, 65232, Note_on_c, 2, 79, 95
5, 65252, Note_off_c, 2, 59, 0
5, 65252, Note_off_c, 2, 55, 0
5, 65256, Note_off_c, 2, 77, 0
5, 65256, Note_on_c, 2, 83, 95
5, 65280, Note_off_c, 2, 79, 0
5, 65280, Note_on_c, 2, 80, 95
5, 65280, Note_on_c, 2, 84, 95
5, 65280, Note_on_c, 2, 75, 95
5, 65292, Note_off_c, 2, 83, 0
5, 65312, Pitch_bend_c, 2, 8192
5, 65320, Pitch_bend_c, 2, 8187
5, 65328, Pitch_bend_c, 2, 8168
5, 65336, Pitch_bend_c, 2, 8136
5, 65344, Pitch_bend_c, 2, 8092
5, 65352, Pitch_bend_c, 2, 8037
5, 65360, Pitch_bend_c, 2, 7972
5, 65368, Pitch_bend_c, 2, 7899
5, 65372, Pitch_bend_c, 2, 7819
5, 65376, Pitch_bend_c, 2, 7733
5, 65380, Pitch_bend_c, 2, 7644
5, 65384, Pitch_bend_c, 2, 7552
5, 65388, Pitch_bend_c, 2, 7552
5, 65392, Pitch_bend_c, 2, 7477
5, 65400, Pitch_bend_c, 2, 7248
5, 65408, Pitch_bend_c, 2, 6871
5, 65416, Pitch_bend_c, 2, 6354
5, 65424, Pitch_bend_c, 2, 5709
5, 65432, Pitch_bend_c, 2, 4947
5, 65440, Pitch_bend_c, 2, 4084
5, 65448, Pitch_bend_c, 2, 3138
5, 65456, Pitch_bend_c, 2, 2128
5, 65464, Pitch_bend_c, 2, 1075
5, 65472, Pitch_bend_c, 2, 0
5, 65484, Note_off_c, 2, 80, 0
5, 65484, Note_off_c, 2, 84, 0
5, 65484, Note_off_c, 2, 75, 0
5, 66048, Pitch_bend_c, 2, 8192
5, 67104, Control_c, 2, 91, 35
5, 67104, Control_c, 2, 93, 5
5, 67200, Control_c, 2, 11, 75
5, 67200, Program_c, 2, 100
5, 67584, Note_on_c, 2, 65, 95
5, 67776, Note_off_c, 2, 65, 0
5, 67776, Note_on_c, 2, 67, 95
5, 67968, Note_off_c, 2, 67, 0
5, 67968, Note_on_c, 2, 68, 95
5, 68160, Note_off_c, 2, 68, 0
5, 68160, Note_on_c, 2, 70, 95
5, 68352, Note_off_c, 2, 70, 0
5, 68352, Note_on_c, 2, 72, 95
5, 69116, Note_off_c, 2, 72, 0
5, 69120, Note_on_c, 2, 70, 95
5, 69500, Note_off_c, 2, 70, 0
5, 69504, Note_on_c, 2, 72, 95
5, 69884, Note_off_c, 2, 72, 0
5, 69888, Note_on_c, 2, 74, 95
5, 70460, Note_off_c, 2, 74, 0
5, 70464, Control_c, 2, 91, 60
5, 70464, Control_c, 2, 93, 75
5, 70560, Control_c, 2, 11, 90
5, 70560, Program_c, 2, 62
5, 70656, Note_on_c, 2, 59, 95
5, 70656, Note_on_c, 2, 62, 95
5, 70656, Note_on_c, 2, 67, 95
5, 70656, Pitch_bend_c, 2, 7264
5, 70664, Pitch_bend_c, 2, 7397
5, 70672, Pitch_bend_c, 2, 7526
5, 70680, Pitch_bend_c, 2, 7650
5, 70688, Pitch_bend_c, 2, 7767
5, 70696, Pitch_bend_c, 2, 7873
5, 70704, Pitch_bend_c, 2, 7967
5, 70712, Pitch_bend_c, 2, 8046
5, 70720, Pitch_bend_c, 2, 8110
5, 70728, Pitch_bend_c, 2, 8156
5, 70736, Pitch_bend_c, 2, 8184
5, 70744, Pitch_bend_c, 2, 8192
5, 70992, Pitch_bend_c, 2, 8216
5, 71000, Pitch_bend_c, 2, 8290
5, 71004, Pitch_bend_c, 2, 8413
5, 71008, Pitch_bend_c, 2, 8582
5, 71012, Pitch_bend_c, 2, 8793
5, 71016, Pitch_bend_c, 2, 9041
5, 71020, Pitch_bend_c, 2, 9323
5, 71024, Pitch_bend_c, 2, 9632
5, 71028, Pitch_bend_c, 2, 9961
5, 71032, Pitch_bend_c, 2, 10305
5, 71036, Pitch_bend_c, 2, 10656
5, 71040, Note_off_c, 2, 67, 0
5, 71040, Note_off_c, 2, 62, 0
5, 71040, Note_off_c, 2, 59, 0
5, 71040, Pitch_bend_c, 2, 8192
5, 71040, Control_c, 2, 11, 75
5, 71040, Note_on_c, 2, 71, 95
5, 71040, Note_on_c, 2, 74, 95
5, 71040, Note_on_c, 2, 79, 95
5, 71040, Pitch_bend_c, 2, 6592
5, 71044, Pitch_bend_c, 2, 6820
5, 71048, Pitch_bend_c, 2, 7044
5, 71052, Pitch_bend_c, 2, 7258
5, 71056, Pitch_bend_c, 2, 7458
5, 71060, Pitch_bend_c, 2, 7641
5, 71064, Pitch_bend_c, 2, 7802
5, 71068, Pitch_bend_c, 2, 7939
5, 71072, Pitch_bend_c, 2, 8049
5, 71076, Pitch_bend_c, 2, 8129
5, 71080, Pitch_bend_c, 2, 8177
5, 71084, Pitch_bend_c, 2, 8192
5, 71180, Note_off_c, 2, 79, 0
5, 71180, Note_off_c, 2, 74, 0
5, 71180, Note_off_c, 2, 71, 0
5, 71184, Note_on_c, 2, 74, 95
5, 71184, Note_on_c, 2, 77, 95
5, 71184, Note_on_c, 2, 81, 95
5, 71316, Note_off_c, 2, 81, 0
5, 71316, Note_off_c, 2, 77, 0
5, 71316, Note_off_c, 2, 74, 0
5, 71328, Note_on_c, 2, 74, 95
5, 71328, Note_on_c, 2, 79, 95
5, 71328, Note_on_c, 2, 83, 95
5, 71396, Note_off_c, 2, 83, 0
5, 71396, Note_off_c, 2, 79, 0
5, 71396, Note_off_c, 2, 74, 0
5, 71520, Control_c, 2, 11, 85
5, 71616, Note_on_c, 2, 79, 95
5, 71616, Note_on_c, 2, 84, 95
5, 71616, Note_on_c, 2, 75, 95
5, 71680, Pitch_bend_c, 2, 8192
5, 71684, Pitch_bend_c, 2, 8185
5, 71688, Pitch_bend_c, 2, 8161
5, 71692, Pitch_bend_c, 2, 8121
5, 71696, Pitch_bend_c, 2, 8066
5, 71700, Pitch_bend_c, 2, 7998
5, 71704, Pitch_bend_c, 2, 7917
5, 71708, Pitch_bend_c, 2, 7826
5, 71712, Pitch_bend_c, 2, 7725
5, 71716, Pitch_bend_c, 2, 7618
5, 71720, Pitch_bend_c, 2, 7506
5, 71724, Pitch_bend_c, 2, 7392
5, 71728, Pitch_bend_c, 2, 7318
5, 71736, Pitch_bend_c, 2, 7094
5, 71744, Pitch_bend_c, 2, 6725
5, 71752, Pitch_bend_c, 2, 6220
5, 71760, Pitch_bend_c, 2, 5588
5, 71768, Pitch_bend_c, 2, 4842
5, 71776, Pitch_bend_c, 2, 3997
5, 71784, Pitch_bend_c, 2, 3072
5, 71792, Pitch_bend_c, 2, 2083
5, 71800, Pitch_bend_c, 2, 1053
5, 71808, Pitch_bend_c, 2, 0
5, 71820, Note_off_c, 2, 75, 0
5, 71820, Note_off_c, 2, 84, 0
5, 71820, Note_off_c, 2, 79, 0
5, 73920, Pitch_bend_c, 2, 8192
5, 73920, Control_c, 2, 91, 45
5, 73920, Control_c, 2, 93, 30
5, 74016, Control_c, 2, 11, 127
5, 74016, Program_c, 2, 61
5, 74352, Note_on_c, 2, 65, 95
5, 74352, Note_on_c, 2, 77, 95
5, 74388, Note_off_c, 2, 77, 0
5, 74388, Note_off_c, 2, 65, 0
5, 74400, Note_on_c, 2, 67, 95
5, 74400, Note_on_c, 2, 79, 95
5, 74436, Note_off_c, 2, 79, 0
5, 74436, Note_off_c, 2, 67, 0
5, 74448, Note_on_c, 2, 70, 95
5, 74448, Note_on_c, 2, 82, 95
5, 74484, Note_off_c, 2, 82, 0
5, 74484, Note_off_c, 2, 70, 0
5, 74496, Note_on_c, 2, 72, 95
5, 74496, Note_on_c, 2, 84, 95
5, 74592, Note_on_c, 2, 70, 95
5, 74592, Note_on_c, 2, 82, 95
5, 74600, Note_off_c, 2, 72, 0
5, 74604, Note_off_c, 2, 84, 0
5, 74608, Note_on_c, 2, 68, 95
5, 74608, Note_on_c, 2, 80, 95
5, 74620, Note_off_c, 2, 70, 0
5, 74620, Note_off_c, 2, 82, 0
5, 74624, Note_on_c, 2, 67, 95
5, 74624, Note_on_c, 2, 79, 95
5, 74636, Note_off_c, 2, 68, 0
5, 74636, Note_off_c, 2, 80, 0
5, 74640, Note_on_c, 2, 65, 95
5, 74640, Note_on_c, 2, 77, 95
5, 74652, Note_off_c, 2, 67, 0
5, 74652, Note_off_c, 2, 79, 0
5, 74656, Note_on_c, 2, 63, 95
5, 74656, Note_on_c, 2, 75, 95
5, 74668, Note_off_c, 2, 65, 0
5, 74668, Note_off_c, 2, 77, 0
5, 74684, Note_off_c, 2, 63, 0
5, 74684, Note_off_c, 2, 75, 0
5, 76800, Note_on_c, 2, 70, 95
5, 76800, Note_on_c, 2, 82, 95
5, 76856, Note_off_c, 2, 82, 0
5, 76856, Note_off_c, 2, 70, 0
5, 76896, Note_on_c, 2, 70, 95
5, 76896, Note_on_c, 2, 82, 95
5, 76952, Note_off_c, 2, 82, 0
5, 76952, Note_off_c, 2, 70, 0
5, 76992, Note_on_c, 2, 67, 95
5, 76992, Note_on_c, 2, 79, 95
5, 77048, Note_off_c, 2, 79, 0
5, 77048, Note_off_c, 2, 67, 0
5, 77088, Note_on_c, 2, 70, 95
5, 77088, Note_on_c, 2, 82, 95
5, 77144, Note_off_c, 2, 82, 0
5, 77144, Note_off_c, 2, 70, 0
5, 77184, Note_on_c, 2, 70, 95
5, 77184, Note_on_c, 2, 82, 95
5, 77324, Note_off_c, 2, 82, 0
5, 77324, Note_off_c, 2, 70, 0
5, 77328, Note_on_c, 2, 72, 95
5, 77328, Note_on_c, 2, 84, 95
5, 77416, Note_off_c, 2, 84, 0
5, 77416, Note_off_c, 2, 72, 0
5, 77424, Program_c, 2, 55
5, 77424, Control_c, 2, 93, 100
5, 77472, Note_on_c, 2, 94, 95
5, 77520, Note_off_c, 2, 94, 0
5, 77520, Note_on_c, 2, 96, 95
5, 77568, Note_off_c, 2, 96, 0
5, 77568, Control_c, 2, 91, 60
5, 77568, Control_c, 2, 93, 75
5, 77664, Control_c, 2, 11, 75
5, 77664, Program_c, 2, 62
5, 77760, Note_on_c, 2, 79, 95
5, 77760, Note_on_c, 2, 84, 95
5, 77760, Note_on_c, 2, 87, 95
5, 77856, Pitch_bend_c, 2, 8192
5, 77864, Pitch_bend_c, 2, 8110
5, 77872, Pitch_bend_c, 2, 7862
5, 77880, Pitch_bend_c, 2, 7453
5, 77888, Pitch_bend_c, 2, 6893
5, 77896, Pitch_bend_c, 2, 6192
5, 77904, Pitch_bend_c, 2, 5366
5, 77912, Pitch_bend_c, 2, 4430
5, 77920, Pitch_bend_c, 2, 3404
5, 77928, Pitch_bend_c, 2, 2309
5, 77936, Pitch_bend_c, 2, 1166
5, 77944, Pitch_bend_c, 2, 0
5, 77960, Note_off_c, 2, 87, 0
5, 77960, Note_off_c, 2, 84, 0
5, 77960, Note_off_c, 2, 79, 0
5, 81408, Pitch_bend_c, 2, 8192
5, 82464, Control_c, 2, 91, 35
5, 82464, Control_c, 2, 93, 5
5, 82560, Control_c, 2, 11, 75
5, 82560, Program_c, 2, 100
5, 82944, Note_on_c, 2, 65, 95
5, 83136, Note_off_c, 2, 65, 0
5, 83136, Note_on_c, 2, 67, 95
5, 83328, Note_off_c, 2, 67, 0
5, 83328, Note_on_c, 2, 68, 95
5, 83520, Note_off_c, 2, 68, 0
5, 83520, Note_on_c, 2, 70, 95
5, 83712, Note_off_c, 2, 70, 0
5, 83712, Note_on_c, 2, 72, 95
5, 84476, Note_off_c, 2, 72, 0
5, 84480, Note_on_c, 2, 70, 95
5, 84860, Note_off_c, 2, 70, 0
5, 84864, Note_on_c, 2, 72, 95
5, 85244, Note_off_c, 2, 72, 0
5, 85248, Note_on_c, 2, 74, 95
5, 85820, Note_off_c, 2, 74, 0
5, 85824, Control_c, 2, 91, 60
5, 85824, Control_c, 2, 93, 75
5, 85920, Control_c, 2, 11, 90
5, 85920, Program_c, 2, 62
5, 86016, Note_on_c, 2, 59, 95
5, 86016, Note_on_c, 2, 62, 95
5, 86016, Note_on_c, 2, 67, 95
5, 86016, Pitch_bend_c, 2, 7264
5, 86024, Pitch_bend_c, 2, 7397
5, 86032, Pitch_bend_c, 2, 7526
5, 86040, Pitch_bend_c, 2, 7650
5, 86048, Pitch_bend_c, 2, 7767
5, 86056, Pitch_bend_c, 2, 7873
5, 86064, Pitch_bend_c, 2, 7967
5, 86072, Pitch_bend_c, 2, 8046
5, 86080, Pitch_bend_c, 2, 8110
5, 86088, Pitch_bend_c, 2, 8156
5, 86096, Pitch_bend_c, 2, 8184
5, 86104, Pitch_bend_c, 2, 8192
5, 86352, Pitch_bend_c, 2, 8216
5, 86360, Pitch_bend_c, 2, 8290
5, 86364, Pitch_bend_c, 2, 8413
5, 86368, Pitch_bend_c, 2, 8582
5, 86372, Pitch_bend_c, 2, 8793
5, 86376, Pitch_bend_c, 2, 9041
5, 86380, Pitch_bend_c, 2, 9323
5, 86384, Pitch_bend_c, 2, 9632
5, 86388, Pitch_bend_c, 2, 9961
5, 86392, Pitch_bend_c, 2, 10305
5, 86396, Pitch_bend_c, 2, 10656
5, 86400, Note_off_c, 2, 67, 0
5, 86400, Note_off_c, 2, 62, 0
5, 86400, Note_off_c, 2, 59, 0
5, 86400, Control_c, 2, 11, 75
5, 86400, Note_on_c, 2, 71, 95
5, 86400, Note_on_c, 2, 74, 95
5, 86400, Note_on_c, 2, 79, 95
5, 86400, Pitch_bend_c, 2, 6592
5, 86404, Pitch_bend_c, 2, 6820
5, 86408, Pitch_bend_c, 2, 7044
5, 86412, Pitch_bend_c, 2, 7258
5, 86416, Pitch_bend_c, 2, 7458
5, 86420, Pitch_bend_c, 2, 7641
5, 86424, Pitch_bend_c, 2, 7802
5, 86428, Pitch_bend_c, 2, 7939
5, 86432, Pitch_bend_c, 2, 8049
5, 86436, Pitch_bend_c, 2, 8129
5, 86440, Pitch_bend_c, 2, 8177
5, 86444, Pitch_bend_c, 2, 8192
5, 86540, Note_off_c, 2, 79, 0
5, 86540, Note_off_c, 2, 74, 0
5, 86540, Note_off_c, 2, 71, 0
5, 86544, Note_on_c, 2, 74, 95
5, 86544, Note_on_c, 2, 77, 95
5, 86544, Note_on_c, 2, 81, 95
5, 86676, Note_off_c, 2, 81, 0
5, 86676, Note_off_c, 2, 77, 0
5, 86676, Note_off_c, 2, 74, 0
5, 86688, Note_on_c, 2, 74, 95
5, 86688, Note_on_c, 2, 79, 95
5, 86688, Note_on_c, 2, 83, 95
5, 86756, Note_off_c, 2, 83, 0
5, 86756, Note_off_c, 2, 79, 0
5, 86756, Note_off_c, 2, 74, 0
5, 86880, Control_c, 2, 11, 85
5, 86976, Note_on_c, 2, 79, 95
5, 86976, Note_on_c, 2, 84, 95
5, 86976, Note_on_c, 2, 75, 95
5, 87040, Pitch_bend_c, 2, 8192
5, 87044, Pitch_bend_c, 2, 8185
5, 87048, Pitch_bend_c, 2, 8161
5, 87052, Pitch_bend_c, 2, 8121
5, 87056, Pitch_bend_c, 2, 8066
5, 87060, Pitch_bend_c, 2, 7998
5, 87064, Pitch_bend_c, 2, 7917
5, 87068, Pitch_bend_c, 2, 7826
5, 87072, Pitch_bend_c, 2, 7725
5, 87076, Pitch_bend_c, 2, 7618
5, 87080, Pitch_bend_c, 2, 7506
5, 87084, Pitch_bend_c, 2, 7392
5, 87088, Pitch_bend_c, 2, 7318
5, 87096, Pitch_bend_c, 2, 7094
5, 87104, Pitch_bend_c, 2, 6725
5, 87112, Pitch_bend_c, 2, 6220
5, 87120, Pitch_bend_c, 2, 5588
5, 87128, Pitch_bend_c, 2, 4842
5, 87136, Pitch_bend_c, 2, 3997
5, 87144, Pitch_bend_c, 2, 3072
5, 87152, Pitch_bend_c, 2, 2083
5, 87160, Pitch_bend_c, 2, 1053
5, 87168, Pitch_bend_c, 2, 0
5, 87180, Note_off_c, 2, 75, 0
5, 87180, Note_off_c, 2, 84, 0
5, 87180, Note_off_c, 2, 79, 0
5, 89280, Pitch_bend_c, 2, 8192
5, 89280, Control_c, 2, 91, 45
5, 89280, Control_c, 2, 93, 30
5, 89376, Control_c, 2, 11, 127
5, 89376, Program_c, 2, 61
5, 89712, Note_on_c, 2, 65, 95
5, 89712, Note_on_c, 2, 77, 95
5, 89748, Note_off_c, 2, 77, 0
5, 89748, Note_off_c, 2, 65, 0
5, 89760, Note_on_c, 2, 67, 95
5, 89760, Note_on_c, 2, 79, 95
5, 89796, Note_off_c, 2, 79, 0
5, 89796, Note_off_c, 2, 67, 0
5, 89808, Note_on_c, 2, 70, 95
5, 89808, Note_on_c, 2, 82, 95
5, 89844, Note_off_c, 2, 82, 0
5, 89844, Note_off_c, 2, 70, 0
5, 89856, Note_on_c, 2, 72, 95
5, 89856, Note_on_c, 2, 84, 95
5, 89952, Note_on_c, 2, 70, 95
5, 89952, Note_on_c, 2, 82, 95
5, 89960, Note_off_c, 2, 72, 0
5, 89964, Note_off_c, 2, 84, 0
5, 89968, Note_on_c, 2, 68, 95
5, 89968, Note_on_c, 2, 80, 95
5, 89980, Note_off_c, 2, 70, 0
5, 89980, Note_off_c, 2, 82, 0
5, 89984, Note_on_c, 2, 67, 95
5, 89984, Note_on_c, 2, 79, 95
5, 89996, Note_off_c, 2, 68, 0
5, 89996, Note_off_c, 2, 80, 0
5, 90000, Note_on_c, 2, 65, 95
5, 90000, Note_on_c, 2, 77, 95
5, 90012, Note_off_c, 2, 67, 0
5, 90012, Note_off_c, 2, 79, 0
5, 90016, Note_on_c, 2, 63, 95
5, 90016, Note_on_c, 2, 75, 95
5, 90028, Note_off_c, 2, 65, 0
5, 90028, Note_off_c, 2, 77, 0
5, 90044, Note_off_c, 2, 63, 0
5, 90044, Note_off_c, 2, 75, 0
5, 92160, Note_on_c, 2, 70, 95
5, 92160, Note_on_c, 2, 82, 95
5, 92216, Note_off_c, 2, 82, 0
5, 92216, Note_off_c, 2, 70, 0
5, 92256, Note_on_c, 2, 70, 95
5, 92256, Note_on_c, 2, 82, 95
5, 92312, Note_off_c, 2, 82, 0
5, 92312, Note_off_c, 2, 70, 0
5, 92352, Note_on_c, 2, 67, 95
5, 92352, Note_on_c, 2, 79, 95
5, 92408, Note_off_c, 2, 79, 0
5, 92408, Note_off_c, 2, 67, 0
5, 92448, Note_on_c, 2, 70, 95
5, 92448, Note_on_c, 2, 82, 95
5, 92504, Note_off_c, 2, 82, 0
5, 92504, Note_off_c, 2, 70, 0
5, 92544, Note_on_c, 2, 70, 95
5, 92544, Note_on_c, 2, 82, 95
5, 92684, Note_off_c, 2, 82, 0
5, 92684, Note_off_c, 2, 70, 0
5, 92688, Note_on_c, 2, 72, 95
5, 92688, Note_on_c, 2, 84, 95
5, 92776, Note_off_c, 2, 84, 0
5, 92776, Note_off_c, 2, 72, 0
5, 92784, Program_c, 2, 55
5, 92784, Control_c, 2, 93, 100
5, 92832, Note_on_c, 2, 94, 95
5, 92880, Note_off_c, 2, 94, 0
5, 92880, Note_on_c, 2, 96, 95
5, 92928, Note_off_c, 2, 96, 0
5, 92928, Program_c, 2, 61
5, 92928, Control_c, 2, 93, 30
5, 92928, Control_c, 2, 11, 110
5, 92928, Note_on_c, 2, 60, 95
5, 92928, Note_on_c, 2, 72, 95
5, 92952, Note_off_c, 2, 72, 0
5, 92952, Note_off_c, 2, 60, 0
5, 92960, Note_on_c, 2, 60, 95
5, 92960, Note_on_c, 2, 72, 95
5, 93056, Note_off_c, 2, 72, 0
5, 93056, Note_off_c, 2, 60, 0
5, 93120, Note_on_c, 2, 63, 95
5, 93120, Note_on_c, 2, 75, 95
5, 93240, Note_off_c, 2, 75, 0
5, 93240, Note_off_c, 2, 63, 0
5, 93292, Note_on_c, 2, 63, 95
5, 93292, Note_on_c, 2, 75, 95
5, 93304, Note_on_c, 2, 64, 95
5, 93304, Note_on_c, 2, 76, 95
5, 93312, Note_off_c, 2, 75, 0
5, 93312, Note_off_c, 2, 63, 0
5, 93316, Note_on_c, 2, 65, 95
5, 93316, Note_on_c, 2, 77, 95
5, 93324, Note_off_c, 2, 64, 0
5, 93324, Note_off_c, 2, 76, 0
5, 93452, Note_off_c, 2, 65, 0
5, 93452, Note_off_c, 2, 77, 0
5, 93456, Note_on_c, 2, 63, 95
5, 93456, Note_on_c, 2, 75, 95
5, 93592, Note_off_c, 2, 75, 0
5, 93592, Note_off_c, 2, 63, 0
5, 93600, Note_on_c, 2, 65, 95
5, 93600, Note_on_c, 2, 77, 95
5, 93684, Note_off_c, 2, 77, 0
5, 93684, Note_off_c, 2, 65, 0
5, 93696, Note_on_c, 2, 65, 95
5, 93696, Note_on_c, 2, 77, 95
5, 93752, Note_off_c, 2, 77, 0
5, 93752, Note_off_c, 2, 65, 0
5, 93792, Note_on_c, 2, 65, 95
5, 93792, Note_on_c, 2, 77, 95
5, 93840, Note_off_c, 2, 77, 0
5, 93840, Note_off_c, 2, 65, 0
5, 93888, Note_on_c, 2, 70, 95
5, 93888, Note_on_c, 2, 82, 95
5, 93944, Note_off_c, 2, 82, 0
5, 93944, Note_off_c, 2, 70, 0
5, 93984, Note_on_c, 2, 68, 95
5, 93984, Note_on_c, 2, 80, 95
5, 94040, Note_off_c, 2, 80, 0
5, 94040, Note_off_c, 2, 68, 0
5, 94080, Note_on_c, 2, 67, 95
5, 94080, Note_on_c, 2, 79, 95
5, 94128, Note_off_c, 2, 79, 0
5, 94128, Note_off_c, 2, 67, 0
5, 94128, Note_on_c, 2, 65, 95
5, 94128, Note_on_c, 2, 77, 95
5, 94204, Note_off_c, 2, 77, 0
5, 94204, Note_off_c, 2, 65, 0
5, 94224, Note_on_c, 2, 67, 95
5, 94224, Note_on_c, 2, 79, 95
5, 94336, Note_off_c, 2, 79, 0
5, 94336, Note_off_c, 2, 67, 0
5, 94464, Note_on_c, 2, 67, 95
5, 94464, Note_on_c, 2, 79, 95
5, 94584, Note_off_c, 2, 79, 0
5, 94584, Note_off_c, 2, 67, 0
5, 94656, Note_on_c, 2, 70, 95
5, 94656, Note_on_c, 2, 82, 95
5, 94828, Note_off_c, 2, 82, 0
5, 94828, Note_off_c, 2, 70, 0
5, 94848, Note_on_c, 2, 72, 95
5, 94848, Note_on_c, 2, 84, 95
5, 94984, Note_off_c, 2, 84, 0
5, 94984, Note_off_c, 2, 72, 0
5, 94992, Note_on_c, 2, 65, 95
5, 94992, Note_on_c, 2, 77, 95
5, 95116, Note_off_c, 2, 77, 0
5, 95116, Note_off_c, 2, 65, 0
5, 95136, Note_on_c, 2, 63, 95
5, 95136, Note_on_c, 2, 75, 95
5, 95208, Note_off_c, 2, 75, 0
5, 95208, Note_off_c, 2, 63, 0
5, 95232, Note_on_c, 2, 70, 95
5, 95232, Note_on_c, 2, 82, 95
5, 95288, Note_off_c, 2, 82, 0
5, 95288, Note_off_c, 2, 70, 0
5, 95328, Note_on_c, 2, 70, 95
5, 95328, Note_on_c, 2, 82, 95
5, 95384, Note_off_c, 2, 82, 0
5, 95384, Note_off_c, 2, 70, 0
5, 95424, Note_on_c, 2, 67, 95
5, 95424, Note_on_c, 2, 79, 95
5, 95480, Note_off_c, 2, 79, 0
5, 95480, Note_off_c, 2, 67, 0
5, 95520, Note_on_c, 2, 70, 95
5, 95520, Note_on_c, 2, 82, 95
5, 95576, Note_off_c, 2, 82, 0
5, 95576, Note_off_c, 2, 70, 0
5, 95616, Note_on_c, 2, 70, 95
5, 95616, Note_on_c, 2, 82, 95
5, 95756, Note_off_c, 2, 82, 0
5, 95756, Note_off_c, 2, 70, 0
5, 95760, Note_on_c, 2, 72, 95
5, 95760, Note_on_c, 2, 84, 95
5, 95848, Note_off_c, 2, 84, 0
5, 95848, Note_off_c, 2, 72, 0
5, 95848, End_track
6, 0, Start_track
6, 0, Title_t, "Ranma"
6, 0, Channel_prefix, 3
6, 0, Control_c, 3, 7, 100
6, 0, Program_c, 3, 25
6, 0, Control_c, 3, 0, 0
6, 3840, Note_on_c, 3, 60, 78
6, 3860, Note_off_c, 3, 60, 0
6, 3888, Note_on_c, 3, 63, 85
6, 3888, Note_on_c, 3, 67, 92
6, 3920, Note_off_c, 3, 67, 0
6, 3920, Note_off_c, 3, 63, 0
6, 3936, Note_on_c, 3, 60, 78
6, 3956, Note_off_c, 3, 60, 0
6, 3984, Note_on_c, 3, 63, 78
6, 3984, Note_on_c, 3, 67, 87
6, 4016, Note_off_c, 3, 67, 0
6, 4016, Note_off_c, 3, 63, 0
6, 4032, Note_on_c, 3, 63, 85
6, 4032, Note_on_c, 3, 67, 92
6, 4120, Note_off_c, 3, 67, 0
6, 4120, Note_off_c, 3, 63, 0
6, 4128, Note_on_c, 3, 63, 76
6, 4128, Note_on_c, 3, 67, 85
6, 4172, Note_off_c, 3, 67, 0
6, 4172, Note_off_c, 3, 63, 0
6, 4176, Note_on_c, 3, 63, 71
6, 4176, Note_on_c, 3, 67, 78
6, 4220, Note_off_c, 3, 67, 0
6, 4220, Note_off_c, 3, 63, 0
6, 4224, Note_on_c, 3, 60, 78
6, 4240, Note_off_c, 3, 60, 0
6, 4272, Note_on_c, 3, 65, 77
6, 4272, Note_on_c, 3, 68, 87
6, 4300, Note_off_c, 3, 68, 0
6, 4300, Note_off_c, 3, 65, 0
6, 4320, Note_on_c, 3, 60, 78
6, 4336, Note_off_c, 3, 60, 0
6, 4368, Note_on_c, 3, 65, 77
6, 4368, Note_on_c, 3, 68, 87
6, 4396, Note_off_c, 3, 68, 0
6, 4396, Note_off_c, 3, 65, 0
6, 4416, Note_on_c, 3, 65, 81
6, 4416, Note_on_c, 3, 68, 90
6, 4504, Note_off_c, 3, 68, 0
6, 4504, Note_off_c, 3, 65, 0
6, 4512, Note_on_c, 3, 60, 78
6, 4528, Note_off_c, 3, 60, 0
6, 4560, Note_on_c, 3, 65, 77
6, 4560, Note_on_c, 3, 68, 87
6, 4588, Note_off_c, 3, 68, 0
6, 4588, Note_off_c, 3, 65, 0
6, 4608, Note_on_c, 3, 62, 92
6, 4624, Note_off_c, 3, 62, 0
6, 4656, Note_on_c, 3, 65, 71
6, 4656, Note_on_c, 3, 70, 85
6, 4688, Note_off_c, 3, 70, 0
6, 4696, Note_off_c, 3, 65, 0
6, 4704, Note_on_c, 3, 62, 92
6, 4740, Note_off_c, 3, 62, 0
6, 4752, Note_on_c, 3, 65, 71
6, 4752, Note_on_c, 3, 70, 87
6, 4784, Note_off_c, 3, 70, 0
6, 4792, Note_off_c, 3, 65, 0
6, 4800, Note_on_c, 3, 65, 87
6, 4800, Note_on_c, 3, 70, 101
6, 4884, Note_off_c, 3, 70, 0
6, 4892, Note_off_c, 3, 65, 0
6, 4896, Note_on_c, 3, 65, 77
6, 4896, Note_on_c, 3, 70, 90
6, 4936, Note_off_c, 3, 70, 0
6, 4944, Note_off_c, 3, 65, 0
6, 4944, Note_on_c, 3, 65, 77
6, 4944, Note_on_c, 3, 70, 90
6, 4984, Note_off_c, 3, 70, 0
6, 4992, Note_off_c, 3, 65, 0
6, 4992, Note_on_c, 3, 67, 77
6, 4992, Note_on_c, 3, 70, 90
6, 5032, Note_off_c, 3, 70, 0
6, 5040, Note_off_c, 3, 67, 0
6, 5040, Note_on_c, 3, 67, 77
6, 5040, Note_on_c, 3, 70, 90
6, 5064, Note_off_c, 3, 70, 0
6, 5072, Note_off_c, 3, 67, 0
6, 5088, Note_on_c, 3, 67, 77
6, 5088, Note_on_c, 3, 70, 90
6, 5128, Note_off_c, 3, 70, 0
6, 5136, Note_off_c, 3, 67, 0
6, 5136, Note_on_c, 3, 67, 77
6, 5136, Note_on_c, 3, 70, 90
6, 5160, Note_off_c, 3, 70, 0
6, 5168, Note_off_c, 3, 67, 0
6, 5184, Note_on_c, 3, 67, 77
6, 5184, Note_on_c, 3, 70, 90
6, 5224, Note_off_c, 3, 70, 0
6, 5232, Note_off_c, 3, 67, 0
6, 5232, Note_on_c, 3, 67, 77
6, 5232, Note_on_c, 3, 70, 90
6, 5272, Note_off_c, 3, 70, 0
6, 5280, Note_off_c, 3, 67, 0
6, 5280, Note_on_c, 3, 67, 85
6, 5280, Note_on_c, 3, 70, 99
6, 5364, Note_off_c, 3, 70, 0
6, 5372, Note_off_c, 3, 67, 0
6, 5376, Note_on_c, 3, 60, 78
6, 5396, Note_off_c, 3, 60, 0
6, 5424, Note_on_c, 3, 63, 85
6, 5424, Note_on_c, 3, 67, 92
6, 5456, Note_off_c, 3, 67, 0
6, 5456, Note_off_c, 3, 63, 0
6, 5472, Note_on_c, 3, 60, 78
6, 5492, Note_off_c, 3, 60, 0
6, 5520, Note_on_c, 3, 63, 78
6, 5520, Note_on_c, 3, 67, 87
6, 5552, Note_off_c, 3, 67, 0
6, 5552, Note_off_c, 3, 63, 0
6, 5568, Note_on_c, 3, 63, 85
6, 5568, Note_on_c, 3, 67, 92
6, 5656, Note_off_c, 3, 67, 0
6, 5656, Note_off_c, 3, 63, 0
6, 5664, Note_on_c, 3, 63, 76
6, 5664, Note_on_c, 3, 67, 85
6, 5708, Note_off_c, 3, 67, 0
6, 5708, Note_off_c, 3, 63, 0
6, 5712, Note_on_c, 3, 63, 71
6, 5712, Note_on_c, 3, 67, 78
6, 5756, Note_off_c, 3, 67, 0
6, 5756, Note_off_c, 3, 63, 0
6, 5760, Note_on_c, 3, 60, 78
6, 5776, Note_off_c, 3, 60, 0
6, 5808, Note_on_c, 3, 65, 77
6, 5808, Note_on_c, 3, 68, 87
6, 5836, Note_off_c, 3, 68, 0
6, 5836, Note_off_c, 3, 65, 0
6, 5856, Note_on_c, 3, 60, 78
6, 5872, Note_off_c, 3, 60, 0
6, 5904, Note_on_c, 3, 65, 77
6, 5904, Note_on_c, 3, 68, 87
6, 5932, Note_off_c, 3, 68, 0
6, 5932, Note_off_c, 3, 65, 0
6, 5952, Note_on_c, 3, 65, 81
6, 5952, Note_on_c, 3, 68, 90
6, 6040, Note_off_c, 3, 68, 0
6, 6040, Note_off_c, 3, 65, 0
6, 6048, Note_on_c, 3, 60, 78
6, 6064, Note_off_c, 3, 60, 0
6, 6096, Note_on_c, 3, 65, 77
6, 6096, Note_on_c, 3, 68, 87
6, 6124, Note_off_c, 3, 68, 0
6, 6124, Note_off_c, 3, 65, 0
6, 6144, Note_on_c, 3, 65, 87
6, 6144, Note_on_c, 3, 70, 101
6, 6236, Note_off_c, 3, 70, 0
6, 6236, Note_off_c, 3, 65, 0
6, 6240, Note_on_c, 3, 65, 85
6, 6240, Note_on_c, 3, 70, 96
6, 6332, Note_off_c, 3, 70, 0
6, 6332, Note_off_c, 3, 65, 0
6, 6336, Note_on_c, 3, 65, 85
6, 6336, Note_on_c, 3, 70, 99
6, 6428, Note_off_c, 3, 70, 0
6, 6428, Note_off_c, 3, 65, 0
6, 6432, Note_on_c, 3, 65, 81
6, 6432, Note_on_c, 3, 70, 94
6, 6524, Note_off_c, 3, 70, 0
6, 6524, Note_off_c, 3, 65, 0
6, 6528, Note_on_c, 3, 63, 77
6, 6528, Note_on_c, 3, 67, 92
6, 6660, Note_off_c, 3, 67, 0
6, 6668, Note_off_c, 3, 63, 0
6, 6672, Note_on_c, 3, 63, 87
6, 6672, Note_on_c, 3, 67, 101
6, 6864, Note_off_c, 3, 67, 0
6, 6864, Note_off_c, 3, 63, 0
6, 6912, Control_c, 3, 11, 90
6, 6912, Note_on_c, 3, 63, 76
6, 6912, Note_on_c, 3, 70, 90
6, 7664, Note_off_c, 3, 70, 0
6, 7664, Note_off_c, 3, 63, 0
6, 7680, Note_on_c, 3, 62, 76
6, 7680, Note_on_c, 3, 70, 90
6, 8432, Note_off_c, 3, 70, 0
6, 8432, Note_off_c, 3, 62, 0
6, 8448, Note_on_c, 3, 60, 76
6, 8448, Note_on_c, 3, 67, 90
6, 8816, Note_off_c, 3, 67, 0
6, 8816, Note_off_c, 3, 60, 0
6, 8832, Note_on_c, 3, 58, 76
6, 8832, Note_on_c, 3, 65, 90
6, 9200, Note_off_c, 3, 65, 0
6, 9200, Note_off_c, 3, 58, 0
6, 9216, Note_on_c, 3, 60, 76
6, 9216, Note_on_c, 3, 68, 90
6, 9968, Note_off_c, 3, 68, 0
6, 9968, Note_off_c, 3, 60, 0
6, 9984, Note_on_c, 3, 63, 76
6, 9984, Note_on_c, 3, 70, 90
6, 10364, Note_off_c, 3, 70, 0
6, 10364, Note_off_c, 3, 63, 0
6, 10368, Note_on_c, 3, 62, 76
6, 10368, Note_on_c, 3, 70, 90
6, 10728, Note_off_c, 3, 62, 0
6, 10732, Pitch_bend_c, 3, 8192
6, 10736, Pitch_bend_c, 3, 8328
6, 10740, Pitch_bend_c, 3, 8720
6, 10744, Pitch_bend_c, 3, 9307
6, 10748, Pitch_bend_c, 3, 10000
6, 10752, Note_off_c, 3, 70, 0
6, 10752, Pitch_bend_c, 3, 8192
6, 10752, Note_on_c, 3, 67, 76
6, 10752, Note_on_c, 3, 75, 90
6, 11128, Note_off_c, 3, 75, 0
6, 11128, Note_off_c, 3, 67, 0
6, 11136, Note_on_c, 3, 67, 76
6, 11136, Note_on_c, 3, 75, 90
6, 11512, Note_off_c, 3, 75, 0
6, 11512, Note_off_c, 3, 67, 0
6, 11520, Note_on_c, 3, 65, 76
6, 11520, Note_on_c, 3, 72, 90
6, 12272, Note_off_c, 3, 72, 0
6, 12272, Note_off_c, 3, 65, 0
6, 12288, Note_on_c, 3, 65, 76
6, 12288, Note_on_c, 3, 72, 90
6, 12664, Note_off_c, 3, 72, 0
6, 12664, Note_off_c, 3, 65, 0
6, 12672, Note_on_c, 3, 65, 76
6, 12672, Note_on_c, 3, 71, 90
6, 13048, Note_off_c, 3, 71, 0
6, 13048, Note_off_c, 3, 65, 0
6, 13056, Note_on_c, 3, 63, 76
6, 13056, Note_on_c, 3, 70, 90
6, 13808, Note_off_c, 3, 70, 0
6, 13808, Note_off_c, 3, 63, 0
6, 13824, Note_on_c, 3, 62, 76
6, 13824, Note_on_c, 3, 70, 90
6, 14576, Note_off_c, 3, 70, 0
6, 14576, Note_off_c, 3, 62, 0
6, 14592, Note_on_c, 3, 60, 76
6, 14592, Note_on_c, 3, 67, 90
6, 14960, Note_off_c, 3, 67, 0
6, 14960, Note_off_c, 3, 60, 0
6, 14976, Note_on_c, 3, 58, 76
6, 14976, Note_on_c, 3, 65, 90
6, 15344, Note_off_c, 3, 65, 0
6, 15344, Note_off_c, 3, 58, 0
6, 15360, Note_on_c, 3, 60, 76
6, 15360, Note_on_c, 3, 68, 90
6, 16112, Note_off_c, 3, 68, 0
6, 16112, Note_off_c, 3, 60, 0
6, 16128, Note_on_c, 3, 63, 76
6, 16128, Note_on_c, 3, 70, 90
6, 16508, Note_off_c, 3, 70, 0
6, 16508, Note_off_c, 3, 63, 0
6, 16512, Note_on_c, 3, 62, 76
6, 16512, Note_on_c, 3, 70, 90
6, 16872, Note_off_c, 3, 62, 0
6, 16876, Pitch_bend_c, 3, 8192
6, 16880, Pitch_bend_c, 3, 8328
6, 16884, Pitch_bend_c, 3, 8720
6, 16888, Pitch_bend_c, 3, 9307
6, 16892, Pitch_bend_c, 3, 10000
6, 16896, Note_off_c, 3, 70, 0
6, 16896, Pitch_bend_c, 3, 8192
6, 16896, Note_on_c, 3, 67, 76
6, 16896, Note_on_c, 3, 75, 90
6, 17272, Note_off_c, 3, 75, 0
6, 17272, Note_off_c, 3, 67, 0
6, 17280, Note_on_c, 3, 67, 76
6, 17280, Note_on_c, 3, 75, 90
6, 17656, Note_off_c, 3, 75, 0
6, 17656, Note_off_c, 3, 67, 0
6, 17664, Note_on_c, 3, 65, 76
6, 17664, Note_on_c, 3, 72, 90
6, 18416, Note_off_c, 3, 72, 0
6, 18416, Note_off_c, 3, 65, 0
6, 18432, Note_on_c, 3, 65, 81
6, 18432, Note_on_c, 3, 72, 94
6, 18612, Note_off_c, 3, 72, 0
6, 18612, Note_off_c, 3, 65, 0
6, 18624, Note_on_c, 3, 65, 81
6, 18624, Note_on_c, 3, 71, 94
6, 18804, Note_off_c, 3, 71, 0
6, 18804, Note_off_c, 3, 65, 0
6, 18816, Note_on_c, 3, 65, 81
6, 18816, Note_on_c, 3, 72, 94
6, 18996, Note_off_c, 3, 72, 0
6, 18996, Note_off_c, 3, 65, 0
6, 19008, Note_on_c, 3, 67, 81
6, 19008, Note_on_c, 3, 74, 94
6, 19188, Note_off_c, 3, 74, 0
6, 19188, Note_off_c, 3, 67, 0
6, 19200, Control_c, 3, 11, 70
6, 19200, Note_on_c, 3, 60, 71
6, 19252, Note_off_c, 3, 60, 0
6, 19296, Note_on_c, 3, 63, 71
6, 19296, Note_on_c, 3, 67, 85
6, 19376, Note_off_c, 3, 67, 0
6, 19376, Note_off_c, 3, 63, 0
6, 19392, Note_on_c, 3, 63, 76
6, 19392, Note_on_c, 3, 67, 90
6, 19476, Note_off_c, 3, 67, 0
6, 19476, Note_off_c, 3, 63, 0
6, 19488, Note_on_c, 3, 60, 71
6, 19508, Note_off_c, 3, 60, 0
6, 19536, Note_on_c, 3, 63, 76
6, 19536, Note_on_c, 3, 67, 90
6, 19564, Note_off_c, 3, 67, 0
6, 19564, Note_off_c, 3, 63, 0
6, 19584, Note_on_c, 3, 60, 71
6, 19636, Note_off_c, 3, 60, 0
6, 19680, Note_on_c, 3, 63, 71
6, 19680, Note_on_c, 3, 67, 85
6, 19760, Note_off_c, 3, 67, 0
6, 19760, Note_off_c, 3, 63, 0
6, 19776, Note_on_c, 3, 63, 76
6, 19776, Note_on_c, 3, 67, 90
6, 19860, Note_off_c, 3, 67, 0
6, 19860, Note_off_c, 3, 63, 0
6, 19872, Note_on_c, 3, 60, 71
6, 19892, Note_off_c, 3, 60, 0
6, 19920, Note_on_c, 3, 63, 76
6, 19920, Note_on_c, 3, 67, 90
6, 19948, Note_off_c, 3, 67, 0
6, 19948, Note_off_c, 3, 63, 0
6, 19968, Note_on_c, 3, 62, 85
6, 19968, Note_on_c, 3, 65, 99
6, 20000, Note_off_c, 3, 65, 0
6, 20000, Note_off_c, 3, 62, 0
6, 20016, Note_on_c, 3, 58, 81
6, 20040, Note_off_c, 3, 58, 0
6, 20112, Note_on_c, 3, 58, 81
6, 20136, Note_off_c, 3, 58, 0
6, 20208, Note_on_c, 3, 58, 78
6, 20232, Note_off_c, 3, 58, 0
6, 20256, Note_on_c, 3, 62, 85
6, 20256, Note_on_c, 3, 65, 99
6, 20284, Note_off_c, 3, 65, 0
6, 20284, Note_off_c, 3, 62, 0
6, 20304, Note_on_c, 3, 58, 85
6, 20320, Note_off_c, 3, 58, 0
6, 20352, Note_on_c, 3, 60, 62
6, 20352, Note_on_c, 3, 63, 77
6, 20444, Note_off_c, 3, 63, 0
6, 20444, Note_off_c, 3, 60, 0
6, 20448, Note_on_c, 3, 60, 66
6, 20448, Note_on_c, 3, 63, 81
6, 20540, Note_off_c, 3, 63, 0
6, 20540, Note_off_c, 3, 60, 0
6, 20544, Note_on_c, 3, 63, 81
6, 20544, Note_on_c, 3, 67, 96
6, 20636, Note_off_c, 3, 67, 0
6, 20636, Note_off_c, 3, 63, 0
6, 20640, Note_on_c, 3, 62, 99
6, 20672, Note_off_c, 3, 62, 0
6, 20688, Note_on_c, 3, 62, 78
6, 20720, Note_off_c, 3, 62, 0
6, 20736, Note_on_c, 3, 60, 81
6, 20736, Note_on_c, 3, 63, 96
6, 20804, Note_off_c, 3, 63, 0
6, 20804, Note_off_c, 3, 60, 0
6, 20832, Note_on_c, 3, 56, 78
6, 20852, Note_off_c, 3, 56, 0
6, 20880, Note_on_c, 3, 60, 58
6, 20880, Note_on_c, 3, 63, 71
6, 20924, Note_off_c, 3, 63, 0
6, 20924, Note_off_c, 3, 60, 0
6, 20976, Note_on_c, 3, 56, 78
6, 20996, Note_off_c, 3, 56, 0
6, 21024, Note_on_c, 3, 60, 60
6, 21024, Note_on_c, 3, 63, 76
6, 21092, Note_off_c, 3, 63, 0
6, 21092, Note_off_c, 3, 60, 0
6, 21120, Note_on_c, 3, 62, 81
6, 21120, Note_on_c, 3, 65, 96
6, 21188, Note_off_c, 3, 65, 0
6, 21188, Note_off_c, 3, 62, 0
6, 21216, Note_on_c, 3, 58, 78
6, 21240, Note_off_c, 3, 58, 0
6, 21264, Note_on_c, 3, 58, 81
6, 21264, Note_on_c, 3, 62, 96
6, 21332, Note_off_c, 3, 62, 0
6, 21332, Note_off_c, 3, 58, 0
6, 21360, Note_on_c, 3, 53, 78
6, 21384, Note_off_c, 3, 53, 0
6, 21408, Note_on_c, 3, 60, 94
6, 21452, Note_off_c, 3, 60, 0
6, 21456, Note_on_c, 3, 60, 78
6, 21488, Note_off_c, 3, 60, 0
6, 21504, Note_on_c, 3, 61, 81
6, 21504, Note_on_c, 3, 65, 96
6, 21572, Note_off_c, 3, 65, 0
6, 21572, Note_off_c, 3, 61, 0
6, 21600, Note_on_c, 3, 58, 78
6, 21636, Note_off_c, 3, 58, 0
6, 21648, Note_on_c, 3, 63, 81
6, 21648, Note_on_c, 3, 67, 96
6, 21740, Note_off_c, 3, 67, 0
6, 21740, Note_off_c, 3, 63, 0
6, 21744, Note_on_c, 3, 58, 78
6, 21772, Note_off_c, 3, 58, 0
6, 21792, Note_on_c, 3, 61, 68
6, 21792, Note_on_c, 3, 65, 85
6, 21836, Note_off_c, 3, 65, 0
6, 21836, Note_off_c, 3, 61, 0
6, 21888, Note_on_c, 3, 63, 81
6, 21888, Note_on_c, 3, 67, 96
6, 22020, Note_off_c, 3, 67, 0
6, 22020, Note_off_c, 3, 63, 0
6, 22032, Note_on_c, 3, 63, 78
6, 22032, Note_on_c, 3, 67, 92
6, 22164, Note_off_c, 3, 67, 0
6, 22164, Note_off_c, 3, 63, 0
6, 22176, Note_on_c, 3, 63, 85
6, 22176, Note_on_c, 3, 67, 99
6, 22220, Note_off_c, 3, 67, 0
6, 22220, Note_off_c, 3, 63, 0
6, 22272, Note_on_c, 3, 60, 71
6, 22324, Note_off_c, 3, 60, 0
6, 22368, Note_on_c, 3, 63, 71
6, 22368, Note_on_c, 3, 67, 85
6, 22448, Note_off_c, 3, 67, 0
6, 22448, Note_off_c, 3, 63, 0
6, 22464, Note_on_c, 3, 63, 76
6, 22464, Note_on_c, 3, 67, 90
6, 22548, Note_off_c, 3, 67, 0
6, 22548, Note_off_c, 3, 63, 0
6, 22560, Note_on_c, 3, 60, 71
6, 22580, Note_off_c, 3, 60, 0
6, 22608, Note_on_c, 3, 63, 76
6, 22608, Note_on_c, 3, 67, 90
6, 22636, Note_off_c, 3, 67, 0
6, 22636, Note_off_c, 3, 63, 0
6, 22656, Note_on_c, 3, 60, 71
6, 22708, Note_off_c, 3, 60, 0
6, 22752, Note_on_c, 3, 63, 71
6, 22752, Note_on_c, 3, 67, 85
6, 22832, Note_off_c, 3, 67, 0
6, 22832, Note_off_c, 3, 63, 0
6, 22848, Note_on_c, 3, 63, 76
6, 22848, Note_on_c, 3, 67, 90
6, 22932, Note_off_c, 3, 67, 0
6, 22932, Note_off_c, 3, 63, 0
6, 22944, Note_on_c, 3, 60, 71
6, 22964, Note_off_c, 3, 60, 0
6, 22992, Note_on_c, 3, 63, 76
6, 22992, Note_on_c, 3, 67, 90
6, 23020, Note_off_c, 3, 67, 0
6, 23020, Note_off_c, 3, 63, 0
6, 23040, Note_on_c, 3, 62, 85
6, 23040, Note_on_c, 3, 65, 99
6, 23072, Note_off_c, 3, 65, 0
6, 23072, Note_off_c, 3, 62, 0
6, 23088, Note_on_c, 3, 58, 81
6, 23112, Note_off_c, 3, 58, 0
6, 23184, Note_on_c, 3, 58, 81
6, 23208, Note_off_c, 3, 58, 0
6, 23280, Note_on_c, 3, 58, 78
6, 23304, Note_off_c, 3, 58, 0
6, 23328, Note_on_c, 3, 62, 85
6, 23328, Note_on_c, 3, 65, 99
6, 23356, Note_off_c, 3, 65, 0
6, 23356, Note_off_c, 3, 62, 0
6, 23376, Note_on_c, 3, 58, 85
6, 23392, Note_off_c, 3, 58, 0
6, 23424, Note_on_c, 3, 60, 62
6, 23424, Note_on_c, 3, 63, 77
6, 23516, Note_off_c, 3, 63, 0
6, 23516, Note_off_c, 3, 60, 0
6, 23520, Note_on_c, 3, 60, 66
6, 23520, Note_on_c, 3, 63, 81
6, 23612, Note_off_c, 3, 63, 0
6, 23612, Note_off_c, 3, 60, 0
6, 23616, Note_on_c, 3, 63, 81
6, 23616, Note_on_c, 3, 67, 96
6, 23708, Note_off_c, 3, 67, 0
6, 23708, Note_off_c, 3, 63, 0
6, 23712, Note_on_c, 3, 62, 99
6, 23744, Note_off_c, 3, 62, 0
6, 23760, Note_on_c, 3, 62, 78
6, 23792, Note_off_c, 3, 62, 0
6, 23808, Note_on_c, 3, 62, 81
6, 23808, Note_on_c, 3, 67, 96
6, 23876, Note_off_c, 3, 67, 0
6, 23876, Note_off_c, 3, 62, 0
6, 23904, Note_on_c, 3, 56, 78
6, 23924, Note_off_c, 3, 56, 0
6, 23952, Note_on_c, 3, 65, 58
6, 23952, Note_on_c, 3, 68, 71
6, 23996, Note_off_c, 3, 68, 0
6, 23996, Note_off_c, 3, 65, 0
6, 24048, Note_on_c, 3, 62, 78
6, 24068, Note_off_c, 3, 62, 0
6, 24096, Note_on_c, 3, 62, 60
6, 24096, Note_on_c, 3, 67, 76
6, 24164, Note_off_c, 3, 67, 0
6, 24164, Note_off_c, 3, 62, 0
6, 24192, Note_on_c, 3, 62, 81
6, 24192, Note_on_c, 3, 65, 96
6, 24260, Note_off_c, 3, 65, 0
6, 24260, Note_off_c, 3, 62, 0
6, 24288, Note_on_c, 3, 56, 78
6, 24312, Note_off_c, 3, 56, 0
6, 24336, Note_on_c, 3, 56, 81
6, 24336, Note_on_c, 3, 62, 96
6, 24404, Note_off_c, 3, 62, 0
6, 24404, Note_off_c, 3, 56, 0
6, 24432, Note_on_c, 3, 53, 78
6, 24456, Note_off_c, 3, 53, 0
6, 24480, Note_on_c, 3, 62, 94
6, 24524, Note_off_c, 3, 62, 0
6, 24528, Note_on_c, 3, 62, 78
6, 24560, Note_off_c, 3, 62, 0
6, 24576, Note_on_c, 3, 59, 81
6, 24576, Note_on_c, 3, 62, 96
6, 24956, Note_off_c, 3, 62, 0
6, 24956, Note_off_c, 3, 59, 0
6, 25344, Control_c, 3, 11, 80
6, 25344, Note_on_c, 3, 60, 78
6, 25364, Note_off_c, 3, 60, 0
6, 25392, Note_on_c, 3, 63, 85
6, 25392, Note_on_c, 3, 67, 92
6, 25424, Note_off_c, 3, 67, 0
6, 25424, Note_off_c, 3, 63, 0
6, 25440, Note_on_c, 3, 60, 78
6, 25460, Note_off_c, 3, 60, 0
6, 25488, Note_on_c, 3, 63, 78
6, 25488, Note_on_c, 3, 67, 87
6, 25520, Note_off_c, 3, 67, 0
6, 25520, Note_off_c, 3, 63, 0
6, 25536, Note_on_c, 3, 63, 85
6, 25536, Note_on_c, 3, 67, 92
6, 25624, Note_off_c, 3, 67, 0
6, 25624, Note_off_c, 3, 63, 0
6, 25632, Note_on_c, 3, 63, 76
6, 25632, Note_on_c, 3, 67, 85
6, 25676, Note_off_c, 3, 67, 0
6, 25676, Note_off_c, 3, 63, 0
6, 25680, Note_on_c, 3, 63, 71
6, 25680, Note_on_c, 3, 67, 78
6, 25724, Note_off_c, 3, 67, 0
6, 25724, Note_off_c, 3, 63, 0
6, 25728, Note_on_c, 3, 60, 78
6, 25744, Note_off_c, 3, 60, 0
6, 25776, Note_on_c, 3, 65, 77
6, 25776, Note_on_c, 3, 68, 87
6, 25804, Note_off_c, 3, 68, 0
6, 25804, Note_off_c, 3, 65, 0
6, 25824, Note_on_c, 3, 60, 78
6, 25840, Note_off_c, 3, 60, 0
6, 25872, Note_on_c, 3, 65, 77
6, 25872, Note_on_c, 3, 68, 87
6, 25900, Note_off_c, 3, 68, 0
6, 25900, Note_off_c, 3, 65, 0
6, 25920, Note_on_c, 3, 65, 81
6, 25920, Note_on_c, 3, 68, 90
6, 26008, Note_off_c, 3, 68, 0
6, 26008, Note_off_c, 3, 65, 0
6, 26016, Note_on_c, 3, 60, 78
6, 26032, Note_off_c, 3, 60, 0
6, 26064, Note_on_c, 3, 65, 77
6, 26064, Note_on_c, 3, 68, 87
6, 26092, Note_off_c, 3, 68, 0
6, 26092, Note_off_c, 3, 65, 0
6, 26112, Note_on_c, 3, 62, 92
6, 26128, Note_off_c, 3, 62, 0
6, 26160, Note_on_c, 3, 65, 71
6, 26160, Note_on_c, 3, 70, 85
6, 26192, Note_off_c, 3, 70, 0
6, 26200, Note_off_c, 3, 65, 0
6, 26208, Note_on_c, 3, 62, 92
6, 26244, Note_off_c, 3, 62, 0
6, 26256, Note_on_c, 3, 65, 71
6, 26256, Note_on_c, 3, 70, 87
6, 26288, Note_off_c, 3, 70, 0
6, 26296, Note_off_c, 3, 65, 0
6, 26304, Note_on_c, 3, 65, 87
6, 26304, Note_on_c, 3, 70, 101
6, 26388, Note_off_c, 3, 70, 0
6, 26396, Note_off_c, 3, 65, 0
6, 26400, Note_on_c, 3, 65, 77
6, 26400, Note_on_c, 3, 70, 90
6, 26440, Note_off_c, 3, 70, 0
6, 26448, Note_off_c, 3, 65, 0
6, 26448, Note_on_c, 3, 65, 77
6, 26448, Note_on_c, 3, 70, 90
6, 26488, Note_off_c, 3, 70, 0
6, 26496, Note_off_c, 3, 65, 0
6, 26496, Note_on_c, 3, 67, 77
6, 26496, Note_on_c, 3, 70, 90
6, 26536, Note_off_c, 3, 70, 0
6, 26544, Note_off_c, 3, 67, 0
6, 26544, Note_on_c, 3, 67, 77
6, 26544, Note_on_c, 3, 70, 90
6, 26568, Note_off_c, 3, 70, 0
6, 26576, Note_off_c, 3, 67, 0
6, 26592, Note_on_c, 3, 67, 77
6, 26592, Note_on_c, 3, 70, 90
6, 26632, Note_off_c, 3, 70, 0
6, 26640, Note_off_c, 3, 67, 0
6, 26640, Note_on_c, 3, 67, 77
6, 26640, Note_on_c, 3, 70, 90
6, 26664, Note_off_c, 3, 70, 0
6, 26672, Note_off_c, 3, 67, 0
6, 26688, Note_on_c, 3, 67, 77
6, 26688, Note_on_c, 3, 70, 90
6, 26728, Note_off_c, 3, 70, 0
6, 26736, Note_off_c, 3, 67, 0
6, 26736, Note_on_c, 3, 67, 77
6, 26736, Note_on_c, 3, 70, 90
6, 26776, Note_off_c, 3, 70, 0
6, 26784, Note_off_c, 3, 67, 0
6, 26784, Note_on_c, 3, 67, 85
6, 26784, Note_on_c, 3, 70, 99
6, 26868, Note_off_c, 3, 70, 0
6, 26876, Note_off_c, 3, 67, 0
6, 26880, Note_on_c, 3, 60, 78
6, 26900, Note_off_c, 3, 60, 0
6, 26928, Note_on_c, 3, 67, 85
6, 26928, Note_on_c, 3, 72, 92
6, 26960, Note_off_c, 3, 72, 0
6, 26960, Note_off_c, 3, 67, 0
6, 26976, Note_on_c, 3, 60, 78
6, 26996, Note_off_c, 3, 60, 0
6, 27024, Note_on_c, 3, 67, 78
6, 27024, Note_on_c, 3, 72, 87
6, 27056, Note_off_c, 3, 72, 0
6, 27056, Note_off_c, 3, 67, 0
6, 27072, Note_on_c, 3, 67, 85
6, 27072, Note_on_c, 3, 72, 92
6, 27160, Note_off_c, 3, 72, 0
6, 27160, Note_off_c, 3, 67, 0
6, 27168, Note_on_c, 3, 67, 76
6, 27168, Note_on_c, 3, 72, 85
6, 27212, Note_off_c, 3, 72, 0
6, 27212, Note_off_c, 3, 67, 0
6, 27216, Note_on_c, 3, 67, 71
6, 27216, Note_on_c, 3, 72, 78
6, 27260, Note_off_c, 3, 72, 0
6, 27260, Note_off_c, 3, 67, 0
6, 27264, Note_on_c, 3, 60, 78
6, 27280, Note_off_c, 3, 60, 0
6, 27312, Note_on_c, 3, 68, 77
6, 27312, Note_on_c, 3, 72, 87
6, 27340, Note_off_c, 3, 72, 0
6, 27340, Note_off_c, 3, 68, 0
6, 27360, Note_on_c, 3, 60, 78
6, 27376, Note_off_c, 3, 60, 0
6, 27408, Note_on_c, 3, 68, 77
6, 27408, Note_on_c, 3, 72, 87
6, 27436, Note_off_c, 3, 72, 0
6, 27436, Note_off_c, 3, 68, 0
6, 27456, Note_on_c, 3, 68, 81
6, 27456, Note_on_c, 3, 72, 90
6, 27544, Note_off_c, 3, 72, 0
6, 27544, Note_off_c, 3, 68, 0
6, 27552, Note_on_c, 3, 60, 78
6, 27568, Note_off_c, 3, 60, 0
6, 27600, Note_on_c, 3, 68, 77
6, 27600, Note_on_c, 3, 72, 87
6, 27628, Note_off_c, 3, 72, 0
6, 27628, Note_off_c, 3, 68, 0
6, 27648, Note_on_c, 3, 62, 92
6, 27664, Note_off_c, 3, 62, 0
6, 27696, Note_on_c, 3, 65, 71
6, 27696, Note_on_c, 3, 70, 85
6, 27728, Note_off_c, 3, 70, 0
6, 27736, Note_off_c, 3, 65, 0
6, 27744, Note_on_c, 3, 62, 92
6, 27780, Note_off_c, 3, 62, 0
6, 27792, Note_on_c, 3, 65, 71
6, 27792, Note_on_c, 3, 70, 87
6, 27824, Note_off_c, 3, 70, 0
6, 27832, Note_off_c, 3, 65, 0
6, 27840, Note_on_c, 3, 65, 87
6, 27840, Note_on_c, 3, 70, 101
6, 27924, Note_off_c, 3, 70, 0
6, 27932, Note_off_c, 3, 65, 0
6, 27936, Note_on_c, 3, 65, 77
6, 27936, Note_on_c, 3, 70, 90
6, 27976, Note_off_c, 3, 70, 0
6, 27984, Note_off_c, 3, 65, 0
6, 27984, Note_on_c, 3, 65, 77
6, 27984, Note_on_c, 3, 70, 90
6, 28024, Note_off_c, 3, 70, 0
6, 28032, Note_off_c, 3, 65, 0
6, 28032, Note_on_c, 3, 67, 77
6, 28032, Note_on_c, 3, 70, 90
6, 28072, Note_off_c, 3, 70, 0
6, 28080, Note_off_c, 3, 67, 0
6, 28080, Note_on_c, 3, 67, 77
6, 28080, Note_on_c, 3, 70, 90
6, 28104, Note_off_c, 3, 70, 0
6, 28112, Note_off_c, 3, 67, 0
6, 28128, Note_on_c, 3, 67, 77
6, 28128, Note_on_c, 3, 70, 90
6, 28168, Note_off_c, 3, 70, 0
6, 28176, Note_off_c, 3, 67, 0
6, 28176, Note_on_c, 3, 67, 77
6, 28176, Note_on_c, 3, 70, 90
6, 28200, Note_off_c, 3, 70, 0
6, 28208, Note_off_c, 3, 67, 0
6, 28224, Note_on_c, 3, 67, 77
6, 28224, Note_on_c, 3, 70, 90
6, 28264, Note_off_c, 3, 70, 0
6, 28272, Note_off_c, 3, 67, 0
6, 28272, Note_on_c, 3, 67, 77
6, 28272, Note_on_c, 3, 70, 90
6, 28312, Note_off_c, 3, 70, 0
6, 28320, Note_off_c, 3, 67, 0
6, 28320, Note_on_c, 3, 67, 85
6, 28320, Note_on_c, 3, 70, 99
6, 28404, Note_off_c, 3, 70, 0
6, 28412, Note_off_c, 3, 67, 0
6, 28416, Note_on_c, 3, 60, 78
6, 28436, Note_off_c, 3, 60, 0
6, 28464, Note_on_c, 3, 63, 85
6, 28464, Note_on_c, 3, 67, 92
6, 28496, Note_off_c, 3, 67, 0
6, 28496, Note_off_c, 3, 63, 0
6, 28512, Note_on_c, 3, 60, 78
6, 28532, Note_off_c, 3, 60, 0
6, 28560, Note_on_c, 3, 63, 78
6, 28560, Note_on_c, 3, 67, 87
6, 28592, Note_off_c, 3, 67, 0
6, 28592, Note_off_c, 3, 63, 0
6, 28608, Note_on_c, 3, 63, 85
6, 28608, Note_on_c, 3, 67, 92
6, 28696, Note_off_c, 3, 67, 0
6, 28696, Note_off_c, 3, 63, 0
6, 28704, Note_on_c, 3, 63, 76
6, 28704, Note_on_c, 3, 67, 85
6, 28748, Note_off_c, 3, 67, 0
6, 28748, Note_off_c, 3, 63, 0
6, 28752, Note_on_c, 3, 63, 71
6, 28752, Note_on_c, 3, 67, 78
6, 28796, Note_off_c, 3, 67, 0
6, 28796, Note_off_c, 3, 63, 0
6, 28800, Note_on_c, 3, 60, 78
6, 28816, Note_off_c, 3, 60, 0
6, 28848, Note_on_c, 3, 65, 77
6, 28848, Note_on_c, 3, 68, 87
6, 28876, Note_off_c, 3, 68, 0
6, 28876, Note_off_c, 3, 65, 0
6, 28896, Note_on_c, 3, 60, 78
6, 28912, Note_off_c, 3, 60, 0
6, 28944, Note_on_c, 3, 65, 77
6, 28944, Note_on_c, 3, 68, 87
6, 28972, Note_off_c, 3, 68, 0
6, 28972, Note_off_c, 3, 65, 0
6, 28992, Note_on_c, 3, 65, 81
6, 28992, Note_on_c, 3, 68, 90
6, 29080, Note_off_c, 3, 68, 0
6, 29080, Note_off_c, 3, 65, 0
6, 29088, Note_on_c, 3, 60, 78
6, 29104, Note_off_c, 3, 60, 0
6, 29136, Note_on_c, 3, 65, 77
6, 29136, Note_on_c, 3, 68, 87
6, 29164, Note_off_c, 3, 68, 0
6, 29164, Note_off_c, 3, 65, 0
6, 29184, Note_on_c, 3, 62, 92
6, 29200, Note_off_c, 3, 62, 0
6, 29232, Note_on_c, 3, 65, 71
6, 29232, Note_on_c, 3, 70, 85
6, 29264, Note_off_c, 3, 70, 0
6, 29272, Note_off_c, 3, 65, 0
6, 29280, Note_on_c, 3, 62, 92
6, 29316, Note_off_c, 3, 62, 0
6, 29328, Note_on_c, 3, 65, 71
6, 29328, Note_on_c, 3, 70, 87
6, 29360, Note_off_c, 3, 70, 0
6, 29368, Note_off_c, 3, 65, 0
6, 29376, Note_on_c, 3, 65, 87
6, 29376, Note_on_c, 3, 70, 101
6, 29460, Note_off_c, 3, 70, 0
6, 29468, Note_off_c, 3, 65, 0
6, 29472, Note_on_c, 3, 65, 77
6, 29472, Note_on_c, 3, 70, 90
6, 29512, Note_off_c, 3, 70, 0
6, 29520, Note_off_c, 3, 65, 0
6, 29520, Note_on_c, 3, 65, 77
6, 29520, Note_on_c, 3, 70, 90
6, 29560, Note_off_c, 3, 70, 0
6, 29568, Note_off_c, 3, 65, 0
6, 29568, Note_on_c, 3, 67, 77
6, 29568, Note_on_c, 3, 70, 90
6, 29608, Note_off_c, 3, 70, 0
6, 29616, Note_off_c, 3, 67, 0
6, 29616, Note_on_c, 3, 67, 77
6, 29616, Note_on_c, 3, 70, 90
6, 29640, Note_off_c, 3, 70, 0
6, 29648, Note_off_c, 3, 67, 0
6, 29664, Note_on_c, 3, 67, 77
6, 29664, Note_on_c, 3, 70, 90
6, 29704, Note_off_c, 3, 70, 0
6, 29712, Note_off_c, 3, 67, 0
6, 29712, Note_on_c, 3, 67, 77
6, 29712, Note_on_c, 3, 70, 90
6, 29736, Note_off_c, 3, 70, 0
6, 29744, Note_off_c, 3, 67, 0
6, 29760, Note_on_c, 3, 67, 77
6, 29760, Note_on_c, 3, 70, 90
6, 29800, Note_off_c, 3, 70, 0
6, 29808, Note_off_c, 3, 67, 0
6, 29808, Note_on_c, 3, 67, 77
6, 29808, Note_on_c, 3, 70, 90
6, 29848, Note_off_c, 3, 70, 0
6, 29856, Note_off_c, 3, 67, 0
6, 29856, Note_on_c, 3, 67, 85
6, 29856, Note_on_c, 3, 70, 99
6, 29940, Note_off_c, 3, 70, 0
6, 29948, Note_off_c, 3, 67, 0
6, 29952, Note_on_c, 3, 60, 78
6, 29972, Note_off_c, 3, 60, 0
6, 30000, Note_on_c, 3, 67, 85
6, 30000, Note_on_c, 3, 72, 92
6, 30032, Note_off_c, 3, 72, 0
6, 30032, Note_off_c, 3, 67, 0
6, 30048, Note_on_c, 3, 60, 78
6, 30068, Note_off_c, 3, 60, 0
6, 30096, Note_on_c, 3, 67, 78
6, 30096, Note_on_c, 3, 72, 87
6, 30128, Note_off_c, 3, 72, 0
6, 30128, Note_off_c, 3, 67, 0
6, 30144, Note_on_c, 3, 67, 85
6, 30144, Note_on_c, 3, 72, 92
6, 30232, Note_off_c, 3, 72, 0
6, 30232, Note_off_c, 3, 67, 0
6, 30240, Note_on_c, 3, 67, 76
6, 30240, Note_on_c, 3, 72, 85
6, 30284, Note_off_c, 3, 72, 0
6, 30284, Note_off_c, 3, 67, 0
6, 30288, Note_on_c, 3, 67, 71
6, 30288, Note_on_c, 3, 72, 78
6, 30332, Note_off_c, 3, 72, 0
6, 30332, Note_off_c, 3, 67, 0
6, 30336, Note_on_c, 3, 60, 78
6, 30352, Note_off_c, 3, 60, 0
6, 30384, Note_on_c, 3, 68, 77
6, 30384, Note_on_c, 3, 72, 87
6, 30412, Note_off_c, 3, 72, 0
6, 30412, Note_off_c, 3, 68, 0
6, 30432, Note_on_c, 3, 60, 78
6, 30448, Note_off_c, 3, 60, 0
6, 30480, Note_on_c, 3, 68, 77
6, 30480, Note_on_c, 3, 72, 87
6, 30508, Note_off_c, 3, 72, 0
6, 30508, Note_off_c, 3, 68, 0
6, 30528, Note_on_c, 3, 68, 81
6, 30528, Note_on_c, 3, 72, 90
6, 30616, Note_off_c, 3, 72, 0
6, 30616, Note_off_c, 3, 68, 0
6, 30624, Note_on_c, 3, 60, 78
6, 30640, Note_off_c, 3, 60, 0
6, 30672, Note_on_c, 3, 68, 77
6, 30672, Note_on_c, 3, 72, 87
6, 30700, Note_off_c, 3, 72, 0
6, 30700, Note_off_c, 3, 68, 0
6, 30720, Note_on_c, 3, 65, 87
6, 30720, Note_on_c, 3, 70, 101
6, 30812, Note_off_c, 3, 70, 0
6, 30812, Note_off_c, 3, 65, 0
6, 30816, Note_on_c, 3, 65, 85
6, 30816, Note_on_c, 3, 70, 96
6, 30908, Note_off_c, 3, 70, 0
6, 30908, Note_off_c, 3, 65, 0
6, 30912, Note_on_c, 3, 65, 85
6, 30912, Note_on_c, 3, 70, 99
6, 31004, Note_off_c, 3, 70, 0
6, 31004, Note_off_c, 3, 65, 0
6, 31008, Note_on_c, 3, 65, 81
6, 31008, Note_on_c, 3, 70, 94
6, 31100, Note_off_c, 3, 70, 0
6, 31100, Note_off_c, 3, 65, 0
6, 31104, Note_on_c, 3, 63, 77
6, 31104, Note_on_c, 3, 67, 92
6, 31236, Note_off_c, 3, 67, 0
6, 31244, Note_off_c, 3, 63, 0
6, 31248, Note_on_c, 3, 63, 87
6, 31248, Note_on_c, 3, 67, 101
6, 31440, Note_off_c, 3, 67, 0
6, 31440, Note_off_c, 3, 63, 0
6, 31488, Note_on_c, 3, 60, 78
6, 31508, Note_off_c, 3, 60, 0
6, 31536, Note_on_c, 3, 63, 85
6, 31536, Note_on_c, 3, 67, 92
6, 31568, Note_off_c, 3, 67, 0
6, 31568, Note_off_c, 3, 63, 0
6, 31584, Note_on_c, 3, 60, 78
6, 31604, Note_off_c, 3, 60, 0
6, 31632, Note_on_c, 3, 63, 78
6, 31632, Note_on_c, 3, 67, 87
6, 31664, Note_off_c, 3, 67, 0
6, 31664, Note_off_c, 3, 63, 0
6, 31680, Note_on_c, 3, 63, 85
6, 31680, Note_on_c, 3, 67, 92
6, 31768, Note_off_c, 3, 67, 0
6, 31768, Note_off_c, 3, 63, 0
6, 31776, Note_on_c, 3, 63, 76
6, 31776, Note_on_c, 3, 67, 85
6, 31820, Note_off_c, 3, 67, 0
6, 31820, Note_off_c, 3, 63, 0
6, 31824, Note_on_c, 3, 63, 71
6, 31824, Note_on_c, 3, 67, 78
6, 31868, Note_off_c, 3, 67, 0
6, 31868, Note_off_c, 3, 63, 0
6, 31872, Note_on_c, 3, 60, 78
6, 31888, Note_off_c, 3, 60, 0
6, 31920, Note_on_c, 3, 65, 77
6, 31920, Note_on_c, 3, 68, 87
6, 31948, Note_off_c, 3, 68, 0
6, 31948, Note_off_c, 3, 65, 0
6, 31968, Note_on_c, 3, 60, 78
6, 31984, Note_off_c, 3, 60, 0
6, 32016, Note_on_c, 3, 65, 77
6, 32016, Note_on_c, 3, 68, 87
6, 32044, Note_off_c, 3, 68, 0
6, 32044, Note_off_c, 3, 65, 0
6, 32064, Note_on_c, 3, 65, 81
6, 32064, Note_on_c, 3, 68, 90
6, 32152, Note_off_c, 3, 68, 0
6, 32152, Note_off_c, 3, 65, 0
6, 32160, Note_on_c, 3, 60, 78
6, 32176, Note_off_c, 3, 60, 0
6, 32208, Note_on_c, 3, 65, 77
6, 32208, Note_on_c, 3, 68, 87
6, 32236, Note_off_c, 3, 68, 0
6, 32236, Note_off_c, 3, 65, 0
6, 32256, Note_on_c, 3, 62, 92
6, 32272, Note_off_c, 3, 62, 0
6, 32304, Note_on_c, 3, 65, 71
6, 32304, Note_on_c, 3, 70, 85
6, 32336, Note_off_c, 3, 70, 0
6, 32344, Note_off_c, 3, 65, 0
6, 32352, Note_on_c, 3, 62, 92
6, 32388, Note_off_c, 3, 62, 0
6, 32400, Note_on_c, 3, 65, 71
6, 32400, Note_on_c, 3, 70, 87
6, 32432, Note_off_c, 3, 70, 0
6, 32440, Note_off_c, 3, 65, 0
6, 32448, Note_on_c, 3, 65, 87
6, 32448, Note_on_c, 3, 70, 101
6, 32532, Note_off_c, 3, 70, 0
6, 32540, Note_off_c, 3, 65, 0
6, 32544, Note_on_c, 3, 65, 77
6, 32544, Note_on_c, 3, 70, 90
6, 32584, Note_off_c, 3, 70, 0
6, 32592, Note_off_c, 3, 65, 0
6, 32592, Note_on_c, 3, 65, 77
6, 32592, Note_on_c, 3, 70, 90
6, 32632, Note_off_c, 3, 70, 0
6, 32640, Note_off_c, 3, 65, 0
6, 32640, Note_on_c, 3, 67, 77
6, 32640, Note_on_c, 3, 70, 90
6, 32680, Note_off_c, 3, 70, 0
6, 32688, Note_off_c, 3, 67, 0
6, 32688, Note_on_c, 3, 67, 77
6, 32688, Note_on_c, 3, 70, 90
6, 32712, Note_off_c, 3, 70, 0
6, 32720, Note_off_c, 3, 67, 0
6, 32736, Note_on_c, 3, 67, 77
6, 32736, Note_on_c, 3, 70, 90
6, 32776, Note_off_c, 3, 70, 0
6, 32784, Note_off_c, 3, 67, 0
6, 32784, Note_on_c, 3, 67, 77
6, 32784, Note_on_c, 3, 70, 90
6, 32808, Note_off_c, 3, 70, 0
6, 32816, Note_off_c, 3, 67, 0
6, 32832, Note_on_c, 3, 67, 77
6, 32832, Note_on_c, 3, 70, 90
6, 32872, Note_off_c, 3, 70, 0
6, 32880, Note_off_c, 3, 67, 0
6, 32880, Note_on_c, 3, 67, 77
6, 32880, Note_on_c, 3, 70, 90
6, 32920, Note_off_c, 3, 70, 0
6, 32928, Note_off_c, 3, 67, 0
6, 32928, Note_on_c, 3, 67, 85
6, 32928, Note_on_c, 3, 70, 99
6, 33012, Note_off_c, 3, 70, 0
6, 33020, Note_off_c, 3, 67, 0
6, 33024, Note_on_c, 3, 60, 78
6, 33044, Note_off_c, 3, 60, 0
6, 33072, Note_on_c, 3, 63, 85
6, 33072, Note_on_c, 3, 67, 92
6, 33104, Note_off_c, 3, 67, 0
6, 33104, Note_off_c, 3, 63, 0
6, 33120, Note_on_c, 3, 60, 78
6, 33140, Note_off_c, 3, 60, 0
6, 33168, Note_on_c, 3, 63, 78
6, 33168, Note_on_c, 3, 67, 87
6, 33200, Note_off_c, 3, 67, 0
6, 33200, Note_off_c, 3, 63, 0
6, 33216, Note_on_c, 3, 63, 85
6, 33216, Note_on_c, 3, 67, 92
6, 33304, Note_off_c, 3, 67, 0
6, 33304, Note_off_c, 3, 63, 0
6, 33312, Note_on_c, 3, 63, 76
6, 33312, Note_on_c, 3, 67, 85
6, 33356, Note_off_c, 3, 67, 0
6, 33356, Note_off_c, 3, 63, 0
6, 33360, Note_on_c, 3, 63, 71
6, 33360, Note_on_c, 3, 67, 78
6, 33404, Note_off_c, 3, 67, 0
6, 33404, Note_off_c, 3, 63, 0
6, 33408, Note_on_c, 3, 60, 78
6, 33424, Note_off_c, 3, 60, 0
6, 33456, Note_on_c, 3, 65, 77
6, 33456, Note_on_c, 3, 68, 87
6, 33484, Note_off_c, 3, 68, 0
6, 33484, Note_off_c, 3, 65, 0
6, 33504, Note_on_c, 3, 60, 78
6, 33520, Note_off_c, 3, 60, 0
6, 33552, Note_on_c, 3, 65, 77
6, 33552, Note_on_c, 3, 68, 87
6, 33580, Note_off_c, 3, 68, 0
6, 33580, Note_off_c, 3, 65, 0
6, 33600, Note_on_c, 3, 65, 81
6, 33600, Note_on_c, 3, 68, 90
6, 33688, Note_off_c, 3, 68, 0
6, 33688, Note_off_c, 3, 65, 0
6, 33696, Note_on_c, 3, 60, 78
6, 33712, Note_off_c, 3, 60, 0
6, 33744, Note_on_c, 3, 65, 77
6, 33744, Note_on_c, 3, 68, 87
6, 33772, Note_off_c, 3, 68, 0
6, 33772, Note_off_c, 3, 65, 0
6, 33792, Note_on_c, 3, 65, 87
6, 33792, Note_on_c, 3, 70, 101
6, 33884, Note_off_c, 3, 70, 0
6, 33884, Note_off_c, 3, 65, 0
6, 33888, Note_on_c, 3, 65, 85
6, 33888, Note_on_c, 3, 70, 96
6, 33980, Note_off_c, 3, 70, 0
6, 33980, Note_off_c, 3, 65, 0
6, 33984, Note_on_c, 3, 65, 85
6, 33984, Note_on_c, 3, 70, 99
6, 34076, Note_off_c, 3, 70, 0
6, 34076, Note_off_c, 3, 65, 0
6, 34080, Note_on_c, 3, 65, 81
6, 34080, Note_on_c, 3, 70, 94
6, 34172, Note_off_c, 3, 70, 0
6, 34172, Note_off_c, 3, 65, 0
6, 34176, Note_on_c, 3, 63, 77
6, 34176, Note_on_c, 3, 67, 92
6, 34308, Note_off_c, 3, 67, 0
6, 34316, Note_off_c, 3, 63, 0
6, 34320, Note_on_c, 3, 63, 87
6, 34320, Note_on_c, 3, 67, 101
6, 34512, Note_off_c, 3, 67, 0
6, 34512, Note_off_c, 3, 63, 0
6, 34512, Control_c, 3, 91, 10
6, 34512, Control_c, 3, 7, 97
6, 34512, Control_c, 3, 93, 25
6, 34512, Control_c, 3, 11, 80
6, 34512, Control_c, 3, 10, 127
6, 34512, Control_c, 3, 0, 0
6, 34512, Control_c, 3, 32, 8
6, 34512, Program_c, 3, 39
6, 34560, Pitch_bend_c, 3, 8212
6, 34560, Note_on_c, 3, 24, 101
6, 34604, Note_off_c, 3, 24, 0
6, 34608, Note_on_c, 3, 34, 101
6, 34652, Note_off_c, 3, 34, 0
6, 34656, Note_on_c, 3, 36, 101
6, 34700, Note_off_c, 3, 36, 0
6, 34704, Note_on_c, 3, 31, 101
6, 34748, Note_off_c, 3, 31, 0
6, 34752, Note_on_c, 3, 22, 101
6, 34796, Note_off_c, 3, 22, 0
6, 34800, Note_on_c, 3, 24, 101
6, 34844, Note_off_c, 3, 24, 0
6, 34848, Note_on_c, 3, 27, 101
6, 34892, Note_off_c, 3, 27, 0
6, 34896, Note_on_c, 3, 31, 101
6, 34940, Note_off_c, 3, 31, 0
6, 34944, Note_on_c, 3, 24, 101
6, 34988, Note_off_c, 3, 24, 0
6, 34992, Note_on_c, 3, 34, 101
6, 35036, Note_off_c, 3, 34, 0
6, 35040, Note_on_c, 3, 36, 101
6, 35084, Note_off_c, 3, 36, 0
6, 35088, Note_on_c, 3, 31, 101
6, 35132, Note_off_c, 3, 31, 0
6, 35136, Note_on_c, 3, 22, 101
6, 35180, Note_off_c, 3, 22, 0
6, 35184, Note_on_c, 3, 24, 101
6, 35228, Note_off_c, 3, 24, 0
6, 35232, Note_on_c, 3, 27, 101
6, 35276, Note_off_c, 3, 27, 0
6, 35280, Note_on_c, 3, 31, 101
6, 35324, Note_off_c, 3, 31, 0
6, 35328, Note_on_c, 3, 24, 101
6, 35372, Note_off_c, 3, 24, 0
6, 35376, Note_on_c, 3, 34, 101
6, 35420, Note_off_c, 3, 34, 0
6, 35424, Note_on_c, 3, 36, 101
6, 35468, Note_off_c, 3, 36, 0
6, 35472, Note_on_c, 3, 31, 101
6, 35516, Note_off_c, 3, 31, 0
6, 35520, Note_on_c, 3, 22, 101
6, 35564, Note_off_c, 3, 22, 0
6, 35568, Note_on_c, 3, 24, 101
6, 35612, Note_off_c, 3, 24, 0
6, 35616, Note_on_c, 3, 27, 101
6, 35660, Note_off_c, 3, 27, 0
6, 35664, Note_on_c, 3, 31, 101
6, 35708, Note_off_c, 3, 31, 0
6, 35712, Note_on_c, 3, 24, 101
6, 35756, Note_off_c, 3, 24, 0
6, 35760, Note_on_c, 3, 34, 101
6, 35804, Note_off_c, 3, 34, 0
6, 35808, Note_on_c, 3, 36, 101
6, 35852, Note_off_c, 3, 36, 0
6, 35856, Note_on_c, 3, 31, 101
6, 35900, Note_off_c, 3, 31, 0
6, 35904, Note_on_c, 3, 22, 101
6, 35948, Note_off_c, 3, 22, 0
6, 35952, Note_on_c, 3, 24, 101
6, 35996, Note_off_c, 3, 24, 0
6, 36000, Note_on_c, 3, 27, 101
6, 36044, Note_off_c, 3, 27, 0
6, 36048, Note_on_c, 3, 31, 101
6, 36092, Note_off_c, 3, 31, 0
6, 36096, Note_on_c, 3, 20, 101
6, 36140, Note_off_c, 3, 20, 0
6, 36144, Note_on_c, 3, 31, 101
6, 36188, Note_off_c, 3, 31, 0
6, 36192, Note_on_c, 3, 32, 101
6, 36236, Note_off_c, 3, 32, 0
6, 36240, Note_on_c, 3, 27, 101
6, 36284, Note_off_c, 3, 27, 0
6, 36288, Note_on_c, 3, 24, 101
6, 36332, Note_off_c, 3, 24, 0
6, 36336, Note_on_c, 3, 27, 101
6, 36380, Note_off_c, 3, 27, 0
6, 36384, Note_on_c, 3, 31, 101
6, 36428, Note_off_c, 3, 31, 0
6, 36432, Note_on_c, 3, 32, 101
6, 36476, Note_off_c, 3, 32, 0
6, 36480, Note_on_c, 3, 20, 101
6, 36524, Note_off_c, 3, 20, 0
6, 36528, Note_on_c, 3, 31, 101
6, 36572, Note_off_c, 3, 31, 0
6, 36576, Note_on_c, 3, 32, 101
6, 36620, Note_off_c, 3, 32, 0
6, 36624, Note_on_c, 3, 27, 101
6, 36668, Note_off_c, 3, 27, 0
6, 36672, Note_on_c, 3, 24, 101
6, 36716, Note_off_c, 3, 24, 0
6, 36720, Note_on_c, 3, 27, 101
6, 36764, Note_off_c, 3, 27, 0
6, 36768, Note_on_c, 3, 31, 101
6, 36812, Note_off_c, 3, 31, 0
6, 36816, Note_on_c, 3, 32, 101
6, 36860, Note_off_c, 3, 32, 0
6, 36864, Note_on_c, 3, 22, 101
6, 36908, Note_off_c, 3, 22, 0
6, 36912, Note_on_c, 3, 32, 101
6, 36956, Note_off_c, 3, 32, 0
6, 36960, Note_on_c, 3, 34, 101
6, 37004, Note_off_c, 3, 34, 0
6, 37008, Note_on_c, 3, 29, 101
6, 37052, Note_off_c, 3, 29, 0
6, 37056, Note_on_c, 3, 26, 101
6, 37100, Note_off_c, 3, 26, 0
6, 37104, Note_on_c, 3, 29, 101
6, 37148, Note_off_c, 3, 29, 0
6, 37152, Note_on_c, 3, 32, 101
6, 37196, Note_off_c, 3, 32, 0
6, 37200, Note_on_c, 3, 34, 101
6, 37244, Note_off_c, 3, 34, 0
6, 37248, Note_on_c, 3, 22, 101
6, 37292, Note_off_c, 3, 22, 0
6, 37296, Note_on_c, 3, 32, 101
6, 37340, Note_off_c, 3, 32, 0
6, 37344, Note_on_c, 3, 34, 101
6, 37388, Note_off_c, 3, 34, 0
6, 37392, Note_on_c, 3, 29, 101
6, 37436, Note_off_c, 3, 29, 0
6, 37440, Note_on_c, 3, 26, 101
6, 37484, Note_off_c, 3, 26, 0
6, 37488, Note_on_c, 3, 29, 101
6, 37532, Note_off_c, 3, 29, 0
6, 37536, Note_on_c, 3, 32, 101
6, 37580, Note_off_c, 3, 32, 0
6, 37584, Note_on_c, 3, 34, 101
6, 37628, Note_off_c, 3, 34, 0
6, 37632, Note_on_c, 3, 24, 101
6, 37676, Note_off_c, 3, 24, 0
6, 37680, Note_on_c, 3, 34, 101
6, 37724, Note_off_c, 3, 34, 0
6, 37728, Note_on_c, 3, 36, 101
6, 37772, Note_off_c, 3, 36, 0
6, 37776, Note_on_c, 3, 31, 101
6, 37820, Note_off_c, 3, 31, 0
6, 37824, Note_on_c, 3, 22, 101
6, 37868, Note_off_c, 3, 22, 0
6, 37872, Note_on_c, 3, 24, 101
6, 37916, Note_off_c, 3, 24, 0
6, 37920, Note_on_c, 3, 27, 101
6, 37964, Note_off_c, 3, 27, 0
6, 37968, Note_on_c, 3, 31, 101
6, 38012, Note_off_c, 3, 31, 0
6, 38016, Note_on_c, 3, 24, 101
6, 38060, Note_off_c, 3, 24, 0
6, 38064, Note_on_c, 3, 34, 101
6, 38108, Note_off_c, 3, 34, 0
6, 38112, Note_on_c, 3, 36, 101
6, 38156, Note_off_c, 3, 36, 0
6, 38160, Note_on_c, 3, 31, 101
6, 38204, Note_off_c, 3, 31, 0
6, 38208, Note_on_c, 3, 22, 101
6, 38252, Note_off_c, 3, 22, 0
6, 38256, Note_on_c, 3, 24, 101
6, 38300, Note_off_c, 3, 24, 0
6, 38304, Note_on_c, 3, 27, 101
6, 38348, Note_off_c, 3, 27, 0
6, 38352, Note_on_c, 3, 31, 101
6, 38396, Note_off_c, 3, 31, 0
6, 38400, Note_on_c, 3, 24, 101
6, 38444, Note_off_c, 3, 24, 0
6, 38448, Note_on_c, 3, 34, 101
6, 38492, Note_off_c, 3, 34, 0
6, 38496, Note_on_c, 3, 36, 101
6, 38540, Note_off_c, 3, 36, 0
6, 38544, Note_on_c, 3, 31, 101
6, 38588, Note_off_c, 3, 31, 0
6, 38592, Note_on_c, 3, 22, 101
6, 38636, Note_off_c, 3, 22, 0
6, 38640, Note_on_c, 3, 24, 101
6, 38684, Note_off_c, 3, 24, 0
6, 38688, Note_on_c, 3, 27, 101
6, 38732, Note_off_c, 3, 27, 0
6, 38736, Note_on_c, 3, 31, 101
6, 38780, Note_off_c, 3, 31, 0
6, 38784, Note_on_c, 3, 24, 101
6, 38828, Note_off_c, 3, 24, 0
6, 38832, Note_on_c, 3, 34, 101
6, 38876, Note_off_c, 3, 34, 0
6, 38880, Note_on_c, 3, 36, 101
6, 38924, Note_off_c, 3, 36, 0
6, 38928, Note_on_c, 3, 31, 101
6, 38972, Note_off_c, 3, 31, 0
6, 38976, Note_on_c, 3, 22, 101
6, 39020, Note_off_c, 3, 22, 0
6, 39024, Note_on_c, 3, 24, 101
6, 39068, Note_off_c, 3, 24, 0
6, 39072, Note_on_c, 3, 27, 101
6, 39116, Note_off_c, 3, 27, 0
6, 39120, Note_on_c, 3, 31, 101
6, 39164, Note_off_c, 3, 31, 0
6, 39168, Note_on_c, 3, 20, 101
6, 39212, Note_off_c, 3, 20, 0
6, 39216, Note_on_c, 3, 31, 101
6, 39260, Note_off_c, 3, 31, 0
6, 39264, Note_on_c, 3, 32, 101
6, 39308, Note_off_c, 3, 32, 0
6, 39312, Note_on_c, 3, 27, 101
6, 39356, Note_off_c, 3, 27, 0
6, 39360, Note_on_c, 3, 24, 101
6, 39404, Note_off_c, 3, 24, 0
6, 39408, Note_on_c, 3, 27, 101
6, 39452, Note_off_c, 3, 27, 0
6, 39456, Note_on_c, 3, 31, 101
6, 39500, Note_off_c, 3, 31, 0
6, 39504, Note_on_c, 3, 32, 101
6, 39548, Note_off_c, 3, 32, 0
6, 39552, Note_on_c, 3, 20, 101
6, 39596, Note_off_c, 3, 20, 0
6, 39600, Note_on_c, 3, 31, 101
6, 39644, Note_off_c, 3, 31, 0
6, 39648, Note_on_c, 3, 32, 101
6, 39692, Note_off_c, 3, 32, 0
6, 39696, Note_on_c, 3, 27, 101
6, 39740, Note_off_c, 3, 27, 0
6, 39744, Note_on_c, 3, 24, 101
6, 39788, Note_off_c, 3, 24, 0
6, 39792, Note_on_c, 3, 27, 101
6, 39836, Note_off_c, 3, 27, 0
6, 39840, Note_on_c, 3, 31, 101
6, 39884, Note_off_c, 3, 31, 0
6, 39888, Note_on_c, 3, 32, 101
6, 39932, Note_off_c, 3, 32, 0
6, 39936, Note_on_c, 3, 22, 101
6, 39980, Note_off_c, 3, 22, 0
6, 39984, Note_on_c, 3, 32, 101
6, 40028, Note_off_c, 3, 32, 0
6, 40032, Note_on_c, 3, 34, 101
6, 40076, Note_off_c, 3, 34, 0
6, 40080, Note_on_c, 3, 29, 101
6, 40124, Note_off_c, 3, 29, 0
6, 40128, Note_on_c, 3, 26, 101
6, 40172, Note_off_c, 3, 26, 0
6, 40176, Note_on_c, 3, 29, 101
6, 40220, Note_off_c, 3, 29, 0
6, 40224, Note_on_c, 3, 32, 101
6, 40268, Note_off_c, 3, 32, 0
6, 40272, Note_on_c, 3, 34, 101
6, 40316, Note_off_c, 3, 34, 0
6, 40320, Note_on_c, 3, 22, 101
6, 40364, Note_off_c, 3, 22, 0
6, 40368, Note_on_c, 3, 32, 101
6, 40412, Note_off_c, 3, 32, 0
6, 40416, Note_on_c, 3, 34, 101
6, 40460, Note_off_c, 3, 34, 0
6, 40464, Note_on_c, 3, 29, 101
6, 40508, Note_off_c, 3, 29, 0
6, 40512, Note_on_c, 3, 26, 101
6, 40556, Note_off_c, 3, 26, 0
6, 40560, Note_on_c, 3, 29, 101
6, 40604, Note_off_c, 3, 29, 0
6, 40608, Note_on_c, 3, 32, 101
6, 40652, Note_off_c, 3, 32, 0
6, 40656, Note_on_c, 3, 34, 101
6, 40700, Note_off_c, 3, 34, 0
6, 44544, Control_c, 3, 10, 0
6, 44592, Control_c, 3, 7, 67
6, 44592, Control_c, 3, 11, 80
6, 44640, Control_c, 3, 91, 50
6, 44640, Control_c, 3, 93, 10
6, 44688, Control_c, 3, 0, 0
6, 44688, Control_c, 3, 32, 0
6, 44688, Program_c, 3, 27
6, 46848, Note_on_c, 3, 60, 78
6, 46868, Note_off_c, 3, 60, 0
6, 46896, Note_on_c, 3, 63, 85
6, 46896, Note_on_c, 3, 67, 92
6, 46928, Note_off_c, 3, 67, 0
6, 46928, Note_off_c, 3, 63, 0
6, 46944, Note_on_c, 3, 60, 78
6, 46964, Note_off_c, 3, 60, 0
6, 46992, Note_on_c, 3, 63, 78
6, 46992, Note_on_c, 3, 67, 87
6, 47024, Note_off_c, 3, 67, 0
6, 47024, Note_off_c, 3, 63, 0
6, 47040, Note_on_c, 3, 63, 85
6, 47040, Note_on_c, 3, 67, 92
6, 47128, Note_off_c, 3, 67, 0
6, 47128, Note_off_c, 3, 63, 0
6, 47136, Note_on_c, 3, 63, 76
6, 47136, Note_on_c, 3, 67, 85
6, 47180, Note_off_c, 3, 67, 0
6, 47180, Note_off_c, 3, 63, 0
6, 47184, Note_on_c, 3, 63, 71
6, 47184, Note_on_c, 3, 67, 78
6, 47228, Note_off_c, 3, 67, 0
6, 47228, Note_off_c, 3, 63, 0
6, 47232, Note_on_c, 3, 60, 78
6, 47248, Note_off_c, 3, 60, 0
6, 47280, Note_on_c, 3, 65, 77
6, 47280, Note_on_c, 3, 68, 87
6, 47308, Note_off_c, 3, 68, 0
6, 47308, Note_off_c, 3, 65, 0
6, 47328, Note_on_c, 3, 60, 78
6, 47344, Note_off_c, 3, 60, 0
6, 47376, Note_on_c, 3, 65, 77
6, 47376, Note_on_c, 3, 68, 87
6, 47404, Note_off_c, 3, 68, 0
6, 47404, Note_off_c, 3, 65, 0
6, 47424, Note_on_c, 3, 65, 81
6, 47424, Note_on_c, 3, 68, 90
6, 47512, Note_off_c, 3, 68, 0
6, 47512, Note_off_c, 3, 65, 0
6, 47520, Note_on_c, 3, 60, 78
6, 47536, Note_off_c, 3, 60, 0
6, 47568, Note_on_c, 3, 65, 77
6, 47568, Note_on_c, 3, 68, 87
6, 47596, Note_off_c, 3, 68, 0
6, 47596, Note_off_c, 3, 65, 0
6, 47616, Note_on_c, 3, 62, 92
6, 47632, Note_off_c, 3, 62, 0
6, 47664, Note_on_c, 3, 65, 71
6, 47664, Note_on_c, 3, 70, 85
6, 47696, Note_off_c, 3, 70, 0
6, 47704, Note_off_c, 3, 65, 0
6, 47712, Note_on_c, 3, 62, 92
6, 47748, Note_off_c, 3, 62, 0
6, 47760, Note_on_c, 3, 65, 71
6, 47760, Note_on_c, 3, 70, 87
6, 47792, Note_off_c, 3, 70, 0
6, 47800, Note_off_c, 3, 65, 0
6, 47808, Note_on_c, 3, 65, 87
6, 47808, Note_on_c, 3, 70, 101
6, 47892, Note_off_c, 3, 70, 0
6, 47900, Note_off_c, 3, 65, 0
6, 47904, Note_on_c, 3, 65, 77
6, 47904, Note_on_c, 3, 70, 90
6, 47944, Note_off_c, 3, 70, 0
6, 47952, Note_off_c, 3, 65, 0
6, 47952, Note_on_c, 3, 65, 77
6, 47952, Note_on_c, 3, 70, 90
6, 47992, Note_off_c, 3, 70, 0
6, 48000, Note_off_c, 3, 65, 0
6, 48000, Note_on_c, 3, 67, 77
6, 48000, Note_on_c, 3, 70, 90
6, 48040, Note_off_c, 3, 70, 0
6, 48048, Note_off_c, 3, 67, 0
6, 48048, Note_on_c, 3, 67, 77
6, 48048, Note_on_c, 3, 70, 90
6, 48072, Note_off_c, 3, 70, 0
6, 48080, Note_off_c, 3, 67, 0
6, 48096, Note_on_c, 3, 67, 77
6, 48096, Note_on_c, 3, 70, 90
6, 48136, Note_off_c, 3, 70, 0
6, 48144, Note_off_c, 3, 67, 0
6, 48144, Note_on_c, 3, 67, 77
6, 48144, Note_on_c, 3, 70, 90
6, 48168, Note_off_c, 3, 70, 0
6, 48176, Note_off_c, 3, 67, 0
6, 48192, Note_on_c, 3, 67, 77
6, 48192, Note_on_c, 3, 70, 90
6, 48232, Note_off_c, 3, 70, 0
6, 48240, Note_off_c, 3, 67, 0
6, 48240, Note_on_c, 3, 67, 77
6, 48240, Note_on_c, 3, 70, 90
6, 48280, Note_off_c, 3, 70, 0
6, 48288, Note_off_c, 3, 67, 0
6, 48288, Note_on_c, 3, 67, 85
6, 48288, Note_on_c, 3, 70, 99
6, 48372, Note_off_c, 3, 70, 0
6, 48380, Note_off_c, 3, 67, 0
6, 48384, Note_on_c, 3, 60, 78
6, 48404, Note_off_c, 3, 60, 0
6, 48432, Note_on_c, 3, 63, 85
6, 48432, Note_on_c, 3, 67, 92
6, 48464, Note_off_c, 3, 67, 0
6, 48464, Note_off_c, 3, 63, 0
6, 48480, Note_on_c, 3, 60, 78
6, 48500, Note_off_c, 3, 60, 0
6, 48528, Note_on_c, 3, 63, 78
6, 48528, Note_on_c, 3, 67, 87
6, 48560, Note_off_c, 3, 67, 0
6, 48560, Note_off_c, 3, 63, 0
6, 48576, Note_on_c, 3, 63, 85
6, 48576, Note_on_c, 3, 67, 92
6, 48664, Note_off_c, 3, 67, 0
6, 48664, Note_off_c, 3, 63, 0
6, 48672, Note_on_c, 3, 63, 76
6, 48672, Note_on_c, 3, 67, 85
6, 48716, Note_off_c, 3, 67, 0
6, 48716, Note_off_c, 3, 63, 0
6, 48720, Note_on_c, 3, 63, 71
6, 48720, Note_on_c, 3, 67, 78
6, 48764, Note_off_c, 3, 67, 0
6, 48764, Note_off_c, 3, 63, 0
6, 48768, Note_on_c, 3, 60, 78
6, 48784, Note_off_c, 3, 60, 0
6, 48816, Note_on_c, 3, 65, 77
6, 48816, Note_on_c, 3, 68, 87
6, 48844, Note_off_c, 3, 68, 0
6, 48844, Note_off_c, 3, 65, 0
6, 48864, Note_on_c, 3, 60, 78
6, 48880, Note_off_c, 3, 60, 0
6, 48912, Note_on_c, 3, 65, 77
6, 48912, Note_on_c, 3, 68, 87
6, 48940, Note_off_c, 3, 68, 0
6, 48940, Note_off_c, 3, 65, 0
6, 48960, Note_on_c, 3, 65, 81
6, 48960, Note_on_c, 3, 68, 90
6, 49048, Note_off_c, 3, 68, 0
6, 49048, Note_off_c, 3, 65, 0
6, 49056, Note_on_c, 3, 60, 78
6, 49072, Note_off_c, 3, 60, 0
6, 49104, Note_on_c, 3, 65, 77
6, 49104, Note_on_c, 3, 68, 87
6, 49132, Note_off_c, 3, 68, 0
6, 49132, Note_off_c, 3, 65, 0
6, 49152, Note_on_c, 3, 62, 92
6, 49168, Note_off_c, 3, 62, 0
6, 49200, Note_on_c, 3, 65, 71
6, 49200, Note_on_c, 3, 70, 85
6, 49232, Note_off_c, 3, 70, 0
6, 49240, Note_off_c, 3, 65, 0
6, 49248, Note_on_c, 3, 62, 92
6, 49284, Note_off_c, 3, 62, 0
6, 49296, Note_on_c, 3, 65, 71
6, 49296, Note_on_c, 3, 70, 87
6, 49328, Note_off_c, 3, 70, 0
6, 49336, Note_off_c, 3, 65, 0
6, 49344, Note_on_c, 3, 65, 87
6, 49344, Note_on_c, 3, 70, 101
6, 49428, Note_off_c, 3, 70, 0
6, 49436, Note_off_c, 3, 65, 0
6, 49440, Note_on_c, 3, 65, 77
6, 49440, Note_on_c, 3, 70, 90
6, 49480, Note_off_c, 3, 70, 0
6, 49488, Note_off_c, 3, 65, 0
6, 49488, Note_on_c, 3, 65, 77
6, 49488, Note_on_c, 3, 70, 90
6, 49528, Note_off_c, 3, 70, 0
6, 49536, Note_off_c, 3, 65, 0
6, 49536, Note_on_c, 3, 60, 92
6, 49552, Note_off_c, 3, 60, 0
6, 49584, Note_on_c, 3, 67, 71
6, 49584, Note_on_c, 3, 72, 85
6, 49616, Note_off_c, 3, 72, 0
6, 49624, Note_off_c, 3, 67, 0
6, 49632, Note_on_c, 3, 60, 92
6, 49668, Note_off_c, 3, 60, 0
6, 49680, Note_on_c, 3, 67, 71
6, 49680, Note_on_c, 3, 72, 87
6, 49712, Note_off_c, 3, 72, 0
6, 49720, Note_off_c, 3, 67, 0
6, 49728, Note_on_c, 3, 67, 87
6, 49728, Note_on_c, 3, 72, 101
6, 49812, Note_off_c, 3, 72, 0
6, 49820, Note_off_c, 3, 67, 0
6, 49824, Note_on_c, 3, 67, 77
6, 49824, Note_on_c, 3, 72, 90
6, 49864, Note_off_c, 3, 72, 0
6, 49872, Note_off_c, 3, 67, 0
6, 49872, Note_on_c, 3, 67, 77
6, 49872, Note_on_c, 3, 72, 90
6, 49912, Note_off_c, 3, 72, 0
6, 49920, Note_off_c, 3, 67, 0
6, 49920, Note_on_c, 3, 60, 78
6, 49940, Note_off_c, 3, 60, 0
6, 49968, Note_on_c, 3, 63, 85
6, 49968, Note_on_c, 3, 67, 92
6, 50000, Note_off_c, 3, 67, 0
6, 50000, Note_off_c, 3, 63, 0
6, 50016, Note_on_c, 3, 60, 78
6, 50036, Note_off_c, 3, 60, 0
6, 50064, Note_on_c, 3, 63, 78
6, 50064, Note_on_c, 3, 67, 87
6, 50096, Note_off_c, 3, 67, 0
6, 50096, Note_off_c, 3, 63, 0
6, 50112, Note_on_c, 3, 63, 85
6, 50112, Note_on_c, 3, 67, 92
6, 50200, Note_off_c, 3, 67, 0
6, 50200, Note_off_c, 3, 63, 0
6, 50208, Note_on_c, 3, 63, 76
6, 50208, Note_on_c, 3, 67, 85
6, 50252, Note_off_c, 3, 67, 0
6, 50252, Note_off_c, 3, 63, 0
6, 50256, Note_on_c, 3, 63, 71
6, 50256, Note_on_c, 3, 67, 78
6, 50300, Note_off_c, 3, 67, 0
6, 50300, Note_off_c, 3, 63, 0
6, 50304, Note_on_c, 3, 60, 78
6, 50320, Note_off_c, 3, 60, 0
6, 50352, Note_on_c, 3, 65, 77
6, 50352, Note_on_c, 3, 68, 87
6, 50380, Note_off_c, 3, 68, 0
6, 50380, Note_off_c, 3, 65, 0
6, 50400, Note_on_c, 3, 60, 78
6, 50416, Note_off_c, 3, 60, 0
6, 50448, Note_on_c, 3, 65, 77
6, 50448, Note_on_c, 3, 68, 87
6, 50476, Note_off_c, 3, 68, 0
6, 50476, Note_off_c, 3, 65, 0
6, 50496, Note_on_c, 3, 65, 81
6, 50496, Note_on_c, 3, 68, 90
6, 50584, Note_off_c, 3, 68, 0
6, 50584, Note_off_c, 3, 65, 0
6, 50592, Note_on_c, 3, 60, 78
6, 50608, Note_off_c, 3, 60, 0
6, 50640, Note_on_c, 3, 65, 77
6, 50640, Note_on_c, 3, 68, 87
6, 50668, Note_off_c, 3, 68, 0
6, 50668, Note_off_c, 3, 65, 0
6, 50688, Note_on_c, 3, 62, 92
6, 50704, Note_off_c, 3, 62, 0
6, 50736, Note_on_c, 3, 65, 71
6, 50736, Note_on_c, 3, 70, 85
6, 50768, Note_off_c, 3, 70, 0
6, 50776, Note_off_c, 3, 65, 0
6, 50784, Note_on_c, 3, 62, 92
6, 50820, Note_off_c, 3, 62, 0
6, 50832, Note_on_c, 3, 65, 71
6, 50832, Note_on_c, 3, 70, 87
6, 50864, Note_off_c, 3, 70, 0
6, 50872, Note_off_c, 3, 65, 0
6, 50880, Note_on_c, 3, 65, 87
6, 50880, Note_on_c, 3, 70, 101
6, 50964, Note_off_c, 3, 70, 0
6, 50972, Note_off_c, 3, 65, 0
6, 50976, Note_on_c, 3, 65, 77
6, 50976, Note_on_c, 3, 70, 90
6, 51016, Note_off_c, 3, 70, 0
6, 51024, Note_off_c, 3, 65, 0
6, 51024, Note_on_c, 3, 65, 77
6, 51024, Note_on_c, 3, 70, 90
6, 51064, Note_off_c, 3, 70, 0
6, 51072, Note_off_c, 3, 65, 0
6, 51072, Note_on_c, 3, 67, 77
6, 51072, Note_on_c, 3, 70, 90
6, 51112, Note_off_c, 3, 70, 0
6, 51120, Note_off_c, 3, 67, 0
6, 51120, Note_on_c, 3, 67, 77
6, 51120, Note_on_c, 3, 70, 90
6, 51144, Note_off_c, 3, 70, 0
6, 51152, Note_off_c, 3, 67, 0
6, 51168, Note_on_c, 3, 67, 77
6, 51168, Note_on_c, 3, 70, 90
6, 51208, Note_off_c, 3, 70, 0
6, 51216, Note_off_c, 3, 67, 0
6, 51216, Note_on_c, 3, 67, 77
6, 51216, Note_on_c, 3, 70, 90
6, 51240, Note_off_c, 3, 70, 0
6, 51248, Note_off_c, 3, 67, 0
6, 51264, Note_on_c, 3, 67, 77
6, 51264, Note_on_c, 3, 70, 90
6, 51304, Note_off_c, 3, 70, 0
6, 51312, Note_off_c, 3, 67, 0
6, 51312, Note_on_c, 3, 67, 77
6, 51312, Note_on_c, 3, 70, 90
6, 51352, Note_off_c, 3, 70, 0
6, 51360, Note_off_c, 3, 67, 0
6, 51360, Note_on_c, 3, 67, 85
6, 51360, Note_on_c, 3, 70, 99
6, 51444, Note_off_c, 3, 70, 0
6, 51452, Note_off_c, 3, 67, 0
6, 51456, Note_on_c, 3, 60, 78
6, 51476, Note_off_c, 3, 60, 0
6, 51504, Note_on_c, 3, 63, 85
6, 51504, Note_on_c, 3, 67, 92
6, 51536, Note_off_c, 3, 67, 0
6, 51536, Note_off_c, 3, 63, 0
6, 51552, Note_on_c, 3, 60, 78
6, 51572, Note_off_c, 3, 60, 0
6, 51600, Note_on_c, 3, 63, 78
6, 51600, Note_on_c, 3, 67, 87
6, 51632, Note_off_c, 3, 67, 0
6, 51632, Note_off_c, 3, 63, 0
6, 51648, Note_on_c, 3, 63, 85
6, 51648, Note_on_c, 3, 67, 92
6, 51736, Note_off_c, 3, 67, 0
6, 51736, Note_off_c, 3, 63, 0
6, 51744, Note_on_c, 3, 63, 76
6, 51744, Note_on_c, 3, 67, 85
6, 51788, Note_off_c, 3, 67, 0
6, 51788, Note_off_c, 3, 63, 0
6, 51792, Note_on_c, 3, 63, 71
6, 51792, Note_on_c, 3, 67, 78
6, 51836, Note_off_c, 3, 67, 0
6, 51836, Note_off_c, 3, 63, 0
6, 51840, Note_on_c, 3, 60, 78
6, 51856, Note_off_c, 3, 60, 0
6, 51888, Note_on_c, 3, 65, 77
6, 51888, Note_on_c, 3, 68, 87
6, 51916, Note_off_c, 3, 68, 0
6, 51916, Note_off_c, 3, 65, 0
6, 51936, Note_on_c, 3, 60, 78
6, 51952, Note_off_c, 3, 60, 0
6, 51984, Note_on_c, 3, 65, 77
6, 51984, Note_on_c, 3, 68, 87
6, 52012, Note_off_c, 3, 68, 0
6, 52012, Note_off_c, 3, 65, 0
6, 52032, Note_on_c, 3, 65, 81
6, 52032, Note_on_c, 3, 68, 90
6, 52120, Note_off_c, 3, 68, 0
6, 52120, Note_off_c, 3, 65, 0
6, 52128, Note_on_c, 3, 60, 78
6, 52144, Note_off_c, 3, 60, 0
6, 52176, Note_on_c, 3, 65, 77
6, 52176, Note_on_c, 3, 68, 87
6, 52204, Note_off_c, 3, 68, 0
6, 52204, Note_off_c, 3, 65, 0
6, 52224, Note_on_c, 3, 65, 87
6, 52224, Note_on_c, 3, 70, 101
6, 52316, Note_off_c, 3, 70, 0
6, 52316, Note_off_c, 3, 65, 0
6, 52320, Note_on_c, 3, 65, 85
6, 52320, Note_on_c, 3, 70, 96
6, 52412, Note_off_c, 3, 70, 0
6, 52412, Note_off_c, 3, 65, 0
6, 52416, Note_on_c, 3, 65, 85
6, 52416, Note_on_c, 3, 70, 99
6, 52508, Note_off_c, 3, 70, 0
6, 52508, Note_off_c, 3, 65, 0
6, 52512, Note_on_c, 3, 65, 81
6, 52512, Note_on_c, 3, 70, 94
6, 52604, Note_off_c, 3, 70, 0
6, 52604, Note_off_c, 3, 65, 0
6, 52608, Note_on_c, 3, 63, 77
6, 52608, Note_on_c, 3, 67, 92
6, 52740, Note_off_c, 3, 67, 0
6, 52748, Note_off_c, 3, 63, 0
6, 52752, Note_on_c, 3, 63, 87
6, 52752, Note_on_c, 3, 67, 101
6, 52944, Note_off_c, 3, 67, 0
6, 52944, Note_off_c, 3, 63, 0
6, 52992, Control_c, 3, 11, 90
6, 52992, Note_on_c, 3, 63, 76
6, 52992, Note_on_c, 3, 70, 90
6, 53744, Note_off_c, 3, 70, 0
6, 53744, Note_off_c, 3, 63, 0
6, 53760, Note_on_c, 3, 62, 76
6, 53760, Note_on_c, 3, 70, 90
6, 54512, Note_off_c, 3, 70, 0
6, 54512, Note_off_c, 3, 62, 0
6, 54528, Note_on_c, 3, 60, 76
6, 54528, Note_on_c, 3, 67, 90
6, 54896, Note_off_c, 3, 67, 0
6, 54896, Note_off_c, 3, 60, 0
6, 54912, Note_on_c, 3, 58, 76
6, 54912, Note_on_c, 3, 65, 90
6, 55280, Note_off_c, 3, 65, 0
6, 55280, Note_off_c, 3, 58, 0
6, 55296, Note_on_c, 3, 60, 76
6, 55296, Note_on_c, 3, 68, 90
6, 56048, Note_off_c, 3, 68, 0
6, 56048, Note_off_c, 3, 60, 0
6, 56064, Note_on_c, 3, 63, 76
6, 56064, Note_on_c, 3, 70, 90
6, 56444, Note_off_c, 3, 70, 0
6, 56444, Note_off_c, 3, 63, 0
6, 56448, Note_on_c, 3, 62, 76
6, 56448, Note_on_c, 3, 70, 90
6, 56808, Note_off_c, 3, 62, 0
6, 56812, Pitch_bend_c, 3, 8192
6, 56816, Pitch_bend_c, 3, 8328
6, 56820, Pitch_bend_c, 3, 8720
6, 56824, Pitch_bend_c, 3, 9307
6, 56828, Pitch_bend_c, 3, 10000
6, 56832, Note_off_c, 3, 70, 0
6, 56832, Pitch_bend_c, 3, 8192
6, 56832, Note_on_c, 3, 67, 76
6, 56832, Note_on_c, 3, 75, 90
6, 57208, Note_off_c, 3, 75, 0
6, 57208, Note_off_c, 3, 67, 0
6, 57216, Note_on_c, 3, 67, 76
6, 57216, Note_on_c, 3, 75, 90
6, 57592, Note_off_c, 3, 75, 0
6, 57592, Note_off_c, 3, 67, 0
6, 57600, Note_on_c, 3, 65, 76
6, 57600, Note_on_c, 3, 72, 90
6, 58352, Note_off_c, 3, 72, 0
6, 58352, Note_off_c, 3, 65, 0
6, 58368, Note_on_c, 3, 65, 76
6, 58368, Note_on_c, 3, 72, 90
6, 58744, Note_off_c, 3, 72, 0
6, 58744, Note_off_c, 3, 65, 0
6, 58752, Note_on_c, 3, 65, 76
6, 58752, Note_on_c, 3, 71, 90
6, 59128, Note_off_c, 3, 71, 0
6, 59128, Note_off_c, 3, 65, 0
6, 59136, Note_on_c, 3, 63, 76
6, 59136, Note_on_c, 3, 70, 90
6, 59888, Note_off_c, 3, 70, 0
6, 59888, Note_off_c, 3, 63, 0
6, 59904, Note_on_c, 3, 62, 76
6, 59904, Note_on_c, 3, 70, 90
6, 60656, Note_off_c, 3, 70, 0
6, 60656, Note_off_c, 3, 62, 0
6, 60672, Note_on_c, 3, 60, 76
6, 60672, Note_on_c, 3, 67, 90
6, 61040, Note_off_c, 3, 67, 0
6, 61040, Note_off_c, 3, 60, 0
6, 61056, Note_on_c, 3, 58, 76
6, 61056, Note_on_c, 3, 65, 90
6, 61424, Note_off_c, 3, 65, 0
6, 61424, Note_off_c, 3, 58, 0
6, 61440, Note_on_c, 3, 60, 76
6, 61440, Note_on_c, 3, 68, 90
6, 62192, Note_off_c, 3, 68, 0
6, 62192, Note_off_c, 3, 60, 0
6, 62208, Note_on_c, 3, 63, 76
6, 62208, Note_on_c, 3, 70, 90
6, 62588, Note_off_c, 3, 70, 0
6, 62588, Note_off_c, 3, 63, 0
6, 62592, Note_on_c, 3, 62, 76
6, 62592, Note_on_c, 3, 70, 90
6, 62952, Note_off_c, 3, 62, 0
6, 62956, Pitch_bend_c, 3, 8192
6, 62960, Pitch_bend_c, 3, 8328
6, 62964, Pitch_bend_c, 3, 8720
6, 62968, Pitch_bend_c, 3, 9307
6, 62972, Pitch_bend_c, 3, 10000
6, 62976, Note_off_c, 3, 70, 0
6, 62976, Pitch_bend_c, 3, 8192
6, 62976, Note_on_c, 3, 67, 76
6, 62976, Note_on_c, 3, 75, 90
6, 63352, Note_off_c, 3, 75, 0
6, 63352, Note_off_c, 3, 67, 0
6, 63360, Note_on_c, 3, 67, 76
6, 63360, Note_on_c, 3, 75, 90
6, 63736, Note_off_c, 3, 75, 0
6, 63736, Note_off_c, 3, 67, 0
6, 63744, Note_on_c, 3, 65, 76
6, 63744, Note_on_c, 3, 72, 90
6, 64496, Note_off_c, 3, 72, 0
6, 64496, Note_off_c, 3, 65, 0
6, 64512, Note_on_c, 3, 65, 81
6, 64512, Note_on_c, 3, 72, 94
6, 64692, Note_off_c, 3, 72, 0
6, 64692, Note_off_c, 3, 65, 0
6, 64704, Note_on_c, 3, 65, 81
6, 64704, Note_on_c, 3, 71, 94
6, 64884, Note_off_c, 3, 71, 0
6, 64884, Note_off_c, 3, 65, 0
6, 64896, Note_on_c, 3, 65, 81
6, 64896, Note_on_c, 3, 72, 94
6, 65076, Note_off_c, 3, 72, 0
6, 65076, Note_off_c, 3, 65, 0
6, 65088, Note_on_c, 3, 67, 81
6, 65088, Note_on_c, 3, 74, 94
6, 65268, Note_off_c, 3, 74, 0
6, 65268, Note_off_c, 3, 67, 0
6, 65280, Control_c, 3, 11, 70
6, 65280, Note_on_c, 3, 60, 71
6, 65332, Note_off_c, 3, 60, 0
6, 65376, Note_on_c, 3, 63, 71
6, 65376, Note_on_c, 3, 67, 85
6, 65456, Note_off_c, 3, 67, 0
6, 65456, Note_off_c, 3, 63, 0
6, 65472, Note_on_c, 3, 63, 76
6, 65472, Note_on_c, 3, 67, 90
6, 65556, Note_off_c, 3, 67, 0
6, 65556, Note_off_c, 3, 63, 0
6, 65568, Note_on_c, 3, 60, 71
6, 65588, Note_off_c, 3, 60, 0
6, 65616, Note_on_c, 3, 63, 76
6, 65616, Note_on_c, 3, 67, 90
6, 65644, Note_off_c, 3, 67, 0
6, 65644, Note_off_c, 3, 63, 0
6, 65664, Note_on_c, 3, 60, 71
6, 65716, Note_off_c, 3, 60, 0
6, 65760, Note_on_c, 3, 63, 71
6, 65760, Note_on_c, 3, 67, 85
6, 65840, Note_off_c, 3, 67, 0
6, 65840, Note_off_c, 3, 63, 0
6, 65856, Note_on_c, 3, 63, 76
6, 65856, Note_on_c, 3, 67, 90
6, 65940, Note_off_c, 3, 67, 0
6, 65940, Note_off_c, 3, 63, 0
6, 65952, Note_on_c, 3, 60, 71
6, 65972, Note_off_c, 3, 60, 0
6, 66000, Note_on_c, 3, 63, 76
6, 66000, Note_on_c, 3, 67, 90
6, 66028, Note_off_c, 3, 67, 0
6, 66028, Note_off_c, 3, 63, 0
6, 66048, Note_on_c, 3, 62, 85
6, 66048, Note_on_c, 3, 65, 99
6, 66080, Note_off_c, 3, 65, 0
6, 66080, Note_off_c, 3, 62, 0
6, 66096, Note_on_c, 3, 58, 81
6, 66120, Note_off_c, 3, 58, 0
6, 66192, Note_on_c, 3, 58, 81
6, 66216, Note_off_c, 3, 58, 0
6, 66288, Note_on_c, 3, 58, 78
6, 66312, Note_off_c, 3, 58, 0
6, 66336, Note_on_c, 3, 62, 85
6, 66336, Note_on_c, 3, 65, 99
6, 66364, Note_off_c, 3, 65, 0
6, 66364, Note_off_c, 3, 62, 0
6, 66384, Note_on_c, 3, 58, 85
6, 66400, Note_off_c, 3, 58, 0
6, 66432, Note_on_c, 3, 60, 62
6, 66432, Note_on_c, 3, 63, 77
6, 66524, Note_off_c, 3, 63, 0
6, 66524, Note_off_c, 3, 60, 0
6, 66528, Note_on_c, 3, 60, 66
6, 66528, Note_on_c, 3, 63, 81
6, 66620, Note_off_c, 3, 63, 0
6, 66620, Note_off_c, 3, 60, 0
6, 66624, Note_on_c, 3, 63, 81
6, 66624, Note_on_c, 3, 67, 96
6, 66716, Note_off_c, 3, 67, 0
6, 66716, Note_off_c, 3, 63, 0
6, 66720, Note_on_c, 3, 62, 99
6, 66752, Note_off_c, 3, 62, 0
6, 66768, Note_on_c, 3, 62, 78
6, 66800, Note_off_c, 3, 62, 0
6, 66816, Note_on_c, 3, 60, 81
6, 66816, Note_on_c, 3, 63, 96
6, 66884, Note_off_c, 3, 63, 0
6, 66884, Note_off_c, 3, 60, 0
6, 66912, Note_on_c, 3, 56, 78
6, 66932, Note_off_c, 3, 56, 0
6, 66960, Note_on_c, 3, 60, 58
6, 66960, Note_on_c, 3, 63, 71
6, 67004, Note_off_c, 3, 63, 0
6, 67004, Note_off_c, 3, 60, 0
6, 67056, Note_on_c, 3, 56, 78
6, 67076, Note_off_c, 3, 56, 0
6, 67104, Note_on_c, 3, 60, 60
6, 67104, Note_on_c, 3, 63, 76
6, 67172, Note_off_c, 3, 63, 0
6, 67172, Note_off_c, 3, 60, 0
6, 67200, Note_on_c, 3, 62, 81
6, 67200, Note_on_c, 3, 65, 96
6, 67268, Note_off_c, 3, 65, 0
6, 67268, Note_off_c, 3, 62, 0
6, 67296, Note_on_c, 3, 58, 78
6, 67320, Note_off_c, 3, 58, 0
6, 67344, Note_on_c, 3, 58, 81
6, 67344, Note_on_c, 3, 62, 96
6, 67412, Note_off_c, 3, 62, 0
6, 67412, Note_off_c, 3, 58, 0
6, 67440, Note_on_c, 3, 53, 78
6, 67464, Note_off_c, 3, 53, 0
6, 67488, Note_on_c, 3, 60, 94
6, 67532, Note_off_c, 3, 60, 0
6, 67536, Note_on_c, 3, 60, 78
6, 67568, Note_off_c, 3, 60, 0
6, 67584, Note_on_c, 3, 61, 81
6, 67584, Note_on_c, 3, 65, 96
6, 67652, Note_off_c, 3, 65, 0
6, 67652, Note_off_c, 3, 61, 0
6, 67680, Note_on_c, 3, 58, 78
6, 67716, Note_off_c, 3, 58, 0
6, 67728, Note_on_c, 3, 63, 81
6, 67728, Note_on_c, 3, 67, 96
6, 67820, Note_off_c, 3, 67, 0
6, 67820, Note_off_c, 3, 63, 0
6, 67824, Note_on_c, 3, 58, 78
6, 67852, Note_off_c, 3, 58, 0
6, 67872, Note_on_c, 3, 61, 68
6, 67872, Note_on_c, 3, 65, 85
6, 67916, Note_off_c, 3, 65, 0
6, 67916, Note_off_c, 3, 61, 0
6, 67968, Note_on_c, 3, 63, 81
6, 67968, Note_on_c, 3, 67, 96
6, 68100, Note_off_c, 3, 67, 0
6, 68100, Note_off_c, 3, 63, 0
6, 68112, Note_on_c, 3, 63, 78
6, 68112, Note_on_c, 3, 67, 92
6, 68244, Note_off_c, 3, 67, 0
6, 68244, Note_off_c, 3, 63, 0
6, 68256, Note_on_c, 3, 63, 85
6, 68256, Note_on_c, 3, 67, 99
6, 68300, Note_off_c, 3, 67, 0
6, 68300, Note_off_c, 3, 63, 0
6, 68352, Note_on_c, 3, 60, 71
6, 68404, Note_off_c, 3, 60, 0
6, 68448, Note_on_c, 3, 63, 71
6, 68448, Note_on_c, 3, 67, 85
6, 68528, Note_off_c, 3, 67, 0
6, 68528, Note_off_c, 3, 63, 0
6, 68544, Note_on_c, 3, 63, 76
6, 68544, Note_on_c, 3, 67, 90
6, 68628, Note_off_c, 3, 67, 0
6, 68628, Note_off_c, 3, 63, 0
6, 68640, Note_on_c, 3, 60, 71
6, 68660, Note_off_c, 3, 60, 0
6, 68688, Note_on_c, 3, 63, 76
6, 68688, Note_on_c, 3, 67, 90
6, 68716, Note_off_c, 3, 67, 0
6, 68716, Note_off_c, 3, 63, 0
6, 68736, Note_on_c, 3, 60, 71
6, 68788, Note_off_c, 3, 60, 0
6, 68832, Note_on_c, 3, 63, 71
6, 68832, Note_on_c, 3, 67, 85
6, 68912, Note_off_c, 3, 67, 0
6, 68912, Note_off_c, 3, 63, 0
6, 68928, Note_on_c, 3, 63, 76
6, 68928, Note_on_c, 3, 67, 90
6, 69012, Note_off_c, 3, 67, 0
6, 69012, Note_off_c, 3, 63, 0
6, 69024, Note_on_c, 3, 60, 71
6, 69044, Note_off_c, 3, 60, 0
6, 69072, Note_on_c, 3, 63, 76
6, 69072, Note_on_c, 3, 67, 90
6, 69100, Note_off_c, 3, 67, 0
6, 69100, Note_off_c, 3, 63, 0
6, 69120, Note_on_c, 3, 62, 85
6, 69120, Note_on_c, 3, 65, 99
6, 69152, Note_off_c, 3, 65, 0
6, 69152, Note_off_c, 3, 62, 0
6, 69168, Note_on_c, 3, 58, 81
6, 69192, Note_off_c, 3, 58, 0
6, 69264, Note_on_c, 3, 58, 81
6, 69288, Note_off_c, 3, 58, 0
6, 69360, Note_on_c, 3, 58, 78
6, 69384, Note_off_c, 3, 58, 0
6, 69408, Note_on_c, 3, 62, 85
6, 69408, Note_on_c, 3, 65, 99
6, 69436, Note_off_c, 3, 65, 0
6, 69436, Note_off_c, 3, 62, 0
6, 69456, Note_on_c, 3, 58, 85
6, 69472, Note_off_c, 3, 58, 0
6, 69504, Note_on_c, 3, 60, 62
6, 69504, Note_on_c, 3, 63, 77
6, 69596, Note_off_c, 3, 63, 0
6, 69596, Note_off_c, 3, 60, 0
6, 69600, Note_on_c, 3, 60, 66
6, 69600, Note_on_c, 3, 63, 81
6, 69692, Note_off_c, 3, 63, 0
6, 69692, Note_off_c, 3, 60, 0
6, 69696, Note_on_c, 3, 63, 81
6, 69696, Note_on_c, 3, 67, 96
6, 69788, Note_off_c, 3, 67, 0
6, 69788, Note_off_c, 3, 63, 0
6, 69792, Note_on_c, 3, 62, 99
6, 69824, Note_off_c, 3, 62, 0
6, 69840, Note_on_c, 3, 62, 78
6, 69872, Note_off_c, 3, 62, 0
6, 69888, Note_on_c, 3, 62, 81
6, 69888, Note_on_c, 3, 67, 96
6, 69956, Note_off_c, 3, 67, 0
6, 69956, Note_off_c, 3, 62, 0
6, 69984, Note_on_c, 3, 56, 78
6, 70004, Note_off_c, 3, 56, 0
6, 70032, Note_on_c, 3, 65, 58
6, 70032, Note_on_c, 3, 68, 71
6, 70076, Note_off_c, 3, 68, 0
6, 70076, Note_off_c, 3, 65, 0
6, 70128, Note_on_c, 3, 62, 78
6, 70148, Note_off_c, 3, 62, 0
6, 70176, Note_on_c, 3, 62, 60
6, 70176, Note_on_c, 3, 67, 76
6, 70244, Note_off_c, 3, 67, 0
6, 70244, Note_off_c, 3, 62, 0
6, 70272, Note_on_c, 3, 62, 81
6, 70272, Note_on_c, 3, 65, 96
6, 70340, Note_off_c, 3, 65, 0
6, 70340, Note_off_c, 3, 62, 0
6, 70368, Note_on_c, 3, 56, 78
6, 70392, Note_off_c, 3, 56, 0
6, 70416, Note_on_c, 3, 56, 81
6, 70416, Note_on_c, 3, 62, 96
6, 70484, Note_off_c, 3, 62, 0
6, 70484, Note_off_c, 3, 56, 0
6, 70512, Note_on_c, 3, 53, 78
6, 70536, Note_off_c, 3, 53, 0
6, 70560, Note_on_c, 3, 62, 94
6, 70604, Note_off_c, 3, 62, 0
6, 70608, Note_on_c, 3, 62, 78
6, 70640, Note_off_c, 3, 62, 0
6, 70656, Note_on_c, 3, 59, 81
6, 70656, Note_on_c, 3, 62, 96
6, 71036, Note_off_c, 3, 62, 0
6, 71036, Note_off_c, 3, 59, 0
6, 71424, Control_c, 3, 11, 80
6, 71424, Note_on_c, 3, 60, 78
6, 71444, Note_off_c, 3, 60, 0
6, 71472, Note_on_c, 3, 63, 85
6, 71472, Note_on_c, 3, 67, 92
6, 71504, Note_off_c, 3, 67, 0
6, 71504, Note_off_c, 3, 63, 0
6, 71520, Note_on_c, 3, 60, 78
6, 71540, Note_off_c, 3, 60, 0
6, 71568, Note_on_c, 3, 63, 78
6, 71568, Note_on_c, 3, 67, 87
6, 71600, Note_off_c, 3, 67, 0
6, 71600, Note_off_c, 3, 63, 0
6, 71616, Note_on_c, 3, 63, 85
6, 71616, Note_on_c, 3, 67, 92
6, 71704, Note_off_c, 3, 67, 0
6, 71704, Note_off_c, 3, 63, 0
6, 71712, Note_on_c, 3, 63, 76
6, 71712, Note_on_c, 3, 67, 85
6, 71756, Note_off_c, 3, 67, 0
6, 71756, Note_off_c, 3, 63, 0
6, 71760, Note_on_c, 3, 63, 71
6, 71760, Note_on_c, 3, 67, 78
6, 71804, Note_off_c, 3, 67, 0
6, 71804, Note_off_c, 3, 63, 0
6, 71808, Note_on_c, 3, 60, 78
6, 71824, Note_off_c, 3, 60, 0
6, 71856, Note_on_c, 3, 65, 77
6, 71856, Note_on_c, 3, 68, 87
6, 71884, Note_off_c, 3, 68, 0
6, 71884, Note_off_c, 3, 65, 0
6, 71904, Note_on_c, 3, 60, 78
6, 71920, Note_off_c, 3, 60, 0
6, 71952, Note_on_c, 3, 65, 77
6, 71952, Note_on_c, 3, 68, 87
6, 71980, Note_off_c, 3, 68, 0
6, 71980, Note_off_c, 3, 65, 0
6, 72000, Note_on_c, 3, 65, 81
6, 72000, Note_on_c, 3, 68, 90
6, 72088, Note_off_c, 3, 68, 0
6, 72088, Note_off_c, 3, 65, 0
6, 72096, Note_on_c, 3, 60, 78
6, 72112, Note_off_c, 3, 60, 0
6, 72144, Note_on_c, 3, 65, 77
6, 72144, Note_on_c, 3, 68, 87
6, 72172, Note_off_c, 3, 68, 0
6, 72172, Note_off_c, 3, 65, 0
6, 72192, Note_on_c, 3, 62, 92
6, 72208, Note_off_c, 3, 62, 0
6, 72240, Note_on_c, 3, 65, 71
6, 72240, Note_on_c, 3, 70, 85
6, 72272, Note_off_c, 3, 70, 0
6, 72280, Note_off_c, 3, 65, 0
6, 72288, Note_on_c, 3, 62, 92
6, 72324, Note_off_c, 3, 62, 0
6, 72336, Note_on_c, 3, 65, 71
6, 72336, Note_on_c, 3, 70, 87
6, 72368, Note_off_c, 3, 70, 0
6, 72376, Note_off_c, 3, 65, 0
6, 72384, Note_on_c, 3, 65, 87
6, 72384, Note_on_c, 3, 70, 101
6, 72468, Note_off_c, 3, 70, 0
6, 72476, Note_off_c, 3, 65, 0
6, 72480, Note_on_c, 3, 65, 77
6, 72480, Note_on_c, 3, 70, 90
6, 72520, Note_off_c, 3, 70, 0
6, 72528, Note_off_c, 3, 65, 0
6, 72528, Note_on_c, 3, 65, 77
6, 72528, Note_on_c, 3, 70, 90
6, 72568, Note_off_c, 3, 70, 0
6, 72576, Note_off_c, 3, 65, 0
6, 72576, Note_on_c, 3, 67, 77
6, 72576, Note_on_c, 3, 70, 90
6, 72616, Note_off_c, 3, 70, 0
6, 72624, Note_off_c, 3, 67, 0
6, 72624, Note_on_c, 3, 67, 77
6, 72624, Note_on_c, 3, 70, 90
6, 72648, Note_off_c, 3, 70, 0
6, 72656, Note_off_c, 3, 67, 0
6, 72672, Note_on_c, 3, 67, 77
6, 72672, Note_on_c, 3, 70, 90
6, 72712, Note_off_c, 3, 70, 0
6, 72720, Note_off_c, 3, 67, 0
6, 72720, Note_on_c, 3, 67, 77
6, 72720, Note_on_c, 3, 70, 90
6, 72744, Note_off_c, 3, 70, 0
6, 72752, Note_off_c, 3, 67, 0
6, 72768, Note_on_c, 3, 67, 77
6, 72768, Note_on_c, 3, 70, 90
6, 72808, Note_off_c, 3, 70, 0
6, 72816, Note_off_c, 3, 67, 0
6, 72816, Note_on_c, 3, 67, 77
6, 72816, Note_on_c, 3, 70, 90
6, 72856, Note_off_c, 3, 70, 0
6, 72864, Note_off_c, 3, 67, 0
6, 72864, Note_on_c, 3, 67, 85
6, 72864, Note_on_c, 3, 70, 99
6, 72948, Note_off_c, 3, 70, 0
6, 72956, Note_off_c, 3, 67, 0
6, 72960, Note_on_c, 3, 60, 78
6, 72980, Note_off_c, 3, 60, 0
6, 73008, Note_on_c, 3, 67, 85
6, 73008, Note_on_c, 3, 72, 92
6, 73040, Note_off_c, 3, 72, 0
6, 73040, Note_off_c, 3, 67, 0
6, 73056, Note_on_c, 3, 60, 78
6, 73076, Note_off_c, 3, 60, 0
6, 73104, Note_on_c, 3, 67, 78
6, 73104, Note_on_c, 3, 72, 87
6, 73136, Note_off_c, 3, 72, 0
6, 73136, Note_off_c, 3, 67, 0
6, 73152, Note_on_c, 3, 67, 85
6, 73152, Note_on_c, 3, 72, 92
6, 73240, Note_off_c, 3, 72, 0
6, 73240, Note_off_c, 3, 67, 0
6, 73248, Note_on_c, 3, 67, 76
6, 73248, Note_on_c, 3, 72, 85
6, 73292, Note_off_c, 3, 72, 0
6, 73292, Note_off_c, 3, 67, 0
6, 73296, Note_on_c, 3, 67, 71
6, 73296, Note_on_c, 3, 72, 78
6, 73340, Note_off_c, 3, 72, 0
6, 73340, Note_off_c, 3, 67, 0
6, 73344, Note_on_c, 3, 60, 78
6, 73360, Note_off_c, 3, 60, 0
6, 73392, Note_on_c, 3, 68, 77
6, 73392, Note_on_c, 3, 72, 87
6, 73420, Note_off_c, 3, 72, 0
6, 73420, Note_off_c, 3, 68, 0
6, 73440, Note_on_c, 3, 60, 78
6, 73456, Note_off_c, 3, 60, 0
6, 73488, Note_on_c, 3, 68, 77
6, 73488, Note_on_c, 3, 72, 87
6, 73516, Note_off_c, 3, 72, 0
6, 73516, Note_off_c, 3, 68, 0
6, 73536, Note_on_c, 3, 68, 81
6, 73536, Note_on_c, 3, 72, 90
6, 73624, Note_off_c, 3, 72, 0
6, 73624, Note_off_c, 3, 68, 0
6, 73632, Note_on_c, 3, 60, 78
6, 73648, Note_off_c, 3, 60, 0
6, 73680, Note_on_c, 3, 68, 77
6, 73680, Note_on_c, 3, 72, 87
6, 73708, Note_off_c, 3, 72, 0
6, 73708, Note_off_c, 3, 68, 0
6, 73728, Note_on_c, 3, 62, 92
6, 73744, Note_off_c, 3, 62, 0
6, 73776, Note_on_c, 3, 65, 71
6, 73776, Note_on_c, 3, 70, 85
6, 73808, Note_off_c, 3, 70, 0
6, 73816, Note_off_c, 3, 65, 0
6, 73824, Note_on_c, 3, 62, 92
6, 73860, Note_off_c, 3, 62, 0
6, 73872, Note_on_c, 3, 65, 71
6, 73872, Note_on_c, 3, 70, 87
6, 73904, Note_off_c, 3, 70, 0
6, 73912, Note_off_c, 3, 65, 0
6, 73920, Note_on_c, 3, 65, 87
6, 73920, Note_on_c, 3, 70, 101
6, 74004, Note_off_c, 3, 70, 0
6, 74012, Note_off_c, 3, 65, 0
6, 74016, Note_on_c, 3, 65, 77
6, 74016, Note_on_c, 3, 70, 90
6, 74056, Note_off_c, 3, 70, 0
6, 74064, Note_off_c, 3, 65, 0
6, 74064, Note_on_c, 3, 65, 77
6, 74064, Note_on_c, 3, 70, 90
6, 74104, Note_off_c, 3, 70, 0
6, 74112, Note_off_c, 3, 65, 0
6, 74112, Note_on_c, 3, 67, 77
6, 74112, Note_on_c, 3, 70, 90
6, 74152, Note_off_c, 3, 70, 0
6, 74160, Note_off_c, 3, 67, 0
6, 74160, Note_on_c, 3, 67, 77
6, 74160, Note_on_c, 3, 70, 90
6, 74184, Note_off_c, 3, 70, 0
6, 74192, Note_off_c, 3, 67, 0
6, 74208, Note_on_c, 3, 67, 77
6, 74208, Note_on_c, 3, 70, 90
6, 74248, Note_off_c, 3, 70, 0
6, 74256, Note_off_c, 3, 67, 0
6, 74256, Note_on_c, 3, 67, 77
6, 74256, Note_on_c, 3, 70, 90
6, 74280, Note_off_c, 3, 70, 0
6, 74288, Note_off_c, 3, 67, 0
6, 74304, Note_on_c, 3, 67, 77
6, 74304, Note_on_c, 3, 70, 90
6, 74344, Note_off_c, 3, 70, 0
6, 74352, Note_off_c, 3, 67, 0
6, 74352, Note_on_c, 3, 67, 77
6, 74352, Note_on_c, 3, 70, 90
6, 74392, Note_off_c, 3, 70, 0
6, 74400, Note_off_c, 3, 67, 0
6, 74400, Note_on_c, 3, 67, 85
6, 74400, Note_on_c, 3, 70, 99
6, 74484, Note_off_c, 3, 70, 0
6, 74492, Note_off_c, 3, 67, 0
6, 74496, Note_on_c, 3, 60, 78
6, 74516, Note_off_c, 3, 60, 0
6, 74544, Note_on_c, 3, 63, 85
6, 74544, Note_on_c, 3, 67, 92
6, 74576, Note_off_c, 3, 67, 0
6, 74576, Note_off_c, 3, 63, 0
6, 74592, Note_on_c, 3, 60, 78
6, 74612, Note_off_c, 3, 60, 0
6, 74640, Note_on_c, 3, 63, 78
6, 74640, Note_on_c, 3, 67, 87
6, 74672, Note_off_c, 3, 67, 0
6, 74672, Note_off_c, 3, 63, 0
6, 74688, Note_on_c, 3, 63, 85
6, 74688, Note_on_c, 3, 67, 92
6, 74776, Note_off_c, 3, 67, 0
6, 74776, Note_off_c, 3, 63, 0
6, 74784, Note_on_c, 3, 63, 76
6, 74784, Note_on_c, 3, 67, 85
6, 74828, Note_off_c, 3, 67, 0
6, 74828, Note_off_c, 3, 63, 0
6, 74832, Note_on_c, 3, 63, 71
6, 74832, Note_on_c, 3, 67, 78
6, 74876, Note_off_c, 3, 67, 0
6, 74876, Note_off_c, 3, 63, 0
6, 74880, Note_on_c, 3, 60, 78
6, 74896, Note_off_c, 3, 60, 0
6, 74928, Note_on_c, 3, 65, 77
6, 74928, Note_on_c, 3, 68, 87
6, 74956, Note_off_c, 3, 68, 0
6, 74956, Note_off_c, 3, 65, 0
6, 74976, Note_on_c, 3, 60, 78
6, 74992, Note_off_c, 3, 60, 0
6, 75024, Note_on_c, 3, 65, 77
6, 75024, Note_on_c, 3, 68, 87
6, 75052, Note_off_c, 3, 68, 0
6, 75052, Note_off_c, 3, 65, 0
6, 75072, Note_on_c, 3, 65, 81
6, 75072, Note_on_c, 3, 68, 90
6, 75160, Note_off_c, 3, 68, 0
6, 75160, Note_off_c, 3, 65, 0
6, 75168, Note_on_c, 3, 60, 78
6, 75184, Note_off_c, 3, 60, 0
6, 75216, Note_on_c, 3, 65, 77
6, 75216, Note_on_c, 3, 68, 87
6, 75244, Note_off_c, 3, 68, 0
6, 75244, Note_off_c, 3, 65, 0
6, 75264, Note_on_c, 3, 62, 92
6, 75280, Note_off_c, 3, 62, 0
6, 75312, Note_on_c, 3, 65, 71
6, 75312, Note_on_c, 3, 70, 85
6, 75344, Note_off_c, 3, 70, 0
6, 75352, Note_off_c, 3, 65, 0
6, 75360, Note_on_c, 3, 62, 92
6, 75396, Note_off_c, 3, 62, 0
6, 75408, Note_on_c, 3, 65, 71
6, 75408, Note_on_c, 3, 70, 87
6, 75440, Note_off_c, 3, 70, 0
6, 75448, Note_off_c, 3, 65, 0
6, 75456, Note_on_c, 3, 65, 87
6, 75456, Note_on_c, 3, 70, 101
6, 75540, Note_off_c, 3, 70, 0
6, 75548, Note_off_c, 3, 65, 0
6, 75552, Note_on_c, 3, 65, 77
6, 75552, Note_on_c, 3, 70, 90
6, 75592, Note_off_c, 3, 70, 0
6, 75600, Note_off_c, 3, 65, 0
6, 75600, Note_on_c, 3, 65, 77
6, 75600, Note_on_c, 3, 70, 90
6, 75640, Note_off_c, 3, 70, 0
6, 75648, Note_off_c, 3, 65, 0
6, 75648, Note_on_c, 3, 67, 77
6, 75648, Note_on_c, 3, 70, 90
6, 75688, Note_off_c, 3, 70, 0
6, 75696, Note_off_c, 3, 67, 0
6, 75696, Note_on_c, 3, 67, 77
6, 75696, Note_on_c, 3, 70, 90
6, 75720, Note_off_c, 3, 70, 0
6, 75728, Note_off_c, 3, 67, 0
6, 75744, Note_on_c, 3, 67, 77
6, 75744, Note_on_c, 3, 70, 90
6, 75784, Note_off_c, 3, 70, 0
6, 75792, Note_off_c, 3, 67, 0
6, 75792, Note_on_c, 3, 67, 77
6, 75792, Note_on_c, 3, 70, 90
6, 75816, Note_off_c, 3, 70, 0
6, 75824, Note_off_c, 3, 67, 0
6, 75840, Note_on_c, 3, 67, 77
6, 75840, Note_on_c, 3, 70, 90
6, 75880, Note_off_c, 3, 70, 0
6, 75888, Note_off_c, 3, 67, 0
6, 75888, Note_on_c, 3, 67, 77
6, 75888, Note_on_c, 3, 70, 90
6, 75928, Note_off_c, 3, 70, 0
6, 75936, Note_off_c, 3, 67, 0
6, 75936, Note_on_c, 3, 67, 85
6, 75936, Note_on_c, 3, 70, 99
6, 76020, Note_off_c, 3, 70, 0
6, 76028, Note_off_c, 3, 67, 0
6, 76032, Note_on_c, 3, 60, 78
6, 76052, Note_off_c, 3, 60, 0
6, 76080, Note_on_c, 3, 67, 85
6, 76080, Note_on_c, 3, 72, 92
6, 76112, Note_off_c, 3, 72, 0
6, 76112, Note_off_c, 3, 67, 0
6, 76128, Note_on_c, 3, 60, 78
6, 76148, Note_off_c, 3, 60, 0
6, 76176, Note_on_c, 3, 67, 78
6, 76176, Note_on_c, 3, 72, 87
6, 76208, Note_off_c, 3, 72, 0
6, 76208, Note_off_c, 3, 67, 0
6, 76224, Note_on_c, 3, 67, 85
6, 76224, Note_on_c, 3, 72, 92
6, 76312, Note_off_c, 3, 72, 0
6, 76312, Note_off_c, 3, 67, 0
6, 76320, Note_on_c, 3, 67, 76
6, 76320, Note_on_c, 3, 72, 85
6, 76364, Note_off_c, 3, 72, 0
6, 76364, Note_off_c, 3, 67, 0
6, 76368, Note_on_c, 3, 67, 71
6, 76368, Note_on_c, 3, 72, 78
6, 76412, Note_off_c, 3, 72, 0
6, 76412, Note_off_c, 3, 67, 0
6, 76416, Note_on_c, 3, 60, 78
6, 76432, Note_off_c, 3, 60, 0
6, 76464, Note_on_c, 3, 68, 77
6, 76464, Note_on_c, 3, 72, 87
6, 76492, Note_off_c, 3, 72, 0
6, 76492, Note_off_c, 3, 68, 0
6, 76512, Note_on_c, 3, 60, 78
6, 76528, Note_off_c, 3, 60, 0
6, 76560, Note_on_c, 3, 68, 77
6, 76560, Note_on_c, 3, 72, 87
6, 76588, Note_off_c, 3, 72, 0
6, 76588, Note_off_c, 3, 68, 0
6, 76608, Note_on_c, 3, 68, 81
6, 76608, Note_on_c, 3, 72, 90
6, 76696, Note_off_c, 3, 72, 0
6, 76696, Note_off_c, 3, 68, 0
6, 76704, Note_on_c, 3, 60, 78
6, 76720, Note_off_c, 3, 60, 0
6, 76752, Note_on_c, 3, 68, 77
6, 76752, Note_on_c, 3, 72, 87
6, 76780, Note_off_c, 3, 72, 0
6, 76780, Note_off_c, 3, 68, 0
6, 76800, Note_on_c, 3, 65, 87
6, 76800, Note_on_c, 3, 70, 101
6, 76892, Note_off_c, 3, 70, 0
6, 76892, Note_off_c, 3, 65, 0
6, 76896, Note_on_c, 3, 65, 85
6, 76896, Note_on_c, 3, 70, 96
6, 76988, Note_off_c, 3, 70, 0
6, 76988, Note_off_c, 3, 65, 0
6, 76992, Note_on_c, 3, 65, 85
6, 76992, Note_on_c, 3, 70, 99
6, 77084, Note_off_c, 3, 70, 0
6, 77084, Note_off_c, 3, 65, 0
6, 77088, Note_on_c, 3, 65, 81
6, 77088, Note_on_c, 3, 70, 94
6, 77180, Note_off_c, 3, 70, 0
6, 77180, Note_off_c, 3, 65, 0
6, 77184, Note_on_c, 3, 63, 77
6, 77184, Note_on_c, 3, 67, 92
6, 77316, Note_off_c, 3, 67, 0
6, 77324, Note_off_c, 3, 63, 0
6, 77328, Note_on_c, 3, 63, 87
6, 77328, Note_on_c, 3, 67, 101
6, 77520, Note_off_c, 3, 67, 0
6, 77520, Note_off_c, 3, 63, 0
6, 77568, Note_on_c, 3, 60, 78
6, 77588, Note_off_c, 3, 60, 0
6, 77616, Note_on_c, 3, 63, 85
6, 77616, Note_on_c, 3, 67, 92
6, 77648, Note_off_c, 3, 67, 0
6, 77648, Note_off_c, 3, 63, 0
6, 77664, Note_on_c, 3, 60, 78
6, 77684, Note_off_c, 3, 60, 0
6, 77712, Note_on_c, 3, 63, 78
6, 77712, Note_on_c, 3, 67, 87
6, 77744, Note_off_c, 3, 67, 0
6, 77744, Note_off_c, 3, 63, 0
6, 77760, Note_on_c, 3, 63, 85
6, 77760, Note_on_c, 3, 67, 92
6, 77848, Note_off_c, 3, 67, 0
6, 77848, Note_off_c, 3, 63, 0
6, 77856, Note_on_c, 3, 63, 76
6, 77856, Note_on_c, 3, 67, 85
6, 77900, Note_off_c, 3, 67, 0
6, 77900, Note_off_c, 3, 63, 0
6, 77904, Note_on_c, 3, 63, 71
6, 77904, Note_on_c, 3, 67, 78
6, 77948, Note_off_c, 3, 67, 0
6, 77948, Note_off_c, 3, 63, 0
6, 77952, Note_on_c, 3, 60, 78
6, 77968, Note_off_c, 3, 60, 0
6, 78000, Note_on_c, 3, 65, 77
6, 78000, Note_on_c, 3, 68, 87
6, 78028, Note_off_c, 3, 68, 0
6, 78028, Note_off_c, 3, 65, 0
6, 78048, Note_on_c, 3, 60, 78
6, 78064, Note_off_c, 3, 60, 0
6, 78096, Note_on_c, 3, 65, 77
6, 78096, Note_on_c, 3, 68, 87
6, 78124, Note_off_c, 3, 68, 0
6, 78124, Note_off_c, 3, 65, 0
6, 78144, Note_on_c, 3, 65, 81
6, 78144, Note_on_c, 3, 68, 90
6, 78232, Note_off_c, 3, 68, 0
6, 78232, Note_off_c, 3, 65, 0
6, 78240, Note_on_c, 3, 60, 78
6, 78256, Note_off_c, 3, 60, 0
6, 78288, Note_on_c, 3, 65, 77
6, 78288, Note_on_c, 3, 68, 87
6, 78316, Note_off_c, 3, 68, 0
6, 78316, Note_off_c, 3, 65, 0
6, 78336, Note_on_c, 3, 62, 92
6, 78352, Note_off_c, 3, 62, 0
6, 78384, Note_on_c, 3, 65, 71
6, 78384, Note_on_c, 3, 70, 85
6, 78416, Note_off_c, 3, 70, 0
6, 78424, Note_off_c, 3, 65, 0
6, 78432, Note_on_c, 3, 62, 92
6, 78468, Note_off_c, 3, 62, 0
6, 78480, Note_on_c, 3, 65, 71
6, 78480, Note_on_c, 3, 70, 87
6, 78512, Note_off_c, 3, 70, 0
6, 78520, Note_off_c, 3, 65, 0
6, 78528, Note_on_c, 3, 65, 87
6, 78528, Note_on_c, 3, 70, 101
6, 78612, Note_off_c, 3, 70, 0
6, 78620, Note_off_c, 3, 65, 0
6, 78624, Note_on_c, 3, 65, 77
6, 78624, Note_on_c, 3, 70, 90
6, 78664, Note_off_c, 3, 70, 0
6, 78672, Note_off_c, 3, 65, 0
6, 78672, Note_on_c, 3, 65, 77
6, 78672, Note_on_c, 3, 70, 90
6, 78712, Note_off_c, 3, 70, 0
6, 78720, Note_off_c, 3, 65, 0
6, 78720, Note_on_c, 3, 67, 77
6, 78720, Note_on_c, 3, 70, 90
6, 78760, Note_off_c, 3, 70, 0
6, 78768, Note_off_c, 3, 67, 0
6, 78768, Note_on_c, 3, 67, 77
6, 78768, Note_on_c, 3, 70, 90
6, 78792, Note_off_c, 3, 70, 0
6, 78800, Note_off_c, 3, 67, 0
6, 78816, Note_on_c, 3, 67, 77
6, 78816, Note_on_c, 3, 70, 90
6, 78856, Note_off_c, 3, 70, 0
6, 78864, Note_off_c, 3, 67, 0
6, 78864, Note_on_c, 3, 67, 77
6, 78864, Note_on_c, 3, 70, 90
6, 78888, Note_off_c, 3, 70, 0
6, 78896, Note_off_c, 3, 67, 0
6, 78912, Note_on_c, 3, 67, 77
6, 78912, Note_on_c, 3, 70, 90
6, 78952, Note_off_c, 3, 70, 0
6, 78960, Note_off_c, 3, 67, 0
6, 78960, Note_on_c, 3, 67, 77
6, 78960, Note_on_c, 3, 70, 90
6, 79000, Note_off_c, 3, 70, 0
6, 79008, Note_off_c, 3, 67, 0
6, 79008, Note_on_c, 3, 67, 85
6, 79008, Note_on_c, 3, 70, 99
6, 79092, Note_off_c, 3, 70, 0
6, 79100, Note_off_c, 3, 67, 0
6, 79104, Note_on_c, 3, 60, 78
6, 79124, Note_off_c, 3, 60, 0
6, 79152, Note_on_c, 3, 63, 85
6, 79152, Note_on_c, 3, 67, 92
6, 79184, Note_off_c, 3, 67, 0
6, 79184, Note_off_c, 3, 63, 0
6, 79200, Note_on_c, 3, 60, 78
6, 79220, Note_off_c, 3, 60, 0
6, 79248, Note_on_c, 3, 63, 78
6, 79248, Note_on_c, 3, 67, 87
6, 79280, Note_off_c, 3, 67, 0
6, 79280, Note_off_c, 3, 63, 0
6, 79296, Note_on_c, 3, 63, 85
6, 79296, Note_on_c, 3, 67, 92
6, 79384, Note_off_c, 3, 67, 0
6, 79384, Note_off_c, 3, 63, 0
6, 79392, Note_on_c, 3, 63, 76
6, 79392, Note_on_c, 3, 67, 85
6, 79436, Note_off_c, 3, 67, 0
6, 79436, Note_off_c, 3, 63, 0
6, 79440, Note_on_c, 3, 63, 71
6, 79440, Note_on_c, 3, 67, 78
6, 79484, Note_off_c, 3, 67, 0
6, 79484, Note_off_c, 3, 63, 0
6, 79488, Note_on_c, 3, 60, 78
6, 79504, Note_off_c, 3, 60, 0
6, 79536, Note_on_c, 3, 65, 77
6, 79536, Note_on_c, 3, 68, 87
6, 79564, Note_off_c, 3, 68, 0
6, 79564, Note_off_c, 3, 65, 0
6, 79584, Note_on_c, 3, 60, 78
6, 79600, Note_off_c, 3, 60, 0
6, 79632, Note_on_c, 3, 65, 77
6, 79632, Note_on_c, 3, 68, 87
6, 79660, Note_off_c, 3, 68, 0
6, 79660, Note_off_c, 3, 65, 0
6, 79680, Note_on_c, 3, 65, 81
6, 79680, Note_on_c, 3, 68, 90
6, 79768, Note_off_c, 3, 68, 0
6, 79768, Note_off_c, 3, 65, 0
6, 79776, Note_on_c, 3, 60, 78
6, 79792, Note_off_c, 3, 60, 0
6, 79824, Note_on_c, 3, 65, 77
6, 79824, Note_on_c, 3, 68, 87
6, 79852, Note_off_c, 3, 68, 0
6, 79852, Note_off_c, 3, 65, 0
6, 79872, Note_on_c, 3, 65, 87
6, 79872, Note_on_c, 3, 70, 101
6, 79964, Note_off_c, 3, 70, 0
6, 79964, Note_off_c, 3, 65, 0
6, 79968, Note_on_c, 3, 65, 85
6, 79968, Note_on_c, 3, 70, 96
6, 80060, Note_off_c, 3, 70, 0
6, 80060, Note_off_c, 3, 65, 0
6, 80064, Note_on_c, 3, 65, 85
6, 80064, Note_on_c, 3, 70, 99
6, 80156, Note_off_c, 3, 70, 0
6, 80156, Note_off_c, 3, 65, 0
6, 80160, Note_on_c, 3, 65, 81
6, 80160, Note_on_c, 3, 70, 94
6, 80252, Note_off_c, 3, 70, 0
6, 80252, Note_off_c, 3, 65, 0
6, 80256, Note_on_c, 3, 63, 77
6, 80256, Note_on_c, 3, 67, 92
6, 80388, Note_off_c, 3, 67, 0
6, 80396, Note_off_c, 3, 63, 0
6, 80400, Note_on_c, 3, 63, 87
6, 80400, Note_on_c, 3, 67, 101
6, 80592, Note_off_c, 3, 67, 0
6, 80592, Note_off_c, 3, 63, 0
6, 80640, Control_c, 3, 11, 70
6, 80640, Note_on_c, 3, 60, 71
6, 80692, Note_off_c, 3, 60, 0
6, 80736, Note_on_c, 3, 63, 71
6, 80736, Note_on_c, 3, 67, 85
6, 80816, Note_off_c, 3, 67, 0
6, 80816, Note_off_c, 3, 63, 0
6, 80832, Note_on_c, 3, 63, 76
6, 80832, Note_on_c, 3, 67, 90
6, 80916, Note_off_c, 3, 67, 0
6, 80916, Note_off_c, 3, 63, 0
6, 80928, Note_on_c, 3, 60, 71
6, 80948, Note_off_c, 3, 60, 0
6, 80976, Note_on_c, 3, 63, 76
6, 80976, Note_on_c, 3, 67, 90
6, 81004, Note_off_c, 3, 67, 0
6, 81004, Note_off_c, 3, 63, 0
6, 81024, Note_on_c, 3, 60, 71
6, 81076, Note_off_c, 3, 60, 0
6, 81120, Note_on_c, 3, 63, 71
6, 81120, Note_on_c, 3, 67, 85
6, 81200, Note_off_c, 3, 67, 0
6, 81200, Note_off_c, 3, 63, 0
6, 81216, Note_on_c, 3, 63, 76
6, 81216, Note_on_c, 3, 67, 90
6, 81300, Note_off_c, 3, 67, 0
6, 81300, Note_off_c, 3, 63, 0
6, 81312, Note_on_c, 3, 60, 71
6, 81332, Note_off_c, 3, 60, 0
6, 81360, Note_on_c, 3, 63, 76
6, 81360, Note_on_c, 3, 67, 90
6, 81388, Note_off_c, 3, 67, 0
6, 81388, Note_off_c, 3, 63, 0
6, 81408, Note_on_c, 3, 62, 85
6, 81408, Note_on_c, 3, 65, 99
6, 81440, Note_off_c, 3, 65, 0
6, 81440, Note_off_c, 3, 62, 0
6, 81456, Note_on_c, 3, 58, 81
6, 81480, Note_off_c, 3, 58, 0
6, 81552, Note_on_c, 3, 58, 81
6, 81576, Note_off_c, 3, 58, 0
6, 81648, Note_on_c, 3, 58, 78
6, 81672, Note_off_c, 3, 58, 0
6, 81696, Note_on_c, 3, 62, 85
6, 81696, Note_on_c, 3, 65, 99
6, 81724, Note_off_c, 3, 65, 0
6, 81724, Note_off_c, 3, 62, 0
6, 81744, Note_on_c, 3, 58, 85
6, 81760, Note_off_c, 3, 58, 0
6, 81792, Note_on_c, 3, 60, 62
6, 81792, Note_on_c, 3, 63, 77
6, 81884, Note_off_c, 3, 63, 0
6, 81884, Note_off_c, 3, 60, 0
6, 81888, Note_on_c, 3, 60, 66
6, 81888, Note_on_c, 3, 63, 81
6, 81980, Note_off_c, 3, 63, 0
6, 81980, Note_off_c, 3, 60, 0
6, 81984, Note_on_c, 3, 63, 81
6, 81984, Note_on_c, 3, 67, 96
6, 82076, Note_off_c, 3, 67, 0
6, 82076, Note_off_c, 3, 63, 0
6, 82080, Note_on_c, 3, 62, 99
6, 82112, Note_off_c, 3, 62, 0
6, 82128, Note_on_c, 3, 62, 78
6, 82160, Note_off_c, 3, 62, 0
6, 82176, Note_on_c, 3, 60, 81
6, 82176, Note_on_c, 3, 63, 96
6, 82244, Note_off_c, 3, 63, 0
6, 82244, Note_off_c, 3, 60, 0
6, 82272, Note_on_c, 3, 56, 78
6, 82292, Note_off_c, 3, 56, 0
6, 82320, Note_on_c, 3, 60, 58
6, 82320, Note_on_c, 3, 63, 71
6, 82364, Note_off_c, 3, 63, 0
6, 82364, Note_off_c, 3, 60, 0
6, 82416, Note_on_c, 3, 56, 78
6, 82436, Note_off_c, 3, 56, 0
6, 82464, Note_on_c, 3, 60, 60
6, 82464, Note_on_c, 3, 63, 76
6, 82532, Note_off_c, 3, 63, 0
6, 82532, Note_off_c, 3, 60, 0
6, 82560, Note_on_c, 3, 62, 81
6, 82560, Note_on_c, 3, 65, 96
6, 82628, Note_off_c, 3, 65, 0
6, 82628, Note_off_c, 3, 62, 0
6, 82656, Note_on_c, 3, 58, 78
6, 82680, Note_off_c, 3, 58, 0
6, 82704, Note_on_c, 3, 58, 81
6, 82704, Note_on_c, 3, 62, 96
6, 82772, Note_off_c, 3, 62, 0
6, 82772, Note_off_c, 3, 58, 0
6, 82800, Note_on_c, 3, 53, 78
6, 82824, Note_off_c, 3, 53, 0
6, 82848, Note_on_c, 3, 60, 94
6, 82892, Note_off_c, 3, 60, 0
6, 82896, Note_on_c, 3, 60, 78
6, 82928, Note_off_c, 3, 60, 0
6, 82944, Note_on_c, 3, 61, 81
6, 82944, Note_on_c, 3, 65, 96
6, 83012, Note_off_c, 3, 65, 0
6, 83012, Note_off_c, 3, 61, 0
6, 83040, Note_on_c, 3, 58, 78
6, 83076, Note_off_c, 3, 58, 0
6, 83088, Note_on_c, 3, 63, 81
6, 83088, Note_on_c, 3, 67, 96
6, 83180, Note_off_c, 3, 67, 0
6, 83180, Note_off_c, 3, 63, 0
6, 83184, Note_on_c, 3, 58, 78
6, 83212, Note_off_c, 3, 58, 0
6, 83232, Note_on_c, 3, 61, 68
6, 83232, Note_on_c, 3, 65, 85
6, 83276, Note_off_c, 3, 65, 0
6, 83276, Note_off_c, 3, 61, 0
6, 83328, Note_on_c, 3, 63, 81
6, 83328, Note_on_c, 3, 67, 96
6, 83460, Note_off_c, 3, 67, 0
6, 83460, Note_off_c, 3, 63, 0
6, 83472, Note_on_c, 3, 63, 78
6, 83472, Note_on_c, 3, 67, 92
6, 83604, Note_off_c, 3, 67, 0
6, 83604, Note_off_c, 3, 63, 0
6, 83616, Note_on_c, 3, 63, 85
6, 83616, Note_on_c, 3, 67, 99
6, 83660, Note_off_c, 3, 67, 0
6, 83660, Note_off_c, 3, 63, 0
6, 83712, Note_on_c, 3, 60, 71
6, 83764, Note_off_c, 3, 60, 0
6, 83808, Note_on_c, 3, 63, 71
6, 83808, Note_on_c, 3, 67, 85
6, 83888, Note_off_c, 3, 67, 0
6, 83888, Note_off_c, 3, 63, 0
6, 83904, Note_on_c, 3, 63, 76
6, 83904, Note_on_c, 3, 67, 90
6, 83988, Note_off_c, 3, 67, 0
6, 83988, Note_off_c, 3, 63, 0
6, 84000, Note_on_c, 3, 60, 71
6, 84020, Note_off_c, 3, 60, 0
6, 84048, Note_on_c, 3, 63, 76
6, 84048, Note_on_c, 3, 67, 90
6, 84076, Note_off_c, 3, 67, 0
6, 84076, Note_off_c, 3, 63, 0
6, 84096, Note_on_c, 3, 60, 71
6, 84148, Note_off_c, 3, 60, 0
6, 84192, Note_on_c, 3, 63, 71
6, 84192, Note_on_c, 3, 67, 85
6, 84272, Note_off_c, 3, 67, 0
6, 84272, Note_off_c, 3, 63, 0
6, 84288, Note_on_c, 3, 63, 76
6, 84288, Note_on_c, 3, 67, 90
6, 84372, Note_off_c, 3, 67, 0
6, 84372, Note_off_c, 3, 63, 0
6, 84384, Note_on_c, 3, 60, 71
6, 84404, Note_off_c, 3, 60, 0
6, 84432, Note_on_c, 3, 63, 76
6, 84432, Note_on_c, 3, 67, 90
6, 84460, Note_off_c, 3, 67, 0
6, 84460, Note_off_c, 3, 63, 0
6, 84480, Note_on_c, 3, 62, 85
6, 84480, Note_on_c, 3, 65, 99
6, 84512, Note_off_c, 3, 65, 0
6, 84512, Note_off_c, 3, 62, 0
6, 84528, Note_on_c, 3, 58, 81
6, 84552, Note_off_c, 3, 58, 0
6, 84624, Note_on_c, 3, 58, 81
6, 84648, Note_off_c, 3, 58, 0
6, 84720, Note_on_c, 3, 58, 78
6, 84744, Note_off_c, 3, 58, 0
6, 84768, Note_on_c, 3, 62, 85
6, 84768, Note_on_c, 3, 65, 99
6, 84796, Note_off_c, 3, 65, 0
6, 84796, Note_off_c, 3, 62, 0
6, 84816, Note_on_c, 3, 58, 85
6, 84832, Note_off_c, 3, 58, 0
6, 84864, Note_on_c, 3, 60, 62
6, 84864, Note_on_c, 3, 63, 77
6, 84956, Note_off_c, 3, 63, 0
6, 84956, Note_off_c, 3, 60, 0
6, 84960, Note_on_c, 3, 60, 66
6, 84960, Note_on_c, 3, 63, 81
6, 85052, Note_off_c, 3, 63, 0
6, 85052, Note_off_c, 3, 60, 0
6, 85056, Note_on_c, 3, 63, 81
6, 85056, Note_on_c, 3, 67, 96
6, 85148, Note_off_c, 3, 67, 0
6, 85148, Note_off_c, 3, 63, 0
6, 85152, Note_on_c, 3, 62, 99
6, 85184, Note_off_c, 3, 62, 0
6, 85200, Note_on_c, 3, 62, 78
6, 85232, Note_off_c, 3, 62, 0
6, 85248, Note_on_c, 3, 62, 81
6, 85248, Note_on_c, 3, 67, 96
6, 85316, Note_off_c, 3, 67, 0
6, 85316, Note_off_c, 3, 62, 0
6, 85344, Note_on_c, 3, 56, 78
6, 85364, Note_off_c, 3, 56, 0
6, 85392, Note_on_c, 3, 65, 58
6, 85392, Note_on_c, 3, 68, 71
6, 85436, Note_off_c, 3, 68, 0
6, 85436, Note_off_c, 3, 65, 0
6, 85488, Note_on_c, 3, 62, 78
6, 85508, Note_off_c, 3, 62, 0
6, 85536, Note_on_c, 3, 62, 60
6, 85536, Note_on_c, 3, 67, 76
6, 85604, Note_off_c, 3, 67, 0
6, 85604, Note_off_c, 3, 62, 0
6, 85632, Note_on_c, 3, 62, 81
6, 85632, Note_on_c, 3, 65, 96
6, 85700, Note_off_c, 3, 65, 0
6, 85700, Note_off_c, 3, 62, 0
6, 85728, Note_on_c, 3, 56, 78
6, 85752, Note_off_c, 3, 56, 0
6, 85776, Note_on_c, 3, 56, 81
6, 85776, Note_on_c, 3, 62, 96
6, 85844, Note_off_c, 3, 62, 0
6, 85844, Note_off_c, 3, 56, 0
6, 85872, Note_on_c, 3, 53, 78
6, 85896, Note_off_c, 3, 53, 0
6, 85920, Note_on_c, 3, 62, 94
6, 85964, Note_off_c, 3, 62, 0
6, 85968, Note_on_c, 3, 62, 78
6, 86000, Note_off_c, 3, 62, 0
6, 86016, Note_on_c, 3, 59, 81
6, 86016, Note_on_c, 3, 62, 96
6, 86396, Note_off_c, 3, 62, 0
6, 86396, Note_off_c, 3, 59, 0
6, 86784, Control_c, 3, 11, 80
6, 86784, Note_on_c, 3, 60, 78
6, 86804, Note_off_c, 3, 60, 0
6, 86832, Note_on_c, 3, 63, 85
6, 86832, Note_on_c, 3, 67, 92
6, 86864, Note_off_c, 3, 67, 0
6, 86864, Note_off_c, 3, 63, 0
6, 86880, Note_on_c, 3, 60, 78
6, 86900, Note_off_c, 3, 60, 0
6, 86928, Note_on_c, 3, 63, 78
6, 86928, Note_on_c, 3, 67, 87
6, 86960, Note_off_c, 3, 67, 0
6, 86960, Note_off_c, 3, 63, 0
6, 86976, Note_on_c, 3, 63, 85
6, 86976, Note_on_c, 3, 67, 92
6, 87064, Note_off_c, 3, 67, 0
6, 87064, Note_off_c, 3, 63, 0
6, 87072, Note_on_c, 3, 63, 76
6, 87072, Note_on_c, 3, 67, 85
6, 87116, Note_off_c, 3, 67, 0
6, 87116, Note_off_c, 3, 63, 0
6, 87120, Note_on_c, 3, 63, 71
6, 87120, Note_on_c, 3, 67, 78
6, 87164, Note_off_c, 3, 67, 0
6, 87164, Note_off_c, 3, 63, 0
6, 87168, Note_on_c, 3, 60, 78
6, 87184, Note_off_c, 3, 60, 0
6, 87216, Note_on_c, 3, 65, 77
6, 87216, Note_on_c, 3, 68, 87
6, 87244, Note_off_c, 3, 68, 0
6, 87244, Note_off_c, 3, 65, 0
6, 87264, Note_on_c, 3, 60, 78
6, 87280, Note_off_c, 3, 60, 0
6, 87312, Note_on_c, 3, 65, 77
6, 87312, Note_on_c, 3, 68, 87
6, 87340, Note_off_c, 3, 68, 0
6, 87340, Note_off_c, 3, 65, 0
6, 87360, Note_on_c, 3, 65, 81
6, 87360, Note_on_c, 3, 68, 90
6, 87448, Note_off_c, 3, 68, 0
6, 87448, Note_off_c, 3, 65, 0
6, 87456, Note_on_c, 3, 60, 78
6, 87472, Note_off_c, 3, 60, 0
6, 87504, Note_on_c, 3, 65, 77
6, 87504, Note_on_c, 3, 68, 87
6, 87532, Note_off_c, 3, 68, 0
6, 87532, Note_off_c, 3, 65, 0
6, 87552, Note_on_c, 3, 62, 92
6, 87568, Note_off_c, 3, 62, 0
6, 87600, Note_on_c, 3, 65, 71
6, 87600, Note_on_c, 3, 70, 85
6, 87632, Note_off_c, 3, 70, 0
6, 87640, Note_off_c, 3, 65, 0
6, 87648, Note_on_c, 3, 62, 92
6, 87684, Note_off_c, 3, 62, 0
6, 87696, Note_on_c, 3, 65, 71
6, 87696, Note_on_c, 3, 70, 87
6, 87728, Note_off_c, 3, 70, 0
6, 87736, Note_off_c, 3, 65, 0
6, 87744, Note_on_c, 3, 65, 87
6, 87744, Note_on_c, 3, 70, 101
6, 87828, Note_off_c, 3, 70, 0
6, 87836, Note_off_c, 3, 65, 0
6, 87840, Note_on_c, 3, 65, 77
6, 87840, Note_on_c, 3, 70, 90
6, 87880, Note_off_c, 3, 70, 0
6, 87888, Note_off_c, 3, 65, 0
6, 87888, Note_on_c, 3, 65, 77
6, 87888, Note_on_c, 3, 70, 90
6, 87928, Note_off_c, 3, 70, 0
6, 87936, Note_off_c, 3, 65, 0
6, 87936, Note_on_c, 3, 67, 77
6, 87936, Note_on_c, 3, 70, 90
6, 87976, Note_off_c, 3, 70, 0
6, 87984, Note_off_c, 3, 67, 0
6, 87984, Note_on_c, 3, 67, 77
6, 87984, Note_on_c, 3, 70, 90
6, 88008, Note_off_c, 3, 70, 0
6, 88016, Note_off_c, 3, 67, 0
6, 88032, Note_on_c, 3, 67, 77
6, 88032, Note_on_c, 3, 70, 90
6, 88072, Note_off_c, 3, 70, 0
6, 88080, Note_off_c, 3, 67, 0
6, 88080, Note_on_c, 3, 67, 77
6, 88080, Note_on_c, 3, 70, 90
6, 88104, Note_off_c, 3, 70, 0
6, 88112, Note_off_c, 3, 67, 0
6, 88128, Note_on_c, 3, 67, 77
6, 88128, Note_on_c, 3, 70, 90
6, 88168, Note_off_c, 3, 70, 0
6, 88176, Note_off_c, 3, 67, 0
6, 88176, Note_on_c, 3, 67, 77
6, 88176, Note_on_c, 3, 70, 90
6, 88216, Note_off_c, 3, 70, 0
6, 88224, Note_off_c, 3, 67, 0
6, 88224, Note_on_c, 3, 67, 85
6, 88224, Note_on_c, 3, 70, 99
6, 88308, Note_off_c, 3, 70, 0
6, 88316, Note_off_c, 3, 67, 0
6, 88320, Note_on_c, 3, 60, 78
6, 88340, Note_off_c, 3, 60, 0
6, 88368, Note_on_c, 3, 67, 85
6, 88368, Note_on_c, 3, 72, 92
6, 88400, Note_off_c, 3, 72, 0
6, 88400, Note_off_c, 3, 67, 0
6, 88416, Note_on_c, 3, 60, 78
6, 88436, Note_off_c, 3, 60, 0
6, 88464, Note_on_c, 3, 67, 78
6, 88464, Note_on_c, 3, 72, 87
6, 88496, Note_off_c, 3, 72, 0
6, 88496, Note_off_c, 3, 67, 0
6, 88512, Note_on_c, 3, 67, 85
6, 88512, Note_on_c, 3, 72, 92
6, 88600, Note_off_c, 3, 72, 0
6, 88600, Note_off_c, 3, 67, 0
6, 88608, Note_on_c, 3, 67, 76
6, 88608, Note_on_c, 3, 72, 85
6, 88652, Note_off_c, 3, 72, 0
6, 88652, Note_off_c, 3, 67, 0
6, 88656, Note_on_c, 3, 67, 71
6, 88656, Note_on_c, 3, 72, 78
6, 88700, Note_off_c, 3, 72, 0
6, 88700, Note_off_c, 3, 67, 0
6, 88704, Note_on_c, 3, 60, 78
6, 88720, Note_off_c, 3, 60, 0
6, 88752, Note_on_c, 3, 68, 77
6, 88752, Note_on_c, 3, 72, 87
6, 88780, Note_off_c, 3, 72, 0
6, 88780, Note_off_c, 3, 68, 0
6, 88800, Note_on_c, 3, 60, 78
6, 88816, Note_off_c, 3, 60, 0
6, 88848, Note_on_c, 3, 68, 77
6, 88848, Note_on_c, 3, 72, 87
6, 88876, Note_off_c, 3, 72, 0
6, 88876, Note_off_c, 3, 68, 0
6, 88896, Note_on_c, 3, 68, 81
6, 88896, Note_on_c, 3, 72, 90
6, 88984, Note_off_c, 3, 72, 0
6, 88984, Note_off_c, 3, 68, 0
6, 88992, Note_on_c, 3, 60, 78
6, 89008, Note_off_c, 3, 60, 0
6, 89040, Note_on_c, 3, 68, 77
6, 89040, Note_on_c, 3, 72, 87
6, 89068, Note_off_c, 3, 72, 0
6, 89068, Note_off_c, 3, 68, 0
6, 89088, Note_on_c, 3, 62, 92
6, 89104, Note_off_c, 3, 62, 0
6, 89136, Note_on_c, 3, 65, 71
6, 89136, Note_on_c, 3, 70, 85
6, 89168, Note_off_c, 3, 70, 0
6, 89176, Note_off_c, 3, 65, 0
6, 89184, Note_on_c, 3, 62, 92
6, 89220, Note_off_c, 3, 62, 0
6, 89232, Note_on_c, 3, 65, 71
6, 89232, Note_on_c, 3, 70, 87
6, 89264, Note_off_c, 3, 70, 0
6, 89272, Note_off_c, 3, 65, 0
6, 89280, Note_on_c, 3, 65, 87
6, 89280, Note_on_c, 3, 70, 101
6, 89364, Note_off_c, 3, 70, 0
6, 89372, Note_off_c, 3, 65, 0
6, 89376, Note_on_c, 3, 65, 77
6, 89376, Note_on_c, 3, 70, 90
6, 89416, Note_off_c, 3, 70, 0
6, 89424, Note_off_c, 3, 65, 0
6, 89424, Note_on_c, 3, 65, 77
6, 89424, Note_on_c, 3, 70, 90
6, 89464, Note_off_c, 3, 70, 0
6, 89472, Note_off_c, 3, 65, 0
6, 89472, Note_on_c, 3, 67, 77
6, 89472, Note_on_c, 3, 70, 90
6, 89512, Note_off_c, 3, 70, 0
6, 89520, Note_off_c, 3, 67, 0
6, 89520, Note_on_c, 3, 67, 77
6, 89520, Note_on_c, 3, 70, 90
6, 89544, Note_off_c, 3, 70, 0
6, 89552, Note_off_c, 3, 67, 0
6, 89568, Note_on_c, 3, 67, 77
6, 89568, Note_on_c, 3, 70, 90
6, 89608, Note_off_c, 3, 70, 0
6, 89616, Note_off_c, 3, 67, 0
6, 89616, Note_on_c, 3, 67, 77
6, 89616, Note_on_c, 3, 70, 90
6, 89640, Note_off_c, 3, 70, 0
6, 89648, Note_off_c, 3, 67, 0
6, 89664, Note_on_c, 3, 67, 77
6, 89664, Note_on_c, 3, 70, 90
6, 89704, Note_off_c, 3, 70, 0
6, 89712, Note_off_c, 3, 67, 0
6, 89712, Note_on_c, 3, 67, 77
6, 89712, Note_on_c, 3, 70, 90
6, 89752, Note_off_c, 3, 70, 0
6, 89760, Note_off_c, 3, 67, 0
6, 89760, Note_on_c, 3, 67, 85
6, 89760, Note_on_c, 3, 70, 99
6, 89844, Note_off_c, 3, 70, 0
6, 89852, Note_off_c, 3, 67, 0
6, 89856, Note_on_c, 3, 60, 78
6, 89876, Note_off_c, 3, 60, 0
6, 89904, Note_on_c, 3, 63, 85
6, 89904, Note_on_c, 3, 67, 92
6, 89936, Note_off_c, 3, 67, 0
6, 89936, Note_off_c, 3, 63, 0
6, 89952, Note_on_c, 3, 60, 78
6, 89972, Note_off_c, 3, 60, 0
6, 90000, Note_on_c, 3, 63, 78
6, 90000, Note_on_c, 3, 67, 87
6, 90032, Note_off_c, 3, 67, 0
6, 90032, Note_off_c, 3, 63, 0
6, 90048, Note_on_c, 3, 63, 85
6, 90048, Note_on_c, 3, 67, 92
6, 90136, Note_off_c, 3, 67, 0
6, 90136, Note_off_c, 3, 63, 0
6, 90144, Note_on_c, 3, 63, 76
6, 90144, Note_on_c, 3, 67, 85
6, 90188, Note_off_c, 3, 67, 0
6, 90188, Note_off_c, 3, 63, 0
6, 90192, Note_on_c, 3, 63, 71
6, 90192, Note_on_c, 3, 67, 78
6, 90236, Note_off_c, 3, 67, 0
6, 90236, Note_off_c, 3, 63, 0
6, 90240, Note_on_c, 3, 60, 78
6, 90256, Note_off_c, 3, 60, 0
6, 90288, Note_on_c, 3, 65, 77
6, 90288, Note_on_c, 3, 68, 87
6, 90316, Note_off_c, 3, 68, 0
6, 90316, Note_off_c, 3, 65, 0
6, 90336, Note_on_c, 3, 60, 78
6, 90352, Note_off_c, 3, 60, 0
6, 90384, Note_on_c, 3, 65, 77
6, 90384, Note_on_c, 3, 68, 87
6, 90412, Note_off_c, 3, 68, 0
6, 90412, Note_off_c, 3, 65, 0
6, 90432, Note_on_c, 3, 65, 81
6, 90432, Note_on_c, 3, 68, 90
6, 90520, Note_off_c, 3, 68, 0
6, 90520, Note_off_c, 3, 65, 0
6, 90528, Note_on_c, 3, 60, 78
6, 90544, Note_off_c, 3, 60, 0
6, 90576, Note_on_c, 3, 65, 77
6, 90576, Note_on_c, 3, 68, 87
6, 90604, Note_off_c, 3, 68, 0
6, 90604, Note_off_c, 3, 65, 0
6, 90624, Note_on_c, 3, 62, 92
6, 90640, Note_off_c, 3, 62, 0
6, 90672, Note_on_c, 3, 65, 71
6, 90672, Note_on_c, 3, 70, 85
6, 90704, Note_off_c, 3, 70, 0
6, 90712, Note_off_c, 3, 65, 0
6, 90720, Note_on_c, 3, 62, 92
6, 90756, Note_off_c, 3, 62, 0
6, 90768, Note_on_c, 3, 65, 71
6, 90768, Note_on_c, 3, 70, 87
6, 90800, Note_off_c, 3, 70, 0
6, 90808, Note_off_c, 3, 65, 0
6, 90816, Note_on_c, 3, 65, 87
6, 90816, Note_on_c, 3, 70, 101
6, 90900, Note_off_c, 3, 70, 0
6, 90908, Note_off_c, 3, 65, 0
6, 90912, Note_on_c, 3, 65, 77
6, 90912, Note_on_c, 3, 70, 90
6, 90952, Note_off_c, 3, 70, 0
6, 90960, Note_off_c, 3, 65, 0
6, 90960, Note_on_c, 3, 65, 77
6, 90960, Note_on_c, 3, 70, 90
6, 91000, Note_off_c, 3, 70, 0
6, 91008, Note_off_c, 3, 65, 0
6, 91008, Note_on_c, 3, 67, 77
6, 91008, Note_on_c, 3, 70, 90
6, 91048, Note_off_c, 3, 70, 0
6, 91056, Note_off_c, 3, 67, 0
6, 91056, Note_on_c, 3, 67, 77
6, 91056, Note_on_c, 3, 70, 90
6, 91080, Note_off_c, 3, 70, 0
6, 91088, Note_off_c, 3, 67, 0
6, 91104, Note_on_c, 3, 67, 77
6, 91104, Note_on_c, 3, 70, 90
6, 91144, Note_off_c, 3, 70, 0
6, 91152, Note_off_c, 3, 67, 0
6, 91152, Note_on_c, 3, 67, 77
6, 91152, Note_on_c, 3, 70, 90
6, 91176, Note_off_c, 3, 70, 0
6, 91184, Note_off_c, 3, 67, 0
6, 91200, Note_on_c, 3, 67, 77
6, 91200, Note_on_c, 3, 70, 90
6, 91240, Note_off_c, 3, 70, 0
6, 91248, Note_off_c, 3, 67, 0
6, 91248, Note_on_c, 3, 67, 77
6, 91248, Note_on_c, 3, 70, 90
6, 91288, Note_off_c, 3, 70, 0
6, 91296, Note_off_c, 3, 67, 0
6, 91296, Note_on_c, 3, 67, 85
6, 91296, Note_on_c, 3, 70, 99
6, 91380, Note_off_c, 3, 70, 0
6, 91388, Note_off_c, 3, 67, 0
6, 91392, Note_on_c, 3, 60, 78
6, 91412, Note_off_c, 3, 60, 0
6, 91440, Note_on_c, 3, 67, 85
6, 91440, Note_on_c, 3, 72, 92
6, 91472, Note_off_c, 3, 72, 0
6, 91472, Note_off_c, 3, 67, 0
6, 91488, Note_on_c, 3, 60, 78
6, 91508, Note_off_c, 3, 60, 0
6, 91536, Note_on_c, 3, 67, 78
6, 91536, Note_on_c, 3, 72, 87
6, 91568, Note_off_c, 3, 72, 0
6, 91568, Note_off_c, 3, 67, 0
6, 91584, Note_on_c, 3, 67, 85
6, 91584, Note_on_c, 3, 72, 92
6, 91672, Note_off_c, 3, 72, 0
6, 91672, Note_off_c, 3, 67, 0
6, 91680, Note_on_c, 3, 67, 76
6, 91680, Note_on_c, 3, 72, 85
6, 91724, Note_off_c, 3, 72, 0
6, 91724, Note_off_c, 3, 67, 0
6, 91728, Note_on_c, 3, 67, 71
6, 91728, Note_on_c, 3, 72, 78
6, 91772, Note_off_c, 3, 72, 0
6, 91772, Note_off_c, 3, 67, 0
6, 91776, Note_on_c, 3, 60, 78
6, 91792, Note_off_c, 3, 60, 0
6, 91824, Note_on_c, 3, 68, 77
6, 91824, Note_on_c, 3, 72, 87
6, 91852, Note_off_c, 3, 72, 0
6, 91852, Note_off_c, 3, 68, 0
6, 91872, Note_on_c, 3, 60, 78
6, 91888, Note_off_c, 3, 60, 0
6, 91920, Note_on_c, 3, 68, 77
6, 91920, Note_on_c, 3, 72, 87
6, 91948, Note_off_c, 3, 72, 0
6, 91948, Note_off_c, 3, 68, 0
6, 91968, Note_on_c, 3, 68, 81
6, 91968, Note_on_c, 3, 72, 90
6, 92056, Note_off_c, 3, 72, 0
6, 92056, Note_off_c, 3, 68, 0
6, 92064, Note_on_c, 3, 60, 78
6, 92080, Note_off_c, 3, 60, 0
6, 92112, Note_on_c, 3, 68, 77
6, 92112, Note_on_c, 3, 72, 87
6, 92140, Note_off_c, 3, 72, 0
6, 92140, Note_off_c, 3, 68, 0
6, 92160, Note_on_c, 3, 65, 87
6, 92160, Note_on_c, 3, 70, 101
6, 92252, Note_off_c, 3, 70, 0
6, 92252, Note_off_c, 3, 65, 0
6, 92256, Note_on_c, 3, 65, 85
6, 92256, Note_on_c, 3, 70, 96
6, 92348, Note_off_c, 3, 70, 0
6, 92348, Note_off_c, 3, 65, 0
6, 92352, Note_on_c, 3, 65, 85
6, 92352, Note_on_c, 3, 70, 99
6, 92444, Note_off_c, 3, 70, 0
6, 92444, Note_off_c, 3, 65, 0
6, 92448, Note_on_c, 3, 65, 81
6, 92448, Note_on_c, 3, 70, 94
6, 92540, Note_off_c, 3, 70, 0
6, 92540, Note_off_c, 3, 65, 0
6, 92544, Note_on_c, 3, 63, 77
6, 92544, Note_on_c, 3, 67, 92
6, 92676, Note_off_c, 3, 67, 0
6, 92684, Note_off_c, 3, 63, 0
6, 92688, Note_on_c, 3, 63, 87
6, 92688, Note_on_c, 3, 67, 101
6, 92880, Note_off_c, 3, 67, 0
6, 92880, Note_off_c, 3, 63, 0
6, 92928, Note_on_c, 3, 60, 78
6, 92948, Note_off_c, 3, 60, 0
6, 92976, Note_on_c, 3, 63, 85
6, 92976, Note_on_c, 3, 67, 92
6, 93008, Note_off_c, 3, 67, 0
6, 93008, Note_off_c, 3, 63, 0
6, 93024, Note_on_c, 3, 60, 78
6, 93044, Note_off_c, 3, 60, 0
6, 93072, Note_on_c, 3, 63, 78
6, 93072, Note_on_c, 3, 67, 87
6, 93104, Note_off_c, 3, 67, 0
6, 93104, Note_off_c, 3, 63, 0
6, 93120, Note_on_c, 3, 63, 85
6, 93120, Note_on_c, 3, 67, 92
6, 93208, Note_off_c, 3, 67, 0
6, 93208, Note_off_c, 3, 63, 0
6, 93216, Note_on_c, 3, 63, 76
6, 93216, Note_on_c, 3, 67, 85
6, 93260, Note_off_c, 3, 67, 0
6, 93260, Note_off_c, 3, 63, 0
6, 93264, Note_on_c, 3, 63, 71
6, 93264, Note_on_c, 3, 67, 78
6, 93308, Note_off_c, 3, 67, 0
6, 93308, Note_off_c, 3, 63, 0
6, 93312, Note_on_c, 3, 60, 78
6, 93328, Note_off_c, 3, 60, 0
6, 93360, Note_on_c, 3, 65, 77
6, 93360, Note_on_c, 3, 68, 87
6, 93388, Note_off_c, 3, 68, 0
6, 93388, Note_off_c, 3, 65, 0
6, 93408, Note_on_c, 3, 60, 78
6, 93424, Note_off_c, 3, 60, 0
6, 93456, Note_on_c, 3, 65, 77
6, 93456, Note_on_c, 3, 68, 87
6, 93484, Note_off_c, 3, 68, 0
6, 93484, Note_off_c, 3, 65, 0
6, 93504, Note_on_c, 3, 65, 81
6, 93504, Note_on_c, 3, 68, 90
6, 93592, Note_off_c, 3, 68, 0
6, 93592, Note_off_c, 3, 65, 0
6, 93600, Note_on_c, 3, 60, 78
6, 93616, Note_off_c, 3, 60, 0
6, 93648, Note_on_c, 3, 65, 77
6, 93648, Note_on_c, 3, 68, 87
6, 93676, Note_off_c, 3, 68, 0
6, 93676, Note_off_c, 3, 65, 0
6, 93696, Note_on_c, 3, 62, 92
6, 93712, Note_off_c, 3, 62, 0
6, 93744, Note_on_c, 3, 65, 71
6, 93744, Note_on_c, 3, 70, 85
6, 93776, Note_off_c, 3, 70, 0
6, 93784, Note_off_c, 3, 65, 0
6, 93792, Note_on_c, 3, 62, 92
6, 93828, Note_off_c, 3, 62, 0
6, 93840, Note_on_c, 3, 65, 71
6, 93840, Note_on_c, 3, 70, 87
6, 93872, Note_off_c, 3, 70, 0
6, 93880, Note_off_c, 3, 65, 0
6, 93888, Note_on_c, 3, 65, 87
6, 93888, Note_on_c, 3, 70, 101
6, 93972, Note_off_c, 3, 70, 0
6, 93980, Note_off_c, 3, 65, 0
6, 93984, Note_on_c, 3, 65, 77
6, 93984, Note_on_c, 3, 70, 90
6, 94024, Note_off_c, 3, 70, 0
6, 94032, Note_off_c, 3, 65, 0
6, 94032, Note_on_c, 3, 65, 77
6, 94032, Note_on_c, 3, 70, 90
6, 94072, Note_off_c, 3, 70, 0
6, 94080, Note_off_c, 3, 65, 0
6, 94080, Note_on_c, 3, 67, 77
6, 94080, Note_on_c, 3, 70, 90
6, 94120, Note_off_c, 3, 70, 0
6, 94128, Note_off_c, 3, 67, 0
6, 94128, Note_on_c, 3, 67, 77
6, 94128, Note_on_c, 3, 70, 90
6, 94152, Note_off_c, 3, 70, 0
6, 94160, Note_off_c, 3, 67, 0
6, 94176, Note_on_c, 3, 67, 77
6, 94176, Note_on_c, 3, 70, 90
6, 94216, Note_off_c, 3, 70, 0
6, 94224, Note_off_c, 3, 67, 0
6, 94224, Note_on_c, 3, 67, 77
6, 94224, Note_on_c, 3, 70, 90
6, 94248, Note_off_c, 3, 70, 0
6, 94256, Note_off_c, 3, 67, 0
6, 94272, Note_on_c, 3, 67, 77
6, 94272, Note_on_c, 3, 70, 90
6, 94312, Note_off_c, 3, 70, 0
6, 94320, Note_off_c, 3, 67, 0
6, 94320, Note_on_c, 3, 67, 77
6, 94320, Note_on_c, 3, 70, 90
6, 94360, Note_off_c, 3, 70, 0
6, 94368, Note_off_c, 3, 67, 0
6, 94368, Note_on_c, 3, 67, 85
6, 94368, Note_on_c, 3, 70, 99
6, 94452, Note_off_c, 3, 70, 0
6, 94460, Note_off_c, 3, 67, 0
6, 94464, Note_on_c, 3, 60, 78
6, 94484, Note_off_c, 3, 60, 0
6, 94512, Note_on_c, 3, 63, 85
6, 94512, Note_on_c, 3, 67, 92
6, 94544, Note_off_c, 3, 67, 0
6, 94544, Note_off_c, 3, 63, 0
6, 94560, Note_on_c, 3, 60, 78
6, 94580, Note_off_c, 3, 60, 0
6, 94608, Note_on_c, 3, 63, 78
6, 94608, Note_on_c, 3, 67, 87
6, 94640, Note_off_c, 3, 67, 0
6, 94640, Note_off_c, 3, 63, 0
6, 94656, Note_on_c, 3, 63, 85
6, 94656, Note_on_c, 3, 67, 92
6, 94744, Note_off_c, 3, 67, 0
6, 94744, Note_off_c, 3, 63, 0
6, 94752, Note_on_c, 3, 63, 76
6, 94752, Note_on_c, 3, 67, 85
6, 94796, Note_off_c, 3, 67, 0
6, 94796, Note_off_c, 3, 63, 0
6, 94800, Note_on_c, 3, 63, 71
6, 94800, Note_on_c, 3, 67, 78
6, 94844, Note_off_c, 3, 67, 0
6, 94844, Note_off_c, 3, 63, 0
6, 94848, Note_on_c, 3, 60, 78
6, 94864, Note_off_c, 3, 60, 0
6, 94896, Note_on_c, 3, 65, 77
6, 94896, Note_on_c, 3, 68, 87
6, 94924, Note_off_c, 3, 68, 0
6, 94924, Note_off_c, 3, 65, 0
6, 94944, Note_on_c, 3, 60, 78
6, 94960, Note_off_c, 3, 60, 0
6, 94992, Note_on_c, 3, 65, 77
6, 94992, Note_on_c, 3, 68, 87
6, 95020, Note_off_c, 3, 68, 0
6, 95020, Note_off_c, 3, 65, 0
6, 95040, Note_on_c, 3, 65, 81
6, 95040, Note_on_c, 3, 68, 90
6, 95128, Note_off_c, 3, 68, 0
6, 95128, Note_off_c, 3, 65, 0
6, 95136, Note_on_c, 3, 60, 78
6, 95152, Note_off_c, 3, 60, 0
6, 95184, Note_on_c, 3, 65, 77
6, 95184, Note_on_c, 3, 68, 87
6, 95212, Note_off_c, 3, 68, 0
6, 95212, Note_off_c, 3, 65, 0
6, 95232, Note_on_c, 3, 65, 87
6, 95232, Note_on_c, 3, 70, 101
6, 95324, Note_off_c, 3, 70, 0
6, 95324, Note_off_c, 3, 65, 0
6, 95328, Note_on_c, 3, 65, 85
6, 95328, Note_on_c, 3, 70, 96
6, 95420, Note_off_c, 3, 70, 0
6, 95420, Note_off_c, 3, 65, 0
6, 95424, Note_on_c, 3, 65, 85
6, 95424, Note_on_c, 3, 70, 99
6, 95516, Note_off_c, 3, 70, 0
6, 95516, Note_off_c, 3, 65, 0
6, 95520, Note_on_c, 3, 65, 81
6, 95520, Note_on_c, 3, 70, 94
6, 95612, Note_off_c, 3, 70, 0
6, 95612, Note_off_c, 3, 65, 0
6, 95616, Note_on_c, 3, 63, 77
6, 95616, Note_on_c, 3, 67, 92
6, 95748, Note_off_c, 3, 67, 0
6, 95756, Note_off_c, 3, 63, 0
6, 95760, Note_on_c, 3, 63, 87
6, 95760, Note_on_c, 3, 67, 101
6, 95952, Note_off_c, 3, 67, 0
6, 95952, Note_off_c, 3, 63, 0
6, 95952, End_track
7, 0, Start_track
7, 0, Title_t, "@"
7, 0, Channel_prefix, 4
7, 0, Control_c, 4, 7, 100
7, 0, Program_c, 4, 29
7, 0, Control_c, 4, 0, 0
7, 6912, Pitch_bend_c, 4, 8222
7, 6912, Note_on_c, 4, 39, 72
7, 6912, Note_on_c, 4, 51, 59
7, 7632, Pitch_bend_c, 4, 8176
7, 7636, Pitch_bend_c, 4, 8167
7, 7640, Pitch_bend_c, 4, 8137
7, 7644, Pitch_bend_c, 4, 8086
7, 7648, Pitch_bend_c, 4, 8017
7, 7652, Pitch_bend_c, 4, 7931
7, 7656, Pitch_bend_c, 4, 7829
7, 7660, Pitch_bend_c, 4, 7714
7, 7664, Pitch_bend_c, 4, 7588
7, 7668, Pitch_bend_c, 4, 7453
7, 7672, Pitch_bend_c, 4, 7312
7, 7676, Pitch_bend_c, 4, 7168
7, 7680, Note_off_c, 4, 51, 0
7, 7680, Note_off_c, 4, 39, 0
7, 7680, Pitch_bend_c, 4, 8222
7, 7680, Note_on_c, 4, 34, 72
7, 7680, Note_on_c, 4, 46, 59
7, 8448, Note_off_c, 4, 46, 0
7, 8448, Note_off_c, 4, 34, 0
7, 8448, Note_on_c, 4, 36, 72
7, 8448, Note_on_c, 4, 48, 59
7, 8832, Note_off_c, 4, 48, 0
7, 8832, Note_off_c, 4, 36, 0
7, 8832, Note_on_c, 4, 34, 72
7, 8832, Note_on_c, 4, 46, 59
7, 9216, Note_off_c, 4, 46, 0
7, 9216, Note_off_c, 4, 34, 0
7, 9216, Note_on_c, 4, 32, 72
7, 9216, Note_on_c, 4, 44, 59
7, 9984, Note_off_c, 4, 44, 0
7, 9984, Note_off_c, 4, 32, 0
7, 9984, Note_on_c, 4, 34, 72
7, 9984, Note_on_c, 4, 46, 59
7, 9984, Pitch_bend_c, 4, 6990
7, 9988, Pitch_bend_c, 4, 7166
7, 9992, Pitch_bend_c, 4, 7338
7, 9996, Pitch_bend_c, 4, 7503
7, 10000, Pitch_bend_c, 4, 7657
7, 10004, Pitch_bend_c, 4, 7798
7, 10008, Pitch_bend_c, 4, 7922
7, 10012, Pitch_bend_c, 4, 8028
7, 10016, Pitch_bend_c, 4, 8112
7, 10020, Pitch_bend_c, 4, 8174
7, 10024, Pitch_bend_c, 4, 8210
7, 10028, Pitch_bend_c, 4, 8222
7, 10752, Note_off_c, 4, 46, 0
7, 10752, Note_off_c, 4, 34, 0
7, 10752, Note_on_c, 4, 39, 72
7, 10752, Note_on_c, 4, 51, 59
7, 10752, Pitch_bend_c, 4, 6990
7, 10756, Pitch_bend_c, 4, 7166
7, 10760, Pitch_bend_c, 4, 7338
7, 10764, Pitch_bend_c, 4, 7503
7, 10768, Pitch_bend_c, 4, 7657
7, 10772, Pitch_bend_c, 4, 7798
7, 10776, Pitch_bend_c, 4, 7922
7, 10780, Pitch_bend_c, 4, 8028
7, 10784, Pitch_bend_c, 4, 8112
7, 10788, Pitch_bend_c, 4, 8174
7, 10792, Pitch_bend_c, 4, 8210
7, 10796, Pitch_bend_c, 4, 8222
7, 11136, Note_off_c, 4, 51, 0
7, 11136, Note_off_c, 4, 39, 0
7, 11136, Note_on_c, 4, 36, 72
7, 11136, Note_on_c, 4, 48, 59
7, 11520, Note_off_c, 4, 48, 0
7, 11520, Note_off_c, 4, 36, 0
7, 11520, Note_on_c, 4, 38, 72
7, 11520, Note_on_c, 4, 50, 59
7, 12096, Note_off_c, 4, 50, 0
7, 12096, Note_off_c, 4, 38, 0
7, 12096, Note_on_c, 4, 38, 72
7, 12096, Note_on_c, 4, 50, 59
7, 12096, Pitch_bend_c, 4, 8222
7, 12116, Pitch_bend_c, 4, 8186
7, 12136, Pitch_bend_c, 4, 8076
7, 12156, Pitch_bend_c, 4, 7894
7, 12176, Pitch_bend_c, 4, 7644
7, 12196, Pitch_bend_c, 4, 7332
7, 12216, Pitch_bend_c, 4, 6964
7, 12232, Pitch_bend_c, 4, 6547
7, 12248, Pitch_bend_c, 4, 6090
7, 12264, Pitch_bend_c, 4, 5603
7, 12276, Pitch_bend_c, 4, 5094
7, 12284, Pitch_bend_c, 4, 4574
7, 12288, Note_off_c, 4, 50, 0
7, 12288, Note_off_c, 4, 38, 0
7, 12288, Pitch_bend_c, 4, 8222
7, 12288, Note_on_c, 4, 31, 72
7, 12288, Note_on_c, 4, 43, 59
7, 13056, Note_off_c, 4, 43, 0
7, 13056, Note_off_c, 4, 31, 0
7, 13056, Note_on_c, 4, 39, 72
7, 13056, Note_on_c, 4, 51, 59
7, 13776, Pitch_bend_c, 4, 8176
7, 13780, Pitch_bend_c, 4, 8167
7, 13784, Pitch_bend_c, 4, 8137
7, 13788, Pitch_bend_c, 4, 8086
7, 13792, Pitch_bend_c, 4, 8017
7, 13796, Pitch_bend_c, 4, 7931
7, 13800, Pitch_bend_c, 4, 7829
7, 13804, Pitch_bend_c, 4, 7714
7, 13808, Pitch_bend_c, 4, 7588
7, 13812, Pitch_bend_c, 4, 7453
7, 13816, Pitch_bend_c, 4, 7312
7, 13820, Pitch_bend_c, 4, 7168
7, 13824, Note_off_c, 4, 51, 0
7, 13824, Note_off_c, 4, 39, 0
7, 13824, Pitch_bend_c, 4, 8222
7, 13824, Note_on_c, 4, 34, 72
7, 13824, Note_on_c, 4, 46, 59
7, 14592, Note_off_c, 4, 46, 0
7, 14592, Note_off_c, 4, 34, 0
7, 14592, Note_on_c, 4, 36, 72
7, 14592, Note_on_c, 4, 48, 59
7, 14976, Note_off_c, 4, 48, 0
7, 14976, Note_off_c, 4, 36, 0
7, 14976, Note_on_c, 4, 34, 72
7, 14976, Note_on_c, 4, 46, 59
7, 15360, Note_off_c, 4, 46, 0
7, 15360, Note_off_c, 4, 34, 0
7, 15360, Note_on_c, 4, 32, 72
7, 15360, Note_on_c, 4, 44, 59
7, 16128, Note_off_c, 4, 44, 0
7, 16128, Note_off_c, 4, 32, 0
7, 16128, Note_on_c, 4, 34, 72
7, 16128, Note_on_c, 4, 46, 59
7, 16128, Pitch_bend_c, 4, 6990
7, 16132, Pitch_bend_c, 4, 7166
7, 16136, Pitch_bend_c, 4, 7338
7, 16140, Pitch_bend_c, 4, 7503
7, 16144, Pitch_bend_c, 4, 7657
7, 16148, Pitch_bend_c, 4, 7798
7, 16152, Pitch_bend_c, 4, 7922
7, 16156, Pitch_bend_c, 4, 8028
7, 16160, Pitch_bend_c, 4, 8112
7, 16164, Pitch_bend_c, 4, 8174
7, 16168, Pitch_bend_c, 4, 8210
7, 16172, Pitch_bend_c, 4, 8222
7, 16896, Note_off_c, 4, 46, 0
7, 16896, Note_off_c, 4, 34, 0
7, 16896, Note_on_c, 4, 39, 72
7, 16896, Note_on_c, 4, 51, 59
7, 16896, Pitch_bend_c, 4, 6990
7, 16900, Pitch_bend_c, 4, 7166
7, 16904, Pitch_bend_c, 4, 7338
7, 16908, Pitch_bend_c, 4, 7503
7, 16912, Pitch_bend_c, 4, 7657
7, 16916, Pitch_bend_c, 4, 7798
7, 16920, Pitch_bend_c, 4, 7922
7, 16924, Pitch_bend_c, 4, 8028
7, 16928, Pitch_bend_c, 4, 8112
7, 16932, Pitch_bend_c, 4, 8174
7, 16936, Pitch_bend_c, 4, 8210
7, 16940, Pitch_bend_c, 4, 8222
7, 17280, Note_off_c, 4, 51, 0
7, 17280, Note_off_c, 4, 39, 0
7, 17280, Note_on_c, 4, 36, 72
7, 17280, Note_on_c, 4, 48, 59
7, 17664, Note_off_c, 4, 48, 0
7, 17664, Note_off_c, 4, 36, 0
7, 17664, Note_on_c, 4, 38, 72
7, 17664, Note_on_c, 4, 50, 59
7, 18240, Note_off_c, 4, 50, 0
7, 18240, Note_off_c, 4, 38, 0
7, 18240, Note_on_c, 4, 38, 72
7, 18240, Note_on_c, 4, 50, 59
7, 18240, Pitch_bend_c, 4, 8222
7, 18260, Pitch_bend_c, 4, 8186
7, 18280, Pitch_bend_c, 4, 8076
7, 18300, Pitch_bend_c, 4, 7894
7, 18320, Pitch_bend_c, 4, 7644
7, 18340, Pitch_bend_c, 4, 7332
7, 18360, Pitch_bend_c, 4, 6964
7, 18376, Pitch_bend_c, 4, 6547
7, 18392, Pitch_bend_c, 4, 6090
7, 18408, Pitch_bend_c, 4, 5603
7, 18420, Pitch_bend_c, 4, 5094
7, 18428, Pitch_bend_c, 4, 4574
7, 18432, Note_off_c, 4, 50, 0
7, 18432, Note_off_c, 4, 38, 0
7, 18432, Pitch_bend_c, 4, 8222
7, 18432, Note_on_c, 4, 31, 72
7, 18432, Note_on_c, 4, 43, 59
7, 19200, Note_off_c, 4, 43, 0
7, 19200, Note_off_c, 4, 31, 0
7, 19200, Note_on_c, 4, 32, 70
7, 19200, Note_on_c, 4, 44, 57
7, 19260, Note_off_c, 4, 44, 0
7, 19260, Note_off_c, 4, 32, 0
7, 19296, Note_on_c, 4, 32, 72
7, 19296, Note_on_c, 4, 44, 58
7, 19416, Note_off_c, 4, 44, 0
7, 19416, Note_off_c, 4, 32, 0
7, 19440, Note_on_c, 4, 32, 72
7, 19440, Note_on_c, 4, 44, 59
7, 19580, Note_off_c, 4, 44, 0
7, 19580, Note_off_c, 4, 32, 0
7, 19584, Note_on_c, 4, 32, 71
7, 19584, Note_on_c, 4, 44, 57
7, 19716, Note_off_c, 4, 44, 0
7, 19716, Note_off_c, 4, 32, 0
7, 19728, Note_on_c, 4, 32, 70
7, 19728, Note_on_c, 4, 44, 56
7, 19856, Note_off_c, 4, 44, 0
7, 19856, Note_off_c, 4, 32, 0
7, 19872, Note_on_c, 4, 32, 68
7, 19872, Note_on_c, 4, 44, 55
7, 19944, Note_off_c, 4, 44, 0
7, 19944, Note_off_c, 4, 32, 0
7, 19968, Note_on_c, 4, 31, 70
7, 19968, Note_on_c, 4, 43, 57
7, 20028, Note_off_c, 4, 43, 0
7, 20028, Note_off_c, 4, 31, 0
7, 20064, Note_on_c, 4, 31, 72
7, 20064, Note_on_c, 4, 43, 58
7, 20184, Note_off_c, 4, 43, 0
7, 20184, Note_off_c, 4, 31, 0
7, 20208, Note_on_c, 4, 31, 72
7, 20208, Note_on_c, 4, 43, 59
7, 20348, Note_off_c, 4, 43, 0
7, 20348, Note_off_c, 4, 31, 0
7, 20352, Note_on_c, 4, 36, 71
7, 20352, Note_on_c, 4, 48, 57
7, 20484, Note_off_c, 4, 48, 0
7, 20484, Note_off_c, 4, 36, 0
7, 20496, Note_on_c, 4, 36, 70
7, 20496, Note_on_c, 4, 48, 56
7, 20624, Note_off_c, 4, 48, 0
7, 20624, Note_off_c, 4, 36, 0
7, 20640, Note_on_c, 4, 36, 68
7, 20640, Note_on_c, 4, 48, 55
7, 20712, Note_off_c, 4, 48, 0
7, 20712, Note_off_c, 4, 36, 0
7, 20736, Note_on_c, 4, 29, 70
7, 20736, Note_on_c, 4, 41, 57
7, 20796, Note_off_c, 4, 41, 0
7, 20796, Note_off_c, 4, 29, 0
7, 20832, Note_on_c, 4, 29, 72
7, 20832, Note_on_c, 4, 41, 58
7, 20952, Note_off_c, 4, 41, 0
7, 20952, Note_off_c, 4, 29, 0
7, 20976, Note_on_c, 4, 29, 72
7, 20976, Note_on_c, 4, 41, 59
7, 21116, Note_off_c, 4, 41, 0
7, 21116, Note_off_c, 4, 29, 0
7, 21120, Note_on_c, 4, 34, 71
7, 21120, Note_on_c, 4, 46, 57
7, 21252, Note_off_c, 4, 46, 0
7, 21252, Note_off_c, 4, 34, 0
7, 21264, Note_on_c, 4, 34, 70
7, 21264, Note_on_c, 4, 46, 56
7, 21392, Note_off_c, 4, 46, 0
7, 21392, Note_off_c, 4, 34, 0
7, 21408, Note_on_c, 4, 34, 68
7, 21408, Note_on_c, 4, 46, 55
7, 21480, Note_off_c, 4, 46, 0
7, 21480, Note_off_c, 4, 34, 0
7, 21504, Note_on_c, 4, 34, 70
7, 21504, Note_on_c, 4, 46, 57
7, 21564, Note_off_c, 4, 46, 0
7, 21564, Note_off_c, 4, 34, 0
7, 21600, Note_on_c, 4, 34, 72
7, 21600, Note_on_c, 4, 46, 58
7, 21720, Note_off_c, 4, 46, 0
7, 21720, Note_off_c, 4, 34, 0
7, 21744, Note_on_c, 4, 34, 72
7, 21744, Note_on_c, 4, 46, 59
7, 21884, Note_off_c, 4, 46, 0
7, 21884, Note_off_c, 4, 34, 0
7, 21888, Note_on_c, 4, 39, 71
7, 21888, Note_on_c, 4, 51, 57
7, 22020, Note_off_c, 4, 51, 0
7, 22020, Note_off_c, 4, 39, 0
7, 22032, Note_on_c, 4, 39, 70
7, 22032, Note_on_c, 4, 51, 56
7, 22160, Note_off_c, 4, 51, 0
7, 22160, Note_off_c, 4, 39, 0
7, 22176, Note_on_c, 4, 39, 68
7, 22176, Note_on_c, 4, 51, 55
7, 22248, Note_off_c, 4, 51, 0
7, 22248, Note_off_c, 4, 39, 0
7, 22272, Note_on_c, 4, 32, 70
7, 22272, Note_on_c, 4, 44, 57
7, 22332, Note_off_c, 4, 44, 0
7, 22332, Note_off_c, 4, 32, 0
7, 22368, Note_on_c, 4, 32, 72
7, 22368, Note_on_c, 4, 44, 58
7, 22488, Note_off_c, 4, 44, 0
7, 22488, Note_off_c, 4, 32, 0
7, 22512, Note_on_c, 4, 32, 72
7, 22512, Note_on_c, 4, 44, 59
7, 22652, Note_off_c, 4, 44, 0
7, 22652, Note_off_c, 4, 32, 0
7, 22656, Note_on_c, 4, 32, 71
7, 22656, Note_on_c, 4, 44, 57
7, 22788, Note_off_c, 4, 44, 0
7, 22788, Note_off_c, 4, 32, 0
7, 22800, Note_on_c, 4, 32, 70
7, 22800, Note_on_c, 4, 44, 56
7, 22928, Note_off_c, 4, 44, 0
7, 22928, Note_off_c, 4, 32, 0
7, 22944, Note_on_c, 4, 32, 68
7, 22944, Note_on_c, 4, 44, 55
7, 23016, Note_off_c, 4, 44, 0
7, 23016, Note_off_c, 4, 32, 0
7, 23040, Note_on_c, 4, 31, 70
7, 23040, Note_on_c, 4, 43, 57
7, 23100, Note_off_c, 4, 43, 0
7, 23100, Note_off_c, 4, 31, 0
7, 23136, Note_on_c, 4, 31, 72
7, 23136, Note_on_c, 4, 43, 58
7, 23256, Note_off_c, 4, 43, 0
7, 23256, Note_off_c, 4, 31, 0
7, 23280, Note_on_c, 4, 31, 72
7, 23280, Note_on_c, 4, 43, 59
7, 23420, Note_off_c, 4, 43, 0
7, 23420, Note_off_c, 4, 31, 0
7, 23424, Note_on_c, 4, 36, 71
7, 23424, Note_on_c, 4, 48, 57
7, 23556, Note_off_c, 4, 48, 0
7, 23556, Note_off_c, 4, 36, 0
7, 23568, Note_on_c, 4, 36, 70
7, 23568, Note_on_c, 4, 48, 56
7, 23696, Note_off_c, 4, 48, 0
7, 23696, Note_off_c, 4, 36, 0
7, 23712, Note_on_c, 4, 36, 68
7, 23712, Note_on_c, 4, 48, 55
7, 23784, Note_off_c, 4, 48, 0
7, 23784, Note_off_c, 4, 36, 0
7, 23808, Note_on_c, 4, 38, 70
7, 23808, Note_on_c, 4, 50, 57
7, 23868, Note_off_c, 4, 50, 0
7, 23868, Note_off_c, 4, 38, 0
7, 23904, Note_on_c, 4, 38, 72
7, 23904, Note_on_c, 4, 50, 58
7, 24024, Note_off_c, 4, 50, 0
7, 24024, Note_off_c, 4, 38, 0
7, 24048, Note_on_c, 4, 38, 72
7, 24048, Note_on_c, 4, 50, 59
7, 24188, Note_off_c, 4, 50, 0
7, 24188, Note_off_c, 4, 38, 0
7, 24192, Note_on_c, 4, 38, 71
7, 24192, Note_on_c, 4, 50, 57
7, 24324, Note_off_c, 4, 50, 0
7, 24324, Note_off_c, 4, 38, 0
7, 24336, Note_on_c, 4, 38, 70
7, 24336, Note_on_c, 4, 50, 56
7, 24464, Note_off_c, 4, 50, 0
7, 24464, Note_off_c, 4, 38, 0
7, 24480, Note_on_c, 4, 38, 68
7, 24480, Note_on_c, 4, 50, 55
7, 24552, Note_off_c, 4, 50, 0
7, 24552, Note_off_c, 4, 38, 0
7, 24576, Note_on_c, 4, 31, 70
7, 24576, Note_on_c, 4, 43, 57
7, 24636, Note_off_c, 4, 43, 0
7, 24636, Note_off_c, 4, 31, 0
7, 24672, Note_on_c, 4, 31, 72
7, 24672, Note_on_c, 4, 43, 58
7, 24792, Note_off_c, 4, 43, 0
7, 24792, Note_off_c, 4, 31, 0
7, 24816, Note_on_c, 4, 31, 72
7, 24816, Note_on_c, 4, 43, 59
7, 24956, Note_off_c, 4, 43, 0
7, 24956, Note_off_c, 4, 31, 0
7, 24960, Note_on_c, 4, 31, 71
7, 24960, Note_on_c, 4, 43, 57
7, 25092, Note_off_c, 4, 43, 0
7, 25092, Note_off_c, 4, 31, 0
7, 25104, Note_on_c, 4, 31, 70
7, 25104, Note_on_c, 4, 43, 56
7, 25232, Note_off_c, 4, 43, 0
7, 25232, Note_off_c, 4, 31, 0
7, 25248, Note_on_c, 4, 31, 68
7, 25248, Note_on_c, 4, 43, 55
7, 25320, Note_off_c, 4, 43, 0
7, 25320, Note_off_c, 4, 31, 0
7, 25344, Note_on_c, 4, 36, 72
7, 25344, Note_on_c, 4, 48, 59
7, 25728, Note_off_c, 4, 48, 0
7, 25728, Note_off_c, 4, 36, 0
7, 25728, Note_on_c, 4, 41, 72
7, 25728, Note_on_c, 4, 53, 59
7, 26112, Note_off_c, 4, 53, 0
7, 26112, Note_off_c, 4, 41, 0
7, 26112, Note_on_c, 4, 34, 72
7, 26112, Note_on_c, 4, 46, 59
7, 26496, Note_off_c, 4, 46, 0
7, 26496, Note_off_c, 4, 34, 0
7, 26496, Note_on_c, 4, 39, 72
7, 26496, Note_on_c, 4, 51, 59
7, 26880, Note_off_c, 4, 51, 0
7, 26880, Note_off_c, 4, 39, 0
7, 26880, Note_on_c, 4, 36, 72
7, 26880, Note_on_c, 4, 48, 59
7, 27264, Note_off_c, 4, 48, 0
7, 27264, Note_off_c, 4, 36, 0
7, 27264, Note_on_c, 4, 41, 72
7, 27264, Note_on_c, 4, 53, 59
7, 27648, Note_off_c, 4, 53, 0
7, 27648, Note_off_c, 4, 41, 0
7, 27648, Note_on_c, 4, 34, 72
7, 27648, Note_on_c, 4, 46, 59
7, 28032, Note_off_c, 4, 46, 0
7, 28032, Note_off_c, 4, 34, 0
7, 28032, Note_on_c, 4, 39, 72
7, 28032, Note_on_c, 4, 51, 59
7, 28416, Note_off_c, 4, 51, 0
7, 28416, Note_off_c, 4, 39, 0
7, 28416, Note_on_c, 4, 36, 72
7, 28416, Note_on_c, 4, 48, 59
7, 28800, Note_off_c, 4, 48, 0
7, 28800, Note_off_c, 4, 36, 0
7, 28800, Note_on_c, 4, 41, 72
7, 28800, Note_on_c, 4, 53, 59
7, 29184, Note_off_c, 4, 53, 0
7, 29184, Note_off_c, 4, 41, 0
7, 29184, Note_on_c, 4, 34, 72
7, 29184, Note_on_c, 4, 46, 59
7, 29568, Note_off_c, 4, 46, 0
7, 29568, Note_off_c, 4, 34, 0
7, 29568, Note_on_c, 4, 39, 72
7, 29568, Note_on_c, 4, 51, 59
7, 29952, Note_off_c, 4, 51, 0
7, 29952, Note_off_c, 4, 39, 0
7, 29952, Note_on_c, 4, 36, 72
7, 29952, Note_on_c, 4, 48, 59
7, 30336, Note_off_c, 4, 48, 0
7, 30336, Note_off_c, 4, 36, 0
7, 30336, Note_on_c, 4, 41, 72
7, 30336, Note_on_c, 4, 53, 59
7, 30720, Note_off_c, 4, 53, 0
7, 30720, Note_off_c, 4, 41, 0
7, 30720, Note_on_c, 4, 34, 72
7, 30720, Note_on_c, 4, 46, 59
7, 31104, Note_off_c, 4, 46, 0
7, 31104, Note_off_c, 4, 34, 0
7, 31104, Note_on_c, 4, 36, 72
7, 31104, Note_on_c, 4, 48, 59
7, 31488, Note_off_c, 4, 48, 0
7, 31488, Note_off_c, 4, 36, 0
7, 31488, Note_on_c, 4, 36, 72
7, 31488, Note_on_c, 4, 48, 59
7, 31872, Note_off_c, 4, 48, 0
7, 31872, Note_off_c, 4, 36, 0
7, 31872, Note_on_c, 4, 41, 72
7, 31872, Note_on_c, 4, 53, 59
7, 32256, Note_off_c, 4, 53, 0
7, 32256, Note_off_c, 4, 41, 0
7, 32256, Note_on_c, 4, 34, 72
7, 32256, Note_on_c, 4, 46, 59
7, 32640, Note_off_c, 4, 46, 0
7, 32640, Note_off_c, 4, 34, 0
7, 32640, Note_on_c, 4, 39, 72
7, 32640, Note_on_c, 4, 51, 59
7, 33024, Note_off_c, 4, 51, 0
7, 33024, Note_off_c, 4, 39, 0
7, 33024, Note_on_c, 4, 36, 72
7, 33024, Note_on_c, 4, 48, 59
7, 33408, Note_off_c, 4, 48, 0
7, 33408, Note_off_c, 4, 36, 0
7, 33408, Note_on_c, 4, 41, 72
7, 33408, Note_on_c, 4, 53, 59
7, 33792, Note_off_c, 4, 53, 0
7, 33792, Note_off_c, 4, 41, 0
7, 33792, Note_on_c, 4, 34, 72
7, 33792, Note_on_c, 4, 46, 59
7, 33872, Note_off_c, 4, 46, 0
7, 33872, Note_off_c, 4, 34, 0
7, 33888, Note_on_c, 4, 34, 72
7, 33888, Note_on_c, 4, 46, 59
7, 33968, Note_off_c, 4, 46, 0
7, 33968, Note_off_c, 4, 34, 0
7, 33984, Note_on_c, 4, 31, 72
7, 33984, Note_on_c, 4, 43, 59
7, 34064, Note_off_c, 4, 43, 0
7, 34064, Note_off_c, 4, 31, 0
7, 34080, Note_on_c, 4, 34, 72
7, 34080, Note_on_c, 4, 46, 59
7, 34160, Note_off_c, 4, 46, 0
7, 34160, Note_off_c, 4, 34, 0
7, 34176, Note_on_c, 4, 34, 72
7, 34176, Note_on_c, 4, 46, 59
7, 34316, Note_off_c, 4, 46, 0
7, 34316, Note_off_c, 4, 34, 0
7, 34320, Note_on_c, 4, 36, 72
7, 34320, Note_on_c, 4, 48, 59
7, 34412, Note_off_c, 4, 48, 0
7, 34412, Note_off_c, 4, 36, 0
7, 52992, Pitch_bend_c, 4, 8222
7, 52992, Note_on_c, 4, 39, 72
7, 52992, Note_on_c, 4, 51, 59
7, 53712, Pitch_bend_c, 4, 8176
7, 53716, Pitch_bend_c, 4, 8167
7, 53720, Pitch_bend_c, 4, 8137
7, 53724, Pitch_bend_c, 4, 8086
7, 53728, Pitch_bend_c, 4, 8017
7, 53732, Pitch_bend_c, 4, 7931
7, 53736, Pitch_bend_c, 4, 7829
7, 53740, Pitch_bend_c, 4, 7714
7, 53744, Pitch_bend_c, 4, 7588
7, 53748, Pitch_bend_c, 4, 7453
7, 53752, Pitch_bend_c, 4, 7312
7, 53756, Pitch_bend_c, 4, 7168
7, 53760, Note_off_c, 4, 51, 0
7, 53760, Note_off_c, 4, 39, 0
7, 53760, Pitch_bend_c, 4, 8222
7, 53760, Note_on_c, 4, 34, 72
7, 53760, Note_on_c, 4, 46, 59
7, 54528, Note_off_c, 4, 46, 0
7, 54528, Note_off_c, 4, 34, 0
7, 54528, Note_on_c, 4, 36, 72
7, 54528, Note_on_c, 4, 48, 59
7, 54912, Note_off_c, 4, 48, 0
7, 54912, Note_off_c, 4, 36, 0
7, 54912, Note_on_c, 4, 34, 72
7, 54912, Note_on_c, 4, 46, 59
7, 55296, Note_off_c, 4, 46, 0
7, 55296, Note_off_c, 4, 34, 0
7, 55296, Note_on_c, 4, 32, 72
7, 55296, Note_on_c, 4, 44, 59
7, 56064, Note_off_c, 4, 44, 0
7, 56064, Note_off_c, 4, 32, 0
7, 56064, Note_on_c, 4, 34, 72
7, 56064, Note_on_c, 4, 46, 59
7, 56064, Pitch_bend_c, 4, 6990
7, 56068, Pitch_bend_c, 4, 7166
7, 56072, Pitch_bend_c, 4, 7338
7, 56076, Pitch_bend_c, 4, 7503
7, 56080, Pitch_bend_c, 4, 7657
7, 56084, Pitch_bend_c, 4, 7798
7, 56088, Pitch_bend_c, 4, 7922
7, 56092, Pitch_bend_c, 4, 8028
7, 56096, Pitch_bend_c, 4, 8112
7, 56100, Pitch_bend_c, 4, 8174
7, 56104, Pitch_bend_c, 4, 8210
7, 56108, Pitch_bend_c, 4, 8222
7, 56832, Note_off_c, 4, 46, 0
7, 56832, Note_off_c, 4, 34, 0
7, 56832, Note_on_c, 4, 39, 72
7, 56832, Note_on_c, 4, 51, 59
7, 56832, Pitch_bend_c, 4, 6990
7, 56836, Pitch_bend_c, 4, 7166
7, 56840, Pitch_bend_c, 4, 7338
7, 56844, Pitch_bend_c, 4, 7503
7, 56848, Pitch_bend_c, 4, 7657
7, 56852, Pitch_bend_c, 4, 7798
7, 56856, Pitch_bend_c, 4, 7922
7, 56860, Pitch_bend_c, 4, 8028
7, 56864, Pitch_bend_c, 4, 8112
7, 56868, Pitch_bend_c, 4, 8174
7, 56872, Pitch_bend_c, 4, 8210
7, 56876, Pitch_bend_c, 4, 8222
7, 57216, Note_off_c, 4, 51, 0
7, 57216, Note_off_c, 4, 39, 0
7, 57216, Note_on_c, 4, 36, 72
7, 57216, Note_on_c, 4, 48, 59
7, 57600, Note_off_c, 4, 48, 0
7, 57600, Note_off_c, 4, 36, 0
7, 57600, Note_on_c, 4, 38, 72
7, 57600, Note_on_c, 4, 50, 59
7, 58176, Note_off_c, 4, 50, 0
7, 58176, Note_off_c, 4, 38, 0
7, 58176, Note_on_c, 4, 38, 72
7, 58176, Note_on_c, 4, 50, 59
7, 58176, Pitch_bend_c, 4, 8222
7, 58196, Pitch_bend_c, 4, 8186
7, 58216, Pitch_bend_c, 4, 8076
7, 58236, Pitch_bend_c, 4, 7894
7, 58256, Pitch_bend_c, 4, 7644
7, 58276, Pitch_bend_c, 4, 7332
7, 58296, Pitch_bend_c, 4, 6964
7, 58312, Pitch_bend_c, 4, 6547
7, 58328, Pitch_bend_c, 4, 6090
7, 58344, Pitch_bend_c, 4, 5603
7, 58356, Pitch_bend_c, 4, 5094
7, 58364, Pitch_bend_c, 4, 4574
7, 58368, Note_off_c, 4, 50, 0
7, 58368, Note_off_c, 4, 38, 0
7, 58368, Pitch_bend_c, 4, 8222
7, 58368, Note_on_c, 4, 31, 72
7, 58368, Note_on_c, 4, 43, 59
7, 59136, Note_off_c, 4, 43, 0
7, 59136, Note_off_c, 4, 31, 0
7, 59136, Note_on_c, 4, 39, 72
7, 59136, Note_on_c, 4, 51, 59
7, 59856, Pitch_bend_c, 4, 8176
7, 59860, Pitch_bend_c, 4, 8167
7, 59864, Pitch_bend_c, 4, 8137
7, 59868, Pitch_bend_c, 4, 8086
7, 59872, Pitch_bend_c, 4, 8017
7, 59876, Pitch_bend_c, 4, 7931
7, 59880, Pitch_bend_c, 4, 7829
7, 59884, Pitch_bend_c, 4, 7714
7, 59888, Pitch_bend_c, 4, 7588
7, 59892, Pitch_bend_c, 4, 7453
7, 59896, Pitch_bend_c, 4, 7312
7, 59900, Pitch_bend_c, 4, 7168
7, 59904, Note_off_c, 4, 51, 0
7, 59904, Note_off_c, 4, 39, 0
7, 59904, Pitch_bend_c, 4, 8222
7, 59904, Note_on_c, 4, 34, 72
7, 59904, Note_on_c, 4, 46, 59
7, 60672, Note_off_c, 4, 46, 0
7, 60672, Note_off_c, 4, 34, 0
7, 60672, Note_on_c, 4, 36, 72
7, 60672, Note_on_c, 4, 48, 59
7, 61056, Note_off_c, 4, 48, 0
7, 61056, Note_off_c, 4, 36, 0
7, 61056, Note_on_c, 4, 34, 72
7, 61056, Note_on_c, 4, 46, 59
7, 61440, Note_off_c, 4, 46, 0
7, 61440, Note_off_c, 4, 34, 0
7, 61440, Note_on_c, 4, 32, 72
7, 61440, Note_on_c, 4, 44, 59
7, 62208, Note_off_c, 4, 44, 0
7, 62208, Note_off_c, 4, 32, 0
7, 62208, Note_on_c, 4, 34, 72
7, 62208, Note_on_c, 4, 46, 59
7, 62208, Pitch_bend_c, 4, 6990
7, 62212, Pitch_bend_c, 4, 7166
7, 62216, Pitch_bend_c, 4, 7338
7, 62220, Pitch_bend_c, 4, 7503
7, 62224, Pitch_bend_c, 4, 7657
7, 62228, Pitch_bend_c, 4, 7798
7, 62232, Pitch_bend_c, 4, 7922
7, 62236, Pitch_bend_c, 4, 8028
7, 62240, Pitch_bend_c, 4, 8112
7, 62244, Pitch_bend_c, 4, 8174
7, 62248, Pitch_bend_c, 4, 8210
7, 62252, Pitch_bend_c, 4, 8222
7, 62976, Note_off_c, 4, 46, 0
7, 62976, Note_off_c, 4, 34, 0
7, 62976, Note_on_c, 4, 39, 72
7, 62976, Note_on_c, 4, 51, 59
7, 62976, Pitch_bend_c, 4, 6990
7, 62980, Pitch_bend_c, 4, 7166
7, 62984, Pitch_bend_c, 4, 7338
7, 62988, Pitch_bend_c, 4, 7503
7, 62992, Pitch_bend_c, 4, 7657
7, 62996, Pitch_bend_c, 4, 7798
7, 63000, Pitch_bend_c, 4, 7922
7, 63004, Pitch_bend_c, 4, 8028
7, 63008, Pitch_bend_c, 4, 8112
7, 63012, Pitch_bend_c, 4, 8174
7, 63016, Pitch_bend_c, 4, 8210
7, 63020, Pitch_bend_c, 4, 8222
7, 63360, Note_off_c, 4, 51, 0
7, 63360, Note_off_c, 4, 39, 0
7, 63360, Note_on_c, 4, 36, 72
7, 63360, Note_on_c, 4, 48, 59
7, 63744, Note_off_c, 4, 48, 0
7, 63744, Note_off_c, 4, 36, 0
7, 63744, Note_on_c, 4, 38, 72
7, 63744, Note_on_c, 4, 50, 59
7, 64320, Note_off_c, 4, 50, 0
7, 64320, Note_off_c, 4, 38, 0
7, 64320, Note_on_c, 4, 38, 72
7, 64320, Note_on_c, 4, 50, 59
7, 64320, Pitch_bend_c, 4, 8222
7, 64340, Pitch_bend_c, 4, 8186
7, 64360, Pitch_bend_c, 4, 8076
7, 64380, Pitch_bend_c, 4, 7894
7, 64400, Pitch_bend_c, 4, 7644
7, 64420, Pitch_bend_c, 4, 7332
7, 64440, Pitch_bend_c, 4, 6964
7, 64456, Pitch_bend_c, 4, 6547
7, 64472, Pitch_bend_c, 4, 6090
7, 64488, Pitch_bend_c, 4, 5603
7, 64500, Pitch_bend_c, 4, 5094
7, 64508, Pitch_bend_c, 4, 4574
7, 64512, Note_off_c, 4, 50, 0
7, 64512, Note_off_c, 4, 38, 0
7, 64512, Pitch_bend_c, 4, 8222
7, 64512, Note_on_c, 4, 31, 72
7, 64512, Note_on_c, 4, 43, 59
7, 65280, Note_off_c, 4, 43, 0
7, 65280, Note_off_c, 4, 31, 0
7, 65280, Note_on_c, 4, 32, 70
7, 65280, Note_on_c, 4, 44, 57
7, 65340, Note_off_c, 4, 44, 0
7, 65340, Note_off_c, 4, 32, 0
7, 65376, Note_on_c, 4, 32, 72
7, 65376, Note_on_c, 4, 44, 58
7, 65496, Note_off_c, 4, 44, 0
7, 65496, Note_off_c, 4, 32, 0
7, 65520, Note_on_c, 4, 32, 72
7, 65520, Note_on_c, 4, 44, 59
7, 65660, Note_off_c, 4, 44, 0
7, 65660, Note_off_c, 4, 32, 0
7, 65664, Note_on_c, 4, 32, 71
7, 65664, Note_on_c, 4, 44, 57
7, 65796, Note_off_c, 4, 44, 0
7, 65796, Note_off_c, 4, 32, 0
7, 65808, Note_on_c, 4, 32, 70
7, 65808, Note_on_c, 4, 44, 56
7, 65936, Note_off_c, 4, 44, 0
7, 65936, Note_off_c, 4, 32, 0
7, 65952, Note_on_c, 4, 32, 68
7, 65952, Note_on_c, 4, 44, 55
7, 66024, Note_off_c, 4, 44, 0
7, 66024, Note_off_c, 4, 32, 0
7, 66048, Note_on_c, 4, 31, 70
7, 66048, Note_on_c, 4, 43, 57
7, 66108, Note_off_c, 4, 43, 0
7, 66108, Note_off_c, 4, 31, 0
7, 66144, Note_on_c, 4, 31, 72
7, 66144, Note_on_c, 4, 43, 58
7, 66264, Note_off_c, 4, 43, 0
7, 66264, Note_off_c, 4, 31, 0
7, 66288, Note_on_c, 4, 31, 72
7, 66288, Note_on_c, 4, 43, 59
7, 66428, Note_off_c, 4, 43, 0
7, 66428, Note_off_c, 4, 31, 0
7, 66432, Note_on_c, 4, 36, 71
7, 66432, Note_on_c, 4, 48, 57
7, 66564, Note_off_c, 4, 48, 0
7, 66564, Note_off_c, 4, 36, 0
7, 66576, Note_on_c, 4, 36, 70
7, 66576, Note_on_c, 4, 48, 56
7, 66704, Note_off_c, 4, 48, 0
7, 66704, Note_off_c, 4, 36, 0
7, 66720, Note_on_c, 4, 36, 68
7, 66720, Note_on_c, 4, 48, 55
7, 66792, Note_off_c, 4, 48, 0
7, 66792, Note_off_c, 4, 36, 0
7, 66816, Note_on_c, 4, 29, 70
7, 66816, Note_on_c, 4, 41, 57
7, 66876, Note_off_c, 4, 41, 0
7, 66876, Note_off_c, 4, 29, 0
7, 66912, Note_on_c, 4, 29, 72
7, 66912, Note_on_c, 4, 41, 58
7, 67032, Note_off_c, 4, 41, 0
7, 67032, Note_off_c, 4, 29, 0
7, 67056, Note_on_c, 4, 29, 72
7, 67056, Note_on_c, 4, 41, 59
7, 67196, Note_off_c, 4, 41, 0
7, 67196, Note_off_c, 4, 29, 0
7, 67200, Note_on_c, 4, 34, 71
7, 67200, Note_on_c, 4, 46, 57
7, 67332, Note_off_c, 4, 46, 0
7, 67332, Note_off_c, 4, 34, 0
7, 67344, Note_on_c, 4, 34, 70
7, 67344, Note_on_c, 4, 46, 56
7, 67472, Note_off_c, 4, 46, 0
7, 67472, Note_off_c, 4, 34, 0
7, 67488, Note_on_c, 4, 34, 68
7, 67488, Note_on_c, 4, 46, 55
7, 67560, Note_off_c, 4, 46, 0
7, 67560, Note_off_c, 4, 34, 0
7, 67584, Note_on_c, 4, 34, 70
7, 67584, Note_on_c, 4, 46, 57
7, 67644, Note_off_c, 4, 46, 0
7, 67644, Note_off_c, 4, 34, 0
7, 67680, Note_on_c, 4, 34, 72
7, 67680, Note_on_c, 4, 46, 58
7, 67800, Note_off_c, 4, 46, 0
7, 67800, Note_off_c, 4, 34, 0
7, 67824, Note_on_c, 4, 34, 72
7, 67824, Note_on_c, 4, 46, 59
7, 67964, Note_off_c, 4, 46, 0
7, 67964, Note_off_c, 4, 34, 0
7, 67968, Note_on_c, 4, 39, 71
7, 67968, Note_on_c, 4, 51, 57
7, 68100, Note_off_c, 4, 51, 0
7, 68100, Note_off_c, 4, 39, 0
7, 68112, Note_on_c, 4, 39, 70
7, 68112, Note_on_c, 4, 51, 56
7, 68240, Note_off_c, 4, 51, 0
7, 68240, Note_off_c, 4, 39, 0
7, 68256, Note_on_c, 4, 39, 68
7, 68256, Note_on_c, 4, 51, 55
7, 68328, Note_off_c, 4, 51, 0
7, 68328, Note_off_c, 4, 39, 0
7, 68352, Note_on_c, 4, 32, 70
7, 68352, Note_on_c, 4, 44, 57
7, 68412, Note_off_c, 4, 44, 0
7, 68412, Note_off_c, 4, 32, 0
7, 68448, Note_on_c, 4, 32, 72
7, 68448, Note_on_c, 4, 44, 58
7, 68568, Note_off_c, 4, 44, 0
7, 68568, Note_off_c, 4, 32, 0
7, 68592, Note_on_c, 4, 32, 72
7, 68592, Note_on_c, 4, 44, 59
7, 68732, Note_off_c, 4, 44, 0
7, 68732, Note_off_c, 4, 32, 0
7, 68736, Note_on_c, 4, 32, 71
7, 68736, Note_on_c, 4, 44, 57
7, 68868, Note_off_c, 4, 44, 0
7, 68868, Note_off_c, 4, 32, 0
7, 68880, Note_on_c, 4, 32, 70
7, 68880, Note_on_c, 4, 44, 56
7, 69008, Note_off_c, 4, 44, 0
7, 69008, Note_off_c, 4, 32, 0
7, 69024, Note_on_c, 4, 32, 68
7, 69024, Note_on_c, 4, 44, 55
7, 69096, Note_off_c, 4, 44, 0
7, 69096, Note_off_c, 4, 32, 0
7, 69120, Note_on_c, 4, 31, 70
7, 69120, Note_on_c, 4, 43, 57
7, 69180, Note_off_c, 4, 43, 0
7, 69180, Note_off_c, 4, 31, 0
7, 69216, Note_on_c, 4, 31, 72
7, 69216, Note_on_c, 4, 43, 58
7, 69336, Note_off_c, 4, 43, 0
7, 69336, Note_off_c, 4, 31, 0
7, 69360, Note_on_c, 4, 31, 72
7, 69360, Note_on_c, 4, 43, 59
7, 69500, Note_off_c, 4, 43, 0
7, 69500, Note_off_c, 4, 31, 0
7, 69504, Note_on_c, 4, 36, 71
7, 69504, Note_on_c, 4, 48, 57
7, 69636, Note_off_c, 4, 48, 0
7, 69636, Note_off_c, 4, 36, 0
7, 69648, Note_on_c, 4, 36, 70
7, 69648, Note_on_c, 4, 48, 56
7, 69776, Note_off_c, 4, 48, 0
7, 69776, Note_off_c, 4, 36, 0
7, 69792, Note_on_c, 4, 36, 68
7, 69792, Note_on_c, 4, 48, 55
7, 69864, Note_off_c, 4, 48, 0
7, 69864, Note_off_c, 4, 36, 0
7, 69888, Note_on_c, 4, 38, 70
7, 69888, Note_on_c, 4, 50, 57
7, 69948, Note_off_c, 4, 50, 0
7, 69948, Note_off_c, 4, 38, 0
7, 69984, Note_on_c, 4, 38, 72
7, 69984, Note_on_c, 4, 50, 58
7, 70104, Note_off_c, 4, 50, 0
7, 70104, Note_off_c, 4, 38, 0
7, 70128, Note_on_c, 4, 38, 72
7, 70128, Note_on_c, 4, 50, 59
7, 70268, Note_off_c, 4, 50, 0
7, 70268, Note_off_c, 4, 38, 0
7, 70272, Note_on_c, 4, 38, 71
7, 70272, Note_on_c, 4, 50, 57
7, 70404, Note_off_c, 4, 50, 0
7, 70404, Note_off_c, 4, 38, 0
7, 70416, Note_on_c, 4, 38, 70
7, 70416, Note_on_c, 4, 50, 56
7, 70544, Note_off_c, 4, 50, 0
7, 70544, Note_off_c, 4, 38, 0
7, 70560, Note_on_c, 4, 38, 68
7, 70560, Note_on_c, 4, 50, 55
7, 70632, Note_off_c, 4, 50, 0
7, 70632, Note_off_c, 4, 38, 0
7, 70656, Note_on_c, 4, 31, 70
7, 70656, Note_on_c, 4, 43, 57
7, 70716, Note_off_c, 4, 43, 0
7, 70716, Note_off_c, 4, 31, 0
7, 70752, Note_on_c, 4, 31, 72
7, 70752, Note_on_c, 4, 43, 58
7, 70872, Note_off_c, 4, 43, 0
7, 70872, Note_off_c, 4, 31, 0
7, 70896, Note_on_c, 4, 31, 72
7, 70896, Note_on_c, 4, 43, 59
7, 71036, Note_off_c, 4, 43, 0
7, 71036, Note_off_c, 4, 31, 0
7, 71040, Note_on_c, 4, 31, 71
7, 71040, Note_on_c, 4, 43, 57
7, 71172, Note_off_c, 4, 43, 0
7, 71172, Note_off_c, 4, 31, 0
7, 71184, Note_on_c, 4, 31, 70
7, 71184, Note_on_c, 4, 43, 56
7, 71312, Note_off_c, 4, 43, 0
7, 71312, Note_off_c, 4, 31, 0
7, 71328, Note_on_c, 4, 31, 68
7, 71328, Note_on_c, 4, 43, 55
7, 71400, Note_off_c, 4, 43, 0
7, 71400, Note_off_c, 4, 31, 0
7, 71424, Note_on_c, 4, 36, 72
7, 71424, Note_on_c, 4, 48, 59
7, 71808, Note_off_c, 4, 48, 0
7, 71808, Note_off_c, 4, 36, 0
7, 71808, Note_on_c, 4, 41, 72
7, 71808, Note_on_c, 4, 53, 59
7, 72192, Note_off_c, 4, 53, 0
7, 72192, Note_off_c, 4, 41, 0
7, 72192, Note_on_c, 4, 34, 72
7, 72192, Note_on_c, 4, 46, 59
7, 72576, Note_off_c, 4, 46, 0
7, 72576, Note_off_c, 4, 34, 0
7, 72576, Note_on_c, 4, 39, 72
7, 72576, Note_on_c, 4, 51, 59
7, 72960, Note_off_c, 4, 51, 0
7, 72960, Note_off_c, 4, 39, 0
7, 72960, Note_on_c, 4, 36, 72
7, 72960, Note_on_c, 4, 48, 59
7, 73344, Note_off_c, 4, 48, 0
7, 73344, Note_off_c, 4, 36, 0
7, 73344, Note_on_c, 4, 41, 72
7, 73344, Note_on_c, 4, 53, 59
7, 73728, Note_off_c, 4, 53, 0
7, 73728, Note_off_c, 4, 41, 0
7, 73728, Note_on_c, 4, 34, 72
7, 73728, Note_on_c, 4, 46, 59
7, 74112, Note_off_c, 4, 46, 0
7, 74112, Note_off_c, 4, 34, 0
7, 74112, Note_on_c, 4, 39, 72
7, 74112, Note_on_c, 4, 51, 59
7, 74496, Note_off_c, 4, 51, 0
7, 74496, Note_off_c, 4, 39, 0
7, 74496, Note_on_c, 4, 36, 72
7, 74496, Note_on_c, 4, 48, 59
7, 74880, Note_off_c, 4, 48, 0
7, 74880, Note_off_c, 4, 36, 0
7, 74880, Note_on_c, 4, 41, 72
7, 74880, Note_on_c, 4, 53, 59
7, 75264, Note_off_c, 4, 53, 0
7, 75264, Note_off_c, 4, 41, 0
7, 75264, Note_on_c, 4, 34, 72
7, 75264, Note_on_c, 4, 46, 59
7, 75648, Note_off_c, 4, 46, 0
7, 75648, Note_off_c, 4, 34, 0
7, 75648, Note_on_c, 4, 39, 72
7, 75648, Note_on_c, 4, 51, 59
7, 76032, Note_off_c, 4, 51, 0
7, 76032, Note_off_c, 4, 39, 0
7, 76032, Note_on_c, 4, 36, 72
7, 76032, Note_on_c, 4, 48, 59
7, 76416, Note_off_c, 4, 48, 0
7, 76416, Note_off_c, 4, 36, 0
7, 76416, Note_on_c, 4, 41, 72
7, 76416, Note_on_c, 4, 53, 59
7, 76800, Note_off_c, 4, 53, 0
7, 76800, Note_off_c, 4, 41, 0
7, 76800, Note_on_c, 4, 34, 72
7, 76800, Note_on_c, 4, 46, 59
7, 77184, Note_off_c, 4, 46, 0
7, 77184, Note_off_c, 4, 34, 0
7, 77184, Note_on_c, 4, 36, 72
7, 77184, Note_on_c, 4, 48, 59
7, 77568, Note_off_c, 4, 48, 0
7, 77568, Note_off_c, 4, 36, 0
7, 77568, Note_on_c, 4, 36, 72
7, 77568, Note_on_c, 4, 48, 59
7, 77952, Note_off_c, 4, 48, 0
7, 77952, Note_off_c, 4, 36, 0
7, 77952, Note_on_c, 4, 41, 72
7, 77952, Note_on_c, 4, 53, 59
7, 78336, Note_off_c, 4, 53, 0
7, 78336, Note_off_c, 4, 41, 0
7, 78336, Note_on_c, 4, 34, 72
7, 78336, Note_on_c, 4, 46, 59
7, 78720, Note_off_c, 4, 46, 0
7, 78720, Note_off_c, 4, 34, 0
7, 78720, Note_on_c, 4, 39, 72
7, 78720, Note_on_c, 4, 51, 59
7, 79104, Note_off_c, 4, 51, 0
7, 79104, Note_off_c, 4, 39, 0
7, 79104, Note_on_c, 4, 36, 72
7, 79104, Note_on_c, 4, 48, 59
7, 79488, Note_off_c, 4, 48, 0
7, 79488, Note_off_c, 4, 36, 0
7, 79488, Note_on_c, 4, 41, 72
7, 79488, Note_on_c, 4, 53, 59
7, 79872, Note_off_c, 4, 53, 0
7, 79872, Note_off_c, 4, 41, 0
7, 79872, Note_on_c, 4, 29, 72
7, 79872, Note_on_c, 4, 41, 59
7, 80064, Note_off_c, 4, 41, 0
7, 80064, Note_off_c, 4, 29, 0
7, 80064, Note_on_c, 4, 31, 72
7, 80064, Note_on_c, 4, 43, 59
7, 80256, Note_off_c, 4, 43, 0
7, 80256, Note_off_c, 4, 31, 0
7, 80256, Note_on_c, 4, 32, 72
7, 80256, Note_on_c, 4, 44, 59
7, 80448, Note_off_c, 4, 44, 0
7, 80448, Note_off_c, 4, 32, 0
7, 80448, Note_on_c, 4, 34, 72
7, 80448, Note_on_c, 4, 46, 59
7, 80640, Note_off_c, 4, 46, 0
7, 80640, Note_off_c, 4, 34, 0
7, 80640, Note_on_c, 4, 32, 70
7, 80640, Note_on_c, 4, 44, 57
7, 80700, Note_off_c, 4, 44, 0
7, 80700, Note_off_c, 4, 32, 0
7, 80736, Note_on_c, 4, 32, 72
7, 80736, Note_on_c, 4, 44, 58
7, 80856, Note_off_c, 4, 44, 0
7, 80856, Note_off_c, 4, 32, 0
7, 80880, Note_on_c, 4, 32, 72
7, 80880, Note_on_c, 4, 44, 59
7, 81020, Note_off_c, 4, 44, 0
7, 81020, Note_off_c, 4, 32, 0
7, 81024, Note_on_c, 4, 32, 71
7, 81024, Note_on_c, 4, 44, 57
7, 81156, Note_off_c, 4, 44, 0
7, 81156, Note_off_c, 4, 32, 0
7, 81168, Note_on_c, 4, 32, 70
7, 81168, Note_on_c, 4, 44, 56
7, 81296, Note_off_c, 4, 44, 0
7, 81296, Note_off_c, 4, 32, 0
7, 81312, Note_on_c, 4, 32, 68
7, 81312, Note_on_c, 4, 44, 55
7, 81384, Note_off_c, 4, 44, 0
7, 81384, Note_off_c, 4, 32, 0
7, 81408, Note_on_c, 4, 31, 70
7, 81408, Note_on_c, 4, 43, 57
7, 81468, Note_off_c, 4, 43, 0
7, 81468, Note_off_c, 4, 31, 0
7, 81504, Note_on_c, 4, 31, 72
7, 81504, Note_on_c, 4, 43, 58
7, 81624, Note_off_c, 4, 43, 0
7, 81624, Note_off_c, 4, 31, 0
7, 81648, Note_on_c, 4, 31, 72
7, 81648, Note_on_c, 4, 43, 59
7, 81788, Note_off_c, 4, 43, 0
7, 81788, Note_off_c, 4, 31, 0
7, 81792, Note_on_c, 4, 36, 71
7, 81792, Note_on_c, 4, 48, 57
7, 81924, Note_off_c, 4, 48, 0
7, 81924, Note_off_c, 4, 36, 0
7, 81936, Note_on_c, 4, 36, 70
7, 81936, Note_on_c, 4, 48, 56
7, 82064, Note_off_c, 4, 48, 0
7, 82064, Note_off_c, 4, 36, 0
7, 82080, Note_on_c, 4, 36, 68
7, 82080, Note_on_c, 4, 48, 55
7, 82152, Note_off_c, 4, 48, 0
7, 82152, Note_off_c, 4, 36, 0
7, 82176, Note_on_c, 4, 29, 70
7, 82176, Note_on_c, 4, 41, 57
7, 82236, Note_off_c, 4, 41, 0
7, 82236, Note_off_c, 4, 29, 0
7, 82272, Note_on_c, 4, 29, 72
7, 82272, Note_on_c, 4, 41, 58
7, 82392, Note_off_c, 4, 41, 0
7, 82392, Note_off_c, 4, 29, 0
7, 82416, Note_on_c, 4, 29, 72
7, 82416, Note_on_c, 4, 41, 59
7, 82556, Note_off_c, 4, 41, 0
7, 82556, Note_off_c, 4, 29, 0
7, 82560, Note_on_c, 4, 34, 71
7, 82560, Note_on_c, 4, 46, 57
7, 82692, Note_off_c, 4, 46, 0
7, 82692, Note_off_c, 4, 34, 0
7, 82704, Note_on_c, 4, 34, 70
7, 82704, Note_on_c, 4, 46, 56
7, 82832, Note_off_c, 4, 46, 0
7, 82832, Note_off_c, 4, 34, 0
7, 82848, Note_on_c, 4, 34, 68
7, 82848, Note_on_c, 4, 46, 55
7, 82920, Note_off_c, 4, 46, 0
7, 82920, Note_off_c, 4, 34, 0
7, 82944, Note_on_c, 4, 34, 70
7, 82944, Note_on_c, 4, 46, 57
7, 83004, Note_off_c, 4, 46, 0
7, 83004, Note_off_c, 4, 34, 0
7, 83040, Note_on_c, 4, 34, 72
7, 83040, Note_on_c, 4, 46, 58
7, 83160, Note_off_c, 4, 46, 0
7, 83160, Note_off_c, 4, 34, 0
7, 83184, Note_on_c, 4, 34, 72
7, 83184, Note_on_c, 4, 46, 59
7, 83324, Note_off_c, 4, 46, 0
7, 83324, Note_off_c, 4, 34, 0
7, 83328, Note_on_c, 4, 39, 71
7, 83328, Note_on_c, 4, 51, 57
7, 83460, Note_off_c, 4, 51, 0
7, 83460, Note_off_c, 4, 39, 0
7, 83472, Note_on_c, 4, 39, 70
7, 83472, Note_on_c, 4, 51, 56
7, 83600, Note_off_c, 4, 51, 0
7, 83600, Note_off_c, 4, 39, 0
7, 83616, Note_on_c, 4, 39, 68
7, 83616, Note_on_c, 4, 51, 55
7, 83688, Note_off_c, 4, 51, 0
7, 83688, Note_off_c, 4, 39, 0
7, 83712, Note_on_c, 4, 32, 70
7, 83712, Note_on_c, 4, 44, 57
7, 83772, Note_off_c, 4, 44, 0
7, 83772, Note_off_c, 4, 32, 0
7, 83808, Note_on_c, 4, 32, 72
7, 83808, Note_on_c, 4, 44, 58
7, 83928, Note_off_c, 4, 44, 0
7, 83928, Note_off_c, 4, 32, 0
7, 83952, Note_on_c, 4, 32, 72
7, 83952, Note_on_c, 4, 44, 59
7, 84092, Note_off_c, 4, 44, 0
7, 84092, Note_off_c, 4, 32, 0
7, 84096, Note_on_c, 4, 32, 71
7, 84096, Note_on_c, 4, 44, 57
7, 84228, Note_off_c, 4, 44, 0
7, 84228, Note_off_c, 4, 32, 0
7, 84240, Note_on_c, 4, 32, 70
7, 84240, Note_on_c, 4, 44, 56
7, 84368, Note_off_c, 4, 44, 0
7, 84368, Note_off_c, 4, 32, 0
7, 84384, Note_on_c, 4, 32, 68
7, 84384, Note_on_c, 4, 44, 55
7, 84456, Note_off_c, 4, 44, 0
7, 84456, Note_off_c, 4, 32, 0
7, 84480, Note_on_c, 4, 31, 70
7, 84480, Note_on_c, 4, 43, 57
7, 84540, Note_off_c, 4, 43, 0
7, 84540, Note_off_c, 4, 31, 0
7, 84576, Note_on_c, 4, 31, 72
7, 84576, Note_on_c, 4, 43, 58
7, 84696, Note_off_c, 4, 43, 0
7, 84696, Note_off_c, 4, 31, 0
7, 84720, Note_on_c, 4, 31, 72
7, 84720, Note_on_c, 4, 43, 59
7, 84860, Note_off_c, 4, 43, 0
7, 84860, Note_off_c, 4, 31, 0
7, 84864, Note_on_c, 4, 36, 71
7, 84864, Note_on_c, 4, 48, 57
7, 84996, Note_off_c, 4, 48, 0
7, 84996, Note_off_c, 4, 36, 0
7, 85008, Note_on_c, 4, 36, 70
7, 85008, Note_on_c, 4, 48, 56
7, 85136, Note_off_c, 4, 48, 0
7, 85136, Note_off_c, 4, 36, 0
7, 85152, Note_on_c, 4, 36, 68
7, 85152, Note_on_c, 4, 48, 55
7, 85224, Note_off_c, 4, 48, 0
7, 85224, Note_off_c, 4, 36, 0
7, 85248, Note_on_c, 4, 38, 70
7, 85248, Note_on_c, 4, 50, 57
7, 85308, Note_off_c, 4, 50, 0
7, 85308, Note_off_c, 4, 38, 0
7, 85344, Note_on_c, 4, 38, 72
7, 85344, Note_on_c, 4, 50, 58
7, 85464, Note_off_c, 4, 50, 0
7, 85464, Note_off_c, 4, 38, 0
7, 85488, Note_on_c, 4, 38, 72
7, 85488, Note_on_c, 4, 50, 59
7, 85628, Note_off_c, 4, 50, 0
7, 85628, Note_off_c, 4, 38, 0
7, 85632, Note_on_c, 4, 38, 71
7, 85632, Note_on_c, 4, 50, 57
7, 85764, Note_off_c, 4, 50, 0
7, 85764, Note_off_c, 4, 38, 0
7, 85776, Note_on_c, 4, 38, 70
7, 85776, Note_on_c, 4, 50, 56
7, 85904, Note_off_c, 4, 50, 0
7, 85904, Note_off_c, 4, 38, 0
7, 85920, Note_on_c, 4, 38, 68
7, 85920, Note_on_c, 4, 50, 55
7, 85992, Note_off_c, 4, 50, 0
7, 85992, Note_off_c, 4, 38, 0
7, 86016, Note_on_c, 4, 31, 70
7, 86016, Note_on_c, 4, 43, 57
7, 86076, Note_off_c, 4, 43, 0
7, 86076, Note_off_c, 4, 31, 0
7, 86112, Note_on_c, 4, 31, 72
7, 86112, Note_on_c, 4, 43, 58
7, 86232, Note_off_c, 4, 43, 0
7, 86232, Note_off_c, 4, 31, 0
7, 86256, Note_on_c, 4, 31, 72
7, 86256, Note_on_c, 4, 43, 59
7, 86396, Note_off_c, 4, 43, 0
7, 86396, Note_off_c, 4, 31, 0
7, 86400, Note_on_c, 4, 31, 71
7, 86400, Note_on_c, 4, 43, 57
7, 86532, Note_off_c, 4, 43, 0
7, 86532, Note_off_c, 4, 31, 0
7, 86544, Note_on_c, 4, 31, 70
7, 86544, Note_on_c, 4, 43, 56
7, 86672, Note_off_c, 4, 43, 0
7, 86672, Note_off_c, 4, 31, 0
7, 86688, Note_on_c, 4, 31, 68
7, 86688, Note_on_c, 4, 43, 55
7, 86760, Note_off_c, 4, 43, 0
7, 86760, Note_off_c, 4, 31, 0
7, 86784, Note_on_c, 4, 36, 72
7, 86784, Note_on_c, 4, 48, 59
7, 87168, Note_off_c, 4, 48, 0
7, 87168, Note_off_c, 4, 36, 0
7, 87168, Note_on_c, 4, 41, 72
7, 87168, Note_on_c, 4, 53, 59
7, 87552, Note_off_c, 4, 53, 0
7, 87552, Note_off_c, 4, 41, 0
7, 87552, Note_on_c, 4, 34, 72
7, 87552, Note_on_c, 4, 46, 59
7, 87936, Note_off_c, 4, 46, 0
7, 87936, Note_off_c, 4, 34, 0
7, 87936, Note_on_c, 4, 39, 72
7, 87936, Note_on_c, 4, 51, 59
7, 88320, Note_off_c, 4, 51, 0
7, 88320, Note_off_c, 4, 39, 0
7, 88320, Note_on_c, 4, 36, 72
7, 88320, Note_on_c, 4, 48, 59
7, 88704, Note_off_c, 4, 48, 0
7, 88704, Note_off_c, 4, 36, 0
7, 88704, Note_on_c, 4, 41, 72
7, 88704, Note_on_c, 4, 53, 59
7, 89088, Note_off_c, 4, 53, 0
7, 89088, Note_off_c, 4, 41, 0
7, 89088, Note_on_c, 4, 34, 72
7, 89088, Note_on_c, 4, 46, 59
7, 89472, Note_off_c, 4, 46, 0
7, 89472, Note_off_c, 4, 34, 0
7, 89472, Note_on_c, 4, 39, 72
7, 89472, Note_on_c, 4, 51, 59
7, 89856, Note_off_c, 4, 51, 0
7, 89856, Note_off_c, 4, 39, 0
7, 89856, Note_on_c, 4, 36, 72
7, 89856, Note_on_c, 4, 48, 59
7, 90240, Note_off_c, 4, 48, 0
7, 90240, Note_off_c, 4, 36, 0
7, 90240, Note_on_c, 4, 41, 72
7, 90240, Note_on_c, 4, 53, 59
7, 90624, Note_off_c, 4, 53, 0
7, 90624, Note_off_c, 4, 41, 0
7, 90624, Note_on_c, 4, 34, 72
7, 90624, Note_on_c, 4, 46, 59
7, 91008, Note_off_c, 4, 46, 0
7, 91008, Note_off_c, 4, 34, 0
7, 91008, Note_on_c, 4, 39, 72
7, 91008, Note_on_c, 4, 51, 59
7, 91392, Note_off_c, 4, 51, 0
7, 91392, Note_off_c, 4, 39, 0
7, 91392, Note_on_c, 4, 36, 72
7, 91392, Note_on_c, 4, 48, 59
7, 91776, Note_off_c, 4, 48, 0
7, 91776, Note_off_c, 4, 36, 0
7, 91776, Note_on_c, 4, 41, 72
7, 91776, Note_on_c, 4, 53, 59
7, 92160, Note_off_c, 4, 53, 0
7, 92160, Note_off_c, 4, 41, 0
7, 92160, Note_on_c, 4, 34, 72
7, 92160, Note_on_c, 4, 46, 59
7, 92544, Note_off_c, 4, 46, 0
7, 92544, Note_off_c, 4, 34, 0
7, 92544, Note_on_c, 4, 36, 72
7, 92544, Note_on_c, 4, 48, 59
7, 92928, Note_off_c, 4, 48, 0
7, 92928, Note_off_c, 4, 36, 0
7, 92928, Note_on_c, 4, 36, 72
7, 92928, Note_on_c, 4, 48, 59
7, 93312, Note_off_c, 4, 48, 0
7, 93312, Note_off_c, 4, 36, 0
7, 93312, Note_on_c, 4, 41, 72
7, 93312, Note_on_c, 4, 53, 59
7, 93696, Note_off_c, 4, 53, 0
7, 93696, Note_off_c, 4, 41, 0
7, 93696, Note_on_c, 4, 34, 72
7, 93696, Note_on_c, 4, 46, 59
7, 94080, Note_off_c, 4, 46, 0
7, 94080, Note_off_c, 4, 34, 0
7, 94080, Note_on_c, 4, 39, 72
7, 94080, Note_on_c, 4, 51, 59
7, 94464, Note_off_c, 4, 51, 0
7, 94464, Note_off_c, 4, 39, 0
7, 94464, Note_on_c, 4, 36, 72
7, 94464, Note_on_c, 4, 48, 59
7, 94848, Note_off_c, 4, 48, 0
7, 94848, Note_off_c, 4, 36, 0
7, 94848, Note_on_c, 4, 41, 72
7, 94848, Note_on_c, 4, 53, 59
7, 95232, Note_off_c, 4, 53, 0
7, 95232, Note_off_c, 4, 41, 0
7, 95232, Note_on_c, 4, 34, 72
7, 95232, Note_on_c, 4, 46, 59
7, 95312, Note_off_c, 4, 46, 0
7, 95312, Note_off_c, 4, 34, 0
7, 95328, Note_on_c, 4, 34, 72
7, 95328, Note_on_c, 4, 46, 59
7, 95408, Note_off_c, 4, 46, 0
7, 95408, Note_off_c, 4, 34, 0
7, 95424, Note_on_c, 4, 31, 72
7, 95424, Note_on_c, 4, 43, 59
7, 95504, Note_off_c, 4, 43, 0
7, 95504, Note_off_c, 4, 31, 0
7, 95520, Note_on_c, 4, 34, 72
7, 95520, Note_on_c, 4, 46, 59
7, 95600, Note_off_c, 4, 46, 0
7, 95600, Note_off_c, 4, 34, 0
7, 95616, Note_on_c, 4, 34, 72
7, 95616, Note_on_c, 4, 46, 59
7, 95756, Note_off_c, 4, 46, 0
7, 95756, Note_off_c, 4, 34, 0
7, 95760, Note_on_c, 4, 36, 72
7, 95760, Note_on_c, 4, 48, 59
7, 95852, Note_off_c, 4, 48, 0
7, 95852, Note_off_c, 4, 36, 0
7, 95852, End_track
8, 0, Start_track
8, 0, Title_t, "umich"
8, 0, Channel_prefix, 5
8, 0, Control_c, 5, 7, 115
8, 0, Program_c, 5, 0
8, 0, Control_c, 5, 0, 0
8, 0, Control_c, 5, 91, 30
8, 0, Control_c, 5, 93, 10
8, 6528, Control_c, 5, 11, 95
8, 6624, Program_c, 5, 2
8, 6912, Note_on_c, 5, 58, 127
8, 6912, Note_on_c, 5, 63, 127
8, 6912, Note_on_c, 5, 67, 127
8, 7676, Note_off_c, 5, 67, 0
8, 7676, Note_off_c, 5, 63, 0
8, 7676, Note_off_c, 5, 58, 0
8, 7680, Note_on_c, 5, 58, 127
8, 7680, Note_on_c, 5, 62, 127
8, 7680, Note_on_c, 5, 65, 127
8, 8444, Note_off_c, 5, 65, 0
8, 8444, Note_off_c, 5, 62, 0
8, 8444, Note_off_c, 5, 58, 0
8, 8448, Note_on_c, 5, 60, 127
8, 8448, Note_on_c, 5, 63, 127
8, 8448, Note_on_c, 5, 67, 127
8, 8828, Note_off_c, 5, 67, 0
8, 8828, Note_off_c, 5, 63, 0
8, 8828, Note_off_c, 5, 60, 0
8, 8832, Note_on_c, 5, 62, 127
8, 8832, Note_on_c, 5, 65, 127
8, 8832, Note_on_c, 5, 67, 127
8, 9212, Note_off_c, 5, 67, 0
8, 9212, Note_off_c, 5, 65, 0
8, 9212, Note_off_c, 5, 62, 0
8, 9216, Note_on_c, 5, 60, 127
8, 9216, Note_on_c, 5, 63, 127
8, 9216, Note_on_c, 5, 67, 127
8, 9980, Note_off_c, 5, 67, 0
8, 9980, Note_off_c, 5, 63, 0
8, 9980, Note_off_c, 5, 60, 0
8, 9984, Note_on_c, 5, 58, 127
8, 9984, Note_on_c, 5, 63, 127
8, 9984, Note_on_c, 5, 65, 127
8, 10364, Note_off_c, 5, 65, 0
8, 10364, Note_off_c, 5, 63, 0
8, 10364, Note_off_c, 5, 58, 0
8, 10368, Note_on_c, 5, 58, 127
8, 10368, Note_on_c, 5, 62, 127
8, 10368, Note_on_c, 5, 65, 127
8, 10748, Note_off_c, 5, 65, 0
8, 10748, Note_off_c, 5, 62, 0
8, 10748, Note_off_c, 5, 58, 0
8, 10752, Note_on_c, 5, 58, 127
8, 10752, Note_on_c, 5, 63, 127
8, 10752, Note_on_c, 5, 68, 127
8, 11132, Note_off_c, 5, 68, 0
8, 11132, Note_off_c, 5, 63, 0
8, 11132, Note_off_c, 5, 58, 0
8, 11136, Note_on_c, 5, 60, 127
8, 11136, Note_on_c, 5, 63, 127
8, 11136, Note_on_c, 5, 67, 127
8, 11516, Note_off_c, 5, 67, 0
8, 11516, Note_off_c, 5, 63, 0
8, 11516, Note_off_c, 5, 60, 0
8, 11520, Note_on_c, 5, 57, 127
8, 11520, Note_on_c, 5, 62, 127
8, 11520, Note_on_c, 5, 67, 127
8, 12284, Note_off_c, 5, 67, 0
8, 12284, Note_off_c, 5, 62, 0
8, 12284, Note_off_c, 5, 57, 0
8, 12288, Note_on_c, 5, 60, 127
8, 12288, Note_on_c, 5, 62, 127
8, 12288, Note_on_c, 5, 67, 127
8, 12668, Note_off_c, 5, 67, 0
8, 12668, Note_off_c, 5, 62, 0
8, 12668, Note_off_c, 5, 60, 0
8, 12672, Note_on_c, 5, 59, 127
8, 12672, Note_on_c, 5, 62, 127
8, 12672, Note_on_c, 5, 67, 127
8, 13052, Note_off_c, 5, 67, 0
8, 13052, Note_off_c, 5, 62, 0
8, 13052, Note_off_c, 5, 59, 0
8, 13056, Note_on_c, 5, 58, 127
8, 13056, Note_on_c, 5, 63, 127
8, 13056, Note_on_c, 5, 67, 127
8, 13820, Note_off_c, 5, 67, 0
8, 13820, Note_off_c, 5, 63, 0
8, 13820, Note_off_c, 5, 58, 0
8, 13824, Note_on_c, 5, 58, 127
8, 13824, Note_on_c, 5, 62, 127
8, 13824, Note_on_c, 5, 65, 127
8, 14588, Note_off_c, 5, 65, 0
8, 14588, Note_off_c, 5, 62, 0
8, 14588, Note_off_c, 5, 58, 0
8, 14592, Note_on_c, 5, 60, 127
8, 14592, Note_on_c, 5, 63, 127
8, 14592, Note_on_c, 5, 67, 127
8, 14972, Note_off_c, 5, 67, 0
8, 14972, Note_off_c, 5, 63, 0
8, 14972, Note_off_c, 5, 60, 0
8, 14976, Note_on_c, 5, 62, 127
8, 14976, Note_on_c, 5, 65, 127
8, 14976, Note_on_c, 5, 67, 127
8, 15356, Note_off_c, 5, 67, 0
8, 15356, Note_off_c, 5, 65, 0
8, 15356, Note_off_c, 5, 62, 0
8, 15360, Note_on_c, 5, 60, 127
8, 15360, Note_on_c, 5, 63, 127
8, 15360, Note_on_c, 5, 67, 127
8, 16124, Note_off_c, 5, 67, 0
8, 16124, Note_off_c, 5, 63, 0
8, 16124, Note_off_c, 5, 60, 0
8, 16128, Note_on_c, 5, 58, 127
8, 16128, Note_on_c, 5, 63, 127
8, 16128, Note_on_c, 5, 65, 127
8, 16508, Note_off_c, 5, 65, 0
8, 16508, Note_off_c, 5, 63, 0
8, 16508, Note_off_c, 5, 58, 0
8, 16512, Note_on_c, 5, 58, 127
8, 16512, Note_on_c, 5, 62, 127
8, 16512, Note_on_c, 5, 65, 127
8, 16892, Note_off_c, 5, 65, 0
8, 16892, Note_off_c, 5, 62, 0
8, 16892, Note_off_c, 5, 58, 0
8, 16896, Note_on_c, 5, 58, 127
8, 16896, Note_on_c, 5, 63, 127
8, 16896, Note_on_c, 5, 68, 127
8, 17276, Note_off_c, 5, 68, 0
8, 17276, Note_off_c, 5, 63, 0
8, 17276, Note_off_c, 5, 58, 0
8, 17280, Note_on_c, 5, 60, 127
8, 17280, Note_on_c, 5, 63, 127
8, 17280, Note_on_c, 5, 67, 127
8, 17660, Note_off_c, 5, 67, 0
8, 17660, Note_off_c, 5, 63, 0
8, 17660, Note_off_c, 5, 60, 0
8, 17664, Note_on_c, 5, 60, 127
8, 17664, Note_on_c, 5, 65, 127
8, 17664, Note_on_c, 5, 69, 127
8, 18044, Note_off_c, 5, 69, 0
8, 18044, Note_off_c, 5, 65, 0
8, 18044, Note_off_c, 5, 60, 0
8, 18048, Note_on_c, 5, 62, 127
8, 18048, Note_on_c, 5, 65, 127
8, 18048, Note_on_c, 5, 68, 127
8, 18428, Note_off_c, 5, 68, 0
8, 18428, Note_off_c, 5, 65, 0
8, 18428, Note_off_c, 5, 62, 0
8, 18432, Control_c, 5, 11, 100
8, 18432, Note_on_c, 5, 62, 127
8, 18432, Note_on_c, 5, 67, 127
8, 18432, Note_on_c, 5, 72, 127
8, 18612, Note_off_c, 5, 72, 0
8, 18612, Note_off_c, 5, 67, 0
8, 18612, Note_off_c, 5, 62, 0
8, 18624, Note_on_c, 5, 62, 127
8, 18624, Note_on_c, 5, 67, 127
8, 18624, Note_on_c, 5, 71, 127
8, 18804, Note_off_c, 5, 71, 0
8, 18804, Note_off_c, 5, 67, 0
8, 18804, Note_off_c, 5, 62, 0
8, 18816, Note_on_c, 5, 62, 127
8, 18816, Note_on_c, 5, 67, 127
8, 18816, Note_on_c, 5, 69, 127
8, 18996, Note_off_c, 5, 69, 0
8, 18996, Note_off_c, 5, 67, 0
8, 18996, Note_off_c, 5, 62, 0
8, 19008, Note_on_c, 5, 62, 127
8, 19008, Note_on_c, 5, 67, 127
8, 19008, Note_on_c, 5, 71, 127
8, 19196, Note_off_c, 5, 71, 0
8, 19196, Note_off_c, 5, 67, 0
8, 19196, Note_off_c, 5, 62, 0
8, 19196, Control_c, 5, 11, 95
8, 19196, Program_c, 5, 4
8, 19200, Control_c, 5, 91, 0
8, 19200, Control_c, 5, 93, 10
8, 19200, Note_on_c, 5, 80, 127
8, 19200, Note_on_c, 5, 84, 127
8, 19200, Note_on_c, 5, 87, 127
8, 19968, Note_off_c, 5, 87, 0
8, 19968, Note_off_c, 5, 84, 0
8, 19968, Note_off_c, 5, 80, 0
8, 19968, Note_on_c, 5, 82, 127
8, 19968, Note_on_c, 5, 86, 127
8, 19968, Note_on_c, 5, 89, 127
8, 20352, Note_off_c, 5, 89, 0
8, 20352, Note_off_c, 5, 86, 0
8, 20352, Note_off_c, 5, 82, 0
8, 20352, Note_on_c, 5, 79, 127
8, 20352, Note_on_c, 5, 84, 127
8, 20352, Note_on_c, 5, 87, 127
8, 20736, Note_off_c, 5, 87, 0
8, 20736, Note_off_c, 5, 84, 0
8, 20736, Note_off_c, 5, 79, 0
8, 20736, Note_on_c, 5, 77, 127
8, 20736, Note_on_c, 5, 80, 127
8, 20736, Note_on_c, 5, 84, 127
8, 21120, Note_off_c, 5, 84, 0
8, 21120, Note_off_c, 5, 80, 0
8, 21120, Note_off_c, 5, 77, 0
8, 21120, Note_on_c, 5, 74, 127
8, 21120, Note_on_c, 5, 77, 127
8, 21120, Note_on_c, 5, 80, 127
8, 21504, Note_off_c, 5, 80, 0
8, 21504, Note_off_c, 5, 77, 0
8, 21504, Note_off_c, 5, 74, 0
8, 21504, Note_on_c, 5, 70, 127
8, 21504, Note_on_c, 5, 73, 127
8, 21504, Note_on_c, 5, 77, 127
8, 21696, Note_off_c, 5, 77, 0
8, 21696, Note_off_c, 5, 73, 0
8, 21696, Note_off_c, 5, 70, 0
8, 21696, Note_on_c, 5, 72, 127
8, 21696, Note_on_c, 5, 75, 127
8, 21696, Note_on_c, 5, 79, 127
8, 21888, Note_off_c, 5, 79, 0
8, 21888, Note_off_c, 5, 75, 0
8, 21888, Note_off_c, 5, 72, 0
8, 21888, Note_on_c, 5, 73, 127
8, 21888, Note_on_c, 5, 77, 127
8, 21888, Note_on_c, 5, 80, 127
8, 22080, Note_off_c, 5, 80, 0
8, 22080, Note_off_c, 5, 77, 0
8, 22080, Note_off_c, 5, 73, 0
8, 22080, Note_on_c, 5, 75, 127
8, 22080, Note_on_c, 5, 79, 127
8, 22080, Note_on_c, 5, 82, 127
8, 22272, Note_off_c, 5, 82, 0
8, 22272, Note_off_c, 5, 79, 0
8, 22272, Note_off_c, 5, 75, 0
8, 22272, Note_on_c, 5, 75, 127
8, 22272, Note_on_c, 5, 80, 127
8, 22272, Note_on_c, 5, 84, 127
8, 23040, Note_off_c, 5, 84, 0
8, 23040, Note_off_c, 5, 80, 0
8, 23040, Note_off_c, 5, 75, 0
8, 23040, Note_on_c, 5, 74, 127
8, 23040, Note_on_c, 5, 79, 127
8, 23040, Note_on_c, 5, 82, 127
8, 23424, Note_off_c, 5, 82, 0
8, 23424, Note_off_c, 5, 79, 0
8, 23424, Note_off_c, 5, 74, 0
8, 23424, Note_on_c, 5, 75, 127
8, 23424, Note_on_c, 5, 79, 127
8, 23424, Note_on_c, 5, 84, 127
8, 23808, Note_off_c, 5, 84, 0
8, 23808, Note_off_c, 5, 79, 0
8, 23808, Note_off_c, 5, 75, 0
8, 23808, Note_on_c, 5, 77, 127
8, 23808, Note_on_c, 5, 80, 127
8, 23808, Note_on_c, 5, 86, 127
8, 24576, Note_off_c, 5, 86, 0
8, 24576, Note_off_c, 5, 80, 0
8, 24576, Note_off_c, 5, 77, 0
8, 24768, Control_c, 5, 11, 95
8, 24864, Program_c, 5, 2
8, 24960, Control_c, 5, 91, 30
8, 25056, Control_c, 5, 93, 10
8, 25440, Note_on_c, 5, 63, 127
8, 25440, Note_on_c, 5, 67, 127
8, 25440, Note_on_c, 5, 72, 127
8, 25492, Note_off_c, 5, 72, 0
8, 25492, Note_off_c, 5, 67, 0
8, 25492, Note_off_c, 5, 63, 0
8, 25584, Note_on_c, 5, 63, 127
8, 25584, Note_on_c, 5, 67, 127
8, 25584, Note_on_c, 5, 72, 127
8, 25724, Note_off_c, 5, 72, 0
8, 25724, Note_off_c, 5, 67, 0
8, 25724, Note_off_c, 5, 63, 0
8, 25728, Note_on_c, 5, 65, 127
8, 25728, Note_on_c, 5, 68, 127
8, 25728, Note_on_c, 5, 72, 127
8, 25860, Note_off_c, 5, 72, 0
8, 25860, Note_off_c, 5, 68, 0
8, 25860, Note_off_c, 5, 65, 0
8, 25872, Note_on_c, 5, 65, 127
8, 25872, Note_on_c, 5, 68, 127
8, 25872, Note_on_c, 5, 72, 127
8, 26004, Note_off_c, 5, 72, 0
8, 26004, Note_off_c, 5, 68, 0
8, 26004, Note_off_c, 5, 65, 0
8, 26016, Note_on_c, 5, 65, 127
8, 26016, Note_on_c, 5, 68, 127
8, 26016, Note_on_c, 5, 72, 127
8, 26108, Note_off_c, 5, 72, 0
8, 26108, Note_off_c, 5, 68, 0
8, 26108, Note_off_c, 5, 65, 0
8, 26208, Note_on_c, 5, 65, 127
8, 26208, Note_on_c, 5, 70, 127
8, 26208, Note_on_c, 5, 74, 127
8, 26260, Note_off_c, 5, 74, 0
8, 26260, Note_off_c, 5, 70, 0
8, 26260, Note_off_c, 5, 65, 0
8, 26352, Note_on_c, 5, 65, 127
8, 26352, Note_on_c, 5, 70, 127
8, 26352, Note_on_c, 5, 74, 127
8, 26492, Note_off_c, 5, 74, 0
8, 26492, Note_off_c, 5, 70, 0
8, 26492, Note_off_c, 5, 65, 0
8, 26496, Note_on_c, 5, 67, 127
8, 26496, Note_on_c, 5, 70, 127
8, 26496, Note_on_c, 5, 75, 127
8, 26628, Note_off_c, 5, 75, 0
8, 26628, Note_off_c, 5, 70, 0
8, 26628, Note_off_c, 5, 67, 0
8, 26640, Note_on_c, 5, 67, 127
8, 26640, Note_on_c, 5, 70, 127
8, 26640, Note_on_c, 5, 75, 127
8, 26772, Note_off_c, 5, 75, 0
8, 26772, Note_off_c, 5, 70, 0
8, 26772, Note_off_c, 5, 67, 0
8, 26784, Note_on_c, 5, 67, 127
8, 26784, Note_on_c, 5, 70, 127
8, 26784, Note_on_c, 5, 75, 127
8, 26876, Note_off_c, 5, 75, 0
8, 26876, Note_off_c, 5, 70, 0
8, 26876, Note_off_c, 5, 67, 0
8, 26976, Note_on_c, 5, 63, 127
8, 26976, Note_on_c, 5, 67, 127
8, 26976, Note_on_c, 5, 72, 127
8, 27028, Note_off_c, 5, 72, 0
8, 27028, Note_off_c, 5, 67, 0
8, 27028, Note_off_c, 5, 63, 0
8, 27120, Note_on_c, 5, 63, 127
8, 27120, Note_on_c, 5, 67, 127
8, 27120, Note_on_c, 5, 72, 127
8, 27260, Note_off_c, 5, 72, 0
8, 27260, Note_off_c, 5, 67, 0
8, 27260, Note_off_c, 5, 63, 0
8, 27264, Note_on_c, 5, 65, 127
8, 27264, Note_on_c, 5, 68, 127
8, 27264, Note_on_c, 5, 72, 127
8, 27396, Note_off_c, 5, 72, 0
8, 27396, Note_off_c, 5, 68, 0
8, 27396, Note_off_c, 5, 65, 0
8, 27408, Note_on_c, 5, 65, 127
8, 27408, Note_on_c, 5, 68, 127
8, 27408, Note_on_c, 5, 72, 127
8, 27540, Note_off_c, 5, 72, 0
8, 27540, Note_off_c, 5, 68, 0
8, 27540, Note_off_c, 5, 65, 0
8, 27552, Note_on_c, 5, 65, 127
8, 27552, Note_on_c, 5, 68, 127
8, 27552, Note_on_c, 5, 72, 127
8, 27644, Note_off_c, 5, 72, 0
8, 27644, Note_off_c, 5, 68, 0
8, 27644, Note_off_c, 5, 65, 0
8, 27744, Note_on_c, 5, 65, 127
8, 27744, Note_on_c, 5, 70, 127
8, 27744, Note_on_c, 5, 74, 127
8, 27796, Note_off_c, 5, 74, 0
8, 27796, Note_off_c, 5, 70, 0
8, 27796, Note_off_c, 5, 65, 0
8, 27888, Note_on_c, 5, 65, 127
8, 27888, Note_on_c, 5, 70, 127
8, 27888, Note_on_c, 5, 74, 127
8, 28028, Note_off_c, 5, 74, 0
8, 28028, Note_off_c, 5, 70, 0
8, 28028, Note_off_c, 5, 65, 0
8, 28032, Note_on_c, 5, 67, 127
8, 28032, Note_on_c, 5, 70, 127
8, 28032, Note_on_c, 5, 75, 127
8, 28164, Note_off_c, 5, 75, 0
8, 28164, Note_off_c, 5, 70, 0
8, 28164, Note_off_c, 5, 67, 0
8, 28176, Note_on_c, 5, 67, 127
8, 28176, Note_on_c, 5, 70, 127
8, 28176, Note_on_c, 5, 75, 127
8, 28308, Note_off_c, 5, 75, 0
8, 28308, Note_off_c, 5, 70, 0
8, 28308, Note_off_c, 5, 67, 0
8, 28320, Note_on_c, 5, 67, 127
8, 28320, Note_on_c, 5, 70, 127
8, 28320, Note_on_c, 5, 75, 127
8, 28412, Note_off_c, 5, 75, 0
8, 28412, Note_off_c, 5, 70, 0
8, 28412, Note_off_c, 5, 67, 0
8, 28512, Note_on_c, 5, 63, 127
8, 28512, Note_on_c, 5, 67, 127
8, 28512, Note_on_c, 5, 72, 127
8, 28564, Note_off_c, 5, 72, 0
8, 28564, Note_off_c, 5, 67, 0
8, 28564, Note_off_c, 5, 63, 0
8, 28656, Note_on_c, 5, 63, 127
8, 28656, Note_on_c, 5, 67, 127
8, 28656, Note_on_c, 5, 72, 127
8, 28796, Note_off_c, 5, 72, 0
8, 28796, Note_off_c, 5, 67, 0
8, 28796, Note_off_c, 5, 63, 0
8, 28800, Note_on_c, 5, 65, 127
8, 28800, Note_on_c, 5, 68, 127
8, 28800, Note_on_c, 5, 72, 127
8, 28932, Note_off_c, 5, 72, 0
8, 28932, Note_off_c, 5, 68, 0
8, 28932, Note_off_c, 5, 65, 0
8, 28944, Note_on_c, 5, 65, 127
8, 28944, Note_on_c, 5, 68, 127
8, 28944, Note_on_c, 5, 72, 127
8, 29076, Note_off_c, 5, 72, 0
8, 29076, Note_off_c, 5, 68, 0
8, 29076, Note_off_c, 5, 65, 0
8, 29088, Note_on_c, 5, 65, 127
8, 29088, Note_on_c, 5, 68, 127
8, 29088, Note_on_c, 5, 72, 127
8, 29180, Note_off_c, 5, 72, 0
8, 29180, Note_off_c, 5, 68, 0
8, 29180, Note_off_c, 5, 65, 0
8, 29280, Note_on_c, 5, 65, 127
8, 29280, Note_on_c, 5, 70, 127
8, 29280, Note_on_c, 5, 74, 127
8, 29332, Note_off_c, 5, 74, 0
8, 29332, Note_off_c, 5, 70, 0
8, 29332, Note_off_c, 5, 65, 0
8, 29424, Note_on_c, 5, 65, 127
8, 29424, Note_on_c, 5, 70, 127
8, 29424, Note_on_c, 5, 74, 127
8, 29564, Note_off_c, 5, 74, 0
8, 29564, Note_off_c, 5, 70, 0
8, 29564, Note_off_c, 5, 65, 0
8, 29568, Note_on_c, 5, 67, 127
8, 29568, Note_on_c, 5, 70, 127
8, 29568, Note_on_c, 5, 75, 127
8, 29700, Note_off_c, 5, 75, 0
8, 29700, Note_off_c, 5, 70, 0
8, 29700, Note_off_c, 5, 67, 0
8, 29712, Note_on_c, 5, 67, 127
8, 29712, Note_on_c, 5, 70, 127
8, 29712, Note_on_c, 5, 75, 127
8, 29844, Note_off_c, 5, 75, 0
8, 29844, Note_off_c, 5, 70, 0
8, 29844, Note_off_c, 5, 67, 0
8, 29856, Note_on_c, 5, 67, 127
8, 29856, Note_on_c, 5, 70, 127
8, 29856, Note_on_c, 5, 75, 127
8, 29948, Note_off_c, 5, 75, 0
8, 29948, Note_off_c, 5, 70, 0
8, 29948, Note_off_c, 5, 67, 0
8, 30048, Note_on_c, 5, 63, 127
8, 30048, Note_on_c, 5, 67, 127
8, 30048, Note_on_c, 5, 72, 127
8, 30100, Note_off_c, 5, 72, 0
8, 30100, Note_off_c, 5, 67, 0
8, 30100, Note_off_c, 5, 63, 0
8, 30192, Note_on_c, 5, 63, 127
8, 30192, Note_on_c, 5, 67, 127
8, 30192, Note_on_c, 5, 72, 127
8, 30332, Note_off_c, 5, 72, 0
8, 30332, Note_off_c, 5, 67, 0
8, 30332, Note_off_c, 5, 63, 0
8, 30336, Note_on_c, 5, 65, 127
8, 30336, Note_on_c, 5, 68, 127
8, 30336, Note_on_c, 5, 72, 127
8, 30468, Note_off_c, 5, 72, 0
8, 30468, Note_off_c, 5, 68, 0
8, 30468, Note_off_c, 5, 65, 0
8, 30480, Note_on_c, 5, 65, 127
8, 30480, Note_on_c, 5, 68, 127
8, 30480, Note_on_c, 5, 72, 127
8, 30612, Note_off_c, 5, 72, 0
8, 30612, Note_off_c, 5, 68, 0
8, 30612, Note_off_c, 5, 65, 0
8, 30624, Note_on_c, 5, 65, 127
8, 30624, Note_on_c, 5, 68, 127
8, 30624, Note_on_c, 5, 72, 127
8, 30716, Note_off_c, 5, 72, 0
8, 30716, Note_off_c, 5, 68, 0
8, 30716, Note_off_c, 5, 65, 0
8, 30816, Note_on_c, 5, 65, 127
8, 30816, Note_on_c, 5, 70, 127
8, 30816, Note_on_c, 5, 74, 127
8, 30868, Note_off_c, 5, 74, 0
8, 30868, Note_off_c, 5, 70, 0
8, 30868, Note_off_c, 5, 65, 0
8, 30960, Note_on_c, 5, 65, 127
8, 30960, Note_on_c, 5, 70, 127
8, 30960, Note_on_c, 5, 74, 127
8, 31100, Note_off_c, 5, 74, 0
8, 31100, Note_off_c, 5, 70, 0
8, 31100, Note_off_c, 5, 65, 0
8, 31104, Note_on_c, 5, 63, 127
8, 31104, Note_on_c, 5, 67, 127
8, 31104, Note_on_c, 5, 72, 127
8, 31244, Note_off_c, 5, 72, 0
8, 31244, Note_off_c, 5, 67, 0
8, 31244, Note_off_c, 5, 63, 0
8, 31248, Note_on_c, 5, 63, 127
8, 31248, Note_on_c, 5, 67, 127
8, 31248, Note_on_c, 5, 72, 127
8, 31488, Note_off_c, 5, 72, 0
8, 31488, Note_off_c, 5, 67, 0
8, 31488, Note_off_c, 5, 63, 0
8, 31584, Note_on_c, 5, 63, 127
8, 31584, Note_on_c, 5, 67, 127
8, 31584, Note_on_c, 5, 72, 127
8, 31636, Note_off_c, 5, 72, 0
8, 31636, Note_off_c, 5, 67, 0
8, 31636, Note_off_c, 5, 63, 0
8, 31728, Note_on_c, 5, 63, 127
8, 31728, Note_on_c, 5, 67, 127
8, 31728, Note_on_c, 5, 72, 127
8, 31868, Note_off_c, 5, 72, 0
8, 31868, Note_off_c, 5, 67, 0
8, 31868, Note_off_c, 5, 63, 0
8, 31872, Note_on_c, 5, 65, 127
8, 31872, Note_on_c, 5, 68, 127
8, 31872, Note_on_c, 5, 72, 127
8, 32004, Note_off_c, 5, 72, 0
8, 32004, Note_off_c, 5, 68, 0
8, 32004, Note_off_c, 5, 65, 0
8, 32016, Note_on_c, 5, 65, 127
8, 32016, Note_on_c, 5, 68, 127
8, 32016, Note_on_c, 5, 72, 127
8, 32148, Note_off_c, 5, 72, 0
8, 32148, Note_off_c, 5, 68, 0
8, 32148, Note_off_c, 5, 65, 0
8, 32160, Note_on_c, 5, 65, 127
8, 32160, Note_on_c, 5, 68, 127
8, 32160, Note_on_c, 5, 72, 127
8, 32252, Note_off_c, 5, 72, 0
8, 32252, Note_off_c, 5, 68, 0
8, 32252, Note_off_c, 5, 65, 0
8, 32352, Note_on_c, 5, 65, 127
8, 32352, Note_on_c, 5, 70, 127
8, 32352, Note_on_c, 5, 74, 127
8, 32404, Note_off_c, 5, 74, 0
8, 32404, Note_off_c, 5, 70, 0
8, 32404, Note_off_c, 5, 65, 0
8, 32496, Note_on_c, 5, 65, 127
8, 32496, Note_on_c, 5, 70, 127
8, 32496, Note_on_c, 5, 74, 127
8, 32636, Note_off_c, 5, 74, 0
8, 32636, Note_off_c, 5, 70, 0
8, 32636, Note_off_c, 5, 65, 0
8, 32640, Note_on_c, 5, 67, 127
8, 32640, Note_on_c, 5, 70, 127
8, 32640, Note_on_c, 5, 75, 127
8, 32772, Note_off_c, 5, 75, 0
8, 32772, Note_off_c, 5, 70, 0
8, 32772, Note_off_c, 5, 67, 0
8, 32784, Note_on_c, 5, 67, 127
8, 32784, Note_on_c, 5, 70, 127
8, 32784, Note_on_c, 5, 75, 127
8, 32916, Note_off_c, 5, 75, 0
8, 32916, Note_off_c, 5, 70, 0
8, 32916, Note_off_c, 5, 67, 0
8, 32928, Note_on_c, 5, 67, 127
8, 32928, Note_on_c, 5, 70, 127
8, 32928, Note_on_c, 5, 75, 127
8, 33020, Note_off_c, 5, 75, 0
8, 33020, Note_off_c, 5, 70, 0
8, 33020, Note_off_c, 5, 67, 0
8, 33120, Note_on_c, 5, 63, 127
8, 33120, Note_on_c, 5, 67, 127
8, 33120, Note_on_c, 5, 72, 127
8, 33172, Note_off_c, 5, 72, 0
8, 33172, Note_off_c, 5, 67, 0
8, 33172, Note_off_c, 5, 63, 0
8, 33264, Note_on_c, 5, 63, 127
8, 33264, Note_on_c, 5, 67, 127
8, 33264, Note_on_c, 5, 72, 127
8, 33404, Note_off_c, 5, 72, 0
8, 33404, Note_off_c, 5, 67, 0
8, 33404, Note_off_c, 5, 63, 0
8, 33408, Note_on_c, 5, 65, 127
8, 33408, Note_on_c, 5, 68, 127
8, 33408, Note_on_c, 5, 72, 127
8, 33540, Note_off_c, 5, 72, 0
8, 33540, Note_off_c, 5, 68, 0
8, 33540, Note_off_c, 5, 65, 0
8, 33552, Note_on_c, 5, 65, 127
8, 33552, Note_on_c, 5, 68, 127
8, 33552, Note_on_c, 5, 72, 127
8, 33684, Note_off_c, 5, 72, 0
8, 33684, Note_off_c, 5, 68, 0
8, 33684, Note_off_c, 5, 65, 0
8, 33696, Note_on_c, 5, 65, 127
8, 33696, Note_on_c, 5, 68, 127
8, 33696, Note_on_c, 5, 72, 127
8, 33788, Note_off_c, 5, 72, 0
8, 33788, Note_off_c, 5, 68, 0
8, 33788, Note_off_c, 5, 65, 0
8, 33888, Note_on_c, 5, 65, 127
8, 33888, Note_on_c, 5, 70, 127
8, 33888, Note_on_c, 5, 74, 127
8, 33940, Note_off_c, 5, 74, 0
8, 33940, Note_off_c, 5, 70, 0
8, 33940, Note_off_c, 5, 65, 0
8, 34032, Note_on_c, 5, 65, 127
8, 34032, Note_on_c, 5, 70, 127
8, 34032, Note_on_c, 5, 74, 127
8, 34172, Note_off_c, 5, 74, 0
8, 34172, Note_off_c, 5, 70, 0
8, 34172, Note_off_c, 5, 65, 0
8, 34176, Note_on_c, 5, 63, 127
8, 34176, Note_on_c, 5, 67, 127
8, 34176, Note_on_c, 5, 72, 127
8, 34316, Note_off_c, 5, 72, 0
8, 34316, Note_off_c, 5, 67, 0
8, 34316, Note_off_c, 5, 63, 0
8, 34320, Note_on_c, 5, 63, 127
8, 34320, Note_on_c, 5, 67, 127
8, 34320, Note_on_c, 5, 72, 127
8, 34560, Note_off_c, 5, 72, 0
8, 34560, Note_off_c, 5, 67, 0
8, 34560, Note_off_c, 5, 63, 0
8, 40608, Control_c, 5, 11, 70
8, 40704, Note_on_c, 5, 63, 127
8, 40704, Note_on_c, 5, 65, 127
8, 40704, Note_on_c, 5, 68, 127
8, 40704, Note_on_c, 5, 72, 127
8, 40792, Note_off_c, 5, 72, 0
8, 40792, Note_off_c, 5, 68, 0
8, 40792, Note_off_c, 5, 65, 0
8, 40792, Note_off_c, 5, 63, 0
8, 40800, Note_on_c, 5, 63, 127
8, 40800, Note_on_c, 5, 65, 127
8, 40800, Note_on_c, 5, 68, 127
8, 40800, Note_on_c, 5, 72, 127
8, 40940, Note_off_c, 5, 72, 0
8, 40940, Note_off_c, 5, 68, 0
8, 40940, Note_off_c, 5, 65, 0
8, 40940, Note_off_c, 5, 63, 0
8, 40944, Note_on_c, 5, 63, 127
8, 40944, Note_on_c, 5, 65, 127
8, 40944, Note_on_c, 5, 68, 127
8, 40944, Note_on_c, 5, 72, 127
8, 41084, Note_off_c, 5, 72, 0
8, 41084, Note_off_c, 5, 68, 0
8, 41084, Note_off_c, 5, 65, 0
8, 41084, Note_off_c, 5, 63, 0
8, 41088, Note_on_c, 5, 63, 127
8, 41088, Note_on_c, 5, 65, 127
8, 41088, Note_on_c, 5, 68, 127
8, 41088, Note_on_c, 5, 72, 127
8, 41228, Note_off_c, 5, 72, 0
8, 41228, Note_off_c, 5, 68, 0
8, 41228, Note_off_c, 5, 65, 0
8, 41228, Note_off_c, 5, 63, 0
8, 41232, Note_on_c, 5, 63, 127
8, 41232, Note_on_c, 5, 65, 127
8, 41232, Note_on_c, 5, 68, 127
8, 41232, Note_on_c, 5, 72, 127
8, 41372, Note_off_c, 5, 72, 0
8, 41372, Note_off_c, 5, 68, 0
8, 41372, Note_off_c, 5, 65, 0
8, 41372, Note_off_c, 5, 63, 0
8, 41376, Note_on_c, 5, 63, 127
8, 41376, Note_on_c, 5, 65, 127
8, 41376, Note_on_c, 5, 68, 127
8, 41376, Note_on_c, 5, 72, 127
8, 41468, Note_off_c, 5, 72, 0
8, 41468, Note_off_c, 5, 68, 0
8, 41468, Note_off_c, 5, 65, 0
8, 41468, Note_off_c, 5, 63, 0
8, 41472, Note_on_c, 5, 62, 127
8, 41472, Note_on_c, 5, 65, 127
8, 41472, Note_on_c, 5, 67, 127
8, 41472, Note_on_c, 5, 70, 127
8, 41564, Note_off_c, 5, 70, 0
8, 41564, Note_off_c, 5, 67, 0
8, 41564, Note_off_c, 5, 65, 0
8, 41564, Note_off_c, 5, 62, 0
8, 41568, Note_on_c, 5, 62, 127
8, 41568, Note_on_c, 5, 65, 127
8, 41568, Note_on_c, 5, 67, 127
8, 41568, Note_on_c, 5, 70, 127
8, 41708, Note_off_c, 5, 70, 0
8, 41708, Note_off_c, 5, 67, 0
8, 41708, Note_off_c, 5, 65, 0
8, 41708, Note_off_c, 5, 62, 0
8, 41712, Note_on_c, 5, 62, 127
8, 41712, Note_on_c, 5, 65, 127
8, 41712, Note_on_c, 5, 67, 127
8, 41712, Note_on_c, 5, 70, 127
8, 41852, Note_off_c, 5, 70, 0
8, 41852, Note_off_c, 5, 67, 0
8, 41852, Note_off_c, 5, 65, 0
8, 41852, Note_off_c, 5, 62, 0
8, 41856, Note_on_c, 5, 62, 127
8, 41856, Note_on_c, 5, 65, 127
8, 41856, Note_on_c, 5, 67, 127
8, 41856, Note_on_c, 5, 70, 127
8, 41996, Note_off_c, 5, 70, 0
8, 41996, Note_off_c, 5, 67, 0
8, 41996, Note_off_c, 5, 65, 0
8, 41996, Note_off_c, 5, 62, 0
8, 42000, Note_on_c, 5, 62, 127
8, 42000, Note_on_c, 5, 65, 127
8, 42000, Note_on_c, 5, 67, 127
8, 42000, Note_on_c, 5, 70, 127
8, 42140, Note_off_c, 5, 70, 0
8, 42140, Note_off_c, 5, 67, 0
8, 42140, Note_off_c, 5, 65, 0
8, 42140, Note_off_c, 5, 62, 0
8, 42144, Note_on_c, 5, 62, 127
8, 42144, Note_on_c, 5, 65, 127
8, 42144, Note_on_c, 5, 67, 127
8, 42144, Note_on_c, 5, 70, 127
8, 42236, Note_off_c, 5, 70, 0
8, 42236, Note_off_c, 5, 67, 0
8, 42236, Note_off_c, 5, 65, 0
8, 42236, Note_off_c, 5, 62, 0
8, 42240, Note_on_c, 5, 63, 127
8, 42240, Note_on_c, 5, 67, 127
8, 42240, Note_on_c, 5, 68, 127
8, 42240, Note_on_c, 5, 72, 127
8, 42328, Note_off_c, 5, 72, 0
8, 42328, Note_off_c, 5, 68, 0
8, 42328, Note_off_c, 5, 67, 0
8, 42328, Note_off_c, 5, 63, 0
8, 42336, Note_on_c, 5, 63, 127
8, 42336, Note_on_c, 5, 67, 127
8, 42336, Note_on_c, 5, 68, 127
8, 42336, Note_on_c, 5, 72, 127
8, 42476, Note_off_c, 5, 72, 0
8, 42476, Note_off_c, 5, 68, 0
8, 42476, Note_off_c, 5, 67, 0
8, 42476, Note_off_c, 5, 63, 0
8, 42480, Note_on_c, 5, 63, 127
8, 42480, Note_on_c, 5, 67, 127
8, 42480, Note_on_c, 5, 68, 127
8, 42480, Note_on_c, 5, 72, 127
8, 42620, Note_off_c, 5, 72, 0
8, 42620, Note_off_c, 5, 68, 0
8, 42620, Note_off_c, 5, 67, 0
8, 42620, Note_off_c, 5, 63, 0
8, 42624, Note_on_c, 5, 63, 127
8, 42624, Note_on_c, 5, 67, 127
8, 42624, Note_on_c, 5, 68, 127
8, 42624, Note_on_c, 5, 72, 127
8, 42764, Note_off_c, 5, 72, 0
8, 42764, Note_off_c, 5, 68, 0
8, 42764, Note_off_c, 5, 67, 0
8, 42764, Note_off_c, 5, 63, 0
8, 42768, Note_on_c, 5, 63, 127
8, 42768, Note_on_c, 5, 67, 127
8, 42768, Note_on_c, 5, 68, 127
8, 42768, Note_on_c, 5, 72, 127
8, 42908, Note_off_c, 5, 72, 0
8, 42908, Note_off_c, 5, 68, 0
8, 42908, Note_off_c, 5, 67, 0
8, 42908, Note_off_c, 5, 63, 0
8, 42912, Note_on_c, 5, 63, 127
8, 42912, Note_on_c, 5, 67, 127
8, 42912, Note_on_c, 5, 68, 127
8, 42912, Note_on_c, 5, 72, 127
8, 43004, Note_off_c, 5, 72, 0
8, 43004, Note_off_c, 5, 68, 0
8, 43004, Note_off_c, 5, 67, 0
8, 43004, Note_off_c, 5, 63, 0
8, 43008, Note_on_c, 5, 62, 127
8, 43008, Note_on_c, 5, 65, 127
8, 43008, Note_on_c, 5, 67, 127
8, 43008, Note_on_c, 5, 70, 127
8, 43100, Note_off_c, 5, 70, 0
8, 43100, Note_off_c, 5, 67, 0
8, 43100, Note_off_c, 5, 65, 0
8, 43100, Note_off_c, 5, 62, 0
8, 43104, Note_on_c, 5, 62, 127
8, 43104, Note_on_c, 5, 65, 127
8, 43104, Note_on_c, 5, 67, 127
8, 43104, Note_on_c, 5, 70, 127
8, 43244, Note_off_c, 5, 70, 0
8, 43244, Note_off_c, 5, 67, 0
8, 43244, Note_off_c, 5, 65, 0
8, 43244, Note_off_c, 5, 62, 0
8, 43248, Note_on_c, 5, 62, 127
8, 43248, Note_on_c, 5, 65, 127
8, 43248, Note_on_c, 5, 67, 127
8, 43248, Note_on_c, 5, 70, 127
8, 43388, Note_off_c, 5, 70, 0
8, 43388, Note_off_c, 5, 67, 0
8, 43388, Note_off_c, 5, 65, 0
8, 43388, Note_off_c, 5, 62, 0
8, 43392, Note_on_c, 5, 62, 127
8, 43392, Note_on_c, 5, 65, 127
8, 43392, Note_on_c, 5, 67, 127
8, 43392, Note_on_c, 5, 70, 127
8, 43532, Note_off_c, 5, 70, 0
8, 43532, Note_off_c, 5, 67, 0
8, 43532, Note_off_c, 5, 65, 0
8, 43532, Note_off_c, 5, 62, 0
8, 43536, Note_on_c, 5, 62, 127
8, 43536, Note_on_c, 5, 65, 127
8, 43536, Note_on_c, 5, 67, 127
8, 43536, Note_on_c, 5, 70, 127
8, 43676, Note_off_c, 5, 70, 0
8, 43676, Note_off_c, 5, 67, 0
8, 43676, Note_off_c, 5, 65, 0
8, 43676, Note_off_c, 5, 62, 0
8, 43680, Note_on_c, 5, 62, 127
8, 43680, Note_on_c, 5, 65, 127
8, 43680, Note_on_c, 5, 67, 127
8, 43680, Note_on_c, 5, 70, 127
8, 43772, Note_off_c, 5, 70, 0
8, 43772, Note_off_c, 5, 67, 0
8, 43772, Note_off_c, 5, 65, 0
8, 43772, Note_off_c, 5, 62, 0
8, 43776, Note_on_c, 5, 63, 127
8, 43776, Note_on_c, 5, 65, 127
8, 43776, Note_on_c, 5, 68, 127
8, 43776, Note_on_c, 5, 72, 127
8, 43864, Note_off_c, 5, 72, 0
8, 43864, Note_off_c, 5, 68, 0
8, 43864, Note_off_c, 5, 65, 0
8, 43864, Note_off_c, 5, 63, 0
8, 43872, Note_on_c, 5, 63, 127
8, 43872, Note_on_c, 5, 65, 127
8, 43872, Note_on_c, 5, 68, 127
8, 43872, Note_on_c, 5, 72, 127
8, 44012, Note_off_c, 5, 72, 0
8, 44012, Note_off_c, 5, 68, 0
8, 44012, Note_off_c, 5, 65, 0
8, 44012, Note_off_c, 5, 63, 0
8, 44016, Note_on_c, 5, 63, 127
8, 44016, Note_on_c, 5, 65, 127
8, 44016, Note_on_c, 5, 68, 127
8, 44016, Note_on_c, 5, 72, 127
8, 44156, Note_off_c, 5, 72, 0
8, 44156, Note_off_c, 5, 68, 0
8, 44156, Note_off_c, 5, 65, 0
8, 44156, Note_off_c, 5, 63, 0
8, 44160, Note_on_c, 5, 63, 127
8, 44160, Note_on_c, 5, 65, 127
8, 44160, Note_on_c, 5, 68, 127
8, 44160, Note_on_c, 5, 72, 127
8, 44300, Note_off_c, 5, 72, 0
8, 44300, Note_off_c, 5, 68, 0
8, 44300, Note_off_c, 5, 65, 0
8, 44300, Note_off_c, 5, 63, 0
8, 44304, Note_on_c, 5, 63, 127
8, 44304, Note_on_c, 5, 65, 127
8, 44304, Note_on_c, 5, 68, 127
8, 44304, Note_on_c, 5, 72, 127
8, 44444, Note_off_c, 5, 72, 0
8, 44444, Note_off_c, 5, 68, 0
8, 44444, Note_off_c, 5, 65, 0
8, 44444, Note_off_c, 5, 63, 0
8, 44448, Note_on_c, 5, 63, 127
8, 44448, Note_on_c, 5, 65, 127
8, 44448, Note_on_c, 5, 68, 127
8, 44448, Note_on_c, 5, 72, 127
8, 44540, Note_off_c, 5, 72, 0
8, 44540, Note_off_c, 5, 68, 0
8, 44540, Note_off_c, 5, 65, 0
8, 44540, Note_off_c, 5, 63, 0
8, 44544, Note_on_c, 5, 62, 127
8, 44544, Note_on_c, 5, 65, 127
8, 44544, Note_on_c, 5, 67, 127
8, 44544, Note_on_c, 5, 70, 127
8, 44636, Note_off_c, 5, 70, 0
8, 44636, Note_off_c, 5, 67, 0
8, 44636, Note_off_c, 5, 65, 0
8, 44636, Note_off_c, 5, 62, 0
8, 44640, Note_on_c, 5, 62, 127
8, 44640, Note_on_c, 5, 65, 127
8, 44640, Note_on_c, 5, 67, 127
8, 44640, Note_on_c, 5, 70, 127
8, 44780, Note_off_c, 5, 70, 0
8, 44780, Note_off_c, 5, 67, 0
8, 44780, Note_off_c, 5, 65, 0
8, 44780, Note_off_c, 5, 62, 0
8, 44784, Note_on_c, 5, 62, 127
8, 44784, Note_on_c, 5, 65, 127
8, 44784, Note_on_c, 5, 67, 127
8, 44784, Note_on_c, 5, 70, 127
8, 44924, Note_off_c, 5, 70, 0
8, 44924, Note_off_c, 5, 67, 0
8, 44924, Note_off_c, 5, 65, 0
8, 44924, Note_off_c, 5, 62, 0
8, 44928, Note_on_c, 5, 62, 127
8, 44928, Note_on_c, 5, 65, 127
8, 44928, Note_on_c, 5, 67, 127
8, 44928, Note_on_c, 5, 70, 127
8, 45068, Note_off_c, 5, 70, 0
8, 45068, Note_off_c, 5, 67, 0
8, 45068, Note_off_c, 5, 65, 0
8, 45068, Note_off_c, 5, 62, 0
8, 45072, Note_on_c, 5, 62, 127
8, 45072, Note_on_c, 5, 65, 127
8, 45072, Note_on_c, 5, 67, 127
8, 45072, Note_on_c, 5, 70, 127
8, 45212, Note_off_c, 5, 70, 0
8, 45212, Note_off_c, 5, 67, 0
8, 45212, Note_off_c, 5, 65, 0
8, 45212, Note_off_c, 5, 62, 0
8, 45216, Note_on_c, 5, 62, 127
8, 45216, Note_on_c, 5, 65, 127
8, 45216, Note_on_c, 5, 67, 127
8, 45216, Note_on_c, 5, 70, 127
8, 45308, Note_off_c, 5, 70, 0
8, 45308, Note_off_c, 5, 67, 0
8, 45308, Note_off_c, 5, 65, 0
8, 45308, Note_off_c, 5, 62, 0
8, 45312, Note_on_c, 5, 63, 127
8, 45312, Note_on_c, 5, 67, 127
8, 45312, Note_on_c, 5, 68, 127
8, 45312, Note_on_c, 5, 72, 127
8, 45400, Note_off_c, 5, 72, 0
8, 45400, Note_off_c, 5, 68, 0
8, 45400, Note_off_c, 5, 67, 0
8, 45400, Note_off_c, 5, 63, 0
8, 45408, Note_on_c, 5, 63, 127
8, 45408, Note_on_c, 5, 67, 127
8, 45408, Note_on_c, 5, 68, 127
8, 45408, Note_on_c, 5, 72, 127
8, 45548, Note_off_c, 5, 72, 0
8, 45548, Note_off_c, 5, 68, 0
8, 45548, Note_off_c, 5, 67, 0
8, 45548, Note_off_c, 5, 63, 0
8, 45552, Note_on_c, 5, 63, 127
8, 45552, Note_on_c, 5, 67, 127
8, 45552, Note_on_c, 5, 68, 127
8, 45552, Note_on_c, 5, 72, 127
8, 45692, Note_off_c, 5, 72, 0
8, 45692, Note_off_c, 5, 68, 0
8, 45692, Note_off_c, 5, 67, 0
8, 45692, Note_off_c, 5, 63, 0
8, 45696, Note_on_c, 5, 63, 127
8, 45696, Note_on_c, 5, 67, 127
8, 45696, Note_on_c, 5, 68, 127
8, 45696, Note_on_c, 5, 72, 127
8, 45836, Note_off_c, 5, 72, 0
8, 45836, Note_off_c, 5, 68, 0
8, 45836, Note_off_c, 5, 67, 0
8, 45836, Note_off_c, 5, 63, 0
8, 45840, Note_on_c, 5, 63, 127
8, 45840, Note_on_c, 5, 67, 127
8, 45840, Note_on_c, 5, 68, 127
8, 45840, Note_on_c, 5, 72, 127
8, 45980, Note_off_c, 5, 72, 0
8, 45980, Note_off_c, 5, 68, 0
8, 45980, Note_off_c, 5, 67, 0
8, 45980, Note_off_c, 5, 63, 0
8, 45984, Note_on_c, 5, 63, 127
8, 45984, Note_on_c, 5, 67, 127
8, 45984, Note_on_c, 5, 68, 127
8, 45984, Note_on_c, 5, 72, 127
8, 46076, Note_off_c, 5, 72, 0
8, 46076, Note_off_c, 5, 68, 0
8, 46076, Note_off_c, 5, 67, 0
8, 46076, Note_off_c, 5, 63, 0
8, 46080, Note_on_c, 5, 62, 127
8, 46080, Note_on_c, 5, 65, 127
8, 46080, Note_on_c, 5, 70, 127
8, 46080, Note_on_c, 5, 74, 127
8, 46172, Note_off_c, 5, 74, 0
8, 46172, Note_off_c, 5, 70, 0
8, 46172, Note_off_c, 5, 65, 0
8, 46172, Note_off_c, 5, 62, 0
8, 46176, Note_on_c, 5, 62, 127
8, 46176, Note_on_c, 5, 65, 127
8, 46176, Note_on_c, 5, 70, 127
8, 46176, Note_on_c, 5, 74, 127
8, 46316, Note_off_c, 5, 74, 0
8, 46316, Note_off_c, 5, 70, 0
8, 46316, Note_off_c, 5, 65, 0
8, 46316, Note_off_c, 5, 62, 0
8, 46320, Note_on_c, 5, 62, 127
8, 46320, Note_on_c, 5, 65, 127
8, 46320, Note_on_c, 5, 70, 127
8, 46320, Note_on_c, 5, 74, 127
8, 46460, Note_off_c, 5, 74, 0
8, 46460, Note_off_c, 5, 70, 0
8, 46460, Note_off_c, 5, 65, 0
8, 46460, Note_off_c, 5, 62, 0
8, 46464, Note_on_c, 5, 62, 127
8, 46464, Note_on_c, 5, 65, 127
8, 46464, Note_on_c, 5, 71, 127
8, 46464, Note_on_c, 5, 74, 127
8, 46604, Note_off_c, 5, 74, 0
8, 46604, Note_off_c, 5, 71, 0
8, 46604, Note_off_c, 5, 65, 0
8, 46604, Note_off_c, 5, 62, 0
8, 46608, Note_on_c, 5, 62, 127
8, 46608, Note_on_c, 5, 65, 127
8, 46608, Note_on_c, 5, 71, 127
8, 46608, Note_on_c, 5, 74, 127
8, 46748, Note_off_c, 5, 74, 0
8, 46748, Note_off_c, 5, 71, 0
8, 46748, Note_off_c, 5, 65, 0
8, 46748, Note_off_c, 5, 62, 0
8, 46752, Note_on_c, 5, 62, 127
8, 46752, Note_on_c, 5, 65, 127
8, 46752, Note_on_c, 5, 71, 127
8, 46752, Note_on_c, 5, 74, 127
8, 46844, Note_off_c, 5, 74, 0
8, 46844, Note_off_c, 5, 71, 0
8, 46844, Note_off_c, 5, 65, 0
8, 46844, Note_off_c, 5, 62, 0
8, 52992, Note_on_c, 5, 58, 127
8, 52992, Note_on_c, 5, 63, 127
8, 52992, Note_on_c, 5, 67, 127
8, 53756, Note_off_c, 5, 67, 0
8, 53756, Note_off_c, 5, 63, 0
8, 53756, Note_off_c, 5, 58, 0
8, 53760, Note_on_c, 5, 58, 127
8, 53760, Note_on_c, 5, 62, 127
8, 53760, Note_on_c, 5, 65, 127
8, 54524, Note_off_c, 5, 65, 0
8, 54524, Note_off_c, 5, 62, 0
8, 54524, Note_off_c, 5, 58, 0
8, 54528, Note_on_c, 5, 60, 127
8, 54528, Note_on_c, 5, 63, 127
8, 54528, Note_on_c, 5, 67, 127
8, 54908, Note_off_c, 5, 67, 0
8, 54908, Note_off_c, 5, 63, 0
8, 54908, Note_off_c, 5, 60, 0
8, 54912, Note_on_c, 5, 62, 127
8, 54912, Note_on_c, 5, 65, 127
8, 54912, Note_on_c, 5, 67, 127
8, 55292, Note_off_c, 5, 67, 0
8, 55292, Note_off_c, 5, 65, 0
8, 55292, Note_off_c, 5, 62, 0
8, 55296, Note_on_c, 5, 60, 127
8, 55296, Note_on_c, 5, 63, 127
8, 55296, Note_on_c, 5, 67, 127
8, 56060, Note_off_c, 5, 67, 0
8, 56060, Note_off_c, 5, 63, 0
8, 56060, Note_off_c, 5, 60, 0
8, 56064, Note_on_c, 5, 58, 127
8, 56064, Note_on_c, 5, 63, 127
8, 56064, Note_on_c, 5, 65, 127
8, 56444, Note_off_c, 5, 65, 0
8, 56444, Note_off_c, 5, 63, 0
8, 56444, Note_off_c, 5, 58, 0
8, 56448, Note_on_c, 5, 58, 127
8, 56448, Note_on_c, 5, 62, 127
8, 56448, Note_on_c, 5, 65, 127
8, 56828, Note_off_c, 5, 65, 0
8, 56828, Note_off_c, 5, 62, 0
8, 56828, Note_off_c, 5, 58, 0
8, 56832, Note_on_c, 5, 58, 127
8, 56832, Note_on_c, 5, 63, 127
8, 56832, Note_on_c, 5, 68, 127
8, 57212, Note_off_c, 5, 68, 0
8, 57212, Note_off_c, 5, 63, 0
8, 57212, Note_off_c, 5, 58, 0
8, 57216, Note_on_c, 5, 60, 127
8, 57216, Note_on_c, 5, 63, 127
8, 57216, Note_on_c, 5, 67, 127
8, 57596, Note_off_c, 5, 67, 0
8, 57596, Note_off_c, 5, 63, 0
8, 57596, Note_off_c, 5, 60, 0
8, 57600, Note_on_c, 5, 57, 127
8, 57600, Note_on_c, 5, 62, 127
8, 57600, Note_on_c, 5, 67, 127
8, 58364, Note_off_c, 5, 67, 0
8, 58364, Note_off_c, 5, 62, 0
8, 58364, Note_off_c, 5, 57, 0
8, 58368, Note_on_c, 5, 60, 127
8, 58368, Note_on_c, 5, 62, 127
8, 58368, Note_on_c, 5, 67, 127
8, 58748, Note_off_c, 5, 67, 0
8, 58748, Note_off_c, 5, 62, 0
8, 58748, Note_off_c, 5, 60, 0
8, 58752, Note_on_c, 5, 59, 127
8, 58752, Note_on_c, 5, 62, 127
8, 58752, Note_on_c, 5, 67, 127
8, 59132, Note_off_c, 5, 67, 0
8, 59132, Note_off_c, 5, 62, 0
8, 59132, Note_off_c, 5, 59, 0
8, 59136, Note_on_c, 5, 58, 127
8, 59136, Note_on_c, 5, 63, 127
8, 59136, Note_on_c, 5, 67, 127
8, 59900, Note_off_c, 5, 67, 0
8, 59900, Note_off_c, 5, 63, 0
8, 59900, Note_off_c, 5, 58, 0
8, 59904, Note_on_c, 5, 58, 127
8, 59904, Note_on_c, 5, 62, 127
8, 59904, Note_on_c, 5, 65, 127
8, 60668, Note_off_c, 5, 65, 0
8, 60668, Note_off_c, 5, 62, 0
8, 60668, Note_off_c, 5, 58, 0
8, 60672, Note_on_c, 5, 60, 127
8, 60672, Note_on_c, 5, 63, 127
8, 60672, Note_on_c, 5, 67, 127
8, 61052, Note_off_c, 5, 67, 0
8, 61052, Note_off_c, 5, 63, 0
8, 61052, Note_off_c, 5, 60, 0
8, 61056, Note_on_c, 5, 62, 127
8, 61056, Note_on_c, 5, 65, 127
8, 61056, Note_on_c, 5, 67, 127
8, 61436, Note_off_c, 5, 67, 0
8, 61436, Note_off_c, 5, 65, 0
8, 61436, Note_off_c, 5, 62, 0
8, 61440, Note_on_c, 5, 60, 127
8, 61440, Note_on_c, 5, 63, 127
8, 61440, Note_on_c, 5, 67, 127
8, 62204, Note_off_c, 5, 67, 0
8, 62204, Note_off_c, 5, 63, 0
8, 62204, Note_off_c, 5, 60, 0
8, 62208, Note_on_c, 5, 58, 127
8, 62208, Note_on_c, 5, 63, 127
8, 62208, Note_on_c, 5, 65, 127
8, 62588, Note_off_c, 5, 65, 0
8, 62588, Note_off_c, 5, 63, 0
8, 62588, Note_off_c, 5, 58, 0
8, 62592, Note_on_c, 5, 58, 127
8, 62592, Note_on_c, 5, 62, 127
8, 62592, Note_on_c, 5, 65, 127
8, 62972, Note_off_c, 5, 65, 0
8, 62972, Note_off_c, 5, 62, 0
8, 62972, Note_off_c, 5, 58, 0
8, 62976, Note_on_c, 5, 58, 127
8, 62976, Note_on_c, 5, 63, 127
8, 62976, Note_on_c, 5, 68, 127
8, 63356, Note_off_c, 5, 68, 0
8, 63356, Note_off_c, 5, 63, 0
8, 63356, Note_off_c, 5, 58, 0
8, 63360, Note_on_c, 5, 60, 127
8, 63360, Note_on_c, 5, 63, 127
8, 63360, Note_on_c, 5, 67, 127
8, 63740, Note_off_c, 5, 67, 0
8, 63740, Note_off_c, 5, 63, 0
8, 63740, Note_off_c, 5, 60, 0
8, 63744, Note_on_c, 5, 60, 127
8, 63744, Note_on_c, 5, 65, 127
8, 63744, Note_on_c, 5, 69, 127
8, 64124, Note_off_c, 5, 69, 0
8, 64124, Note_off_c, 5, 65, 0
8, 64124, Note_off_c, 5, 60, 0
8, 64128, Note_on_c, 5, 62, 127
8, 64128, Note_on_c, 5, 65, 127
8, 64128, Note_on_c, 5, 68, 127
8, 64508, Note_off_c, 5, 68, 0
8, 64508, Note_off_c, 5, 65, 0
8, 64508, Note_off_c, 5, 62, 0
8, 64512, Control_c, 5, 11, 100
8, 64512, Note_on_c, 5, 62, 127
8, 64512, Note_on_c, 5, 67, 127
8, 64512, Note_on_c, 5, 72, 127
8, 64692, Note_off_c, 5, 72, 0
8, 64692, Note_off_c, 5, 67, 0
8, 64692, Note_off_c, 5, 62, 0
8, 64704, Note_on_c, 5, 62, 127
8, 64704, Note_on_c, 5, 67, 127
8, 64704, Note_on_c, 5, 71, 127
8, 64884, Note_off_c, 5, 71, 0
8, 64884, Note_off_c, 5, 67, 0
8, 64884, Note_off_c, 5, 62, 0
8, 64896, Note_on_c, 5, 62, 127
8, 64896, Note_on_c, 5, 67, 127
8, 64896, Note_on_c, 5, 69, 127
8, 65076, Note_off_c, 5, 69, 0
8, 65076, Note_off_c, 5, 67, 0
8, 65076, Note_off_c, 5, 62, 0
8, 65088, Note_on_c, 5, 62, 127
8, 65088, Note_on_c, 5, 67, 127
8, 65088, Note_on_c, 5, 71, 127
8, 65276, Note_off_c, 5, 71, 0
8, 65276, Note_off_c, 5, 67, 0
8, 65276, Note_off_c, 5, 62, 0
8, 65276, Control_c, 5, 11, 95
8, 65276, Program_c, 5, 4
8, 65280, Control_c, 5, 91, 0
8, 65280, Control_c, 5, 93, 10
8, 65280, Note_on_c, 5, 80, 127
8, 65280, Note_on_c, 5, 84, 127
8, 65280, Note_on_c, 5, 87, 127
8, 66048, Note_off_c, 5, 87, 0
8, 66048, Note_off_c, 5, 84, 0
8, 66048, Note_off_c, 5, 80, 0
8, 66048, Note_on_c, 5, 82, 127
8, 66048, Note_on_c, 5, 86, 127
8, 66048, Note_on_c, 5, 89, 127
8, 66432, Note_off_c, 5, 89, 0
8, 66432, Note_off_c, 5, 86, 0
8, 66432, Note_off_c, 5, 82, 0
8, 66432, Note_on_c, 5, 79, 127
8, 66432, Note_on_c, 5, 84, 127
8, 66432, Note_on_c, 5, 87, 127
8, 66816, Note_off_c, 5, 87, 0
8, 66816, Note_off_c, 5, 84, 0
8, 66816, Note_off_c, 5, 79, 0
8, 66816, Note_on_c, 5, 77, 127
8, 66816, Note_on_c, 5, 80, 127
8, 66816, Note_on_c, 5, 84, 127
8, 67200, Note_off_c, 5, 84, 0
8, 67200, Note_off_c, 5, 80, 0
8, 67200, Note_off_c, 5, 77, 0
8, 67200, Note_on_c, 5, 74, 127
8, 67200, Note_on_c, 5, 77, 127
8, 67200, Note_on_c, 5, 80, 127
8, 67584, Note_off_c, 5, 80, 0
8, 67584, Note_off_c, 5, 77, 0
8, 67584, Note_off_c, 5, 74, 0
8, 67584, Note_on_c, 5, 70, 127
8, 67584, Note_on_c, 5, 73, 127
8, 67584, Note_on_c, 5, 77, 127
8, 67776, Note_off_c, 5, 77, 0
8, 67776, Note_off_c, 5, 73, 0
8, 67776, Note_off_c, 5, 70, 0
8, 67776, Note_on_c, 5, 72, 127
8, 67776, Note_on_c, 5, 75, 127
8, 67776, Note_on_c, 5, 79, 127
8, 67968, Note_off_c, 5, 79, 0
8, 67968, Note_off_c, 5, 75, 0
8, 67968, Note_off_c, 5, 72, 0
8, 67968, Note_on_c, 5, 73, 127
8, 67968, Note_on_c, 5, 77, 127
8, 67968, Note_on_c, 5, 80, 127
8, 68160, Note_off_c, 5, 80, 0
8, 68160, Note_off_c, 5, 77, 0
8, 68160, Note_off_c, 5, 73, 0
8, 68160, Note_on_c, 5, 75, 127
8, 68160, Note_on_c, 5, 79, 127
8, 68160, Note_on_c, 5, 82, 127
8, 68352, Note_off_c, 5, 82, 0
8, 68352, Note_off_c, 5, 79, 0
8, 68352, Note_off_c, 5, 75, 0
8, 68352, Note_on_c, 5, 75, 127
8, 68352, Note_on_c, 5, 80, 127
8, 68352, Note_on_c, 5, 84, 127
8, 69120, Note_off_c, 5, 84, 0
8, 69120, Note_off_c, 5, 80, 0
8, 69120, Note_off_c, 5, 75, 0
8, 69120, Note_on_c, 5, 74, 127
8, 69120, Note_on_c, 5, 79, 127
8, 69120, Note_on_c, 5, 82, 127
8, 69504, Note_off_c, 5, 82, 0
8, 69504, Note_off_c, 5, 79, 0
8, 69504, Note_off_c, 5, 74, 0
8, 69504, Note_on_c, 5, 75, 127
8, 69504, Note_on_c, 5, 79, 127
8, 69504, Note_on_c, 5, 84, 127
8, 69888, Note_off_c, 5, 84, 0
8, 69888, Note_off_c, 5, 79, 0
8, 69888, Note_off_c, 5, 75, 0
8, 69888, Note_on_c, 5, 77, 127
8, 69888, Note_on_c, 5, 80, 127
8, 69888, Note_on_c, 5, 86, 127
8, 70656, Note_off_c, 5, 86, 0
8, 70656, Note_off_c, 5, 80, 0
8, 70656, Note_off_c, 5, 77, 0
8, 70848, Control_c, 5, 11, 95
8, 70944, Program_c, 5, 2
8, 71040, Control_c, 5, 91, 30
8, 71136, Control_c, 5, 93, 10
8, 71520, Note_on_c, 5, 63, 127
8, 71520, Note_on_c, 5, 67, 127
8, 71520, Note_on_c, 5, 72, 127
8, 71572, Note_off_c, 5, 72, 0
8, 71572, Note_off_c, 5, 67, 0
8, 71572, Note_off_c, 5, 63, 0
8, 71664, Note_on_c, 5, 63, 127
8, 71664, Note_on_c, 5, 67, 127
8, 71664, Note_on_c, 5, 72, 127
8, 71804, Note_off_c, 5, 72, 0
8, 71804, Note_off_c, 5, 67, 0
8, 71804, Note_off_c, 5, 63, 0
8, 71808, Note_on_c, 5, 65, 127
8, 71808, Note_on_c, 5, 68, 127
8, 71808, Note_on_c, 5, 72, 127
8, 71940, Note_off_c, 5, 72, 0
8, 71940, Note_off_c, 5, 68, 0
8, 71940, Note_off_c, 5, 65, 0
8, 71952, Note_on_c, 5, 65, 127
8, 71952, Note_on_c, 5, 68, 127
8, 71952, Note_on_c, 5, 72, 127
8, 72084, Note_off_c, 5, 72, 0
8, 72084, Note_off_c, 5, 68, 0
8, 72084, Note_off_c, 5, 65, 0
8, 72096, Note_on_c, 5, 65, 127
8, 72096, Note_on_c, 5, 68, 127
8, 72096, Note_on_c, 5, 72, 127
8, 72188, Note_off_c, 5, 72, 0
8, 72188, Note_off_c, 5, 68, 0
8, 72188, Note_off_c, 5, 65, 0
8, 72288, Note_on_c, 5, 65, 127
8, 72288, Note_on_c, 5, 70, 127
8, 72288, Note_on_c, 5, 74, 127
8, 72340, Note_off_c, 5, 74, 0
8, 72340, Note_off_c, 5, 70, 0
8, 72340, Note_off_c, 5, 65, 0
8, 72432, Note_on_c, 5, 65, 127
8, 72432, Note_on_c, 5, 70, 127
8, 72432, Note_on_c, 5, 74, 127
8, 72572, Note_off_c, 5, 74, 0
8, 72572, Note_off_c, 5, 70, 0
8, 72572, Note_off_c, 5, 65, 0
8, 72576, Note_on_c, 5, 67, 127
8, 72576, Note_on_c, 5, 70, 127
8, 72576, Note_on_c, 5, 75, 127
8, 72708, Note_off_c, 5, 75, 0
8, 72708, Note_off_c, 5, 70, 0
8, 72708, Note_off_c, 5, 67, 0
8, 72720, Note_on_c, 5, 67, 127
8, 72720, Note_on_c, 5, 70, 127
8, 72720, Note_on_c, 5, 75, 127
8, 72852, Note_off_c, 5, 75, 0
8, 72852, Note_off_c, 5, 70, 0
8, 72852, Note_off_c, 5, 67, 0
8, 72864, Note_on_c, 5, 67, 127
8, 72864, Note_on_c, 5, 70, 127
8, 72864, Note_on_c, 5, 75, 127
8, 72956, Note_off_c, 5, 75, 0
8, 72956, Note_off_c, 5, 70, 0
8, 72956, Note_off_c, 5, 67, 0
8, 73056, Note_on_c, 5, 63, 127
8, 73056, Note_on_c, 5, 67, 127
8, 73056, Note_on_c, 5, 72, 127
8, 73108, Note_off_c, 5, 72, 0
8, 73108, Note_off_c, 5, 67, 0
8, 73108, Note_off_c, 5, 63, 0
8, 73200, Note_on_c, 5, 63, 127
8, 73200, Note_on_c, 5, 67, 127
8, 73200, Note_on_c, 5, 72, 127
8, 73340, Note_off_c, 5, 72, 0
8, 73340, Note_off_c, 5, 67, 0
8, 73340, Note_off_c, 5, 63, 0
8, 73344, Note_on_c, 5, 65, 127
8, 73344, Note_on_c, 5, 68, 127
8, 73344, Note_on_c, 5, 72, 127
8, 73476, Note_off_c, 5, 72, 0
8, 73476, Note_off_c, 5, 68, 0
8, 73476, Note_off_c, 5, 65, 0
8, 73488, Note_on_c, 5, 65, 127
8, 73488, Note_on_c, 5, 68, 127
8, 73488, Note_on_c, 5, 72, 127
8, 73620, Note_off_c, 5, 72, 0
8, 73620, Note_off_c, 5, 68, 0
8, 73620, Note_off_c, 5, 65, 0
8, 73632, Note_on_c, 5, 65, 127
8, 73632, Note_on_c, 5, 68, 127
8, 73632, Note_on_c, 5, 72, 127
8, 73724, Note_off_c, 5, 72, 0
8, 73724, Note_off_c, 5, 68, 0
8, 73724, Note_off_c, 5, 65, 0
8, 73824, Note_on_c, 5, 65, 127
8, 73824, Note_on_c, 5, 70, 127
8, 73824, Note_on_c, 5, 74, 127
8, 73876, Note_off_c, 5, 74, 0
8, 73876, Note_off_c, 5, 70, 0
8, 73876, Note_off_c, 5, 65, 0
8, 73968, Note_on_c, 5, 65, 127
8, 73968, Note_on_c, 5, 70, 127
8, 73968, Note_on_c, 5, 74, 127
8, 74108, Note_off_c, 5, 74, 0
8, 74108, Note_off_c, 5, 70, 0
8, 74108, Note_off_c, 5, 65, 0
8, 74112, Note_on_c, 5, 67, 127
8, 74112, Note_on_c, 5, 70, 127
8, 74112, Note_on_c, 5, 75, 127
8, 74244, Note_off_c, 5, 75, 0
8, 74244, Note_off_c, 5, 70, 0
8, 74244, Note_off_c, 5, 67, 0
8, 74256, Note_on_c, 5, 67, 127
8, 74256, Note_on_c, 5, 70, 127
8, 74256, Note_on_c, 5, 75, 127
8, 74388, Note_off_c, 5, 75, 0
8, 74388, Note_off_c, 5, 70, 0
8, 74388, Note_off_c, 5, 67, 0
8, 74400, Note_on_c, 5, 67, 127
8, 74400, Note_on_c, 5, 70, 127
8, 74400, Note_on_c, 5, 75, 127
8, 74492, Note_off_c, 5, 75, 0
8, 74492, Note_off_c, 5, 70, 0
8, 74492, Note_off_c, 5, 67, 0
8, 74592, Note_on_c, 5, 63, 127
8, 74592, Note_on_c, 5, 67, 127
8, 74592, Note_on_c, 5, 72, 127
8, 74644, Note_off_c, 5, 72, 0
8, 74644, Note_off_c, 5, 67, 0
8, 74644, Note_off_c, 5, 63, 0
8, 74736, Note_on_c, 5, 63, 127
8, 74736, Note_on_c, 5, 67, 127
8, 74736, Note_on_c, 5, 72, 127
8, 74876, Note_off_c, 5, 72, 0
8, 74876, Note_off_c, 5, 67, 0
8, 74876, Note_off_c, 5, 63, 0
8, 74880, Note_on_c, 5, 65, 127
8, 74880, Note_on_c, 5, 68, 127
8, 74880, Note_on_c, 5, 72, 127
8, 75012, Note_off_c, 5, 72, 0
8, 75012, Note_off_c, 5, 68, 0
8, 75012, Note_off_c, 5, 65, 0
8, 75024, Note_on_c, 5, 65, 127
8, 75024, Note_on_c, 5, 68, 127
8, 75024, Note_on_c, 5, 72, 127
8, 75156, Note_off_c, 5, 72, 0
8, 75156, Note_off_c, 5, 68, 0
8, 75156, Note_off_c, 5, 65, 0
8, 75168, Note_on_c, 5, 65, 127
8, 75168, Note_on_c, 5, 68, 127
8, 75168, Note_on_c, 5, 72, 127
8, 75260, Note_off_c, 5, 72, 0
8, 75260, Note_off_c, 5, 68, 0
8, 75260, Note_off_c, 5, 65, 0
8, 75360, Note_on_c, 5, 65, 127
8, 75360, Note_on_c, 5, 70, 127
8, 75360, Note_on_c, 5, 74, 127
8, 75412, Note_off_c, 5, 74, 0
8, 75412, Note_off_c, 5, 70, 0
8, 75412, Note_off_c, 5, 65, 0
8, 75504, Note_on_c, 5, 65, 127
8, 75504, Note_on_c, 5, 70, 127
8, 75504, Note_on_c, 5, 74, 127
8, 75644, Note_off_c, 5, 74, 0
8, 75644, Note_off_c, 5, 70, 0
8, 75644, Note_off_c, 5, 65, 0
8, 75648, Note_on_c, 5, 67, 127
8, 75648, Note_on_c, 5, 70, 127
8, 75648, Note_on_c, 5, 75, 127
8, 75780, Note_off_c, 5, 75, 0
8, 75780, Note_off_c, 5, 70, 0
8, 75780, Note_off_c, 5, 67, 0
8, 75792, Note_on_c, 5, 67, 127
8, 75792, Note_on_c, 5, 70, 127
8, 75792, Note_on_c, 5, 75, 127
8, 75924, Note_off_c, 5, 75, 0
8, 75924, Note_off_c, 5, 70, 0
8, 75924, Note_off_c, 5, 67, 0
8, 75936, Note_on_c, 5, 67, 127
8, 75936, Note_on_c, 5, 70, 127
8, 75936, Note_on_c, 5, 75, 127
8, 76028, Note_off_c, 5, 75, 0
8, 76028, Note_off_c, 5, 70, 0
8, 76028, Note_off_c, 5, 67, 0
8, 76128, Note_on_c, 5, 63, 127
8, 76128, Note_on_c, 5, 67, 127
8, 76128, Note_on_c, 5, 72, 127
8, 76180, Note_off_c, 5, 72, 0
8, 76180, Note_off_c, 5, 67, 0
8, 76180, Note_off_c, 5, 63, 0
8, 76272, Note_on_c, 5, 63, 127
8, 76272, Note_on_c, 5, 67, 127
8, 76272, Note_on_c, 5, 72, 127
8, 76412, Note_off_c, 5, 72, 0
8, 76412, Note_off_c, 5, 67, 0
8, 76412, Note_off_c, 5, 63, 0
8, 76416, Note_on_c, 5, 65, 127
8, 76416, Note_on_c, 5, 68, 127
8, 76416, Note_on_c, 5, 72, 127
8, 76548, Note_off_c, 5, 72, 0
8, 76548, Note_off_c, 5, 68, 0
8, 76548, Note_off_c, 5, 65, 0
8, 76560, Note_on_c, 5, 65, 127
8, 76560, Note_on_c, 5, 68, 127
8, 76560, Note_on_c, 5, 72, 127
8, 76692, Note_off_c, 5, 72, 0
8, 76692, Note_off_c, 5, 68, 0
8, 76692, Note_off_c, 5, 65, 0
8, 76704, Note_on_c, 5, 65, 127
8, 76704, Note_on_c, 5, 68, 127
8, 76704, Note_on_c, 5, 72, 127
8, 76796, Note_off_c, 5, 72, 0
8, 76796, Note_off_c, 5, 68, 0
8, 76796, Note_off_c, 5, 65, 0
8, 76896, Note_on_c, 5, 65, 127
8, 76896, Note_on_c, 5, 70, 127
8, 76896, Note_on_c, 5, 74, 127
8, 76948, Note_off_c, 5, 74, 0
8, 76948, Note_off_c, 5, 70, 0
8, 76948, Note_off_c, 5, 65, 0
8, 77040, Note_on_c, 5, 65, 127
8, 77040, Note_on_c, 5, 70, 127
8, 77040, Note_on_c, 5, 74, 127
8, 77180, Note_off_c, 5, 74, 0
8, 77180, Note_off_c, 5, 70, 0
8, 77180, Note_off_c, 5, 65, 0
8, 77184, Note_on_c, 5, 63, 127
8, 77184, Note_on_c, 5, 67, 127
8, 77184, Note_on_c, 5, 72, 127
8, 77324, Note_off_c, 5, 72, 0
8, 77324, Note_off_c, 5, 67, 0
8, 77324, Note_off_c, 5, 63, 0
8, 77328, Note_on_c, 5, 63, 127
8, 77328, Note_on_c, 5, 67, 127
8, 77328, Note_on_c, 5, 72, 127
8, 77568, Note_off_c, 5, 72, 0
8, 77568, Note_off_c, 5, 67, 0
8, 77568, Note_off_c, 5, 63, 0
8, 77664, Note_on_c, 5, 63, 127
8, 77664, Note_on_c, 5, 67, 127
8, 77664, Note_on_c, 5, 72, 127
8, 77716, Note_off_c, 5, 72, 0
8, 77716, Note_off_c, 5, 67, 0
8, 77716, Note_off_c, 5, 63, 0
8, 77808, Note_on_c, 5, 63, 127
8, 77808, Note_on_c, 5, 67, 127
8, 77808, Note_on_c, 5, 72, 127
8, 77948, Note_off_c, 5, 72, 0
8, 77948, Note_off_c, 5, 67, 0
8, 77948, Note_off_c, 5, 63, 0
8, 77952, Note_on_c, 5, 65, 127
8, 77952, Note_on_c, 5, 68, 127
8, 77952, Note_on_c, 5, 72, 127
8, 78084, Note_off_c, 5, 72, 0
8, 78084, Note_off_c, 5, 68, 0
8, 78084, Note_off_c, 5, 65, 0
8, 78096, Note_on_c, 5, 65, 127
8, 78096, Note_on_c, 5, 68, 127
8, 78096, Note_on_c, 5, 72, 127
8, 78228, Note_off_c, 5, 72, 0
8, 78228, Note_off_c, 5, 68, 0
8, 78228, Note_off_c, 5, 65, 0
8, 78240, Note_on_c, 5, 65, 127
8, 78240, Note_on_c, 5, 68, 127
8, 78240, Note_on_c, 5, 72, 127
8, 78332, Note_off_c, 5, 72, 0
8, 78332, Note_off_c, 5, 68, 0
8, 78332, Note_off_c, 5, 65, 0
8, 78432, Note_on_c, 5, 65, 127
8, 78432, Note_on_c, 5, 70, 127
8, 78432, Note_on_c, 5, 74, 127
8, 78484, Note_off_c, 5, 74, 0
8, 78484, Note_off_c, 5, 70, 0
8, 78484, Note_off_c, 5, 65, 0
8, 78576, Note_on_c, 5, 65, 127
8, 78576, Note_on_c, 5, 70, 127
8, 78576, Note_on_c, 5, 74, 127
8, 78716, Note_off_c, 5, 74, 0
8, 78716, Note_off_c, 5, 70, 0
8, 78716, Note_off_c, 5, 65, 0
8, 78720, Note_on_c, 5, 67, 127
8, 78720, Note_on_c, 5, 70, 127
8, 78720, Note_on_c, 5, 75, 127
8, 78852, Note_off_c, 5, 75, 0
8, 78852, Note_off_c, 5, 70, 0
8, 78852, Note_off_c, 5, 67, 0
8, 78864, Note_on_c, 5, 67, 127
8, 78864, Note_on_c, 5, 70, 127
8, 78864, Note_on_c, 5, 75, 127
8, 78996, Note_off_c, 5, 75, 0
8, 78996, Note_off_c, 5, 70, 0
8, 78996, Note_off_c, 5, 67, 0
8, 79008, Note_on_c, 5, 67, 127
8, 79008, Note_on_c, 5, 70, 127
8, 79008, Note_on_c, 5, 75, 127
8, 79100, Note_off_c, 5, 75, 0
8, 79100, Note_off_c, 5, 70, 0
8, 79100, Note_off_c, 5, 67, 0
8, 79200, Note_on_c, 5, 63, 127
8, 79200, Note_on_c, 5, 67, 127
8, 79200, Note_on_c, 5, 72, 127
8, 79252, Note_off_c, 5, 72, 0
8, 79252, Note_off_c, 5, 67, 0
8, 79252, Note_off_c, 5, 63, 0
8, 79344, Note_on_c, 5, 63, 127
8, 79344, Note_on_c, 5, 67, 127
8, 79344, Note_on_c, 5, 72, 127
8, 79484, Note_off_c, 5, 72, 0
8, 79484, Note_off_c, 5, 67, 0
8, 79484, Note_off_c, 5, 63, 0
8, 79488, Note_on_c, 5, 65, 127
8, 79488, Note_on_c, 5, 68, 127
8, 79488, Note_on_c, 5, 72, 127
8, 79620, Note_off_c, 5, 72, 0
8, 79620, Note_off_c, 5, 68, 0
8, 79620, Note_off_c, 5, 65, 0
8, 79632, Note_on_c, 5, 65, 127
8, 79632, Note_on_c, 5, 68, 127
8, 79632, Note_on_c, 5, 72, 127
8, 79764, Note_off_c, 5, 72, 0
8, 79764, Note_off_c, 5, 68, 0
8, 79764, Note_off_c, 5, 65, 0
8, 79776, Note_on_c, 5, 65, 127
8, 79776, Note_on_c, 5, 68, 127
8, 79776, Note_on_c, 5, 72, 127
8, 79868, Note_off_c, 5, 72, 0
8, 79868, Note_off_c, 5, 68, 0
8, 79868, Note_off_c, 5, 65, 0
8, 79968, Note_on_c, 5, 65, 127
8, 79968, Note_on_c, 5, 70, 127
8, 79968, Note_on_c, 5, 74, 127
8, 80020, Note_off_c, 5, 74, 0
8, 80020, Note_off_c, 5, 70, 0
8, 80020, Note_off_c, 5, 65, 0
8, 80112, Note_on_c, 5, 65, 127
8, 80112, Note_on_c, 5, 70, 127
8, 80112, Note_on_c, 5, 74, 127
8, 80252, Note_off_c, 5, 74, 0
8, 80252, Note_off_c, 5, 70, 0
8, 80252, Note_off_c, 5, 65, 0
8, 80256, Note_on_c, 5, 63, 127
8, 80256, Note_on_c, 5, 67, 127
8, 80256, Note_on_c, 5, 72, 127
8, 80396, Note_off_c, 5, 72, 0
8, 80396, Note_off_c, 5, 67, 0
8, 80396, Note_off_c, 5, 63, 0
8, 80400, Note_on_c, 5, 63, 127
8, 80400, Note_on_c, 5, 67, 127
8, 80400, Note_on_c, 5, 72, 127
8, 80632, Note_off_c, 5, 72, 0
8, 80632, Note_off_c, 5, 67, 0
8, 80632, Note_off_c, 5, 63, 0
8, 80632, Control_c, 5, 11, 95
8, 80632, Program_c, 5, 4
8, 80632, Control_c, 5, 91, 0
8, 80632, Control_c, 5, 93, 10
8, 80640, Note_on_c, 5, 80, 127
8, 80640, Note_on_c, 5, 84, 127
8, 80640, Note_on_c, 5, 87, 127
8, 81408, Note_off_c, 5, 87, 0
8, 81408, Note_off_c, 5, 84, 0
8, 81408, Note_off_c, 5, 80, 0
8, 81408, Note_on_c, 5, 82, 127
8, 81408, Note_on_c, 5, 86, 127
8, 81408, Note_on_c, 5, 89, 127
8, 81792, Note_off_c, 5, 89, 0
8, 81792, Note_off_c, 5, 86, 0
8, 81792, Note_off_c, 5, 82, 0
8, 81792, Note_on_c, 5, 79, 127
8, 81792, Note_on_c, 5, 84, 127
8, 81792, Note_on_c, 5, 87, 127
8, 82176, Note_off_c, 5, 87, 0
8, 82176, Note_off_c, 5, 84, 0
8, 82176, Note_off_c, 5, 79, 0
8, 82176, Note_on_c, 5, 77, 127
8, 82176, Note_on_c, 5, 80, 127
8, 82176, Note_on_c, 5, 84, 127
8, 82560, Note_off_c, 5, 84, 0
8, 82560, Note_off_c, 5, 80, 0
8, 82560, Note_off_c, 5, 77, 0
8, 82560, Note_on_c, 5, 74, 127
8, 82560, Note_on_c, 5, 77, 127
8, 82560, Note_on_c, 5, 80, 127
8, 82944, Note_off_c, 5, 80, 0
8, 82944, Note_off_c, 5, 77, 0
8, 82944, Note_off_c, 5, 74, 0
8, 82944, Note_on_c, 5, 70, 127
8, 82944, Note_on_c, 5, 73, 127
8, 82944, Note_on_c, 5, 77, 127
8, 83136, Note_off_c, 5, 77, 0
8, 83136, Note_off_c, 5, 73, 0
8, 83136, Note_off_c, 5, 70, 0
8, 83136, Note_on_c, 5, 72, 127
8, 83136, Note_on_c, 5, 75, 127
8, 83136, Note_on_c, 5, 79, 127
8, 83328, Note_off_c, 5, 79, 0
8, 83328, Note_off_c, 5, 75, 0
8, 83328, Note_off_c, 5, 72, 0
8, 83328, Note_on_c, 5, 73, 127
8, 83328, Note_on_c, 5, 77, 127
8, 83328, Note_on_c, 5, 80, 127
8, 83520, Note_off_c, 5, 80, 0
8, 83520, Note_off_c, 5, 77, 0
8, 83520, Note_off_c, 5, 73, 0
8, 83520, Note_on_c, 5, 75, 127
8, 83520, Note_on_c, 5, 79, 127
8, 83520, Note_on_c, 5, 82, 127
8, 83712, Note_off_c, 5, 82, 0
8, 83712, Note_off_c, 5, 79, 0
8, 83712, Note_off_c, 5, 75, 0
8, 83712, Note_on_c, 5, 75, 127
8, 83712, Note_on_c, 5, 80, 127
8, 83712, Note_on_c, 5, 84, 127
8, 84480, Note_off_c, 5, 84, 0
8, 84480, Note_off_c, 5, 80, 0
8, 84480, Note_off_c, 5, 75, 0
8, 84480, Note_on_c, 5, 74, 127
8, 84480, Note_on_c, 5, 79, 127
8, 84480, Note_on_c, 5, 82, 127
8, 84864, Note_off_c, 5, 82, 0
8, 84864, Note_off_c, 5, 79, 0
8, 84864, Note_off_c, 5, 74, 0
8, 84864, Note_on_c, 5, 75, 127
8, 84864, Note_on_c, 5, 79, 127
8, 84864, Note_on_c, 5, 84, 127
8, 85248, Note_off_c, 5, 84, 0
8, 85248, Note_off_c, 5, 79, 0
8, 85248, Note_off_c, 5, 75, 0
8, 85248, Note_on_c, 5, 77, 127
8, 85248, Note_on_c, 5, 80, 127
8, 85248, Note_on_c, 5, 86, 127
8, 86016, Note_off_c, 5, 86, 0
8, 86016, Note_off_c, 5, 80, 0
8, 86016, Note_off_c, 5, 77, 0
8, 86208, Control_c, 5, 11, 95
8, 86304, Program_c, 5, 2
8, 86400, Control_c, 5, 91, 30
8, 86496, Control_c, 5, 93, 10
8, 86880, Note_on_c, 5, 63, 127
8, 86880, Note_on_c, 5, 67, 127
8, 86880, Note_on_c, 5, 72, 127
8, 86932, Note_off_c, 5, 72, 0
8, 86932, Note_off_c, 5, 67, 0
8, 86932, Note_off_c, 5, 63, 0
8, 87024, Note_on_c, 5, 63, 127
8, 87024, Note_on_c, 5, 67, 127
8, 87024, Note_on_c, 5, 72, 127
8, 87164, Note_off_c, 5, 72, 0
8, 87164, Note_off_c, 5, 67, 0
8, 87164, Note_off_c, 5, 63, 0
8, 87168, Note_on_c, 5, 65, 127
8, 87168, Note_on_c, 5, 68, 127
8, 87168, Note_on_c, 5, 72, 127
8, 87300, Note_off_c, 5, 72, 0
8, 87300, Note_off_c, 5, 68, 0
8, 87300, Note_off_c, 5, 65, 0
8, 87312, Note_on_c, 5, 65, 127
8, 87312, Note_on_c, 5, 68, 127
8, 87312, Note_on_c, 5, 72, 127
8, 87444, Note_off_c, 5, 72, 0
8, 87444, Note_off_c, 5, 68, 0
8, 87444, Note_off_c, 5, 65, 0
8, 87456, Note_on_c, 5, 65, 127
8, 87456, Note_on_c, 5, 68, 127
8, 87456, Note_on_c, 5, 72, 127
8, 87548, Note_off_c, 5, 72, 0
8, 87548, Note_off_c, 5, 68, 0
8, 87548, Note_off_c, 5, 65, 0
8, 87648, Note_on_c, 5, 65, 127
8, 87648, Note_on_c, 5, 70, 127
8, 87648, Note_on_c, 5, 74, 127
8, 87700, Note_off_c, 5, 74, 0
8, 87700, Note_off_c, 5, 70, 0
8, 87700, Note_off_c, 5, 65, 0
8, 87792, Note_on_c, 5, 65, 127
8, 87792, Note_on_c, 5, 70, 127
8, 87792, Note_on_c, 5, 74, 127
8, 87932, Note_off_c, 5, 74, 0
8, 87932, Note_off_c, 5, 70, 0
8, 87932, Note_off_c, 5, 65, 0
8, 87936, Note_on_c, 5, 67, 127
8, 87936, Note_on_c, 5, 70, 127
8, 87936, Note_on_c, 5, 75, 127
8, 88068, Note_off_c, 5, 75, 0
8, 88068, Note_off_c, 5, 70, 0
8, 88068, Note_off_c, 5, 67, 0
8, 88080, Note_on_c, 5, 67, 127
8, 88080, Note_on_c, 5, 70, 127
8, 88080, Note_on_c, 5, 75, 127
8, 88212, Note_off_c, 5, 75, 0
8, 88212, Note_off_c, 5, 70, 0
8, 88212, Note_off_c, 5, 67, 0
8, 88224, Note_on_c, 5, 67, 127
8, 88224, Note_on_c, 5, 70, 127
8, 88224, Note_on_c, 5, 75, 127
8, 88316, Note_off_c, 5, 75, 0
8, 88316, Note_off_c, 5, 70, 0
8, 88316, Note_off_c, 5, 67, 0
8, 88416, Note_on_c, 5, 63, 127
8, 88416, Note_on_c, 5, 67, 127
8, 88416, Note_on_c, 5, 72, 127
8, 88468, Note_off_c, 5, 72, 0
8, 88468, Note_off_c, 5, 67, 0
8, 88468, Note_off_c, 5, 63, 0
8, 88560, Note_on_c, 5, 63, 127
8, 88560, Note_on_c, 5, 67, 127
8, 88560, Note_on_c, 5, 72, 127
8, 88700, Note_off_c, 5, 72, 0
8, 88700, Note_off_c, 5, 67, 0
8, 88700, Note_off_c, 5, 63, 0
8, 88704, Note_on_c, 5, 65, 127
8, 88704, Note_on_c, 5, 68, 127
8, 88704, Note_on_c, 5, 72, 127
8, 88836, Note_off_c, 5, 72, 0
8, 88836, Note_off_c, 5, 68, 0
8, 88836, Note_off_c, 5, 65, 0
8, 88848, Note_on_c, 5, 65, 127
8, 88848, Note_on_c, 5, 68, 127
8, 88848, Note_on_c, 5, 72, 127
8, 88980, Note_off_c, 5, 72, 0
8, 88980, Note_off_c, 5, 68, 0
8, 88980, Note_off_c, 5, 65, 0
8, 88992, Note_on_c, 5, 65, 127
8, 88992, Note_on_c, 5, 68, 127
8, 88992, Note_on_c, 5, 72, 127
8, 89084, Note_off_c, 5, 72, 0
8, 89084, Note_off_c, 5, 68, 0
8, 89084, Note_off_c, 5, 65, 0
8, 89184, Note_on_c, 5, 65, 127
8, 89184, Note_on_c, 5, 70, 127
8, 89184, Note_on_c, 5, 74, 127
8, 89236, Note_off_c, 5, 74, 0
8, 89236, Note_off_c, 5, 70, 0
8, 89236, Note_off_c, 5, 65, 0
8, 89328, Note_on_c, 5, 65, 127
8, 89328, Note_on_c, 5, 70, 127
8, 89328, Note_on_c, 5, 74, 127
8, 89468, Note_off_c, 5, 74, 0
8, 89468, Note_off_c, 5, 70, 0
8, 89468, Note_off_c, 5, 65, 0
8, 89472, Note_on_c, 5, 67, 127
8, 89472, Note_on_c, 5, 70, 127
8, 89472, Note_on_c, 5, 75, 127
8, 89604, Note_off_c, 5, 75, 0
8, 89604, Note_off_c, 5, 70, 0
8, 89604, Note_off_c, 5, 67, 0
8, 89616, Note_on_c, 5, 67, 127
8, 89616, Note_on_c, 5, 70, 127
8, 89616, Note_on_c, 5, 75, 127
8, 89748, Note_off_c, 5, 75, 0
8, 89748, Note_off_c, 5, 70, 0
8, 89748, Note_off_c, 5, 67, 0
8, 89760, Note_on_c, 5, 67, 127
8, 89760, Note_on_c, 5, 70, 127
8, 89760, Note_on_c, 5, 75, 127
8, 89852, Note_off_c, 5, 75, 0
8, 89852, Note_off_c, 5, 70, 0
8, 89852, Note_off_c, 5, 67, 0
8, 89952, Note_on_c, 5, 63, 127
8, 89952, Note_on_c, 5, 67, 127
8, 89952, Note_on_c, 5, 72, 127
8, 90004, Note_off_c, 5, 72, 0
8, 90004, Note_off_c, 5, 67, 0
8, 90004, Note_off_c, 5, 63, 0
8, 90096, Note_on_c, 5, 63, 127
8, 90096, Note_on_c, 5, 67, 127
8, 90096, Note_on_c, 5, 72, 127
8, 90236, Note_off_c, 5, 72, 0
8, 90236, Note_off_c, 5, 67, 0
8, 90236, Note_off_c, 5, 63, 0
8, 90240, Note_on_c, 5, 65, 127
8, 90240, Note_on_c, 5, 68, 127
8, 90240, Note_on_c, 5, 72, 127
8, 90372, Note_off_c, 5, 72, 0
8, 90372, Note_off_c, 5, 68, 0
8, 90372, Note_off_c, 5, 65, 0
8, 90384, Note_on_c, 5, 65, 127
8, 90384, Note_on_c, 5, 68, 127
8, 90384, Note_on_c, 5, 72, 127
8, 90516, Note_off_c, 5, 72, 0
8, 90516, Note_off_c, 5, 68, 0
8, 90516, Note_off_c, 5, 65, 0
8, 90528, Note_on_c, 5, 65, 127
8, 90528, Note_on_c, 5, 68, 127
8, 90528, Note_on_c, 5, 72, 127
8, 90620, Note_off_c, 5, 72, 0
8, 90620, Note_off_c, 5, 68, 0
8, 90620, Note_off_c, 5, 65, 0
8, 90720, Note_on_c, 5, 65, 127
8, 90720, Note_on_c, 5, 70, 127
8, 90720, Note_on_c, 5, 74, 127
8, 90772, Note_off_c, 5, 74, 0
8, 90772, Note_off_c, 5, 70, 0
8, 90772, Note_off_c, 5, 65, 0
8, 90864, Note_on_c, 5, 65, 127
8, 90864, Note_on_c, 5, 70, 127
8, 90864, Note_on_c, 5, 74, 127
8, 91004, Note_off_c, 5, 74, 0
8, 91004, Note_off_c, 5, 70, 0
8, 91004, Note_off_c, 5, 65, 0
8, 91008, Note_on_c, 5, 67, 127
8, 91008, Note_on_c, 5, 70, 127
8, 91008, Note_on_c, 5, 75, 127
8, 91140, Note_off_c, 5, 75, 0
8, 91140, Note_off_c, 5, 70, 0
8, 91140, Note_off_c, 5, 67, 0
8, 91152, Note_on_c, 5, 67, 127
8, 91152, Note_on_c, 5, 70, 127
8, 91152, Note_on_c, 5, 75, 127
8, 91284, Note_off_c, 5, 75, 0
8, 91284, Note_off_c, 5, 70, 0
8, 91284, Note_off_c, 5, 67, 0
8, 91296, Note_on_c, 5, 67, 127
8, 91296, Note_on_c, 5, 70, 127
8, 91296, Note_on_c, 5, 75, 127
8, 91388, Note_off_c, 5, 75, 0
8, 91388, Note_off_c, 5, 70, 0
8, 91388, Note_off_c, 5, 67, 0
8, 91488, Note_on_c, 5, 63, 127
8, 91488, Note_on_c, 5, 67, 127
8, 91488, Note_on_c, 5, 72, 127
8, 91540, Note_off_c, 5, 72, 0
8, 91540, Note_off_c, 5, 67, 0
8, 91540, Note_off_c, 5, 63, 0
8, 91632, Note_on_c, 5, 63, 127
8, 91632, Note_on_c, 5, 67, 127
8, 91632, Note_on_c, 5, 72, 127
8, 91772, Note_off_c, 5, 72, 0
8, 91772, Note_off_c, 5, 67, 0
8, 91772, Note_off_c, 5, 63, 0
8, 91776, Note_on_c, 5, 65, 127
8, 91776, Note_on_c, 5, 68, 127
8, 91776, Note_on_c, 5, 72, 127
8, 91908, Note_off_c, 5, 72, 0
8, 91908, Note_off_c, 5, 68, 0
8, 91908, Note_off_c, 5, 65, 0
8, 91920, Note_on_c, 5, 65, 127
8, 91920, Note_on_c, 5, 68, 127
8, 91920, Note_on_c, 5, 72, 127
8, 92052, Note_off_c, 5, 72, 0
8, 92052, Note_off_c, 5, 68, 0
8, 92052, Note_off_c, 5, 65, 0
8, 92064, Note_on_c, 5, 65, 127
8, 92064, Note_on_c, 5, 68, 127
8, 92064, Note_on_c, 5, 72, 127
8, 92156, Note_off_c, 5, 72, 0
8, 92156, Note_off_c, 5, 68, 0
8, 92156, Note_off_c, 5, 65, 0
8, 92256, Note_on_c, 5, 65, 127
8, 92256, Note_on_c, 5, 70, 127
8, 92256, Note_on_c, 5, 74, 127
8, 92308, Note_off_c, 5, 74, 0
8, 92308, Note_off_c, 5, 70, 0
8, 92308, Note_off_c, 5, 65, 0
8, 92400, Note_on_c, 5, 65, 127
8, 92400, Note_on_c, 5, 70, 127
8, 92400, Note_on_c, 5, 74, 127
8, 92540, Note_off_c, 5, 74, 0
8, 92540, Note_off_c, 5, 70, 0
8, 92540, Note_off_c, 5, 65, 0
8, 92544, Note_on_c, 5, 63, 127
8, 92544, Note_on_c, 5, 67, 127
8, 92544, Note_on_c, 5, 72, 127
8, 92684, Note_off_c, 5, 72, 0
8, 92684, Note_off_c, 5, 67, 0
8, 92684, Note_off_c, 5, 63, 0
8, 92688, Note_on_c, 5, 63, 127
8, 92688, Note_on_c, 5, 67, 127
8, 92688, Note_on_c, 5, 72, 127
8, 92928, Note_off_c, 5, 72, 0
8, 92928, Note_off_c, 5, 67, 0
8, 92928, Note_off_c, 5, 63, 0
8, 93024, Note_on_c, 5, 63, 127
8, 93024, Note_on_c, 5, 67, 127
8, 93024, Note_on_c, 5, 72, 127
8, 93076, Note_off_c, 5, 72, 0
8, 93076, Note_off_c, 5, 67, 0
8, 93076, Note_off_c, 5, 63, 0
8, 93168, Note_on_c, 5, 63, 127
8, 93168, Note_on_c, 5, 67, 127
8, 93168, Note_on_c, 5, 72, 127
8, 93308, Note_off_c, 5, 72, 0
8, 93308, Note_off_c, 5, 67, 0
8, 93308, Note_off_c, 5, 63, 0
8, 93312, Note_on_c, 5, 65, 127
8, 93312, Note_on_c, 5, 68, 127
8, 93312, Note_on_c, 5, 72, 127
8, 93444, Note_off_c, 5, 72, 0
8, 93444, Note_off_c, 5, 68, 0
8, 93444, Note_off_c, 5, 65, 0
8, 93456, Note_on_c, 5, 65, 127
8, 93456, Note_on_c, 5, 68, 127
8, 93456, Note_on_c, 5, 72, 127
8, 93588, Note_off_c, 5, 72, 0
8, 93588, Note_off_c, 5, 68, 0
8, 93588, Note_off_c, 5, 65, 0
8, 93600, Note_on_c, 5, 65, 127
8, 93600, Note_on_c, 5, 68, 127
8, 93600, Note_on_c, 5, 72, 127
8, 93692, Note_off_c, 5, 72, 0
8, 93692, Note_off_c, 5, 68, 0
8, 93692, Note_off_c, 5, 65, 0
8, 93792, Note_on_c, 5, 65, 127
8, 93792, Note_on_c, 5, 70, 127
8, 93792, Note_on_c, 5, 74, 127
8, 93844, Note_off_c, 5, 74, 0
8, 93844, Note_off_c, 5, 70, 0
8, 93844, Note_off_c, 5, 65, 0
8, 93936, Note_on_c, 5, 65, 127
8, 93936, Note_on_c, 5, 70, 127
8, 93936, Note_on_c, 5, 74, 127
8, 94076, Note_off_c, 5, 74, 0
8, 94076, Note_off_c, 5, 70, 0
8, 94076, Note_off_c, 5, 65, 0
8, 94080, Note_on_c, 5, 67, 127
8, 94080, Note_on_c, 5, 70, 127
8, 94080, Note_on_c, 5, 75, 127
8, 94212, Note_off_c, 5, 75, 0
8, 94212, Note_off_c, 5, 70, 0
8, 94212, Note_off_c, 5, 67, 0
8, 94224, Note_on_c, 5, 67, 127
8, 94224, Note_on_c, 5, 70, 127
8, 94224, Note_on_c, 5, 75, 127
8, 94356, Note_off_c, 5, 75, 0
8, 94356, Note_off_c, 5, 70, 0
8, 94356, Note_off_c, 5, 67, 0
8, 94368, Note_on_c, 5, 67, 127
8, 94368, Note_on_c, 5, 70, 127
8, 94368, Note_on_c, 5, 75, 127
8, 94460, Note_off_c, 5, 75, 0
8, 94460, Note_off_c, 5, 70, 0
8, 94460, Note_off_c, 5, 67, 0
8, 94560, Note_on_c, 5, 63, 127
8, 94560, Note_on_c, 5, 67, 127
8, 94560, Note_on_c, 5, 72, 127
8, 94612, Note_off_c, 5, 72, 0
8, 94612, Note_off_c, 5, 67, 0
8, 94612, Note_off_c, 5, 63, 0
8, 94704, Note_on_c, 5, 63, 127
8, 94704, Note_on_c, 5, 67, 127
8, 94704, Note_on_c, 5, 72, 127
8, 94844, Note_off_c, 5, 72, 0
8, 94844, Note_off_c, 5, 67, 0
8, 94844, Note_off_c, 5, 63, 0
8, 94848, Note_on_c, 5, 65, 127
8, 94848, Note_on_c, 5, 68, 127
8, 94848, Note_on_c, 5, 72, 127
8, 94980, Note_off_c, 5, 72, 0
8, 94980, Note_off_c, 5, 68, 0
8, 94980, Note_off_c, 5, 65, 0
8, 94992, Note_on_c, 5, 65, 127
8, 94992, Note_on_c, 5, 68, 127
8, 94992, Note_on_c, 5, 72, 127
8, 95124, Note_off_c, 5, 72, 0
8, 95124, Note_off_c, 5, 68, 0
8, 95124, Note_off_c, 5, 65, 0
8, 95136, Note_on_c, 5, 65, 127
8, 95136, Note_on_c, 5, 68, 127
8, 95136, Note_on_c, 5, 72, 127
8, 95228, Note_off_c, 5, 72, 0
8, 95228, Note_off_c, 5, 68, 0
8, 95228, Note_off_c, 5, 65, 0
8, 95328, Note_on_c, 5, 65, 127
8, 95328, Note_on_c, 5, 70, 127
8, 95328, Note_on_c, 5, 74, 127
8, 95380, Note_off_c, 5, 74, 0
8, 95380, Note_off_c, 5, 70, 0
8, 95380, Note_off_c, 5, 65, 0
8, 95472, Note_on_c, 5, 65, 127
8, 95472, Note_on_c, 5, 70, 127
8, 95472, Note_on_c, 5, 74, 127
8, 95612, Note_off_c, 5, 74, 0
8, 95612, Note_off_c, 5, 70, 0
8, 95612, Note_off_c, 5, 65, 0
8, 95616, Note_on_c, 5, 63, 127
8, 95616, Note_on_c, 5, 67, 127
8, 95616, Note_on_c, 5, 72, 127
8, 95756, Note_off_c, 5, 72, 0
8, 95756, Note_off_c, 5, 67, 0
8, 95756, Note_off_c, 5, 63, 0
8, 95760, Note_on_c, 5, 63, 127
8, 95760, Note_on_c, 5, 67, 127
8, 95760, Note_on_c, 5, 72, 127
8, 96000, Note_off_c, 5, 72, 0
8, 96000, Note_off_c, 5, 67, 0
8, 96000, Note_off_c, 5, 63, 0
8, 96000, End_track
9, 0, Start_track
9, 0, Title_t, "."
9, 0, Channel_prefix, 6
9, 0, Control_c, 6, 7, 100
9, 0, Program_c, 6, 52
9, 0, Control_c, 6, 0, 0
9, 0, Pitch_bend_c, 6, 8162
9, 0, Note_on_c, 6, 60, 127
9, 0, Note_on_c, 6, 67, 127
9, 0, Note_on_c, 6, 72, 127
9, 0, Note_on_c, 6, 75, 127
9, 0, Control_c, 6, 11, 1
9, 16, Control_c, 6, 11, 5
9, 32, Control_c, 6, 11, 9
9, 48, Control_c, 6, 11, 14
9, 64, Control_c, 6, 11, 18
9, 80, Control_c, 6, 11, 23
9, 96, Control_c, 6, 11, 27
9, 112, Control_c, 6, 11, 32
9, 128, Control_c, 6, 11, 36
9, 144, Control_c, 6, 11, 41
9, 160, Control_c, 6, 11, 45
9, 176, Control_c, 6, 11, 47
9, 384, Note_off_c, 6, 67, 0
9, 384, Note_on_c, 6, 68, 127
9, 384, Control_c, 6, 11, 50
9, 768, Note_off_c, 6, 60, 0
9, 768, Note_off_c, 6, 72, 0
9, 768, Note_off_c, 6, 75, 0
9, 768, Note_off_c, 6, 68, 0
9, 768, Note_on_c, 6, 58, 127
9, 768, Note_on_c, 6, 70, 127
9, 768, Note_on_c, 6, 74, 127
9, 768, Note_on_c, 6, 77, 127
9, 1148, Note_off_c, 6, 77, 0
9, 1148, Note_off_c, 6, 74, 0
9, 1148, Note_off_c, 6, 70, 0
9, 1148, Note_off_c, 6, 58, 0
9, 1152, Note_on_c, 6, 63, 127
9, 1152, Note_on_c, 6, 70, 127
9, 1152, Note_on_c, 6, 75, 127
9, 1152, Note_on_c, 6, 79, 127
9, 1344, Control_c, 6, 11, 50
9, 1360, Control_c, 6, 11, 49
9, 1368, Control_c, 6, 11, 47
9, 1376, Control_c, 6, 11, 45
9, 1384, Control_c, 6, 11, 42
9, 1392, Control_c, 6, 11, 38
9, 1400, Control_c, 6, 11, 34
9, 1408, Control_c, 6, 11, 29
9, 1416, Control_c, 6, 11, 25
9, 1424, Control_c, 6, 11, 20
9, 1432, Control_c, 6, 11, 15
9, 1436, Note_off_c, 6, 79, 0
9, 1436, Note_off_c, 6, 75, 0
9, 1436, Note_off_c, 6, 70, 0
9, 1436, Note_off_c, 6, 63, 0
9, 1536, Note_on_c, 6, 60, 127
9, 1536, Note_on_c, 6, 72, 127
9, 1536, Note_on_c, 6, 75, 127
9, 1536, Note_on_c, 6, 79, 127
9, 1536, Control_c, 6, 11, 15
9, 1552, Control_c, 6, 11, 18
9, 1568, Control_c, 6, 11, 21
9, 1584, Control_c, 6, 11, 24
9, 1600, Control_c, 6, 11, 27
9, 1616, Control_c, 6, 11, 30
9, 1632, Control_c, 6, 11, 34
9, 1648, Control_c, 6, 11, 37
9, 1664, Control_c, 6, 11, 40
9, 1680, Control_c, 6, 11, 43
9, 1696, Control_c, 6, 11, 46
9, 1712, Control_c, 6, 11, 50
9, 1916, Note_off_c, 6, 79, 0
9, 1916, Note_off_c, 6, 75, 0
9, 1916, Note_off_c, 6, 72, 0
9, 1916, Note_off_c, 6, 60, 0
9, 1920, Note_on_c, 6, 63, 127
9, 1920, Note_on_c, 6, 72, 127
9, 1920, Note_on_c, 6, 77, 127
9, 1920, Note_on_c, 6, 80, 127
9, 2300, Note_off_c, 6, 80, 0
9, 2300, Note_off_c, 6, 77, 0
9, 2300, Note_off_c, 6, 72, 0
9, 2300, Note_off_c, 6, 63, 0
9, 2304, Note_on_c, 6, 65, 127
9, 2304, Note_on_c, 6, 70, 127
9, 2304, Note_on_c, 6, 74, 127
9, 2304, Note_on_c, 6, 79, 127
9, 2684, Note_off_c, 6, 79, 0
9, 2684, Note_off_c, 6, 74, 0
9, 2684, Note_off_c, 6, 70, 0
9, 2684, Note_off_c, 6, 65, 0
9, 2688, Note_on_c, 6, 68, 127
9, 2688, Note_on_c, 6, 72, 127
9, 2688, Note_on_c, 6, 75, 127
9, 2688, Note_on_c, 6, 77, 127
9, 3456, Control_c, 6, 11, 50
9, 3476, Control_c, 6, 11, 49
9, 3496, Control_c, 6, 11, 50
9, 3516, Control_c, 6, 11, 51
9, 3536, Control_c, 6, 11, 53
9, 3556, Control_c, 6, 11, 56
9, 3576, Control_c, 6, 11, 59
9, 3596, Control_c, 6, 11, 62
9, 3616, Control_c, 6, 11, 65
9, 3636, Control_c, 6, 11, 69
9, 3656, Control_c, 6, 11, 73
9, 3676, Control_c, 6, 11, 78
9, 3696, Control_c, 6, 11, 78
9, 3716, Control_c, 6, 11, 79
9, 3736, Control_c, 6, 11, 80
9, 3756, Control_c, 6, 11, 82
9, 3776, Control_c, 6, 11, 83
9, 3796, Control_c, 6, 11, 84
9, 3816, Control_c, 6, 11, 86
9, 3840, Control_c, 6, 11, 87
9, 3856, Control_c, 6, 11, 88
9, 3872, Control_c, 6, 11, 90
9, 3888, Control_c, 6, 11, 91
9, 3904, Control_c, 6, 11, 93
9, 3920, Note_off_c, 6, 77, 0
9, 3920, Note_off_c, 6, 75, 0
9, 3920, Note_off_c, 6, 72, 0
9, 3920, Note_off_c, 6, 68, 0
9, 13824, Pitch_bend_c, 6, 8142
9, 13824, Control_c, 6, 1, 45
9, 14016, Note_on_c, 6, 65, 127
9, 14200, Note_off_c, 6, 65, 0
9, 14208, Note_on_c, 6, 58, 127
9, 14392, Note_off_c, 6, 58, 0
9, 14400, Note_on_c, 6, 72, 127
9, 14584, Note_off_c, 6, 72, 0
9, 14592, Note_on_c, 6, 70, 127
9, 15744, Control_c, 6, 11, 100
9, 15808, Control_c, 6, 11, 99
9, 15840, Control_c, 6, 11, 98
9, 15872, Control_c, 6, 11, 95
9, 15904, Control_c, 6, 11, 93
9, 15936, Control_c, 6, 11, 89
9, 15968, Control_c, 6, 11, 86
9, 16000, Control_c, 6, 11, 82
9, 16032, Control_c, 6, 11, 78
9, 16064, Control_c, 6, 11, 73
9, 16096, Control_c, 6, 11, 69
9, 16124, Note_off_c, 6, 70, 0
9, 17664, Note_on_c, 6, 72, 127
9, 17664, Control_c, 6, 11, 69
9, 17696, Control_c, 6, 11, 68
9, 17728, Control_c, 6, 11, 69
9, 17760, Control_c, 6, 11, 70
9, 17792, Control_c, 6, 11, 72
9, 17824, Control_c, 6, 11, 74
9, 17856, Control_c, 6, 11, 77
9, 17888, Control_c, 6, 11, 80
9, 17920, Control_c, 6, 11, 83
9, 17952, Control_c, 6, 11, 87
9, 17984, Control_c, 6, 11, 91
9, 18016, Control_c, 6, 11, 95
9, 18432, Note_off_c, 6, 72, 0
9, 18432, Note_on_c, 6, 71, 127
9, 19196, Note_off_c, 6, 71, 0
9, 19200, Note_on_c, 6, 63, 127
9, 19324, Note_off_c, 6, 63, 0
9, 19344, Note_on_c, 6, 63, 127
9, 19460, Note_off_c, 6, 63, 0
9, 19488, Note_on_c, 6, 62, 127
9, 19560, Note_off_c, 6, 62, 0
9, 19584, Note_on_c, 6, 63, 127
9, 19708, Note_off_c, 6, 63, 0
9, 19728, Note_on_c, 6, 63, 127
9, 19844, Note_off_c, 6, 63, 0
9, 19872, Note_on_c, 6, 62, 127
9, 19944, Note_off_c, 6, 62, 0
9, 19968, Note_on_c, 6, 65, 127
9, 20092, Note_off_c, 6, 65, 0
9, 20112, Note_on_c, 6, 65, 127
9, 20228, Note_off_c, 6, 65, 0
9, 20256, Note_on_c, 6, 63, 127
9, 20328, Note_off_c, 6, 63, 0
9, 20352, Note_on_c, 6, 62, 127
9, 20476, Note_off_c, 6, 62, 0
9, 20496, Note_on_c, 6, 60, 127
9, 20612, Note_off_c, 6, 60, 0
9, 20640, Note_on_c, 6, 62, 127
9, 20712, Note_off_c, 6, 62, 0
9, 20736, Note_on_c, 6, 63, 127
9, 20860, Note_off_c, 6, 63, 0
9, 20880, Note_on_c, 6, 63, 127
9, 20996, Note_off_c, 6, 63, 0
9, 21024, Note_on_c, 6, 62, 127
9, 21096, Note_off_c, 6, 62, 0
9, 21120, Note_on_c, 6, 65, 127
9, 21244, Note_off_c, 6, 65, 0
9, 21264, Note_on_c, 6, 62, 127
9, 21380, Note_off_c, 6, 62, 0
9, 21408, Note_on_c, 6, 60, 127
9, 21480, Note_off_c, 6, 60, 0
9, 21504, Note_on_c, 6, 58, 127
9, 21684, Note_off_c, 6, 58, 0
9, 22272, Note_on_c, 6, 63, 127
9, 22396, Note_off_c, 6, 63, 0
9, 22416, Note_on_c, 6, 63, 127
9, 22532, Note_off_c, 6, 63, 0
9, 22560, Note_on_c, 6, 62, 127
9, 22632, Note_off_c, 6, 62, 0
9, 22656, Note_on_c, 6, 63, 127
9, 22780, Note_off_c, 6, 63, 0
9, 22800, Note_on_c, 6, 63, 127
9, 22916, Note_off_c, 6, 63, 0
9, 22944, Note_on_c, 6, 62, 127
9, 23016, Note_off_c, 6, 62, 0
9, 23040, Note_on_c, 6, 65, 127
9, 23164, Note_off_c, 6, 65, 0
9, 23184, Note_on_c, 6, 65, 127
9, 23300, Note_off_c, 6, 65, 0
9, 23328, Note_on_c, 6, 63, 127
9, 23400, Note_off_c, 6, 63, 0
9, 23424, Note_on_c, 6, 62, 127
9, 23548, Note_off_c, 6, 62, 0
9, 23568, Note_on_c, 6, 63, 127
9, 23684, Note_off_c, 6, 63, 0
9, 23712, Note_on_c, 6, 65, 127
9, 23784, Note_off_c, 6, 65, 0
9, 23808, Note_on_c, 6, 67, 127
9, 23932, Note_off_c, 6, 67, 0
9, 23952, Note_on_c, 6, 68, 127
9, 24068, Note_off_c, 6, 68, 0
9, 24096, Note_on_c, 6, 67, 127
9, 24168, Note_off_c, 6, 67, 0
9, 24192, Note_on_c, 6, 65, 127
9, 24316, Note_off_c, 6, 65, 0
9, 24336, Note_on_c, 6, 63, 127
9, 24452, Note_off_c, 6, 63, 0
9, 24480, Note_on_c, 6, 65, 127
9, 24552, Note_off_c, 6, 65, 0
9, 24576, Note_on_c, 6, 62, 127
9, 24956, Note_off_c, 6, 62, 0
9, 25536, Note_on_c, 6, 67, 127
9, 25724, Note_off_c, 6, 67, 0
9, 25728, Note_on_c, 6, 65, 127
9, 25916, Note_off_c, 6, 65, 0
9, 25920, Note_on_c, 6, 72, 127
9, 26108, Note_off_c, 6, 72, 0
9, 26112, Note_on_c, 6, 70, 127
9, 26876, Note_off_c, 6, 70, 0
9, 26976, Note_on_c, 6, 72, 127
9, 27036, Note_off_c, 6, 72, 0
9, 27120, Note_on_c, 6, 72, 127
9, 27180, Note_off_c, 6, 72, 0
9, 27264, Note_on_c, 6, 72, 127
9, 27380, Note_off_c, 6, 72, 0
9, 27408, Note_on_c, 6, 72, 127
9, 27464, Note_off_c, 6, 72, 0
9, 27744, Note_on_c, 6, 70, 127
9, 27804, Note_off_c, 6, 70, 0
9, 27888, Note_on_c, 6, 70, 127
9, 27948, Note_off_c, 6, 70, 0
9, 28032, Note_on_c, 6, 72, 127
9, 28148, Note_off_c, 6, 72, 0
9, 28176, Note_on_c, 6, 70, 127
9, 28232, Note_off_c, 6, 70, 0
9, 28608, Note_on_c, 6, 72, 127
9, 28796, Note_off_c, 6, 72, 0
9, 28800, Note_on_c, 6, 68, 127
9, 28988, Note_off_c, 6, 68, 0
9, 28992, Note_on_c, 6, 75, 127
9, 29180, Note_off_c, 6, 75, 0
9, 29184, Note_on_c, 6, 74, 127
9, 29564, Note_off_c, 6, 74, 0
9, 29568, Note_on_c, 6, 75, 127
9, 29948, Note_off_c, 6, 75, 0
9, 30048, Note_on_c, 6, 72, 127
9, 30108, Note_off_c, 6, 72, 0
9, 30192, Note_on_c, 6, 72, 127
9, 30252, Note_off_c, 6, 72, 0
9, 30336, Note_on_c, 6, 72, 127
9, 30452, Note_off_c, 6, 72, 0
9, 30480, Note_on_c, 6, 72, 127
9, 30536, Note_off_c, 6, 72, 0
9, 30720, Note_on_c, 6, 70, 127
9, 30776, Note_off_c, 6, 70, 0
9, 30816, Note_on_c, 6, 70, 127
9, 30872, Note_off_c, 6, 70, 0
9, 30912, Note_on_c, 6, 67, 127
9, 30968, Note_off_c, 6, 67, 0
9, 31008, Note_on_c, 6, 70, 127
9, 31064, Note_off_c, 6, 70, 0
9, 31104, Note_on_c, 6, 70, 127
9, 31244, Note_off_c, 6, 70, 0
9, 31248, Note_on_c, 6, 72, 127
9, 31336, Note_off_c, 6, 72, 0
9, 31680, Note_on_c, 6, 72, 127
9, 31868, Note_off_c, 6, 72, 0
9, 31872, Note_on_c, 6, 68, 127
9, 32060, Note_off_c, 6, 68, 0
9, 32064, Note_on_c, 6, 75, 127
9, 32252, Note_off_c, 6, 75, 0
9, 32256, Note_on_c, 6, 74, 127
9, 32636, Note_off_c, 6, 74, 0
9, 32640, Note_on_c, 6, 75, 127
9, 33020, Note_off_c, 6, 75, 0
9, 33120, Note_on_c, 6, 72, 127
9, 33180, Note_off_c, 6, 72, 0
9, 33264, Note_on_c, 6, 72, 127
9, 33324, Note_off_c, 6, 72, 0
9, 33408, Note_on_c, 6, 72, 127
9, 33524, Note_off_c, 6, 72, 0
9, 33552, Note_on_c, 6, 72, 127
9, 33608, Note_off_c, 6, 72, 0
9, 33792, Note_on_c, 6, 70, 127
9, 33848, Note_off_c, 6, 70, 0
9, 33888, Note_on_c, 6, 70, 127
9, 33944, Note_off_c, 6, 70, 0
9, 33984, Note_on_c, 6, 67, 127
9, 34040, Note_off_c, 6, 67, 0
9, 34080, Note_on_c, 6, 70, 127
9, 34136, Note_off_c, 6, 70, 0
9, 34176, Note_on_c, 6, 70, 127
9, 34316, Note_off_c, 6, 70, 0
9, 34320, Note_on_c, 6, 72, 127
9, 34408, Note_off_c, 6, 72, 0
9, 41472, Control_c, 6, 91, 50
9, 41472, Control_c, 6, 11, 92
9, 41472, Control_c, 6, 10, 54
9, 41856, Note_on_c, 6, 58, 127
9, 41856, Note_on_c, 6, 62, 127
9, 42016, Note_off_c, 6, 62, 0
9, 42016, Note_off_c, 6, 58, 0
9, 42048, Note_on_c, 6, 58, 127
9, 42048, Note_on_c, 6, 62, 127
9, 42208, Note_off_c, 6, 62, 0
9, 42208, Note_off_c, 6, 58, 0
9, 42240, Note_on_c, 6, 63, 127
9, 42240, Note_on_c, 6, 67, 127
9, 43004, Note_off_c, 6, 67, 0
9, 43004, Note_off_c, 6, 63, 0
9, 43392, Note_on_c, 6, 58, 127
9, 43392, Note_on_c, 6, 62, 127
9, 43552, Note_off_c, 6, 62, 0
9, 43552, Note_off_c, 6, 58, 0
9, 43584, Note_on_c, 6, 58, 127
9, 43584, Note_on_c, 6, 62, 127
9, 43744, Note_off_c, 6, 62, 0
9, 43744, Note_off_c, 6, 58, 0
9, 43776, Note_on_c, 6, 63, 127
9, 43776, Note_on_c, 6, 67, 127
9, 44032, Note_off_c, 6, 67, 0
9, 44032, Note_off_c, 6, 63, 0
9, 44064, Note_on_c, 6, 62, 127
9, 44064, Note_on_c, 6, 67, 127
9, 44924, Note_off_c, 6, 67, 0
9, 44924, Note_off_c, 6, 62, 0
9, 45120, Note_on_c, 6, 62, 127
9, 45120, Note_on_c, 6, 67, 127
9, 45292, Note_off_c, 6, 67, 0
9, 45292, Note_off_c, 6, 62, 0
9, 45312, Note_on_c, 6, 63, 127
9, 45312, Note_on_c, 6, 67, 127
9, 46080, Note_on_c, 6, 62, 127
9, 46080, Note_on_c, 6, 65, 127
9, 46084, Note_off_c, 6, 67, 0
9, 46084, Note_off_c, 6, 63, 0
9, 46848, Note_off_c, 6, 62, 0
9, 46848, Note_off_c, 6, 65, 0
9, 52992, Control_c, 6, 10, 24
9, 52992, Control_c, 6, 11, 100
9, 52992, Control_c, 6, 91, 40
9, 60096, Note_on_c, 6, 65, 127
9, 60280, Note_off_c, 6, 65, 0
9, 60288, Note_on_c, 6, 58, 127
9, 60472, Note_off_c, 6, 58, 0
9, 60480, Note_on_c, 6, 72, 127
9, 60664, Note_off_c, 6, 72, 0
9, 60672, Note_on_c, 6, 70, 127
9, 61824, Control_c, 6, 11, 100
9, 61888, Control_c, 6, 11, 99
9, 61920, Control_c, 6, 11, 98
9, 61952, Control_c, 6, 11, 95
9, 61984, Control_c, 6, 11, 93
9, 62016, Control_c, 6, 11, 89
9, 62048, Control_c, 6, 11, 86
9, 62080, Control_c, 6, 11, 82
9, 62112, Control_c, 6, 11, 78
9, 62144, Control_c, 6, 11, 73
9, 62176, Control_c, 6, 11, 69
9, 62204, Note_off_c, 6, 70, 0
9, 63744, Note_on_c, 6, 72, 127
9, 63744, Control_c, 6, 11, 69
9, 63776, Control_c, 6, 11, 68
9, 63808, Control_c, 6, 11, 69
9, 63840, Control_c, 6, 11, 70
9, 63872, Control_c, 6, 11, 72
9, 63904, Control_c, 6, 11, 74
9, 63936, Control_c, 6, 11, 77
9, 63968, Control_c, 6, 11, 80
9, 64000, Control_c, 6, 11, 83
9, 64032, Control_c, 6, 11, 87
9, 64064, Control_c, 6, 11, 91
9, 64096, Control_c, 6, 11, 95
9, 64512, Note_off_c, 6, 72, 0
9, 64512, Note_on_c, 6, 71, 127
9, 65276, Note_off_c, 6, 71, 0
9, 65280, Note_on_c, 6, 63, 127
9, 65404, Note_off_c, 6, 63, 0
9, 65424, Note_on_c, 6, 63, 127
9, 65540, Note_off_c, 6, 63, 0
9, 65568, Note_on_c, 6, 62, 127
9, 65640, Note_off_c, 6, 62, 0
9, 65664, Note_on_c, 6, 63, 127
9, 65788, Note_off_c, 6, 63, 0
9, 65808, Note_on_c, 6, 63, 127
9, 65924, Note_off_c, 6, 63, 0
9, 65952, Note_on_c, 6, 62, 127
9, 66024, Note_off_c, 6, 62, 0
9, 66048, Note_on_c, 6, 65, 127
9, 66172, Note_off_c, 6, 65, 0
9, 66192, Note_on_c, 6, 65, 127
9, 66308, Note_off_c, 6, 65, 0
9, 66336, Note_on_c, 6, 63, 127
9, 66408, Note_off_c, 6, 63, 0
9, 66432, Note_on_c, 6, 62, 127
9, 66556, Note_off_c, 6, 62, 0
9, 66576, Note_on_c, 6, 60, 127
9, 66692, Note_off_c, 6, 60, 0
9, 66720, Note_on_c, 6, 62, 127
9, 66792, Note_off_c, 6, 62, 0
9, 66816, Note_on_c, 6, 63, 127
9, 66940, Note_off_c, 6, 63, 0
9, 66960, Note_on_c, 6, 63, 127
9, 67076, Note_off_c, 6, 63, 0
9, 67104, Note_on_c, 6, 62, 127
9, 67176, Note_off_c, 6, 62, 0
9, 67200, Note_on_c, 6, 65, 127
9, 67324, Note_off_c, 6, 65, 0
9, 67344, Note_on_c, 6, 62, 127
9, 67460, Note_off_c, 6, 62, 0
9, 67488, Note_on_c, 6, 60, 127
9, 67560, Note_off_c, 6, 60, 0
9, 67584, Note_on_c, 6, 58, 127
9, 67764, Note_off_c, 6, 58, 0
9, 68352, Note_on_c, 6, 63, 127
9, 68476, Note_off_c, 6, 63, 0
9, 68496, Note_on_c, 6, 63, 127
9, 68612, Note_off_c, 6, 63, 0
9, 68640, Note_on_c, 6, 62, 127
9, 68712, Note_off_c, 6, 62, 0
9, 68736, Note_on_c, 6, 63, 127
9, 68860, Note_off_c, 6, 63, 0
9, 68880, Note_on_c, 6, 63, 127
9, 68996, Note_off_c, 6, 63, 0
9, 69024, Note_on_c, 6, 62, 127
9, 69096, Note_off_c, 6, 62, 0
9, 69120, Note_on_c, 6, 65, 127
9, 69244, Note_off_c, 6, 65, 0
9, 69264, Note_on_c, 6, 65, 127
9, 69380, Note_off_c, 6, 65, 0
9, 69408, Note_on_c, 6, 63, 127
9, 69480, Note_off_c, 6, 63, 0
9, 69504, Note_on_c, 6, 62, 127
9, 69628, Note_off_c, 6, 62, 0
9, 69648, Note_on_c, 6, 63, 127
9, 69764, Note_off_c, 6, 63, 0
9, 69792, Note_on_c, 6, 65, 127
9, 69864, Note_off_c, 6, 65, 0
9, 69888, Note_on_c, 6, 67, 127
9, 70012, Note_off_c, 6, 67, 0
9, 70032, Note_on_c, 6, 68, 127
9, 70148, Note_off_c, 6, 68, 0
9, 70176, Note_on_c, 6, 67, 127
9, 70248, Note_off_c, 6, 67, 0
9, 70272, Note_on_c, 6, 65, 127
9, 70396, Note_off_c, 6, 65, 0
9, 70416, Note_on_c, 6, 63, 127
9, 70532, Note_off_c, 6, 63, 0
9, 70560, Note_on_c, 6, 65, 127
9, 70632, Note_off_c, 6, 65, 0
9, 70656, Note_on_c, 6, 62, 127
9, 71036, Note_off_c, 6, 62, 0
9, 71616, Note_on_c, 6, 67, 127
9, 71804, Note_off_c, 6, 67, 0
9, 71808, Note_on_c, 6, 65, 127
9, 71996, Note_off_c, 6, 65, 0
9, 72000, Note_on_c, 6, 72, 127
9, 72188, Note_off_c, 6, 72, 0
9, 72192, Note_on_c, 6, 70, 127
9, 72956, Note_off_c, 6, 70, 0
9, 73056, Note_on_c, 6, 72, 127
9, 73116, Note_off_c, 6, 72, 0
9, 73200, Note_on_c, 6, 72, 127
9, 73260, Note_off_c, 6, 72, 0
9, 73344, Note_on_c, 6, 72, 127
9, 73460, Note_off_c, 6, 72, 0
9, 73488, Note_on_c, 6, 72, 127
9, 73544, Note_off_c, 6, 72, 0
9, 73824, Note_on_c, 6, 70, 127
9, 73884, Note_off_c, 6, 70, 0
9, 73968, Note_on_c, 6, 70, 127
9, 74028, Note_off_c, 6, 70, 0
9, 74112, Note_on_c, 6, 72, 127
9, 74228, Note_off_c, 6, 72, 0
9, 74256, Note_on_c, 6, 70, 127
9, 74312, Note_off_c, 6, 70, 0
9, 74688, Note_on_c, 6, 72, 127
9, 74876, Note_off_c, 6, 72, 0
9, 74880, Note_on_c, 6, 68, 127
9, 75068, Note_off_c, 6, 68, 0
9, 75072, Note_on_c, 6, 75, 127
9, 75260, Note_off_c, 6, 75, 0
9, 75264, Note_on_c, 6, 74, 127
9, 75644, Note_off_c, 6, 74, 0
9, 75648, Note_on_c, 6, 75, 127
9, 76028, Note_off_c, 6, 75, 0
9, 76128, Note_on_c, 6, 72, 127
9, 76188, Note_off_c, 6, 72, 0
9, 76272, Note_on_c, 6, 72, 127
9, 76332, Note_off_c, 6, 72, 0
9, 76416, Note_on_c, 6, 72, 127
9, 76532, Note_off_c, 6, 72, 0
9, 76560, Note_on_c, 6, 72, 127
9, 76616, Note_off_c, 6, 72, 0
9, 76800, Note_on_c, 6, 70, 127
9, 76856, Note_off_c, 6, 70, 0
9, 76896, Note_on_c, 6, 70, 127
9, 76952, Note_off_c, 6, 70, 0
9, 76992, Note_on_c, 6, 67, 127
9, 77048, Note_off_c, 6, 67, 0
9, 77088, Note_on_c, 6, 70, 127
9, 77144, Note_off_c, 6, 70, 0
9, 77184, Note_on_c, 6, 70, 127
9, 77324, Note_off_c, 6, 70, 0
9, 77328, Note_on_c, 6, 72, 127
9, 77416, Note_off_c, 6, 72, 0
9, 77760, Note_on_c, 6, 72, 127
9, 77948, Note_off_c, 6, 72, 0
9, 77952, Note_on_c, 6, 68, 127
9, 78140, Note_off_c, 6, 68, 0
9, 78144, Note_on_c, 6, 75, 127
9, 78332, Note_off_c, 6, 75, 0
9, 78336, Note_on_c, 6, 74, 127
9, 78716, Note_off_c, 6, 74, 0
9, 78720, Note_on_c, 6, 75, 127
9, 79100, Note_off_c, 6, 75, 0
9, 79200, Note_on_c, 6, 72, 127
9, 79260, Note_off_c, 6, 72, 0
9, 79344, Note_on_c, 6, 72, 127
9, 79404, Note_off_c, 6, 72, 0
9, 79488, Note_on_c, 6, 72, 127
9, 79604, Note_off_c, 6, 72, 0
9, 79632, Note_on_c, 6, 72, 127
9, 79688, Note_off_c, 6, 72, 0
9, 79872, Note_on_c, 6, 70, 127
9, 79928, Note_off_c, 6, 70, 0
9, 79968, Note_on_c, 6, 70, 127
9, 80024, Note_off_c, 6, 70, 0
9, 80064, Note_on_c, 6, 67, 127
9, 80120, Note_off_c, 6, 67, 0
9, 80160, Note_on_c, 6, 70, 127
9, 80216, Note_off_c, 6, 70, 0
9, 80256, Note_on_c, 6, 70, 127
9, 80396, Note_off_c, 6, 70, 0
9, 80400, Note_on_c, 6, 72, 127
9, 80488, Note_off_c, 6, 72, 0
9, 80640, Note_on_c, 6, 63, 127
9, 80764, Note_off_c, 6, 63, 0
9, 80784, Note_on_c, 6, 63, 127
9, 80900, Note_off_c, 6, 63, 0
9, 80928, Note_on_c, 6, 62, 127
9, 81000, Note_off_c, 6, 62, 0
9, 81024, Note_on_c, 6, 63, 127
9, 81148, Note_off_c, 6, 63, 0
9, 81168, Note_on_c, 6, 63, 127
9, 81284, Note_off_c, 6, 63, 0
9, 81312, Note_on_c, 6, 62, 127
9, 81384, Note_off_c, 6, 62, 0
9, 81408, Note_on_c, 6, 65, 127
9, 81532, Note_off_c, 6, 65, 0
9, 81552, Note_on_c, 6, 65, 127
9, 81668, Note_off_c, 6, 65, 0
9, 81696, Note_on_c, 6, 63, 127
9, 81768, Note_off_c, 6, 63, 0
9, 81792, Note_on_c, 6, 62, 127
9, 81916, Note_off_c, 6, 62, 0
9, 81936, Note_on_c, 6, 60, 127
9, 82052, Note_off_c, 6, 60, 0
9, 82080, Note_on_c, 6, 62, 127
9, 82152, Note_off_c, 6, 62, 0
9, 82176, Note_on_c, 6, 63, 127
9, 82300, Note_off_c, 6, 63, 0
9, 82320, Note_on_c, 6, 63, 127
9, 82436, Note_off_c, 6, 63, 0
9, 82464, Note_on_c, 6, 62, 127
9, 82536, Note_off_c, 6, 62, 0
9, 82560, Note_on_c, 6, 65, 127
9, 82684, Note_off_c, 6, 65, 0
9, 82704, Note_on_c, 6, 62, 127
9, 82820, Note_off_c, 6, 62, 0
9, 82848, Note_on_c, 6, 60, 127
9, 82920, Note_off_c, 6, 60, 0
9, 82944, Note_on_c, 6, 58, 127
9, 83124, Note_off_c, 6, 58, 0
9, 83712, Note_on_c, 6, 63, 127
9, 83836, Note_off_c, 6, 63, 0
9, 83856, Note_on_c, 6, 63, 127
9, 83972, Note_off_c, 6, 63, 0
9, 84000, Note_on_c, 6, 62, 127
9, 84072, Note_off_c, 6, 62, 0
9, 84096, Note_on_c, 6, 63, 127
9, 84220, Note_off_c, 6, 63, 0
9, 84240, Note_on_c, 6, 63, 127
9, 84356, Note_off_c, 6, 63, 0
9, 84384, Note_on_c, 6, 62, 127
9, 84456, Note_off_c, 6, 62, 0
9, 84480, Note_on_c, 6, 65, 127
9, 84604, Note_off_c, 6, 65, 0
9, 84624, Note_on_c, 6, 65, 127
9, 84740, Note_off_c, 6, 65, 0
9, 84768, Note_on_c, 6, 63, 127
9, 84840, Note_off_c, 6, 63, 0
9, 84864, Note_on_c, 6, 62, 127
9, 84988, Note_off_c, 6, 62, 0
9, 85008, Note_on_c, 6, 63, 127
9, 85124, Note_off_c, 6, 63, 0
9, 85152, Note_on_c, 6, 65, 127
9, 85224, Note_off_c, 6, 65, 0
9, 85248, Note_on_c, 6, 67, 127
9, 85372, Note_off_c, 6, 67, 0
9, 85392, Note_on_c, 6, 68, 127
9, 85508, Note_off_c, 6, 68, 0
9, 85536, Note_on_c, 6, 67, 127
9, 85608, Note_off_c, 6, 67, 0
9, 85632, Note_on_c, 6, 65, 127
9, 85756, Note_off_c, 6, 65, 0
9, 85776, Note_on_c, 6, 63, 127
9, 85892, Note_off_c, 6, 63, 0
9, 85920, Note_on_c, 6, 65, 127
9, 85992, Note_off_c, 6, 65, 0
9, 86016, Note_on_c, 6, 62, 127
9, 86396, Note_off_c, 6, 62, 0
9, 86976, Note_on_c, 6, 67, 127
9, 87164, Note_off_c, 6, 67, 0
9, 87168, Note_on_c, 6, 65, 127
9, 87356, Note_off_c, 6, 65, 0
9, 87360, Note_on_c, 6, 72, 127
9, 87548, Note_off_c, 6, 72, 0
9, 87552, Note_on_c, 6, 70, 127
9, 88316, Note_off_c, 6, 70, 0
9, 88416, Note_on_c, 6, 72, 127
9, 88476, Note_off_c, 6, 72, 0
9, 88560, Note_on_c, 6, 72, 127
9, 88620, Note_off_c, 6, 72, 0
9, 88704, Note_on_c, 6, 72, 127
9, 88820, Note_off_c, 6, 72, 0
9, 88848, Note_on_c, 6, 72, 127
9, 88904, Note_off_c, 6, 72, 0
9, 89184, Note_on_c, 6, 70, 127
9, 89244, Note_off_c, 6, 70, 0
9, 89328, Note_on_c, 6, 70, 127
9, 89388, Note_off_c, 6, 70, 0
9, 89472, Note_on_c, 6, 72, 127
9, 89588, Note_off_c, 6, 72, 0
9, 89616, Note_on_c, 6, 70, 127
9, 89672, Note_off_c, 6, 70, 0
9, 90048, Note_on_c, 6, 72, 127
9, 90236, Note_off_c, 6, 72, 0
9, 90240, Note_on_c, 6, 68, 127
9, 90428, Note_off_c, 6, 68, 0
9, 90432, Note_on_c, 6, 75, 127
9, 90620, Note_off_c, 6, 75, 0
9, 90624, Note_on_c, 6, 74, 127
9, 91004, Note_off_c, 6, 74, 0
9, 91008, Note_on_c, 6, 75, 127
9, 91388, Note_off_c, 6, 75, 0
9, 91488, Note_on_c, 6, 72, 127
9, 91548, Note_off_c, 6, 72, 0
9, 91632, Note_on_c, 6, 72, 127
9, 91692, Note_off_c, 6, 72, 0
9, 91776, Note_on_c, 6, 72, 127
9, 91892, Note_off_c, 6, 72, 0
9, 91920, Note_on_c, 6, 72, 127
9, 91976, Note_off_c, 6, 72, 0
9, 92160, Note_on_c, 6, 70, 127
9, 92216, Note_off_c, 6, 70, 0
9, 92256, Note_on_c, 6, 70, 127
9, 92312, Note_off_c, 6, 70, 0
9, 92352, Note_on_c, 6, 67, 127
9, 92408, Note_off_c, 6, 67, 0
9, 92448, Note_on_c, 6, 70, 127
9, 92504, Note_off_c, 6, 70, 0
9, 92544, Note_on_c, 6, 70, 127
9, 92684, Note_off_c, 6, 70, 0
9, 92688, Note_on_c, 6, 72, 127
9, 92776, Note_off_c, 6, 72, 0
9, 93120, Note_on_c, 6, 72, 127
9, 93308, Note_off_c, 6, 72, 0
9, 93312, Note_on_c, 6, 68, 127
9, 93500, Note_off_c, 6, 68, 0
9, 93504, Note_on_c, 6, 75, 127
9, 93692, Note_off_c, 6, 75, 0
9, 93696, Note_on_c, 6, 74, 127
9, 94076, Note_off_c, 6, 74, 0
9, 94080, Note_on_c, 6, 75, 127
9, 94460, Note_off_c, 6, 75, 0
9, 94560, Note_on_c, 6, 72, 127
9, 94620, Note_off_c, 6, 72, 0
9, 94704, Note_on_c, 6, 72, 127
9, 94764, Note_off_c, 6, 72, 0
9, 94848, Note_on_c, 6, 72, 127
9, 94964, Note_off_c, 6, 72, 0
9, 94992, Note_on_c, 6, 72, 127
9, 95048, Note_off_c, 6, 72, 0
9, 95232, Note_on_c, 6, 70, 127
9, 95288, Note_off_c, 6, 70, 0
9, 95328, Note_on_c, 6, 70, 127
9, 95384, Note_off_c, 6, 70, 0
9, 95424, Note_on_c, 6, 67, 127
9, 95480, Note_off_c, 6, 67, 0
9, 95520, Note_on_c, 6, 70, 127
9, 95576, Note_off_c, 6, 70, 0
9, 95616, Note_on_c, 6, 70, 127
9, 95756, Note_off_c, 6, 70, 0
9, 95760, Note_on_c, 6, 72, 127
9, 95848, Note_off_c, 6, 72, 0
9, 95848, End_track
10, 0, Start_track
10, 0, Title_t, "edu"
10, 0, Channel_prefix, 7
10, 0, Control_c, 7, 7, 100
10, 0, Program_c, 7, 52
10, 0, Control_c, 7, 0, 0
10, 13824, Pitch_bend_c, 7, 8142
10, 13824, Control_c, 7, 1, 45
10, 14016, Note_on_c, 7, 53, 127
10, 14200, Note_off_c, 7, 53, 0
10, 14208, Note_on_c, 7, 46, 127
10, 14392, Note_off_c, 7, 46, 0
10, 14400, Note_on_c, 7, 60, 127
10, 14584, Note_off_c, 7, 60, 0
10, 14592, Note_on_c, 7, 58, 127
10, 15744, Control_c, 7, 11, 100
10, 15808, Control_c, 7, 11, 99
10, 15840, Control_c, 7, 11, 98
10, 15872, Control_c, 7, 11, 95
10, 15904, Control_c, 7, 11, 93
10, 15936, Control_c, 7, 11, 89
10, 15968, Control_c, 7, 11, 86
10, 16000, Control_c, 7, 11, 82
10, 16032, Control_c, 7, 11, 78
10, 16064, Control_c, 7, 11, 73
10, 16096, Control_c, 7, 11, 69
10, 16124, Note_off_c, 7, 58, 0
10, 17664, Note_on_c, 7, 65, 127
10, 17664, Control_c, 7, 11, 69
10, 17696, Control_c, 7, 11, 68
10, 17728, Control_c, 7, 11, 69
10, 17760, Control_c, 7, 11, 70
10, 17792, Control_c, 7, 11, 72
10, 17824, Control_c, 7, 11, 74
10, 17856, Control_c, 7, 11, 77
10, 17888, Control_c, 7, 11, 80
10, 17920, Control_c, 7, 11, 83
10, 17952, Control_c, 7, 11, 87
10, 17984, Control_c, 7, 11, 91
10, 18016, Control_c, 7, 11, 95
10, 18048, Note_on_c, 7, 68, 127
10, 18432, Note_off_c, 7, 68, 0
10, 18432, Note_off_c, 7, 65, 0
10, 18432, Note_on_c, 7, 67, 127
10, 19200, Note_off_c, 7, 67, 0
10, 22656, Note_on_c, 7, 60, 127
10, 22780, Note_off_c, 7, 60, 0
10, 22800, Note_on_c, 7, 60, 127
10, 22916, Note_off_c, 7, 60, 0
10, 22944, Note_on_c, 7, 58, 127
10, 23016, Note_off_c, 7, 58, 0
10, 23040, Note_on_c, 7, 62, 127
10, 23164, Note_off_c, 7, 62, 0
10, 23184, Note_on_c, 7, 62, 127
10, 23300, Note_off_c, 7, 62, 0
10, 23328, Note_on_c, 7, 60, 127
10, 23400, Note_off_c, 7, 60, 0
10, 23424, Note_on_c, 7, 58, 127
10, 23548, Note_off_c, 7, 58, 0
10, 23568, Note_on_c, 7, 60, 127
10, 23684, Note_off_c, 7, 60, 0
10, 23712, Note_on_c, 7, 62, 127
10, 23784, Note_off_c, 7, 62, 0
10, 23808, Note_on_c, 7, 62, 127
10, 23932, Note_off_c, 7, 62, 0
10, 23952, Note_on_c, 7, 62, 127
10, 24068, Note_off_c, 7, 62, 0
10, 24096, Note_on_c, 7, 62, 127
10, 24168, Note_off_c, 7, 62, 0
10, 24192, Note_on_c, 7, 62, 127
10, 24316, Note_off_c, 7, 62, 0
10, 24336, Note_on_c, 7, 60, 127
10, 24452, Note_off_c, 7, 60, 0
10, 24480, Note_on_c, 7, 62, 127
10, 24552, Note_off_c, 7, 62, 0
10, 24576, Note_on_c, 7, 59, 127
10, 24956, Note_off_c, 7, 59, 0
10, 25536, Note_on_c, 7, 63, 127
10, 25724, Note_off_c, 7, 63, 0
10, 25728, Note_on_c, 7, 60, 127
10, 25916, Note_off_c, 7, 60, 0
10, 25920, Note_on_c, 7, 68, 127
10, 26108, Note_off_c, 7, 68, 0
10, 26112, Note_on_c, 7, 65, 127
10, 26492, Note_off_c, 7, 65, 0
10, 26496, Note_on_c, 7, 67, 127
10, 26876, Note_off_c, 7, 67, 0
10, 26976, Note_on_c, 7, 67, 127
10, 27036, Note_off_c, 7, 67, 0
10, 27120, Note_on_c, 7, 67, 127
10, 27180, Note_off_c, 7, 67, 0
10, 27264, Note_on_c, 7, 68, 127
10, 27380, Note_off_c, 7, 68, 0
10, 27408, Note_on_c, 7, 68, 127
10, 27464, Note_off_c, 7, 68, 0
10, 27744, Note_on_c, 7, 65, 127
10, 27804, Note_off_c, 7, 65, 0
10, 27888, Note_on_c, 7, 65, 127
10, 27948, Note_off_c, 7, 65, 0
10, 28032, Note_on_c, 7, 67, 127
10, 28148, Note_off_c, 7, 67, 0
10, 28176, Note_on_c, 7, 67, 127
10, 28232, Note_off_c, 7, 67, 0
10, 28608, Note_on_c, 7, 67, 127
10, 28796, Note_off_c, 7, 67, 0
10, 28800, Note_on_c, 7, 63, 127
10, 28988, Note_off_c, 7, 63, 0
10, 28992, Note_on_c, 7, 72, 127
10, 29180, Note_off_c, 7, 72, 0
10, 29184, Note_on_c, 7, 70, 127
10, 29184, Pitch_bend_c, 7, 6910
10, 29188, Pitch_bend_c, 7, 7039
10, 29192, Pitch_bend_c, 7, 7167
10, 29196, Pitch_bend_c, 7, 7292
10, 29200, Pitch_bend_c, 7, 7412
10, 29204, Pitch_bend_c, 7, 7527
10, 29208, Pitch_bend_c, 7, 7635
10, 29212, Pitch_bend_c, 7, 7736
10, 29216, Pitch_bend_c, 7, 7827
10, 29220, Pitch_bend_c, 7, 7908
10, 29224, Pitch_bend_c, 7, 7978
10, 29228, Pitch_bend_c, 7, 8037
10, 29232, Pitch_bend_c, 7, 8083
10, 29236, Pitch_bend_c, 7, 8117
10, 29240, Pitch_bend_c, 7, 8137
10, 29244, Pitch_bend_c, 7, 8142
10, 29564, Note_off_c, 7, 70, 0
10, 29568, Note_on_c, 7, 70, 127
10, 29568, Pitch_bend_c, 7, 6910
10, 29572, Pitch_bend_c, 7, 7039
10, 29576, Pitch_bend_c, 7, 7167
10, 29580, Pitch_bend_c, 7, 7292
10, 29584, Pitch_bend_c, 7, 7412
10, 29588, Pitch_bend_c, 7, 7527
10, 29592, Pitch_bend_c, 7, 7635
10, 29596, Pitch_bend_c, 7, 7736
10, 29600, Pitch_bend_c, 7, 7827
10, 29604, Pitch_bend_c, 7, 7908
10, 29608, Pitch_bend_c, 7, 7978
10, 29612, Pitch_bend_c, 7, 8037
10, 29616, Pitch_bend_c, 7, 8083
10, 29620, Pitch_bend_c, 7, 8117
10, 29624, Pitch_bend_c, 7, 8137
10, 29628, Pitch_bend_c, 7, 8142
10, 29948, Note_off_c, 7, 70, 0
10, 30048, Note_on_c, 7, 67, 127
10, 30108, Note_off_c, 7, 67, 0
10, 30192, Note_on_c, 7, 67, 127
10, 30252, Note_off_c, 7, 67, 0
10, 30336, Note_on_c, 7, 68, 127
10, 30452, Note_off_c, 7, 68, 0
10, 30480, Note_on_c, 7, 68, 127
10, 30536, Note_off_c, 7, 68, 0
10, 30720, Note_on_c, 7, 65, 127
10, 30776, Note_off_c, 7, 65, 0
10, 30816, Note_on_c, 7, 65, 127
10, 30872, Note_off_c, 7, 65, 0
10, 30912, Note_on_c, 7, 62, 127
10, 30968, Note_off_c, 7, 62, 0
10, 31008, Note_on_c, 7, 65, 127
10, 31064, Note_off_c, 7, 65, 0
10, 31104, Note_on_c, 7, 65, 127
10, 31244, Note_off_c, 7, 65, 0
10, 31248, Note_on_c, 7, 67, 127
10, 31336, Note_off_c, 7, 67, 0
10, 31680, Note_on_c, 7, 67, 127
10, 31868, Note_off_c, 7, 67, 0
10, 31872, Note_on_c, 7, 63, 127
10, 32060, Note_off_c, 7, 63, 0
10, 32064, Note_on_c, 7, 72, 127
10, 32252, Note_off_c, 7, 72, 0
10, 32256, Note_on_c, 7, 70, 127
10, 32256, Pitch_bend_c, 7, 6910
10, 32260, Pitch_bend_c, 7, 7039
10, 32264, Pitch_bend_c, 7, 7167
10, 32268, Pitch_bend_c, 7, 7292
10, 32272, Pitch_bend_c, 7, 7412
10, 32276, Pitch_bend_c, 7, 7527
10, 32280, Pitch_bend_c, 7, 7635
10, 32284, Pitch_bend_c, 7, 7736
10, 32288, Pitch_bend_c, 7, 7827
10, 32292, Pitch_bend_c, 7, 7908
10, 32296, Pitch_bend_c, 7, 7978
10, 32300, Pitch_bend_c, 7, 8037
10, 32304, Pitch_bend_c, 7, 8083
10, 32308, Pitch_bend_c, 7, 8117
10, 32312, Pitch_bend_c, 7, 8137
10, 32316, Pitch_bend_c, 7, 8142
10, 32636, Note_off_c, 7, 70, 0
10, 32640, Note_on_c, 7, 70, 127
10, 32640, Pitch_bend_c, 7, 6910
10, 32644, Pitch_bend_c, 7, 7039
10, 32648, Pitch_bend_c, 7, 7167
10, 32652, Pitch_bend_c, 7, 7292
10, 32656, Pitch_bend_c, 7, 7412
10, 32660, Pitch_bend_c, 7, 7527
10, 32664, Pitch_bend_c, 7, 7635
10, 32668, Pitch_bend_c, 7, 7736
10, 32672, Pitch_bend_c, 7, 7827
10, 32676, Pitch_bend_c, 7, 7908
10, 32680, Pitch_bend_c, 7, 7978
10, 32684, Pitch_bend_c, 7, 8037
10, 32688, Pitch_bend_c, 7, 8083
10, 32692, Pitch_bend_c, 7, 8117
10, 32696, Pitch_bend_c, 7, 8137
10, 32700, Pitch_bend_c, 7, 8142
10, 33020, Note_off_c, 7, 70, 0
10, 33120, Note_on_c, 7, 67, 127
10, 33180, Note_off_c, 7, 67, 0
10, 33264, Note_on_c, 7, 67, 127
10, 33324, Note_off_c, 7, 67, 0
10, 33408, Note_on_c, 7, 68, 127
10, 33524, Note_off_c, 7, 68, 0
10, 33552, Note_on_c, 7, 68, 127
10, 33608, Note_off_c, 7, 68, 0
10, 33792, Note_on_c, 7, 65, 127
10, 33848, Note_off_c, 7, 65, 0
10, 33888, Note_on_c, 7, 65, 127
10, 33944, Note_off_c, 7, 65, 0
10, 33984, Note_on_c, 7, 62, 127
10, 34040, Note_off_c, 7, 62, 0
10, 34080, Note_on_c, 7, 65, 127
10, 34136, Note_off_c, 7, 65, 0
10, 34176, Note_on_c, 7, 65, 127
10, 34316, Note_off_c, 7, 65, 0
10, 34320, Note_on_c, 7, 67, 127
10, 34408, Note_off_c, 7, 67, 0
10, 40704, Control_c, 7, 91, 50
10, 40704, Control_c, 7, 11, 97
10, 40704, Control_c, 7, 10, 74
10, 41088, Note_on_c, 7, 63, 127
10, 41088, Note_on_c, 7, 67, 127
10, 41248, Note_off_c, 7, 67, 0
10, 41248, Note_off_c, 7, 63, 0
10, 41280, Note_on_c, 7, 62, 127
10, 41280, Note_on_c, 7, 65, 127
10, 41440, Note_off_c, 7, 65, 0
10, 41440, Note_off_c, 7, 62, 0
10, 41472, Note_on_c, 7, 65, 127
10, 41472, Note_on_c, 7, 70, 127
10, 42236, Note_off_c, 7, 70, 0
10, 42236, Note_off_c, 7, 65, 0
10, 42624, Note_on_c, 7, 63, 127
10, 42624, Note_on_c, 7, 67, 127
10, 42784, Note_off_c, 7, 67, 0
10, 42784, Note_off_c, 7, 63, 0
10, 42816, Note_on_c, 7, 62, 127
10, 42816, Note_on_c, 7, 65, 127
10, 42976, Note_off_c, 7, 65, 0
10, 42976, Note_off_c, 7, 62, 0
10, 43008, Note_on_c, 7, 67, 127
10, 43008, Note_on_c, 7, 72, 127
10, 43296, Note_off_c, 7, 72, 0
10, 43296, Note_off_c, 7, 67, 0
10, 43296, Note_on_c, 7, 65, 127
10, 43296, Note_on_c, 7, 70, 127
10, 43772, Note_off_c, 7, 70, 0
10, 43772, Note_off_c, 7, 65, 0
10, 44160, Note_on_c, 7, 63, 127
10, 44160, Note_on_c, 7, 67, 127
10, 44320, Note_off_c, 7, 67, 0
10, 44320, Note_off_c, 7, 63, 0
10, 44352, Note_on_c, 7, 62, 127
10, 44352, Note_on_c, 7, 65, 127
10, 44512, Note_off_c, 7, 65, 0
10, 44512, Note_off_c, 7, 62, 0
10, 44544, Note_on_c, 7, 65, 127
10, 44544, Note_on_c, 7, 70, 127
10, 44924, Note_off_c, 7, 70, 0
10, 44924, Note_off_c, 7, 65, 0
10, 45120, Note_on_c, 7, 65, 127
10, 45120, Note_on_c, 7, 70, 127
10, 45292, Note_off_c, 7, 70, 0
10, 45292, Note_off_c, 7, 65, 0
10, 45312, Note_on_c, 7, 70, 127
10, 45312, Note_on_c, 7, 74, 127
10, 46656, Note_off_c, 7, 70, 0
10, 46656, Note_on_c, 7, 71, 127
10, 46844, Note_off_c, 7, 74, 0
10, 46848, Note_off_c, 7, 71, 0
10, 52992, Control_c, 7, 10, 104
10, 52992, Control_c, 7, 11, 100
10, 52992, Control_c, 7, 91, 40
10, 60096, Note_on_c, 7, 53, 127
10, 60280, Note_off_c, 7, 53, 0
10, 60288, Note_on_c, 7, 46, 127
10, 60472, Note_off_c, 7, 46, 0
10, 60480, Note_on_c, 7, 60, 127
10, 60664, Note_off_c, 7, 60, 0
10, 60672, Note_on_c, 7, 58, 127
10, 61824, Control_c, 7, 11, 100
10, 61888, Control_c, 7, 11, 99
10, 61920, Control_c, 7, 11, 98
10, 61952, Control_c, 7, 11, 95
10, 61984, Control_c, 7, 11, 93
10, 62016, Control_c, 7, 11, 89
10, 62048, Control_c, 7, 11, 86
10, 62080, Control_c, 7, 11, 82
10, 62112, Control_c, 7, 11, 78
10, 62144, Control_c, 7, 11, 73
10, 62176, Control_c, 7, 11, 69
10, 62204, Note_off_c, 7, 58, 0
10, 63744, Note_on_c, 7, 65, 127
10, 63744, Control_c, 7, 11, 69
10, 63776, Control_c, 7, 11, 68
10, 63808, Control_c, 7, 11, 69
10, 63840, Control_c, 7, 11, 70
10, 63872, Control_c, 7, 11, 72
10, 63904, Control_c, 7, 11, 74
10, 63936, Control_c, 7, 11, 77
10, 63968, Control_c, 7, 11, 80
10, 64000, Control_c, 7, 11, 83
10, 64032, Control_c, 7, 11, 87
10, 64064, Control_c, 7, 11, 91
10, 64096, Control_c, 7, 11, 95
10, 64128, Note_on_c, 7, 68, 127
10, 64512, Note_off_c, 7, 68, 0
10, 64512, Note_off_c, 7, 65, 0
10, 64512, Note_on_c, 7, 67, 127
10, 65280, Note_off_c, 7, 67, 0
10, 68736, Note_on_c, 7, 60, 127
10, 68860, Note_off_c, 7, 60, 0
10, 68880, Note_on_c, 7, 60, 127
10, 68996, Note_off_c, 7, 60, 0
10, 69024, Note_on_c, 7, 58, 127
10, 69096, Note_off_c, 7, 58, 0
10, 69120, Note_on_c, 7, 62, 127
10, 69244, Note_off_c, 7, 62, 0
10, 69264, Note_on_c, 7, 62, 127
10, 69380, Note_off_c, 7, 62, 0
10, 69408, Note_on_c, 7, 60, 127
10, 69480, Note_off_c, 7, 60, 0
10, 69504, Note_on_c, 7, 58, 127
10, 69628, Note_off_c, 7, 58, 0
10, 69648, Note_on_c, 7, 60, 127
10, 69764, Note_off_c, 7, 60, 0
10, 69792, Note_on_c, 7, 62, 127
10, 69864, Note_off_c, 7, 62, 0
10, 69888, Note_on_c, 7, 62, 127
10, 70012, Note_off_c, 7, 62, 0
10, 70032, Note_on_c, 7, 62, 127
10, 70148, Note_off_c, 7, 62, 0
10, 70176, Note_on_c, 7, 62, 127
10, 70248, Note_off_c, 7, 62, 0
10, 70272, Note_on_c, 7, 62, 127
10, 70396, Note_off_c, 7, 62, 0
10, 70416, Note_on_c, 7, 60, 127
10, 70532, Note_off_c, 7, 60, 0
10, 70560, Note_on_c, 7, 62, 127
10, 70632, Note_off_c, 7, 62, 0
10, 70656, Note_on_c, 7, 59, 127
10, 71036, Note_off_c, 7, 59, 0
10, 71616, Note_on_c, 7, 63, 127
10, 71804, Note_off_c, 7, 63, 0
10, 71808, Note_on_c, 7, 60, 127
10, 71996, Note_off_c, 7, 60, 0
10, 72000, Note_on_c, 7, 68, 127
10, 72188, Note_off_c, 7, 68, 0
10, 72192, Note_on_c, 7, 65, 127
10, 72572, Note_off_c, 7, 65, 0
10, 72576, Note_on_c, 7, 67, 127
10, 72956, Note_off_c, 7, 67, 0
10, 73056, Note_on_c, 7, 67, 127
10, 73116, Note_off_c, 7, 67, 0
10, 73200, Note_on_c, 7, 67, 127
10, 73260, Note_off_c, 7, 67, 0
10, 73344, Note_on_c, 7, 68, 127
10, 73460, Note_off_c, 7, 68, 0
10, 73488, Note_on_c, 7, 68, 127
10, 73544, Note_off_c, 7, 68, 0
10, 73824, Note_on_c, 7, 65, 127
10, 73884, Note_off_c, 7, 65, 0
10, 73968, Note_on_c, 7, 65, 127
10, 74028, Note_off_c, 7, 65, 0
10, 74112, Note_on_c, 7, 67, 127
10, 74228, Note_off_c, 7, 67, 0
10, 74256, Note_on_c, 7, 67, 127
10, 74312, Note_off_c, 7, 67, 0
10, 74688, Note_on_c, 7, 67, 127
10, 74876, Note_off_c, 7, 67, 0
10, 74880, Note_on_c, 7, 63, 127
10, 75068, Note_off_c, 7, 63, 0
10, 75072, Note_on_c, 7, 72, 127
10, 75260, Note_off_c, 7, 72, 0
10, 75264, Note_on_c, 7, 70, 127
10, 75264, Pitch_bend_c, 7, 6910
10, 75268, Pitch_bend_c, 7, 7039
10, 75272, Pitch_bend_c, 7, 7167
10, 75276, Pitch_bend_c, 7, 7292
10, 75280, Pitch_bend_c, 7, 7412
10, 75284, Pitch_bend_c, 7, 7527
10, 75288, Pitch_bend_c, 7, 7635
10, 75292, Pitch_bend_c, 7, 7736
10, 75296, Pitch_bend_c, 7, 7827
10, 75300, Pitch_bend_c, 7, 7908
10, 75304, Pitch_bend_c, 7, 7978
10, 75308, Pitch_bend_c, 7, 8037
10, 75312, Pitch_bend_c, 7, 8083
10, 75316, Pitch_bend_c, 7, 8117
10, 75320, Pitch_bend_c, 7, 8137
10, 75324, Pitch_bend_c, 7, 8142
10, 75644, Note_off_c, 7, 70, 0
10, 75648, Note_on_c, 7, 70, 127
10, 75648, Pitch_bend_c, 7, 6910
10, 75652, Pitch_bend_c, 7, 7039
10, 75656, Pitch_bend_c, 7, 7167
10, 75660, Pitch_bend_c, 7, 7292
10, 75664, Pitch_bend_c, 7, 7412
10, 75668, Pitch_bend_c, 7, 7527
10, 75672, Pitch_bend_c, 7, 7635
10, 75676, Pitch_bend_c, 7, 7736
10, 75680, Pitch_bend_c, 7, 7827
10, 75684, Pitch_bend_c, 7, 7908
10, 75688, Pitch_bend_c, 7, 7978
10, 75692, Pitch_bend_c, 7, 8037
10, 75696, Pitch_bend_c, 7, 8083
10, 75700, Pitch_bend_c, 7, 8117
10, 75704, Pitch_bend_c, 7, 8137
10, 75708, Pitch_bend_c, 7, 8142
10, 76028, Note_off_c, 7, 70, 0
10, 76128, Note_on_c, 7, 67, 127
10, 76188, Note_off_c, 7, 67, 0
10, 76272, Note_on_c, 7, 67, 127
10, 76332, Note_off_c, 7, 67, 0
10, 76416, Note_on_c, 7, 68, 127
10, 76532, Note_off_c, 7, 68, 0
10, 76560, Note_on_c, 7, 68, 127
10, 76616, Note_off_c, 7, 68, 0
10, 76800, Note_on_c, 7, 65, 127
10, 76856, Note_off_c, 7, 65, 0
10, 76896, Note_on_c, 7, 65, 127
10, 76952, Note_off_c, 7, 65, 0
10, 76992, Note_on_c, 7, 62, 127
10, 77048, Note_off_c, 7, 62, 0
10, 77088, Note_on_c, 7, 65, 127
10, 77144, Note_off_c, 7, 65, 0
10, 77184, Note_on_c, 7, 65, 127
10, 77324, Note_off_c, 7, 65, 0
10, 77328, Note_on_c, 7, 67, 127
10, 77416, Note_off_c, 7, 67, 0
10, 77760, Note_on_c, 7, 67, 127
10, 77948, Note_off_c, 7, 67, 0
10, 77952, Note_on_c, 7, 63, 127
10, 78140, Note_off_c, 7, 63, 0
10, 78144, Note_on_c, 7, 72, 127
10, 78332, Note_off_c, 7, 72, 0
10, 78336, Note_on_c, 7, 70, 127
10, 78336, Pitch_bend_c, 7, 6910
10, 78340, Pitch_bend_c, 7, 7039
10, 78344, Pitch_bend_c, 7, 7167
10, 78348, Pitch_bend_c, 7, 7292
10, 78352, Pitch_bend_c, 7, 7412
10, 78356, Pitch_bend_c, 7, 7527
10, 78360, Pitch_bend_c, 7, 7635
10, 78364, Pitch_bend_c, 7, 7736
10, 78368, Pitch_bend_c, 7, 7827
10, 78372, Pitch_bend_c, 7, 7908
10, 78376, Pitch_bend_c, 7, 7978
10, 78380, Pitch_bend_c, 7, 8037
10, 78384, Pitch_bend_c, 7, 8083
10, 78388, Pitch_bend_c, 7, 8117
10, 78392, Pitch_bend_c, 7, 8137
10, 78396, Pitch_bend_c, 7, 8142
10, 78716, Note_off_c, 7, 70, 0
10, 78720, Note_on_c, 7, 70, 127
10, 78720, Pitch_bend_c, 7, 6910
10, 78724, Pitch_bend_c, 7, 7039
10, 78728, Pitch_bend_c, 7, 7167
10, 78732, Pitch_bend_c, 7, 7292
10, 78736, Pitch_bend_c, 7, 7412
10, 78740, Pitch_bend_c, 7, 7527
10, 78744, Pitch_bend_c, 7, 7635
10, 78748, Pitch_bend_c, 7, 7736
10, 78752, Pitch_bend_c, 7, 7827
10, 78756, Pitch_bend_c, 7, 7908
10, 78760, Pitch_bend_c, 7, 7978
10, 78764, Pitch_bend_c, 7, 8037
10, 78768, Pitch_bend_c, 7, 8083
10, 78772, Pitch_bend_c, 7, 8117
10, 78776, Pitch_bend_c, 7, 8137
10, 78780, Pitch_bend_c, 7, 8142
10, 79100, Note_off_c, 7, 70, 0
10, 79200, Note_on_c, 7, 67, 127
10, 79260, Note_off_c, 7, 67, 0
10, 79344, Note_on_c, 7, 67, 127
10, 79404, Note_off_c, 7, 67, 0
10, 79488, Note_on_c, 7, 68, 127
10, 79604, Note_off_c, 7, 68, 0
10, 79632, Note_on_c, 7, 68, 127
10, 79688, Note_off_c, 7, 68, 0
10, 79872, Note_on_c, 7, 65, 127
10, 79928, Note_off_c, 7, 65, 0
10, 79968, Note_on_c, 7, 65, 127
10, 80024, Note_off_c, 7, 65, 0
10, 80064, Note_on_c, 7, 62, 127
10, 80120, Note_off_c, 7, 62, 0
10, 80160, Note_on_c, 7, 65, 127
10, 80216, Note_off_c, 7, 65, 0
10, 80256, Note_on_c, 7, 65, 127
10, 80396, Note_off_c, 7, 65, 0
10, 80400, Note_on_c, 7, 67, 127
10, 80488, Note_off_c, 7, 67, 0
10, 84096, Note_on_c, 7, 60, 127
10, 84220, Note_off_c, 7, 60, 0
10, 84240, Note_on_c, 7, 60, 127
10, 84356, Note_off_c, 7, 60, 0
10, 84384, Note_on_c, 7, 58, 127
10, 84456, Note_off_c, 7, 58, 0
10, 84480, Note_on_c, 7, 62, 127
10, 84604, Note_off_c, 7, 62, 0
10, 84624, Note_on_c, 7, 62, 127
10, 84740, Note_off_c, 7, 62, 0
10, 84768, Note_on_c, 7, 60, 127
10, 84840, Note_off_c, 7, 60, 0
10, 84864, Note_on_c, 7, 58, 127
10, 84988, Note_off_c, 7, 58, 0
10, 85008, Note_on_c, 7, 60, 127
10, 85124, Note_off_c, 7, 60, 0
10, 85152, Note_on_c, 7, 62, 127
10, 85224, Note_off_c, 7, 62, 0
10, 85248, Note_on_c, 7, 62, 127
10, 85372, Note_off_c, 7, 62, 0
10, 85392, Note_on_c, 7, 62, 127
10, 85508, Note_off_c, 7, 62, 0
10, 85536, Note_on_c, 7, 62, 127
10, 85608, Note_off_c, 7, 62, 0
10, 85632, Note_on_c, 7, 62, 127
10, 85756, Note_off_c, 7, 62, 0
10, 85776, Note_on_c, 7, 60, 127
10, 85892, Note_off_c, 7, 60, 0
10, 85920, Note_on_c, 7, 62, 127
10, 85992, Note_off_c, 7, 62, 0
10, 86016, Note_on_c, 7, 59, 127
10, 86396, Note_off_c, 7, 59, 0
10, 86976, Note_on_c, 7, 63, 127
10, 87164, Note_off_c, 7, 63, 0
10, 87168, Note_on_c, 7, 60, 127
10, 87356, Note_off_c, 7, 60, 0
10, 87360, Note_on_c, 7, 68, 127
10, 87548, Note_off_c, 7, 68, 0
10, 87552, Note_on_c, 7, 65, 127
10, 87932, Note_off_c, 7, 65, 0
10, 87936, Note_on_c, 7, 67, 127
10, 88316, Note_off_c, 7, 67, 0
10, 88416, Note_on_c, 7, 67, 127
10, 88476, Note_off_c, 7, 67, 0
10, 88560, Note_on_c, 7, 67, 127
10, 88620, Note_off_c, 7, 67, 0
10, 88704, Note_on_c, 7, 68, 127
10, 88820, Note_off_c, 7, 68, 0
10, 88848, Note_on_c, 7, 68, 127
10, 88904, Note_off_c, 7, 68, 0
10, 89184, Note_on_c, 7, 65, 127
10, 89244, Note_off_c, 7, 65, 0
10, 89328, Note_on_c, 7, 65, 127
10, 89388, Note_off_c, 7, 65, 0
10, 89472, Note_on_c, 7, 67, 127
10, 89588, Note_off_c, 7, 67, 0
10, 89616, Note_on_c, 7, 67, 127
10, 89672, Note_off_c, 7, 67, 0
10, 90048, Note_on_c, 7, 67, 127
10, 90236, Note_off_c, 7, 67, 0
10, 90240, Note_on_c, 7, 63, 127
10, 90428, Note_off_c, 7, 63, 0
10, 90432, Note_on_c, 7, 72, 127
10, 90620, Note_off_c, 7, 72, 0
10, 90624, Note_on_c, 7, 70, 127
10, 90624, Pitch_bend_c, 7, 6910
10, 90628, Pitch_bend_c, 7, 7039
10, 90632, Pitch_bend_c, 7, 7167
10, 90636, Pitch_bend_c, 7, 7292
10, 90640, Pitch_bend_c, 7, 7412
10, 90644, Pitch_bend_c, 7, 7527
10, 90648, Pitch_bend_c, 7, 7635
10, 90652, Pitch_bend_c, 7, 7736
10, 90656, Pitch_bend_c, 7, 7827
10, 90660, Pitch_bend_c, 7, 7908
10, 90664, Pitch_bend_c, 7, 7978
10, 90668, Pitch_bend_c, 7, 8037
10, 90672, Pitch_bend_c, 7, 8083
10, 90676, Pitch_bend_c, 7, 8117
10, 90680, Pitch_bend_c, 7, 8137
10, 90684, Pitch_bend_c, 7, 8142
10, 91004, Note_off_c, 7, 70, 0
10, 91008, Note_on_c, 7, 70, 127
10, 91008, Pitch_bend_c, 7, 6910
10, 91012, Pitch_bend_c, 7, 7039
10, 91016, Pitch_bend_c, 7, 7167
10, 91020, Pitch_bend_c, 7, 7292
10, 91024, Pitch_bend_c, 7, 7412
10, 91028, Pitch_bend_c, 7, 7527
10, 91032, Pitch_bend_c, 7, 7635
10, 91036, Pitch_bend_c, 7, 7736
10, 91040, Pitch_bend_c, 7, 7827
10, 91044, Pitch_bend_c, 7, 7908
10, 91048, Pitch_bend_c, 7, 7978
10, 91052, Pitch_bend_c, 7, 8037
10, 91056, Pitch_bend_c, 7, 8083
10, 91060, Pitch_bend_c, 7, 8117
10, 91064, Pitch_bend_c, 7, 8137
10, 91068, Pitch_bend_c, 7, 8142
10, 91388, Note_off_c, 7, 70, 0
10, 91488, Note_on_c, 7, 67, 127
10, 91548, Note_off_c, 7, 67, 0
10, 91632, Note_on_c, 7, 67, 127
10, 91692, Note_off_c, 7, 67, 0
10, 91776, Note_on_c, 7, 68, 127
10, 91892, Note_off_c, 7, 68, 0
10, 91920, Note_on_c, 7, 68, 127
10, 91976, Note_off_c, 7, 68, 0
10, 92160, Note_on_c, 7, 65, 127
10, 92216, Note_off_c, 7, 65, 0
10, 92256, Note_on_c, 7, 65, 127
10, 92312, Note_off_c, 7, 65, 0
10, 92352, Note_on_c, 7, 62, 127
10, 92408, Note_off_c, 7, 62, 0
10, 92448, Note_on_c, 7, 65, 127
10, 92504, Note_off_c, 7, 65, 0
10, 92544, Note_on_c, 7, 65, 127
10, 92684, Note_off_c, 7, 65, 0
10, 92688, Note_on_c, 7, 67, 127
10, 92776, Note_off_c, 7, 67, 0
10, 93120, Note_on_c, 7, 67, 127
10, 93308, Note_off_c, 7, 67, 0
10, 93312, Note_on_c, 7, 63, 127
10, 93500, Note_off_c, 7, 63, 0
10, 93504, Note_on_c, 7, 72, 127
10, 93692, Note_off_c, 7, 72, 0
10, 93696, Note_on_c, 7, 70, 127
10, 93696, Pitch_bend_c, 7, 6910
10, 93700, Pitch_bend_c, 7, 7039
10, 93704, Pitch_bend_c, 7, 7167
10, 93708, Pitch_bend_c, 7, 7292
10, 93712, Pitch_bend_c, 7, 7412
10, 93716, Pitch_bend_c, 7, 7527
10, 93720, Pitch_bend_c, 7, 7635
10, 93724, Pitch_bend_c, 7, 7736
10, 93728, Pitch_bend_c, 7, 7827
10, 93732, Pitch_bend_c, 7, 7908
10, 93736, Pitch_bend_c, 7, 7978
10, 93740, Pitch_bend_c, 7, 8037
10, 93744, Pitch_bend_c, 7, 8083
10, 93748, Pitch_bend_c, 7, 8117
10, 93752, Pitch_bend_c, 7, 8137
10, 93756, Pitch_bend_c, 7, 8142
10, 94076, Note_off_c, 7, 70, 0
10, 94080, Note_on_c, 7, 70, 127
10, 94080, Pitch_bend_c, 7, 6910
10, 94084, Pitch_bend_c, 7, 7039
10, 94088, Pitch_bend_c, 7, 7167
10, 94092, Pitch_bend_c, 7, 7292
10, 94096, Pitch_bend_c, 7, 7412
10, 94100, Pitch_bend_c, 7, 7527
10, 94104, Pitch_bend_c, 7, 7635
10, 94108, Pitch_bend_c, 7, 7736
10, 94112, Pitch_bend_c, 7, 7827
10, 94116, Pitch_bend_c, 7, 7908
10, 94120, Pitch_bend_c, 7, 7978
10, 94124, Pitch_bend_c, 7, 8037
10, 94128, Pitch_bend_c, 7, 8083
10, 94132, Pitch_bend_c, 7, 8117
10, 94136, Pitch_bend_c, 7, 8137
10, 94140, Pitch_bend_c, 7, 8142
10, 94460, Note_off_c, 7, 70, 0
10, 94560, Note_on_c, 7, 67, 127
10, 94620, Note_off_c, 7, 67, 0
10, 94704, Note_on_c, 7, 67, 127
10, 94764, Note_off_c, 7, 67, 0
10, 94848, Note_on_c, 7, 68, 127
10, 94964, Note_off_c, 7, 68, 0
10, 94992, Note_on_c, 7, 68, 127
10, 95048, Note_off_c, 7, 68, 0
10, 95232, Note_on_c, 7, 65, 127
10, 95288, Note_off_c, 7, 65, 0
10, 95328, Note_on_c, 7, 65, 127
10, 95384, Note_off_c, 7, 65, 0
10, 95424, Note_on_c, 7, 62, 127
10, 95480, Note_off_c, 7, 62, 0
10, 95520, Note_on_c, 7, 65, 127
10, 95576, Note_off_c, 7, 65, 0
10, 95616, Note_on_c, 7, 65, 127
10, 95756, Note_off_c, 7, 65, 0
10, 95760, Note_on_c, 7, 67, 127
10, 95848, Note_off_c, 7, 67, 0
10, 95848, End_track
11, 0, Start_track
11, 0, Title_t, "Long"
11, 0, Channel_prefix, 8
11, 0, Control_c, 8, 7, 100
11, 0, Program_c, 8, 52
11, 0, Control_c, 8, 0, 0
11, 25344, Pitch_bend_c, 8, 8142
11, 25344, Control_c, 8, 1, 45
11, 25536, Note_on_c, 8, 60, 127
11, 25724, Note_off_c, 8, 60, 0
11, 25728, Note_on_c, 8, 56, 127
11, 25916, Note_off_c, 8, 56, 0
11, 25920, Note_on_c, 8, 63, 127
11, 26108, Note_off_c, 8, 63, 0
11, 26112, Note_on_c, 8, 62, 127
11, 26492, Note_off_c, 8, 62, 0
11, 26496, Note_on_c, 8, 63, 127
11, 26876, Note_off_c, 8, 63, 0
11, 26976, Note_on_c, 8, 63, 127
11, 27036, Note_off_c, 8, 63, 0
11, 27120, Note_on_c, 8, 63, 127
11, 27180, Note_off_c, 8, 63, 0
11, 27264, Note_on_c, 8, 65, 127
11, 27380, Note_off_c, 8, 65, 0
11, 27408, Note_on_c, 8, 65, 127
11, 27464, Note_off_c, 8, 65, 0
11, 27744, Note_on_c, 8, 62, 127
11, 27804, Note_off_c, 8, 62, 0
11, 27888, Note_on_c, 8, 62, 127
11, 27948, Note_off_c, 8, 62, 0
11, 28032, Note_on_c, 8, 63, 127
11, 28148, Note_off_c, 8, 63, 0
11, 28176, Note_on_c, 8, 63, 127
11, 28232, Note_off_c, 8, 63, 0
11, 28608, Note_on_c, 8, 63, 127
11, 28796, Note_off_c, 8, 63, 0
11, 28800, Note_on_c, 8, 60, 127
11, 28988, Note_off_c, 8, 60, 0
11, 28992, Note_on_c, 8, 67, 127
11, 29180, Note_off_c, 8, 67, 0
11, 29184, Note_on_c, 8, 65, 127
11, 29564, Note_off_c, 8, 65, 0
11, 29568, Note_on_c, 8, 67, 127
11, 29948, Note_off_c, 8, 67, 0
11, 30048, Note_on_c, 8, 63, 127
11, 30108, Note_off_c, 8, 63, 0
11, 30192, Note_on_c, 8, 63, 127
11, 30252, Note_off_c, 8, 63, 0
11, 30336, Note_on_c, 8, 65, 127
11, 30452, Note_off_c, 8, 65, 0
11, 30480, Note_on_c, 8, 65, 127
11, 30536, Note_off_c, 8, 65, 0
11, 30720, Note_on_c, 8, 62, 127
11, 30776, Note_off_c, 8, 62, 0
11, 30816, Note_on_c, 8, 62, 127
11, 30872, Note_off_c, 8, 62, 0
11, 30912, Note_on_c, 8, 58, 127
11, 30968, Note_off_c, 8, 58, 0
11, 31008, Note_on_c, 8, 62, 127
11, 31064, Note_off_c, 8, 62, 0
11, 31104, Note_on_c, 8, 62, 127
11, 31244, Note_off_c, 8, 62, 0
11, 31248, Note_on_c, 8, 63, 127
11, 31336, Note_off_c, 8, 63, 0
11, 31680, Note_on_c, 8, 63, 127
11, 31868, Note_off_c, 8, 63, 0
11, 31872, Note_on_c, 8, 60, 127
11, 32060, Note_off_c, 8, 60, 0
11, 32064, Note_on_c, 8, 67, 127
11, 32252, Note_off_c, 8, 67, 0
11, 32256, Note_on_c, 8, 65, 127
11, 32636, Note_off_c, 8, 65, 0
11, 32640, Note_on_c, 8, 67, 127
11, 33020, Note_off_c, 8, 67, 0
11, 33120, Note_on_c, 8, 63, 127
11, 33180, Note_off_c, 8, 63, 0
11, 33264, Note_on_c, 8, 63, 127
11, 33324, Note_off_c, 8, 63, 0
11, 33408, Note_on_c, 8, 65, 127
11, 33524, Note_off_c, 8, 65, 0
11, 33552, Note_on_c, 8, 65, 127
11, 33608, Note_off_c, 8, 65, 0
11, 33792, Note_on_c, 8, 62, 127
11, 33848, Note_off_c, 8, 62, 0
11, 33888, Note_on_c, 8, 62, 127
11, 33944, Note_off_c, 8, 62, 0
11, 33984, Note_on_c, 8, 58, 127
11, 34040, Note_off_c, 8, 58, 0
11, 34080, Note_on_c, 8, 62, 127
11, 34136, Note_off_c, 8, 62, 0
11, 34176, Note_on_c, 8, 62, 127
11, 34316, Note_off_c, 8, 62, 0
11, 34320, Note_on_c, 8, 63, 127
11, 34408, Note_off_c, 8, 63, 0
11, 71616, Note_on_c, 8, 60, 127
11, 71804, Note_off_c, 8, 60, 0
11, 71808, Note_on_c, 8, 56, 127
11, 71996, Note_off_c, 8, 56, 0
11, 72000, Note_on_c, 8, 63, 127
11, 72188, Note_off_c, 8, 63, 0
11, 72192, Note_on_c, 8, 62, 127
11, 72572, Note_off_c, 8, 62, 0
11, 72576, Note_on_c, 8, 63, 127
11, 72956, Note_off_c, 8, 63, 0
11, 73056, Note_on_c, 8, 63, 127
11, 73116, Note_off_c, 8, 63, 0
11, 73200, Note_on_c, 8, 63, 127
11, 73260, Note_off_c, 8, 63, 0
11, 73344, Note_on_c, 8, 65, 127
11, 73460, Note_off_c, 8, 65, 0
11, 73488, Note_on_c, 8, 65, 127
11, 73544, Note_off_c, 8, 65, 0
11, 73824, Note_on_c, 8, 62, 127
11, 73884, Note_off_c, 8, 62, 0
11, 73968, Note_on_c, 8, 62, 127
11, 74028, Note_off_c, 8, 62, 0
11, 74112, Note_on_c, 8, 63, 127
11, 74228, Note_off_c, 8, 63, 0
11, 74256, Note_on_c, 8, 63, 127
11, 74312, Note_off_c, 8, 63, 0
11, 74688, Note_on_c, 8, 63, 127
11, 74876, Note_off_c, 8, 63, 0
11, 74880, Note_on_c, 8, 60, 127
11, 75068, Note_off_c, 8, 60, 0
11, 75072, Note_on_c, 8, 67, 127
11, 75260, Note_off_c, 8, 67, 0
11, 75264, Note_on_c, 8, 65, 127
11, 75644, Note_off_c, 8, 65, 0
11, 75648, Note_on_c, 8, 67, 127
11, 76028, Note_off_c, 8, 67, 0
11, 76128, Note_on_c, 8, 63, 127
11, 76188, Note_off_c, 8, 63, 0
11, 76272, Note_on_c, 8, 63, 127
11, 76332, Note_off_c, 8, 63, 0
11, 76416, Note_on_c, 8, 65, 127
11, 76532, Note_off_c, 8, 65, 0
11, 76560, Note_on_c, 8, 65, 127
11, 76616, Note_off_c, 8, 65, 0
11, 76800, Note_on_c, 8, 62, 127
11, 76856, Note_off_c, 8, 62, 0
11, 76896, Note_on_c, 8, 62, 127
11, 76952, Note_off_c, 8, 62, 0
11, 76992, Note_on_c, 8, 58, 127
11, 77048, Note_off_c, 8, 58, 0
11, 77088, Note_on_c, 8, 62, 127
11, 77144, Note_off_c, 8, 62, 0
11, 77184, Note_on_c, 8, 62, 127
11, 77324, Note_off_c, 8, 62, 0
11, 77328, Note_on_c, 8, 63, 127
11, 77416, Note_off_c, 8, 63, 0
11, 77760, Note_on_c, 8, 63, 127
11, 77948, Note_off_c, 8, 63, 0
11, 77952, Note_on_c, 8, 60, 127
11, 78140, Note_off_c, 8, 60, 0
11, 78144, Note_on_c, 8, 67, 127
11, 78332, Note_off_c, 8, 67, 0
11, 78336, Note_on_c, 8, 65, 127
11, 78716, Note_off_c, 8, 65, 0
11, 78720, Note_on_c, 8, 67, 127
11, 79100, Note_off_c, 8, 67, 0
11, 79200, Note_on_c, 8, 63, 127
11, 79260, Note_off_c, 8, 63, 0
11, 79344, Note_on_c, 8, 63, 127
11, 79404, Note_off_c, 8, 63, 0
11, 79488, Note_on_c, 8, 65, 127
11, 79604, Note_off_c, 8, 65, 0
11, 79632, Note_on_c, 8, 65, 127
11, 79688, Note_off_c, 8, 65, 0
11, 79872, Note_on_c, 8, 62, 127
11, 79928, Note_off_c, 8, 62, 0
11, 79968, Note_on_c, 8, 62, 127
11, 80024, Note_off_c, 8, 62, 0
11, 80064, Note_on_c, 8, 58, 127
11, 80120, Note_off_c, 8, 58, 0
11, 80160, Note_on_c, 8, 62, 127
11, 80216, Note_off_c, 8, 62, 0
11, 80256, Note_on_c, 8, 62, 127
11, 80396, Note_off_c, 8, 62, 0
11, 80400, Note_on_c, 8, 63, 127
11, 80488, Note_off_c, 8, 63, 0
11, 86976, Note_on_c, 8, 60, 127
11, 87164, Note_off_c, 8, 60, 0
11, 87168, Note_on_c, 8, 56, 127
11, 87356, Note_off_c, 8, 56, 0
11, 87360, Note_on_c, 8, 63, 127
11, 87548, Note_off_c, 8, 63, 0
11, 87552, Note_on_c, 8, 62, 127
11, 87932, Note_off_c, 8, 62, 0
11, 87936, Note_on_c, 8, 63, 127
11, 88316, Note_off_c, 8, 63, 0
11, 88416, Note_on_c, 8, 63, 127
11, 88476, Note_off_c, 8, 63, 0
11, 88560, Note_on_c, 8, 63, 127
11, 88620, Note_off_c, 8, 63, 0
11, 88704, Note_on_c, 8, 65, 127
11, 88820, Note_off_c, 8, 65, 0
11, 88848, Note_on_c, 8, 65, 127
11, 88904, Note_off_c, 8, 65, 0
11, 89184, Note_on_c, 8, 62, 127
11, 89244, Note_off_c, 8, 62, 0
11, 89328, Note_on_c, 8, 62, 127
11, 89388, Note_off_c, 8, 62, 0
11, 89472, Note_on_c, 8, 63, 127
11, 89588, Note_off_c, 8, 63, 0
11, 89616, Note_on_c, 8, 63, 127
11, 89672, Note_off_c, 8, 63, 0
11, 90048, Note_on_c, 8, 63, 127
11, 90236, Note_off_c, 8, 63, 0
11, 90240, Note_on_c, 8, 60, 127
11, 90428, Note_off_c, 8, 60, 0
11, 90432, Note_on_c, 8, 67, 127
11, 90620, Note_off_c, 8, 67, 0
11, 90624, Note_on_c, 8, 65, 127
11, 91004, Note_off_c, 8, 65, 0
11, 91008, Note_on_c, 8, 67, 127
11, 91388, Note_off_c, 8, 67, 0
11, 91488, Note_on_c, 8, 63, 127
11, 91548, Note_off_c, 8, 63, 0
11, 91632, Note_on_c, 8, 63, 127
11, 91692, Note_off_c, 8, 63, 0
11, 91776, Note_on_c, 8, 65, 127
11, 91892, Note_off_c, 8, 65, 0
11, 91920, Note_on_c, 8, 65, 127
11, 91976, Note_off_c, 8, 65, 0
11, 92160, Note_on_c, 8, 62, 127
11, 92216, Note_off_c, 8, 62, 0
11, 92256, Note_on_c, 8, 62, 127
11, 92312, Note_off_c, 8, 62, 0
11, 92352, Note_on_c, 8, 58, 127
11, 92408, Note_off_c, 8, 58, 0
11, 92448, Note_on_c, 8, 62, 127
11, 92504, Note_off_c, 8, 62, 0
11, 92544, Note_on_c, 8, 62, 127
11, 92684, Note_off_c, 8, 62, 0
11, 92688, Note_on_c, 8, 63, 127
11, 92776, Note_off_c, 8, 63, 0
11, 93120, Note_on_c, 8, 63, 127
11, 93308, Note_off_c, 8, 63, 0
11, 93312, Note_on_c, 8, 60, 127
11, 93500, Note_off_c, 8, 60, 0
11, 93504, Note_on_c, 8, 67, 127
11, 93692, Note_off_c, 8, 67, 0
11, 93696, Note_on_c, 8, 65, 127
11, 94076, Note_off_c, 8, 65, 0
11, 94080, Note_on_c, 8, 67, 127
11, 94460, Note_off_c, 8, 67, 0
11, 94560, Note_on_c, 8, 63, 127
11, 94620, Note_off_c, 8, 63, 0
11, 94704, Note_on_c, 8, 63, 127
11, 94764, Note_off_c, 8, 63, 0
11, 94848, Note_on_c, 8, 65, 127
11, 94964, Note_off_c, 8, 65, 0
11, 94992, Note_on_c, 8, 65, 127
11, 95048, Note_off_c, 8, 65, 0
11, 95232, Note_on_c, 8, 62, 127
11, 95288, Note_off_c, 8, 62, 0
11, 95328, Note_on_c, 8, 62, 127
11, 95384, Note_off_c, 8, 62, 0
11, 95424, Note_on_c, 8, 58, 127
11, 95480, Note_off_c, 8, 58, 0
11, 95520, Note_on_c, 8, 62, 127
11, 95576, Note_off_c, 8, 62, 0
11, 95616, Note_on_c, 8, 62, 127
11, 95756, Note_off_c, 8, 62, 0
11, 95760, Note_on_c, 8, 63, 127
11, 95848, Note_off_c, 8, 63, 0
11, 95848, End_track
12, 0, Start_track
12, 0, Title_t, "tedious"
12, 0, Channel_prefix, 9
12, 0, Control_c, 9, 7, 100
12, 0, Program_c, 9, 117
12, 0, Control_c, 9, 0, 0
12, 3452, Note_on_c, 9, 45, 99
12, 3456, Note_off_c, 9, 45, 0
12, 3468, Note_on_c, 9, 45, 99
12, 3472, Note_off_c, 9, 45, 0
12, 3500, Note_on_c, 9, 45, 99
12, 3504, Note_off_c, 9, 45, 0
12, 3548, Note_on_c, 9, 45, 99
12, 3552, Note_off_c, 9, 45, 0
12, 3596, Note_on_c, 9, 45, 99
12, 3600, Note_off_c, 9, 45, 0
12, 3644, Note_on_c, 9, 43, 99
12, 3648, Note_off_c, 9, 43, 0
12, 3740, Note_on_c, 9, 43, 99
12, 3744, Note_off_c, 9, 43, 0
12, 3788, Note_on_c, 9, 43, 99
12, 3792, Note_off_c, 9, 43, 0
12, 3836, Note_on_c, 9, 36, 120
12, 3840, Note_off_c, 9, 36, 0
12, 4028, Note_on_c, 9, 36, 120
12, 4028, Note_on_c, 9, 38, 127
12, 4028, Note_on_c, 9, 40, 115
12, 4032, Note_off_c, 9, 40, 0
12, 4032, Note_off_c, 9, 38, 0
12, 4032, Note_off_c, 9, 36, 0
12, 4172, Note_on_c, 9, 38, 107
12, 4172, Note_on_c, 9, 40, 95
12, 4176, Note_off_c, 9, 40, 0
12, 4176, Note_off_c, 9, 38, 0
12, 4220, Note_on_c, 9, 36, 120
12, 4224, Note_off_c, 9, 36, 0
12, 4412, Note_on_c, 9, 36, 120
12, 4412, Note_on_c, 9, 38, 127
12, 4412, Note_on_c, 9, 40, 115
12, 4416, Note_off_c, 9, 40, 0
12, 4416, Note_off_c, 9, 38, 0
12, 4416, Note_off_c, 9, 36, 0
12, 4604, Note_on_c, 9, 36, 120
12, 4608, Note_off_c, 9, 36, 0
12, 4796, Note_on_c, 9, 36, 120
12, 4796, Note_on_c, 9, 38, 127
12, 4796, Note_on_c, 9, 40, 115
12, 4800, Note_off_c, 9, 40, 0
12, 4800, Note_off_c, 9, 38, 0
12, 4800, Note_off_c, 9, 36, 0
12, 4988, Note_on_c, 9, 36, 120
12, 4992, Note_off_c, 9, 36, 0
12, 5180, Note_on_c, 9, 36, 120
12, 5180, Note_on_c, 9, 38, 127
12, 5180, Note_on_c, 9, 40, 115
12, 5184, Note_off_c, 9, 40, 0
12, 5184, Note_off_c, 9, 38, 0
12, 5184, Note_off_c, 9, 36, 0
12, 5372, Note_on_c, 9, 36, 120
12, 5376, Note_off_c, 9, 36, 0
12, 5564, Note_on_c, 9, 36, 120
12, 5564, Note_on_c, 9, 38, 127
12, 5564, Note_on_c, 9, 40, 115
12, 5568, Note_off_c, 9, 40, 0
12, 5568, Note_off_c, 9, 38, 0
12, 5568, Note_off_c, 9, 36, 0
12, 5708, Note_on_c, 9, 38, 107
12, 5708, Note_on_c, 9, 40, 95
12, 5712, Note_off_c, 9, 40, 0
12, 5712, Note_off_c, 9, 38, 0
12, 5756, Note_on_c, 9, 36, 99
12, 5760, Note_off_c, 9, 36, 0
12, 5948, Note_on_c, 9, 36, 99
12, 5948, Note_on_c, 9, 38, 127
12, 5948, Note_on_c, 9, 40, 115
12, 5952, Note_off_c, 9, 40, 0
12, 5952, Note_off_c, 9, 38, 0
12, 5952, Note_off_c, 9, 36, 0
12, 6140, Note_on_c, 9, 36, 120
12, 6140, Note_on_c, 9, 38, 127
12, 6140, Note_on_c, 9, 40, 115
12, 6144, Note_off_c, 9, 40, 0
12, 6144, Note_off_c, 9, 38, 0
12, 6144, Note_off_c, 9, 36, 0
12, 6236, Note_on_c, 9, 38, 127
12, 6236, Note_on_c, 9, 40, 115
12, 6240, Note_off_c, 9, 40, 0
12, 6240, Note_off_c, 9, 38, 0
12, 6332, Note_on_c, 9, 36, 120
12, 6332, Note_on_c, 9, 38, 127
12, 6332, Note_on_c, 9, 40, 115
12, 6336, Note_off_c, 9, 40, 0
12, 6336, Note_off_c, 9, 38, 0
12, 6336, Note_off_c, 9, 36, 0
12, 6428, Note_on_c, 9, 38, 127
12, 6428, Note_on_c, 9, 40, 115
12, 6432, Note_off_c, 9, 40, 0
12, 6432, Note_off_c, 9, 38, 0
12, 6524, Note_on_c, 9, 36, 120
12, 6524, Note_on_c, 9, 38, 127
12, 6524, Note_on_c, 9, 40, 115
12, 6528, Note_off_c, 9, 40, 0
12, 6528, Note_off_c, 9, 38, 0
12, 6528, Note_off_c, 9, 36, 0
12, 6572, Note_on_c, 9, 38, 127
12, 6572, Note_on_c, 9, 40, 115
12, 6576, Note_off_c, 9, 40, 0
12, 6576, Note_off_c, 9, 38, 0
12, 6620, Note_on_c, 9, 38, 127
12, 6620, Note_on_c, 9, 40, 115
12, 6624, Note_off_c, 9, 40, 0
12, 6624, Note_off_c, 9, 38, 0
12, 6668, Note_on_c, 9, 38, 127
12, 6668, Note_on_c, 9, 40, 115
12, 6672, Note_off_c, 9, 40, 0
12, 6672, Note_off_c, 9, 38, 0
12, 6716, Note_on_c, 9, 36, 120
12, 6716, Note_on_c, 9, 38, 127
12, 6716, Note_on_c, 9, 40, 115
12, 6716, Note_on_c, 9, 47, 99
12, 6720, Note_off_c, 9, 47, 0
12, 6720, Note_off_c, 9, 40, 0
12, 6720, Note_off_c, 9, 38, 0
12, 6720, Note_off_c, 9, 36, 0
12, 6764, Note_on_c, 9, 45, 99
12, 6768, Note_off_c, 9, 45, 0
12, 6812, Note_on_c, 9, 43, 99
12, 6816, Note_off_c, 9, 43, 0
12, 6860, Note_on_c, 9, 41, 99
12, 6864, Note_off_c, 9, 41, 0
12, 6908, Note_on_c, 9, 36, 120
12, 6912, Note_off_c, 9, 36, 0
12, 7100, Note_on_c, 9, 36, 120
12, 7104, Note_off_c, 9, 36, 0
12, 7292, Note_on_c, 9, 36, 120
12, 7296, Note_off_c, 9, 36, 0
12, 7484, Note_on_c, 9, 36, 120
12, 7488, Note_off_c, 9, 36, 0
12, 7676, Note_on_c, 9, 36, 120
12, 7680, Note_off_c, 9, 36, 0
12, 7868, Note_on_c, 9, 36, 120
12, 7872, Note_off_c, 9, 36, 0
12, 8060, Note_on_c, 9, 36, 120
12, 8064, Note_off_c, 9, 36, 0
12, 8252, Note_on_c, 9, 36, 120
12, 8256, Note_off_c, 9, 36, 0
12, 8444, Note_on_c, 9, 36, 120
12, 8448, Note_off_c, 9, 36, 0
12, 8636, Note_on_c, 9, 36, 120
12, 8640, Note_off_c, 9, 36, 0
12, 8828, Note_on_c, 9, 36, 120
12, 8832, Note_off_c, 9, 36, 0
12, 9020, Note_on_c, 9, 36, 120
12, 9024, Note_off_c, 9, 36, 0
12, 9212, Note_on_c, 9, 36, 120
12, 9216, Note_off_c, 9, 36, 0
12, 9404, Note_on_c, 9, 36, 120
12, 9408, Note_off_c, 9, 36, 0
12, 9596, Note_on_c, 9, 36, 120
12, 9600, Note_off_c, 9, 36, 0
12, 9788, Note_on_c, 9, 36, 120
12, 9792, Note_off_c, 9, 36, 0
12, 9980, Note_on_c, 9, 36, 120
12, 9984, Note_off_c, 9, 36, 0
12, 10172, Note_on_c, 9, 36, 120
12, 10176, Note_off_c, 9, 36, 0
12, 10364, Note_on_c, 9, 36, 120
12, 10368, Note_off_c, 9, 36, 0
12, 10556, Note_on_c, 9, 36, 120
12, 10560, Note_off_c, 9, 36, 0
12, 10748, Note_on_c, 9, 36, 120
12, 10752, Note_off_c, 9, 36, 0
12, 10940, Note_on_c, 9, 36, 120
12, 10944, Note_off_c, 9, 36, 0
12, 11132, Note_on_c, 9, 36, 120
12, 11136, Note_off_c, 9, 36, 0
12, 11324, Note_on_c, 9, 36, 120
12, 11328, Note_off_c, 9, 36, 0
12, 11516, Note_on_c, 9, 36, 120
12, 11520, Note_off_c, 9, 36, 0
12, 11708, Note_on_c, 9, 36, 120
12, 11712, Note_off_c, 9, 36, 0
12, 11900, Note_on_c, 9, 36, 120
12, 11904, Note_off_c, 9, 36, 0
12, 12092, Note_on_c, 9, 36, 120
12, 12096, Note_off_c, 9, 36, 0
12, 12284, Note_on_c, 9, 36, 120
12, 12288, Note_off_c, 9, 36, 0
12, 12476, Note_on_c, 9, 36, 120
12, 12480, Note_off_c, 9, 36, 0
12, 12668, Note_on_c, 9, 36, 120
12, 12672, Note_off_c, 9, 36, 0
12, 12860, Note_on_c, 9, 36, 120
12, 12864, Note_off_c, 9, 36, 0
12, 12956, Note_on_c, 9, 41, 99
12, 12960, Note_off_c, 9, 41, 0
12, 13004, Note_on_c, 9, 41, 99
12, 13008, Note_off_c, 9, 41, 0
12, 13052, Note_on_c, 9, 36, 120
12, 13056, Note_off_c, 9, 36, 0
12, 13244, Note_on_c, 9, 36, 120
12, 13248, Note_off_c, 9, 36, 0
12, 13436, Note_on_c, 9, 36, 120
12, 13440, Note_off_c, 9, 36, 0
12, 13628, Note_on_c, 9, 36, 120
12, 13632, Note_off_c, 9, 36, 0
12, 13820, Note_on_c, 9, 36, 120
12, 13824, Note_off_c, 9, 36, 0
12, 14012, Note_on_c, 9, 36, 120
12, 14016, Note_off_c, 9, 36, 0
12, 14204, Note_on_c, 9, 36, 120
12, 14208, Note_off_c, 9, 36, 0
12, 14396, Note_on_c, 9, 36, 120
12, 14400, Note_off_c, 9, 36, 0
12, 14588, Note_on_c, 9, 36, 120
12, 14592, Note_off_c, 9, 36, 0
12, 14780, Note_on_c, 9, 36, 120
12, 14784, Note_off_c, 9, 36, 0
12, 14972, Note_on_c, 9, 36, 120
12, 14976, Note_off_c, 9, 36, 0
12, 15164, Note_on_c, 9, 36, 120
12, 15168, Note_off_c, 9, 36, 0
12, 15356, Note_on_c, 9, 36, 120
12, 15360, Note_off_c, 9, 36, 0
12, 15548, Note_on_c, 9, 36, 120
12, 15552, Note_off_c, 9, 36, 0
12, 15740, Note_on_c, 9, 36, 120
12, 15744, Note_off_c, 9, 36, 0
12, 15932, Note_on_c, 9, 36, 120
12, 15936, Note_off_c, 9, 36, 0
12, 16124, Note_on_c, 9, 36, 120
12, 16128, Note_off_c, 9, 36, 0
12, 16316, Note_on_c, 9, 36, 120
12, 16320, Note_off_c, 9, 36, 0
12, 16508, Note_on_c, 9, 36, 120
12, 16512, Note_off_c, 9, 36, 0
12, 16700, Note_on_c, 9, 36, 120
12, 16704, Note_off_c, 9, 36, 0
12, 16892, Note_on_c, 9, 36, 120
12, 16896, Note_off_c, 9, 36, 0
12, 17084, Note_on_c, 9, 36, 120
12, 17088, Note_off_c, 9, 36, 0
12, 17276, Note_on_c, 9, 36, 120
12, 17280, Note_off_c, 9, 36, 0
12, 17468, Note_on_c, 9, 36, 120
12, 17472, Note_off_c, 9, 36, 0
12, 17660, Note_on_c, 9, 36, 120
12, 17664, Note_off_c, 9, 36, 0
12, 17852, Note_on_c, 9, 36, 120
12, 17856, Note_off_c, 9, 36, 0
12, 18044, Note_on_c, 9, 36, 120
12, 18048, Note_off_c, 9, 36, 0
12, 18236, Note_on_c, 9, 36, 120
12, 18240, Note_off_c, 9, 36, 0
12, 18428, Note_on_c, 9, 36, 120
12, 18428, Note_on_c, 9, 38, 127
12, 18428, Note_on_c, 9, 40, 115
12, 18432, Note_off_c, 9, 40, 0
12, 18432, Note_off_c, 9, 38, 0
12, 18432, Note_off_c, 9, 36, 0
12, 18620, Note_on_c, 9, 36, 120
12, 18620, Note_on_c, 9, 38, 127
12, 18620, Note_on_c, 9, 40, 115
12, 18624, Note_off_c, 9, 40, 0
12, 18624, Note_off_c, 9, 38, 0
12, 18624, Note_off_c, 9, 36, 0
12, 18812, Note_on_c, 9, 36, 120
12, 18812, Note_on_c, 9, 38, 127
12, 18812, Note_on_c, 9, 40, 115
12, 18816, Note_off_c, 9, 40, 0
12, 18816, Note_off_c, 9, 38, 0
12, 18816, Note_off_c, 9, 36, 0
12, 19004, Note_on_c, 9, 36, 120
12, 19004, Note_on_c, 9, 38, 127
12, 19004, Note_on_c, 9, 40, 115
12, 19008, Note_off_c, 9, 40, 0
12, 19008, Note_off_c, 9, 38, 0
12, 19008, Note_off_c, 9, 36, 0
12, 19100, Note_on_c, 9, 38, 127
12, 19100, Note_on_c, 9, 40, 115
12, 19104, Note_off_c, 9, 40, 0
12, 19104, Note_off_c, 9, 38, 0
12, 19148, Note_on_c, 9, 38, 127
12, 19148, Note_on_c, 9, 40, 115
12, 19152, Note_off_c, 9, 40, 0
12, 19152, Note_off_c, 9, 38, 0
12, 19196, Note_on_c, 9, 36, 120
12, 19200, Note_off_c, 9, 36, 0
12, 19388, Note_on_c, 9, 36, 120
12, 19388, Note_on_c, 9, 38, 127
12, 19388, Note_on_c, 9, 40, 115
12, 19392, Note_off_c, 9, 40, 0
12, 19392, Note_off_c, 9, 38, 0
12, 19392, Note_off_c, 9, 36, 0
12, 19532, Note_on_c, 9, 38, 107
12, 19532, Note_on_c, 9, 40, 95
12, 19536, Note_off_c, 9, 40, 0
12, 19536, Note_off_c, 9, 38, 0
12, 19580, Note_on_c, 9, 36, 120
12, 19584, Note_off_c, 9, 36, 0
12, 19772, Note_on_c, 9, 36, 120
12, 19772, Note_on_c, 9, 38, 127
12, 19772, Note_on_c, 9, 40, 115
12, 19776, Note_off_c, 9, 40, 0
12, 19776, Note_off_c, 9, 38, 0
12, 19776, Note_off_c, 9, 36, 0
12, 19964, Note_on_c, 9, 36, 120
12, 19968, Note_off_c, 9, 36, 0
12, 20156, Note_on_c, 9, 36, 120
12, 20156, Note_on_c, 9, 38, 127
12, 20156, Note_on_c, 9, 40, 115
12, 20160, Note_off_c, 9, 40, 0
12, 20160, Note_off_c, 9, 38, 0
12, 20160, Note_off_c, 9, 36, 0
12, 20300, Note_on_c, 9, 38, 107
12, 20300, Note_on_c, 9, 40, 95
12, 20304, Note_off_c, 9, 40, 0
12, 20304, Note_off_c, 9, 38, 0
12, 20348, Note_on_c, 9, 36, 120
12, 20352, Note_off_c, 9, 36, 0
12, 20540, Note_on_c, 9, 36, 120
12, 20540, Note_on_c, 9, 38, 127
12, 20540, Note_on_c, 9, 40, 115
12, 20544, Note_off_c, 9, 40, 0
12, 20544, Note_off_c, 9, 38, 0
12, 20544, Note_off_c, 9, 36, 0
12, 20732, Note_on_c, 9, 36, 120
12, 20736, Note_off_c, 9, 36, 0
12, 20924, Note_on_c, 9, 36, 120
12, 20924, Note_on_c, 9, 38, 127
12, 20924, Note_on_c, 9, 40, 115
12, 20928, Note_off_c, 9, 40, 0
12, 20928, Note_off_c, 9, 38, 0
12, 20928, Note_off_c, 9, 36, 0
12, 21116, Note_on_c, 9, 36, 120
12, 21120, Note_off_c, 9, 36, 0
12, 21308, Note_on_c, 9, 36, 120
12, 21308, Note_on_c, 9, 38, 127
12, 21308, Note_on_c, 9, 40, 115
12, 21312, Note_off_c, 9, 40, 0
12, 21312, Note_off_c, 9, 38, 0
12, 21312, Note_off_c, 9, 36, 0
12, 21500, Note_on_c, 9, 36, 120
12, 21504, Note_off_c, 9, 36, 0
12, 21692, Note_on_c, 9, 36, 120
12, 21692, Note_on_c, 9, 38, 127
12, 21692, Note_on_c, 9, 40, 115
12, 21696, Note_off_c, 9, 40, 0
12, 21696, Note_off_c, 9, 38, 0
12, 21696, Note_off_c, 9, 36, 0
12, 21836, Note_on_c, 9, 38, 107
12, 21836, Note_on_c, 9, 40, 95
12, 21840, Note_off_c, 9, 40, 0
12, 21840, Note_off_c, 9, 38, 0
12, 21884, Note_on_c, 9, 36, 120
12, 21888, Note_off_c, 9, 36, 0
12, 22076, Note_on_c, 9, 36, 120
12, 22076, Note_on_c, 9, 38, 127
12, 22076, Note_on_c, 9, 40, 115
12, 22080, Note_off_c, 9, 40, 0
12, 22080, Note_off_c, 9, 38, 0
12, 22080, Note_off_c, 9, 36, 0
12, 22220, Note_on_c, 9, 38, 107
12, 22220, Note_on_c, 9, 40, 95
12, 22224, Note_off_c, 9, 40, 0
12, 22224, Note_off_c, 9, 38, 0
12, 22268, Note_on_c, 9, 36, 120
12, 22272, Note_off_c, 9, 36, 0
12, 22460, Note_on_c, 9, 36, 120
12, 22460, Note_on_c, 9, 38, 127
12, 22460, Note_on_c, 9, 40, 115
12, 22464, Note_off_c, 9, 40, 0
12, 22464, Note_off_c, 9, 38, 0
12, 22464, Note_off_c, 9, 36, 0
12, 22604, Note_on_c, 9, 38, 107
12, 22604, Note_on_c, 9, 40, 95
12, 22608, Note_off_c, 9, 40, 0
12, 22608, Note_off_c, 9, 38, 0
12, 22652, Note_on_c, 9, 36, 120
12, 22656, Note_off_c, 9, 36, 0
12, 22844, Note_on_c, 9, 36, 120
12, 22844, Note_on_c, 9, 38, 127
12, 22844, Note_on_c, 9, 40, 115
12, 22848, Note_off_c, 9, 40, 0
12, 22848, Note_off_c, 9, 38, 0
12, 22848, Note_off_c, 9, 36, 0
12, 23036, Note_on_c, 9, 36, 120
12, 23040, Note_off_c, 9, 36, 0
12, 23228, Note_on_c, 9, 36, 120
12, 23228, Note_on_c, 9, 38, 127
12, 23228, Note_on_c, 9, 40, 115
12, 23232, Note_off_c, 9, 40, 0
12, 23232, Note_off_c, 9, 38, 0
12, 23232, Note_off_c, 9, 36, 0
12, 23372, Note_on_c, 9, 38, 107
12, 23372, Note_on_c, 9, 40, 95
12, 23376, Note_off_c, 9, 40, 0
12, 23376, Note_off_c, 9, 38, 0
12, 23420, Note_on_c, 9, 36, 120
12, 23424, Note_off_c, 9, 36, 0
12, 23612, Note_on_c, 9, 36, 120
12, 23612, Note_on_c, 9, 38, 127
12, 23612, Note_on_c, 9, 40, 115
12, 23616, Note_off_c, 9, 40, 0
12, 23616, Note_off_c, 9, 38, 0
12, 23616, Note_off_c, 9, 36, 0
12, 23804, Note_on_c, 9, 36, 120
12, 23808, Note_off_c, 9, 36, 0
12, 23996, Note_on_c, 9, 36, 120
12, 23996, Note_on_c, 9, 38, 127
12, 23996, Note_on_c, 9, 40, 115
12, 24000, Note_off_c, 9, 40, 0
12, 24000, Note_off_c, 9, 38, 0
12, 24000, Note_off_c, 9, 36, 0
12, 24188, Note_on_c, 9, 36, 120
12, 24192, Note_off_c, 9, 36, 0
12, 24380, Note_on_c, 9, 36, 120
12, 24380, Note_on_c, 9, 38, 127
12, 24380, Note_on_c, 9, 40, 115
12, 24384, Note_off_c, 9, 40, 0
12, 24384, Note_off_c, 9, 38, 0
12, 24384, Note_off_c, 9, 36, 0
12, 24524, Note_on_c, 9, 38, 127
12, 24524, Note_on_c, 9, 40, 115
12, 24528, Note_off_c, 9, 40, 0
12, 24528, Note_off_c, 9, 38, 0
12, 24572, Note_on_c, 9, 36, 120
12, 24572, Note_on_c, 9, 38, 127
12, 24572, Note_on_c, 9, 40, 115
12, 24576, Note_off_c, 9, 40, 0
12, 24576, Note_off_c, 9, 38, 0
12, 24576, Note_off_c, 9, 36, 0
12, 24668, Note_on_c, 9, 45, 99
12, 24672, Note_off_c, 9, 45, 0
12, 24716, Note_on_c, 9, 43, 99
12, 24720, Note_off_c, 9, 43, 0
12, 24764, Note_on_c, 9, 36, 120
12, 24764, Note_on_c, 9, 41, 99
12, 24768, Note_off_c, 9, 41, 0
12, 24768, Note_off_c, 9, 36, 0
12, 24956, Note_on_c, 9, 36, 120
12, 24960, Note_off_c, 9, 36, 0
12, 25052, Note_on_c, 9, 38, 127
12, 25052, Note_on_c, 9, 40, 115
12, 25056, Note_off_c, 9, 40, 0
12, 25056, Note_off_c, 9, 38, 0
12, 25148, Note_on_c, 9, 36, 120
12, 25152, Note_off_c, 9, 36, 0
12, 25196, Note_on_c, 9, 38, 127
12, 25196, Note_on_c, 9, 40, 115
12, 25200, Note_off_c, 9, 40, 0
12, 25200, Note_off_c, 9, 38, 0
12, 25244, Note_on_c, 9, 38, 127
12, 25244, Note_on_c, 9, 40, 115
12, 25248, Note_off_c, 9, 40, 0
12, 25248, Note_off_c, 9, 38, 0
12, 25292, Note_on_c, 9, 38, 127
12, 25292, Note_on_c, 9, 40, 115
12, 25296, Note_off_c, 9, 40, 0
12, 25296, Note_off_c, 9, 38, 0
12, 25340, Note_on_c, 9, 36, 120
12, 25344, Note_off_c, 9, 36, 0
12, 25532, Note_on_c, 9, 36, 120
12, 25532, Note_on_c, 9, 38, 127
12, 25532, Note_on_c, 9, 40, 115
12, 25536, Note_off_c, 9, 40, 0
12, 25536, Note_off_c, 9, 38, 0
12, 25536, Note_off_c, 9, 36, 0
12, 25724, Note_on_c, 9, 36, 120
12, 25728, Note_off_c, 9, 36, 0
12, 25916, Note_on_c, 9, 36, 120
12, 25916, Note_on_c, 9, 38, 127
12, 25916, Note_on_c, 9, 40, 115
12, 25920, Note_off_c, 9, 40, 0
12, 25920, Note_off_c, 9, 38, 0
12, 25920, Note_off_c, 9, 36, 0
12, 26108, Note_on_c, 9, 36, 120
12, 26112, Note_off_c, 9, 36, 0
12, 26300, Note_on_c, 9, 36, 120
12, 26300, Note_on_c, 9, 38, 127
12, 26300, Note_on_c, 9, 40, 115
12, 26304, Note_off_c, 9, 40, 0
12, 26304, Note_off_c, 9, 38, 0
12, 26304, Note_off_c, 9, 36, 0
12, 26444, Note_on_c, 9, 38, 107
12, 26444, Note_on_c, 9, 40, 95
12, 26448, Note_off_c, 9, 40, 0
12, 26448, Note_off_c, 9, 38, 0
12, 26492, Note_on_c, 9, 36, 120
12, 26496, Note_off_c, 9, 36, 0
12, 26684, Note_on_c, 9, 36, 120
12, 26684, Note_on_c, 9, 38, 127
12, 26684, Note_on_c, 9, 40, 115
12, 26688, Note_off_c, 9, 40, 0
12, 26688, Note_off_c, 9, 38, 0
12, 26688, Note_off_c, 9, 36, 0
12, 26876, Note_on_c, 9, 36, 120
12, 26880, Note_off_c, 9, 36, 0
12, 27068, Note_on_c, 9, 36, 120
12, 27068, Note_on_c, 9, 38, 127
12, 27068, Note_on_c, 9, 40, 115
12, 27072, Note_off_c, 9, 40, 0
12, 27072, Note_off_c, 9, 38, 0
12, 27072, Note_off_c, 9, 36, 0
12, 27260, Note_on_c, 9, 36, 120
12, 27264, Note_off_c, 9, 36, 0
12, 27452, Note_on_c, 9, 36, 120
12, 27452, Note_on_c, 9, 38, 127
12, 27452, Note_on_c, 9, 40, 115
12, 27456, Note_off_c, 9, 40, 0
12, 27456, Note_off_c, 9, 38, 0
12, 27456, Note_off_c, 9, 36, 0
12, 27644, Note_on_c, 9, 36, 120
12, 27648, Note_off_c, 9, 36, 0
12, 27836, Note_on_c, 9, 36, 120
12, 27836, Note_on_c, 9, 38, 127
12, 27836, Note_on_c, 9, 40, 115
12, 27840, Note_off_c, 9, 40, 0
12, 27840, Note_off_c, 9, 38, 0
12, 27840, Note_off_c, 9, 36, 0
12, 28028, Note_on_c, 9, 36, 120
12, 28032, Note_off_c, 9, 36, 0
12, 28124, Note_on_c, 9, 38, 127
12, 28124, Note_on_c, 9, 40, 115
12, 28128, Note_off_c, 9, 40, 0
12, 28128, Note_off_c, 9, 38, 0
12, 28172, Note_on_c, 9, 38, 107
12, 28172, Note_on_c, 9, 40, 95
12, 28176, Note_off_c, 9, 40, 0
12, 28176, Note_off_c, 9, 38, 0
12, 28220, Note_on_c, 9, 36, 120
12, 28220, Note_on_c, 9, 38, 127
12, 28220, Note_on_c, 9, 40, 115
12, 28224, Note_off_c, 9, 40, 0
12, 28224, Note_off_c, 9, 38, 0
12, 28224, Note_off_c, 9, 36, 0
12, 28268, Note_on_c, 9, 38, 127
12, 28268, Note_on_c, 9, 40, 115
12, 28272, Note_off_c, 9, 40, 0
12, 28272, Note_off_c, 9, 38, 0
12, 28316, Note_on_c, 9, 38, 127
12, 28316, Note_on_c, 9, 40, 115
12, 28320, Note_off_c, 9, 40, 0
12, 28320, Note_off_c, 9, 38, 0
12, 28364, Note_on_c, 9, 38, 127
12, 28364, Note_on_c, 9, 40, 115
12, 28368, Note_off_c, 9, 40, 0
12, 28368, Note_off_c, 9, 38, 0
12, 28412, Note_on_c, 9, 36, 120
12, 28416, Note_off_c, 9, 36, 0
12, 28604, Note_on_c, 9, 36, 120
12, 28604, Note_on_c, 9, 38, 127
12, 28604, Note_on_c, 9, 40, 115
12, 28604, Note_on_c, 9, 39, 127
12, 28608, Note_off_c, 9, 39, 0
12, 28608, Note_off_c, 9, 40, 0
12, 28608, Note_off_c, 9, 38, 0
12, 28608, Note_off_c, 9, 36, 0
12, 28796, Note_on_c, 9, 36, 120
12, 28800, Note_off_c, 9, 36, 0
12, 28988, Note_on_c, 9, 36, 120
12, 28988, Note_on_c, 9, 38, 127
12, 28988, Note_on_c, 9, 40, 115
12, 28992, Note_off_c, 9, 40, 0
12, 28992, Note_off_c, 9, 38, 0
12, 28992, Note_off_c, 9, 36, 0
12, 29180, Note_on_c, 9, 36, 120
12, 29184, Note_off_c, 9, 36, 0
12, 29372, Note_on_c, 9, 36, 120
12, 29372, Note_on_c, 9, 38, 127
12, 29372, Note_on_c, 9, 40, 115
12, 29376, Note_off_c, 9, 40, 0
12, 29376, Note_off_c, 9, 38, 0
12, 29376, Note_off_c, 9, 36, 0
12, 29516, Note_on_c, 9, 38, 107
12, 29516, Note_on_c, 9, 40, 95
12, 29520, Note_off_c, 9, 40, 0
12, 29520, Note_off_c, 9, 38, 0
12, 29564, Note_on_c, 9, 36, 120
12, 29568, Note_off_c, 9, 36, 0
12, 29756, Note_on_c, 9, 36, 120
12, 29756, Note_on_c, 9, 38, 127
12, 29756, Note_on_c, 9, 40, 115
12, 29760, Note_off_c, 9, 40, 0
12, 29760, Note_off_c, 9, 38, 0
12, 29760, Note_off_c, 9, 36, 0
12, 29948, Note_on_c, 9, 36, 120
12, 29952, Note_off_c, 9, 36, 0
12, 30140, Note_on_c, 9, 36, 120
12, 30140, Note_on_c, 9, 38, 127
12, 30140, Note_on_c, 9, 40, 115
12, 30144, Note_off_c, 9, 40, 0
12, 30144, Note_off_c, 9, 38, 0
12, 30144, Note_off_c, 9, 36, 0
12, 30284, Note_on_c, 9, 38, 107
12, 30284, Note_on_c, 9, 40, 95
12, 30288, Note_off_c, 9, 40, 0
12, 30288, Note_off_c, 9, 38, 0
12, 30332, Note_on_c, 9, 36, 120
12, 30336, Note_off_c, 9, 36, 0
12, 30524, Note_on_c, 9, 36, 120
12, 30524, Note_on_c, 9, 38, 127
12, 30524, Note_on_c, 9, 40, 115
12, 30528, Note_off_c, 9, 40, 0
12, 30528, Note_off_c, 9, 38, 0
12, 30528, Note_off_c, 9, 36, 0
12, 30716, Note_on_c, 9, 36, 120
12, 30720, Note_off_c, 9, 36, 0
12, 30764, Note_on_c, 9, 38, 127
12, 30764, Note_on_c, 9, 40, 115
12, 30768, Note_off_c, 9, 40, 0
12, 30768, Note_off_c, 9, 38, 0
12, 30908, Note_on_c, 9, 36, 120
12, 30908, Note_on_c, 9, 38, 127
12, 30908, Note_on_c, 9, 40, 115
12, 30912, Note_off_c, 9, 40, 0
12, 30912, Note_off_c, 9, 38, 0
12, 30912, Note_off_c, 9, 36, 0
12, 31004, Note_on_c, 9, 47, 99
12, 31008, Note_off_c, 9, 47, 0
12, 31052, Note_on_c, 9, 45, 99
12, 31056, Note_off_c, 9, 45, 0
12, 31100, Note_on_c, 9, 36, 120
12, 31100, Note_on_c, 9, 47, 99
12, 31104, Note_off_c, 9, 47, 0
12, 31104, Note_off_c, 9, 36, 0
12, 31148, Note_on_c, 9, 45, 99
12, 31152, Note_off_c, 9, 45, 0
12, 31196, Note_on_c, 9, 43, 99
12, 31200, Note_off_c, 9, 43, 0
12, 31244, Note_on_c, 9, 41, 99
12, 31248, Note_off_c, 9, 41, 0
12, 31292, Note_on_c, 9, 36, 120
12, 31292, Note_on_c, 9, 38, 127
12, 31292, Note_on_c, 9, 40, 115
12, 31296, Note_off_c, 9, 40, 0
12, 31296, Note_off_c, 9, 38, 0
12, 31296, Note_off_c, 9, 36, 0
12, 31388, Note_on_c, 9, 38, 127
12, 31388, Note_on_c, 9, 40, 115
12, 31392, Note_off_c, 9, 40, 0
12, 31392, Note_off_c, 9, 38, 0
12, 31436, Note_on_c, 9, 38, 127
12, 31436, Note_on_c, 9, 40, 115
12, 31440, Note_off_c, 9, 40, 0
12, 31440, Note_off_c, 9, 38, 0
12, 31484, Note_on_c, 9, 36, 120
12, 31488, Note_off_c, 9, 36, 0
12, 31676, Note_on_c, 9, 36, 120
12, 31676, Note_on_c, 9, 38, 127
12, 31676, Note_on_c, 9, 40, 115
12, 31680, Note_off_c, 9, 40, 0
12, 31680, Note_off_c, 9, 38, 0
12, 31680, Note_off_c, 9, 36, 0
12, 31820, Note_on_c, 9, 38, 107
12, 31820, Note_on_c, 9, 40, 95
12, 31824, Note_off_c, 9, 40, 0
12, 31824, Note_off_c, 9, 38, 0
12, 31868, Note_on_c, 9, 36, 120
12, 31872, Note_off_c, 9, 36, 0
12, 32060, Note_on_c, 9, 36, 120
12, 32060, Note_on_c, 9, 38, 127
12, 32060, Note_on_c, 9, 40, 115
12, 32064, Note_off_c, 9, 40, 0
12, 32064, Note_off_c, 9, 38, 0
12, 32064, Note_off_c, 9, 36, 0
12, 32252, Note_on_c, 9, 36, 120
12, 32256, Note_off_c, 9, 36, 0
12, 32444, Note_on_c, 9, 36, 120
12, 32444, Note_on_c, 9, 38, 127
12, 32444, Note_on_c, 9, 40, 115
12, 32448, Note_off_c, 9, 40, 0
12, 32448, Note_off_c, 9, 38, 0
12, 32448, Note_off_c, 9, 36, 0
12, 32588, Note_on_c, 9, 38, 107
12, 32588, Note_on_c, 9, 40, 95
12, 32592, Note_off_c, 9, 40, 0
12, 32592, Note_off_c, 9, 38, 0
12, 32636, Note_on_c, 9, 36, 120
12, 32640, Note_off_c, 9, 36, 0
12, 32828, Note_on_c, 9, 36, 120
12, 32828, Note_on_c, 9, 38, 127
12, 32828, Note_on_c, 9, 40, 115
12, 32832, Note_off_c, 9, 40, 0
12, 32832, Note_off_c, 9, 38, 0
12, 32832, Note_off_c, 9, 36, 0
12, 33020, Note_on_c, 9, 36, 120
12, 33024, Note_off_c, 9, 36, 0
12, 33212, Note_on_c, 9, 36, 120
12, 33212, Note_on_c, 9, 38, 127
12, 33212, Note_on_c, 9, 40, 115
12, 33216, Note_off_c, 9, 40, 0
12, 33216, Note_off_c, 9, 38, 0
12, 33216, Note_off_c, 9, 36, 0
12, 33404, Note_on_c, 9, 36, 120
12, 33408, Note_off_c, 9, 36, 0
12, 33452, Note_on_c, 9, 38, 107
12, 33452, Note_on_c, 9, 40, 95
12, 33456, Note_off_c, 9, 40, 0
12, 33456, Note_off_c, 9, 38, 0
12, 33596, Note_on_c, 9, 36, 120
12, 33596, Note_on_c, 9, 38, 127
12, 33596, Note_on_c, 9, 40, 115
12, 33600, Note_off_c, 9, 40, 0
12, 33600, Note_off_c, 9, 38, 0
12, 33600, Note_off_c, 9, 36, 0
12, 33740, Note_on_c, 9, 38, 127
12, 33740, Note_on_c, 9, 40, 115
12, 33744, Note_off_c, 9, 40, 0
12, 33744, Note_off_c, 9, 38, 0
12, 33788, Note_on_c, 9, 36, 120
12, 33788, Note_on_c, 9, 38, 127
12, 33788, Note_on_c, 9, 40, 115
12, 33792, Note_off_c, 9, 40, 0
12, 33792, Note_off_c, 9, 38, 0
12, 33792, Note_off_c, 9, 36, 0
12, 33884, Note_on_c, 9, 38, 127
12, 33884, Note_on_c, 9, 40, 115
12, 33888, Note_off_c, 9, 40, 0
12, 33888, Note_off_c, 9, 38, 0
12, 33980, Note_on_c, 9, 36, 120
12, 33980, Note_on_c, 9, 38, 127
12, 33980, Note_on_c, 9, 40, 115
12, 33984, Note_off_c, 9, 40, 0
12, 33984, Note_off_c, 9, 38, 0
12, 33984, Note_off_c, 9, 36, 0
12, 34076, Note_on_c, 9, 38, 127
12, 34076, Note_on_c, 9, 40, 115
12, 34080, Note_off_c, 9, 40, 0
12, 34080, Note_off_c, 9, 38, 0
12, 34172, Note_on_c, 9, 36, 120
12, 34172, Note_on_c, 9, 38, 127
12, 34172, Note_on_c, 9, 40, 115
12, 34176, Note_off_c, 9, 40, 0
12, 34176, Note_off_c, 9, 38, 0
12, 34176, Note_off_c, 9, 36, 0
12, 34316, Note_on_c, 9, 36, 120
12, 34316, Note_on_c, 9, 38, 127
12, 34316, Note_on_c, 9, 40, 115
12, 34320, Note_off_c, 9, 40, 0
12, 34320, Note_off_c, 9, 38, 0
12, 34320, Note_off_c, 9, 36, 0
12, 34556, Note_on_c, 9, 36, 120
12, 34560, Note_off_c, 9, 36, 0
12, 34748, Note_on_c, 9, 36, 120
12, 34748, Note_on_c, 9, 38, 127
12, 34748, Note_on_c, 9, 40, 115
12, 34752, Note_off_c, 9, 40, 0
12, 34752, Note_off_c, 9, 38, 0
12, 34752, Note_off_c, 9, 36, 0
12, 34940, Note_on_c, 9, 36, 120
12, 34944, Note_off_c, 9, 36, 0
12, 35132, Note_on_c, 9, 36, 120
12, 35132, Note_on_c, 9, 38, 127
12, 35132, Note_on_c, 9, 40, 115
12, 35136, Note_off_c, 9, 40, 0
12, 35136, Note_off_c, 9, 38, 0
12, 35136, Note_off_c, 9, 36, 0
12, 35324, Note_on_c, 9, 36, 120
12, 35328, Note_off_c, 9, 36, 0
12, 35516, Note_on_c, 9, 36, 120
12, 35516, Note_on_c, 9, 38, 127
12, 35516, Note_on_c, 9, 40, 115
12, 35520, Note_off_c, 9, 40, 0
12, 35520, Note_off_c, 9, 38, 0
12, 35520, Note_off_c, 9, 36, 0
12, 35708, Note_on_c, 9, 36, 120
12, 35712, Note_off_c, 9, 36, 0
12, 35900, Note_on_c, 9, 36, 120
12, 35900, Note_on_c, 9, 38, 127
12, 35900, Note_on_c, 9, 40, 115
12, 35904, Note_off_c, 9, 40, 0
12, 35904, Note_off_c, 9, 38, 0
12, 35904, Note_off_c, 9, 36, 0
12, 36092, Note_on_c, 9, 36, 120
12, 36096, Note_off_c, 9, 36, 0
12, 36284, Note_on_c, 9, 36, 120
12, 36284, Note_on_c, 9, 38, 127
12, 36284, Note_on_c, 9, 40, 115
12, 36288, Note_off_c, 9, 40, 0
12, 36288, Note_off_c, 9, 38, 0
12, 36288, Note_off_c, 9, 36, 0
12, 36476, Note_on_c, 9, 36, 120
12, 36480, Note_off_c, 9, 36, 0
12, 36668, Note_on_c, 9, 36, 120
12, 36668, Note_on_c, 9, 38, 127
12, 36668, Note_on_c, 9, 40, 115
12, 36672, Note_off_c, 9, 40, 0
12, 36672, Note_off_c, 9, 38, 0
12, 36672, Note_off_c, 9, 36, 0
12, 36860, Note_on_c, 9, 36, 120
12, 36864, Note_off_c, 9, 36, 0
12, 37052, Note_on_c, 9, 36, 120
12, 37052, Note_on_c, 9, 38, 127
12, 37052, Note_on_c, 9, 40, 115
12, 37056, Note_off_c, 9, 40, 0
12, 37056, Note_off_c, 9, 38, 0
12, 37056, Note_off_c, 9, 36, 0
12, 37244, Note_on_c, 9, 36, 120
12, 37248, Note_off_c, 9, 36, 0
12, 37436, Note_on_c, 9, 36, 120
12, 37436, Note_on_c, 9, 38, 127
12, 37436, Note_on_c, 9, 40, 115
12, 37436, Note_on_c, 9, 45, 99
12, 37440, Note_off_c, 9, 45, 0
12, 37440, Note_off_c, 9, 40, 0
12, 37440, Note_off_c, 9, 38, 0
12, 37440, Note_off_c, 9, 36, 0
12, 37484, Note_on_c, 9, 43, 99
12, 37488, Note_off_c, 9, 43, 0
12, 37532, Note_on_c, 9, 41, 99
12, 37536, Note_off_c, 9, 41, 0
12, 37628, Note_on_c, 9, 36, 120
12, 37632, Note_off_c, 9, 36, 0
12, 37820, Note_on_c, 9, 36, 120
12, 37820, Note_on_c, 9, 38, 127
12, 37820, Note_on_c, 9, 40, 115
12, 37824, Note_off_c, 9, 40, 0
12, 37824, Note_off_c, 9, 38, 0
12, 37824, Note_off_c, 9, 36, 0
12, 38012, Note_on_c, 9, 36, 120
12, 38016, Note_off_c, 9, 36, 0
12, 38204, Note_on_c, 9, 36, 120
12, 38204, Note_on_c, 9, 38, 127
12, 38204, Note_on_c, 9, 40, 115
12, 38208, Note_off_c, 9, 40, 0
12, 38208, Note_off_c, 9, 38, 0
12, 38208, Note_off_c, 9, 36, 0
12, 38396, Note_on_c, 9, 36, 120
12, 38400, Note_off_c, 9, 36, 0
12, 38588, Note_on_c, 9, 36, 120
12, 38588, Note_on_c, 9, 38, 127
12, 38588, Note_on_c, 9, 40, 115
12, 38592, Note_off_c, 9, 40, 0
12, 38592, Note_off_c, 9, 38, 0
12, 38592, Note_off_c, 9, 36, 0
12, 38780, Note_on_c, 9, 36, 120
12, 38784, Note_off_c, 9, 36, 0
12, 38972, Note_on_c, 9, 36, 120
12, 38972, Note_on_c, 9, 38, 127
12, 38972, Note_on_c, 9, 40, 115
12, 38976, Note_off_c, 9, 40, 0
12, 38976, Note_off_c, 9, 38, 0
12, 38976, Note_off_c, 9, 36, 0
12, 39164, Note_on_c, 9, 36, 120
12, 39168, Note_off_c, 9, 36, 0
12, 39356, Note_on_c, 9, 36, 120
12, 39356, Note_on_c, 9, 38, 127
12, 39356, Note_on_c, 9, 40, 115
12, 39360, Note_off_c, 9, 40, 0
12, 39360, Note_off_c, 9, 38, 0
12, 39360, Note_off_c, 9, 36, 0
12, 39548, Note_on_c, 9, 36, 120
12, 39552, Note_off_c, 9, 36, 0
12, 39740, Note_on_c, 9, 36, 120
12, 39740, Note_on_c, 9, 38, 127
12, 39740, Note_on_c, 9, 40, 115
12, 39744, Note_off_c, 9, 40, 0
12, 39744, Note_off_c, 9, 38, 0
12, 39744, Note_off_c, 9, 36, 0
12, 39836, Note_on_c, 9, 38, 127
12, 39836, Note_on_c, 9, 40, 115
12, 39840, Note_off_c, 9, 40, 0
12, 39840, Note_off_c, 9, 38, 0
12, 39932, Note_on_c, 9, 36, 120
12, 39936, Note_off_c, 9, 36, 0
12, 39980, Note_on_c, 9, 38, 127
12, 39980, Note_on_c, 9, 40, 115
12, 39984, Note_off_c, 9, 40, 0
12, 39984, Note_off_c, 9, 38, 0
12, 40124, Note_on_c, 9, 36, 120
12, 40124, Note_on_c, 9, 38, 127
12, 40124, Note_on_c, 9, 40, 115
12, 40128, Note_off_c, 9, 40, 0
12, 40128, Note_off_c, 9, 38, 0
12, 40128, Note_off_c, 9, 36, 0
12, 40220, Note_on_c, 9, 38, 127
12, 40220, Note_on_c, 9, 40, 115
12, 40224, Note_off_c, 9, 40, 0
12, 40224, Note_off_c, 9, 38, 0
12, 40316, Note_on_c, 9, 36, 120
12, 40320, Note_off_c, 9, 36, 0
12, 40364, Note_on_c, 9, 38, 127
12, 40364, Note_on_c, 9, 40, 115
12, 40368, Note_off_c, 9, 40, 0
12, 40368, Note_off_c, 9, 38, 0
12, 40508, Note_on_c, 9, 36, 120
12, 40508, Note_on_c, 9, 38, 127
12, 40508, Note_on_c, 9, 40, 115
12, 40512, Note_off_c, 9, 40, 0
12, 40512, Note_off_c, 9, 38, 0
12, 40512, Note_off_c, 9, 36, 0
12, 40700, Note_on_c, 9, 36, 120
12, 40704, Note_off_c, 9, 36, 0
12, 40892, Note_on_c, 9, 36, 120
12, 40896, Note_off_c, 9, 36, 0
12, 41084, Note_on_c, 9, 36, 120
12, 41088, Note_off_c, 9, 36, 0
12, 41276, Note_on_c, 9, 36, 120
12, 41280, Note_off_c, 9, 36, 0
12, 41468, Note_on_c, 9, 36, 120
12, 41472, Note_off_c, 9, 36, 0
12, 41660, Note_on_c, 9, 36, 120
12, 41664, Note_off_c, 9, 36, 0
12, 41852, Note_on_c, 9, 36, 120
12, 41856, Note_off_c, 9, 36, 0
12, 42044, Note_on_c, 9, 36, 120
12, 42048, Note_off_c, 9, 36, 0
12, 42236, Note_on_c, 9, 36, 120
12, 42240, Note_off_c, 9, 36, 0
12, 42428, Note_on_c, 9, 36, 120
12, 42432, Note_off_c, 9, 36, 0
12, 42620, Note_on_c, 9, 36, 120
12, 42624, Note_off_c, 9, 36, 0
12, 42812, Note_on_c, 9, 36, 120
12, 42816, Note_off_c, 9, 36, 0
12, 43004, Note_on_c, 9, 36, 120
12, 43008, Note_off_c, 9, 36, 0
12, 43196, Note_on_c, 9, 36, 120
12, 43200, Note_off_c, 9, 36, 0
12, 43388, Note_on_c, 9, 36, 120
12, 43392, Note_off_c, 9, 36, 0
12, 43580, Note_on_c, 9, 36, 120
12, 43584, Note_off_c, 9, 36, 0
12, 43772, Note_on_c, 9, 36, 120
12, 43776, Note_off_c, 9, 36, 0
12, 43964, Note_on_c, 9, 36, 120
12, 43968, Note_off_c, 9, 36, 0
12, 44156, Note_on_c, 9, 36, 120
12, 44160, Note_off_c, 9, 36, 0
12, 44348, Note_on_c, 9, 36, 120
12, 44352, Note_off_c, 9, 36, 0
12, 44540, Note_on_c, 9, 36, 120
12, 44544, Note_off_c, 9, 36, 0
12, 44732, Note_on_c, 9, 36, 120
12, 44736, Note_off_c, 9, 36, 0
12, 44924, Note_on_c, 9, 36, 120
12, 44928, Note_off_c, 9, 36, 0
12, 45116, Note_on_c, 9, 36, 120
12, 45120, Note_off_c, 9, 36, 0
12, 45308, Note_on_c, 9, 36, 120
12, 45312, Note_off_c, 9, 36, 0
12, 45500, Note_on_c, 9, 36, 120
12, 45504, Note_off_c, 9, 36, 0
12, 45692, Note_on_c, 9, 36, 120
12, 45696, Note_off_c, 9, 36, 0
12, 45884, Note_on_c, 9, 36, 120
12, 45888, Note_off_c, 9, 36, 0
12, 46076, Note_on_c, 9, 36, 120
12, 46080, Note_off_c, 9, 36, 0
12, 46268, Note_on_c, 9, 36, 120
12, 46272, Note_off_c, 9, 36, 0
12, 46460, Note_on_c, 9, 36, 120
12, 46464, Note_off_c, 9, 36, 0
12, 46556, Note_on_c, 9, 38, 127
12, 46556, Note_on_c, 9, 40, 115
12, 46560, Note_off_c, 9, 40, 0
12, 46560, Note_off_c, 9, 38, 0
12, 46604, Note_on_c, 9, 38, 127
12, 46604, Note_on_c, 9, 40, 115
12, 46608, Note_off_c, 9, 40, 0
12, 46608, Note_off_c, 9, 38, 0
12, 46652, Note_on_c, 9, 36, 120
12, 46652, Note_on_c, 9, 38, 127
12, 46652, Note_on_c, 9, 40, 115
12, 46656, Note_off_c, 9, 40, 0
12, 46656, Note_off_c, 9, 38, 0
12, 46656, Note_off_c, 9, 36, 0
12, 46700, Note_on_c, 9, 38, 127
12, 46700, Note_on_c, 9, 40, 115
12, 46704, Note_off_c, 9, 40, 0
12, 46704, Note_off_c, 9, 38, 0
12, 46748, Note_on_c, 9, 45, 99
12, 46752, Note_off_c, 9, 45, 0
12, 46796, Note_on_c, 9, 43, 99
12, 46800, Note_off_c, 9, 43, 0
12, 46844, Note_on_c, 9, 36, 120
12, 46848, Note_off_c, 9, 36, 0
12, 47036, Note_on_c, 9, 36, 120
12, 47036, Note_on_c, 9, 38, 127
12, 47036, Note_on_c, 9, 40, 115
12, 47040, Note_off_c, 9, 40, 0
12, 47040, Note_off_c, 9, 38, 0
12, 47040, Note_off_c, 9, 36, 0
12, 47228, Note_on_c, 9, 36, 120
12, 47232, Note_off_c, 9, 36, 0
12, 47420, Note_on_c, 9, 36, 120
12, 47420, Note_on_c, 9, 38, 127
12, 47420, Note_on_c, 9, 40, 115
12, 47424, Note_off_c, 9, 40, 0
12, 47424, Note_off_c, 9, 38, 0
12, 47424, Note_off_c, 9, 36, 0
12, 47612, Note_on_c, 9, 36, 120
12, 47616, Note_off_c, 9, 36, 0
12, 47804, Note_on_c, 9, 36, 120
12, 47804, Note_on_c, 9, 38, 127
12, 47804, Note_on_c, 9, 40, 115
12, 47808, Note_off_c, 9, 40, 0
12, 47808, Note_off_c, 9, 38, 0
12, 47808, Note_off_c, 9, 36, 0
12, 47948, Note_on_c, 9, 38, 107
12, 47948, Note_on_c, 9, 40, 95
12, 47952, Note_off_c, 9, 40, 0
12, 47952, Note_off_c, 9, 38, 0
12, 47996, Note_on_c, 9, 36, 120
12, 48000, Note_off_c, 9, 36, 0
12, 48188, Note_on_c, 9, 36, 120
12, 48188, Note_on_c, 9, 38, 127
12, 48188, Note_on_c, 9, 40, 115
12, 48192, Note_off_c, 9, 40, 0
12, 48192, Note_off_c, 9, 38, 0
12, 48192, Note_off_c, 9, 36, 0
12, 48380, Note_on_c, 9, 36, 120
12, 48384, Note_off_c, 9, 36, 0
12, 48572, Note_on_c, 9, 36, 120
12, 48572, Note_on_c, 9, 38, 127
12, 48572, Note_on_c, 9, 40, 115
12, 48576, Note_off_c, 9, 40, 0
12, 48576, Note_off_c, 9, 38, 0
12, 48576, Note_off_c, 9, 36, 0
12, 48716, Note_on_c, 9, 38, 107
12, 48716, Note_on_c, 9, 40, 95
12, 48720, Note_off_c, 9, 40, 0
12, 48720, Note_off_c, 9, 38, 0
12, 48764, Note_on_c, 9, 36, 120
12, 48768, Note_off_c, 9, 36, 0
12, 48956, Note_on_c, 9, 36, 120
12, 48956, Note_on_c, 9, 38, 127
12, 48956, Note_on_c, 9, 40, 115
12, 48960, Note_off_c, 9, 40, 0
12, 48960, Note_off_c, 9, 38, 0
12, 48960, Note_off_c, 9, 36, 0
12, 49148, Note_on_c, 9, 36, 120
12, 49152, Note_off_c, 9, 36, 0
12, 49340, Note_on_c, 9, 36, 120
12, 49340, Note_on_c, 9, 38, 127
12, 49340, Note_on_c, 9, 40, 115
12, 49344, Note_off_c, 9, 40, 0
12, 49344, Note_off_c, 9, 38, 0
12, 49344, Note_off_c, 9, 36, 0
12, 49532, Note_on_c, 9, 36, 120
12, 49536, Note_off_c, 9, 36, 0
12, 49724, Note_on_c, 9, 36, 120
12, 49724, Note_on_c, 9, 38, 127
12, 49724, Note_on_c, 9, 40, 115
12, 49728, Note_off_c, 9, 40, 0
12, 49728, Note_off_c, 9, 38, 0
12, 49728, Note_off_c, 9, 36, 0
12, 49772, Note_on_c, 9, 38, 127
12, 49772, Note_on_c, 9, 40, 115
12, 49776, Note_off_c, 9, 40, 0
12, 49776, Note_off_c, 9, 38, 0
12, 49820, Note_on_c, 9, 43, 99
12, 49824, Note_off_c, 9, 43, 0
12, 49916, Note_on_c, 9, 36, 120
12, 49920, Note_off_c, 9, 36, 0
12, 50108, Note_on_c, 9, 36, 120
12, 50108, Note_on_c, 9, 38, 127
12, 50108, Note_on_c, 9, 40, 115
12, 50112, Note_off_c, 9, 40, 0
12, 50112, Note_off_c, 9, 38, 0
12, 50112, Note_off_c, 9, 36, 0
12, 50252, Note_on_c, 9, 38, 107
12, 50252, Note_on_c, 9, 40, 95
12, 50256, Note_off_c, 9, 40, 0
12, 50256, Note_off_c, 9, 38, 0
12, 50300, Note_on_c, 9, 36, 120
12, 50304, Note_off_c, 9, 36, 0
12, 50492, Note_on_c, 9, 36, 120
12, 50492, Note_on_c, 9, 38, 127
12, 50492, Note_on_c, 9, 40, 115
12, 50496, Note_off_c, 9, 40, 0
12, 50496, Note_off_c, 9, 38, 0
12, 50496, Note_off_c, 9, 36, 0
12, 50684, Note_on_c, 9, 36, 120
12, 50688, Note_off_c, 9, 36, 0
12, 50876, Note_on_c, 9, 36, 120
12, 50876, Note_on_c, 9, 38, 127
12, 50876, Note_on_c, 9, 40, 115
12, 50880, Note_off_c, 9, 40, 0
12, 50880, Note_off_c, 9, 38, 0
12, 50880, Note_off_c, 9, 36, 0
12, 51068, Note_on_c, 9, 36, 120
12, 51072, Note_off_c, 9, 36, 0
12, 51260, Note_on_c, 9, 36, 120
12, 51260, Note_on_c, 9, 38, 127
12, 51260, Note_on_c, 9, 40, 115
12, 51264, Note_off_c, 9, 40, 0
12, 51264, Note_off_c, 9, 38, 0
12, 51264, Note_off_c, 9, 36, 0
12, 51452, Note_on_c, 9, 36, 120
12, 51456, Note_off_c, 9, 36, 0
12, 51644, Note_on_c, 9, 36, 120
12, 51644, Note_on_c, 9, 38, 127
12, 51644, Note_on_c, 9, 40, 115
12, 51648, Note_off_c, 9, 40, 0
12, 51648, Note_off_c, 9, 38, 0
12, 51648, Note_off_c, 9, 36, 0
12, 51788, Note_on_c, 9, 38, 107
12, 51788, Note_on_c, 9, 40, 95
12, 51792, Note_off_c, 9, 40, 0
12, 51792, Note_off_c, 9, 38, 0
12, 51836, Note_on_c, 9, 36, 99
12, 51840, Note_off_c, 9, 36, 0
12, 52028, Note_on_c, 9, 36, 99
12, 52028, Note_on_c, 9, 38, 127
12, 52028, Note_on_c, 9, 40, 115
12, 52032, Note_off_c, 9, 40, 0
12, 52032, Note_off_c, 9, 38, 0
12, 52032, Note_off_c, 9, 36, 0
12, 52220, Note_on_c, 9, 36, 120
12, 52220, Note_on_c, 9, 38, 127
12, 52220, Note_on_c, 9, 40, 115
12, 52224, Note_off_c, 9, 40, 0
12, 52224, Note_off_c, 9, 38, 0
12, 52224, Note_off_c, 9, 36, 0
12, 52316, Note_on_c, 9, 38, 127
12, 52316, Note_on_c, 9, 40, 115
12, 52320, Note_off_c, 9, 40, 0
12, 52320, Note_off_c, 9, 38, 0
12, 52412, Note_on_c, 9, 36, 120
12, 52412, Note_on_c, 9, 38, 127
12, 52412, Note_on_c, 9, 40, 115
12, 52416, Note_off_c, 9, 40, 0
12, 52416, Note_off_c, 9, 38, 0
12, 52416, Note_off_c, 9, 36, 0
12, 52508, Note_on_c, 9, 38, 127
12, 52508, Note_on_c, 9, 40, 115
12, 52512, Note_off_c, 9, 40, 0
12, 52512, Note_off_c, 9, 38, 0
12, 52604, Note_on_c, 9, 36, 120
12, 52604, Note_on_c, 9, 38, 127
12, 52604, Note_on_c, 9, 40, 115
12, 52608, Note_off_c, 9, 40, 0
12, 52608, Note_off_c, 9, 38, 0
12, 52608, Note_off_c, 9, 36, 0
12, 52652, Note_on_c, 9, 38, 127
12, 52652, Note_on_c, 9, 40, 115
12, 52656, Note_off_c, 9, 40, 0
12, 52656, Note_off_c, 9, 38, 0
12, 52700, Note_on_c, 9, 38, 127
12, 52700, Note_on_c, 9, 40, 115
12, 52704, Note_off_c, 9, 40, 0
12, 52704, Note_off_c, 9, 38, 0
12, 52748, Note_on_c, 9, 38, 127
12, 52748, Note_on_c, 9, 40, 115
12, 52752, Note_off_c, 9, 40, 0
12, 52752, Note_off_c, 9, 38, 0
12, 52796, Note_on_c, 9, 36, 120
12, 52796, Note_on_c, 9, 38, 127
12, 52796, Note_on_c, 9, 40, 115
12, 52800, Note_off_c, 9, 40, 0
12, 52800, Note_off_c, 9, 38, 0
12, 52800, Note_off_c, 9, 36, 0
12, 52844, Note_on_c, 9, 38, 127
12, 52844, Note_on_c, 9, 40, 115
12, 52848, Note_off_c, 9, 40, 0
12, 52848, Note_off_c, 9, 38, 0
12, 52892, Note_on_c, 9, 38, 127
12, 52892, Note_on_c, 9, 40, 115
12, 52896, Note_off_c, 9, 40, 0
12, 52896, Note_off_c, 9, 38, 0
12, 52940, Note_on_c, 9, 38, 127
12, 52940, Note_on_c, 9, 40, 115
12, 52944, Note_off_c, 9, 40, 0
12, 52944, Note_off_c, 9, 38, 0
12, 52988, Note_on_c, 9, 36, 120
12, 52992, Note_off_c, 9, 36, 0
12, 53180, Note_on_c, 9, 36, 120
12, 53184, Note_off_c, 9, 36, 0
12, 53372, Note_on_c, 9, 36, 120
12, 53376, Note_off_c, 9, 36, 0
12, 53564, Note_on_c, 9, 36, 120
12, 53568, Note_off_c, 9, 36, 0
12, 53756, Note_on_c, 9, 36, 120
12, 53760, Note_off_c, 9, 36, 0
12, 53948, Note_on_c, 9, 36, 120
12, 53952, Note_off_c, 9, 36, 0
12, 54140, Note_on_c, 9, 36, 120
12, 54144, Note_off_c, 9, 36, 0
12, 54332, Note_on_c, 9, 36, 120
12, 54336, Note_off_c, 9, 36, 0
12, 54524, Note_on_c, 9, 36, 120
12, 54528, Note_off_c, 9, 36, 0
12, 54716, Note_on_c, 9, 36, 120
12, 54720, Note_off_c, 9, 36, 0
12, 54908, Note_on_c, 9, 36, 120
12, 54912, Note_off_c, 9, 36, 0
12, 55100, Note_on_c, 9, 36, 120
12, 55104, Note_off_c, 9, 36, 0
12, 55292, Note_on_c, 9, 36, 120
12, 55296, Note_off_c, 9, 36, 0
12, 55484, Note_on_c, 9, 36, 120
12, 55488, Note_off_c, 9, 36, 0
12, 55676, Note_on_c, 9, 36, 120
12, 55680, Note_off_c, 9, 36, 0
12, 55868, Note_on_c, 9, 36, 120
12, 55872, Note_off_c, 9, 36, 0
12, 56060, Note_on_c, 9, 36, 120
12, 56064, Note_off_c, 9, 36, 0
12, 56252, Note_on_c, 9, 36, 120
12, 56256, Note_off_c, 9, 36, 0
12, 56444, Note_on_c, 9, 36, 120
12, 56448, Note_off_c, 9, 36, 0
12, 56636, Note_on_c, 9, 36, 120
12, 56640, Note_off_c, 9, 36, 0
12, 56828, Note_on_c, 9, 36, 120
12, 56832, Note_off_c, 9, 36, 0
12, 57020, Note_on_c, 9, 36, 120
12, 57024, Note_off_c, 9, 36, 0
12, 57212, Note_on_c, 9, 36, 120
12, 57216, Note_off_c, 9, 36, 0
12, 57404, Note_on_c, 9, 36, 120
12, 57408, Note_off_c, 9, 36, 0
12, 57596, Note_on_c, 9, 36, 120
12, 57600, Note_off_c, 9, 36, 0
12, 57788, Note_on_c, 9, 36, 120
12, 57792, Note_off_c, 9, 36, 0
12, 57980, Note_on_c, 9, 36, 120
12, 57984, Note_off_c, 9, 36, 0
12, 58172, Note_on_c, 9, 36, 120
12, 58176, Note_off_c, 9, 36, 0
12, 58364, Note_on_c, 9, 36, 120
12, 58368, Note_off_c, 9, 36, 0
12, 58556, Note_on_c, 9, 36, 120
12, 58560, Note_off_c, 9, 36, 0
12, 58748, Note_on_c, 9, 36, 120
12, 58752, Note_off_c, 9, 36, 0
12, 58940, Note_on_c, 9, 36, 120
12, 58944, Note_off_c, 9, 36, 0
12, 59036, Note_on_c, 9, 41, 99
12, 59040, Note_off_c, 9, 41, 0
12, 59084, Note_on_c, 9, 41, 99
12, 59088, Note_off_c, 9, 41, 0
12, 59132, Note_on_c, 9, 36, 120
12, 59136, Note_off_c, 9, 36, 0
12, 59324, Note_on_c, 9, 36, 120
12, 59328, Note_off_c, 9, 36, 0
12, 59516, Note_on_c, 9, 36, 120
12, 59520, Note_off_c, 9, 36, 0
12, 59708, Note_on_c, 9, 36, 120
12, 59712, Note_off_c, 9, 36, 0
12, 59900, Note_on_c, 9, 36, 120
12, 59904, Note_off_c, 9, 36, 0
12, 60092, Note_on_c, 9, 36, 120
12, 60096, Note_off_c, 9, 36, 0
12, 60284, Note_on_c, 9, 36, 120
12, 60288, Note_off_c, 9, 36, 0
12, 60476, Note_on_c, 9, 36, 120
12, 60480, Note_off_c, 9, 36, 0
12, 60668, Note_on_c, 9, 36, 120
12, 60672, Note_off_c, 9, 36, 0
12, 60860, Note_on_c, 9, 36, 120
12, 60864, Note_off_c, 9, 36, 0
12, 61052, Note_on_c, 9, 36, 120
12, 61056, Note_off_c, 9, 36, 0
12, 61244, Note_on_c, 9, 36, 120
12, 61248, Note_off_c, 9, 36, 0
12, 61436, Note_on_c, 9, 36, 120
12, 61440, Note_off_c, 9, 36, 0
12, 61628, Note_on_c, 9, 36, 120
12, 61632, Note_off_c, 9, 36, 0
12, 61820, Note_on_c, 9, 36, 120
12, 61824, Note_off_c, 9, 36, 0
12, 62012, Note_on_c, 9, 36, 120
12, 62016, Note_off_c, 9, 36, 0
12, 62204, Note_on_c, 9, 36, 120
12, 62208, Note_off_c, 9, 36, 0
12, 62396, Note_on_c, 9, 36, 120
12, 62400, Note_off_c, 9, 36, 0
12, 62588, Note_on_c, 9, 36, 120
12, 62592, Note_off_c, 9, 36, 0
12, 62780, Note_on_c, 9, 36, 120
12, 62784, Note_off_c, 9, 36, 0
12, 62972, Note_on_c, 9, 36, 120
12, 62976, Note_off_c, 9, 36, 0
12, 63164, Note_on_c, 9, 36, 120
12, 63168, Note_off_c, 9, 36, 0
12, 63356, Note_on_c, 9, 36, 120
12, 63360, Note_off_c, 9, 36, 0
12, 63548, Note_on_c, 9, 36, 120
12, 63552, Note_off_c, 9, 36, 0
12, 63740, Note_on_c, 9, 36, 120
12, 63744, Note_off_c, 9, 36, 0
12, 63932, Note_on_c, 9, 36, 120
12, 63936, Note_off_c, 9, 36, 0
12, 64124, Note_on_c, 9, 36, 120
12, 64128, Note_off_c, 9, 36, 0
12, 64220, Note_on_c, 9, 47, 79
12, 64224, Note_off_c, 9, 47, 0
12, 64236, Note_on_c, 9, 47, 99
12, 64240, Note_off_c, 9, 47, 0
12, 64268, Note_on_c, 9, 47, 99
12, 64272, Note_off_c, 9, 47, 0
12, 64316, Note_on_c, 9, 47, 99
12, 64320, Note_off_c, 9, 47, 0
12, 64364, Note_on_c, 9, 45, 99
12, 64368, Note_off_c, 9, 45, 0
12, 64412, Note_on_c, 9, 43, 99
12, 64416, Note_off_c, 9, 43, 0
12, 64460, Note_on_c, 9, 41, 99
12, 64464, Note_off_c, 9, 41, 0
12, 64508, Note_on_c, 9, 36, 120
12, 64508, Note_on_c, 9, 38, 127
12, 64508, Note_on_c, 9, 40, 115
12, 64512, Note_off_c, 9, 40, 0
12, 64512, Note_off_c, 9, 38, 0
12, 64512, Note_off_c, 9, 36, 0
12, 64700, Note_on_c, 9, 36, 120
12, 64700, Note_on_c, 9, 38, 127
12, 64700, Note_on_c, 9, 40, 115
12, 64704, Note_off_c, 9, 40, 0
12, 64704, Note_off_c, 9, 38, 0
12, 64704, Note_off_c, 9, 36, 0
12, 64892, Note_on_c, 9, 36, 120
12, 64892, Note_on_c, 9, 38, 127
12, 64892, Note_on_c, 9, 40, 115
12, 64896, Note_off_c, 9, 40, 0
12, 64896, Note_off_c, 9, 38, 0
12, 64896, Note_off_c, 9, 36, 0
12, 64940, Note_on_c, 9, 38, 127
12, 64940, Note_on_c, 9, 40, 115
12, 64944, Note_off_c, 9, 40, 0
12, 64944, Note_off_c, 9, 38, 0
12, 64988, Note_on_c, 9, 38, 127
12, 64988, Note_on_c, 9, 40, 115
12, 64992, Note_off_c, 9, 40, 0
12, 64992, Note_off_c, 9, 38, 0
12, 65036, Note_on_c, 9, 38, 127
12, 65036, Note_on_c, 9, 40, 115
12, 65040, Note_off_c, 9, 40, 0
12, 65040, Note_off_c, 9, 38, 0
12, 65084, Note_on_c, 9, 38, 127
12, 65084, Note_on_c, 9, 40, 115
12, 65084, Note_on_c, 9, 47, 99
12, 65088, Note_off_c, 9, 47, 0
12, 65088, Note_off_c, 9, 40, 0
12, 65088, Note_off_c, 9, 38, 0
12, 65132, Note_on_c, 9, 45, 99
12, 65136, Note_off_c, 9, 45, 0
12, 65180, Note_on_c, 9, 43, 99
12, 65184, Note_off_c, 9, 43, 0
12, 65228, Note_on_c, 9, 41, 99
12, 65232, Note_off_c, 9, 41, 0
12, 65276, Note_on_c, 9, 36, 120
12, 65280, Note_off_c, 9, 36, 0
12, 65468, Note_on_c, 9, 36, 120
12, 65468, Note_on_c, 9, 38, 127
12, 65468, Note_on_c, 9, 40, 115
12, 65472, Note_off_c, 9, 40, 0
12, 65472, Note_off_c, 9, 38, 0
12, 65472, Note_off_c, 9, 36, 0
12, 65612, Note_on_c, 9, 38, 107
12, 65612, Note_on_c, 9, 40, 95
12, 65616, Note_off_c, 9, 40, 0
12, 65616, Note_off_c, 9, 38, 0
12, 65660, Note_on_c, 9, 36, 120
12, 65664, Note_off_c, 9, 36, 0
12, 65852, Note_on_c, 9, 36, 120
12, 65852, Note_on_c, 9, 38, 127
12, 65852, Note_on_c, 9, 40, 115
12, 65856, Note_off_c, 9, 40, 0
12, 65856, Note_off_c, 9, 38, 0
12, 65856, Note_off_c, 9, 36, 0
12, 66044, Note_on_c, 9, 36, 120
12, 66048, Note_off_c, 9, 36, 0
12, 66236, Note_on_c, 9, 36, 120
12, 66236, Note_on_c, 9, 38, 127
12, 66236, Note_on_c, 9, 40, 115
12, 66240, Note_off_c, 9, 40, 0
12, 66240, Note_off_c, 9, 38, 0
12, 66240, Note_off_c, 9, 36, 0
12, 66380, Note_on_c, 9, 38, 107
12, 66380, Note_on_c, 9, 40, 95
12, 66384, Note_off_c, 9, 40, 0
12, 66384, Note_off_c, 9, 38, 0
12, 66428, Note_on_c, 9, 36, 120
12, 66432, Note_off_c, 9, 36, 0
12, 66620, Note_on_c, 9, 36, 120
12, 66620, Note_on_c, 9, 38, 127
12, 66620, Note_on_c, 9, 40, 115
12, 66624, Note_off_c, 9, 40, 0
12, 66624, Note_off_c, 9, 38, 0
12, 66624, Note_off_c, 9, 36, 0
12, 66812, Note_on_c, 9, 36, 120
12, 66816, Note_off_c, 9, 36, 0
12, 67004, Note_on_c, 9, 36, 120
12, 67004, Note_on_c, 9, 38, 127
12, 67004, Note_on_c, 9, 40, 115
12, 67008, Note_off_c, 9, 40, 0
12, 67008, Note_off_c, 9, 38, 0
12, 67008, Note_off_c, 9, 36, 0
12, 67148, Note_on_c, 9, 38, 107
12, 67148, Note_on_c, 9, 40, 95
12, 67152, Note_off_c, 9, 40, 0
12, 67152, Note_off_c, 9, 38, 0
12, 67196, Note_on_c, 9, 36, 120
12, 67200, Note_off_c, 9, 36, 0
12, 67388, Note_on_c, 9, 36, 120
12, 67388, Note_on_c, 9, 38, 127
12, 67388, Note_on_c, 9, 40, 115
12, 67392, Note_off_c, 9, 40, 0
12, 67392, Note_off_c, 9, 38, 0
12, 67392, Note_off_c, 9, 36, 0
12, 67580, Note_on_c, 9, 36, 120
12, 67584, Note_off_c, 9, 36, 0
12, 67772, Note_on_c, 9, 36, 120
12, 67772, Note_on_c, 9, 38, 127
12, 67772, Note_on_c, 9, 40, 115
12, 67776, Note_off_c, 9, 40, 0
12, 67776, Note_off_c, 9, 38, 0
12, 67776, Note_off_c, 9, 36, 0
12, 67964, Note_on_c, 9, 36, 120
12, 67964, Note_on_c, 9, 43, 99
12, 67968, Note_off_c, 9, 43, 0
12, 67968, Note_off_c, 9, 36, 0
12, 68012, Note_on_c, 9, 41, 99
12, 68016, Note_off_c, 9, 41, 0
12, 68108, Note_on_c, 9, 45, 99
12, 68112, Note_off_c, 9, 45, 0
12, 68156, Note_on_c, 9, 36, 120
12, 68156, Note_on_c, 9, 38, 127
12, 68156, Note_on_c, 9, 40, 115
12, 68156, Note_on_c, 9, 47, 99
12, 68160, Note_off_c, 9, 47, 0
12, 68160, Note_off_c, 9, 40, 0
12, 68160, Note_off_c, 9, 38, 0
12, 68160, Note_off_c, 9, 36, 0
12, 68204, Note_on_c, 9, 38, 127
12, 68204, Note_on_c, 9, 40, 115
12, 68204, Note_on_c, 9, 45, 99
12, 68208, Note_off_c, 9, 45, 0
12, 68208, Note_off_c, 9, 40, 0
12, 68208, Note_off_c, 9, 38, 0
12, 68252, Note_on_c, 9, 43, 99
12, 68256, Note_off_c, 9, 43, 0
12, 68300, Note_on_c, 9, 41, 99
12, 68304, Note_off_c, 9, 41, 0
12, 68348, Note_on_c, 9, 36, 120
12, 68352, Note_off_c, 9, 36, 0
12, 68540, Note_on_c, 9, 36, 120
12, 68540, Note_on_c, 9, 38, 127
12, 68540, Note_on_c, 9, 40, 115
12, 68544, Note_off_c, 9, 40, 0
12, 68544, Note_off_c, 9, 38, 0
12, 68544, Note_off_c, 9, 36, 0
12, 68732, Note_on_c, 9, 36, 120
12, 68736, Note_off_c, 9, 36, 0
12, 68924, Note_on_c, 9, 36, 120
12, 68924, Note_on_c, 9, 38, 127
12, 68924, Note_on_c, 9, 40, 115
12, 68928, Note_off_c, 9, 40, 0
12, 68928, Note_off_c, 9, 38, 0
12, 68928, Note_off_c, 9, 36, 0
12, 69116, Note_on_c, 9, 36, 120
12, 69120, Note_off_c, 9, 36, 0
12, 69308, Note_on_c, 9, 36, 120
12, 69308, Note_on_c, 9, 38, 127
12, 69308, Note_on_c, 9, 40, 115
12, 69312, Note_off_c, 9, 40, 0
12, 69312, Note_off_c, 9, 38, 0
12, 69312, Note_off_c, 9, 36, 0
12, 69452, Note_on_c, 9, 38, 107
12, 69452, Note_on_c, 9, 40, 95
12, 69456, Note_off_c, 9, 40, 0
12, 69456, Note_off_c, 9, 38, 0
12, 69500, Note_on_c, 9, 36, 120
12, 69504, Note_off_c, 9, 36, 0
12, 69692, Note_on_c, 9, 36, 120
12, 69692, Note_on_c, 9, 38, 127
12, 69692, Note_on_c, 9, 40, 115
12, 69696, Note_off_c, 9, 40, 0
12, 69696, Note_off_c, 9, 38, 0
12, 69696, Note_off_c, 9, 36, 0
12, 69884, Note_on_c, 9, 36, 120
12, 69888, Note_off_c, 9, 36, 0
12, 70076, Note_on_c, 9, 36, 120
12, 70076, Note_on_c, 9, 38, 127
12, 70076, Note_on_c, 9, 40, 115
12, 70080, Note_off_c, 9, 40, 0
12, 70080, Note_off_c, 9, 38, 0
12, 70080, Note_off_c, 9, 36, 0
12, 70268, Note_on_c, 9, 36, 120
12, 70272, Note_off_c, 9, 36, 0
12, 70316, Note_on_c, 9, 38, 127
12, 70316, Note_on_c, 9, 40, 115
12, 70320, Note_off_c, 9, 40, 0
12, 70320, Note_off_c, 9, 38, 0
12, 70412, Note_on_c, 9, 38, 127
12, 70412, Note_on_c, 9, 40, 115
12, 70416, Note_off_c, 9, 40, 0
12, 70416, Note_off_c, 9, 38, 0
12, 70460, Note_on_c, 9, 36, 120
12, 70460, Note_on_c, 9, 38, 127
12, 70460, Note_on_c, 9, 40, 115
12, 70464, Note_off_c, 9, 40, 0
12, 70464, Note_off_c, 9, 38, 0
12, 70464, Note_off_c, 9, 36, 0
12, 70508, Note_on_c, 9, 47, 99
12, 70512, Note_off_c, 9, 47, 0
12, 70556, Note_on_c, 9, 45, 99
12, 70560, Note_off_c, 9, 45, 0
12, 70604, Note_on_c, 9, 43, 99
12, 70608, Note_off_c, 9, 43, 0
12, 70652, Note_on_c, 9, 36, 120
12, 70652, Note_on_c, 9, 38, 127
12, 70652, Note_on_c, 9, 40, 115
12, 70656, Note_off_c, 9, 40, 0
12, 70656, Note_off_c, 9, 38, 0
12, 70656, Note_off_c, 9, 36, 0
12, 70748, Note_on_c, 9, 45, 99
12, 70752, Note_off_c, 9, 45, 0
12, 70796, Note_on_c, 9, 43, 99
12, 70800, Note_off_c, 9, 43, 0
12, 70844, Note_on_c, 9, 36, 120
12, 70844, Note_on_c, 9, 41, 99
12, 70848, Note_off_c, 9, 41, 0
12, 70848, Note_off_c, 9, 36, 0
12, 70940, Note_on_c, 9, 38, 127
12, 70940, Note_on_c, 9, 40, 115
12, 70940, Note_on_c, 9, 41, 99
12, 70944, Note_off_c, 9, 41, 0
12, 70944, Note_off_c, 9, 40, 0
12, 70944, Note_off_c, 9, 38, 0
12, 70988, Note_on_c, 9, 38, 127
12, 70988, Note_on_c, 9, 40, 115
12, 70992, Note_off_c, 9, 40, 0
12, 70992, Note_off_c, 9, 38, 0
12, 71036, Note_on_c, 9, 36, 120
12, 71040, Note_off_c, 9, 36, 0
12, 71084, Note_on_c, 9, 38, 127
12, 71084, Note_on_c, 9, 40, 115
12, 71088, Note_off_c, 9, 40, 0
12, 71088, Note_off_c, 9, 38, 0
12, 71132, Note_on_c, 9, 38, 127
12, 71132, Note_on_c, 9, 40, 115
12, 71136, Note_off_c, 9, 40, 0
12, 71136, Note_off_c, 9, 38, 0
12, 71180, Note_on_c, 9, 38, 127
12, 71180, Note_on_c, 9, 40, 115
12, 71184, Note_off_c, 9, 40, 0
12, 71184, Note_off_c, 9, 38, 0
12, 71228, Note_on_c, 9, 36, 120
12, 71228, Note_on_c, 9, 38, 127
12, 71228, Note_on_c, 9, 40, 115
12, 71232, Note_off_c, 9, 40, 0
12, 71232, Note_off_c, 9, 38, 0
12, 71232, Note_off_c, 9, 36, 0
12, 71276, Note_on_c, 9, 38, 127
12, 71276, Note_on_c, 9, 40, 115
12, 71280, Note_off_c, 9, 40, 0
12, 71280, Note_off_c, 9, 38, 0
12, 71324, Note_on_c, 9, 38, 127
12, 71324, Note_on_c, 9, 40, 115
12, 71328, Note_off_c, 9, 40, 0
12, 71328, Note_off_c, 9, 38, 0
12, 71372, Note_on_c, 9, 38, 127
12, 71372, Note_on_c, 9, 40, 115
12, 71376, Note_off_c, 9, 40, 0
12, 71376, Note_off_c, 9, 38, 0
12, 71420, Note_on_c, 9, 36, 120
12, 71424, Note_off_c, 9, 36, 0
12, 71612, Note_on_c, 9, 36, 120
12, 71612, Note_on_c, 9, 38, 127
12, 71612, Note_on_c, 9, 40, 115
12, 71616, Note_off_c, 9, 40, 0
12, 71616, Note_off_c, 9, 38, 0
12, 71616, Note_off_c, 9, 36, 0
12, 71804, Note_on_c, 9, 36, 120
12, 71808, Note_off_c, 9, 36, 0
12, 71996, Note_on_c, 9, 36, 120
12, 71996, Note_on_c, 9, 38, 127
12, 71996, Note_on_c, 9, 40, 115
12, 72000, Note_off_c, 9, 40, 0
12, 72000, Note_off_c, 9, 38, 0
12, 72000, Note_off_c, 9, 36, 0
12, 72188, Note_on_c, 9, 36, 120
12, 72192, Note_off_c, 9, 36, 0
12, 72380, Note_on_c, 9, 36, 120
12, 72380, Note_on_c, 9, 38, 127
12, 72380, Note_on_c, 9, 40, 115
12, 72384, Note_off_c, 9, 40, 0
12, 72384, Note_off_c, 9, 38, 0
12, 72384, Note_off_c, 9, 36, 0
12, 72524, Note_on_c, 9, 38, 107
12, 72524, Note_on_c, 9, 40, 95
12, 72528, Note_off_c, 9, 40, 0
12, 72528, Note_off_c, 9, 38, 0
12, 72572, Note_on_c, 9, 36, 120
12, 72576, Note_off_c, 9, 36, 0
12, 72764, Note_on_c, 9, 36, 120
12, 72764, Note_on_c, 9, 38, 127
12, 72764, Note_on_c, 9, 40, 115
12, 72768, Note_off_c, 9, 40, 0
12, 72768, Note_off_c, 9, 38, 0
12, 72768, Note_off_c, 9, 36, 0
12, 72956, Note_on_c, 9, 36, 120
12, 72960, Note_off_c, 9, 36, 0
12, 73148, Note_on_c, 9, 36, 120
12, 73148, Note_on_c, 9, 38, 127
12, 73148, Note_on_c, 9, 40, 115
12, 73152, Note_off_c, 9, 40, 0
12, 73152, Note_off_c, 9, 38, 0
12, 73152, Note_off_c, 9, 36, 0
12, 73340, Note_on_c, 9, 36, 120
12, 73344, Note_off_c, 9, 36, 0
12, 73532, Note_on_c, 9, 36, 120
12, 73532, Note_on_c, 9, 38, 127
12, 73532, Note_on_c, 9, 40, 115
12, 73536, Note_off_c, 9, 40, 0
12, 73536, Note_off_c, 9, 38, 0
12, 73536, Note_off_c, 9, 36, 0
12, 73724, Note_on_c, 9, 36, 120
12, 73728, Note_off_c, 9, 36, 0
12, 73916, Note_on_c, 9, 36, 120
12, 73916, Note_on_c, 9, 38, 127
12, 73916, Note_on_c, 9, 40, 115
12, 73920, Note_off_c, 9, 40, 0
12, 73920, Note_off_c, 9, 38, 0
12, 73920, Note_off_c, 9, 36, 0
12, 74108, Note_on_c, 9, 36, 120
12, 74112, Note_off_c, 9, 36, 0
12, 74204, Note_on_c, 9, 38, 127
12, 74204, Note_on_c, 9, 40, 115
12, 74208, Note_off_c, 9, 40, 0
12, 74208, Note_off_c, 9, 38, 0
12, 74252, Note_on_c, 9, 38, 107
12, 74252, Note_on_c, 9, 40, 95
12, 74256, Note_off_c, 9, 40, 0
12, 74256, Note_off_c, 9, 38, 0
12, 74300, Note_on_c, 9, 36, 120
12, 74300, Note_on_c, 9, 38, 127
12, 74300, Note_on_c, 9, 40, 115
12, 74304, Note_off_c, 9, 40, 0
12, 74304, Note_off_c, 9, 38, 0
12, 74304, Note_off_c, 9, 36, 0
12, 74348, Note_on_c, 9, 38, 127
12, 74348, Note_on_c, 9, 40, 115
12, 74352, Note_off_c, 9, 40, 0
12, 74352, Note_off_c, 9, 38, 0
12, 74396, Note_on_c, 9, 38, 127
12, 74396, Note_on_c, 9, 40, 115
12, 74400, Note_off_c, 9, 40, 0
12, 74400, Note_off_c, 9, 38, 0
12, 74444, Note_on_c, 9, 38, 127
12, 74444, Note_on_c, 9, 40, 115
12, 74448, Note_off_c, 9, 40, 0
12, 74448, Note_off_c, 9, 38, 0
12, 74492, Note_on_c, 9, 36, 120
12, 74496, Note_off_c, 9, 36, 0
12, 74684, Note_on_c, 9, 36, 120
12, 74684, Note_on_c, 9, 38, 127
12, 74684, Note_on_c, 9, 40, 115
12, 74684, Note_on_c, 9, 49, 80
12, 74684, Note_on_c, 9, 57, 80
12, 74688, Note_off_c, 9, 57, 0
12, 74688, Note_off_c, 9, 49, 0
12, 74688, Note_off_c, 9, 40, 0
12, 74688, Note_off_c, 9, 38, 0
12, 74688, Note_off_c, 9, 36, 0
12, 74876, Note_on_c, 9, 36, 120
12, 74880, Note_off_c, 9, 36, 0
12, 75068, Note_on_c, 9, 36, 120
12, 75068, Note_on_c, 9, 38, 127
12, 75068, Note_on_c, 9, 40, 115
12, 75072, Note_off_c, 9, 40, 0
12, 75072, Note_off_c, 9, 38, 0
12, 75072, Note_off_c, 9, 36, 0
12, 75260, Note_on_c, 9, 36, 120
12, 75264, Note_off_c, 9, 36, 0
12, 75452, Note_on_c, 9, 36, 120
12, 75452, Note_on_c, 9, 38, 127
12, 75452, Note_on_c, 9, 40, 115
12, 75456, Note_off_c, 9, 40, 0
12, 75456, Note_off_c, 9, 38, 0
12, 75456, Note_off_c, 9, 36, 0
12, 75596, Note_on_c, 9, 38, 107
12, 75596, Note_on_c, 9, 40, 95
12, 75600, Note_off_c, 9, 40, 0
12, 75600, Note_off_c, 9, 38, 0
12, 75644, Note_on_c, 9, 36, 120
12, 75648, Note_off_c, 9, 36, 0
12, 75836, Note_on_c, 9, 36, 120
12, 75836, Note_on_c, 9, 38, 127
12, 75836, Note_on_c, 9, 40, 115
12, 75840, Note_off_c, 9, 40, 0
12, 75840, Note_off_c, 9, 38, 0
12, 75840, Note_off_c, 9, 36, 0
12, 76028, Note_on_c, 9, 36, 120
12, 76032, Note_off_c, 9, 36, 0
12, 76220, Note_on_c, 9, 36, 120
12, 76220, Note_on_c, 9, 38, 127
12, 76220, Note_on_c, 9, 40, 115
12, 76224, Note_off_c, 9, 40, 0
12, 76224, Note_off_c, 9, 38, 0
12, 76224, Note_off_c, 9, 36, 0
12, 76364, Note_on_c, 9, 38, 107
12, 76364, Note_on_c, 9, 40, 95
12, 76368, Note_off_c, 9, 40, 0
12, 76368, Note_off_c, 9, 38, 0
12, 76412, Note_on_c, 9, 36, 120
12, 76416, Note_off_c, 9, 36, 0
12, 76604, Note_on_c, 9, 36, 120
12, 76604, Note_on_c, 9, 38, 127
12, 76604, Note_on_c, 9, 40, 115
12, 76608, Note_off_c, 9, 40, 0
12, 76608, Note_off_c, 9, 38, 0
12, 76608, Note_off_c, 9, 36, 0
12, 76796, Note_on_c, 9, 36, 120
12, 76800, Note_off_c, 9, 36, 0
12, 76844, Note_on_c, 9, 38, 127
12, 76844, Note_on_c, 9, 40, 115
12, 76848, Note_off_c, 9, 40, 0
12, 76848, Note_off_c, 9, 38, 0
12, 76988, Note_on_c, 9, 36, 120
12, 76988, Note_on_c, 9, 38, 127
12, 76988, Note_on_c, 9, 40, 115
12, 76992, Note_off_c, 9, 40, 0
12, 76992, Note_off_c, 9, 38, 0
12, 76992, Note_off_c, 9, 36, 0
12, 77084, Note_on_c, 9, 47, 99
12, 77088, Note_off_c, 9, 47, 0
12, 77132, Note_on_c, 9, 45, 99
12, 77136, Note_off_c, 9, 45, 0
12, 77180, Note_on_c, 9, 36, 120
12, 77180, Note_on_c, 9, 47, 99
12, 77184, Note_off_c, 9, 47, 0
12, 77184, Note_off_c, 9, 36, 0
12, 77228, Note_on_c, 9, 45, 99
12, 77232, Note_off_c, 9, 45, 0
12, 77276, Note_on_c, 9, 43, 99
12, 77280, Note_off_c, 9, 43, 0
12, 77324, Note_on_c, 9, 41, 99
12, 77328, Note_off_c, 9, 41, 0
12, 77372, Note_on_c, 9, 36, 120
12, 77372, Note_on_c, 9, 38, 127
12, 77372, Note_on_c, 9, 40, 115
12, 77376, Note_off_c, 9, 40, 0
12, 77376, Note_off_c, 9, 38, 0
12, 77376, Note_off_c, 9, 36, 0
12, 77468, Note_on_c, 9, 38, 127
12, 77468, Note_on_c, 9, 40, 115
12, 77472, Note_off_c, 9, 40, 0
12, 77472, Note_off_c, 9, 38, 0
12, 77516, Note_on_c, 9, 38, 127
12, 77516, Note_on_c, 9, 40, 115
12, 77520, Note_off_c, 9, 40, 0
12, 77520, Note_off_c, 9, 38, 0
12, 77564, Note_on_c, 9, 36, 120
12, 77568, Note_off_c, 9, 36, 0
12, 77756, Note_on_c, 9, 36, 120
12, 77756, Note_on_c, 9, 38, 127
12, 77756, Note_on_c, 9, 40, 115
12, 77760, Note_off_c, 9, 40, 0
12, 77760, Note_off_c, 9, 38, 0
12, 77760, Note_off_c, 9, 36, 0
12, 77900, Note_on_c, 9, 38, 107
12, 77900, Note_on_c, 9, 40, 95
12, 77904, Note_off_c, 9, 40, 0
12, 77904, Note_off_c, 9, 38, 0
12, 77948, Note_on_c, 9, 36, 120
12, 77952, Note_off_c, 9, 36, 0
12, 78140, Note_on_c, 9, 36, 120
12, 78140, Note_on_c, 9, 38, 127
12, 78140, Note_on_c, 9, 40, 115
12, 78144, Note_off_c, 9, 40, 0
12, 78144, Note_off_c, 9, 38, 0
12, 78144, Note_off_c, 9, 36, 0
12, 78332, Note_on_c, 9, 36, 120
12, 78336, Note_off_c, 9, 36, 0
12, 78524, Note_on_c, 9, 36, 120
12, 78524, Note_on_c, 9, 38, 127
12, 78524, Note_on_c, 9, 40, 115
12, 78528, Note_off_c, 9, 40, 0
12, 78528, Note_off_c, 9, 38, 0
12, 78528, Note_off_c, 9, 36, 0
12, 78668, Note_on_c, 9, 38, 107
12, 78668, Note_on_c, 9, 40, 95
12, 78672, Note_off_c, 9, 40, 0
12, 78672, Note_off_c, 9, 38, 0
12, 78716, Note_on_c, 9, 36, 120
12, 78720, Note_off_c, 9, 36, 0
12, 78908, Note_on_c, 9, 36, 120
12, 78908, Note_on_c, 9, 38, 127
12, 78908, Note_on_c, 9, 40, 115
12, 78912, Note_off_c, 9, 40, 0
12, 78912, Note_off_c, 9, 38, 0
12, 78912, Note_off_c, 9, 36, 0
12, 79100, Note_on_c, 9, 36, 120
12, 79104, Note_off_c, 9, 36, 0
12, 79292, Note_on_c, 9, 36, 120
12, 79292, Note_on_c, 9, 38, 127
12, 79292, Note_on_c, 9, 40, 115
12, 79296, Note_off_c, 9, 40, 0
12, 79296, Note_off_c, 9, 38, 0
12, 79296, Note_off_c, 9, 36, 0
12, 79484, Note_on_c, 9, 36, 120
12, 79488, Note_off_c, 9, 36, 0
12, 79532, Note_on_c, 9, 38, 107
12, 79532, Note_on_c, 9, 40, 95
12, 79536, Note_off_c, 9, 40, 0
12, 79536, Note_off_c, 9, 38, 0
12, 79676, Note_on_c, 9, 36, 120
12, 79676, Note_on_c, 9, 38, 127
12, 79676, Note_on_c, 9, 40, 115
12, 79680, Note_off_c, 9, 40, 0
12, 79680, Note_off_c, 9, 38, 0
12, 79680, Note_off_c, 9, 36, 0
12, 79820, Note_on_c, 9, 38, 127
12, 79820, Note_on_c, 9, 40, 115
12, 79824, Note_off_c, 9, 40, 0
12, 79824, Note_off_c, 9, 38, 0
12, 79868, Note_on_c, 9, 36, 120
12, 79872, Note_off_c, 9, 36, 0
12, 80060, Note_on_c, 9, 36, 120
12, 80060, Note_on_c, 9, 38, 127
12, 80060, Note_on_c, 9, 40, 115
12, 80064, Note_off_c, 9, 40, 0
12, 80064, Note_off_c, 9, 38, 0
12, 80064, Note_off_c, 9, 36, 0
12, 80204, Note_on_c, 9, 38, 107
12, 80204, Note_on_c, 9, 40, 95
12, 80208, Note_off_c, 9, 40, 0
12, 80208, Note_off_c, 9, 38, 0
12, 80252, Note_on_c, 9, 36, 120
12, 80256, Note_off_c, 9, 36, 0
12, 80300, Note_on_c, 9, 38, 107
12, 80300, Note_on_c, 9, 40, 95
12, 80304, Note_off_c, 9, 40, 0
12, 80304, Note_off_c, 9, 38, 0
12, 80396, Note_on_c, 9, 38, 107
12, 80396, Note_on_c, 9, 40, 95
12, 80400, Note_off_c, 9, 40, 0
12, 80400, Note_off_c, 9, 38, 0
12, 80444, Note_on_c, 9, 36, 120
12, 80444, Note_on_c, 9, 38, 127
12, 80444, Note_on_c, 9, 40, 115
12, 80448, Note_off_c, 9, 40, 0
12, 80448, Note_off_c, 9, 38, 0
12, 80448, Note_off_c, 9, 36, 0
12, 80492, Note_on_c, 9, 38, 107
12, 80492, Note_on_c, 9, 40, 95
12, 80496, Note_off_c, 9, 40, 0
12, 80496, Note_off_c, 9, 38, 0
12, 80540, Note_on_c, 9, 38, 107
12, 80540, Note_on_c, 9, 40, 95
12, 80544, Note_off_c, 9, 40, 0
12, 80544, Note_off_c, 9, 38, 0
12, 80588, Note_on_c, 9, 38, 107
12, 80588, Note_on_c, 9, 40, 95
12, 80592, Note_off_c, 9, 40, 0
12, 80592, Note_off_c, 9, 38, 0
12, 80636, Note_on_c, 9, 36, 120
12, 80640, Note_off_c, 9, 36, 0
12, 80828, Note_on_c, 9, 36, 120
12, 80828, Note_on_c, 9, 38, 127
12, 80828, Note_on_c, 9, 40, 115
12, 80832, Note_off_c, 9, 40, 0
12, 80832, Note_off_c, 9, 38, 0
12, 80832, Note_off_c, 9, 36, 0
12, 81020, Note_on_c, 9, 36, 120
12, 81024, Note_off_c, 9, 36, 0
12, 81212, Note_on_c, 9, 36, 120
12, 81212, Note_on_c, 9, 38, 127
12, 81212, Note_on_c, 9, 40, 115
12, 81216, Note_off_c, 9, 40, 0
12, 81216, Note_off_c, 9, 38, 0
12, 81216, Note_off_c, 9, 36, 0
12, 81404, Note_on_c, 9, 36, 120
12, 81408, Note_off_c, 9, 36, 0
12, 81596, Note_on_c, 9, 36, 120
12, 81596, Note_on_c, 9, 38, 127
12, 81596, Note_on_c, 9, 40, 115
12, 81600, Note_off_c, 9, 40, 0
12, 81600, Note_off_c, 9, 38, 0
12, 81600, Note_off_c, 9, 36, 0
12, 81788, Note_on_c, 9, 36, 120
12, 81792, Note_off_c, 9, 36, 0
12, 81980, Note_on_c, 9, 36, 120
12, 81980, Note_on_c, 9, 38, 127
12, 81980, Note_on_c, 9, 40, 115
12, 81984, Note_off_c, 9, 40, 0
12, 81984, Note_off_c, 9, 38, 0
12, 81984, Note_off_c, 9, 36, 0
12, 82172, Note_on_c, 9, 36, 120
12, 82176, Note_off_c, 9, 36, 0
12, 82364, Note_on_c, 9, 36, 120
12, 82364, Note_on_c, 9, 38, 127
12, 82364, Note_on_c, 9, 40, 115
12, 82368, Note_off_c, 9, 40, 0
12, 82368, Note_off_c, 9, 38, 0
12, 82368, Note_off_c, 9, 36, 0
12, 82556, Note_on_c, 9, 36, 120
12, 82560, Note_off_c, 9, 36, 0
12, 82748, Note_on_c, 9, 36, 120
12, 82748, Note_on_c, 9, 38, 127
12, 82748, Note_on_c, 9, 40, 115
12, 82752, Note_off_c, 9, 40, 0
12, 82752, Note_off_c, 9, 38, 0
12, 82752, Note_off_c, 9, 36, 0
12, 82940, Note_on_c, 9, 36, 120
12, 82944, Note_off_c, 9, 36, 0
12, 83132, Note_on_c, 9, 36, 120
12, 83132, Note_on_c, 9, 38, 127
12, 83132, Note_on_c, 9, 40, 115
12, 83136, Note_off_c, 9, 40, 0
12, 83136, Note_off_c, 9, 38, 0
12, 83136, Note_off_c, 9, 36, 0
12, 83324, Note_on_c, 9, 36, 120
12, 83328, Note_off_c, 9, 36, 0
12, 83372, Note_on_c, 9, 38, 127
12, 83372, Note_on_c, 9, 40, 115
12, 83376, Note_off_c, 9, 40, 0
12, 83376, Note_off_c, 9, 38, 0
12, 83420, Note_on_c, 9, 47, 99
12, 83424, Note_off_c, 9, 47, 0
12, 83468, Note_on_c, 9, 43, 99
12, 83472, Note_off_c, 9, 43, 0
12, 83516, Note_on_c, 9, 36, 120
12, 83520, Note_off_c, 9, 36, 0
12, 83564, Note_on_c, 9, 38, 127
12, 83564, Note_on_c, 9, 40, 115
12, 83568, Note_off_c, 9, 40, 0
12, 83568, Note_off_c, 9, 38, 0
12, 83612, Note_on_c, 9, 45, 99
12, 83616, Note_off_c, 9, 45, 0
12, 83660, Note_on_c, 9, 41, 99
12, 83664, Note_off_c, 9, 41, 0
12, 83708, Note_on_c, 9, 36, 120
12, 83712, Note_off_c, 9, 36, 0
12, 83900, Note_on_c, 9, 36, 120
12, 83900, Note_on_c, 9, 38, 127
12, 83900, Note_on_c, 9, 40, 115
12, 83904, Note_off_c, 9, 40, 0
12, 83904, Note_off_c, 9, 38, 0
12, 83904, Note_off_c, 9, 36, 0
12, 84092, Note_on_c, 9, 36, 120
12, 84096, Note_off_c, 9, 36, 0
12, 84284, Note_on_c, 9, 36, 120
12, 84284, Note_on_c, 9, 38, 127
12, 84284, Note_on_c, 9, 40, 115
12, 84288, Note_off_c, 9, 40, 0
12, 84288, Note_off_c, 9, 38, 0
12, 84288, Note_off_c, 9, 36, 0
12, 84476, Note_on_c, 9, 36, 120
12, 84480, Note_off_c, 9, 36, 0
12, 84668, Note_on_c, 9, 36, 120
12, 84668, Note_on_c, 9, 38, 127
12, 84668, Note_on_c, 9, 40, 115
12, 84672, Note_off_c, 9, 40, 0
12, 84672, Note_off_c, 9, 38, 0
12, 84672, Note_off_c, 9, 36, 0
12, 84860, Note_on_c, 9, 36, 120
12, 84864, Note_off_c, 9, 36, 0
12, 85052, Note_on_c, 9, 36, 120
12, 85052, Note_on_c, 9, 38, 127
12, 85052, Note_on_c, 9, 40, 115
12, 85056, Note_off_c, 9, 40, 0
12, 85056, Note_off_c, 9, 38, 0
12, 85056, Note_off_c, 9, 36, 0
12, 85244, Note_on_c, 9, 36, 120
12, 85248, Note_off_c, 9, 36, 0
12, 85436, Note_on_c, 9, 36, 120
12, 85436, Note_on_c, 9, 38, 127
12, 85436, Note_on_c, 9, 40, 115
12, 85440, Note_off_c, 9, 40, 0
12, 85440, Note_off_c, 9, 38, 0
12, 85440, Note_off_c, 9, 36, 0
12, 85628, Note_on_c, 9, 36, 120
12, 85632, Note_off_c, 9, 36, 0
12, 85724, Note_on_c, 9, 38, 127
12, 85724, Note_on_c, 9, 40, 115
12, 85728, Note_off_c, 9, 40, 0
12, 85728, Note_off_c, 9, 38, 0
12, 85772, Note_on_c, 9, 38, 127
12, 85772, Note_on_c, 9, 40, 115
12, 85776, Note_off_c, 9, 40, 0
12, 85776, Note_off_c, 9, 38, 0
12, 85820, Note_on_c, 9, 36, 120
12, 85820, Note_on_c, 9, 38, 127
12, 85820, Note_on_c, 9, 40, 115
12, 85824, Note_off_c, 9, 40, 0
12, 85824, Note_off_c, 9, 38, 0
12, 85824, Note_off_c, 9, 36, 0
12, 85868, Note_on_c, 9, 38, 127
12, 85868, Note_on_c, 9, 40, 115
12, 85872, Note_off_c, 9, 40, 0
12, 85872, Note_off_c, 9, 38, 0
12, 85916, Note_on_c, 9, 43, 99
12, 85920, Note_off_c, 9, 43, 0
12, 85964, Note_on_c, 9, 41, 99
12, 85968, Note_off_c, 9, 41, 0
12, 86012, Note_on_c, 9, 36, 120
12, 86012, Note_on_c, 9, 38, 127
12, 86012, Note_on_c, 9, 40, 115
12, 86016, Note_off_c, 9, 40, 0
12, 86016, Note_off_c, 9, 38, 0
12, 86016, Note_off_c, 9, 36, 0
12, 86108, Note_on_c, 9, 45, 99
12, 86112, Note_off_c, 9, 45, 0
12, 86156, Note_on_c, 9, 43, 99
12, 86160, Note_off_c, 9, 43, 0
12, 86204, Note_on_c, 9, 36, 120
12, 86204, Note_on_c, 9, 41, 99
12, 86208, Note_off_c, 9, 41, 0
12, 86208, Note_off_c, 9, 36, 0
12, 86300, Note_on_c, 9, 38, 127
12, 86300, Note_on_c, 9, 40, 115
12, 86304, Note_off_c, 9, 40, 0
12, 86304, Note_off_c, 9, 38, 0
12, 86348, Note_on_c, 9, 38, 127
12, 86348, Note_on_c, 9, 40, 115
12, 86352, Note_off_c, 9, 40, 0
12, 86352, Note_off_c, 9, 38, 0
12, 86396, Note_on_c, 9, 36, 120
12, 86396, Note_on_c, 9, 45, 99
12, 86400, Note_off_c, 9, 45, 0
12, 86400, Note_off_c, 9, 36, 0
12, 86412, Note_on_c, 9, 45, 99
12, 86416, Note_off_c, 9, 45, 0
12, 86444, Note_on_c, 9, 43, 99
12, 86448, Note_off_c, 9, 43, 0
12, 86492, Note_on_c, 9, 41, 99
12, 86496, Note_off_c, 9, 41, 0
12, 86540, Note_on_c, 9, 41, 99
12, 86544, Note_off_c, 9, 41, 0
12, 86588, Note_on_c, 9, 36, 120
12, 86592, Note_off_c, 9, 36, 0
12, 86636, Note_on_c, 9, 38, 127
12, 86636, Note_on_c, 9, 40, 115
12, 86640, Note_off_c, 9, 40, 0
12, 86640, Note_off_c, 9, 38, 0
12, 86684, Note_on_c, 9, 38, 127
12, 86684, Note_on_c, 9, 40, 115
12, 86688, Note_off_c, 9, 40, 0
12, 86688, Note_off_c, 9, 38, 0
12, 86732, Note_on_c, 9, 38, 127
12, 86732, Note_on_c, 9, 40, 115
12, 86736, Note_off_c, 9, 40, 0
12, 86736, Note_off_c, 9, 38, 0
12, 86780, Note_on_c, 9, 36, 120
12, 86784, Note_off_c, 9, 36, 0
12, 86972, Note_on_c, 9, 36, 120
12, 86972, Note_on_c, 9, 38, 127
12, 86972, Note_on_c, 9, 40, 115
12, 86976, Note_off_c, 9, 40, 0
12, 86976, Note_off_c, 9, 38, 0
12, 86976, Note_off_c, 9, 36, 0
12, 87164, Note_on_c, 9, 36, 120
12, 87168, Note_off_c, 9, 36, 0
12, 87356, Note_on_c, 9, 36, 120
12, 87356, Note_on_c, 9, 38, 127
12, 87356, Note_on_c, 9, 40, 115
12, 87360, Note_off_c, 9, 40, 0
12, 87360, Note_off_c, 9, 38, 0
12, 87360, Note_off_c, 9, 36, 0
12, 87548, Note_on_c, 9, 36, 120
12, 87552, Note_off_c, 9, 36, 0
12, 87740, Note_on_c, 9, 36, 120
12, 87740, Note_on_c, 9, 38, 127
12, 87740, Note_on_c, 9, 40, 115
12, 87744, Note_off_c, 9, 40, 0
12, 87744, Note_off_c, 9, 38, 0
12, 87744, Note_off_c, 9, 36, 0
12, 87932, Note_on_c, 9, 36, 120
12, 87936, Note_off_c, 9, 36, 0
12, 88124, Note_on_c, 9, 36, 120
12, 88124, Note_on_c, 9, 38, 127
12, 88124, Note_on_c, 9, 40, 115
12, 88128, Note_off_c, 9, 40, 0
12, 88128, Note_off_c, 9, 38, 0
12, 88128, Note_off_c, 9, 36, 0
12, 88316, Note_on_c, 9, 36, 120
12, 88320, Note_off_c, 9, 36, 0
12, 88508, Note_on_c, 9, 36, 120
12, 88508, Note_on_c, 9, 38, 127
12, 88508, Note_on_c, 9, 40, 115
12, 88512, Note_off_c, 9, 40, 0
12, 88512, Note_off_c, 9, 38, 0
12, 88512, Note_off_c, 9, 36, 0
12, 88652, Note_on_c, 9, 38, 127
12, 88652, Note_on_c, 9, 40, 115
12, 88656, Note_off_c, 9, 40, 0
12, 88656, Note_off_c, 9, 38, 0
12, 88700, Note_on_c, 9, 36, 120
12, 88704, Note_off_c, 9, 36, 0
12, 88892, Note_on_c, 9, 36, 120
12, 88892, Note_on_c, 9, 38, 127
12, 88892, Note_on_c, 9, 40, 115
12, 88896, Note_off_c, 9, 40, 0
12, 88896, Note_off_c, 9, 38, 0
12, 88896, Note_off_c, 9, 36, 0
12, 89084, Note_on_c, 9, 36, 120
12, 89088, Note_off_c, 9, 36, 0
12, 89276, Note_on_c, 9, 36, 120
12, 89276, Note_on_c, 9, 38, 127
12, 89276, Note_on_c, 9, 40, 115
12, 89280, Note_off_c, 9, 40, 0
12, 89280, Note_off_c, 9, 38, 0
12, 89280, Note_off_c, 9, 36, 0
12, 89468, Note_on_c, 9, 36, 120
12, 89472, Note_off_c, 9, 36, 0
12, 89564, Note_on_c, 9, 38, 127
12, 89564, Note_on_c, 9, 40, 115
12, 89568, Note_off_c, 9, 40, 0
12, 89568, Note_off_c, 9, 38, 0
12, 89612, Note_on_c, 9, 38, 107
12, 89612, Note_on_c, 9, 40, 95
12, 89616, Note_off_c, 9, 40, 0
12, 89616, Note_off_c, 9, 38, 0
12, 89660, Note_on_c, 9, 36, 120
12, 89660, Note_on_c, 9, 38, 127
12, 89660, Note_on_c, 9, 40, 115
12, 89664, Note_off_c, 9, 40, 0
12, 89664, Note_off_c, 9, 38, 0
12, 89664, Note_off_c, 9, 36, 0
12, 89708, Note_on_c, 9, 38, 127
12, 89708, Note_on_c, 9, 40, 115
12, 89712, Note_off_c, 9, 40, 0
12, 89712, Note_off_c, 9, 38, 0
12, 89756, Note_on_c, 9, 38, 127
12, 89756, Note_on_c, 9, 40, 115
12, 89760, Note_off_c, 9, 40, 0
12, 89760, Note_off_c, 9, 38, 0
12, 89804, Note_on_c, 9, 38, 127
12, 89804, Note_on_c, 9, 40, 115
12, 89808, Note_off_c, 9, 40, 0
12, 89808, Note_off_c, 9, 38, 0
12, 89852, Note_on_c, 9, 36, 120
12, 89856, Note_off_c, 9, 36, 0
12, 90044, Note_on_c, 9, 36, 120
12, 90044, Note_on_c, 9, 38, 127
12, 90044, Note_on_c, 9, 40, 115
12, 90044, Note_on_c, 9, 39, 127
12, 90048, Note_off_c, 9, 39, 0
12, 90048, Note_off_c, 9, 40, 0
12, 90048, Note_off_c, 9, 38, 0
12, 90048, Note_off_c, 9, 36, 0
12, 90236, Note_on_c, 9, 36, 120
12, 90240, Note_off_c, 9, 36, 0
12, 90428, Note_on_c, 9, 36, 120
12, 90428, Note_on_c, 9, 38, 127
12, 90428, Note_on_c, 9, 40, 115
12, 90432, Note_off_c, 9, 40, 0
12, 90432, Note_off_c, 9, 38, 0
12, 90432, Note_off_c, 9, 36, 0
12, 90620, Note_on_c, 9, 36, 120
12, 90624, Note_off_c, 9, 36, 0
12, 90812, Note_on_c, 9, 36, 120
12, 90812, Note_on_c, 9, 38, 127
12, 90812, Note_on_c, 9, 40, 115
12, 90816, Note_off_c, 9, 40, 0
12, 90816, Note_off_c, 9, 38, 0
12, 90816, Note_off_c, 9, 36, 0
12, 91004, Note_on_c, 9, 36, 120
12, 91008, Note_off_c, 9, 36, 0
12, 91196, Note_on_c, 9, 36, 120
12, 91196, Note_on_c, 9, 38, 127
12, 91196, Note_on_c, 9, 40, 115
12, 91200, Note_off_c, 9, 40, 0
12, 91200, Note_off_c, 9, 38, 0
12, 91200, Note_off_c, 9, 36, 0
12, 91388, Note_on_c, 9, 36, 120
12, 91392, Note_off_c, 9, 36, 0
12, 91580, Note_on_c, 9, 36, 120
12, 91580, Note_on_c, 9, 38, 127
12, 91580, Note_on_c, 9, 40, 115
12, 91584, Note_off_c, 9, 40, 0
12, 91584, Note_off_c, 9, 38, 0
12, 91584, Note_off_c, 9, 36, 0
12, 91772, Note_on_c, 9, 36, 120
12, 91776, Note_off_c, 9, 36, 0
12, 91820, Note_on_c, 9, 38, 127
12, 91820, Note_on_c, 9, 40, 115
12, 91824, Note_off_c, 9, 40, 0
12, 91824, Note_off_c, 9, 38, 0
12, 91964, Note_on_c, 9, 36, 120
12, 91964, Note_on_c, 9, 38, 127
12, 91964, Note_on_c, 9, 40, 115
12, 91968, Note_off_c, 9, 40, 0
12, 91968, Note_off_c, 9, 38, 0
12, 91968, Note_off_c, 9, 36, 0
12, 92156, Note_on_c, 9, 36, 120
12, 92156, Note_on_c, 9, 38, 127
12, 92156, Note_on_c, 9, 40, 115
12, 92160, Note_off_c, 9, 40, 0
12, 92160, Note_off_c, 9, 38, 0
12, 92160, Note_off_c, 9, 36, 0
12, 92252, Note_on_c, 9, 38, 127
12, 92252, Note_on_c, 9, 40, 115
12, 92256, Note_off_c, 9, 40, 0
12, 92256, Note_off_c, 9, 38, 0
12, 92348, Note_on_c, 9, 36, 120
12, 92348, Note_on_c, 9, 38, 127
12, 92348, Note_on_c, 9, 40, 115
12, 92352, Note_off_c, 9, 40, 0
12, 92352, Note_off_c, 9, 38, 0
12, 92352, Note_off_c, 9, 36, 0
12, 92444, Note_on_c, 9, 38, 127
12, 92444, Note_on_c, 9, 40, 115
12, 92448, Note_off_c, 9, 40, 0
12, 92448, Note_off_c, 9, 38, 0
12, 92540, Note_on_c, 9, 36, 120
12, 92540, Note_on_c, 9, 38, 127
12, 92540, Note_on_c, 9, 40, 115
12, 92544, Note_off_c, 9, 40, 0
12, 92544, Note_off_c, 9, 38, 0
12, 92544, Note_off_c, 9, 36, 0
12, 92588, Note_on_c, 9, 38, 127
12, 92588, Note_on_c, 9, 40, 115
12, 92592, Note_off_c, 9, 40, 0
12, 92592, Note_off_c, 9, 38, 0
12, 92636, Note_on_c, 9, 38, 127
12, 92636, Note_on_c, 9, 40, 115
12, 92636, Note_on_c, 9, 47, 99
12, 92640, Note_off_c, 9, 47, 0
12, 92640, Note_off_c, 9, 40, 0
12, 92640, Note_off_c, 9, 38, 0
12, 92684, Note_on_c, 9, 38, 127
12, 92684, Note_on_c, 9, 40, 115
12, 92684, Note_on_c, 9, 45, 99
12, 92688, Note_off_c, 9, 45, 0
12, 92688, Note_off_c, 9, 40, 0
12, 92688, Note_off_c, 9, 38, 0
12, 92732, Note_on_c, 9, 36, 120
12, 92736, Note_off_c, 9, 36, 0
12, 92828, Note_on_c, 9, 38, 127
12, 92828, Note_on_c, 9, 40, 115
12, 92828, Note_on_c, 9, 43, 99
12, 92832, Note_off_c, 9, 43, 0
12, 92832, Note_off_c, 9, 40, 0
12, 92832, Note_off_c, 9, 38, 0
12, 92876, Note_on_c, 9, 38, 127
12, 92876, Note_on_c, 9, 40, 115
12, 92876, Note_on_c, 9, 41, 99
12, 92880, Note_off_c, 9, 41, 0
12, 92880, Note_off_c, 9, 40, 0
12, 92880, Note_off_c, 9, 38, 0
12, 92924, Note_on_c, 9, 36, 120
12, 92928, Note_off_c, 9, 36, 0
12, 93116, Note_on_c, 9, 36, 120
12, 93116, Note_on_c, 9, 38, 127
12, 93116, Note_on_c, 9, 40, 115
12, 93120, Note_off_c, 9, 40, 0
12, 93120, Note_off_c, 9, 38, 0
12, 93120, Note_off_c, 9, 36, 0
12, 93260, Note_on_c, 9, 38, 107
12, 93260, Note_on_c, 9, 40, 95
12, 93264, Note_off_c, 9, 40, 0
12, 93264, Note_off_c, 9, 38, 0
12, 93308, Note_on_c, 9, 36, 120
12, 93312, Note_off_c, 9, 36, 0
12, 93500, Note_on_c, 9, 36, 120
12, 93500, Note_on_c, 9, 38, 127
12, 93500, Note_on_c, 9, 40, 115
12, 93504, Note_off_c, 9, 40, 0
12, 93504, Note_off_c, 9, 38, 0
12, 93504, Note_off_c, 9, 36, 0
12, 93692, Note_on_c, 9, 36, 120
12, 93696, Note_off_c, 9, 36, 0
12, 93884, Note_on_c, 9, 36, 120
12, 93884, Note_on_c, 9, 38, 127
12, 93884, Note_on_c, 9, 40, 115
12, 93888, Note_off_c, 9, 40, 0
12, 93888, Note_off_c, 9, 38, 0
12, 93888, Note_off_c, 9, 36, 0
12, 94076, Note_on_c, 9, 36, 120
12, 94080, Note_off_c, 9, 36, 0
12, 94268, Note_on_c, 9, 36, 120
12, 94268, Note_on_c, 9, 38, 127
12, 94268, Note_on_c, 9, 40, 115
12, 94272, Note_off_c, 9, 40, 0
12, 94272, Note_off_c, 9, 38, 0
12, 94272, Note_off_c, 9, 36, 0
12, 94460, Note_on_c, 9, 36, 120
12, 94464, Note_off_c, 9, 36, 0
12, 94652, Note_on_c, 9, 36, 120
12, 94652, Note_on_c, 9, 38, 127
12, 94652, Note_on_c, 9, 40, 115
12, 94656, Note_off_c, 9, 40, 0
12, 94656, Note_off_c, 9, 38, 0
12, 94656, Note_off_c, 9, 36, 0
12, 94748, Note_on_c, 9, 38, 127
12, 94748, Note_on_c, 9, 40, 115
12, 94752, Note_off_c, 9, 40, 0
12, 94752, Note_off_c, 9, 38, 0
12, 94844, Note_on_c, 9, 36, 120
12, 94844, Note_on_c, 9, 38, 127
12, 94844, Note_on_c, 9, 40, 115
12, 94848, Note_off_c, 9, 40, 0
12, 94848, Note_off_c, 9, 38, 0
12, 94848, Note_off_c, 9, 36, 0
12, 94940, Note_on_c, 9, 38, 127
12, 94940, Note_on_c, 9, 40, 115
12, 94944, Note_off_c, 9, 40, 0
12, 94944, Note_off_c, 9, 38, 0
12, 94988, Note_on_c, 9, 38, 127
12, 94988, Note_on_c, 9, 40, 115
12, 94992, Note_off_c, 9, 40, 0
12, 94992, Note_off_c, 9, 38, 0
12, 95036, Note_on_c, 9, 36, 120
12, 95036, Note_on_c, 9, 38, 127
12, 95036, Note_on_c, 9, 40, 115
12, 95036, Note_on_c, 9, 45, 99
12, 95040, Note_off_c, 9, 45, 0
12, 95040, Note_off_c, 9, 40, 0
12, 95040, Note_off_c, 9, 38, 0
12, 95040, Note_off_c, 9, 36, 0
12, 95084, Note_on_c, 9, 43, 99
12, 95088, Note_off_c, 9, 43, 0
12, 95132, Note_on_c, 9, 41, 99
12, 95136, Note_off_c, 9, 41, 0
12, 95228, Note_on_c, 9, 36, 120
12, 95228, Note_on_c, 9, 38, 127
12, 95228, Note_on_c, 9, 40, 115
12, 95232, Note_off_c, 9, 40, 0
12, 95232, Note_off_c, 9, 38, 0
12, 95232, Note_off_c, 9, 36, 0
12, 95324, Note_on_c, 9, 38, 127
12, 95324, Note_on_c, 9, 40, 115
12, 95328, Note_off_c, 9, 40, 0
12, 95328, Note_off_c, 9, 38, 0
12, 95420, Note_on_c, 9, 36, 120
12, 95420, Note_on_c, 9, 38, 127
12, 95420, Note_on_c, 9, 40, 115
12, 95424, Note_off_c, 9, 40, 0
12, 95424, Note_off_c, 9, 38, 0
12, 95424, Note_off_c, 9, 36, 0
12, 95516, Note_on_c, 9, 38, 127
12, 95516, Note_on_c, 9, 40, 115
12, 95520, Note_off_c, 9, 40, 0
12, 95520, Note_off_c, 9, 38, 0
12, 95612, Note_on_c, 9, 36, 120
12, 95612, Note_on_c, 9, 38, 127
12, 95612, Note_on_c, 9, 40, 115
12, 95616, Note_off_c, 9, 40, 0
12, 95616, Note_off_c, 9, 38, 0
12, 95616, Note_off_c, 9, 36, 0
12, 95756, Note_on_c, 9, 36, 120
12, 95756, Note_on_c, 9, 38, 127
12, 95756, Note_on_c, 9, 40, 115
12, 95760, Note_off_c, 9, 40, 0
12, 95760, Note_off_c, 9, 38, 0
12, 95760, Note_off_c, 9, 36, 0
12, 95760, End_track
13, 0, Start_track
13, 0, Title_t, "job"
13, 0, Channel_prefix, 9
13, 0, Control_c, 9, 7, 100
13, 0, Program_c, 9, 117
13, 0, Control_c, 9, 0, 0
13, 3836, Note_on_c, 9, 49, 80
13, 3836, Note_on_c, 9, 57, 80
13, 3836, Note_on_c, 9, 42, 65
13, 3840, Note_off_c, 9, 42, 0
13, 3840, Note_off_c, 9, 57, 0
13, 3840, Note_off_c, 9, 49, 0
13, 3884, Note_on_c, 9, 42, 65
13, 3888, Note_off_c, 9, 42, 0
13, 3932, Note_on_c, 9, 44, 105
13, 3936, Note_off_c, 9, 44, 0
13, 3980, Note_on_c, 9, 42, 65
13, 3984, Note_off_c, 9, 42, 0
13, 4028, Note_on_c, 9, 42, 65
13, 4032, Note_off_c, 9, 42, 0
13, 4076, Note_on_c, 9, 42, 65
13, 4080, Note_off_c, 9, 42, 0
13, 4124, Note_on_c, 9, 44, 105
13, 4128, Note_off_c, 9, 44, 0
13, 4172, Note_on_c, 9, 42, 65
13, 4176, Note_off_c, 9, 42, 0
13, 4220, Note_on_c, 9, 42, 65
13, 4224, Note_off_c, 9, 42, 0
13, 4268, Note_on_c, 9, 42, 65
13, 4272, Note_off_c, 9, 42, 0
13, 4316, Note_on_c, 9, 44, 105
13, 4320, Note_off_c, 9, 44, 0
13, 4364, Note_on_c, 9, 42, 65
13, 4368, Note_off_c, 9, 42, 0
13, 4412, Note_on_c, 9, 42, 65
13, 4416, Note_off_c, 9, 42, 0
13, 4460, Note_on_c, 9, 42, 65
13, 4464, Note_off_c, 9, 42, 0
13, 4508, Note_on_c, 9, 44, 105
13, 4512, Note_off_c, 9, 44, 0
13, 4556, Note_on_c, 9, 42, 65
13, 4560, Note_off_c, 9, 42, 0
13, 4604, Note_on_c, 9, 42, 65
13, 4608, Note_off_c, 9, 42, 0
13, 4652, Note_on_c, 9, 42, 65
13, 4656, Note_off_c, 9, 42, 0
13, 4700, Note_on_c, 9, 44, 105
13, 4704, Note_off_c, 9, 44, 0
13, 4748, Note_on_c, 9, 42, 65
13, 4752, Note_off_c, 9, 42, 0
13, 4796, Note_on_c, 9, 42, 65
13, 4800, Note_off_c, 9, 42, 0
13, 4844, Note_on_c, 9, 42, 65
13, 4848, Note_off_c, 9, 42, 0
13, 4892, Note_on_c, 9, 44, 105
13, 4896, Note_off_c, 9, 44, 0
13, 4940, Note_on_c, 9, 42, 65
13, 4944, Note_off_c, 9, 42, 0
13, 4988, Note_on_c, 9, 42, 65
13, 4992, Note_off_c, 9, 42, 0
13, 5036, Note_on_c, 9, 42, 65
13, 5040, Note_off_c, 9, 42, 0
13, 5084, Note_on_c, 9, 44, 105
13, 5088, Note_off_c, 9, 44, 0
13, 5132, Note_on_c, 9, 42, 65
13, 5136, Note_off_c, 9, 42, 0
13, 5180, Note_on_c, 9, 42, 65
13, 5184, Note_off_c, 9, 42, 0
13, 5228, Note_on_c, 9, 42, 65
13, 5232, Note_off_c, 9, 42, 0
13, 5276, Note_on_c, 9, 44, 105
13, 5280, Note_off_c, 9, 44, 0
13, 5324, Note_on_c, 9, 42, 65
13, 5328, Note_off_c, 9, 42, 0
13, 5372, Note_on_c, 9, 42, 65
13, 5376, Note_off_c, 9, 42, 0
13, 5420, Note_on_c, 9, 42, 65
13, 5424, Note_off_c, 9, 42, 0
13, 5468, Note_on_c, 9, 44, 105
13, 5472, Note_off_c, 9, 44, 0
13, 5516, Note_on_c, 9, 42, 65
13, 5520, Note_off_c, 9, 42, 0
13, 5564, Note_on_c, 9, 42, 65
13, 5568, Note_off_c, 9, 42, 0
13, 5612, Note_on_c, 9, 42, 65
13, 5616, Note_off_c, 9, 42, 0
13, 5660, Note_on_c, 9, 44, 105
13, 5664, Note_off_c, 9, 44, 0
13, 5708, Note_on_c, 9, 42, 65
13, 5712, Note_off_c, 9, 42, 0
13, 5756, Note_on_c, 9, 42, 65
13, 5760, Note_off_c, 9, 42, 0
13, 5804, Note_on_c, 9, 42, 65
13, 5808, Note_off_c, 9, 42, 0
13, 5852, Note_on_c, 9, 44, 105
13, 5856, Note_off_c, 9, 44, 0
13, 5900, Note_on_c, 9, 42, 65
13, 5904, Note_off_c, 9, 42, 0
13, 5948, Note_on_c, 9, 42, 65
13, 5952, Note_off_c, 9, 42, 0
13, 5996, Note_on_c, 9, 42, 65
13, 6000, Note_off_c, 9, 42, 0
13, 6044, Note_on_c, 9, 44, 105
13, 6048, Note_off_c, 9, 44, 0
13, 6092, Note_on_c, 9, 42, 65
13, 6096, Note_off_c, 9, 42, 0
13, 6140, Note_on_c, 9, 42, 65
13, 6144, Note_off_c, 9, 42, 0
13, 6188, Note_on_c, 9, 42, 65
13, 6192, Note_off_c, 9, 42, 0
13, 6236, Note_on_c, 9, 44, 105
13, 6240, Note_off_c, 9, 44, 0
13, 6284, Note_on_c, 9, 42, 65
13, 6288, Note_off_c, 9, 42, 0
13, 6332, Note_on_c, 9, 42, 65
13, 6336, Note_off_c, 9, 42, 0
13, 6380, Note_on_c, 9, 42, 65
13, 6384, Note_off_c, 9, 42, 0
13, 6428, Note_on_c, 9, 44, 105
13, 6432, Note_off_c, 9, 44, 0
13, 6476, Note_on_c, 9, 42, 65
13, 6480, Note_off_c, 9, 42, 0
13, 6524, Note_on_c, 9, 42, 65
13, 6528, Note_off_c, 9, 42, 0
13, 6572, Note_on_c, 9, 42, 65
13, 6576, Note_off_c, 9, 42, 0
13, 6620, Note_on_c, 9, 44, 105
13, 6624, Note_off_c, 9, 44, 0
13, 6668, Note_on_c, 9, 42, 65
13, 6672, Note_off_c, 9, 42, 0
13, 6716, Note_on_c, 9, 42, 65
13, 6720, Note_off_c, 9, 42, 0
13, 6764, Note_on_c, 9, 42, 65
13, 6768, Note_off_c, 9, 42, 0
13, 6812, Note_on_c, 9, 44, 105
13, 6816, Note_off_c, 9, 44, 0
13, 6860, Note_on_c, 9, 42, 65
13, 6864, Note_off_c, 9, 42, 0
13, 6908, Note_on_c, 9, 49, 80
13, 6908, Note_on_c, 9, 57, 80
13, 6908, Note_on_c, 9, 42, 65
13, 6912, Note_off_c, 9, 42, 0
13, 6912, Note_off_c, 9, 57, 0
13, 6912, Note_off_c, 9, 49, 0
13, 6956, Note_on_c, 9, 42, 65
13, 6960, Note_off_c, 9, 42, 0
13, 7004, Note_on_c, 9, 44, 105
13, 7008, Note_off_c, 9, 44, 0
13, 7052, Note_on_c, 9, 42, 65
13, 7056, Note_off_c, 9, 42, 0
13, 7100, Note_on_c, 9, 42, 65
13, 7104, Note_off_c, 9, 42, 0
13, 7148, Note_on_c, 9, 42, 65
13, 7152, Note_off_c, 9, 42, 0
13, 7196, Note_on_c, 9, 44, 105
13, 7200, Note_off_c, 9, 44, 0
13, 7244, Note_on_c, 9, 42, 65
13, 7248, Note_off_c, 9, 42, 0
13, 7292, Note_on_c, 9, 42, 65
13, 7296, Note_off_c, 9, 42, 0
13, 7340, Note_on_c, 9, 42, 65
13, 7344, Note_off_c, 9, 42, 0
13, 7388, Note_on_c, 9, 44, 105
13, 7392, Note_off_c, 9, 44, 0
13, 7436, Note_on_c, 9, 42, 65
13, 7440, Note_off_c, 9, 42, 0
13, 7484, Note_on_c, 9, 42, 65
13, 7488, Note_off_c, 9, 42, 0
13, 7532, Note_on_c, 9, 42, 65
13, 7536, Note_off_c, 9, 42, 0
13, 7580, Note_on_c, 9, 44, 105
13, 7584, Note_off_c, 9, 44, 0
13, 7628, Note_on_c, 9, 42, 65
13, 7632, Note_off_c, 9, 42, 0
13, 7676, Note_on_c, 9, 42, 65
13, 7680, Note_off_c, 9, 42, 0
13, 7724, Note_on_c, 9, 42, 65
13, 7728, Note_off_c, 9, 42, 0
13, 7772, Note_on_c, 9, 44, 105
13, 7776, Note_off_c, 9, 44, 0
13, 7820, Note_on_c, 9, 42, 65
13, 7824, Note_off_c, 9, 42, 0
13, 7868, Note_on_c, 9, 42, 65
13, 7872, Note_off_c, 9, 42, 0
13, 7916, Note_on_c, 9, 42, 65
13, 7920, Note_off_c, 9, 42, 0
13, 7964, Note_on_c, 9, 44, 105
13, 7968, Note_off_c, 9, 44, 0
13, 8012, Note_on_c, 9, 42, 65
13, 8016, Note_off_c, 9, 42, 0
13, 8060, Note_on_c, 9, 42, 65
13, 8064, Note_off_c, 9, 42, 0
13, 8108, Note_on_c, 9, 42, 65
13, 8112, Note_off_c, 9, 42, 0
13, 8156, Note_on_c, 9, 44, 105
13, 8160, Note_off_c, 9, 44, 0
13, 8204, Note_on_c, 9, 42, 65
13, 8208, Note_off_c, 9, 42, 0
13, 8252, Note_on_c, 9, 42, 65
13, 8256, Note_off_c, 9, 42, 0
13, 8300, Note_on_c, 9, 42, 65
13, 8304, Note_off_c, 9, 42, 0
13, 8348, Note_on_c, 9, 44, 105
13, 8352, Note_off_c, 9, 44, 0
13, 8396, Note_on_c, 9, 42, 65
13, 8400, Note_off_c, 9, 42, 0
13, 8444, Note_on_c, 9, 42, 65
13, 8448, Note_off_c, 9, 42, 0
13, 8492, Note_on_c, 9, 42, 65
13, 8496, Note_off_c, 9, 42, 0
13, 8540, Note_on_c, 9, 44, 105
13, 8544, Note_off_c, 9, 44, 0
13, 8588, Note_on_c, 9, 42, 65
13, 8592, Note_off_c, 9, 42, 0
13, 8636, Note_on_c, 9, 42, 65
13, 8640, Note_off_c, 9, 42, 0
13, 8684, Note_on_c, 9, 42, 65
13, 8688, Note_off_c, 9, 42, 0
13, 8732, Note_on_c, 9, 44, 105
13, 8736, Note_off_c, 9, 44, 0
13, 8780, Note_on_c, 9, 42, 65
13, 8784, Note_off_c, 9, 42, 0
13, 8828, Note_on_c, 9, 42, 65
13, 8832, Note_off_c, 9, 42, 0
13, 8876, Note_on_c, 9, 42, 65
13, 8880, Note_off_c, 9, 42, 0
13, 8924, Note_on_c, 9, 44, 105
13, 8928, Note_off_c, 9, 44, 0
13, 8972, Note_on_c, 9, 42, 65
13, 8976, Note_off_c, 9, 42, 0
13, 9020, Note_on_c, 9, 42, 65
13, 9024, Note_off_c, 9, 42, 0
13, 9068, Note_on_c, 9, 42, 65
13, 9072, Note_off_c, 9, 42, 0
13, 9116, Note_on_c, 9, 44, 105
13, 9120, Note_off_c, 9, 44, 0
13, 9164, Note_on_c, 9, 42, 65
13, 9168, Note_off_c, 9, 42, 0
13, 9212, Note_on_c, 9, 42, 65
13, 9216, Note_off_c, 9, 42, 0
13, 9260, Note_on_c, 9, 42, 65
13, 9264, Note_off_c, 9, 42, 0
13, 9308, Note_on_c, 9, 44, 105
13, 9312, Note_off_c, 9, 44, 0
13, 9356, Note_on_c, 9, 42, 65
13, 9360, Note_off_c, 9, 42, 0
13, 9404, Note_on_c, 9, 42, 65
13, 9408, Note_off_c, 9, 42, 0
13, 9428, Note_on_c, 9, 42, 55
13, 9432, Note_off_c, 9, 42, 0
13, 9452, Note_on_c, 9, 42, 65
13, 9456, Note_off_c, 9, 42, 0
13, 9500, Note_on_c, 9, 44, 105
13, 9504, Note_off_c, 9, 44, 0
13, 9548, Note_on_c, 9, 42, 65
13, 9552, Note_off_c, 9, 42, 0
13, 9596, Note_on_c, 9, 42, 65
13, 9600, Note_off_c, 9, 42, 0
13, 9620, Note_on_c, 9, 42, 55
13, 9624, Note_off_c, 9, 42, 0
13, 9644, Note_on_c, 9, 42, 65
13, 9648, Note_off_c, 9, 42, 0
13, 9692, Note_on_c, 9, 44, 105
13, 9696, Note_off_c, 9, 44, 0
13, 9740, Note_on_c, 9, 42, 65
13, 9744, Note_off_c, 9, 42, 0
13, 9788, Note_on_c, 9, 42, 65
13, 9792, Note_off_c, 9, 42, 0
13, 9812, Note_on_c, 9, 42, 55
13, 9816, Note_off_c, 9, 42, 0
13, 9836, Note_on_c, 9, 42, 65
13, 9840, Note_off_c, 9, 42, 0
13, 9884, Note_on_c, 9, 46, 85
13, 9976, Note_off_c, 9, 46, 0
13, 9980, Note_on_c, 9, 57, 70
13, 9980, Note_on_c, 9, 42, 65
13, 9984, Note_off_c, 9, 42, 0
13, 9984, Note_off_c, 9, 57, 0
13, 10028, Note_on_c, 9, 42, 65
13, 10032, Note_off_c, 9, 42, 0
13, 10076, Note_on_c, 9, 44, 105
13, 10080, Note_off_c, 9, 44, 0
13, 10124, Note_on_c, 9, 42, 65
13, 10128, Note_off_c, 9, 42, 0
13, 10172, Note_on_c, 9, 42, 65
13, 10176, Note_off_c, 9, 42, 0
13, 10220, Note_on_c, 9, 42, 65
13, 10224, Note_off_c, 9, 42, 0
13, 10268, Note_on_c, 9, 44, 105
13, 10272, Note_off_c, 9, 44, 0
13, 10316, Note_on_c, 9, 42, 65
13, 10320, Note_off_c, 9, 42, 0
13, 10364, Note_on_c, 9, 42, 65
13, 10368, Note_off_c, 9, 42, 0
13, 10412, Note_on_c, 9, 42, 65
13, 10416, Note_off_c, 9, 42, 0
13, 10460, Note_on_c, 9, 44, 105
13, 10464, Note_off_c, 9, 44, 0
13, 10508, Note_on_c, 9, 42, 65
13, 10512, Note_off_c, 9, 42, 0
13, 10556, Note_on_c, 9, 42, 65
13, 10560, Note_off_c, 9, 42, 0
13, 10604, Note_on_c, 9, 42, 65
13, 10608, Note_off_c, 9, 42, 0
13, 10652, Note_on_c, 9, 44, 105
13, 10656, Note_off_c, 9, 44, 0
13, 10700, Note_on_c, 9, 42, 65
13, 10704, Note_off_c, 9, 42, 0
13, 10748, Note_on_c, 9, 42, 65
13, 10752, Note_off_c, 9, 42, 0
13, 10796, Note_on_c, 9, 42, 65
13, 10800, Note_off_c, 9, 42, 0
13, 10844, Note_on_c, 9, 44, 105
13, 10848, Note_off_c, 9, 44, 0
13, 10892, Note_on_c, 9, 42, 65
13, 10896, Note_off_c, 9, 42, 0
13, 10940, Note_on_c, 9, 42, 65
13, 10944, Note_off_c, 9, 42, 0
13, 10988, Note_on_c, 9, 42, 65
13, 10992, Note_off_c, 9, 42, 0
13, 11036, Note_on_c, 9, 44, 105
13, 11040, Note_off_c, 9, 44, 0
13, 11084, Note_on_c, 9, 42, 65
13, 11088, Note_off_c, 9, 42, 0
13, 11132, Note_on_c, 9, 42, 65
13, 11136, Note_off_c, 9, 42, 0
13, 11180, Note_on_c, 9, 42, 65
13, 11184, Note_off_c, 9, 42, 0
13, 11228, Note_on_c, 9, 44, 105
13, 11232, Note_off_c, 9, 44, 0
13, 11276, Note_on_c, 9, 42, 65
13, 11280, Note_off_c, 9, 42, 0
13, 11324, Note_on_c, 9, 42, 65
13, 11328, Note_off_c, 9, 42, 0
13, 11372, Note_on_c, 9, 42, 65
13, 11376, Note_off_c, 9, 42, 0
13, 11420, Note_on_c, 9, 44, 105
13, 11424, Note_off_c, 9, 44, 0
13, 11468, Note_on_c, 9, 42, 65
13, 11472, Note_off_c, 9, 42, 0
13, 11516, Note_on_c, 9, 42, 65
13, 11520, Note_off_c, 9, 42, 0
13, 11564, Note_on_c, 9, 42, 65
13, 11568, Note_off_c, 9, 42, 0
13, 11612, Note_on_c, 9, 44, 105
13, 11616, Note_off_c, 9, 44, 0
13, 11660, Note_on_c, 9, 42, 65
13, 11664, Note_off_c, 9, 42, 0
13, 11708, Note_on_c, 9, 42, 65
13, 11712, Note_off_c, 9, 42, 0
13, 11756, Note_on_c, 9, 42, 65
13, 11760, Note_off_c, 9, 42, 0
13, 11804, Note_on_c, 9, 44, 105
13, 11808, Note_off_c, 9, 44, 0
13, 11852, Note_on_c, 9, 42, 65
13, 11856, Note_off_c, 9, 42, 0
13, 11900, Note_on_c, 9, 42, 65
13, 11904, Note_off_c, 9, 42, 0
13, 11948, Note_on_c, 9, 42, 65
13, 11952, Note_off_c, 9, 42, 0
13, 11996, Note_on_c, 9, 44, 105
13, 12000, Note_off_c, 9, 44, 0
13, 12044, Note_on_c, 9, 42, 65
13, 12048, Note_off_c, 9, 42, 0
13, 12092, Note_on_c, 9, 42, 65
13, 12096, Note_off_c, 9, 42, 0
13, 12140, Note_on_c, 9, 42, 65
13, 12144, Note_off_c, 9, 42, 0
13, 12188, Note_on_c, 9, 44, 105
13, 12192, Note_off_c, 9, 44, 0
13, 12236, Note_on_c, 9, 42, 65
13, 12240, Note_off_c, 9, 42, 0
13, 12284, Note_on_c, 9, 57, 70
13, 12284, Note_on_c, 9, 42, 65
13, 12288, Note_off_c, 9, 42, 0
13, 12288, Note_off_c, 9, 57, 0
13, 12332, Note_on_c, 9, 42, 65
13, 12336, Note_off_c, 9, 42, 0
13, 12380, Note_on_c, 9, 44, 105
13, 12384, Note_off_c, 9, 44, 0
13, 12428, Note_on_c, 9, 42, 65
13, 12432, Note_off_c, 9, 42, 0
13, 12476, Note_on_c, 9, 42, 65
13, 12480, Note_off_c, 9, 42, 0
13, 12524, Note_on_c, 9, 42, 65
13, 12528, Note_off_c, 9, 42, 0
13, 12572, Note_on_c, 9, 44, 105
13, 12576, Note_off_c, 9, 44, 0
13, 12620, Note_on_c, 9, 42, 65
13, 12624, Note_off_c, 9, 42, 0
13, 12668, Note_on_c, 9, 49, 70
13, 12668, Note_on_c, 9, 57, 70
13, 12668, Note_on_c, 9, 42, 65
13, 12672, Note_off_c, 9, 42, 0
13, 12672, Note_off_c, 9, 57, 0
13, 12672, Note_off_c, 9, 49, 0
13, 12716, Note_on_c, 9, 42, 65
13, 12720, Note_off_c, 9, 42, 0
13, 12764, Note_on_c, 9, 44, 105
13, 12768, Note_off_c, 9, 44, 0
13, 12812, Note_on_c, 9, 42, 65
13, 12816, Note_off_c, 9, 42, 0
13, 12860, Note_on_c, 9, 42, 65
13, 12864, Note_off_c, 9, 42, 0
13, 12908, Note_on_c, 9, 42, 65
13, 12912, Note_off_c, 9, 42, 0
13, 12956, Note_on_c, 9, 44, 105
13, 12960, Note_off_c, 9, 44, 0
13, 13004, Note_on_c, 9, 42, 65
13, 13008, Note_off_c, 9, 42, 0
13, 13052, Note_on_c, 9, 49, 70
13, 13052, Note_on_c, 9, 42, 65
13, 13056, Note_off_c, 9, 42, 0
13, 13056, Note_off_c, 9, 49, 0
13, 13100, Note_on_c, 9, 42, 65
13, 13104, Note_off_c, 9, 42, 0
13, 13148, Note_on_c, 9, 44, 105
13, 13152, Note_off_c, 9, 44, 0
13, 13196, Note_on_c, 9, 42, 65
13, 13200, Note_off_c, 9, 42, 0
13, 13244, Note_on_c, 9, 42, 65
13, 13248, Note_off_c, 9, 42, 0
13, 13292, Note_on_c, 9, 42, 65
13, 13296, Note_off_c, 9, 42, 0
13, 13340, Note_on_c, 9, 44, 105
13, 13344, Note_off_c, 9, 44, 0
13, 13388, Note_on_c, 9, 42, 65
13, 13392, Note_off_c, 9, 42, 0
13, 13436, Note_on_c, 9, 42, 65
13, 13440, Note_off_c, 9, 42, 0
13, 13484, Note_on_c, 9, 42, 65
13, 13488, Note_off_c, 9, 42, 0
13, 13532, Note_on_c, 9, 44, 105
13, 13536, Note_off_c, 9, 44, 0
13, 13580, Note_on_c, 9, 42, 65
13, 13584, Note_off_c, 9, 42, 0
13, 13628, Note_on_c, 9, 42, 65
13, 13632, Note_off_c, 9, 42, 0
13, 13676, Note_on_c, 9, 42, 65
13, 13680, Note_off_c, 9, 42, 0
13, 13724, Note_on_c, 9, 44, 105
13, 13728, Note_off_c, 9, 44, 0
13, 13772, Note_on_c, 9, 42, 65
13, 13776, Note_off_c, 9, 42, 0
13, 13820, Note_on_c, 9, 42, 65
13, 13824, Note_off_c, 9, 42, 0
13, 13868, Note_on_c, 9, 42, 65
13, 13872, Note_off_c, 9, 42, 0
13, 13916, Note_on_c, 9, 44, 105
13, 13920, Note_off_c, 9, 44, 0
13, 13964, Note_on_c, 9, 42, 65
13, 13968, Note_off_c, 9, 42, 0
13, 14012, Note_on_c, 9, 42, 65
13, 14016, Note_off_c, 9, 42, 0
13, 14060, Note_on_c, 9, 42, 65
13, 14064, Note_off_c, 9, 42, 0
13, 14108, Note_on_c, 9, 44, 105
13, 14112, Note_off_c, 9, 44, 0
13, 14156, Note_on_c, 9, 42, 65
13, 14160, Note_off_c, 9, 42, 0
13, 14204, Note_on_c, 9, 42, 65
13, 14208, Note_off_c, 9, 42, 0
13, 14252, Note_on_c, 9, 42, 65
13, 14256, Note_off_c, 9, 42, 0
13, 14300, Note_on_c, 9, 44, 105
13, 14304, Note_off_c, 9, 44, 0
13, 14348, Note_on_c, 9, 42, 65
13, 14352, Note_off_c, 9, 42, 0
13, 14396, Note_on_c, 9, 42, 65
13, 14400, Note_off_c, 9, 42, 0
13, 14444, Note_on_c, 9, 42, 65
13, 14448, Note_off_c, 9, 42, 0
13, 14492, Note_on_c, 9, 44, 105
13, 14496, Note_off_c, 9, 44, 0
13, 14540, Note_on_c, 9, 42, 65
13, 14544, Note_off_c, 9, 42, 0
13, 14588, Note_on_c, 9, 42, 65
13, 14592, Note_off_c, 9, 42, 0
13, 14636, Note_on_c, 9, 42, 65
13, 14640, Note_off_c, 9, 42, 0
13, 14684, Note_on_c, 9, 44, 105
13, 14688, Note_off_c, 9, 44, 0
13, 14732, Note_on_c, 9, 42, 65
13, 14736, Note_off_c, 9, 42, 0
13, 14780, Note_on_c, 9, 42, 65
13, 14784, Note_off_c, 9, 42, 0
13, 14828, Note_on_c, 9, 42, 65
13, 14832, Note_off_c, 9, 42, 0
13, 14876, Note_on_c, 9, 44, 105
13, 14880, Note_off_c, 9, 44, 0
13, 14924, Note_on_c, 9, 42, 65
13, 14928, Note_off_c, 9, 42, 0
13, 14972, Note_on_c, 9, 42, 65
13, 14976, Note_off_c, 9, 42, 0
13, 15020, Note_on_c, 9, 42, 65
13, 15024, Note_off_c, 9, 42, 0
13, 15068, Note_on_c, 9, 44, 105
13, 15072, Note_off_c, 9, 44, 0
13, 15116, Note_on_c, 9, 42, 65
13, 15120, Note_off_c, 9, 42, 0
13, 15164, Note_on_c, 9, 42, 65
13, 15168, Note_off_c, 9, 42, 0
13, 15212, Note_on_c, 9, 42, 65
13, 15216, Note_off_c, 9, 42, 0
13, 15260, Note_on_c, 9, 44, 105
13, 15264, Note_off_c, 9, 44, 0
13, 15308, Note_on_c, 9, 42, 65
13, 15312, Note_off_c, 9, 42, 0
13, 15356, Note_on_c, 9, 42, 65
13, 15360, Note_off_c, 9, 42, 0
13, 15404, Note_on_c, 9, 42, 65
13, 15408, Note_off_c, 9, 42, 0
13, 15452, Note_on_c, 9, 44, 105
13, 15456, Note_off_c, 9, 44, 0
13, 15500, Note_on_c, 9, 42, 65
13, 15504, Note_off_c, 9, 42, 0
13, 15548, Note_on_c, 9, 42, 65
13, 15552, Note_off_c, 9, 42, 0
13, 15572, Note_on_c, 9, 42, 55
13, 15576, Note_off_c, 9, 42, 0
13, 15596, Note_on_c, 9, 42, 65
13, 15600, Note_off_c, 9, 42, 0
13, 15644, Note_on_c, 9, 44, 105
13, 15648, Note_off_c, 9, 44, 0
13, 15692, Note_on_c, 9, 42, 65
13, 15696, Note_off_c, 9, 42, 0
13, 15740, Note_on_c, 9, 42, 65
13, 15744, Note_off_c, 9, 42, 0
13, 15764, Note_on_c, 9, 42, 55
13, 15768, Note_off_c, 9, 42, 0
13, 15788, Note_on_c, 9, 42, 65
13, 15792, Note_off_c, 9, 42, 0
13, 15836, Note_on_c, 9, 44, 105
13, 15840, Note_off_c, 9, 44, 0
13, 15884, Note_on_c, 9, 42, 65
13, 15888, Note_off_c, 9, 42, 0
13, 15932, Note_on_c, 9, 42, 65
13, 15936, Note_off_c, 9, 42, 0
13, 15956, Note_on_c, 9, 42, 55
13, 15960, Note_off_c, 9, 42, 0
13, 15980, Note_on_c, 9, 42, 65
13, 15984, Note_off_c, 9, 42, 0
13, 16028, Note_on_c, 9, 46, 85
13, 16120, Note_off_c, 9, 46, 0
13, 16124, Note_on_c, 9, 57, 70
13, 16124, Note_on_c, 9, 42, 65
13, 16128, Note_off_c, 9, 42, 0
13, 16128, Note_off_c, 9, 57, 0
13, 16172, Note_on_c, 9, 42, 65
13, 16176, Note_off_c, 9, 42, 0
13, 16220, Note_on_c, 9, 44, 105
13, 16224, Note_off_c, 9, 44, 0
13, 16268, Note_on_c, 9, 42, 65
13, 16272, Note_off_c, 9, 42, 0
13, 16316, Note_on_c, 9, 42, 65
13, 16320, Note_off_c, 9, 42, 0
13, 16364, Note_on_c, 9, 42, 65
13, 16368, Note_off_c, 9, 42, 0
13, 16412, Note_on_c, 9, 44, 105
13, 16416, Note_off_c, 9, 44, 0
13, 16460, Note_on_c, 9, 42, 65
13, 16464, Note_off_c, 9, 42, 0
13, 16508, Note_on_c, 9, 42, 65
13, 16512, Note_off_c, 9, 42, 0
13, 16556, Note_on_c, 9, 42, 65
13, 16560, Note_off_c, 9, 42, 0
13, 16604, Note_on_c, 9, 44, 105
13, 16608, Note_off_c, 9, 44, 0
13, 16652, Note_on_c, 9, 42, 65
13, 16656, Note_off_c, 9, 42, 0
13, 16700, Note_on_c, 9, 42, 65
13, 16704, Note_off_c, 9, 42, 0
13, 16748, Note_on_c, 9, 42, 65
13, 16752, Note_off_c, 9, 42, 0
13, 16796, Note_on_c, 9, 44, 105
13, 16800, Note_off_c, 9, 44, 0
13, 16844, Note_on_c, 9, 42, 65
13, 16848, Note_off_c, 9, 42, 0
13, 16892, Note_on_c, 9, 42, 65
13, 16896, Note_off_c, 9, 42, 0
13, 16940, Note_on_c, 9, 42, 65
13, 16944, Note_off_c, 9, 42, 0
13, 16988, Note_on_c, 9, 44, 105
13, 16992, Note_off_c, 9, 44, 0
13, 17036, Note_on_c, 9, 42, 65
13, 17040, Note_off_c, 9, 42, 0
13, 17084, Note_on_c, 9, 42, 65
13, 17088, Note_off_c, 9, 42, 0
13, 17132, Note_on_c, 9, 42, 65
13, 17136, Note_off_c, 9, 42, 0
13, 17180, Note_on_c, 9, 44, 105
13, 17184, Note_off_c, 9, 44, 0
13, 17228, Note_on_c, 9, 42, 65
13, 17232, Note_off_c, 9, 42, 0
13, 17276, Note_on_c, 9, 42, 65
13, 17280, Note_off_c, 9, 42, 0
13, 17324, Note_on_c, 9, 42, 65
13, 17328, Note_off_c, 9, 42, 0
13, 17372, Note_on_c, 9, 44, 105
13, 17376, Note_off_c, 9, 44, 0
13, 17420, Note_on_c, 9, 42, 65
13, 17424, Note_off_c, 9, 42, 0
13, 17468, Note_on_c, 9, 42, 65
13, 17472, Note_off_c, 9, 42, 0
13, 17516, Note_on_c, 9, 42, 65
13, 17520, Note_off_c, 9, 42, 0
13, 17564, Note_on_c, 9, 44, 105
13, 17568, Note_off_c, 9, 44, 0
13, 17612, Note_on_c, 9, 42, 65
13, 17616, Note_off_c, 9, 42, 0
13, 17660, Note_on_c, 9, 42, 65
13, 17664, Note_off_c, 9, 42, 0
13, 17708, Note_on_c, 9, 42, 65
13, 17712, Note_off_c, 9, 42, 0
13, 17756, Note_on_c, 9, 44, 105
13, 17760, Note_off_c, 9, 44, 0
13, 17804, Note_on_c, 9, 42, 65
13, 17808, Note_off_c, 9, 42, 0
13, 17852, Note_on_c, 9, 42, 65
13, 17856, Note_off_c, 9, 42, 0
13, 17900, Note_on_c, 9, 42, 65
13, 17904, Note_off_c, 9, 42, 0
13, 17948, Note_on_c, 9, 44, 105
13, 17952, Note_off_c, 9, 44, 0
13, 17996, Note_on_c, 9, 42, 65
13, 18000, Note_off_c, 9, 42, 0
13, 18044, Note_on_c, 9, 42, 65
13, 18048, Note_off_c, 9, 42, 0
13, 18092, Note_on_c, 9, 42, 65
13, 18096, Note_off_c, 9, 42, 0
13, 18140, Note_on_c, 9, 44, 105
13, 18144, Note_off_c, 9, 44, 0
13, 18188, Note_on_c, 9, 42, 65
13, 18192, Note_off_c, 9, 42, 0
13, 18236, Note_on_c, 9, 42, 65
13, 18240, Note_off_c, 9, 42, 0
13, 18284, Note_on_c, 9, 42, 65
13, 18288, Note_off_c, 9, 42, 0
13, 18332, Note_on_c, 9, 44, 105
13, 18336, Note_off_c, 9, 44, 0
13, 18380, Note_on_c, 9, 42, 65
13, 18384, Note_off_c, 9, 42, 0
13, 18428, Note_on_c, 9, 57, 70
13, 18428, Note_on_c, 9, 42, 65
13, 18432, Note_off_c, 9, 42, 0
13, 18432, Note_off_c, 9, 57, 0
13, 18476, Note_on_c, 9, 42, 65
13, 18480, Note_off_c, 9, 42, 0
13, 18524, Note_on_c, 9, 44, 105
13, 18528, Note_off_c, 9, 44, 0
13, 18572, Note_on_c, 9, 42, 65
13, 18576, Note_off_c, 9, 42, 0
13, 18620, Note_on_c, 9, 49, 70
13, 18620, Note_on_c, 9, 57, 70
13, 18620, Note_on_c, 9, 42, 65
13, 18624, Note_off_c, 9, 42, 0
13, 18624, Note_off_c, 9, 57, 0
13, 18624, Note_off_c, 9, 49, 0
13, 18668, Note_on_c, 9, 42, 65
13, 18672, Note_off_c, 9, 42, 0
13, 18716, Note_on_c, 9, 44, 105
13, 18720, Note_off_c, 9, 44, 0
13, 18764, Note_on_c, 9, 42, 65
13, 18768, Note_off_c, 9, 42, 0
13, 18812, Note_on_c, 9, 49, 70
13, 18812, Note_on_c, 9, 42, 65
13, 18816, Note_off_c, 9, 42, 0
13, 18816, Note_off_c, 9, 49, 0
13, 18860, Note_on_c, 9, 42, 65
13, 18864, Note_off_c, 9, 42, 0
13, 18908, Note_on_c, 9, 44, 105
13, 18912, Note_off_c, 9, 44, 0
13, 18956, Note_on_c, 9, 42, 65
13, 18960, Note_off_c, 9, 42, 0
13, 19004, Note_on_c, 9, 49, 80
13, 19004, Note_on_c, 9, 57, 80
13, 19004, Note_on_c, 9, 42, 65
13, 19008, Note_off_c, 9, 42, 0
13, 19008, Note_off_c, 9, 57, 0
13, 19008, Note_off_c, 9, 49, 0
13, 19052, Note_on_c, 9, 42, 65
13, 19056, Note_off_c, 9, 42, 0
13, 19100, Note_on_c, 9, 44, 105
13, 19104, Note_off_c, 9, 44, 0
13, 19148, Note_on_c, 9, 42, 65
13, 19152, Note_off_c, 9, 42, 0
13, 19196, Note_on_c, 9, 49, 80
13, 19196, Note_on_c, 9, 57, 80
13, 19196, Note_on_c, 9, 42, 65
13, 19200, Note_off_c, 9, 42, 0
13, 19200, Note_off_c, 9, 57, 0
13, 19200, Note_off_c, 9, 49, 0
13, 19244, Note_on_c, 9, 42, 65
13, 19248, Note_off_c, 9, 42, 0
13, 19292, Note_on_c, 9, 44, 105
13, 19296, Note_off_c, 9, 44, 0
13, 19340, Note_on_c, 9, 42, 65
13, 19344, Note_off_c, 9, 42, 0
13, 19388, Note_on_c, 9, 42, 65
13, 19392, Note_off_c, 9, 42, 0
13, 19436, Note_on_c, 9, 42, 65
13, 19440, Note_off_c, 9, 42, 0
13, 19484, Note_on_c, 9, 44, 105
13, 19488, Note_off_c, 9, 44, 0
13, 19532, Note_on_c, 9, 42, 65
13, 19536, Note_off_c, 9, 42, 0
13, 19580, Note_on_c, 9, 42, 65
13, 19584, Note_off_c, 9, 42, 0
13, 19628, Note_on_c, 9, 42, 65
13, 19632, Note_off_c, 9, 42, 0
13, 19676, Note_on_c, 9, 44, 105
13, 19680, Note_off_c, 9, 44, 0
13, 19724, Note_on_c, 9, 42, 65
13, 19728, Note_off_c, 9, 42, 0
13, 19772, Note_on_c, 9, 42, 65
13, 19776, Note_off_c, 9, 42, 0
13, 19820, Note_on_c, 9, 42, 65
13, 19824, Note_off_c, 9, 42, 0
13, 19868, Note_on_c, 9, 44, 105
13, 19872, Note_off_c, 9, 44, 0
13, 19916, Note_on_c, 9, 42, 65
13, 19920, Note_off_c, 9, 42, 0
13, 19964, Note_on_c, 9, 42, 65
13, 19968, Note_off_c, 9, 42, 0
13, 20012, Note_on_c, 9, 42, 65
13, 20016, Note_off_c, 9, 42, 0
13, 20060, Note_on_c, 9, 44, 105
13, 20064, Note_off_c, 9, 44, 0
13, 20108, Note_on_c, 9, 42, 65
13, 20112, Note_off_c, 9, 42, 0
13, 20156, Note_on_c, 9, 42, 65
13, 20160, Note_off_c, 9, 42, 0
13, 20204, Note_on_c, 9, 42, 65
13, 20208, Note_off_c, 9, 42, 0
13, 20252, Note_on_c, 9, 44, 105
13, 20256, Note_off_c, 9, 44, 0
13, 20300, Note_on_c, 9, 42, 65
13, 20304, Note_off_c, 9, 42, 0
13, 20348, Note_on_c, 9, 42, 65
13, 20352, Note_off_c, 9, 42, 0
13, 20396, Note_on_c, 9, 42, 65
13, 20400, Note_off_c, 9, 42, 0
13, 20444, Note_on_c, 9, 44, 105
13, 20448, Note_off_c, 9, 44, 0
13, 20492, Note_on_c, 9, 42, 65
13, 20496, Note_off_c, 9, 42, 0
13, 20540, Note_on_c, 9, 42, 65
13, 20544, Note_off_c, 9, 42, 0
13, 20588, Note_on_c, 9, 42, 65
13, 20592, Note_off_c, 9, 42, 0
13, 20636, Note_on_c, 9, 44, 105
13, 20640, Note_off_c, 9, 44, 0
13, 20684, Note_on_c, 9, 42, 65
13, 20688, Note_off_c, 9, 42, 0
13, 20732, Note_on_c, 9, 42, 65
13, 20736, Note_off_c, 9, 42, 0
13, 20780, Note_on_c, 9, 42, 65
13, 20784, Note_off_c, 9, 42, 0
13, 20828, Note_on_c, 9, 44, 105
13, 20832, Note_off_c, 9, 44, 0
13, 20876, Note_on_c, 9, 42, 65
13, 20880, Note_off_c, 9, 42, 0
13, 20924, Note_on_c, 9, 42, 65
13, 20928, Note_off_c, 9, 42, 0
13, 20972, Note_on_c, 9, 42, 65
13, 20976, Note_off_c, 9, 42, 0
13, 21020, Note_on_c, 9, 44, 105
13, 21024, Note_off_c, 9, 44, 0
13, 21068, Note_on_c, 9, 42, 65
13, 21072, Note_off_c, 9, 42, 0
13, 21116, Note_on_c, 9, 42, 65
13, 21120, Note_off_c, 9, 42, 0
13, 21164, Note_on_c, 9, 42, 65
13, 21168, Note_off_c, 9, 42, 0
13, 21212, Note_on_c, 9, 44, 105
13, 21216, Note_off_c, 9, 44, 0
13, 21260, Note_on_c, 9, 42, 65
13, 21264, Note_off_c, 9, 42, 0
13, 21308, Note_on_c, 9, 42, 65
13, 21312, Note_off_c, 9, 42, 0
13, 21356, Note_on_c, 9, 42, 65
13, 21360, Note_off_c, 9, 42, 0
13, 21404, Note_on_c, 9, 44, 105
13, 21408, Note_off_c, 9, 44, 0
13, 21452, Note_on_c, 9, 42, 65
13, 21456, Note_off_c, 9, 42, 0
13, 21500, Note_on_c, 9, 42, 65
13, 21504, Note_off_c, 9, 42, 0
13, 21548, Note_on_c, 9, 42, 65
13, 21552, Note_off_c, 9, 42, 0
13, 21596, Note_on_c, 9, 44, 105
13, 21600, Note_off_c, 9, 44, 0
13, 21644, Note_on_c, 9, 42, 65
13, 21648, Note_off_c, 9, 42, 0
13, 21692, Note_on_c, 9, 42, 65
13, 21696, Note_off_c, 9, 42, 0
13, 21740, Note_on_c, 9, 42, 65
13, 21744, Note_off_c, 9, 42, 0
13, 21788, Note_on_c, 9, 44, 105
13, 21792, Note_off_c, 9, 44, 0
13, 21836, Note_on_c, 9, 42, 65
13, 21840, Note_off_c, 9, 42, 0
13, 21884, Note_on_c, 9, 42, 65
13, 21888, Note_off_c, 9, 42, 0
13, 21932, Note_on_c, 9, 42, 65
13, 21936, Note_off_c, 9, 42, 0
13, 21980, Note_on_c, 9, 44, 105
13, 21984, Note_off_c, 9, 44, 0
13, 22028, Note_on_c, 9, 42, 65
13, 22032, Note_off_c, 9, 42, 0
13, 22076, Note_on_c, 9, 42, 65
13, 22080, Note_off_c, 9, 42, 0
13, 22124, Note_on_c, 9, 42, 65
13, 22128, Note_off_c, 9, 42, 0
13, 22172, Note_on_c, 9, 46, 80
13, 22176, Note_off_c, 9, 46, 0
13, 22220, Note_on_c, 9, 42, 65
13, 22224, Note_off_c, 9, 42, 0
13, 22268, Note_on_c, 9, 57, 70
13, 22268, Note_on_c, 9, 42, 65
13, 22272, Note_off_c, 9, 42, 0
13, 22272, Note_off_c, 9, 57, 0
13, 22316, Note_on_c, 9, 42, 65
13, 22320, Note_off_c, 9, 42, 0
13, 22364, Note_on_c, 9, 44, 105
13, 22368, Note_off_c, 9, 44, 0
13, 22412, Note_on_c, 9, 42, 65
13, 22416, Note_off_c, 9, 42, 0
13, 22460, Note_on_c, 9, 42, 65
13, 22464, Note_off_c, 9, 42, 0
13, 22508, Note_on_c, 9, 42, 65
13, 22512, Note_off_c, 9, 42, 0
13, 22556, Note_on_c, 9, 44, 105
13, 22560, Note_off_c, 9, 44, 0
13, 22604, Note_on_c, 9, 42, 65
13, 22608, Note_off_c, 9, 42, 0
13, 22652, Note_on_c, 9, 42, 65
13, 22656, Note_off_c, 9, 42, 0
13, 22700, Note_on_c, 9, 42, 65
13, 22704, Note_off_c, 9, 42, 0
13, 22748, Note_on_c, 9, 44, 105
13, 22752, Note_off_c, 9, 44, 0
13, 22796, Note_on_c, 9, 42, 65
13, 22800, Note_off_c, 9, 42, 0
13, 22844, Note_on_c, 9, 42, 65
13, 22848, Note_off_c, 9, 42, 0
13, 22892, Note_on_c, 9, 42, 65
13, 22896, Note_off_c, 9, 42, 0
13, 22940, Note_on_c, 9, 44, 105
13, 22944, Note_off_c, 9, 44, 0
13, 22988, Note_on_c, 9, 42, 65
13, 22992, Note_off_c, 9, 42, 0
13, 23036, Note_on_c, 9, 42, 65
13, 23040, Note_off_c, 9, 42, 0
13, 23084, Note_on_c, 9, 42, 65
13, 23088, Note_off_c, 9, 42, 0
13, 23132, Note_on_c, 9, 44, 105
13, 23136, Note_off_c, 9, 44, 0
13, 23180, Note_on_c, 9, 42, 65
13, 23184, Note_off_c, 9, 42, 0
13, 23228, Note_on_c, 9, 42, 65
13, 23232, Note_off_c, 9, 42, 0
13, 23276, Note_on_c, 9, 42, 65
13, 23280, Note_off_c, 9, 42, 0
13, 23324, Note_on_c, 9, 44, 105
13, 23328, Note_off_c, 9, 44, 0
13, 23372, Note_on_c, 9, 42, 65
13, 23376, Note_off_c, 9, 42, 0
13, 23420, Note_on_c, 9, 42, 65
13, 23424, Note_off_c, 9, 42, 0
13, 23468, Note_on_c, 9, 42, 65
13, 23472, Note_off_c, 9, 42, 0
13, 23516, Note_on_c, 9, 44, 105
13, 23520, Note_off_c, 9, 44, 0
13, 23564, Note_on_c, 9, 42, 65
13, 23568, Note_off_c, 9, 42, 0
13, 23612, Note_on_c, 9, 42, 65
13, 23616, Note_off_c, 9, 42, 0
13, 23660, Note_on_c, 9, 42, 65
13, 23664, Note_off_c, 9, 42, 0
13, 23708, Note_on_c, 9, 44, 105
13, 23712, Note_off_c, 9, 44, 0
13, 23756, Note_on_c, 9, 42, 65
13, 23760, Note_off_c, 9, 42, 0
13, 23804, Note_on_c, 9, 42, 65
13, 23808, Note_off_c, 9, 42, 0
13, 23852, Note_on_c, 9, 42, 65
13, 23856, Note_off_c, 9, 42, 0
13, 23900, Note_on_c, 9, 44, 105
13, 23904, Note_off_c, 9, 44, 0
13, 23948, Note_on_c, 9, 42, 65
13, 23952, Note_off_c, 9, 42, 0
13, 23996, Note_on_c, 9, 42, 65
13, 24000, Note_off_c, 9, 42, 0
13, 24044, Note_on_c, 9, 42, 65
13, 24048, Note_off_c, 9, 42, 0
13, 24092, Note_on_c, 9, 44, 105
13, 24096, Note_off_c, 9, 44, 0
13, 24140, Note_on_c, 9, 42, 65
13, 24144, Note_off_c, 9, 42, 0
13, 24188, Note_on_c, 9, 42, 65
13, 24192, Note_off_c, 9, 42, 0
13, 24236, Note_on_c, 9, 42, 65
13, 24240, Note_off_c, 9, 42, 0
13, 24284, Note_on_c, 9, 44, 105
13, 24288, Note_off_c, 9, 44, 0
13, 24332, Note_on_c, 9, 42, 65
13, 24336, Note_off_c, 9, 42, 0
13, 24380, Note_on_c, 9, 49, 80
13, 24380, Note_on_c, 9, 57, 60
13, 24380, Note_on_c, 9, 42, 65
13, 24384, Note_off_c, 9, 42, 0
13, 24384, Note_off_c, 9, 57, 0
13, 24384, Note_off_c, 9, 49, 0
13, 24428, Note_on_c, 9, 42, 65
13, 24432, Note_off_c, 9, 42, 0
13, 24476, Note_on_c, 9, 44, 105
13, 24480, Note_off_c, 9, 44, 0
13, 24524, Note_on_c, 9, 42, 65
13, 24528, Note_off_c, 9, 42, 0
13, 24572, Note_on_c, 9, 57, 80
13, 24572, Note_on_c, 9, 42, 65
13, 24576, Note_off_c, 9, 42, 0
13, 24576, Note_off_c, 9, 57, 0
13, 24620, Note_on_c, 9, 42, 65
13, 24624, Note_off_c, 9, 42, 0
13, 24668, Note_on_c, 9, 44, 105
13, 24672, Note_off_c, 9, 44, 0
13, 24716, Note_on_c, 9, 42, 65
13, 24720, Note_off_c, 9, 42, 0
13, 24764, Note_on_c, 9, 42, 65
13, 24768, Note_off_c, 9, 42, 0
13, 24812, Note_on_c, 9, 42, 65
13, 24816, Note_off_c, 9, 42, 0
13, 24860, Note_on_c, 9, 44, 105
13, 24864, Note_off_c, 9, 44, 0
13, 24908, Note_on_c, 9, 42, 65
13, 24912, Note_off_c, 9, 42, 0
13, 24956, Note_on_c, 9, 42, 65
13, 24960, Note_off_c, 9, 42, 0
13, 25004, Note_on_c, 9, 42, 65
13, 25008, Note_off_c, 9, 42, 0
13, 25052, Note_on_c, 9, 44, 105
13, 25056, Note_off_c, 9, 44, 0
13, 25100, Note_on_c, 9, 42, 65
13, 25104, Note_off_c, 9, 42, 0
13, 25148, Note_on_c, 9, 42, 65
13, 25152, Note_off_c, 9, 42, 0
13, 25196, Note_on_c, 9, 42, 65
13, 25200, Note_off_c, 9, 42, 0
13, 25244, Note_on_c, 9, 44, 105
13, 25248, Note_off_c, 9, 44, 0
13, 25292, Note_on_c, 9, 42, 65
13, 25296, Note_off_c, 9, 42, 0
13, 25340, Note_on_c, 9, 49, 80
13, 25340, Note_on_c, 9, 57, 80
13, 25340, Note_on_c, 9, 42, 65
13, 25344, Note_off_c, 9, 42, 0
13, 25344, Note_off_c, 9, 57, 0
13, 25344, Note_off_c, 9, 49, 0
13, 25388, Note_on_c, 9, 42, 65
13, 25392, Note_off_c, 9, 42, 0
13, 25436, Note_on_c, 9, 44, 105
13, 25440, Note_off_c, 9, 44, 0
13, 25484, Note_on_c, 9, 42, 65
13, 25488, Note_off_c, 9, 42, 0
13, 25532, Note_on_c, 9, 42, 65
13, 25536, Note_off_c, 9, 42, 0
13, 25580, Note_on_c, 9, 42, 65
13, 25584, Note_off_c, 9, 42, 0
13, 25628, Note_on_c, 9, 44, 105
13, 25632, Note_off_c, 9, 44, 0
13, 25676, Note_on_c, 9, 42, 65
13, 25680, Note_off_c, 9, 42, 0
13, 25724, Note_on_c, 9, 42, 65
13, 25728, Note_off_c, 9, 42, 0
13, 25772, Note_on_c, 9, 42, 65
13, 25776, Note_off_c, 9, 42, 0
13, 25820, Note_on_c, 9, 44, 105
13, 25824, Note_off_c, 9, 44, 0
13, 25868, Note_on_c, 9, 42, 65
13, 25872, Note_off_c, 9, 42, 0
13, 25916, Note_on_c, 9, 42, 65
13, 25920, Note_off_c, 9, 42, 0
13, 25964, Note_on_c, 9, 42, 65
13, 25968, Note_off_c, 9, 42, 0
13, 26012, Note_on_c, 9, 46, 85
13, 26104, Note_off_c, 9, 46, 0
13, 26108, Note_on_c, 9, 42, 65
13, 26112, Note_off_c, 9, 42, 0
13, 26156, Note_on_c, 9, 42, 65
13, 26160, Note_off_c, 9, 42, 0
13, 26204, Note_on_c, 9, 44, 105
13, 26208, Note_off_c, 9, 44, 0
13, 26252, Note_on_c, 9, 42, 65
13, 26256, Note_off_c, 9, 42, 0
13, 26300, Note_on_c, 9, 42, 65
13, 26304, Note_off_c, 9, 42, 0
13, 26348, Note_on_c, 9, 42, 65
13, 26352, Note_off_c, 9, 42, 0
13, 26396, Note_on_c, 9, 44, 105
13, 26400, Note_off_c, 9, 44, 0
13, 26444, Note_on_c, 9, 42, 65
13, 26448, Note_off_c, 9, 42, 0
13, 26492, Note_on_c, 9, 42, 65
13, 26496, Note_off_c, 9, 42, 0
13, 26540, Note_on_c, 9, 42, 65
13, 26544, Note_off_c, 9, 42, 0
13, 26588, Note_on_c, 9, 44, 105
13, 26592, Note_off_c, 9, 44, 0
13, 26636, Note_on_c, 9, 42, 65
13, 26640, Note_off_c, 9, 42, 0
13, 26684, Note_on_c, 9, 42, 65
13, 26688, Note_off_c, 9, 42, 0
13, 26732, Note_on_c, 9, 42, 65
13, 26736, Note_off_c, 9, 42, 0
13, 26780, Note_on_c, 9, 46, 85
13, 26872, Note_off_c, 9, 46, 0
13, 26876, Note_on_c, 9, 42, 65
13, 26880, Note_off_c, 9, 42, 0
13, 26924, Note_on_c, 9, 42, 65
13, 26928, Note_off_c, 9, 42, 0
13, 26972, Note_on_c, 9, 44, 105
13, 26976, Note_off_c, 9, 44, 0
13, 27020, Note_on_c, 9, 42, 65
13, 27024, Note_off_c, 9, 42, 0
13, 27068, Note_on_c, 9, 42, 65
13, 27072, Note_off_c, 9, 42, 0
13, 27116, Note_on_c, 9, 42, 65
13, 27120, Note_off_c, 9, 42, 0
13, 27164, Note_on_c, 9, 44, 105
13, 27168, Note_off_c, 9, 44, 0
13, 27212, Note_on_c, 9, 42, 65
13, 27216, Note_off_c, 9, 42, 0
13, 27260, Note_on_c, 9, 42, 65
13, 27264, Note_off_c, 9, 42, 0
13, 27308, Note_on_c, 9, 42, 65
13, 27312, Note_off_c, 9, 42, 0
13, 27356, Note_on_c, 9, 44, 105
13, 27360, Note_off_c, 9, 44, 0
13, 27404, Note_on_c, 9, 42, 65
13, 27408, Note_off_c, 9, 42, 0
13, 27452, Note_on_c, 9, 42, 65
13, 27456, Note_off_c, 9, 42, 0
13, 27500, Note_on_c, 9, 42, 65
13, 27504, Note_off_c, 9, 42, 0
13, 27548, Note_on_c, 9, 46, 85
13, 27640, Note_off_c, 9, 46, 0
13, 27644, Note_on_c, 9, 42, 65
13, 27648, Note_off_c, 9, 42, 0
13, 27692, Note_on_c, 9, 42, 65
13, 27696, Note_off_c, 9, 42, 0
13, 27740, Note_on_c, 9, 44, 105
13, 27744, Note_off_c, 9, 44, 0
13, 27788, Note_on_c, 9, 42, 65
13, 27792, Note_off_c, 9, 42, 0
13, 27836, Note_on_c, 9, 42, 65
13, 27840, Note_off_c, 9, 42, 0
13, 27884, Note_on_c, 9, 42, 65
13, 27888, Note_off_c, 9, 42, 0
13, 27932, Note_on_c, 9, 44, 105
13, 27936, Note_off_c, 9, 44, 0
13, 27980, Note_on_c, 9, 42, 65
13, 27984, Note_off_c, 9, 42, 0
13, 28028, Note_on_c, 9, 42, 65
13, 28032, Note_off_c, 9, 42, 0
13, 28076, Note_on_c, 9, 42, 65
13, 28080, Note_off_c, 9, 42, 0
13, 28124, Note_on_c, 9, 44, 105
13, 28128, Note_off_c, 9, 44, 0
13, 28172, Note_on_c, 9, 42, 65
13, 28176, Note_off_c, 9, 42, 0
13, 28220, Note_on_c, 9, 42, 65
13, 28224, Note_off_c, 9, 42, 0
13, 28268, Note_on_c, 9, 42, 65
13, 28272, Note_off_c, 9, 42, 0
13, 28316, Note_on_c, 9, 44, 105
13, 28320, Note_off_c, 9, 44, 0
13, 28364, Note_on_c, 9, 42, 65
13, 28368, Note_off_c, 9, 42, 0
13, 28412, Note_on_c, 9, 49, 80
13, 28412, Note_on_c, 9, 57, 80
13, 28412, Note_on_c, 9, 42, 65
13, 28416, Note_off_c, 9, 42, 0
13, 28416, Note_off_c, 9, 57, 0
13, 28416, Note_off_c, 9, 49, 0
13, 28460, Note_on_c, 9, 42, 65
13, 28464, Note_off_c, 9, 42, 0
13, 28508, Note_on_c, 9, 44, 105
13, 28512, Note_off_c, 9, 44, 0
13, 28556, Note_on_c, 9, 42, 65
13, 28560, Note_off_c, 9, 42, 0
13, 28604, Note_on_c, 9, 42, 65
13, 28608, Note_off_c, 9, 42, 0
13, 28652, Note_on_c, 9, 42, 65
13, 28656, Note_off_c, 9, 42, 0
13, 28700, Note_on_c, 9, 44, 105
13, 28704, Note_off_c, 9, 44, 0
13, 28748, Note_on_c, 9, 42, 65
13, 28752, Note_off_c, 9, 42, 0
13, 28796, Note_on_c, 9, 42, 65
13, 28800, Note_off_c, 9, 42, 0
13, 28844, Note_on_c, 9, 42, 65
13, 28848, Note_off_c, 9, 42, 0
13, 28892, Note_on_c, 9, 44, 105
13, 28896, Note_off_c, 9, 44, 0
13, 28940, Note_on_c, 9, 42, 65
13, 28944, Note_off_c, 9, 42, 0
13, 28988, Note_on_c, 9, 42, 65
13, 28992, Note_off_c, 9, 42, 0
13, 29036, Note_on_c, 9, 42, 65
13, 29040, Note_off_c, 9, 42, 0
13, 29084, Note_on_c, 9, 46, 85
13, 29176, Note_off_c, 9, 46, 0
13, 29180, Note_on_c, 9, 42, 65
13, 29184, Note_off_c, 9, 42, 0
13, 29228, Note_on_c, 9, 42, 65
13, 29232, Note_off_c, 9, 42, 0
13, 29276, Note_on_c, 9, 44, 105
13, 29280, Note_off_c, 9, 44, 0
13, 29324, Note_on_c, 9, 42, 65
13, 29328, Note_off_c, 9, 42, 0
13, 29372, Note_on_c, 9, 42, 65
13, 29376, Note_off_c, 9, 42, 0
13, 29420, Note_on_c, 9, 42, 65
13, 29424, Note_off_c, 9, 42, 0
13, 29468, Note_on_c, 9, 44, 105
13, 29472, Note_off_c, 9, 44, 0
13, 29516, Note_on_c, 9, 42, 65
13, 29520, Note_off_c, 9, 42, 0
13, 29564, Note_on_c, 9, 42, 65
13, 29568, Note_off_c, 9, 42, 0
13, 29612, Note_on_c, 9, 42, 65
13, 29616, Note_off_c, 9, 42, 0
13, 29660, Note_on_c, 9, 44, 105
13, 29664, Note_off_c, 9, 44, 0
13, 29708, Note_on_c, 9, 42, 65
13, 29712, Note_off_c, 9, 42, 0
13, 29756, Note_on_c, 9, 42, 65
13, 29760, Note_off_c, 9, 42, 0
13, 29804, Note_on_c, 9, 42, 65
13, 29808, Note_off_c, 9, 42, 0
13, 29852, Note_on_c, 9, 46, 85
13, 29944, Note_off_c, 9, 46, 0
13, 29948, Note_on_c, 9, 42, 65
13, 29952, Note_off_c, 9, 42, 0
13, 29996, Note_on_c, 9, 42, 65
13, 30000, Note_off_c, 9, 42, 0
13, 30044, Note_on_c, 9, 44, 105
13, 30048, Note_off_c, 9, 44, 0
13, 30092, Note_on_c, 9, 42, 65
13, 30096, Note_off_c, 9, 42, 0
13, 30140, Note_on_c, 9, 42, 65
13, 30144, Note_off_c, 9, 42, 0
13, 30188, Note_on_c, 9, 42, 65
13, 30192, Note_off_c, 9, 42, 0
13, 30236, Note_on_c, 9, 44, 105
13, 30240, Note_off_c, 9, 44, 0
13, 30284, Note_on_c, 9, 42, 65
13, 30288, Note_off_c, 9, 42, 0
13, 30332, Note_on_c, 9, 42, 65
13, 30336, Note_off_c, 9, 42, 0
13, 30380, Note_on_c, 9, 42, 65
13, 30384, Note_off_c, 9, 42, 0
13, 30428, Note_on_c, 9, 46, 85
13, 30520, Note_off_c, 9, 46, 0
13, 30524, Note_on_c, 9, 42, 65
13, 30528, Note_off_c, 9, 42, 0
13, 30572, Note_on_c, 9, 42, 65
13, 30576, Note_off_c, 9, 42, 0
13, 30620, Note_on_c, 9, 44, 105
13, 30624, Note_off_c, 9, 44, 0
13, 30668, Note_on_c, 9, 42, 65
13, 30672, Note_off_c, 9, 42, 0
13, 30716, Note_on_c, 9, 42, 65
13, 30720, Note_off_c, 9, 42, 0
13, 30764, Note_on_c, 9, 42, 65
13, 30768, Note_off_c, 9, 42, 0
13, 30812, Note_on_c, 9, 44, 105
13, 30816, Note_off_c, 9, 44, 0
13, 30860, Note_on_c, 9, 42, 65
13, 30864, Note_off_c, 9, 42, 0
13, 30908, Note_on_c, 9, 42, 65
13, 30912, Note_off_c, 9, 42, 0
13, 30956, Note_on_c, 9, 42, 65
13, 30960, Note_off_c, 9, 42, 0
13, 31004, Note_on_c, 9, 44, 105
13, 31008, Note_off_c, 9, 44, 0
13, 31052, Note_on_c, 9, 42, 65
13, 31056, Note_off_c, 9, 42, 0
13, 31100, Note_on_c, 9, 42, 65
13, 31104, Note_off_c, 9, 42, 0
13, 31148, Note_on_c, 9, 42, 65
13, 31152, Note_off_c, 9, 42, 0
13, 31196, Note_on_c, 9, 44, 105
13, 31200, Note_off_c, 9, 44, 0
13, 31244, Note_on_c, 9, 42, 65
13, 31248, Note_off_c, 9, 42, 0
13, 31292, Note_on_c, 9, 42, 65
13, 31296, Note_off_c, 9, 42, 0
13, 31340, Note_on_c, 9, 42, 65
13, 31344, Note_off_c, 9, 42, 0
13, 31388, Note_on_c, 9, 44, 105
13, 31392, Note_off_c, 9, 44, 0
13, 31436, Note_on_c, 9, 42, 65
13, 31440, Note_off_c, 9, 42, 0
13, 31484, Note_on_c, 9, 49, 80
13, 31484, Note_on_c, 9, 42, 65
13, 31488, Note_off_c, 9, 42, 0
13, 31488, Note_off_c, 9, 49, 0
13, 31532, Note_on_c, 9, 42, 65
13, 31536, Note_off_c, 9, 42, 0
13, 31580, Note_on_c, 9, 44, 105
13, 31584, Note_off_c, 9, 44, 0
13, 31628, Note_on_c, 9, 42, 65
13, 31632, Note_off_c, 9, 42, 0
13, 31676, Note_on_c, 9, 49, 80
13, 31676, Note_on_c, 9, 57, 80
13, 31676, Note_on_c, 9, 42, 65
13, 31680, Note_off_c, 9, 42, 0
13, 31680, Note_off_c, 9, 57, 0
13, 31680, Note_off_c, 9, 49, 0
13, 31724, Note_on_c, 9, 42, 65
13, 31728, Note_off_c, 9, 42, 0
13, 31772, Note_on_c, 9, 44, 105
13, 31776, Note_off_c, 9, 44, 0
13, 31820, Note_on_c, 9, 42, 65
13, 31824, Note_off_c, 9, 42, 0
13, 31868, Note_on_c, 9, 42, 65
13, 31872, Note_off_c, 9, 42, 0
13, 31916, Note_on_c, 9, 42, 65
13, 31920, Note_off_c, 9, 42, 0
13, 31964, Note_on_c, 9, 44, 105
13, 31968, Note_off_c, 9, 44, 0
13, 32012, Note_on_c, 9, 42, 65
13, 32016, Note_off_c, 9, 42, 0
13, 32060, Note_on_c, 9, 42, 65
13, 32064, Note_off_c, 9, 42, 0
13, 32108, Note_on_c, 9, 42, 65
13, 32112, Note_off_c, 9, 42, 0
13, 32156, Note_on_c, 9, 46, 85
13, 32248, Note_off_c, 9, 46, 0
13, 32252, Note_on_c, 9, 42, 65
13, 32256, Note_off_c, 9, 42, 0
13, 32300, Note_on_c, 9, 42, 65
13, 32304, Note_off_c, 9, 42, 0
13, 32348, Note_on_c, 9, 44, 105
13, 32352, Note_off_c, 9, 44, 0
13, 32396, Note_on_c, 9, 42, 65
13, 32400, Note_off_c, 9, 42, 0
13, 32444, Note_on_c, 9, 42, 65
13, 32448, Note_off_c, 9, 42, 0
13, 32492, Note_on_c, 9, 42, 65
13, 32496, Note_off_c, 9, 42, 0
13, 32540, Note_on_c, 9, 44, 105
13, 32544, Note_off_c, 9, 44, 0
13, 32588, Note_on_c, 9, 42, 65
13, 32592, Note_off_c, 9, 42, 0
13, 32636, Note_on_c, 9, 42, 65
13, 32640, Note_off_c, 9, 42, 0
13, 32684, Note_on_c, 9, 42, 65
13, 32688, Note_off_c, 9, 42, 0
13, 32732, Note_on_c, 9, 46, 85
13, 32824, Note_off_c, 9, 46, 0
13, 32828, Note_on_c, 9, 42, 65
13, 32832, Note_off_c, 9, 42, 0
13, 32876, Note_on_c, 9, 42, 65
13, 32880, Note_off_c, 9, 42, 0
13, 32924, Note_on_c, 9, 44, 105
13, 32928, Note_off_c, 9, 44, 0
13, 32972, Note_on_c, 9, 42, 65
13, 32976, Note_off_c, 9, 42, 0
13, 33020, Note_on_c, 9, 42, 65
13, 33024, Note_off_c, 9, 42, 0
13, 33068, Note_on_c, 9, 42, 65
13, 33072, Note_off_c, 9, 42, 0
13, 33116, Note_on_c, 9, 44, 105
13, 33120, Note_off_c, 9, 44, 0
13, 33164, Note_on_c, 9, 42, 65
13, 33168, Note_off_c, 9, 42, 0
13, 33212, Note_on_c, 9, 42, 65
13, 33216, Note_off_c, 9, 42, 0
13, 33260, Note_on_c, 9, 42, 65
13, 33264, Note_off_c, 9, 42, 0
13, 33308, Note_on_c, 9, 44, 105
13, 33312, Note_off_c, 9, 44, 0
13, 33356, Note_on_c, 9, 42, 65
13, 33360, Note_off_c, 9, 42, 0
13, 33404, Note_on_c, 9, 42, 65
13, 33408, Note_off_c, 9, 42, 0
13, 33452, Note_on_c, 9, 42, 65
13, 33456, Note_off_c, 9, 42, 0
13, 33500, Note_on_c, 9, 44, 105
13, 33504, Note_off_c, 9, 44, 0
13, 33548, Note_on_c, 9, 42, 65
13, 33552, Note_off_c, 9, 42, 0
13, 33596, Note_on_c, 9, 49, 80
13, 33596, Note_on_c, 9, 57, 80
13, 33596, Note_on_c, 9, 42, 65
13, 33600, Note_off_c, 9, 42, 0
13, 33600, Note_off_c, 9, 57, 0
13, 33600, Note_off_c, 9, 49, 0
13, 33644, Note_on_c, 9, 42, 65
13, 33648, Note_off_c, 9, 42, 0
13, 33692, Note_on_c, 9, 44, 105
13, 33696, Note_off_c, 9, 44, 0
13, 33740, Note_on_c, 9, 42, 65
13, 33744, Note_off_c, 9, 42, 0
13, 33788, Note_on_c, 9, 42, 65
13, 33792, Note_off_c, 9, 42, 0
13, 33836, Note_on_c, 9, 42, 65
13, 33840, Note_off_c, 9, 42, 0
13, 33884, Note_on_c, 9, 44, 105
13, 33888, Note_off_c, 9, 44, 0
13, 33932, Note_on_c, 9, 42, 65
13, 33936, Note_off_c, 9, 42, 0
13, 33980, Note_on_c, 9, 42, 65
13, 33984, Note_off_c, 9, 42, 0
13, 34028, Note_on_c, 9, 42, 65
13, 34032, Note_off_c, 9, 42, 0
13, 34076, Note_on_c, 9, 44, 105
13, 34080, Note_off_c, 9, 44, 0
13, 34124, Note_on_c, 9, 42, 65
13, 34128, Note_off_c, 9, 42, 0
13, 34172, Note_on_c, 9, 42, 65
13, 34176, Note_off_c, 9, 42, 0
13, 34220, Note_on_c, 9, 42, 65
13, 34224, Note_off_c, 9, 42, 0
13, 34268, Note_on_c, 9, 44, 105
13, 34272, Note_off_c, 9, 44, 0
13, 34316, Note_on_c, 9, 42, 65
13, 34320, Note_off_c, 9, 42, 0
13, 39740, Note_on_c, 9, 49, 80
13, 39744, Note_off_c, 9, 49, 0
13, 39836, Note_on_c, 9, 57, 80
13, 39840, Note_off_c, 9, 57, 0
13, 40508, Note_on_c, 9, 49, 80
13, 40508, Note_on_c, 9, 57, 80
13, 40512, Note_off_c, 9, 57, 0
13, 40512, Note_off_c, 9, 49, 0
13, 40700, Note_on_c, 9, 42, 65
13, 40704, Note_off_c, 9, 42, 0
13, 40748, Note_on_c, 9, 42, 65
13, 40752, Note_off_c, 9, 42, 0
13, 40796, Note_on_c, 9, 44, 105
13, 40800, Note_off_c, 9, 44, 0
13, 40844, Note_on_c, 9, 42, 65
13, 40848, Note_off_c, 9, 42, 0
13, 40892, Note_on_c, 9, 42, 65
13, 40896, Note_off_c, 9, 42, 0
13, 40940, Note_on_c, 9, 42, 65
13, 40944, Note_off_c, 9, 42, 0
13, 40988, Note_on_c, 9, 44, 105
13, 40992, Note_off_c, 9, 44, 0
13, 41036, Note_on_c, 9, 42, 65
13, 41040, Note_off_c, 9, 42, 0
13, 41084, Note_on_c, 9, 42, 65
13, 41088, Note_off_c, 9, 42, 0
13, 41132, Note_on_c, 9, 42, 65
13, 41136, Note_off_c, 9, 42, 0
13, 41180, Note_on_c, 9, 44, 105
13, 41184, Note_off_c, 9, 44, 0
13, 41228, Note_on_c, 9, 42, 65
13, 41232, Note_off_c, 9, 42, 0
13, 41276, Note_on_c, 9, 42, 65
13, 41280, Note_off_c, 9, 42, 0
13, 41324, Note_on_c, 9, 42, 65
13, 41328, Note_off_c, 9, 42, 0
13, 41372, Note_on_c, 9, 44, 105
13, 41376, Note_off_c, 9, 44, 0
13, 41420, Note_on_c, 9, 42, 65
13, 41424, Note_off_c, 9, 42, 0
13, 41468, Note_on_c, 9, 42, 65
13, 41472, Note_off_c, 9, 42, 0
13, 41516, Note_on_c, 9, 42, 65
13, 41520, Note_off_c, 9, 42, 0
13, 41564, Note_on_c, 9, 44, 105
13, 41568, Note_off_c, 9, 44, 0
13, 41612, Note_on_c, 9, 42, 65
13, 41616, Note_off_c, 9, 42, 0
13, 41660, Note_on_c, 9, 42, 65
13, 41664, Note_off_c, 9, 42, 0
13, 41708, Note_on_c, 9, 42, 65
13, 41712, Note_off_c, 9, 42, 0
13, 41756, Note_on_c, 9, 44, 105
13, 41760, Note_off_c, 9, 44, 0
13, 41804, Note_on_c, 9, 42, 65
13, 41808, Note_off_c, 9, 42, 0
13, 41852, Note_on_c, 9, 42, 65
13, 41856, Note_off_c, 9, 42, 0
13, 41900, Note_on_c, 9, 42, 65
13, 41904, Note_off_c, 9, 42, 0
13, 41948, Note_on_c, 9, 44, 105
13, 41952, Note_off_c, 9, 44, 0
13, 41996, Note_on_c, 9, 42, 65
13, 42000, Note_off_c, 9, 42, 0
13, 42044, Note_on_c, 9, 42, 65
13, 42048, Note_off_c, 9, 42, 0
13, 42092, Note_on_c, 9, 42, 65
13, 42096, Note_off_c, 9, 42, 0
13, 42140, Note_on_c, 9, 44, 105
13, 42144, Note_off_c, 9, 44, 0
13, 42188, Note_on_c, 9, 42, 65
13, 42192, Note_off_c, 9, 42, 0
13, 42236, Note_on_c, 9, 42, 65
13, 42240, Note_off_c, 9, 42, 0
13, 42284, Note_on_c, 9, 42, 65
13, 42288, Note_off_c, 9, 42, 0
13, 42332, Note_on_c, 9, 44, 105
13, 42336, Note_off_c, 9, 44, 0
13, 42380, Note_on_c, 9, 42, 65
13, 42384, Note_off_c, 9, 42, 0
13, 42428, Note_on_c, 9, 42, 65
13, 42432, Note_off_c, 9, 42, 0
13, 42476, Note_on_c, 9, 42, 65
13, 42480, Note_off_c, 9, 42, 0
13, 42524, Note_on_c, 9, 44, 105
13, 42528, Note_off_c, 9, 44, 0
13, 42572, Note_on_c, 9, 42, 65
13, 42576, Note_off_c, 9, 42, 0
13, 42620, Note_on_c, 9, 42, 65
13, 42624, Note_off_c, 9, 42, 0
13, 42668, Note_on_c, 9, 42, 65
13, 42672, Note_off_c, 9, 42, 0
13, 42716, Note_on_c, 9, 44, 105
13, 42720, Note_off_c, 9, 44, 0
13, 42764, Note_on_c, 9, 42, 65
13, 42768, Note_off_c, 9, 42, 0
13, 42812, Note_on_c, 9, 42, 65
13, 42816, Note_off_c, 9, 42, 0
13, 42860, Note_on_c, 9, 42, 65
13, 42864, Note_off_c, 9, 42, 0
13, 42908, Note_on_c, 9, 44, 105
13, 42912, Note_off_c, 9, 44, 0
13, 42956, Note_on_c, 9, 42, 65
13, 42960, Note_off_c, 9, 42, 0
13, 43004, Note_on_c, 9, 42, 65
13, 43008, Note_off_c, 9, 42, 0
13, 43052, Note_on_c, 9, 42, 65
13, 43056, Note_off_c, 9, 42, 0
13, 43100, Note_on_c, 9, 44, 105
13, 43104, Note_off_c, 9, 44, 0
13, 43148, Note_on_c, 9, 42, 65
13, 43152, Note_off_c, 9, 42, 0
13, 43196, Note_on_c, 9, 42, 65
13, 43200, Note_off_c, 9, 42, 0
13, 43244, Note_on_c, 9, 42, 65
13, 43248, Note_off_c, 9, 42, 0
13, 43292, Note_on_c, 9, 44, 105
13, 43296, Note_off_c, 9, 44, 0
13, 43340, Note_on_c, 9, 42, 65
13, 43344, Note_off_c, 9, 42, 0
13, 43388, Note_on_c, 9, 42, 65
13, 43392, Note_off_c, 9, 42, 0
13, 43436, Note_on_c, 9, 42, 65
13, 43440, Note_off_c, 9, 42, 0
13, 43484, Note_on_c, 9, 44, 105
13, 43488, Note_off_c, 9, 44, 0
13, 43532, Note_on_c, 9, 42, 65
13, 43536, Note_off_c, 9, 42, 0
13, 43580, Note_on_c, 9, 42, 65
13, 43584, Note_off_c, 9, 42, 0
13, 43628, Note_on_c, 9, 42, 65
13, 43632, Note_off_c, 9, 42, 0
13, 43676, Note_on_c, 9, 44, 105
13, 43680, Note_off_c, 9, 44, 0
13, 43724, Note_on_c, 9, 42, 65
13, 43728, Note_off_c, 9, 42, 0
13, 43772, Note_on_c, 9, 42, 65
13, 43776, Note_off_c, 9, 42, 0
13, 43820, Note_on_c, 9, 42, 65
13, 43824, Note_off_c, 9, 42, 0
13, 43868, Note_on_c, 9, 44, 105
13, 43872, Note_off_c, 9, 44, 0
13, 43916, Note_on_c, 9, 42, 65
13, 43920, Note_off_c, 9, 42, 0
13, 43964, Note_on_c, 9, 42, 65
13, 43968, Note_off_c, 9, 42, 0
13, 44012, Note_on_c, 9, 42, 65
13, 44016, Note_off_c, 9, 42, 0
13, 44060, Note_on_c, 9, 44, 105
13, 44064, Note_off_c, 9, 44, 0
13, 44108, Note_on_c, 9, 42, 65
13, 44112, Note_off_c, 9, 42, 0
13, 44156, Note_on_c, 9, 42, 65
13, 44160, Note_off_c, 9, 42, 0
13, 44204, Note_on_c, 9, 42, 65
13, 44208, Note_off_c, 9, 42, 0
13, 44252, Note_on_c, 9, 44, 105
13, 44256, Note_off_c, 9, 44, 0
13, 44300, Note_on_c, 9, 42, 65
13, 44304, Note_off_c, 9, 42, 0
13, 44348, Note_on_c, 9, 42, 65
13, 44352, Note_off_c, 9, 42, 0
13, 44396, Note_on_c, 9, 42, 65
13, 44400, Note_off_c, 9, 42, 0
13, 44444, Note_on_c, 9, 44, 105
13, 44448, Note_off_c, 9, 44, 0
13, 44492, Note_on_c, 9, 42, 65
13, 44496, Note_off_c, 9, 42, 0
13, 44540, Note_on_c, 9, 42, 65
13, 44544, Note_off_c, 9, 42, 0
13, 44588, Note_on_c, 9, 42, 65
13, 44592, Note_off_c, 9, 42, 0
13, 44636, Note_on_c, 9, 44, 105
13, 44640, Note_off_c, 9, 44, 0
13, 44684, Note_on_c, 9, 42, 65
13, 44688, Note_off_c, 9, 42, 0
13, 44732, Note_on_c, 9, 42, 65
13, 44736, Note_off_c, 9, 42, 0
13, 44780, Note_on_c, 9, 42, 65
13, 44784, Note_off_c, 9, 42, 0
13, 44828, Note_on_c, 9, 44, 105
13, 44832, Note_off_c, 9, 44, 0
13, 44876, Note_on_c, 9, 42, 65
13, 44880, Note_off_c, 9, 42, 0
13, 44924, Note_on_c, 9, 42, 65
13, 44928, Note_off_c, 9, 42, 0
13, 44972, Note_on_c, 9, 42, 65
13, 44976, Note_off_c, 9, 42, 0
13, 45020, Note_on_c, 9, 44, 105
13, 45024, Note_off_c, 9, 44, 0
13, 45068, Note_on_c, 9, 42, 65
13, 45072, Note_off_c, 9, 42, 0
13, 45116, Note_on_c, 9, 42, 65
13, 45120, Note_off_c, 9, 42, 0
13, 45164, Note_on_c, 9, 42, 65
13, 45168, Note_off_c, 9, 42, 0
13, 45212, Note_on_c, 9, 44, 105
13, 45216, Note_off_c, 9, 44, 0
13, 45260, Note_on_c, 9, 42, 65
13, 45264, Note_off_c, 9, 42, 0
13, 45308, Note_on_c, 9, 42, 65
13, 45312, Note_off_c, 9, 42, 0
13, 45356, Note_on_c, 9, 42, 65
13, 45360, Note_off_c, 9, 42, 0
13, 45404, Note_on_c, 9, 44, 105
13, 45408, Note_off_c, 9, 44, 0
13, 45452, Note_on_c, 9, 42, 65
13, 45456, Note_off_c, 9, 42, 0
13, 45500, Note_on_c, 9, 42, 65
13, 45504, Note_off_c, 9, 42, 0
13, 45548, Note_on_c, 9, 42, 65
13, 45552, Note_off_c, 9, 42, 0
13, 45596, Note_on_c, 9, 44, 105
13, 45600, Note_off_c, 9, 44, 0
13, 45644, Note_on_c, 9, 42, 65
13, 45648, Note_off_c, 9, 42, 0
13, 45692, Note_on_c, 9, 42, 65
13, 45696, Note_off_c, 9, 42, 0
13, 45740, Note_on_c, 9, 42, 65
13, 45744, Note_off_c, 9, 42, 0
13, 45788, Note_on_c, 9, 44, 105
13, 45792, Note_off_c, 9, 44, 0
13, 45836, Note_on_c, 9, 42, 65
13, 45840, Note_off_c, 9, 42, 0
13, 45884, Note_on_c, 9, 42, 65
13, 45888, Note_off_c, 9, 42, 0
13, 45932, Note_on_c, 9, 42, 65
13, 45936, Note_off_c, 9, 42, 0
13, 45980, Note_on_c, 9, 44, 105
13, 45984, Note_off_c, 9, 44, 0
13, 46028, Note_on_c, 9, 42, 65
13, 46032, Note_off_c, 9, 42, 0
13, 46076, Note_on_c, 9, 42, 65
13, 46080, Note_off_c, 9, 42, 0
13, 46124, Note_on_c, 9, 42, 65
13, 46128, Note_off_c, 9, 42, 0
13, 46172, Note_on_c, 9, 44, 105
13, 46176, Note_off_c, 9, 44, 0
13, 46220, Note_on_c, 9, 42, 65
13, 46224, Note_off_c, 9, 42, 0
13, 46268, Note_on_c, 9, 42, 65
13, 46272, Note_off_c, 9, 42, 0
13, 46316, Note_on_c, 9, 42, 65
13, 46320, Note_off_c, 9, 42, 0
13, 46364, Note_on_c, 9, 44, 105
13, 46368, Note_off_c, 9, 44, 0
13, 46412, Note_on_c, 9, 42, 65
13, 46416, Note_off_c, 9, 42, 0
13, 46460, Note_on_c, 9, 42, 65
13, 46464, Note_off_c, 9, 42, 0
13, 46508, Note_on_c, 9, 42, 65
13, 46512, Note_off_c, 9, 42, 0
13, 46556, Note_on_c, 9, 44, 105
13, 46560, Note_off_c, 9, 44, 0
13, 46604, Note_on_c, 9, 42, 65
13, 46608, Note_off_c, 9, 42, 0
13, 46652, Note_on_c, 9, 42, 65
13, 46656, Note_off_c, 9, 42, 0
13, 46700, Note_on_c, 9, 42, 65
13, 46704, Note_off_c, 9, 42, 0
13, 46748, Note_on_c, 9, 44, 105
13, 46752, Note_off_c, 9, 44, 0
13, 46796, Note_on_c, 9, 42, 65
13, 46800, Note_off_c, 9, 42, 0
13, 46844, Note_on_c, 9, 49, 80
13, 46844, Note_on_c, 9, 42, 65
13, 46848, Note_off_c, 9, 42, 0
13, 46848, Note_off_c, 9, 49, 0
13, 46892, Note_on_c, 9, 42, 65
13, 46896, Note_off_c, 9, 42, 0
13, 46940, Note_on_c, 9, 44, 105
13, 46944, Note_off_c, 9, 44, 0
13, 46988, Note_on_c, 9, 42, 65
13, 46992, Note_off_c, 9, 42, 0
13, 47036, Note_on_c, 9, 42, 65
13, 47040, Note_off_c, 9, 42, 0
13, 47084, Note_on_c, 9, 42, 65
13, 47088, Note_off_c, 9, 42, 0
13, 47132, Note_on_c, 9, 44, 105
13, 47136, Note_off_c, 9, 44, 0
13, 47180, Note_on_c, 9, 42, 65
13, 47184, Note_off_c, 9, 42, 0
13, 47228, Note_on_c, 9, 42, 65
13, 47232, Note_off_c, 9, 42, 0
13, 47276, Note_on_c, 9, 42, 65
13, 47280, Note_off_c, 9, 42, 0
13, 47324, Note_on_c, 9, 44, 105
13, 47328, Note_off_c, 9, 44, 0
13, 47372, Note_on_c, 9, 42, 65
13, 47376, Note_off_c, 9, 42, 0
13, 47420, Note_on_c, 9, 42, 65
13, 47424, Note_off_c, 9, 42, 0
13, 47468, Note_on_c, 9, 42, 65
13, 47472, Note_off_c, 9, 42, 0
13, 47516, Note_on_c, 9, 44, 105
13, 47520, Note_off_c, 9, 44, 0
13, 47564, Note_on_c, 9, 42, 65
13, 47568, Note_off_c, 9, 42, 0
13, 47612, Note_on_c, 9, 42, 65
13, 47616, Note_off_c, 9, 42, 0
13, 47660, Note_on_c, 9, 42, 65
13, 47664, Note_off_c, 9, 42, 0
13, 47708, Note_on_c, 9, 44, 105
13, 47712, Note_off_c, 9, 44, 0
13, 47756, Note_on_c, 9, 42, 65
13, 47760, Note_off_c, 9, 42, 0
13, 47804, Note_on_c, 9, 42, 65
13, 47808, Note_off_c, 9, 42, 0
13, 47852, Note_on_c, 9, 42, 65
13, 47856, Note_off_c, 9, 42, 0
13, 47900, Note_on_c, 9, 44, 105
13, 47904, Note_off_c, 9, 44, 0
13, 47948, Note_on_c, 9, 42, 65
13, 47952, Note_off_c, 9, 42, 0
13, 47996, Note_on_c, 9, 42, 65
13, 48000, Note_off_c, 9, 42, 0
13, 48044, Note_on_c, 9, 42, 65
13, 48048, Note_off_c, 9, 42, 0
13, 48092, Note_on_c, 9, 44, 105
13, 48096, Note_off_c, 9, 44, 0
13, 48140, Note_on_c, 9, 42, 65
13, 48144, Note_off_c, 9, 42, 0
13, 48188, Note_on_c, 9, 42, 65
13, 48192, Note_off_c, 9, 42, 0
13, 48236, Note_on_c, 9, 42, 65
13, 48240, Note_off_c, 9, 42, 0
13, 48284, Note_on_c, 9, 44, 105
13, 48288, Note_off_c, 9, 44, 0
13, 48332, Note_on_c, 9, 42, 65
13, 48336, Note_off_c, 9, 42, 0
13, 48380, Note_on_c, 9, 42, 65
13, 48384, Note_off_c, 9, 42, 0
13, 48428, Note_on_c, 9, 42, 65
13, 48432, Note_off_c, 9, 42, 0
13, 48476, Note_on_c, 9, 44, 105
13, 48480, Note_off_c, 9, 44, 0
13, 48524, Note_on_c, 9, 42, 65
13, 48528, Note_off_c, 9, 42, 0
13, 48572, Note_on_c, 9, 42, 65
13, 48576, Note_off_c, 9, 42, 0
13, 48620, Note_on_c, 9, 42, 65
13, 48624, Note_off_c, 9, 42, 0
13, 48668, Note_on_c, 9, 44, 105
13, 48672, Note_off_c, 9, 44, 0
13, 48716, Note_on_c, 9, 42, 65
13, 48720, Note_off_c, 9, 42, 0
13, 48764, Note_on_c, 9, 42, 65
13, 48768, Note_off_c, 9, 42, 0
13, 48812, Note_on_c, 9, 42, 65
13, 48816, Note_off_c, 9, 42, 0
13, 48860, Note_on_c, 9, 44, 105
13, 48864, Note_off_c, 9, 44, 0
13, 48908, Note_on_c, 9, 42, 65
13, 48912, Note_off_c, 9, 42, 0
13, 48956, Note_on_c, 9, 42, 65
13, 48960, Note_off_c, 9, 42, 0
13, 49004, Note_on_c, 9, 42, 65
13, 49008, Note_off_c, 9, 42, 0
13, 49052, Note_on_c, 9, 44, 105
13, 49056, Note_off_c, 9, 44, 0
13, 49100, Note_on_c, 9, 42, 65
13, 49104, Note_off_c, 9, 42, 0
13, 49148, Note_on_c, 9, 42, 65
13, 49152, Note_off_c, 9, 42, 0
13, 49196, Note_on_c, 9, 42, 65
13, 49200, Note_off_c, 9, 42, 0
13, 49244, Note_on_c, 9, 44, 105
13, 49248, Note_off_c, 9, 44, 0
13, 49292, Note_on_c, 9, 42, 65
13, 49296, Note_off_c, 9, 42, 0
13, 49340, Note_on_c, 9, 42, 65
13, 49344, Note_off_c, 9, 42, 0
13, 49388, Note_on_c, 9, 42, 65
13, 49392, Note_off_c, 9, 42, 0
13, 49436, Note_on_c, 9, 44, 105
13, 49440, Note_off_c, 9, 44, 0
13, 49484, Note_on_c, 9, 42, 65
13, 49488, Note_off_c, 9, 42, 0
13, 49532, Note_on_c, 9, 42, 65
13, 49536, Note_off_c, 9, 42, 0
13, 49580, Note_on_c, 9, 42, 65
13, 49584, Note_off_c, 9, 42, 0
13, 49628, Note_on_c, 9, 44, 105
13, 49632, Note_off_c, 9, 44, 0
13, 49676, Note_on_c, 9, 42, 65
13, 49680, Note_off_c, 9, 42, 0
13, 49724, Note_on_c, 9, 42, 65
13, 49728, Note_off_c, 9, 42, 0
13, 49772, Note_on_c, 9, 42, 65
13, 49776, Note_off_c, 9, 42, 0
13, 49820, Note_on_c, 9, 44, 105
13, 49824, Note_off_c, 9, 44, 0
13, 49868, Note_on_c, 9, 42, 65
13, 49872, Note_off_c, 9, 42, 0
13, 49916, Note_on_c, 9, 57, 80
13, 49916, Note_on_c, 9, 42, 65
13, 49920, Note_off_c, 9, 42, 0
13, 49920, Note_off_c, 9, 57, 0
13, 49964, Note_on_c, 9, 42, 65
13, 49968, Note_off_c, 9, 42, 0
13, 50012, Note_on_c, 9, 44, 105
13, 50016, Note_off_c, 9, 44, 0
13, 50060, Note_on_c, 9, 42, 65
13, 50064, Note_off_c, 9, 42, 0
13, 50108, Note_on_c, 9, 42, 65
13, 50112, Note_off_c, 9, 42, 0
13, 50156, Note_on_c, 9, 42, 65
13, 50160, Note_off_c, 9, 42, 0
13, 50204, Note_on_c, 9, 44, 105
13, 50208, Note_off_c, 9, 44, 0
13, 50252, Note_on_c, 9, 42, 65
13, 50256, Note_off_c, 9, 42, 0
13, 50300, Note_on_c, 9, 42, 65
13, 50304, Note_off_c, 9, 42, 0
13, 50348, Note_on_c, 9, 42, 65
13, 50352, Note_off_c, 9, 42, 0
13, 50396, Note_on_c, 9, 44, 105
13, 50400, Note_off_c, 9, 44, 0
13, 50444, Note_on_c, 9, 42, 65
13, 50448, Note_off_c, 9, 42, 0
13, 50492, Note_on_c, 9, 42, 65
13, 50496, Note_off_c, 9, 42, 0
13, 50540, Note_on_c, 9, 42, 65
13, 50544, Note_off_c, 9, 42, 0
13, 50588, Note_on_c, 9, 44, 105
13, 50592, Note_off_c, 9, 44, 0
13, 50636, Note_on_c, 9, 42, 65
13, 50640, Note_off_c, 9, 42, 0
13, 50684, Note_on_c, 9, 42, 65
13, 50688, Note_off_c, 9, 42, 0
13, 50732, Note_on_c, 9, 42, 65
13, 50736, Note_off_c, 9, 42, 0
13, 50780, Note_on_c, 9, 44, 105
13, 50784, Note_off_c, 9, 44, 0
13, 50828, Note_on_c, 9, 42, 65
13, 50832, Note_off_c, 9, 42, 0
13, 50876, Note_on_c, 9, 42, 65
13, 50880, Note_off_c, 9, 42, 0
13, 50924, Note_on_c, 9, 42, 65
13, 50928, Note_off_c, 9, 42, 0
13, 50972, Note_on_c, 9, 44, 105
13, 50976, Note_off_c, 9, 44, 0
13, 51020, Note_on_c, 9, 42, 65
13, 51024, Note_off_c, 9, 42, 0
13, 51068, Note_on_c, 9, 42, 65
13, 51072, Note_off_c, 9, 42, 0
13, 51116, Note_on_c, 9, 42, 65
13, 51120, Note_off_c, 9, 42, 0
13, 51164, Note_on_c, 9, 44, 105
13, 51168, Note_off_c, 9, 44, 0
13, 51212, Note_on_c, 9, 42, 65
13, 51216, Note_off_c, 9, 42, 0
13, 51260, Note_on_c, 9, 42, 65
13, 51264, Note_off_c, 9, 42, 0
13, 51308, Note_on_c, 9, 42, 65
13, 51312, Note_off_c, 9, 42, 0
13, 51356, Note_on_c, 9, 44, 105
13, 51360, Note_off_c, 9, 44, 0
13, 51404, Note_on_c, 9, 42, 65
13, 51408, Note_off_c, 9, 42, 0
13, 51452, Note_on_c, 9, 42, 65
13, 51456, Note_off_c, 9, 42, 0
13, 51500, Note_on_c, 9, 42, 65
13, 51504, Note_off_c, 9, 42, 0
13, 51548, Note_on_c, 9, 44, 105
13, 51552, Note_off_c, 9, 44, 0
13, 51596, Note_on_c, 9, 42, 65
13, 51600, Note_off_c, 9, 42, 0
13, 51644, Note_on_c, 9, 42, 65
13, 51648, Note_off_c, 9, 42, 0
13, 51692, Note_on_c, 9, 42, 65
13, 51696, Note_off_c, 9, 42, 0
13, 51740, Note_on_c, 9, 44, 105
13, 51744, Note_off_c, 9, 44, 0
13, 51788, Note_on_c, 9, 42, 65
13, 51792, Note_off_c, 9, 42, 0
13, 51836, Note_on_c, 9, 42, 65
13, 51840, Note_off_c, 9, 42, 0
13, 51884, Note_on_c, 9, 42, 65
13, 51888, Note_off_c, 9, 42, 0
13, 51932, Note_on_c, 9, 44, 105
13, 51936, Note_off_c, 9, 44, 0
13, 51980, Note_on_c, 9, 42, 65
13, 51984, Note_off_c, 9, 42, 0
13, 52028, Note_on_c, 9, 42, 65
13, 52032, Note_off_c, 9, 42, 0
13, 52076, Note_on_c, 9, 42, 65
13, 52080, Note_off_c, 9, 42, 0
13, 52124, Note_on_c, 9, 44, 105
13, 52128, Note_off_c, 9, 44, 0
13, 52172, Note_on_c, 9, 42, 65
13, 52176, Note_off_c, 9, 42, 0
13, 52220, Note_on_c, 9, 42, 65
13, 52224, Note_off_c, 9, 42, 0
13, 52268, Note_on_c, 9, 42, 65
13, 52272, Note_off_c, 9, 42, 0
13, 52316, Note_on_c, 9, 44, 105
13, 52320, Note_off_c, 9, 44, 0
13, 52364, Note_on_c, 9, 42, 65
13, 52368, Note_off_c, 9, 42, 0
13, 52412, Note_on_c, 9, 42, 65
13, 52416, Note_off_c, 9, 42, 0
13, 52460, Note_on_c, 9, 42, 65
13, 52464, Note_off_c, 9, 42, 0
13, 52508, Note_on_c, 9, 44, 105
13, 52512, Note_off_c, 9, 44, 0
13, 52556, Note_on_c, 9, 42, 65
13, 52560, Note_off_c, 9, 42, 0
13, 52604, Note_on_c, 9, 42, 65
13, 52608, Note_off_c, 9, 42, 0
13, 52652, Note_on_c, 9, 42, 65
13, 52656, Note_off_c, 9, 42, 0
13, 52700, Note_on_c, 9, 44, 105
13, 52704, Note_off_c, 9, 44, 0
13, 52748, Note_on_c, 9, 42, 65
13, 52752, Note_off_c, 9, 42, 0
13, 52796, Note_on_c, 9, 42, 65
13, 52800, Note_off_c, 9, 42, 0
13, 52844, Note_on_c, 9, 42, 65
13, 52848, Note_off_c, 9, 42, 0
13, 52892, Note_on_c, 9, 44, 105
13, 52896, Note_off_c, 9, 44, 0
13, 52940, Note_on_c, 9, 42, 65
13, 52944, Note_off_c, 9, 42, 0
13, 52988, Note_on_c, 9, 49, 80
13, 52988, Note_on_c, 9, 57, 80
13, 52988, Note_on_c, 9, 42, 65
13, 52992, Note_off_c, 9, 42, 0
13, 52992, Note_off_c, 9, 57, 0
13, 52992, Note_off_c, 9, 49, 0
13, 53036, Note_on_c, 9, 42, 65
13, 53040, Note_off_c, 9, 42, 0
13, 53084, Note_on_c, 9, 44, 105
13, 53088, Note_off_c, 9, 44, 0
13, 53132, Note_on_c, 9, 42, 65
13, 53136, Note_off_c, 9, 42, 0
13, 53180, Note_on_c, 9, 42, 65
13, 53184, Note_off_c, 9, 42, 0
13, 53228, Note_on_c, 9, 42, 65
13, 53232, Note_off_c, 9, 42, 0
13, 53276, Note_on_c, 9, 44, 105
13, 53280, Note_off_c, 9, 44, 0
13, 53324, Note_on_c, 9, 42, 65
13, 53328, Note_off_c, 9, 42, 0
13, 53372, Note_on_c, 9, 42, 65
13, 53376, Note_off_c, 9, 42, 0
13, 53420, Note_on_c, 9, 42, 65
13, 53424, Note_off_c, 9, 42, 0
13, 53468, Note_on_c, 9, 44, 105
13, 53472, Note_off_c, 9, 44, 0
13, 53516, Note_on_c, 9, 42, 65
13, 53520, Note_off_c, 9, 42, 0
13, 53564, Note_on_c, 9, 42, 65
13, 53568, Note_off_c, 9, 42, 0
13, 53612, Note_on_c, 9, 42, 65
13, 53616, Note_off_c, 9, 42, 0
13, 53660, Note_on_c, 9, 44, 105
13, 53664, Note_off_c, 9, 44, 0
13, 53708, Note_on_c, 9, 42, 65
13, 53712, Note_off_c, 9, 42, 0
13, 53756, Note_on_c, 9, 42, 65
13, 53760, Note_off_c, 9, 42, 0
13, 53804, Note_on_c, 9, 42, 65
13, 53808, Note_off_c, 9, 42, 0
13, 53852, Note_on_c, 9, 44, 105
13, 53856, Note_off_c, 9, 44, 0
13, 53900, Note_on_c, 9, 42, 65
13, 53904, Note_off_c, 9, 42, 0
13, 53948, Note_on_c, 9, 42, 65
13, 53952, Note_off_c, 9, 42, 0
13, 53996, Note_on_c, 9, 42, 65
13, 54000, Note_off_c, 9, 42, 0
13, 54044, Note_on_c, 9, 44, 105
13, 54048, Note_off_c, 9, 44, 0
13, 54092, Note_on_c, 9, 42, 65
13, 54096, Note_off_c, 9, 42, 0
13, 54140, Note_on_c, 9, 42, 65
13, 54144, Note_off_c, 9, 42, 0
13, 54188, Note_on_c, 9, 42, 65
13, 54192, Note_off_c, 9, 42, 0
13, 54236, Note_on_c, 9, 44, 105
13, 54240, Note_off_c, 9, 44, 0
13, 54284, Note_on_c, 9, 42, 65
13, 54288, Note_off_c, 9, 42, 0
13, 54332, Note_on_c, 9, 42, 65
13, 54336, Note_off_c, 9, 42, 0
13, 54380, Note_on_c, 9, 42, 65
13, 54384, Note_off_c, 9, 42, 0
13, 54428, Note_on_c, 9, 44, 105
13, 54432, Note_off_c, 9, 44, 0
13, 54476, Note_on_c, 9, 42, 65
13, 54480, Note_off_c, 9, 42, 0
13, 54524, Note_on_c, 9, 42, 65
13, 54528, Note_off_c, 9, 42, 0
13, 54572, Note_on_c, 9, 42, 65
13, 54576, Note_off_c, 9, 42, 0
13, 54620, Note_on_c, 9, 44, 105
13, 54624, Note_off_c, 9, 44, 0
13, 54668, Note_on_c, 9, 42, 65
13, 54672, Note_off_c, 9, 42, 0
13, 54716, Note_on_c, 9, 42, 65
13, 54720, Note_off_c, 9, 42, 0
13, 54764, Note_on_c, 9, 42, 65
13, 54768, Note_off_c, 9, 42, 0
13, 54812, Note_on_c, 9, 44, 105
13, 54816, Note_off_c, 9, 44, 0
13, 54860, Note_on_c, 9, 42, 65
13, 54864, Note_off_c, 9, 42, 0
13, 54908, Note_on_c, 9, 42, 65
13, 54912, Note_off_c, 9, 42, 0
13, 54956, Note_on_c, 9, 42, 65
13, 54960, Note_off_c, 9, 42, 0
13, 55004, Note_on_c, 9, 44, 105
13, 55008, Note_off_c, 9, 44, 0
13, 55052, Note_on_c, 9, 42, 65
13, 55056, Note_off_c, 9, 42, 0
13, 55100, Note_on_c, 9, 42, 65
13, 55104, Note_off_c, 9, 42, 0
13, 55148, Note_on_c, 9, 42, 65
13, 55152, Note_off_c, 9, 42, 0
13, 55196, Note_on_c, 9, 44, 105
13, 55200, Note_off_c, 9, 44, 0
13, 55244, Note_on_c, 9, 42, 65
13, 55248, Note_off_c, 9, 42, 0
13, 55292, Note_on_c, 9, 42, 65
13, 55296, Note_off_c, 9, 42, 0
13, 55340, Note_on_c, 9, 42, 65
13, 55344, Note_off_c, 9, 42, 0
13, 55388, Note_on_c, 9, 44, 105
13, 55392, Note_off_c, 9, 44, 0
13, 55436, Note_on_c, 9, 42, 65
13, 55440, Note_off_c, 9, 42, 0
13, 55484, Note_on_c, 9, 42, 65
13, 55488, Note_off_c, 9, 42, 0
13, 55508, Note_on_c, 9, 42, 55
13, 55512, Note_off_c, 9, 42, 0
13, 55532, Note_on_c, 9, 42, 65
13, 55536, Note_off_c, 9, 42, 0
13, 55580, Note_on_c, 9, 44, 105
13, 55584, Note_off_c, 9, 44, 0
13, 55628, Note_on_c, 9, 42, 65
13, 55632, Note_off_c, 9, 42, 0
13, 55676, Note_on_c, 9, 42, 65
13, 55680, Note_off_c, 9, 42, 0
13, 55700, Note_on_c, 9, 42, 55
13, 55704, Note_off_c, 9, 42, 0
13, 55724, Note_on_c, 9, 42, 65
13, 55728, Note_off_c, 9, 42, 0
13, 55772, Note_on_c, 9, 44, 105
13, 55776, Note_off_c, 9, 44, 0
13, 55820, Note_on_c, 9, 42, 65
13, 55824, Note_off_c, 9, 42, 0
13, 55868, Note_on_c, 9, 42, 65
13, 55872, Note_off_c, 9, 42, 0
13, 55892, Note_on_c, 9, 42, 55
13, 55896, Note_off_c, 9, 42, 0
13, 55916, Note_on_c, 9, 42, 65
13, 55920, Note_off_c, 9, 42, 0
13, 55964, Note_on_c, 9, 46, 85
13, 56056, Note_off_c, 9, 46, 0
13, 56060, Note_on_c, 9, 57, 70
13, 56060, Note_on_c, 9, 42, 65
13, 56064, Note_off_c, 9, 42, 0
13, 56064, Note_off_c, 9, 57, 0
13, 56108, Note_on_c, 9, 42, 65
13, 56112, Note_off_c, 9, 42, 0
13, 56156, Note_on_c, 9, 44, 105
13, 56160, Note_off_c, 9, 44, 0
13, 56204, Note_on_c, 9, 42, 65
13, 56208, Note_off_c, 9, 42, 0
13, 56252, Note_on_c, 9, 42, 65
13, 56256, Note_off_c, 9, 42, 0
13, 56300, Note_on_c, 9, 42, 65
13, 56304, Note_off_c, 9, 42, 0
13, 56348, Note_on_c, 9, 44, 105
13, 56352, Note_off_c, 9, 44, 0
13, 56396, Note_on_c, 9, 42, 65
13, 56400, Note_off_c, 9, 42, 0
13, 56444, Note_on_c, 9, 42, 65
13, 56448, Note_off_c, 9, 42, 0
13, 56492, Note_on_c, 9, 42, 65
13, 56496, Note_off_c, 9, 42, 0
13, 56540, Note_on_c, 9, 44, 105
13, 56544, Note_off_c, 9, 44, 0
13, 56588, Note_on_c, 9, 42, 65
13, 56592, Note_off_c, 9, 42, 0
13, 56636, Note_on_c, 9, 42, 65
13, 56640, Note_off_c, 9, 42, 0
13, 56684, Note_on_c, 9, 42, 65
13, 56688, Note_off_c, 9, 42, 0
13, 56732, Note_on_c, 9, 44, 105
13, 56736, Note_off_c, 9, 44, 0
13, 56780, Note_on_c, 9, 42, 65
13, 56784, Note_off_c, 9, 42, 0
13, 56828, Note_on_c, 9, 42, 65
13, 56832, Note_off_c, 9, 42, 0
13, 56876, Note_on_c, 9, 42, 65
13, 56880, Note_off_c, 9, 42, 0
13, 56924, Note_on_c, 9, 44, 105
13, 56928, Note_off_c, 9, 44, 0
13, 56972, Note_on_c, 9, 42, 65
13, 56976, Note_off_c, 9, 42, 0
13, 57020, Note_on_c, 9, 42, 65
13, 57024, Note_off_c, 9, 42, 0
13, 57068, Note_on_c, 9, 42, 65
13, 57072, Note_off_c, 9, 42, 0
13, 57116, Note_on_c, 9, 44, 105
13, 57120, Note_off_c, 9, 44, 0
13, 57164, Note_on_c, 9, 42, 65
13, 57168, Note_off_c, 9, 42, 0
13, 57212, Note_on_c, 9, 42, 65
13, 57216, Note_off_c, 9, 42, 0
13, 57260, Note_on_c, 9, 42, 65
13, 57264, Note_off_c, 9, 42, 0
13, 57308, Note_on_c, 9, 44, 105
13, 57312, Note_off_c, 9, 44, 0
13, 57356, Note_on_c, 9, 42, 65
13, 57360, Note_off_c, 9, 42, 0
13, 57404, Note_on_c, 9, 42, 65
13, 57408, Note_off_c, 9, 42, 0
13, 57452, Note_on_c, 9, 42, 65
13, 57456, Note_off_c, 9, 42, 0
13, 57500, Note_on_c, 9, 44, 105
13, 57504, Note_off_c, 9, 44, 0
13, 57548, Note_on_c, 9, 42, 65
13, 57552, Note_off_c, 9, 42, 0
13, 57596, Note_on_c, 9, 42, 65
13, 57600, Note_off_c, 9, 42, 0
13, 57644, Note_on_c, 9, 42, 65
13, 57648, Note_off_c, 9, 42, 0
13, 57692, Note_on_c, 9, 44, 105
13, 57696, Note_off_c, 9, 44, 0
13, 57740, Note_on_c, 9, 42, 65
13, 57744, Note_off_c, 9, 42, 0
13, 57788, Note_on_c, 9, 42, 65
13, 57792, Note_off_c, 9, 42, 0
13, 57836, Note_on_c, 9, 42, 65
13, 57840, Note_off_c, 9, 42, 0
13, 57884, Note_on_c, 9, 44, 105
13, 57888, Note_off_c, 9, 44, 0
13, 57932, Note_on_c, 9, 42, 65
13, 57936, Note_off_c, 9, 42, 0
13, 57980, Note_on_c, 9, 42, 65
13, 57984, Note_off_c, 9, 42, 0
13, 58028, Note_on_c, 9, 42, 65
13, 58032, Note_off_c, 9, 42, 0
13, 58076, Note_on_c, 9, 44, 105
13, 58080, Note_off_c, 9, 44, 0
13, 58124, Note_on_c, 9, 42, 65
13, 58128, Note_off_c, 9, 42, 0
13, 58172, Note_on_c, 9, 42, 65
13, 58176, Note_off_c, 9, 42, 0
13, 58220, Note_on_c, 9, 42, 65
13, 58224, Note_off_c, 9, 42, 0
13, 58268, Note_on_c, 9, 44, 105
13, 58272, Note_off_c, 9, 44, 0
13, 58316, Note_on_c, 9, 42, 65
13, 58320, Note_off_c, 9, 42, 0
13, 58364, Note_on_c, 9, 57, 70
13, 58364, Note_on_c, 9, 42, 65
13, 58368, Note_off_c, 9, 42, 0
13, 58368, Note_off_c, 9, 57, 0
13, 58412, Note_on_c, 9, 42, 65
13, 58416, Note_off_c, 9, 42, 0
13, 58460, Note_on_c, 9, 44, 105
13, 58464, Note_off_c, 9, 44, 0
13, 58508, Note_on_c, 9, 42, 65
13, 58512, Note_off_c, 9, 42, 0
13, 58556, Note_on_c, 9, 42, 65
13, 58560, Note_off_c, 9, 42, 0
13, 58604, Note_on_c, 9, 42, 65
13, 58608, Note_off_c, 9, 42, 0
13, 58652, Note_on_c, 9, 44, 105
13, 58656, Note_off_c, 9, 44, 0
13, 58700, Note_on_c, 9, 42, 65
13, 58704, Note_off_c, 9, 42, 0
13, 58748, Note_on_c, 9, 49, 70
13, 58748, Note_on_c, 9, 57, 70
13, 58748, Note_on_c, 9, 42, 65
13, 58752, Note_off_c, 9, 42, 0
13, 58752, Note_off_c, 9, 57, 0
13, 58752, Note_off_c, 9, 49, 0
13, 58796, Note_on_c, 9, 42, 65
13, 58800, Note_off_c, 9, 42, 0
13, 58844, Note_on_c, 9, 44, 105
13, 58848, Note_off_c, 9, 44, 0
13, 58892, Note_on_c, 9, 42, 65
13, 58896, Note_off_c, 9, 42, 0
13, 58940, Note_on_c, 9, 42, 65
13, 58944, Note_off_c, 9, 42, 0
13, 58988, Note_on_c, 9, 42, 65
13, 58992, Note_off_c, 9, 42, 0
13, 59036, Note_on_c, 9, 44, 105
13, 59040, Note_off_c, 9, 44, 0
13, 59084, Note_on_c, 9, 42, 65
13, 59088, Note_off_c, 9, 42, 0
13, 59132, Note_on_c, 9, 49, 70
13, 59132, Note_on_c, 9, 42, 65
13, 59136, Note_off_c, 9, 42, 0
13, 59136, Note_off_c, 9, 49, 0
13, 59180, Note_on_c, 9, 42, 65
13, 59184, Note_off_c, 9, 42, 0
13, 59228, Note_on_c, 9, 44, 105
13, 59232, Note_off_c, 9, 44, 0
13, 59276, Note_on_c, 9, 42, 65
13, 59280, Note_off_c, 9, 42, 0
13, 59324, Note_on_c, 9, 42, 65
13, 59328, Note_off_c, 9, 42, 0
13, 59372, Note_on_c, 9, 42, 65
13, 59376, Note_off_c, 9, 42, 0
13, 59420, Note_on_c, 9, 44, 105
13, 59424, Note_off_c, 9, 44, 0
13, 59468, Note_on_c, 9, 42, 65
13, 59472, Note_off_c, 9, 42, 0
13, 59516, Note_on_c, 9, 42, 65
13, 59520, Note_off_c, 9, 42, 0
13, 59564, Note_on_c, 9, 42, 65
13, 59568, Note_off_c, 9, 42, 0
13, 59612, Note_on_c, 9, 44, 105
13, 59616, Note_off_c, 9, 44, 0
13, 59660, Note_on_c, 9, 42, 65
13, 59664, Note_off_c, 9, 42, 0
13, 59708, Note_on_c, 9, 42, 65
13, 59712, Note_off_c, 9, 42, 0
13, 59756, Note_on_c, 9, 42, 65
13, 59760, Note_off_c, 9, 42, 0
13, 59804, Note_on_c, 9, 44, 105
13, 59808, Note_off_c, 9, 44, 0
13, 59852, Note_on_c, 9, 42, 65
13, 59856, Note_off_c, 9, 42, 0
13, 59900, Note_on_c, 9, 42, 65
13, 59904, Note_off_c, 9, 42, 0
13, 59948, Note_on_c, 9, 42, 65
13, 59952, Note_off_c, 9, 42, 0
13, 59996, Note_on_c, 9, 44, 105
13, 60000, Note_off_c, 9, 44, 0
13, 60044, Note_on_c, 9, 42, 65
13, 60048, Note_off_c, 9, 42, 0
13, 60092, Note_on_c, 9, 42, 65
13, 60096, Note_off_c, 9, 42, 0
13, 60140, Note_on_c, 9, 42, 65
13, 60144, Note_off_c, 9, 42, 0
13, 60188, Note_on_c, 9, 44, 105
13, 60192, Note_off_c, 9, 44, 0
13, 60236, Note_on_c, 9, 42, 65
13, 60240, Note_off_c, 9, 42, 0
13, 60284, Note_on_c, 9, 42, 65
13, 60288, Note_off_c, 9, 42, 0
13, 60332, Note_on_c, 9, 42, 65
13, 60336, Note_off_c, 9, 42, 0
13, 60380, Note_on_c, 9, 44, 105
13, 60384, Note_off_c, 9, 44, 0
13, 60428, Note_on_c, 9, 42, 65
13, 60432, Note_off_c, 9, 42, 0
13, 60476, Note_on_c, 9, 42, 65
13, 60480, Note_off_c, 9, 42, 0
13, 60524, Note_on_c, 9, 42, 65
13, 60528, Note_off_c, 9, 42, 0
13, 60572, Note_on_c, 9, 44, 105
13, 60576, Note_off_c, 9, 44, 0
13, 60620, Note_on_c, 9, 42, 65
13, 60624, Note_off_c, 9, 42, 0
13, 60668, Note_on_c, 9, 42, 65
13, 60672, Note_off_c, 9, 42, 0
13, 60716, Note_on_c, 9, 42, 65
13, 60720, Note_off_c, 9, 42, 0
13, 60764, Note_on_c, 9, 44, 105
13, 60768, Note_off_c, 9, 44, 0
13, 60812, Note_on_c, 9, 42, 65
13, 60816, Note_off_c, 9, 42, 0
13, 60860, Note_on_c, 9, 42, 65
13, 60864, Note_off_c, 9, 42, 0
13, 60908, Note_on_c, 9, 42, 65
13, 60912, Note_off_c, 9, 42, 0
13, 60956, Note_on_c, 9, 44, 105
13, 60960, Note_off_c, 9, 44, 0
13, 61004, Note_on_c, 9, 42, 65
13, 61008, Note_off_c, 9, 42, 0
13, 61052, Note_on_c, 9, 42, 65
13, 61056, Note_off_c, 9, 42, 0
13, 61100, Note_on_c, 9, 42, 65
13, 61104, Note_off_c, 9, 42, 0
13, 61148, Note_on_c, 9, 44, 105
13, 61152, Note_off_c, 9, 44, 0
13, 61196, Note_on_c, 9, 42, 65
13, 61200, Note_off_c, 9, 42, 0
13, 61244, Note_on_c, 9, 42, 65
13, 61248, Note_off_c, 9, 42, 0
13, 61292, Note_on_c, 9, 42, 65
13, 61296, Note_off_c, 9, 42, 0
13, 61340, Note_on_c, 9, 44, 105
13, 61344, Note_off_c, 9, 44, 0
13, 61388, Note_on_c, 9, 42, 65
13, 61392, Note_off_c, 9, 42, 0
13, 61436, Note_on_c, 9, 42, 65
13, 61440, Note_off_c, 9, 42, 0
13, 61484, Note_on_c, 9, 42, 65
13, 61488, Note_off_c, 9, 42, 0
13, 61532, Note_on_c, 9, 44, 105
13, 61536, Note_off_c, 9, 44, 0
13, 61580, Note_on_c, 9, 42, 65
13, 61584, Note_off_c, 9, 42, 0
13, 61628, Note_on_c, 9, 42, 65
13, 61632, Note_off_c, 9, 42, 0
13, 61652, Note_on_c, 9, 42, 55
13, 61656, Note_off_c, 9, 42, 0
13, 61676, Note_on_c, 9, 42, 65
13, 61680, Note_off_c, 9, 42, 0
13, 61724, Note_on_c, 9, 44, 105
13, 61728, Note_off_c, 9, 44, 0
13, 61772, Note_on_c, 9, 42, 65
13, 61776, Note_off_c, 9, 42, 0
13, 61820, Note_on_c, 9, 42, 65
13, 61824, Note_off_c, 9, 42, 0
13, 61844, Note_on_c, 9, 42, 55
13, 61848, Note_off_c, 9, 42, 0
13, 61868, Note_on_c, 9, 42, 65
13, 61872, Note_off_c, 9, 42, 0
13, 61916, Note_on_c, 9, 44, 105
13, 61920, Note_off_c, 9, 44, 0
13, 61964, Note_on_c, 9, 42, 65
13, 61968, Note_off_c, 9, 42, 0
13, 62012, Note_on_c, 9, 42, 65
13, 62016, Note_off_c, 9, 42, 0
13, 62036, Note_on_c, 9, 42, 55
13, 62040, Note_off_c, 9, 42, 0
13, 62060, Note_on_c, 9, 42, 65
13, 62064, Note_off_c, 9, 42, 0
13, 62108, Note_on_c, 9, 46, 85
13, 62200, Note_off_c, 9, 46, 0
13, 62204, Note_on_c, 9, 57, 70
13, 62204, Note_on_c, 9, 42, 65
13, 62208, Note_off_c, 9, 42, 0
13, 62208, Note_off_c, 9, 57, 0
13, 62252, Note_on_c, 9, 42, 65
13, 62256, Note_off_c, 9, 42, 0
13, 62300, Note_on_c, 9, 44, 105
13, 62304, Note_off_c, 9, 44, 0
13, 62348, Note_on_c, 9, 42, 65
13, 62352, Note_off_c, 9, 42, 0
13, 62396, Note_on_c, 9, 42, 65
13, 62400, Note_off_c, 9, 42, 0
13, 62444, Note_on_c, 9, 42, 65
13, 62448, Note_off_c, 9, 42, 0
13, 62492, Note_on_c, 9, 44, 105
13, 62496, Note_off_c, 9, 44, 0
13, 62540, Note_on_c, 9, 42, 65
13, 62544, Note_off_c, 9, 42, 0
13, 62588, Note_on_c, 9, 42, 65
13, 62592, Note_off_c, 9, 42, 0
13, 62636, Note_on_c, 9, 42, 65
13, 62640, Note_off_c, 9, 42, 0
13, 62684, Note_on_c, 9, 44, 105
13, 62688, Note_off_c, 9, 44, 0
13, 62732, Note_on_c, 9, 42, 65
13, 62736, Note_off_c, 9, 42, 0
13, 62780, Note_on_c, 9, 42, 65
13, 62784, Note_off_c, 9, 42, 0
13, 62828, Note_on_c, 9, 42, 65
13, 62832, Note_off_c, 9, 42, 0
13, 62876, Note_on_c, 9, 44, 105
13, 62880, Note_off_c, 9, 44, 0
13, 62924, Note_on_c, 9, 42, 65
13, 62928, Note_off_c, 9, 42, 0
13, 62972, Note_on_c, 9, 42, 65
13, 62976, Note_off_c, 9, 42, 0
13, 63020, Note_on_c, 9, 42, 65
13, 63024, Note_off_c, 9, 42, 0
13, 63068, Note_on_c, 9, 44, 105
13, 63072, Note_off_c, 9, 44, 0
13, 63116, Note_on_c, 9, 42, 65
13, 63120, Note_off_c, 9, 42, 0
13, 63164, Note_on_c, 9, 42, 65
13, 63168, Note_off_c, 9, 42, 0
13, 63212, Note_on_c, 9, 42, 65
13, 63216, Note_off_c, 9, 42, 0
13, 63260, Note_on_c, 9, 44, 105
13, 63264, Note_off_c, 9, 44, 0
13, 63308, Note_on_c, 9, 42, 65
13, 63312, Note_off_c, 9, 42, 0
13, 63356, Note_on_c, 9, 42, 65
13, 63360, Note_off_c, 9, 42, 0
13, 63404, Note_on_c, 9, 42, 65
13, 63408, Note_off_c, 9, 42, 0
13, 63452, Note_on_c, 9, 44, 105
13, 63456, Note_off_c, 9, 44, 0
13, 63500, Note_on_c, 9, 42, 65
13, 63504, Note_off_c, 9, 42, 0
13, 63548, Note_on_c, 9, 42, 65
13, 63552, Note_off_c, 9, 42, 0
13, 63596, Note_on_c, 9, 42, 65
13, 63600, Note_off_c, 9, 42, 0
13, 63644, Note_on_c, 9, 44, 105
13, 63648, Note_off_c, 9, 44, 0
13, 63692, Note_on_c, 9, 42, 65
13, 63696, Note_off_c, 9, 42, 0
13, 63740, Note_on_c, 9, 57, 70
13, 63740, Note_on_c, 9, 42, 65
13, 63744, Note_off_c, 9, 42, 0
13, 63744, Note_off_c, 9, 57, 0
13, 63788, Note_on_c, 9, 42, 65
13, 63792, Note_off_c, 9, 42, 0
13, 63836, Note_on_c, 9, 44, 105
13, 63840, Note_off_c, 9, 44, 0
13, 63884, Note_on_c, 9, 42, 65
13, 63888, Note_off_c, 9, 42, 0
13, 63932, Note_on_c, 9, 42, 65
13, 63936, Note_off_c, 9, 42, 0
13, 63980, Note_on_c, 9, 42, 65
13, 63984, Note_off_c, 9, 42, 0
13, 64028, Note_on_c, 9, 44, 105
13, 64032, Note_off_c, 9, 44, 0
13, 64076, Note_on_c, 9, 42, 65
13, 64080, Note_off_c, 9, 42, 0
13, 64124, Note_on_c, 9, 42, 65
13, 64128, Note_off_c, 9, 42, 0
13, 64172, Note_on_c, 9, 42, 65
13, 64176, Note_off_c, 9, 42, 0
13, 64220, Note_on_c, 9, 44, 105
13, 64224, Note_off_c, 9, 44, 0
13, 64268, Note_on_c, 9, 42, 65
13, 64272, Note_off_c, 9, 42, 0
13, 64316, Note_on_c, 9, 42, 65
13, 64320, Note_off_c, 9, 42, 0
13, 64364, Note_on_c, 9, 42, 65
13, 64368, Note_off_c, 9, 42, 0
13, 64412, Note_on_c, 9, 44, 105
13, 64416, Note_off_c, 9, 44, 0
13, 64460, Note_on_c, 9, 42, 65
13, 64464, Note_off_c, 9, 42, 0
13, 64508, Note_on_c, 9, 57, 70
13, 64508, Note_on_c, 9, 42, 65
13, 64512, Note_off_c, 9, 42, 0
13, 64512, Note_off_c, 9, 57, 0
13, 64556, Note_on_c, 9, 42, 65
13, 64560, Note_off_c, 9, 42, 0
13, 64604, Note_on_c, 9, 44, 105
13, 64608, Note_off_c, 9, 44, 0
13, 64652, Note_on_c, 9, 42, 65
13, 64656, Note_off_c, 9, 42, 0
13, 64700, Note_on_c, 9, 49, 70
13, 64700, Note_on_c, 9, 57, 70
13, 64700, Note_on_c, 9, 42, 65
13, 64704, Note_off_c, 9, 42, 0
13, 64704, Note_off_c, 9, 57, 0
13, 64704, Note_off_c, 9, 49, 0
13, 64748, Note_on_c, 9, 42, 65
13, 64752, Note_off_c, 9, 42, 0
13, 64796, Note_on_c, 9, 44, 105
13, 64800, Note_off_c, 9, 44, 0
13, 64844, Note_on_c, 9, 42, 65
13, 64848, Note_off_c, 9, 42, 0
13, 64892, Note_on_c, 9, 49, 70
13, 64892, Note_on_c, 9, 42, 65
13, 64896, Note_off_c, 9, 42, 0
13, 64896, Note_off_c, 9, 49, 0
13, 64940, Note_on_c, 9, 42, 65
13, 64944, Note_off_c, 9, 42, 0
13, 64988, Note_on_c, 9, 44, 105
13, 64992, Note_off_c, 9, 44, 0
13, 65036, Note_on_c, 9, 42, 65
13, 65040, Note_off_c, 9, 42, 0
13, 65084, Note_on_c, 9, 49, 80
13, 65084, Note_on_c, 9, 57, 80
13, 65084, Note_on_c, 9, 42, 65
13, 65088, Note_off_c, 9, 42, 0
13, 65088, Note_off_c, 9, 57, 0
13, 65088, Note_off_c, 9, 49, 0
13, 65132, Note_on_c, 9, 42, 65
13, 65136, Note_off_c, 9, 42, 0
13, 65180, Note_on_c, 9, 44, 105
13, 65184, Note_off_c, 9, 44, 0
13, 65228, Note_on_c, 9, 42, 65
13, 65232, Note_off_c, 9, 42, 0
13, 65276, Note_on_c, 9, 49, 80
13, 65276, Note_on_c, 9, 57, 80
13, 65276, Note_on_c, 9, 42, 65
13, 65280, Note_off_c, 9, 42, 0
13, 65280, Note_off_c, 9, 57, 0
13, 65280, Note_off_c, 9, 49, 0
13, 65324, Note_on_c, 9, 42, 65
13, 65328, Note_off_c, 9, 42, 0
13, 65372, Note_on_c, 9, 44, 105
13, 65376, Note_off_c, 9, 44, 0
13, 65420, Note_on_c, 9, 42, 65
13, 65424, Note_off_c, 9, 42, 0
13, 65468, Note_on_c, 9, 42, 65
13, 65472, Note_off_c, 9, 42, 0
13, 65516, Note_on_c, 9, 42, 65
13, 65520, Note_off_c, 9, 42, 0
13, 65564, Note_on_c, 9, 44, 105
13, 65568, Note_off_c, 9, 44, 0
13, 65612, Note_on_c, 9, 42, 65
13, 65616, Note_off_c, 9, 42, 0
13, 65660, Note_on_c, 9, 42, 65
13, 65664, Note_off_c, 9, 42, 0
13, 65708, Note_on_c, 9, 42, 65
13, 65712, Note_off_c, 9, 42, 0
13, 65756, Note_on_c, 9, 44, 105
13, 65760, Note_off_c, 9, 44, 0
13, 65804, Note_on_c, 9, 42, 65
13, 65808, Note_off_c, 9, 42, 0
13, 65852, Note_on_c, 9, 42, 65
13, 65856, Note_off_c, 9, 42, 0
13, 65900, Note_on_c, 9, 42, 65
13, 65904, Note_off_c, 9, 42, 0
13, 65948, Note_on_c, 9, 44, 105
13, 65952, Note_off_c, 9, 44, 0
13, 65996, Note_on_c, 9, 42, 65
13, 66000, Note_off_c, 9, 42, 0
13, 66044, Note_on_c, 9, 42, 65
13, 66048, Note_off_c, 9, 42, 0
13, 66092, Note_on_c, 9, 42, 65
13, 66096, Note_off_c, 9, 42, 0
13, 66140, Note_on_c, 9, 44, 105
13, 66144, Note_off_c, 9, 44, 0
13, 66188, Note_on_c, 9, 42, 65
13, 66192, Note_off_c, 9, 42, 0
13, 66236, Note_on_c, 9, 42, 65
13, 66240, Note_off_c, 9, 42, 0
13, 66284, Note_on_c, 9, 42, 65
13, 66288, Note_off_c, 9, 42, 0
13, 66332, Note_on_c, 9, 44, 105
13, 66336, Note_off_c, 9, 44, 0
13, 66380, Note_on_c, 9, 42, 65
13, 66384, Note_off_c, 9, 42, 0
13, 66428, Note_on_c, 9, 42, 65
13, 66432, Note_off_c, 9, 42, 0
13, 66476, Note_on_c, 9, 42, 65
13, 66480, Note_off_c, 9, 42, 0
13, 66524, Note_on_c, 9, 44, 105
13, 66528, Note_off_c, 9, 44, 0
13, 66572, Note_on_c, 9, 42, 65
13, 66576, Note_off_c, 9, 42, 0
13, 66620, Note_on_c, 9, 42, 65
13, 66624, Note_off_c, 9, 42, 0
13, 66668, Note_on_c, 9, 42, 65
13, 66672, Note_off_c, 9, 42, 0
13, 66716, Note_on_c, 9, 44, 105
13, 66720, Note_off_c, 9, 44, 0
13, 66764, Note_on_c, 9, 42, 65
13, 66768, Note_off_c, 9, 42, 0
13, 66812, Note_on_c, 9, 42, 65
13, 66816, Note_off_c, 9, 42, 0
13, 66860, Note_on_c, 9, 42, 65
13, 66864, Note_off_c, 9, 42, 0
13, 66908, Note_on_c, 9, 44, 105
13, 66912, Note_off_c, 9, 44, 0
13, 66956, Note_on_c, 9, 42, 65
13, 66960, Note_off_c, 9, 42, 0
13, 67004, Note_on_c, 9, 42, 65
13, 67008, Note_off_c, 9, 42, 0
13, 67052, Note_on_c, 9, 42, 65
13, 67056, Note_off_c, 9, 42, 0
13, 67100, Note_on_c, 9, 44, 105
13, 67104, Note_off_c, 9, 44, 0
13, 67148, Note_on_c, 9, 42, 65
13, 67152, Note_off_c, 9, 42, 0
13, 67196, Note_on_c, 9, 42, 65
13, 67200, Note_off_c, 9, 42, 0
13, 67244, Note_on_c, 9, 42, 65
13, 67248, Note_off_c, 9, 42, 0
13, 67292, Note_on_c, 9, 44, 105
13, 67296, Note_off_c, 9, 44, 0
13, 67340, Note_on_c, 9, 42, 65
13, 67344, Note_off_c, 9, 42, 0
13, 67388, Note_on_c, 9, 42, 65
13, 67392, Note_off_c, 9, 42, 0
13, 67436, Note_on_c, 9, 42, 65
13, 67440, Note_off_c, 9, 42, 0
13, 67484, Note_on_c, 9, 44, 105
13, 67488, Note_off_c, 9, 44, 0
13, 67532, Note_on_c, 9, 42, 65
13, 67536, Note_off_c, 9, 42, 0
13, 67580, Note_on_c, 9, 42, 65
13, 67584, Note_off_c, 9, 42, 0
13, 67628, Note_on_c, 9, 42, 65
13, 67632, Note_off_c, 9, 42, 0
13, 67676, Note_on_c, 9, 44, 105
13, 67680, Note_off_c, 9, 44, 0
13, 67724, Note_on_c, 9, 42, 65
13, 67728, Note_off_c, 9, 42, 0
13, 67772, Note_on_c, 9, 42, 65
13, 67776, Note_off_c, 9, 42, 0
13, 67820, Note_on_c, 9, 42, 65
13, 67824, Note_off_c, 9, 42, 0
13, 67868, Note_on_c, 9, 44, 105
13, 67872, Note_off_c, 9, 44, 0
13, 67916, Note_on_c, 9, 42, 65
13, 67920, Note_off_c, 9, 42, 0
13, 67964, Note_on_c, 9, 42, 65
13, 67968, Note_off_c, 9, 42, 0
13, 68012, Note_on_c, 9, 42, 65
13, 68016, Note_off_c, 9, 42, 0
13, 68060, Note_on_c, 9, 44, 105
13, 68064, Note_off_c, 9, 44, 0
13, 68108, Note_on_c, 9, 42, 65
13, 68112, Note_off_c, 9, 42, 0
13, 68156, Note_on_c, 9, 42, 65
13, 68160, Note_off_c, 9, 42, 0
13, 68204, Note_on_c, 9, 42, 65
13, 68208, Note_off_c, 9, 42, 0
13, 68252, Note_on_c, 9, 46, 80
13, 68256, Note_off_c, 9, 46, 0
13, 68300, Note_on_c, 9, 42, 65
13, 68304, Note_off_c, 9, 42, 0
13, 68348, Note_on_c, 9, 57, 70
13, 68348, Note_on_c, 9, 42, 65
13, 68352, Note_off_c, 9, 42, 0
13, 68352, Note_off_c, 9, 57, 0
13, 68396, Note_on_c, 9, 42, 65
13, 68400, Note_off_c, 9, 42, 0
13, 68444, Note_on_c, 9, 44, 105
13, 68448, Note_off_c, 9, 44, 0
13, 68492, Note_on_c, 9, 42, 65
13, 68496, Note_off_c, 9, 42, 0
13, 68540, Note_on_c, 9, 42, 65
13, 68544, Note_off_c, 9, 42, 0
13, 68588, Note_on_c, 9, 42, 65
13, 68592, Note_off_c, 9, 42, 0
13, 68636, Note_on_c, 9, 44, 105
13, 68640, Note_off_c, 9, 44, 0
13, 68684, Note_on_c, 9, 42, 65
13, 68688, Note_off_c, 9, 42, 0
13, 68732, Note_on_c, 9, 42, 65
13, 68736, Note_off_c, 9, 42, 0
13, 68780, Note_on_c, 9, 42, 65
13, 68784, Note_off_c, 9, 42, 0
13, 68828, Note_on_c, 9, 44, 105
13, 68832, Note_off_c, 9, 44, 0
13, 68876, Note_on_c, 9, 42, 65
13, 68880, Note_off_c, 9, 42, 0
13, 68924, Note_on_c, 9, 42, 65
13, 68928, Note_off_c, 9, 42, 0
13, 68972, Note_on_c, 9, 42, 65
13, 68976, Note_off_c, 9, 42, 0
13, 69020, Note_on_c, 9, 44, 105
13, 69024, Note_off_c, 9, 44, 0
13, 69068, Note_on_c, 9, 42, 65
13, 69072, Note_off_c, 9, 42, 0
13, 69116, Note_on_c, 9, 42, 65
13, 69120, Note_off_c, 9, 42, 0
13, 69164, Note_on_c, 9, 42, 65
13, 69168, Note_off_c, 9, 42, 0
13, 69212, Note_on_c, 9, 44, 105
13, 69216, Note_off_c, 9, 44, 0
13, 69260, Note_on_c, 9, 42, 65
13, 69264, Note_off_c, 9, 42, 0
13, 69308, Note_on_c, 9, 42, 65
13, 69312, Note_off_c, 9, 42, 0
13, 69356, Note_on_c, 9, 42, 65
13, 69360, Note_off_c, 9, 42, 0
13, 69404, Note_on_c, 9, 44, 105
13, 69408, Note_off_c, 9, 44, 0
13, 69452, Note_on_c, 9, 42, 65
13, 69456, Note_off_c, 9, 42, 0
13, 69500, Note_on_c, 9, 42, 65
13, 69504, Note_off_c, 9, 42, 0
13, 69548, Note_on_c, 9, 42, 65
13, 69552, Note_off_c, 9, 42, 0
13, 69596, Note_on_c, 9, 44, 105
13, 69600, Note_off_c, 9, 44, 0
13, 69644, Note_on_c, 9, 42, 65
13, 69648, Note_off_c, 9, 42, 0
13, 69692, Note_on_c, 9, 42, 65
13, 69696, Note_off_c, 9, 42, 0
13, 69740, Note_on_c, 9, 42, 65
13, 69744, Note_off_c, 9, 42, 0
13, 69788, Note_on_c, 9, 44, 105
13, 69792, Note_off_c, 9, 44, 0
13, 69836, Note_on_c, 9, 42, 65
13, 69840, Note_off_c, 9, 42, 0
13, 69884, Note_on_c, 9, 42, 65
13, 69888, Note_off_c, 9, 42, 0
13, 69932, Note_on_c, 9, 42, 65
13, 69936, Note_off_c, 9, 42, 0
13, 69980, Note_on_c, 9, 44, 105
13, 69984, Note_off_c, 9, 44, 0
13, 70028, Note_on_c, 9, 42, 65
13, 70032, Note_off_c, 9, 42, 0
13, 70076, Note_on_c, 9, 42, 65
13, 70080, Note_off_c, 9, 42, 0
13, 70124, Note_on_c, 9, 42, 65
13, 70128, Note_off_c, 9, 42, 0
13, 70172, Note_on_c, 9, 44, 105
13, 70176, Note_off_c, 9, 44, 0
13, 70220, Note_on_c, 9, 42, 65
13, 70224, Note_off_c, 9, 42, 0
13, 70268, Note_on_c, 9, 42, 65
13, 70272, Note_off_c, 9, 42, 0
13, 70316, Note_on_c, 9, 42, 65
13, 70320, Note_off_c, 9, 42, 0
13, 70364, Note_on_c, 9, 44, 105
13, 70368, Note_off_c, 9, 44, 0
13, 70412, Note_on_c, 9, 42, 65
13, 70416, Note_off_c, 9, 42, 0
13, 70460, Note_on_c, 9, 42, 65
13, 70464, Note_off_c, 9, 42, 0
13, 70508, Note_on_c, 9, 42, 65
13, 70512, Note_off_c, 9, 42, 0
13, 70556, Note_on_c, 9, 44, 105
13, 70560, Note_off_c, 9, 44, 0
13, 70604, Note_on_c, 9, 42, 65
13, 70608, Note_off_c, 9, 42, 0
13, 70652, Note_on_c, 9, 49, 80
13, 70652, Note_on_c, 9, 42, 65
13, 70656, Note_off_c, 9, 42, 0
13, 70656, Note_off_c, 9, 49, 0
13, 70700, Note_on_c, 9, 42, 65
13, 70704, Note_off_c, 9, 42, 0
13, 70748, Note_on_c, 9, 44, 105
13, 70752, Note_off_c, 9, 44, 0
13, 70796, Note_on_c, 9, 42, 65
13, 70800, Note_off_c, 9, 42, 0
13, 70844, Note_on_c, 9, 42, 65
13, 70848, Note_off_c, 9, 42, 0
13, 70892, Note_on_c, 9, 42, 65
13, 70896, Note_off_c, 9, 42, 0
13, 70940, Note_on_c, 9, 44, 105
13, 70944, Note_off_c, 9, 44, 0
13, 70988, Note_on_c, 9, 42, 65
13, 70992, Note_off_c, 9, 42, 0
13, 71036, Note_on_c, 9, 42, 65
13, 71040, Note_off_c, 9, 42, 0
13, 71084, Note_on_c, 9, 42, 65
13, 71088, Note_off_c, 9, 42, 0
13, 71132, Note_on_c, 9, 44, 105
13, 71136, Note_off_c, 9, 44, 0
13, 71180, Note_on_c, 9, 42, 65
13, 71184, Note_off_c, 9, 42, 0
13, 71228, Note_on_c, 9, 42, 65
13, 71232, Note_off_c, 9, 42, 0
13, 71276, Note_on_c, 9, 42, 65
13, 71280, Note_off_c, 9, 42, 0
13, 71324, Note_on_c, 9, 44, 105
13, 71328, Note_off_c, 9, 44, 0
13, 71372, Note_on_c, 9, 42, 65
13, 71376, Note_off_c, 9, 42, 0
13, 71420, Note_on_c, 9, 57, 80
13, 71420, Note_on_c, 9, 42, 65
13, 71424, Note_off_c, 9, 42, 0
13, 71424, Note_off_c, 9, 57, 0
13, 71468, Note_on_c, 9, 42, 65
13, 71472, Note_off_c, 9, 42, 0
13, 71516, Note_on_c, 9, 44, 105
13, 71520, Note_off_c, 9, 44, 0
13, 71564, Note_on_c, 9, 42, 65
13, 71568, Note_off_c, 9, 42, 0
13, 71612, Note_on_c, 9, 49, 80
13, 71612, Note_on_c, 9, 42, 65
13, 71616, Note_off_c, 9, 42, 0
13, 71616, Note_off_c, 9, 49, 0
13, 71660, Note_on_c, 9, 42, 65
13, 71664, Note_off_c, 9, 42, 0
13, 71708, Note_on_c, 9, 44, 105
13, 71712, Note_off_c, 9, 44, 0
13, 71756, Note_on_c, 9, 42, 65
13, 71760, Note_off_c, 9, 42, 0
13, 71804, Note_on_c, 9, 42, 65
13, 71808, Note_off_c, 9, 42, 0
13, 71852, Note_on_c, 9, 42, 65
13, 71856, Note_off_c, 9, 42, 0
13, 71900, Note_on_c, 9, 44, 105
13, 71904, Note_off_c, 9, 44, 0
13, 71948, Note_on_c, 9, 42, 65
13, 71952, Note_off_c, 9, 42, 0
13, 71996, Note_on_c, 9, 42, 65
13, 72000, Note_off_c, 9, 42, 0
13, 72044, Note_on_c, 9, 42, 65
13, 72048, Note_off_c, 9, 42, 0
13, 72092, Note_on_c, 9, 46, 85
13, 72184, Note_off_c, 9, 46, 0
13, 72188, Note_on_c, 9, 42, 65
13, 72192, Note_off_c, 9, 42, 0
13, 72236, Note_on_c, 9, 42, 65
13, 72240, Note_off_c, 9, 42, 0
13, 72284, Note_on_c, 9, 44, 105
13, 72288, Note_off_c, 9, 44, 0
13, 72332, Note_on_c, 9, 42, 65
13, 72336, Note_off_c, 9, 42, 0
13, 72380, Note_on_c, 9, 42, 65
13, 72384, Note_off_c, 9, 42, 0
13, 72428, Note_on_c, 9, 42, 65
13, 72432, Note_off_c, 9, 42, 0
13, 72476, Note_on_c, 9, 44, 105
13, 72480, Note_off_c, 9, 44, 0
13, 72524, Note_on_c, 9, 42, 65
13, 72528, Note_off_c, 9, 42, 0
13, 72572, Note_on_c, 9, 42, 65
13, 72576, Note_off_c, 9, 42, 0
13, 72620, Note_on_c, 9, 42, 65
13, 72624, Note_off_c, 9, 42, 0
13, 72668, Note_on_c, 9, 44, 105
13, 72672, Note_off_c, 9, 44, 0
13, 72716, Note_on_c, 9, 42, 65
13, 72720, Note_off_c, 9, 42, 0
13, 72764, Note_on_c, 9, 42, 65
13, 72768, Note_off_c, 9, 42, 0
13, 72812, Note_on_c, 9, 42, 65
13, 72816, Note_off_c, 9, 42, 0
13, 72860, Note_on_c, 9, 46, 85
13, 72952, Note_off_c, 9, 46, 0
13, 72956, Note_on_c, 9, 42, 65
13, 72960, Note_off_c, 9, 42, 0
13, 73004, Note_on_c, 9, 42, 65
13, 73008, Note_off_c, 9, 42, 0
13, 73052, Note_on_c, 9, 44, 105
13, 73056, Note_off_c, 9, 44, 0
13, 73100, Note_on_c, 9, 42, 65
13, 73104, Note_off_c, 9, 42, 0
13, 73148, Note_on_c, 9, 42, 65
13, 73152, Note_off_c, 9, 42, 0
13, 73196, Note_on_c, 9, 42, 65
13, 73200, Note_off_c, 9, 42, 0
13, 73244, Note_on_c, 9, 44, 105
13, 73248, Note_off_c, 9, 44, 0
13, 73292, Note_on_c, 9, 42, 65
13, 73296, Note_off_c, 9, 42, 0
13, 73340, Note_on_c, 9, 42, 65
13, 73344, Note_off_c, 9, 42, 0
13, 73388, Note_on_c, 9, 42, 65
13, 73392, Note_off_c, 9, 42, 0
13, 73436, Note_on_c, 9, 44, 105
13, 73440, Note_off_c, 9, 44, 0
13, 73484, Note_on_c, 9, 42, 65
13, 73488, Note_off_c, 9, 42, 0
13, 73532, Note_on_c, 9, 42, 65
13, 73536, Note_off_c, 9, 42, 0
13, 73580, Note_on_c, 9, 42, 65
13, 73584, Note_off_c, 9, 42, 0
13, 73628, Note_on_c, 9, 46, 85
13, 73720, Note_off_c, 9, 46, 0
13, 73724, Note_on_c, 9, 42, 65
13, 73728, Note_off_c, 9, 42, 0
13, 73772, Note_on_c, 9, 42, 65
13, 73776, Note_off_c, 9, 42, 0
13, 73820, Note_on_c, 9, 44, 105
13, 73824, Note_off_c, 9, 44, 0
13, 73868, Note_on_c, 9, 42, 65
13, 73872, Note_off_c, 9, 42, 0
13, 73916, Note_on_c, 9, 42, 65
13, 73920, Note_off_c, 9, 42, 0
13, 73964, Note_on_c, 9, 42, 65
13, 73968, Note_off_c, 9, 42, 0
13, 74012, Note_on_c, 9, 44, 105
13, 74016, Note_off_c, 9, 44, 0
13, 74060, Note_on_c, 9, 42, 65
13, 74064, Note_off_c, 9, 42, 0
13, 74108, Note_on_c, 9, 42, 65
13, 74112, Note_off_c, 9, 42, 0
13, 74156, Note_on_c, 9, 42, 65
13, 74160, Note_off_c, 9, 42, 0
13, 74204, Note_on_c, 9, 44, 105
13, 74208, Note_off_c, 9, 44, 0
13, 74252, Note_on_c, 9, 42, 65
13, 74256, Note_off_c, 9, 42, 0
13, 74300, Note_on_c, 9, 42, 65
13, 74304, Note_off_c, 9, 42, 0
13, 74348, Note_on_c, 9, 42, 65
13, 74352, Note_off_c, 9, 42, 0
13, 74396, Note_on_c, 9, 44, 105
13, 74400, Note_off_c, 9, 44, 0
13, 74444, Note_on_c, 9, 42, 65
13, 74448, Note_off_c, 9, 42, 0
13, 74492, Note_on_c, 9, 49, 80
13, 74492, Note_on_c, 9, 42, 65
13, 74496, Note_off_c, 9, 42, 0
13, 74496, Note_off_c, 9, 49, 0
13, 74540, Note_on_c, 9, 42, 65
13, 74544, Note_off_c, 9, 42, 0
13, 74588, Note_on_c, 9, 44, 105
13, 74592, Note_off_c, 9, 44, 0
13, 74636, Note_on_c, 9, 42, 65
13, 74640, Note_off_c, 9, 42, 0
13, 74684, Note_on_c, 9, 42, 65
13, 74688, Note_off_c, 9, 42, 0
13, 74732, Note_on_c, 9, 42, 65
13, 74736, Note_off_c, 9, 42, 0
13, 74780, Note_on_c, 9, 44, 105
13, 74784, Note_off_c, 9, 44, 0
13, 74828, Note_on_c, 9, 42, 65
13, 74832, Note_off_c, 9, 42, 0
13, 74876, Note_on_c, 9, 42, 65
13, 74880, Note_off_c, 9, 42, 0
13, 74924, Note_on_c, 9, 42, 65
13, 74928, Note_off_c, 9, 42, 0
13, 74972, Note_on_c, 9, 44, 105
13, 74976, Note_off_c, 9, 44, 0
13, 75020, Note_on_c, 9, 42, 65
13, 75024, Note_off_c, 9, 42, 0
13, 75068, Note_on_c, 9, 42, 65
13, 75072, Note_off_c, 9, 42, 0
13, 75116, Note_on_c, 9, 42, 65
13, 75120, Note_off_c, 9, 42, 0
13, 75164, Note_on_c, 9, 46, 85
13, 75256, Note_off_c, 9, 46, 0
13, 75260, Note_on_c, 9, 42, 65
13, 75264, Note_off_c, 9, 42, 0
13, 75308, Note_on_c, 9, 42, 65
13, 75312, Note_off_c, 9, 42, 0
13, 75356, Note_on_c, 9, 44, 105
13, 75360, Note_off_c, 9, 44, 0
13, 75404, Note_on_c, 9, 42, 65
13, 75408, Note_off_c, 9, 42, 0
13, 75452, Note_on_c, 9, 42, 65
13, 75456, Note_off_c, 9, 42, 0
13, 75500, Note_on_c, 9, 42, 65
13, 75504, Note_off_c, 9, 42, 0
13, 75548, Note_on_c, 9, 44, 105
13, 75552, Note_off_c, 9, 44, 0
13, 75596, Note_on_c, 9, 42, 65
13, 75600, Note_off_c, 9, 42, 0
13, 75644, Note_on_c, 9, 42, 65
13, 75648, Note_off_c, 9, 42, 0
13, 75692, Note_on_c, 9, 42, 65
13, 75696, Note_off_c, 9, 42, 0
13, 75740, Note_on_c, 9, 44, 105
13, 75744, Note_off_c, 9, 44, 0
13, 75788, Note_on_c, 9, 42, 65
13, 75792, Note_off_c, 9, 42, 0
13, 75836, Note_on_c, 9, 42, 65
13, 75840, Note_off_c, 9, 42, 0
13, 75884, Note_on_c, 9, 42, 65
13, 75888, Note_off_c, 9, 42, 0
13, 75932, Note_on_c, 9, 46, 85
13, 76024, Note_off_c, 9, 46, 0
13, 76028, Note_on_c, 9, 42, 65
13, 76032, Note_off_c, 9, 42, 0
13, 76076, Note_on_c, 9, 42, 65
13, 76080, Note_off_c, 9, 42, 0
13, 76124, Note_on_c, 9, 44, 105
13, 76128, Note_off_c, 9, 44, 0
13, 76172, Note_on_c, 9, 42, 65
13, 76176, Note_off_c, 9, 42, 0
13, 76220, Note_on_c, 9, 42, 65
13, 76224, Note_off_c, 9, 42, 0
13, 76268, Note_on_c, 9, 42, 65
13, 76272, Note_off_c, 9, 42, 0
13, 76316, Note_on_c, 9, 44, 105
13, 76320, Note_off_c, 9, 44, 0
13, 76364, Note_on_c, 9, 42, 65
13, 76368, Note_off_c, 9, 42, 0
13, 76412, Note_on_c, 9, 42, 65
13, 76416, Note_off_c, 9, 42, 0
13, 76460, Note_on_c, 9, 42, 65
13, 76464, Note_off_c, 9, 42, 0
13, 76508, Note_on_c, 9, 44, 105
13, 76512, Note_off_c, 9, 44, 0
13, 76556, Note_on_c, 9, 42, 65
13, 76560, Note_off_c, 9, 42, 0
13, 76604, Note_on_c, 9, 42, 65
13, 76608, Note_off_c, 9, 42, 0
13, 76652, Note_on_c, 9, 42, 65
13, 76656, Note_off_c, 9, 42, 0
13, 76700, Note_on_c, 9, 44, 105
13, 76704, Note_off_c, 9, 44, 0
13, 76748, Note_on_c, 9, 42, 65
13, 76752, Note_off_c, 9, 42, 0
13, 76796, Note_on_c, 9, 42, 65
13, 76800, Note_off_c, 9, 42, 0
13, 76844, Note_on_c, 9, 42, 65
13, 76848, Note_off_c, 9, 42, 0
13, 76892, Note_on_c, 9, 44, 105
13, 76896, Note_off_c, 9, 44, 0
13, 76940, Note_on_c, 9, 42, 65
13, 76944, Note_off_c, 9, 42, 0
13, 76988, Note_on_c, 9, 42, 65
13, 76992, Note_off_c, 9, 42, 0
13, 77036, Note_on_c, 9, 42, 65
13, 77040, Note_off_c, 9, 42, 0
13, 77084, Note_on_c, 9, 44, 105
13, 77088, Note_off_c, 9, 44, 0
13, 77132, Note_on_c, 9, 42, 65
13, 77136, Note_off_c, 9, 42, 0
13, 77180, Note_on_c, 9, 42, 65
13, 77184, Note_off_c, 9, 42, 0
13, 77228, Note_on_c, 9, 42, 65
13, 77232, Note_off_c, 9, 42, 0
13, 77276, Note_on_c, 9, 44, 105
13, 77280, Note_off_c, 9, 44, 0
13, 77324, Note_on_c, 9, 42, 65
13, 77328, Note_off_c, 9, 42, 0
13, 77372, Note_on_c, 9, 42, 65
13, 77376, Note_off_c, 9, 42, 0
13, 77420, Note_on_c, 9, 42, 65
13, 77424, Note_off_c, 9, 42, 0
13, 77468, Note_on_c, 9, 44, 105
13, 77472, Note_off_c, 9, 44, 0
13, 77516, Note_on_c, 9, 42, 65
13, 77520, Note_off_c, 9, 42, 0
13, 77564, Note_on_c, 9, 49, 80
13, 77564, Note_on_c, 9, 42, 65
13, 77568, Note_off_c, 9, 42, 0
13, 77568, Note_off_c, 9, 49, 0
13, 77612, Note_on_c, 9, 42, 65
13, 77616, Note_off_c, 9, 42, 0
13, 77660, Note_on_c, 9, 44, 105
13, 77664, Note_off_c, 9, 44, 0
13, 77708, Note_on_c, 9, 42, 65
13, 77712, Note_off_c, 9, 42, 0
13, 77756, Note_on_c, 9, 49, 80
13, 77756, Note_on_c, 9, 57, 80
13, 77756, Note_on_c, 9, 42, 65
13, 77760, Note_off_c, 9, 42, 0
13, 77760, Note_off_c, 9, 57, 0
13, 77760, Note_off_c, 9, 49, 0
13, 77804, Note_on_c, 9, 42, 65
13, 77808, Note_off_c, 9, 42, 0
13, 77852, Note_on_c, 9, 44, 105
13, 77856, Note_off_c, 9, 44, 0
13, 77900, Note_on_c, 9, 42, 65
13, 77904, Note_off_c, 9, 42, 0
13, 77948, Note_on_c, 9, 42, 65
13, 77952, Note_off_c, 9, 42, 0
13, 77996, Note_on_c, 9, 42, 65
13, 78000, Note_off_c, 9, 42, 0
13, 78044, Note_on_c, 9, 44, 105
13, 78048, Note_off_c, 9, 44, 0
13, 78092, Note_on_c, 9, 42, 65
13, 78096, Note_off_c, 9, 42, 0
13, 78140, Note_on_c, 9, 42, 65
13, 78144, Note_off_c, 9, 42, 0
13, 78188, Note_on_c, 9, 42, 65
13, 78192, Note_off_c, 9, 42, 0
13, 78236, Note_on_c, 9, 46, 85
13, 78328, Note_off_c, 9, 46, 0
13, 78332, Note_on_c, 9, 42, 65
13, 78336, Note_off_c, 9, 42, 0
13, 78380, Note_on_c, 9, 42, 65
13, 78384, Note_off_c, 9, 42, 0
13, 78428, Note_on_c, 9, 44, 105
13, 78432, Note_off_c, 9, 44, 0
13, 78476, Note_on_c, 9, 42, 65
13, 78480, Note_off_c, 9, 42, 0
13, 78524, Note_on_c, 9, 42, 65
13, 78528, Note_off_c, 9, 42, 0
13, 78572, Note_on_c, 9, 42, 65
13, 78576, Note_off_c, 9, 42, 0
13, 78620, Note_on_c, 9, 44, 105
13, 78624, Note_off_c, 9, 44, 0
13, 78668, Note_on_c, 9, 42, 65
13, 78672, Note_off_c, 9, 42, 0
13, 78716, Note_on_c, 9, 42, 65
13, 78720, Note_off_c, 9, 42, 0
13, 78764, Note_on_c, 9, 42, 65
13, 78768, Note_off_c, 9, 42, 0
13, 78812, Note_on_c, 9, 44, 105
13, 78816, Note_off_c, 9, 44, 0
13, 78860, Note_on_c, 9, 42, 65
13, 78864, Note_off_c, 9, 42, 0
13, 78908, Note_on_c, 9, 42, 65
13, 78912, Note_off_c, 9, 42, 0
13, 78956, Note_on_c, 9, 42, 65
13, 78960, Note_off_c, 9, 42, 0
13, 79004, Note_on_c, 9, 44, 105
13, 79008, Note_off_c, 9, 44, 0
13, 79052, Note_on_c, 9, 42, 65
13, 79056, Note_off_c, 9, 42, 0
13, 79100, Note_on_c, 9, 42, 65
13, 79104, Note_off_c, 9, 42, 0
13, 79148, Note_on_c, 9, 42, 65
13, 79152, Note_off_c, 9, 42, 0
13, 79196, Note_on_c, 9, 44, 105
13, 79200, Note_off_c, 9, 44, 0
13, 79244, Note_on_c, 9, 42, 65
13, 79248, Note_off_c, 9, 42, 0
13, 79292, Note_on_c, 9, 42, 65
13, 79296, Note_off_c, 9, 42, 0
13, 79340, Note_on_c, 9, 42, 65
13, 79344, Note_off_c, 9, 42, 0
13, 79388, Note_on_c, 9, 44, 105
13, 79392, Note_off_c, 9, 44, 0
13, 79436, Note_on_c, 9, 42, 65
13, 79440, Note_off_c, 9, 42, 0
13, 79484, Note_on_c, 9, 42, 65
13, 79488, Note_off_c, 9, 42, 0
13, 79532, Note_on_c, 9, 42, 65
13, 79536, Note_off_c, 9, 42, 0
13, 79580, Note_on_c, 9, 44, 105
13, 79584, Note_off_c, 9, 44, 0
13, 79628, Note_on_c, 9, 42, 65
13, 79632, Note_off_c, 9, 42, 0
13, 79676, Note_on_c, 9, 42, 65
13, 79680, Note_off_c, 9, 42, 0
13, 79724, Note_on_c, 9, 42, 65
13, 79728, Note_off_c, 9, 42, 0
13, 79772, Note_on_c, 9, 44, 105
13, 79776, Note_off_c, 9, 44, 0
13, 79820, Note_on_c, 9, 42, 65
13, 79824, Note_off_c, 9, 42, 0
13, 79868, Note_on_c, 9, 57, 80
13, 79868, Note_on_c, 9, 42, 65
13, 79872, Note_off_c, 9, 42, 0
13, 79872, Note_off_c, 9, 57, 0
13, 79916, Note_on_c, 9, 42, 65
13, 79920, Note_off_c, 9, 42, 0
13, 79964, Note_on_c, 9, 44, 105
13, 79968, Note_off_c, 9, 44, 0
13, 80012, Note_on_c, 9, 42, 65
13, 80016, Note_off_c, 9, 42, 0
13, 80060, Note_on_c, 9, 42, 65
13, 80064, Note_off_c, 9, 42, 0
13, 80108, Note_on_c, 9, 42, 65
13, 80112, Note_off_c, 9, 42, 0
13, 80156, Note_on_c, 9, 44, 105
13, 80160, Note_off_c, 9, 44, 0
13, 80204, Note_on_c, 9, 42, 65
13, 80208, Note_off_c, 9, 42, 0
13, 80252, Note_on_c, 9, 49, 80
13, 80252, Note_on_c, 9, 42, 65
13, 80256, Note_off_c, 9, 42, 0
13, 80256, Note_off_c, 9, 49, 0
13, 80300, Note_on_c, 9, 42, 65
13, 80304, Note_off_c, 9, 42, 0
13, 80348, Note_on_c, 9, 44, 105
13, 80352, Note_off_c, 9, 44, 0
13, 80396, Note_on_c, 9, 42, 65
13, 80400, Note_off_c, 9, 42, 0
13, 80444, Note_on_c, 9, 49, 80
13, 80444, Note_on_c, 9, 57, 80
13, 80444, Note_on_c, 9, 42, 65
13, 80448, Note_off_c, 9, 42, 0
13, 80448, Note_off_c, 9, 57, 0
13, 80448, Note_off_c, 9, 49, 0
13, 80492, Note_on_c, 9, 42, 65
13, 80496, Note_off_c, 9, 42, 0
13, 80540, Note_on_c, 9, 44, 105
13, 80544, Note_off_c, 9, 44, 0
13, 80588, Note_on_c, 9, 42, 65
13, 80592, Note_off_c, 9, 42, 0
13, 80636, Note_on_c, 9, 57, 80
13, 80636, Note_on_c, 9, 42, 65
13, 80640, Note_off_c, 9, 42, 0
13, 80640, Note_off_c, 9, 57, 0
13, 80684, Note_on_c, 9, 42, 65
13, 80688, Note_off_c, 9, 42, 0
13, 80732, Note_on_c, 9, 44, 105
13, 80736, Note_off_c, 9, 44, 0
13, 80780, Note_on_c, 9, 42, 65
13, 80784, Note_off_c, 9, 42, 0
13, 80828, Note_on_c, 9, 49, 80
13, 80828, Note_on_c, 9, 42, 65
13, 80832, Note_off_c, 9, 42, 0
13, 80832, Note_off_c, 9, 49, 0
13, 80876, Note_on_c, 9, 42, 65
13, 80880, Note_off_c, 9, 42, 0
13, 80924, Note_on_c, 9, 44, 105
13, 80928, Note_off_c, 9, 44, 0
13, 80972, Note_on_c, 9, 42, 65
13, 80976, Note_off_c, 9, 42, 0
13, 81020, Note_on_c, 9, 42, 65
13, 81024, Note_off_c, 9, 42, 0
13, 81068, Note_on_c, 9, 42, 65
13, 81072, Note_off_c, 9, 42, 0
13, 81116, Note_on_c, 9, 44, 105
13, 81120, Note_off_c, 9, 44, 0
13, 81164, Note_on_c, 9, 42, 65
13, 81168, Note_off_c, 9, 42, 0
13, 81212, Note_on_c, 9, 42, 65
13, 81216, Note_off_c, 9, 42, 0
13, 81260, Note_on_c, 9, 42, 65
13, 81264, Note_off_c, 9, 42, 0
13, 81308, Note_on_c, 9, 44, 105
13, 81312, Note_off_c, 9, 44, 0
13, 81356, Note_on_c, 9, 42, 65
13, 81360, Note_off_c, 9, 42, 0
13, 81404, Note_on_c, 9, 42, 65
13, 81408, Note_off_c, 9, 42, 0
13, 81452, Note_on_c, 9, 42, 65
13, 81456, Note_off_c, 9, 42, 0
13, 81500, Note_on_c, 9, 44, 105
13, 81504, Note_off_c, 9, 44, 0
13, 81548, Note_on_c, 9, 42, 65
13, 81552, Note_off_c, 9, 42, 0
13, 81596, Note_on_c, 9, 42, 65
13, 81600, Note_off_c, 9, 42, 0
13, 81644, Note_on_c, 9, 42, 65
13, 81648, Note_off_c, 9, 42, 0
13, 81692, Note_on_c, 9, 44, 105
13, 81696, Note_off_c, 9, 44, 0
13, 81740, Note_on_c, 9, 42, 65
13, 81744, Note_off_c, 9, 42, 0
13, 81788, Note_on_c, 9, 42, 65
13, 81792, Note_off_c, 9, 42, 0
13, 81836, Note_on_c, 9, 42, 65
13, 81840, Note_off_c, 9, 42, 0
13, 81884, Note_on_c, 9, 44, 105
13, 81888, Note_off_c, 9, 44, 0
13, 81932, Note_on_c, 9, 42, 65
13, 81936, Note_off_c, 9, 42, 0
13, 81980, Note_on_c, 9, 42, 65
13, 81984, Note_off_c, 9, 42, 0
13, 82028, Note_on_c, 9, 42, 65
13, 82032, Note_off_c, 9, 42, 0
13, 82076, Note_on_c, 9, 46, 85
13, 82168, Note_off_c, 9, 46, 0
13, 82172, Note_on_c, 9, 42, 65
13, 82176, Note_off_c, 9, 42, 0
13, 82220, Note_on_c, 9, 42, 65
13, 82224, Note_off_c, 9, 42, 0
13, 82268, Note_on_c, 9, 44, 105
13, 82272, Note_off_c, 9, 44, 0
13, 82316, Note_on_c, 9, 42, 65
13, 82320, Note_off_c, 9, 42, 0
13, 82364, Note_on_c, 9, 42, 65
13, 82368, Note_off_c, 9, 42, 0
13, 82412, Note_on_c, 9, 42, 65
13, 82416, Note_off_c, 9, 42, 0
13, 82460, Note_on_c, 9, 44, 105
13, 82464, Note_off_c, 9, 44, 0
13, 82508, Note_on_c, 9, 42, 65
13, 82512, Note_off_c, 9, 42, 0
13, 82556, Note_on_c, 9, 42, 65
13, 82560, Note_off_c, 9, 42, 0
13, 82604, Note_on_c, 9, 42, 65
13, 82608, Note_off_c, 9, 42, 0
13, 82652, Note_on_c, 9, 44, 105
13, 82656, Note_off_c, 9, 44, 0
13, 82700, Note_on_c, 9, 42, 65
13, 82704, Note_off_c, 9, 42, 0
13, 82748, Note_on_c, 9, 42, 65
13, 82752, Note_off_c, 9, 42, 0
13, 82796, Note_on_c, 9, 42, 65
13, 82800, Note_off_c, 9, 42, 0
13, 82844, Note_on_c, 9, 44, 105
13, 82848, Note_off_c, 9, 44, 0
13, 82892, Note_on_c, 9, 42, 65
13, 82896, Note_off_c, 9, 42, 0
13, 82940, Note_on_c, 9, 42, 65
13, 82944, Note_off_c, 9, 42, 0
13, 82988, Note_on_c, 9, 42, 65
13, 82992, Note_off_c, 9, 42, 0
13, 83036, Note_on_c, 9, 44, 105
13, 83040, Note_off_c, 9, 44, 0
13, 83084, Note_on_c, 9, 42, 65
13, 83088, Note_off_c, 9, 42, 0
13, 83132, Note_on_c, 9, 42, 65
13, 83136, Note_off_c, 9, 42, 0
13, 83180, Note_on_c, 9, 42, 65
13, 83184, Note_off_c, 9, 42, 0
13, 83228, Note_on_c, 9, 44, 105
13, 83232, Note_off_c, 9, 44, 0
13, 83276, Note_on_c, 9, 42, 65
13, 83280, Note_off_c, 9, 42, 0
13, 83324, Note_on_c, 9, 42, 65
13, 83328, Note_off_c, 9, 42, 0
13, 83372, Note_on_c, 9, 42, 65
13, 83376, Note_off_c, 9, 42, 0
13, 83420, Note_on_c, 9, 44, 105
13, 83424, Note_off_c, 9, 44, 0
13, 83468, Note_on_c, 9, 42, 65
13, 83472, Note_off_c, 9, 42, 0
13, 83516, Note_on_c, 9, 42, 65
13, 83520, Note_off_c, 9, 42, 0
13, 83564, Note_on_c, 9, 42, 65
13, 83568, Note_off_c, 9, 42, 0
13, 83612, Note_on_c, 9, 44, 105
13, 83616, Note_off_c, 9, 44, 0
13, 83660, Note_on_c, 9, 42, 65
13, 83664, Note_off_c, 9, 42, 0
13, 83708, Note_on_c, 9, 42, 65
13, 83712, Note_off_c, 9, 42, 0
13, 83756, Note_on_c, 9, 42, 65
13, 83760, Note_off_c, 9, 42, 0
13, 83804, Note_on_c, 9, 44, 105
13, 83808, Note_off_c, 9, 44, 0
13, 83852, Note_on_c, 9, 42, 65
13, 83856, Note_off_c, 9, 42, 0
13, 83900, Note_on_c, 9, 42, 65
13, 83904, Note_off_c, 9, 42, 0
13, 83948, Note_on_c, 9, 42, 65
13, 83952, Note_off_c, 9, 42, 0
13, 83996, Note_on_c, 9, 44, 105
13, 84000, Note_off_c, 9, 44, 0
13, 84044, Note_on_c, 9, 42, 65
13, 84048, Note_off_c, 9, 42, 0
13, 84092, Note_on_c, 9, 42, 65
13, 84096, Note_off_c, 9, 42, 0
13, 84140, Note_on_c, 9, 42, 65
13, 84144, Note_off_c, 9, 42, 0
13, 84188, Note_on_c, 9, 44, 105
13, 84192, Note_off_c, 9, 44, 0
13, 84236, Note_on_c, 9, 42, 65
13, 84240, Note_off_c, 9, 42, 0
13, 84284, Note_on_c, 9, 42, 65
13, 84288, Note_off_c, 9, 42, 0
13, 84332, Note_on_c, 9, 42, 65
13, 84336, Note_off_c, 9, 42, 0
13, 84380, Note_on_c, 9, 44, 105
13, 84384, Note_off_c, 9, 44, 0
13, 84428, Note_on_c, 9, 42, 65
13, 84432, Note_off_c, 9, 42, 0
13, 84476, Note_on_c, 9, 42, 65
13, 84480, Note_off_c, 9, 42, 0
13, 84524, Note_on_c, 9, 42, 65
13, 84528, Note_off_c, 9, 42, 0
13, 84572, Note_on_c, 9, 44, 105
13, 84576, Note_off_c, 9, 44, 0
13, 84620, Note_on_c, 9, 42, 65
13, 84624, Note_off_c, 9, 42, 0
13, 84668, Note_on_c, 9, 42, 65
13, 84672, Note_off_c, 9, 42, 0
13, 84716, Note_on_c, 9, 42, 65
13, 84720, Note_off_c, 9, 42, 0
13, 84764, Note_on_c, 9, 44, 105
13, 84768, Note_off_c, 9, 44, 0
13, 84812, Note_on_c, 9, 42, 65
13, 84816, Note_off_c, 9, 42, 0
13, 84860, Note_on_c, 9, 42, 65
13, 84864, Note_off_c, 9, 42, 0
13, 84908, Note_on_c, 9, 42, 65
13, 84912, Note_off_c, 9, 42, 0
13, 84956, Note_on_c, 9, 44, 105
13, 84960, Note_off_c, 9, 44, 0
13, 85004, Note_on_c, 9, 42, 65
13, 85008, Note_off_c, 9, 42, 0
13, 85052, Note_on_c, 9, 42, 65
13, 85056, Note_off_c, 9, 42, 0
13, 85100, Note_on_c, 9, 42, 65
13, 85104, Note_off_c, 9, 42, 0
13, 85148, Note_on_c, 9, 46, 85
13, 85240, Note_off_c, 9, 46, 0
13, 85244, Note_on_c, 9, 42, 65
13, 85248, Note_off_c, 9, 42, 0
13, 85292, Note_on_c, 9, 42, 65
13, 85296, Note_off_c, 9, 42, 0
13, 85340, Note_on_c, 9, 44, 105
13, 85344, Note_off_c, 9, 44, 0
13, 85388, Note_on_c, 9, 42, 65
13, 85392, Note_off_c, 9, 42, 0
13, 85436, Note_on_c, 9, 42, 65
13, 85440, Note_off_c, 9, 42, 0
13, 85484, Note_on_c, 9, 42, 65
13, 85488, Note_off_c, 9, 42, 0
13, 85532, Note_on_c, 9, 44, 105
13, 85536, Note_off_c, 9, 44, 0
13, 85580, Note_on_c, 9, 42, 65
13, 85584, Note_off_c, 9, 42, 0
13, 85628, Note_on_c, 9, 42, 65
13, 85632, Note_off_c, 9, 42, 0
13, 85676, Note_on_c, 9, 42, 65
13, 85680, Note_off_c, 9, 42, 0
13, 85724, Note_on_c, 9, 44, 105
13, 85728, Note_off_c, 9, 44, 0
13, 85772, Note_on_c, 9, 42, 65
13, 85776, Note_off_c, 9, 42, 0
13, 85820, Note_on_c, 9, 42, 65
13, 85824, Note_off_c, 9, 42, 0
13, 85868, Note_on_c, 9, 42, 65
13, 85872, Note_off_c, 9, 42, 0
13, 85916, Note_on_c, 9, 44, 105
13, 85920, Note_off_c, 9, 44, 0
13, 85964, Note_on_c, 9, 42, 65
13, 85968, Note_off_c, 9, 42, 0
13, 86012, Note_on_c, 9, 49, 80
13, 86012, Note_on_c, 9, 57, 60
13, 86012, Note_on_c, 9, 42, 65
13, 86016, Note_off_c, 9, 42, 0
13, 86016, Note_off_c, 9, 57, 0
13, 86016, Note_off_c, 9, 49, 0
13, 86060, Note_on_c, 9, 42, 65
13, 86064, Note_off_c, 9, 42, 0
13, 86108, Note_on_c, 9, 44, 105
13, 86112, Note_off_c, 9, 44, 0
13, 86156, Note_on_c, 9, 42, 65
13, 86160, Note_off_c, 9, 42, 0
13, 86204, Note_on_c, 9, 42, 65
13, 86208, Note_off_c, 9, 42, 0
13, 86252, Note_on_c, 9, 42, 65
13, 86256, Note_off_c, 9, 42, 0
13, 86300, Note_on_c, 9, 44, 105
13, 86304, Note_off_c, 9, 44, 0
13, 86348, Note_on_c, 9, 42, 65
13, 86352, Note_off_c, 9, 42, 0
13, 86396, Note_on_c, 9, 42, 65
13, 86400, Note_off_c, 9, 42, 0
13, 86444, Note_on_c, 9, 42, 65
13, 86448, Note_off_c, 9, 42, 0
13, 86492, Note_on_c, 9, 44, 105
13, 86496, Note_off_c, 9, 44, 0
13, 86540, Note_on_c, 9, 42, 65
13, 86544, Note_off_c, 9, 42, 0
13, 86588, Note_on_c, 9, 42, 65
13, 86592, Note_off_c, 9, 42, 0
13, 86636, Note_on_c, 9, 42, 65
13, 86640, Note_off_c, 9, 42, 0
13, 86684, Note_on_c, 9, 44, 105
13, 86688, Note_off_c, 9, 44, 0
13, 86732, Note_on_c, 9, 42, 65
13, 86736, Note_off_c, 9, 42, 0
13, 86780, Note_on_c, 9, 49, 80
13, 86780, Note_on_c, 9, 42, 65
13, 86784, Note_off_c, 9, 42, 0
13, 86784, Note_off_c, 9, 49, 0
13, 86828, Note_on_c, 9, 42, 65
13, 86832, Note_off_c, 9, 42, 0
13, 86876, Note_on_c, 9, 44, 105
13, 86880, Note_off_c, 9, 44, 0
13, 86924, Note_on_c, 9, 42, 65
13, 86928, Note_off_c, 9, 42, 0
13, 86972, Note_on_c, 9, 57, 60
13, 86972, Note_on_c, 9, 42, 65
13, 86976, Note_off_c, 9, 42, 0
13, 86976, Note_off_c, 9, 57, 0
13, 87020, Note_on_c, 9, 42, 65
13, 87024, Note_off_c, 9, 42, 0
13, 87068, Note_on_c, 9, 44, 105
13, 87072, Note_off_c, 9, 44, 0
13, 87116, Note_on_c, 9, 42, 65
13, 87120, Note_off_c, 9, 42, 0
13, 87164, Note_on_c, 9, 42, 65
13, 87168, Note_off_c, 9, 42, 0
13, 87212, Note_on_c, 9, 42, 65
13, 87216, Note_off_c, 9, 42, 0
13, 87260, Note_on_c, 9, 44, 105
13, 87264, Note_off_c, 9, 44, 0
13, 87308, Note_on_c, 9, 42, 65
13, 87312, Note_off_c, 9, 42, 0
13, 87356, Note_on_c, 9, 42, 65
13, 87360, Note_off_c, 9, 42, 0
13, 87404, Note_on_c, 9, 42, 65
13, 87408, Note_off_c, 9, 42, 0
13, 87452, Note_on_c, 9, 46, 85
13, 87544, Note_off_c, 9, 46, 0
13, 87548, Note_on_c, 9, 42, 65
13, 87552, Note_off_c, 9, 42, 0
13, 87596, Note_on_c, 9, 42, 65
13, 87600, Note_off_c, 9, 42, 0
13, 87644, Note_on_c, 9, 44, 105
13, 87648, Note_off_c, 9, 44, 0
13, 87692, Note_on_c, 9, 42, 65
13, 87696, Note_off_c, 9, 42, 0
13, 87740, Note_on_c, 9, 42, 65
13, 87744, Note_off_c, 9, 42, 0
13, 87788, Note_on_c, 9, 42, 65
13, 87792, Note_off_c, 9, 42, 0
13, 87836, Note_on_c, 9, 44, 105
13, 87840, Note_off_c, 9, 44, 0
13, 87884, Note_on_c, 9, 42, 65
13, 87888, Note_off_c, 9, 42, 0
13, 87932, Note_on_c, 9, 42, 65
13, 87936, Note_off_c, 9, 42, 0
13, 87980, Note_on_c, 9, 42, 65
13, 87984, Note_off_c, 9, 42, 0
13, 88028, Note_on_c, 9, 44, 105
13, 88032, Note_off_c, 9, 44, 0
13, 88076, Note_on_c, 9, 42, 65
13, 88080, Note_off_c, 9, 42, 0
13, 88124, Note_on_c, 9, 42, 65
13, 88128, Note_off_c, 9, 42, 0
13, 88172, Note_on_c, 9, 42, 65
13, 88176, Note_off_c, 9, 42, 0
13, 88220, Note_on_c, 9, 46, 85
13, 88312, Note_off_c, 9, 46, 0
13, 88316, Note_on_c, 9, 42, 65
13, 88320, Note_off_c, 9, 42, 0
13, 88364, Note_on_c, 9, 42, 65
13, 88368, Note_off_c, 9, 42, 0
13, 88412, Note_on_c, 9, 44, 105
13, 88416, Note_off_c, 9, 44, 0
13, 88460, Note_on_c, 9, 42, 65
13, 88464, Note_off_c, 9, 42, 0
13, 88508, Note_on_c, 9, 42, 65
13, 88512, Note_off_c, 9, 42, 0
13, 88556, Note_on_c, 9, 42, 65
13, 88560, Note_off_c, 9, 42, 0
13, 88604, Note_on_c, 9, 44, 105
13, 88608, Note_off_c, 9, 44, 0
13, 88652, Note_on_c, 9, 42, 65
13, 88656, Note_off_c, 9, 42, 0
13, 88700, Note_on_c, 9, 42, 65
13, 88704, Note_off_c, 9, 42, 0
13, 88748, Note_on_c, 9, 42, 65
13, 88752, Note_off_c, 9, 42, 0
13, 88796, Note_on_c, 9, 44, 105
13, 88800, Note_off_c, 9, 44, 0
13, 88844, Note_on_c, 9, 42, 65
13, 88848, Note_off_c, 9, 42, 0
13, 88892, Note_on_c, 9, 42, 65
13, 88896, Note_off_c, 9, 42, 0
13, 88940, Note_on_c, 9, 42, 65
13, 88944, Note_off_c, 9, 42, 0
13, 88988, Note_on_c, 9, 44, 105
13, 88992, Note_off_c, 9, 44, 0
13, 89036, Note_on_c, 9, 42, 65
13, 89040, Note_off_c, 9, 42, 0
13, 89084, Note_on_c, 9, 42, 65
13, 89088, Note_off_c, 9, 42, 0
13, 89132, Note_on_c, 9, 42, 65
13, 89136, Note_off_c, 9, 42, 0
13, 89180, Note_on_c, 9, 44, 105
13, 89184, Note_off_c, 9, 44, 0
13, 89228, Note_on_c, 9, 42, 65
13, 89232, Note_off_c, 9, 42, 0
13, 89276, Note_on_c, 9, 42, 65
13, 89280, Note_off_c, 9, 42, 0
13, 89324, Note_on_c, 9, 42, 65
13, 89328, Note_off_c, 9, 42, 0
13, 89372, Note_on_c, 9, 44, 105
13, 89376, Note_off_c, 9, 44, 0
13, 89420, Note_on_c, 9, 42, 65
13, 89424, Note_off_c, 9, 42, 0
13, 89468, Note_on_c, 9, 42, 65
13, 89472, Note_off_c, 9, 42, 0
13, 89516, Note_on_c, 9, 42, 65
13, 89520, Note_off_c, 9, 42, 0
13, 89564, Note_on_c, 9, 44, 105
13, 89568, Note_off_c, 9, 44, 0
13, 89612, Note_on_c, 9, 42, 65
13, 89616, Note_off_c, 9, 42, 0
13, 89660, Note_on_c, 9, 42, 65
13, 89664, Note_off_c, 9, 42, 0
13, 89708, Note_on_c, 9, 42, 65
13, 89712, Note_off_c, 9, 42, 0
13, 89756, Note_on_c, 9, 44, 105
13, 89760, Note_off_c, 9, 44, 0
13, 89804, Note_on_c, 9, 42, 65
13, 89808, Note_off_c, 9, 42, 0
13, 89852, Note_on_c, 9, 49, 80
13, 89852, Note_on_c, 9, 57, 80
13, 89852, Note_on_c, 9, 42, 65
13, 89856, Note_off_c, 9, 42, 0
13, 89856, Note_off_c, 9, 57, 0
13, 89856, Note_off_c, 9, 49, 0
13, 89900, Note_on_c, 9, 42, 65
13, 89904, Note_off_c, 9, 42, 0
13, 89948, Note_on_c, 9, 44, 105
13, 89952, Note_off_c, 9, 44, 0
13, 89996, Note_on_c, 9, 42, 65
13, 90000, Note_off_c, 9, 42, 0
13, 90044, Note_on_c, 9, 42, 65
13, 90048, Note_off_c, 9, 42, 0
13, 90092, Note_on_c, 9, 42, 65
13, 90096, Note_off_c, 9, 42, 0
13, 90140, Note_on_c, 9, 44, 105
13, 90144, Note_off_c, 9, 44, 0
13, 90188, Note_on_c, 9, 42, 65
13, 90192, Note_off_c, 9, 42, 0
13, 90236, Note_on_c, 9, 42, 65
13, 90240, Note_off_c, 9, 42, 0
13, 90284, Note_on_c, 9, 42, 65
13, 90288, Note_off_c, 9, 42, 0
13, 90332, Note_on_c, 9, 44, 105
13, 90336, Note_off_c, 9, 44, 0
13, 90380, Note_on_c, 9, 42, 65
13, 90384, Note_off_c, 9, 42, 0
13, 90428, Note_on_c, 9, 42, 65
13, 90432, Note_off_c, 9, 42, 0
13, 90476, Note_on_c, 9, 42, 65
13, 90480, Note_off_c, 9, 42, 0
13, 90524, Note_on_c, 9, 46, 85
13, 90616, Note_off_c, 9, 46, 0
13, 90620, Note_on_c, 9, 42, 65
13, 90624, Note_off_c, 9, 42, 0
13, 90668, Note_on_c, 9, 42, 65
13, 90672, Note_off_c, 9, 42, 0
13, 90716, Note_on_c, 9, 44, 105
13, 90720, Note_off_c, 9, 44, 0
13, 90764, Note_on_c, 9, 42, 65
13, 90768, Note_off_c, 9, 42, 0
13, 90812, Note_on_c, 9, 42, 65
13, 90816, Note_off_c, 9, 42, 0
13, 90860, Note_on_c, 9, 42, 65
13, 90864, Note_off_c, 9, 42, 0
13, 90908, Note_on_c, 9, 44, 105
13, 90912, Note_off_c, 9, 44, 0
13, 90956, Note_on_c, 9, 42, 65
13, 90960, Note_off_c, 9, 42, 0
13, 91004, Note_on_c, 9, 42, 65
13, 91008, Note_off_c, 9, 42, 0
13, 91052, Note_on_c, 9, 42, 65
13, 91056, Note_off_c, 9, 42, 0
13, 91100, Note_on_c, 9, 44, 105
13, 91104, Note_off_c, 9, 44, 0
13, 91148, Note_on_c, 9, 42, 65
13, 91152, Note_off_c, 9, 42, 0
13, 91196, Note_on_c, 9, 42, 65
13, 91200, Note_off_c, 9, 42, 0
13, 91244, Note_on_c, 9, 42, 65
13, 91248, Note_off_c, 9, 42, 0
13, 91292, Note_on_c, 9, 46, 85
13, 91384, Note_off_c, 9, 46, 0
13, 91388, Note_on_c, 9, 42, 65
13, 91392, Note_off_c, 9, 42, 0
13, 91436, Note_on_c, 9, 42, 65
13, 91440, Note_off_c, 9, 42, 0
13, 91484, Note_on_c, 9, 44, 105
13, 91488, Note_off_c, 9, 44, 0
13, 91532, Note_on_c, 9, 42, 65
13, 91536, Note_off_c, 9, 42, 0
13, 91580, Note_on_c, 9, 42, 65
13, 91584, Note_off_c, 9, 42, 0
13, 91628, Note_on_c, 9, 42, 65
13, 91632, Note_off_c, 9, 42, 0
13, 91676, Note_on_c, 9, 44, 105
13, 91680, Note_off_c, 9, 44, 0
13, 91724, Note_on_c, 9, 42, 65
13, 91728, Note_off_c, 9, 42, 0
13, 91772, Note_on_c, 9, 42, 65
13, 91776, Note_off_c, 9, 42, 0
13, 91820, Note_on_c, 9, 42, 65
13, 91824, Note_off_c, 9, 42, 0
13, 91868, Note_on_c, 9, 44, 105
13, 91872, Note_off_c, 9, 44, 0
13, 91916, Note_on_c, 9, 42, 65
13, 91920, Note_off_c, 9, 42, 0
13, 91964, Note_on_c, 9, 42, 65
13, 91968, Note_off_c, 9, 42, 0
13, 92012, Note_on_c, 9, 42, 65
13, 92016, Note_off_c, 9, 42, 0
13, 92060, Note_on_c, 9, 44, 105
13, 92064, Note_off_c, 9, 44, 0
13, 92108, Note_on_c, 9, 42, 65
13, 92112, Note_off_c, 9, 42, 0
13, 92156, Note_on_c, 9, 42, 65
13, 92160, Note_off_c, 9, 42, 0
13, 92204, Note_on_c, 9, 42, 65
13, 92208, Note_off_c, 9, 42, 0
13, 92252, Note_on_c, 9, 44, 105
13, 92256, Note_off_c, 9, 44, 0
13, 92300, Note_on_c, 9, 42, 65
13, 92304, Note_off_c, 9, 42, 0
13, 92348, Note_on_c, 9, 57, 70
13, 92348, Note_on_c, 9, 42, 65
13, 92352, Note_off_c, 9, 42, 0
13, 92352, Note_off_c, 9, 57, 0
13, 92396, Note_on_c, 9, 42, 65
13, 92400, Note_off_c, 9, 42, 0
13, 92444, Note_on_c, 9, 57, 70
13, 92444, Note_on_c, 9, 44, 105
13, 92448, Note_off_c, 9, 44, 0
13, 92448, Note_off_c, 9, 57, 0
13, 92492, Note_on_c, 9, 42, 65
13, 92496, Note_off_c, 9, 42, 0
13, 92540, Note_on_c, 9, 42, 65
13, 92544, Note_off_c, 9, 42, 0
13, 92588, Note_on_c, 9, 42, 65
13, 92592, Note_off_c, 9, 42, 0
13, 92636, Note_on_c, 9, 44, 105
13, 92640, Note_off_c, 9, 44, 0
13, 92684, Note_on_c, 9, 42, 65
13, 92688, Note_off_c, 9, 42, 0
13, 92732, Note_on_c, 9, 42, 65
13, 92736, Note_off_c, 9, 42, 0
13, 92780, Note_on_c, 9, 42, 65
13, 92784, Note_off_c, 9, 42, 0
13, 92828, Note_on_c, 9, 44, 105
13, 92832, Note_off_c, 9, 44, 0
13, 92876, Note_on_c, 9, 42, 65
13, 92880, Note_off_c, 9, 42, 0
13, 92924, Note_on_c, 9, 49, 80
13, 92924, Note_on_c, 9, 42, 65
13, 92928, Note_off_c, 9, 42, 0
13, 92928, Note_off_c, 9, 49, 0
13, 92972, Note_on_c, 9, 42, 65
13, 92976, Note_off_c, 9, 42, 0
13, 93020, Note_on_c, 9, 44, 105
13, 93024, Note_off_c, 9, 44, 0
13, 93068, Note_on_c, 9, 42, 65
13, 93072, Note_off_c, 9, 42, 0
13, 93116, Note_on_c, 9, 49, 80
13, 93116, Note_on_c, 9, 57, 80
13, 93116, Note_on_c, 9, 42, 65
13, 93120, Note_off_c, 9, 42, 0
13, 93120, Note_off_c, 9, 57, 0
13, 93120, Note_off_c, 9, 49, 0
13, 93164, Note_on_c, 9, 42, 65
13, 93168, Note_off_c, 9, 42, 0
13, 93212, Note_on_c, 9, 44, 105
13, 93216, Note_off_c, 9, 44, 0
13, 93260, Note_on_c, 9, 42, 65
13, 93264, Note_off_c, 9, 42, 0
13, 93308, Note_on_c, 9, 42, 65
13, 93312, Note_off_c, 9, 42, 0
13, 93356, Note_on_c, 9, 42, 65
13, 93360, Note_off_c, 9, 42, 0
13, 93404, Note_on_c, 9, 44, 105
13, 93408, Note_off_c, 9, 44, 0
13, 93452, Note_on_c, 9, 42, 65
13, 93456, Note_off_c, 9, 42, 0
13, 93500, Note_on_c, 9, 42, 65
13, 93504, Note_off_c, 9, 42, 0
13, 93548, Note_on_c, 9, 42, 65
13, 93552, Note_off_c, 9, 42, 0
13, 93596, Note_on_c, 9, 46, 85
13, 93688, Note_off_c, 9, 46, 0
13, 93692, Note_on_c, 9, 42, 65
13, 93696, Note_off_c, 9, 42, 0
13, 93740, Note_on_c, 9, 42, 65
13, 93744, Note_off_c, 9, 42, 0
13, 93788, Note_on_c, 9, 44, 105
13, 93792, Note_off_c, 9, 44, 0
13, 93836, Note_on_c, 9, 42, 65
13, 93840, Note_off_c, 9, 42, 0
13, 93884, Note_on_c, 9, 42, 65
13, 93888, Note_off_c, 9, 42, 0
13, 93932, Note_on_c, 9, 42, 65
13, 93936, Note_off_c, 9, 42, 0
13, 93980, Note_on_c, 9, 44, 105
13, 93984, Note_off_c, 9, 44, 0
13, 94028, Note_on_c, 9, 42, 65
13, 94032, Note_off_c, 9, 42, 0
13, 94076, Note_on_c, 9, 42, 65
13, 94080, Note_off_c, 9, 42, 0
13, 94124, Note_on_c, 9, 42, 65
13, 94128, Note_off_c, 9, 42, 0
13, 94172, Note_on_c, 9, 44, 105
13, 94176, Note_off_c, 9, 44, 0
13, 94220, Note_on_c, 9, 42, 65
13, 94224, Note_off_c, 9, 42, 0
13, 94268, Note_on_c, 9, 42, 65
13, 94272, Note_off_c, 9, 42, 0
13, 94316, Note_on_c, 9, 42, 65
13, 94320, Note_off_c, 9, 42, 0
13, 94364, Note_on_c, 9, 44, 105
13, 94368, Note_off_c, 9, 44, 0
13, 94412, Note_on_c, 9, 42, 65
13, 94416, Note_off_c, 9, 42, 0
13, 94460, Note_on_c, 9, 42, 65
13, 94464, Note_off_c, 9, 42, 0
13, 94508, Note_on_c, 9, 42, 65
13, 94512, Note_off_c, 9, 42, 0
13, 94556, Note_on_c, 9, 44, 105
13, 94560, Note_off_c, 9, 44, 0
13, 94604, Note_on_c, 9, 42, 65
13, 94608, Note_off_c, 9, 42, 0
13, 94652, Note_on_c, 9, 42, 65
13, 94656, Note_off_c, 9, 42, 0
13, 94700, Note_on_c, 9, 42, 65
13, 94704, Note_off_c, 9, 42, 0
13, 94748, Note_on_c, 9, 44, 105
13, 94752, Note_off_c, 9, 44, 0
13, 94796, Note_on_c, 9, 42, 65
13, 94800, Note_off_c, 9, 42, 0
13, 94844, Note_on_c, 9, 42, 65
13, 94848, Note_off_c, 9, 42, 0
13, 94892, Note_on_c, 9, 42, 65
13, 94896, Note_off_c, 9, 42, 0
13, 94940, Note_on_c, 9, 44, 105
13, 94944, Note_off_c, 9, 44, 0
13, 94988, Note_on_c, 9, 42, 65
13, 94992, Note_off_c, 9, 42, 0
13, 95036, Note_on_c, 9, 42, 65
13, 95040, Note_off_c, 9, 42, 0
13, 95084, Note_on_c, 9, 42, 65
13, 95088, Note_off_c, 9, 42, 0
13, 95132, Note_on_c, 9, 44, 105
13, 95136, Note_off_c, 9, 44, 0
13, 95180, Note_on_c, 9, 42, 65
13, 95184, Note_off_c, 9, 42, 0
13, 95228, Note_on_c, 9, 42, 65
13, 95232, Note_off_c, 9, 42, 0
13, 95276, Note_on_c, 9, 42, 65
13, 95280, Note_off_c, 9, 42, 0
13, 95324, Note_on_c, 9, 44, 105
13, 95328, Note_off_c, 9, 44, 0
13, 95372, Note_on_c, 9, 42, 65
13, 95376, Note_off_c, 9, 42, 0
13, 95420, Note_on_c, 9, 42, 65
13, 95424, Note_off_c, 9, 42, 0
13, 95468, Note_on_c, 9, 42, 65
13, 95472, Note_off_c, 9, 42, 0
13, 95516, Note_on_c, 9, 44, 105
13, 95520, Note_off_c, 9, 44, 0
13, 95564, Note_on_c, 9, 42, 65
13, 95568, Note_off_c, 9, 42, 0
13, 95612, Note_on_c, 9, 42, 65
13, 95616, Note_off_c, 9, 42, 0
13, 95660, Note_on_c, 9, 42, 65
13, 95664, Note_off_c, 9, 42, 0
13, 95708, Note_on_c, 9, 44, 105
13, 95712, Note_off_c, 9, 44, 0
13, 95756, Note_on_c, 9, 42, 65
13, 95760, Note_off_c, 9, 42, 0
13, 95760, End_track
14, 0, Start_track
14, 0, Title_t, "Damn it!"
14, 0, Channel_prefix, 9
14, 0, Control_c, 9, 7, 100
14, 0, Program_c, 9, 117
14, 0, Control_c, 9, 0, 0
14, 3840, Note_on_c, 9, 62, 80
14, 3844, Note_off_c, 9, 62, 0
14, 3888, Note_on_c, 9, 62, 80
14, 3892, Note_off_c, 9, 62, 0
14, 3936, Note_on_c, 9, 61, 65
14, 3940, Note_off_c, 9, 61, 0
14, 3984, Note_on_c, 9, 62, 80
14, 3988, Note_off_c, 9, 62, 0
14, 4032, Note_on_c, 9, 63, 78
14, 4036, Note_off_c, 9, 63, 0
14, 4128, Note_on_c, 9, 64, 89
14, 4132, Note_off_c, 9, 64, 0
14, 4224, Note_on_c, 9, 62, 80
14, 4228, Note_off_c, 9, 62, 0
14, 4272, Note_on_c, 9, 61, 65
14, 4276, Note_off_c, 9, 61, 0
14, 4320, Note_on_c, 9, 62, 80
14, 4324, Note_off_c, 9, 62, 0
14, 4368, Note_on_c, 9, 62, 80
14, 4372, Note_off_c, 9, 62, 0
14, 4416, Note_on_c, 9, 63, 78
14, 4420, Note_off_c, 9, 63, 0
14, 4512, Note_on_c, 9, 64, 89
14, 4516, Note_off_c, 9, 64, 0
14, 4560, Note_on_c, 9, 64, 89
14, 4564, Note_off_c, 9, 64, 0
14, 4608, Note_on_c, 9, 62, 80
14, 4612, Note_off_c, 9, 62, 0
14, 4656, Note_on_c, 9, 62, 80
14, 4660, Note_off_c, 9, 62, 0
14, 4704, Note_on_c, 9, 61, 65
14, 4708, Note_off_c, 9, 61, 0
14, 4752, Note_on_c, 9, 62, 80
14, 4756, Note_off_c, 9, 62, 0
14, 4800, Note_on_c, 9, 63, 78
14, 4804, Note_off_c, 9, 63, 0
14, 4896, Note_on_c, 9, 64, 89
14, 4900, Note_off_c, 9, 64, 0
14, 4992, Note_on_c, 9, 62, 80
14, 4996, Note_off_c, 9, 62, 0
14, 5040, Note_on_c, 9, 61, 65
14, 5044, Note_off_c, 9, 61, 0
14, 5088, Note_on_c, 9, 62, 80
14, 5092, Note_off_c, 9, 62, 0
14, 5136, Note_on_c, 9, 62, 80
14, 5140, Note_off_c, 9, 62, 0
14, 5184, Note_on_c, 9, 63, 78
14, 5188, Note_off_c, 9, 63, 0
14, 5280, Note_on_c, 9, 64, 89
14, 5284, Note_off_c, 9, 64, 0
14, 5328, Note_on_c, 9, 64, 89
14, 5332, Note_off_c, 9, 64, 0
14, 5376, Note_on_c, 9, 62, 80
14, 5380, Note_off_c, 9, 62, 0
14, 5424, Note_on_c, 9, 62, 80
14, 5428, Note_off_c, 9, 62, 0
14, 5472, Note_on_c, 9, 61, 65
14, 5476, Note_off_c, 9, 61, 0
14, 5520, Note_on_c, 9, 62, 80
14, 5524, Note_off_c, 9, 62, 0
14, 5568, Note_on_c, 9, 63, 78
14, 5572, Note_off_c, 9, 63, 0
14, 5664, Note_on_c, 9, 64, 89
14, 5668, Note_off_c, 9, 64, 0
14, 5760, Note_on_c, 9, 62, 80
14, 5764, Note_off_c, 9, 62, 0
14, 5808, Note_on_c, 9, 61, 65
14, 5812, Note_off_c, 9, 61, 0
14, 5856, Note_on_c, 9, 62, 80
14, 5860, Note_off_c, 9, 62, 0
14, 5904, Note_on_c, 9, 62, 80
14, 5908, Note_off_c, 9, 62, 0
14, 5952, Note_on_c, 9, 63, 78
14, 5956, Note_off_c, 9, 63, 0
14, 6048, Note_on_c, 9, 64, 89
14, 6052, Note_off_c, 9, 64, 0
14, 6096, Note_on_c, 9, 64, 89
14, 6100, Note_off_c, 9, 64, 0
14, 6144, Note_on_c, 9, 62, 80
14, 6148, Note_off_c, 9, 62, 0
14, 6192, Note_on_c, 9, 62, 80
14, 6196, Note_off_c, 9, 62, 0
14, 6240, Note_on_c, 9, 61, 65
14, 6244, Note_off_c, 9, 61, 0
14, 6288, Note_on_c, 9, 62, 80
14, 6292, Note_off_c, 9, 62, 0
14, 6336, Note_on_c, 9, 63, 78
14, 6340, Note_off_c, 9, 63, 0
14, 6432, Note_on_c, 9, 64, 89
14, 6436, Note_off_c, 9, 64, 0
14, 6528, Note_on_c, 9, 62, 80
14, 6532, Note_off_c, 9, 62, 0
14, 6576, Note_on_c, 9, 61, 65
14, 6580, Note_off_c, 9, 61, 0
14, 6624, Note_on_c, 9, 62, 80
14, 6628, Note_off_c, 9, 62, 0
14, 6672, Note_on_c, 9, 62, 80
14, 6676, Note_off_c, 9, 62, 0
14, 6720, Note_on_c, 9, 63, 78
14, 6724, Note_off_c, 9, 63, 0
14, 6816, Note_on_c, 9, 64, 89
14, 6820, Note_off_c, 9, 64, 0
14, 6864, Note_on_c, 9, 64, 89
14, 6868, Note_off_c, 9, 64, 0
14, 6912, Note_on_c, 9, 62, 75
14, 6916, Note_off_c, 9, 62, 0
14, 6960, Note_on_c, 9, 62, 90
14, 6964, Note_off_c, 9, 62, 0
14, 7056, Note_on_c, 9, 62, 75
14, 7060, Note_off_c, 9, 62, 0
14, 7104, Note_on_c, 9, 62, 90
14, 7108, Note_off_c, 9, 62, 0
14, 7200, Note_on_c, 9, 62, 70
14, 7204, Note_off_c, 9, 62, 0
14, 7248, Note_on_c, 9, 62, 70
14, 7252, Note_off_c, 9, 62, 0
14, 7296, Note_on_c, 9, 62, 75
14, 7300, Note_off_c, 9, 62, 0
14, 7344, Note_on_c, 9, 60, 85
14, 7348, Note_off_c, 9, 60, 0
14, 7392, Note_on_c, 9, 62, 65
14, 7396, Note_off_c, 9, 62, 0
14, 7440, Note_on_c, 9, 62, 70
14, 7444, Note_off_c, 9, 62, 0
14, 7488, Note_on_c, 9, 62, 80
14, 7492, Note_off_c, 9, 62, 0
14, 7584, Note_on_c, 9, 62, 75
14, 7588, Note_off_c, 9, 62, 0
14, 7680, Note_on_c, 9, 62, 75
14, 7684, Note_off_c, 9, 62, 0
14, 7728, Note_on_c, 9, 62, 90
14, 7732, Note_off_c, 9, 62, 0
14, 7824, Note_on_c, 9, 62, 75
14, 7828, Note_off_c, 9, 62, 0
14, 7872, Note_on_c, 9, 62, 90
14, 7876, Note_off_c, 9, 62, 0
14, 7968, Note_on_c, 9, 60, 85
14, 7972, Note_off_c, 9, 60, 0
14, 8064, Note_on_c, 9, 62, 75
14, 8068, Note_off_c, 9, 62, 0
14, 8112, Note_on_c, 9, 62, 90
14, 8116, Note_off_c, 9, 62, 0
14, 8208, Note_on_c, 9, 62, 75
14, 8212, Note_off_c, 9, 62, 0
14, 8256, Note_on_c, 9, 62, 90
14, 8260, Note_off_c, 9, 62, 0
14, 8352, Note_on_c, 9, 62, 75
14, 8356, Note_off_c, 9, 62, 0
14, 8400, Note_on_c, 9, 62, 75
14, 8404, Note_off_c, 9, 62, 0
14, 8448, Note_on_c, 9, 62, 75
14, 8452, Note_off_c, 9, 62, 0
14, 8496, Note_on_c, 9, 62, 90
14, 8500, Note_off_c, 9, 62, 0
14, 8592, Note_on_c, 9, 62, 75
14, 8596, Note_off_c, 9, 62, 0
14, 8640, Note_on_c, 9, 62, 90
14, 8644, Note_off_c, 9, 62, 0
14, 8736, Note_on_c, 9, 62, 70
14, 8740, Note_off_c, 9, 62, 0
14, 8784, Note_on_c, 9, 62, 70
14, 8788, Note_off_c, 9, 62, 0
14, 8832, Note_on_c, 9, 62, 75
14, 8836, Note_off_c, 9, 62, 0
14, 8880, Note_on_c, 9, 60, 85
14, 8884, Note_off_c, 9, 60, 0
14, 8928, Note_on_c, 9, 62, 65
14, 8932, Note_off_c, 9, 62, 0
14, 8976, Note_on_c, 9, 62, 70
14, 8980, Note_off_c, 9, 62, 0
14, 9024, Note_on_c, 9, 62, 80
14, 9028, Note_off_c, 9, 62, 0
14, 9120, Note_on_c, 9, 62, 75
14, 9124, Note_off_c, 9, 62, 0
14, 9216, Note_on_c, 9, 62, 75
14, 9220, Note_off_c, 9, 62, 0
14, 9264, Note_on_c, 9, 62, 90
14, 9268, Note_off_c, 9, 62, 0
14, 9360, Note_on_c, 9, 62, 75
14, 9364, Note_off_c, 9, 62, 0
14, 9408, Note_on_c, 9, 62, 90
14, 9412, Note_off_c, 9, 62, 0
14, 9504, Note_on_c, 9, 60, 85
14, 9508, Note_off_c, 9, 60, 0
14, 9600, Note_on_c, 9, 62, 75
14, 9604, Note_off_c, 9, 62, 0
14, 9648, Note_on_c, 9, 62, 90
14, 9652, Note_off_c, 9, 62, 0
14, 9744, Note_on_c, 9, 62, 75
14, 9748, Note_off_c, 9, 62, 0
14, 9792, Note_on_c, 9, 62, 90
14, 9796, Note_off_c, 9, 62, 0
14, 9888, Note_on_c, 9, 62, 75
14, 9892, Note_off_c, 9, 62, 0
14, 9936, Note_on_c, 9, 62, 75
14, 9940, Note_off_c, 9, 62, 0
14, 9984, Note_on_c, 9, 62, 75
14, 9988, Note_off_c, 9, 62, 0
14, 10032, Note_on_c, 9, 62, 90
14, 10036, Note_off_c, 9, 62, 0
14, 10128, Note_on_c, 9, 62, 75
14, 10132, Note_off_c, 9, 62, 0
14, 10176, Note_on_c, 9, 62, 90
14, 10180, Note_off_c, 9, 62, 0
14, 10272, Note_on_c, 9, 62, 70
14, 10276, Note_off_c, 9, 62, 0
14, 10320, Note_on_c, 9, 62, 70
14, 10324, Note_off_c, 9, 62, 0
14, 10368, Note_on_c, 9, 62, 75
14, 10372, Note_off_c, 9, 62, 0
14, 10416, Note_on_c, 9, 60, 85
14, 10420, Note_off_c, 9, 60, 0
14, 10464, Note_on_c, 9, 62, 65
14, 10468, Note_off_c, 9, 62, 0
14, 10512, Note_on_c, 9, 62, 70
14, 10516, Note_off_c, 9, 62, 0
14, 10560, Note_on_c, 9, 62, 80
14, 10564, Note_off_c, 9, 62, 0
14, 10656, Note_on_c, 9, 62, 75
14, 10660, Note_off_c, 9, 62, 0
14, 10752, Note_on_c, 9, 62, 75
14, 10756, Note_off_c, 9, 62, 0
14, 10800, Note_on_c, 9, 62, 90
14, 10804, Note_off_c, 9, 62, 0
14, 10896, Note_on_c, 9, 62, 75
14, 10900, Note_off_c, 9, 62, 0
14, 10944, Note_on_c, 9, 62, 90
14, 10948, Note_off_c, 9, 62, 0
14, 11040, Note_on_c, 9, 60, 85
14, 11044, Note_off_c, 9, 60, 0
14, 11136, Note_on_c, 9, 62, 75
14, 11140, Note_off_c, 9, 62, 0
14, 11184, Note_on_c, 9, 62, 90
14, 11188, Note_off_c, 9, 62, 0
14, 11280, Note_on_c, 9, 62, 75
14, 11284, Note_off_c, 9, 62, 0
14, 11328, Note_on_c, 9, 62, 90
14, 11332, Note_off_c, 9, 62, 0
14, 11424, Note_on_c, 9, 62, 75
14, 11428, Note_off_c, 9, 62, 0
14, 11472, Note_on_c, 9, 62, 75
14, 11476, Note_off_c, 9, 62, 0
14, 11520, Note_on_c, 9, 62, 75
14, 11524, Note_off_c, 9, 62, 0
14, 11568, Note_on_c, 9, 62, 90
14, 11572, Note_off_c, 9, 62, 0
14, 11664, Note_on_c, 9, 62, 75
14, 11668, Note_off_c, 9, 62, 0
14, 11712, Note_on_c, 9, 62, 90
14, 11716, Note_off_c, 9, 62, 0
14, 11808, Note_on_c, 9, 62, 70
14, 11812, Note_off_c, 9, 62, 0
14, 11856, Note_on_c, 9, 62, 70
14, 11860, Note_off_c, 9, 62, 0
14, 11904, Note_on_c, 9, 62, 75
14, 11908, Note_off_c, 9, 62, 0
14, 11952, Note_on_c, 9, 60, 85
14, 11956, Note_off_c, 9, 60, 0
14, 12000, Note_on_c, 9, 62, 65
14, 12004, Note_off_c, 9, 62, 0
14, 12048, Note_on_c, 9, 62, 70
14, 12052, Note_off_c, 9, 62, 0
14, 12096, Note_on_c, 9, 62, 80
14, 12100, Note_off_c, 9, 62, 0
14, 12192, Note_on_c, 9, 62, 75
14, 12196, Note_off_c, 9, 62, 0
14, 12288, Note_on_c, 9, 62, 75
14, 12292, Note_off_c, 9, 62, 0
14, 12336, Note_on_c, 9, 62, 90
14, 12340, Note_off_c, 9, 62, 0
14, 12432, Note_on_c, 9, 62, 75
14, 12436, Note_off_c, 9, 62, 0
14, 12480, Note_on_c, 9, 62, 90
14, 12484, Note_off_c, 9, 62, 0
14, 12576, Note_on_c, 9, 60, 85
14, 12580, Note_off_c, 9, 60, 0
14, 12672, Note_on_c, 9, 62, 75
14, 12676, Note_off_c, 9, 62, 0
14, 12720, Note_on_c, 9, 62, 90
14, 12724, Note_off_c, 9, 62, 0
14, 12816, Note_on_c, 9, 62, 75
14, 12820, Note_off_c, 9, 62, 0
14, 12864, Note_on_c, 9, 62, 90
14, 12868, Note_off_c, 9, 62, 0
14, 12960, Note_on_c, 9, 62, 75
14, 12964, Note_off_c, 9, 62, 0
14, 13008, Note_on_c, 9, 62, 75
14, 13012, Note_off_c, 9, 62, 0
14, 13056, Note_on_c, 9, 62, 75
14, 13060, Note_off_c, 9, 62, 0
14, 13104, Note_on_c, 9, 62, 90
14, 13108, Note_off_c, 9, 62, 0
14, 13200, Note_on_c, 9, 62, 75
14, 13204, Note_off_c, 9, 62, 0
14, 13248, Note_on_c, 9, 62, 90
14, 13252, Note_off_c, 9, 62, 0
14, 13344, Note_on_c, 9, 62, 70
14, 13348, Note_off_c, 9, 62, 0
14, 13392, Note_on_c, 9, 62, 70
14, 13396, Note_off_c, 9, 62, 0
14, 13440, Note_on_c, 9, 62, 75
14, 13444, Note_off_c, 9, 62, 0
14, 13488, Note_on_c, 9, 60, 85
14, 13492, Note_off_c, 9, 60, 0
14, 13536, Note_on_c, 9, 62, 65
14, 13540, Note_off_c, 9, 62, 0
14, 13584, Note_on_c, 9, 62, 70
14, 13588, Note_off_c, 9, 62, 0
14, 13632, Note_on_c, 9, 62, 80
14, 13636, Note_off_c, 9, 62, 0
14, 13728, Note_on_c, 9, 62, 75
14, 13732, Note_off_c, 9, 62, 0
14, 13824, Note_on_c, 9, 62, 75
14, 13828, Note_off_c, 9, 62, 0
14, 13872, Note_on_c, 9, 62, 90
14, 13876, Note_off_c, 9, 62, 0
14, 13968, Note_on_c, 9, 62, 75
14, 13972, Note_off_c, 9, 62, 0
14, 14016, Note_on_c, 9, 62, 90
14, 14020, Note_off_c, 9, 62, 0
14, 14112, Note_on_c, 9, 60, 85
14, 14116, Note_off_c, 9, 60, 0
14, 14208, Note_on_c, 9, 62, 75
14, 14212, Note_off_c, 9, 62, 0
14, 14256, Note_on_c, 9, 62, 90
14, 14260, Note_off_c, 9, 62, 0
14, 14352, Note_on_c, 9, 62, 75
14, 14356, Note_off_c, 9, 62, 0
14, 14400, Note_on_c, 9, 62, 90
14, 14404, Note_off_c, 9, 62, 0
14, 14496, Note_on_c, 9, 62, 75
14, 14500, Note_off_c, 9, 62, 0
14, 14544, Note_on_c, 9, 62, 75
14, 14548, Note_off_c, 9, 62, 0
14, 14592, Note_on_c, 9, 62, 75
14, 14596, Note_off_c, 9, 62, 0
14, 14640, Note_on_c, 9, 62, 90
14, 14644, Note_off_c, 9, 62, 0
14, 14736, Note_on_c, 9, 62, 75
14, 14740, Note_off_c, 9, 62, 0
14, 14784, Note_on_c, 9, 62, 90
14, 14788, Note_off_c, 9, 62, 0
14, 14880, Note_on_c, 9, 62, 70
14, 14884, Note_off_c, 9, 62, 0
14, 14928, Note_on_c, 9, 62, 70
14, 14932, Note_off_c, 9, 62, 0
14, 14976, Note_on_c, 9, 62, 75
14, 14980, Note_off_c, 9, 62, 0
14, 15024, Note_on_c, 9, 60, 85
14, 15028, Note_off_c, 9, 60, 0
14, 15072, Note_on_c, 9, 62, 65
14, 15076, Note_off_c, 9, 62, 0
14, 15120, Note_on_c, 9, 62, 70
14, 15124, Note_off_c, 9, 62, 0
14, 15168, Note_on_c, 9, 62, 80
14, 15172, Note_off_c, 9, 62, 0
14, 15264, Note_on_c, 9, 62, 75
14, 15268, Note_off_c, 9, 62, 0
14, 15360, Note_on_c, 9, 62, 75
14, 15364, Note_off_c, 9, 62, 0
14, 15408, Note_on_c, 9, 62, 90
14, 15412, Note_off_c, 9, 62, 0
14, 15504, Note_on_c, 9, 62, 75
14, 15508, Note_off_c, 9, 62, 0
14, 15552, Note_on_c, 9, 62, 90
14, 15556, Note_off_c, 9, 62, 0
14, 15648, Note_on_c, 9, 60, 85
14, 15652, Note_off_c, 9, 60, 0
14, 15744, Note_on_c, 9, 62, 75
14, 15748, Note_off_c, 9, 62, 0
14, 15792, Note_on_c, 9, 62, 90
14, 15796, Note_off_c, 9, 62, 0
14, 15888, Note_on_c, 9, 62, 75
14, 15892, Note_off_c, 9, 62, 0
14, 15936, Note_on_c, 9, 62, 90
14, 15940, Note_off_c, 9, 62, 0
14, 16032, Note_on_c, 9, 62, 75
14, 16036, Note_off_c, 9, 62, 0
14, 16080, Note_on_c, 9, 62, 75
14, 16084, Note_off_c, 9, 62, 0
14, 16128, Note_on_c, 9, 62, 75
14, 16132, Note_off_c, 9, 62, 0
14, 16176, Note_on_c, 9, 62, 90
14, 16180, Note_off_c, 9, 62, 0
14, 16272, Note_on_c, 9, 62, 75
14, 16276, Note_off_c, 9, 62, 0
14, 16320, Note_on_c, 9, 62, 90
14, 16324, Note_off_c, 9, 62, 0
14, 16416, Note_on_c, 9, 62, 70
14, 16420, Note_off_c, 9, 62, 0
14, 16464, Note_on_c, 9, 62, 70
14, 16468, Note_off_c, 9, 62, 0
14, 16512, Note_on_c, 9, 62, 75
14, 16516, Note_off_c, 9, 62, 0
14, 16560, Note_on_c, 9, 60, 85
14, 16564, Note_off_c, 9, 60, 0
14, 16608, Note_on_c, 9, 62, 65
14, 16612, Note_off_c, 9, 62, 0
14, 16656, Note_on_c, 9, 62, 70
14, 16660, Note_off_c, 9, 62, 0
14, 16704, Note_on_c, 9, 62, 80
14, 16708, Note_off_c, 9, 62, 0
14, 16800, Note_on_c, 9, 62, 75
14, 16804, Note_off_c, 9, 62, 0
14, 16896, Note_on_c, 9, 62, 75
14, 16900, Note_off_c, 9, 62, 0
14, 16944, Note_on_c, 9, 62, 90
14, 16948, Note_off_c, 9, 62, 0
14, 17040, Note_on_c, 9, 62, 75
14, 17044, Note_off_c, 9, 62, 0
14, 17088, Note_on_c, 9, 62, 90
14, 17092, Note_off_c, 9, 62, 0
14, 17184, Note_on_c, 9, 60, 85
14, 17188, Note_off_c, 9, 60, 0
14, 17280, Note_on_c, 9, 62, 75
14, 17284, Note_off_c, 9, 62, 0
14, 17328, Note_on_c, 9, 62, 90
14, 17332, Note_off_c, 9, 62, 0
14, 17424, Note_on_c, 9, 62, 75
14, 17428, Note_off_c, 9, 62, 0
14, 17472, Note_on_c, 9, 62, 90
14, 17476, Note_off_c, 9, 62, 0
14, 17568, Note_on_c, 9, 62, 75
14, 17572, Note_off_c, 9, 62, 0
14, 17616, Note_on_c, 9, 62, 75
14, 17620, Note_off_c, 9, 62, 0
14, 17664, Note_on_c, 9, 62, 75
14, 17668, Note_off_c, 9, 62, 0
14, 17712, Note_on_c, 9, 62, 90
14, 17716, Note_off_c, 9, 62, 0
14, 17808, Note_on_c, 9, 62, 75
14, 17812, Note_off_c, 9, 62, 0
14, 17856, Note_on_c, 9, 62, 90
14, 17860, Note_off_c, 9, 62, 0
14, 17952, Note_on_c, 9, 62, 70
14, 17956, Note_off_c, 9, 62, 0
14, 18000, Note_on_c, 9, 62, 70
14, 18004, Note_off_c, 9, 62, 0
14, 18048, Note_on_c, 9, 62, 75
14, 18052, Note_off_c, 9, 62, 0
14, 18096, Note_on_c, 9, 60, 85
14, 18100, Note_off_c, 9, 60, 0
14, 18144, Note_on_c, 9, 62, 65
14, 18148, Note_off_c, 9, 62, 0
14, 18192, Note_on_c, 9, 62, 70
14, 18196, Note_off_c, 9, 62, 0
14, 18240, Note_on_c, 9, 62, 80
14, 18244, Note_off_c, 9, 62, 0
14, 18336, Note_on_c, 9, 62, 75
14, 18340, Note_off_c, 9, 62, 0
14, 18432, Note_on_c, 9, 62, 75
14, 18436, Note_off_c, 9, 62, 0
14, 18480, Note_on_c, 9, 62, 90
14, 18484, Note_off_c, 9, 62, 0
14, 18576, Note_on_c, 9, 62, 75
14, 18580, Note_off_c, 9, 62, 0
14, 18624, Note_on_c, 9, 62, 90
14, 18628, Note_off_c, 9, 62, 0
14, 18720, Note_on_c, 9, 60, 85
14, 18724, Note_off_c, 9, 60, 0
14, 18816, Note_on_c, 9, 62, 75
14, 18820, Note_off_c, 9, 62, 0
14, 18864, Note_on_c, 9, 62, 90
14, 18868, Note_off_c, 9, 62, 0
14, 18960, Note_on_c, 9, 62, 75
14, 18964, Note_off_c, 9, 62, 0
14, 19008, Note_on_c, 9, 62, 90
14, 19012, Note_off_c, 9, 62, 0
14, 19104, Note_on_c, 9, 62, 75
14, 19108, Note_off_c, 9, 62, 0
14, 19152, Note_on_c, 9, 62, 75
14, 19156, Note_off_c, 9, 62, 0
14, 19200, Note_on_c, 9, 62, 75
14, 19204, Note_off_c, 9, 62, 0
14, 19248, Note_on_c, 9, 62, 90
14, 19252, Note_off_c, 9, 62, 0
14, 19344, Note_on_c, 9, 62, 75
14, 19348, Note_off_c, 9, 62, 0
14, 19392, Note_on_c, 9, 62, 90
14, 19396, Note_off_c, 9, 62, 0
14, 19488, Note_on_c, 9, 62, 70
14, 19492, Note_off_c, 9, 62, 0
14, 19536, Note_on_c, 9, 62, 70
14, 19540, Note_off_c, 9, 62, 0
14, 19584, Note_on_c, 9, 62, 75
14, 19588, Note_off_c, 9, 62, 0
14, 19632, Note_on_c, 9, 60, 85
14, 19636, Note_off_c, 9, 60, 0
14, 19680, Note_on_c, 9, 62, 65
14, 19684, Note_off_c, 9, 62, 0
14, 19728, Note_on_c, 9, 62, 70
14, 19732, Note_off_c, 9, 62, 0
14, 19776, Note_on_c, 9, 62, 80
14, 19780, Note_off_c, 9, 62, 0
14, 19872, Note_on_c, 9, 62, 75
14, 19876, Note_off_c, 9, 62, 0
14, 19968, Note_on_c, 9, 62, 75
14, 19972, Note_off_c, 9, 62, 0
14, 20016, Note_on_c, 9, 62, 90
14, 20020, Note_off_c, 9, 62, 0
14, 20112, Note_on_c, 9, 62, 75
14, 20116, Note_off_c, 9, 62, 0
14, 20160, Note_on_c, 9, 62, 90
14, 20164, Note_off_c, 9, 62, 0
14, 20256, Note_on_c, 9, 60, 85
14, 20260, Note_off_c, 9, 60, 0
14, 20352, Note_on_c, 9, 62, 75
14, 20356, Note_off_c, 9, 62, 0
14, 20400, Note_on_c, 9, 62, 90
14, 20404, Note_off_c, 9, 62, 0
14, 20496, Note_on_c, 9, 62, 75
14, 20500, Note_off_c, 9, 62, 0
14, 20544, Note_on_c, 9, 62, 90
14, 20548, Note_off_c, 9, 62, 0
14, 20640, Note_on_c, 9, 62, 75
14, 20644, Note_off_c, 9, 62, 0
14, 20688, Note_on_c, 9, 62, 75
14, 20692, Note_off_c, 9, 62, 0
14, 20736, Note_on_c, 9, 62, 75
14, 20740, Note_off_c, 9, 62, 0
14, 20784, Note_on_c, 9, 62, 90
14, 20788, Note_off_c, 9, 62, 0
14, 20880, Note_on_c, 9, 62, 75
14, 20884, Note_off_c, 9, 62, 0
14, 20928, Note_on_c, 9, 62, 90
14, 20932, Note_off_c, 9, 62, 0
14, 21024, Note_on_c, 9, 62, 70
14, 21028, Note_off_c, 9, 62, 0
14, 21072, Note_on_c, 9, 62, 70
14, 21076, Note_off_c, 9, 62, 0
14, 21120, Note_on_c, 9, 62, 75
14, 21124, Note_off_c, 9, 62, 0
14, 21168, Note_on_c, 9, 60, 85
14, 21172, Note_off_c, 9, 60, 0
14, 21216, Note_on_c, 9, 62, 65
14, 21220, Note_off_c, 9, 62, 0
14, 21264, Note_on_c, 9, 62, 70
14, 21268, Note_off_c, 9, 62, 0
14, 21312, Note_on_c, 9, 62, 80
14, 21316, Note_off_c, 9, 62, 0
14, 21408, Note_on_c, 9, 62, 75
14, 21412, Note_off_c, 9, 62, 0
14, 21504, Note_on_c, 9, 62, 75
14, 21508, Note_off_c, 9, 62, 0
14, 21552, Note_on_c, 9, 62, 90
14, 21556, Note_off_c, 9, 62, 0
14, 21648, Note_on_c, 9, 62, 75
14, 21652, Note_off_c, 9, 62, 0
14, 21696, Note_on_c, 9, 62, 90
14, 21700, Note_off_c, 9, 62, 0
14, 21792, Note_on_c, 9, 60, 85
14, 21796, Note_off_c, 9, 60, 0
14, 21888, Note_on_c, 9, 62, 75
14, 21892, Note_off_c, 9, 62, 0
14, 21936, Note_on_c, 9, 62, 90
14, 21940, Note_off_c, 9, 62, 0
14, 22032, Note_on_c, 9, 62, 75
14, 22036, Note_off_c, 9, 62, 0
14, 22080, Note_on_c, 9, 62, 90
14, 22084, Note_off_c, 9, 62, 0
14, 22176, Note_on_c, 9, 62, 75
14, 22180, Note_off_c, 9, 62, 0
14, 22224, Note_on_c, 9, 62, 75
14, 22228, Note_off_c, 9, 62, 0
14, 22272, Note_on_c, 9, 62, 75
14, 22276, Note_off_c, 9, 62, 0
14, 22320, Note_on_c, 9, 62, 90
14, 22324, Note_off_c, 9, 62, 0
14, 22416, Note_on_c, 9, 62, 75
14, 22420, Note_off_c, 9, 62, 0
14, 22464, Note_on_c, 9, 62, 90
14, 22468, Note_off_c, 9, 62, 0
14, 22560, Note_on_c, 9, 62, 70
14, 22564, Note_off_c, 9, 62, 0
14, 22608, Note_on_c, 9, 62, 70
14, 22612, Note_off_c, 9, 62, 0
14, 22656, Note_on_c, 9, 62, 75
14, 22660, Note_off_c, 9, 62, 0
14, 22704, Note_on_c, 9, 60, 85
14, 22708, Note_off_c, 9, 60, 0
14, 22752, Note_on_c, 9, 62, 65
14, 22756, Note_off_c, 9, 62, 0
14, 22800, Note_on_c, 9, 62, 70
14, 22804, Note_off_c, 9, 62, 0
14, 22848, Note_on_c, 9, 62, 80
14, 22852, Note_off_c, 9, 62, 0
14, 22944, Note_on_c, 9, 62, 75
14, 22948, Note_off_c, 9, 62, 0
14, 23040, Note_on_c, 9, 62, 75
14, 23044, Note_off_c, 9, 62, 0
14, 23088, Note_on_c, 9, 62, 90
14, 23092, Note_off_c, 9, 62, 0
14, 23184, Note_on_c, 9, 62, 75
14, 23188, Note_off_c, 9, 62, 0
14, 23232, Note_on_c, 9, 62, 90
14, 23236, Note_off_c, 9, 62, 0
14, 23328, Note_on_c, 9, 60, 85
14, 23332, Note_off_c, 9, 60, 0
14, 23424, Note_on_c, 9, 62, 75
14, 23428, Note_off_c, 9, 62, 0
14, 23472, Note_on_c, 9, 62, 90
14, 23476, Note_off_c, 9, 62, 0
14, 23568, Note_on_c, 9, 62, 75
14, 23572, Note_off_c, 9, 62, 0
14, 23616, Note_on_c, 9, 62, 90
14, 23620, Note_off_c, 9, 62, 0
14, 23712, Note_on_c, 9, 62, 75
14, 23716, Note_off_c, 9, 62, 0
14, 23760, Note_on_c, 9, 62, 75
14, 23764, Note_off_c, 9, 62, 0
14, 23808, Note_on_c, 9, 62, 75
14, 23812, Note_off_c, 9, 62, 0
14, 23856, Note_on_c, 9, 62, 90
14, 23860, Note_off_c, 9, 62, 0
14, 23952, Note_on_c, 9, 62, 75
14, 23956, Note_off_c, 9, 62, 0
14, 24000, Note_on_c, 9, 62, 90
14, 24004, Note_off_c, 9, 62, 0
14, 24096, Note_on_c, 9, 62, 70
14, 24100, Note_off_c, 9, 62, 0
14, 24144, Note_on_c, 9, 62, 70
14, 24148, Note_off_c, 9, 62, 0
14, 24192, Note_on_c, 9, 62, 75
14, 24196, Note_off_c, 9, 62, 0
14, 24240, Note_on_c, 9, 60, 85
14, 24244, Note_off_c, 9, 60, 0
14, 24288, Note_on_c, 9, 62, 65
14, 24292, Note_off_c, 9, 62, 0
14, 24336, Note_on_c, 9, 62, 70
14, 24340, Note_off_c, 9, 62, 0
14, 24384, Note_on_c, 9, 62, 80
14, 24388, Note_off_c, 9, 62, 0
14, 24480, Note_on_c, 9, 62, 75
14, 24484, Note_off_c, 9, 62, 0
14, 24576, Note_on_c, 9, 62, 75
14, 24580, Note_off_c, 9, 62, 0
14, 24624, Note_on_c, 9, 62, 90
14, 24628, Note_off_c, 9, 62, 0
14, 24720, Note_on_c, 9, 62, 75
14, 24724, Note_off_c, 9, 62, 0
14, 24768, Note_on_c, 9, 62, 90
14, 24772, Note_off_c, 9, 62, 0
14, 24864, Note_on_c, 9, 60, 85
14, 24868, Note_off_c, 9, 60, 0
14, 24960, Note_on_c, 9, 62, 75
14, 24964, Note_off_c, 9, 62, 0
14, 25008, Note_on_c, 9, 62, 90
14, 25012, Note_off_c, 9, 62, 0
14, 25104, Note_on_c, 9, 62, 75
14, 25108, Note_off_c, 9, 62, 0
14, 25152, Note_on_c, 9, 62, 90
14, 25156, Note_off_c, 9, 62, 0
14, 25248, Note_on_c, 9, 62, 75
14, 25252, Note_off_c, 9, 62, 0
14, 25296, Note_on_c, 9, 62, 75
14, 25300, Note_off_c, 9, 62, 0
14, 25344, Note_on_c, 9, 62, 80
14, 25348, Note_off_c, 9, 62, 0
14, 25392, Note_on_c, 9, 62, 80
14, 25396, Note_off_c, 9, 62, 0
14, 25440, Note_on_c, 9, 61, 65
14, 25444, Note_off_c, 9, 61, 0
14, 25488, Note_on_c, 9, 62, 80
14, 25492, Note_off_c, 9, 62, 0
14, 25536, Note_on_c, 9, 63, 78
14, 25540, Note_off_c, 9, 63, 0
14, 25632, Note_on_c, 9, 64, 89
14, 25636, Note_off_c, 9, 64, 0
14, 25728, Note_on_c, 9, 62, 80
14, 25732, Note_off_c, 9, 62, 0
14, 25776, Note_on_c, 9, 61, 65
14, 25780, Note_off_c, 9, 61, 0
14, 25824, Note_on_c, 9, 62, 80
14, 25828, Note_off_c, 9, 62, 0
14, 25872, Note_on_c, 9, 62, 80
14, 25876, Note_off_c, 9, 62, 0
14, 25920, Note_on_c, 9, 63, 78
14, 25924, Note_off_c, 9, 63, 0
14, 26016, Note_on_c, 9, 64, 89
14, 26020, Note_off_c, 9, 64, 0
14, 26064, Note_on_c, 9, 64, 89
14, 26068, Note_off_c, 9, 64, 0
14, 26112, Note_on_c, 9, 62, 80
14, 26116, Note_off_c, 9, 62, 0
14, 26160, Note_on_c, 9, 62, 80
14, 26164, Note_off_c, 9, 62, 0
14, 26208, Note_on_c, 9, 61, 65
14, 26212, Note_off_c, 9, 61, 0
14, 26256, Note_on_c, 9, 62, 80
14, 26260, Note_off_c, 9, 62, 0
14, 26304, Note_on_c, 9, 63, 78
14, 26308, Note_off_c, 9, 63, 0
14, 26400, Note_on_c, 9, 64, 89
14, 26404, Note_off_c, 9, 64, 0
14, 26496, Note_on_c, 9, 62, 80
14, 26500, Note_off_c, 9, 62, 0
14, 26544, Note_on_c, 9, 61, 65
14, 26548, Note_off_c, 9, 61, 0
14, 26592, Note_on_c, 9, 62, 80
14, 26596, Note_off_c, 9, 62, 0
14, 26640, Note_on_c, 9, 62, 80
14, 26644, Note_off_c, 9, 62, 0
14, 26688, Note_on_c, 9, 63, 78
14, 26692, Note_off_c, 9, 63, 0
14, 26784, Note_on_c, 9, 64, 89
14, 26788, Note_off_c, 9, 64, 0
14, 26832, Note_on_c, 9, 64, 89
14, 26836, Note_off_c, 9, 64, 0
14, 26880, Note_on_c, 9, 62, 80
14, 26884, Note_off_c, 9, 62, 0
14, 26928, Note_on_c, 9, 62, 80
14, 26932, Note_off_c, 9, 62, 0
14, 26976, Note_on_c, 9, 61, 65
14, 26980, Note_off_c, 9, 61, 0
14, 27024, Note_on_c, 9, 62, 80
14, 27028, Note_off_c, 9, 62, 0
14, 27072, Note_on_c, 9, 63, 78
14, 27076, Note_off_c, 9, 63, 0
14, 27168, Note_on_c, 9, 64, 89
14, 27172, Note_off_c, 9, 64, 0
14, 27264, Note_on_c, 9, 62, 80
14, 27268, Note_off_c, 9, 62, 0
14, 27312, Note_on_c, 9, 61, 65
14, 27316, Note_off_c, 9, 61, 0
14, 27360, Note_on_c, 9, 62, 80
14, 27364, Note_off_c, 9, 62, 0
14, 27408, Note_on_c, 9, 62, 80
14, 27412, Note_off_c, 9, 62, 0
14, 27456, Note_on_c, 9, 63, 78
14, 27460, Note_off_c, 9, 63, 0
14, 27552, Note_on_c, 9, 64, 89
14, 27556, Note_off_c, 9, 64, 0
14, 27600, Note_on_c, 9, 64, 89
14, 27604, Note_off_c, 9, 64, 0
14, 27648, Note_on_c, 9, 62, 80
14, 27652, Note_off_c, 9, 62, 0
14, 27696, Note_on_c, 9, 62, 80
14, 27700, Note_off_c, 9, 62, 0
14, 27744, Note_on_c, 9, 61, 65
14, 27748, Note_off_c, 9, 61, 0
14, 27792, Note_on_c, 9, 62, 80
14, 27796, Note_off_c, 9, 62, 0
14, 27840, Note_on_c, 9, 63, 78
14, 27844, Note_off_c, 9, 63, 0
14, 27936, Note_on_c, 9, 64, 89
14, 27940, Note_off_c, 9, 64, 0
14, 28032, Note_on_c, 9, 62, 80
14, 28036, Note_off_c, 9, 62, 0
14, 28080, Note_on_c, 9, 61, 65
14, 28084, Note_off_c, 9, 61, 0
14, 28128, Note_on_c, 9, 62, 80
14, 28132, Note_off_c, 9, 62, 0
14, 28176, Note_on_c, 9, 62, 80
14, 28180, Note_off_c, 9, 62, 0
14, 28224, Note_on_c, 9, 63, 78
14, 28228, Note_off_c, 9, 63, 0
14, 28320, Note_on_c, 9, 64, 89
14, 28324, Note_off_c, 9, 64, 0
14, 28368, Note_on_c, 9, 64, 89
14, 28372, Note_off_c, 9, 64, 0
14, 28416, Note_on_c, 9, 62, 80
14, 28420, Note_off_c, 9, 62, 0
14, 28464, Note_on_c, 9, 62, 80
14, 28468, Note_off_c, 9, 62, 0
14, 28512, Note_on_c, 9, 61, 65
14, 28516, Note_off_c, 9, 61, 0
14, 28560, Note_on_c, 9, 62, 80
14, 28564, Note_off_c, 9, 62, 0
14, 28608, Note_on_c, 9, 63, 78
14, 28612, Note_off_c, 9, 63, 0
14, 28704, Note_on_c, 9, 64, 89
14, 28708, Note_off_c, 9, 64, 0
14, 28800, Note_on_c, 9, 62, 80
14, 28804, Note_off_c, 9, 62, 0
14, 28848, Note_on_c, 9, 61, 65
14, 28852, Note_off_c, 9, 61, 0
14, 28896, Note_on_c, 9, 62, 80
14, 28900, Note_off_c, 9, 62, 0
14, 28944, Note_on_c, 9, 62, 80
14, 28948, Note_off_c, 9, 62, 0
14, 28992, Note_on_c, 9, 63, 78
14, 28996, Note_off_c, 9, 63, 0
14, 29088, Note_on_c, 9, 64, 89
14, 29092, Note_off_c, 9, 64, 0
14, 29136, Note_on_c, 9, 64, 89
14, 29140, Note_off_c, 9, 64, 0
14, 29184, Note_on_c, 9, 62, 80
14, 29188, Note_off_c, 9, 62, 0
14, 29232, Note_on_c, 9, 62, 80
14, 29236, Note_off_c, 9, 62, 0
14, 29280, Note_on_c, 9, 61, 65
14, 29284, Note_off_c, 9, 61, 0
14, 29328, Note_on_c, 9, 62, 80
14, 29332, Note_off_c, 9, 62, 0
14, 29376, Note_on_c, 9, 63, 78
14, 29380, Note_off_c, 9, 63, 0
14, 29472, Note_on_c, 9, 64, 89
14, 29476, Note_off_c, 9, 64, 0
14, 29568, Note_on_c, 9, 62, 80
14, 29572, Note_off_c, 9, 62, 0
14, 29616, Note_on_c, 9, 61, 65
14, 29620, Note_off_c, 9, 61, 0
14, 29664, Note_on_c, 9, 62, 80
14, 29668, Note_off_c, 9, 62, 0
14, 29712, Note_on_c, 9, 62, 80
14, 29716, Note_off_c, 9, 62, 0
14, 29760, Note_on_c, 9, 63, 78
14, 29764, Note_off_c, 9, 63, 0
14, 29856, Note_on_c, 9, 64, 89
14, 29860, Note_off_c, 9, 64, 0
14, 29904, Note_on_c, 9, 64, 89
14, 29908, Note_off_c, 9, 64, 0
14, 29952, Note_on_c, 9, 62, 80
14, 29956, Note_off_c, 9, 62, 0
14, 30000, Note_on_c, 9, 62, 80
14, 30004, Note_off_c, 9, 62, 0
14, 30048, Note_on_c, 9, 61, 65
14, 30052, Note_off_c, 9, 61, 0
14, 30096, Note_on_c, 9, 62, 80
14, 30100, Note_off_c, 9, 62, 0
14, 30144, Note_on_c, 9, 63, 78
14, 30148, Note_off_c, 9, 63, 0
14, 30240, Note_on_c, 9, 64, 89
14, 30244, Note_off_c, 9, 64, 0
14, 30336, Note_on_c, 9, 62, 80
14, 30340, Note_off_c, 9, 62, 0
14, 30384, Note_on_c, 9, 61, 65
14, 30388, Note_off_c, 9, 61, 0
14, 30432, Note_on_c, 9, 62, 80
14, 30436, Note_off_c, 9, 62, 0
14, 30480, Note_on_c, 9, 62, 80
14, 30484, Note_off_c, 9, 62, 0
14, 30528, Note_on_c, 9, 63, 78
14, 30532, Note_off_c, 9, 63, 0
14, 30624, Note_on_c, 9, 64, 89
14, 30628, Note_off_c, 9, 64, 0
14, 30672, Note_on_c, 9, 64, 89
14, 30676, Note_off_c, 9, 64, 0
14, 30720, Note_on_c, 9, 62, 80
14, 30724, Note_off_c, 9, 62, 0
14, 30768, Note_on_c, 9, 62, 80
14, 30772, Note_off_c, 9, 62, 0
14, 30816, Note_on_c, 9, 61, 65
14, 30820, Note_off_c, 9, 61, 0
14, 30864, Note_on_c, 9, 62, 80
14, 30868, Note_off_c, 9, 62, 0
14, 30912, Note_on_c, 9, 63, 78
14, 30916, Note_off_c, 9, 63, 0
14, 31008, Note_on_c, 9, 64, 89
14, 31012, Note_off_c, 9, 64, 0
14, 31104, Note_on_c, 9, 62, 80
14, 31108, Note_off_c, 9, 62, 0
14, 31152, Note_on_c, 9, 61, 65
14, 31156, Note_off_c, 9, 61, 0
14, 31200, Note_on_c, 9, 62, 80
14, 31204, Note_off_c, 9, 62, 0
14, 31248, Note_on_c, 9, 62, 80
14, 31252, Note_off_c, 9, 62, 0
14, 31296, Note_on_c, 9, 63, 78
14, 31300, Note_off_c, 9, 63, 0
14, 31392, Note_on_c, 9, 64, 89
14, 31396, Note_off_c, 9, 64, 0
14, 31440, Note_on_c, 9, 64, 89
14, 31444, Note_off_c, 9, 64, 0
14, 31488, Note_on_c, 9, 62, 80
14, 31492, Note_off_c, 9, 62, 0
14, 31536, Note_on_c, 9, 62, 80
14, 31540, Note_off_c, 9, 62, 0
14, 31584, Note_on_c, 9, 61, 65
14, 31588, Note_off_c, 9, 61, 0
14, 31632, Note_on_c, 9, 62, 80
14, 31636, Note_off_c, 9, 62, 0
14, 31680, Note_on_c, 9, 63, 78
14, 31684, Note_off_c, 9, 63, 0
14, 31776, Note_on_c, 9, 64, 89
14, 31780, Note_off_c, 9, 64, 0
14, 31872, Note_on_c, 9, 62, 80
14, 31876, Note_off_c, 9, 62, 0
14, 31920, Note_on_c, 9, 61, 65
14, 31924, Note_off_c, 9, 61, 0
14, 31968, Note_on_c, 9, 62, 80
14, 31972, Note_off_c, 9, 62, 0
14, 32016, Note_on_c, 9, 62, 80
14, 32020, Note_off_c, 9, 62, 0
14, 32064, Note_on_c, 9, 63, 78
14, 32068, Note_off_c, 9, 63, 0
14, 32160, Note_on_c, 9, 64, 89
14, 32164, Note_off_c, 9, 64, 0
14, 32208, Note_on_c, 9, 64, 89
14, 32212, Note_off_c, 9, 64, 0
14, 32256, Note_on_c, 9, 62, 80
14, 32260, Note_off_c, 9, 62, 0
14, 32304, Note_on_c, 9, 62, 80
14, 32308, Note_off_c, 9, 62, 0
14, 32352, Note_on_c, 9, 61, 65
14, 32356, Note_off_c, 9, 61, 0
14, 32400, Note_on_c, 9, 62, 80
14, 32404, Note_off_c, 9, 62, 0
14, 32448, Note_on_c, 9, 63, 78
14, 32452, Note_off_c, 9, 63, 0
14, 32544, Note_on_c, 9, 64, 89
14, 32548, Note_off_c, 9, 64, 0
14, 32640, Note_on_c, 9, 62, 80
14, 32644, Note_off_c, 9, 62, 0
14, 32688, Note_on_c, 9, 61, 65
14, 32692, Note_off_c, 9, 61, 0
14, 32736, Note_on_c, 9, 62, 80
14, 32740, Note_off_c, 9, 62, 0
14, 32784, Note_on_c, 9, 62, 80
14, 32788, Note_off_c, 9, 62, 0
14, 32832, Note_on_c, 9, 63, 78
14, 32836, Note_off_c, 9, 63, 0
14, 32928, Note_on_c, 9, 64, 89
14, 32932, Note_off_c, 9, 64, 0
14, 32976, Note_on_c, 9, 64, 89
14, 32980, Note_off_c, 9, 64, 0
14, 33024, Note_on_c, 9, 62, 80
14, 33028, Note_off_c, 9, 62, 0
14, 33072, Note_on_c, 9, 62, 80
14, 33076, Note_off_c, 9, 62, 0
14, 33120, Note_on_c, 9, 61, 65
14, 33124, Note_off_c, 9, 61, 0
14, 33168, Note_on_c, 9, 62, 80
14, 33172, Note_off_c, 9, 62, 0
14, 33216, Note_on_c, 9, 63, 78
14, 33220, Note_off_c, 9, 63, 0
14, 33312, Note_on_c, 9, 64, 89
14, 33316, Note_off_c, 9, 64, 0
14, 33408, Note_on_c, 9, 62, 80
14, 33412, Note_off_c, 9, 62, 0
14, 33456, Note_on_c, 9, 61, 65
14, 33460, Note_off_c, 9, 61, 0
14, 33504, Note_on_c, 9, 62, 80
14, 33508, Note_off_c, 9, 62, 0
14, 33552, Note_on_c, 9, 62, 80
14, 33556, Note_off_c, 9, 62, 0
14, 33600, Note_on_c, 9, 63, 78
14, 33604, Note_off_c, 9, 63, 0
14, 33696, Note_on_c, 9, 64, 89
14, 33700, Note_off_c, 9, 64, 0
14, 33744, Note_on_c, 9, 64, 89
14, 33748, Note_off_c, 9, 64, 0
14, 33792, Note_on_c, 9, 62, 80
14, 33796, Note_off_c, 9, 62, 0
14, 33840, Note_on_c, 9, 62, 80
14, 33844, Note_off_c, 9, 62, 0
14, 33888, Note_on_c, 9, 61, 65
14, 33892, Note_off_c, 9, 61, 0
14, 33936, Note_on_c, 9, 62, 80
14, 33940, Note_off_c, 9, 62, 0
14, 33984, Note_on_c, 9, 63, 78
14, 33988, Note_off_c, 9, 63, 0
14, 34080, Note_on_c, 9, 64, 89
14, 34084, Note_off_c, 9, 64, 0
14, 34176, Note_on_c, 9, 62, 80
14, 34180, Note_off_c, 9, 62, 0
14, 34224, Note_on_c, 9, 61, 65
14, 34228, Note_off_c, 9, 61, 0
14, 34272, Note_on_c, 9, 62, 80
14, 34276, Note_off_c, 9, 62, 0
14, 34320, Note_on_c, 9, 62, 80
14, 34324, Note_off_c, 9, 62, 0
14, 34560, Note_on_c, 9, 62, 80
14, 34564, Note_off_c, 9, 62, 0
14, 34608, Note_on_c, 9, 62, 80
14, 34612, Note_off_c, 9, 62, 0
14, 34656, Note_on_c, 9, 61, 65
14, 34660, Note_off_c, 9, 61, 0
14, 34704, Note_on_c, 9, 62, 80
14, 34708, Note_off_c, 9, 62, 0
14, 34752, Note_on_c, 9, 63, 78
14, 34756, Note_off_c, 9, 63, 0
14, 34848, Note_on_c, 9, 64, 89
14, 34852, Note_off_c, 9, 64, 0
14, 34944, Note_on_c, 9, 62, 80
14, 34948, Note_off_c, 9, 62, 0
14, 34992, Note_on_c, 9, 61, 65
14, 34996, Note_off_c, 9, 61, 0
14, 35040, Note_on_c, 9, 62, 80
14, 35044, Note_off_c, 9, 62, 0
14, 35088, Note_on_c, 9, 62, 80
14, 35092, Note_off_c, 9, 62, 0
14, 35136, Note_on_c, 9, 63, 78
14, 35140, Note_off_c, 9, 63, 0
14, 35232, Note_on_c, 9, 64, 89
14, 35236, Note_off_c, 9, 64, 0
14, 35280, Note_on_c, 9, 64, 89
14, 35284, Note_off_c, 9, 64, 0
14, 35328, Note_on_c, 9, 62, 80
14, 35332, Note_off_c, 9, 62, 0
14, 35376, Note_on_c, 9, 62, 80
14, 35380, Note_off_c, 9, 62, 0
14, 35424, Note_on_c, 9, 61, 65
14, 35428, Note_off_c, 9, 61, 0
14, 35472, Note_on_c, 9, 62, 80
14, 35476, Note_off_c, 9, 62, 0
14, 35520, Note_on_c, 9, 63, 78
14, 35524, Note_off_c, 9, 63, 0
14, 35616, Note_on_c, 9, 64, 89
14, 35620, Note_off_c, 9, 64, 0
14, 35712, Note_on_c, 9, 62, 80
14, 35716, Note_off_c, 9, 62, 0
14, 35760, Note_on_c, 9, 61, 65
14, 35764, Note_off_c, 9, 61, 0
14, 35808, Note_on_c, 9, 62, 80
14, 35812, Note_off_c, 9, 62, 0
14, 35856, Note_on_c, 9, 62, 80
14, 35860, Note_off_c, 9, 62, 0
14, 35904, Note_on_c, 9, 63, 78
14, 35908, Note_off_c, 9, 63, 0
14, 36000, Note_on_c, 9, 64, 89
14, 36004, Note_off_c, 9, 64, 0
14, 36048, Note_on_c, 9, 64, 89
14, 36052, Note_off_c, 9, 64, 0
14, 36096, Note_on_c, 9, 62, 80
14, 36100, Note_off_c, 9, 62, 0
14, 36144, Note_on_c, 9, 62, 80
14, 36148, Note_off_c, 9, 62, 0
14, 36192, Note_on_c, 9, 61, 65
14, 36196, Note_off_c, 9, 61, 0
14, 36240, Note_on_c, 9, 62, 80
14, 36244, Note_off_c, 9, 62, 0
14, 36288, Note_on_c, 9, 63, 78
14, 36292, Note_off_c, 9, 63, 0
14, 36384, Note_on_c, 9, 64, 89
14, 36388, Note_off_c, 9, 64, 0
14, 36480, Note_on_c, 9, 62, 80
14, 36484, Note_off_c, 9, 62, 0
14, 36528, Note_on_c, 9, 61, 65
14, 36532, Note_off_c, 9, 61, 0
14, 36576, Note_on_c, 9, 62, 80
14, 36580, Note_off_c, 9, 62, 0
14, 36624, Note_on_c, 9, 62, 80
14, 36628, Note_off_c, 9, 62, 0
14, 36672, Note_on_c, 9, 63, 78
14, 36676, Note_off_c, 9, 63, 0
14, 36768, Note_on_c, 9, 64, 89
14, 36772, Note_off_c, 9, 64, 0
14, 36816, Note_on_c, 9, 64, 89
14, 36820, Note_off_c, 9, 64, 0
14, 36864, Note_on_c, 9, 62, 80
14, 36868, Note_off_c, 9, 62, 0
14, 36912, Note_on_c, 9, 62, 80
14, 36916, Note_off_c, 9, 62, 0
14, 36960, Note_on_c, 9, 61, 65
14, 36964, Note_off_c, 9, 61, 0
14, 37008, Note_on_c, 9, 62, 80
14, 37012, Note_off_c, 9, 62, 0
14, 37056, Note_on_c, 9, 63, 78
14, 37060, Note_off_c, 9, 63, 0
14, 37152, Note_on_c, 9, 64, 89
14, 37156, Note_off_c, 9, 64, 0
14, 37248, Note_on_c, 9, 62, 80
14, 37252, Note_off_c, 9, 62, 0
14, 37296, Note_on_c, 9, 61, 65
14, 37300, Note_off_c, 9, 61, 0
14, 37344, Note_on_c, 9, 62, 80
14, 37348, Note_off_c, 9, 62, 0
14, 37392, Note_on_c, 9, 62, 80
14, 37396, Note_off_c, 9, 62, 0
14, 37440, Note_on_c, 9, 63, 78
14, 37444, Note_off_c, 9, 63, 0
14, 37536, Note_on_c, 9, 64, 89
14, 37540, Note_off_c, 9, 64, 0
14, 37584, Note_on_c, 9, 64, 89
14, 37588, Note_off_c, 9, 64, 0
14, 37632, Note_on_c, 9, 62, 80
14, 37636, Note_off_c, 9, 62, 0
14, 37680, Note_on_c, 9, 62, 80
14, 37684, Note_off_c, 9, 62, 0
14, 37728, Note_on_c, 9, 61, 65
14, 37732, Note_off_c, 9, 61, 0
14, 37776, Note_on_c, 9, 62, 80
14, 37780, Note_off_c, 9, 62, 0
14, 37824, Note_on_c, 9, 63, 78
14, 37828, Note_off_c, 9, 63, 0
14, 37920, Note_on_c, 9, 64, 89
14, 37924, Note_off_c, 9, 64, 0
14, 38016, Note_on_c, 9, 62, 80
14, 38020, Note_off_c, 9, 62, 0
14, 38064, Note_on_c, 9, 61, 65
14, 38068, Note_off_c, 9, 61, 0
14, 38112, Note_on_c, 9, 62, 80
14, 38116, Note_off_c, 9, 62, 0
14, 38160, Note_on_c, 9, 62, 80
14, 38164, Note_off_c, 9, 62, 0
14, 38208, Note_on_c, 9, 63, 78
14, 38212, Note_off_c, 9, 63, 0
14, 38304, Note_on_c, 9, 64, 89
14, 38308, Note_off_c, 9, 64, 0
14, 38352, Note_on_c, 9, 64, 89
14, 38356, Note_off_c, 9, 64, 0
14, 38400, Note_on_c, 9, 62, 80
14, 38404, Note_off_c, 9, 62, 0
14, 38448, Note_on_c, 9, 62, 80
14, 38452, Note_off_c, 9, 62, 0
14, 38496, Note_on_c, 9, 61, 65
14, 38500, Note_off_c, 9, 61, 0
14, 38544, Note_on_c, 9, 62, 80
14, 38548, Note_off_c, 9, 62, 0
14, 38592, Note_on_c, 9, 63, 78
14, 38596, Note_off_c, 9, 63, 0
14, 38688, Note_on_c, 9, 64, 89
14, 38692, Note_off_c, 9, 64, 0
14, 38784, Note_on_c, 9, 62, 80
14, 38788, Note_off_c, 9, 62, 0
14, 38832, Note_on_c, 9, 61, 65
14, 38836, Note_off_c, 9, 61, 0
14, 38880, Note_on_c, 9, 62, 80
14, 38884, Note_off_c, 9, 62, 0
14, 38928, Note_on_c, 9, 62, 80
14, 38932, Note_off_c, 9, 62, 0
14, 38976, Note_on_c, 9, 63, 78
14, 38980, Note_off_c, 9, 63, 0
14, 39072, Note_on_c, 9, 64, 89
14, 39076, Note_off_c, 9, 64, 0
14, 39120, Note_on_c, 9, 64, 89
14, 39124, Note_off_c, 9, 64, 0
14, 39168, Note_on_c, 9, 62, 80
14, 39172, Note_off_c, 9, 62, 0
14, 39216, Note_on_c, 9, 62, 80
14, 39220, Note_off_c, 9, 62, 0
14, 39264, Note_on_c, 9, 61, 65
14, 39268, Note_off_c, 9, 61, 0
14, 39312, Note_on_c, 9, 62, 80
14, 39316, Note_off_c, 9, 62, 0
14, 39360, Note_on_c, 9, 63, 78
14, 39364, Note_off_c, 9, 63, 0
14, 39456, Note_on_c, 9, 64, 89
14, 39460, Note_off_c, 9, 64, 0
14, 39552, Note_on_c, 9, 62, 80
14, 39556, Note_off_c, 9, 62, 0
14, 39600, Note_on_c, 9, 61, 65
14, 39604, Note_off_c, 9, 61, 0
14, 39648, Note_on_c, 9, 62, 80
14, 39652, Note_off_c, 9, 62, 0
14, 39696, Note_on_c, 9, 62, 80
14, 39700, Note_off_c, 9, 62, 0
14, 39744, Note_on_c, 9, 63, 78
14, 39748, Note_off_c, 9, 63, 0
14, 39840, Note_on_c, 9, 64, 89
14, 39844, Note_off_c, 9, 64, 0
14, 39888, Note_on_c, 9, 64, 89
14, 39892, Note_off_c, 9, 64, 0
14, 39936, Note_on_c, 9, 62, 80
14, 39940, Note_off_c, 9, 62, 0
14, 39984, Note_on_c, 9, 62, 80
14, 39988, Note_off_c, 9, 62, 0
14, 40032, Note_on_c, 9, 61, 65
14, 40036, Note_off_c, 9, 61, 0
14, 40080, Note_on_c, 9, 62, 80
14, 40084, Note_off_c, 9, 62, 0
14, 40128, Note_on_c, 9, 63, 78
14, 40132, Note_off_c, 9, 63, 0
14, 40224, Note_on_c, 9, 64, 89
14, 40228, Note_off_c, 9, 64, 0
14, 40320, Note_on_c, 9, 62, 80
14, 40324, Note_off_c, 9, 62, 0
14, 40368, Note_on_c, 9, 61, 65
14, 40372, Note_off_c, 9, 61, 0
14, 40416, Note_on_c, 9, 62, 80
14, 40420, Note_off_c, 9, 62, 0
14, 40464, Note_on_c, 9, 62, 80
14, 40468, Note_off_c, 9, 62, 0
14, 40512, Note_on_c, 9, 63, 78
14, 40516, Note_off_c, 9, 63, 0
14, 40608, Note_on_c, 9, 64, 89
14, 40612, Note_off_c, 9, 64, 0
14, 40656, Note_on_c, 9, 64, 89
14, 40660, Note_off_c, 9, 64, 0
14, 46848, Note_on_c, 9, 62, 80
14, 46852, Note_off_c, 9, 62, 0
14, 46896, Note_on_c, 9, 62, 80
14, 46900, Note_off_c, 9, 62, 0
14, 46944, Note_on_c, 9, 61, 65
14, 46948, Note_off_c, 9, 61, 0
14, 46992, Note_on_c, 9, 62, 80
14, 46996, Note_off_c, 9, 62, 0
14, 47040, Note_on_c, 9, 63, 78
14, 47044, Note_off_c, 9, 63, 0
14, 47136, Note_on_c, 9, 64, 89
14, 47140, Note_off_c, 9, 64, 0
14, 47232, Note_on_c, 9, 62, 80
14, 47236, Note_off_c, 9, 62, 0
14, 47280, Note_on_c, 9, 61, 65
14, 47284, Note_off_c, 9, 61, 0
14, 47328, Note_on_c, 9, 62, 80
14, 47332, Note_off_c, 9, 62, 0
14, 47376, Note_on_c, 9, 62, 80
14, 47380, Note_off_c, 9, 62, 0
14, 47424, Note_on_c, 9, 63, 78
14, 47428, Note_off_c, 9, 63, 0
14, 47520, Note_on_c, 9, 64, 89
14, 47524, Note_off_c, 9, 64, 0
14, 47568, Note_on_c, 9, 64, 89
14, 47572, Note_off_c, 9, 64, 0
14, 47616, Note_on_c, 9, 62, 80
14, 47620, Note_off_c, 9, 62, 0
14, 47664, Note_on_c, 9, 62, 80
14, 47668, Note_off_c, 9, 62, 0
14, 47712, Note_on_c, 9, 61, 65
14, 47716, Note_off_c, 9, 61, 0
14, 47760, Note_on_c, 9, 62, 80
14, 47764, Note_off_c, 9, 62, 0
14, 47808, Note_on_c, 9, 63, 78
14, 47812, Note_off_c, 9, 63, 0
14, 47904, Note_on_c, 9, 64, 89
14, 47908, Note_off_c, 9, 64, 0
14, 48000, Note_on_c, 9, 62, 80
14, 48004, Note_off_c, 9, 62, 0
14, 48048, Note_on_c, 9, 61, 65
14, 48052, Note_off_c, 9, 61, 0
14, 48096, Note_on_c, 9, 62, 80
14, 48100, Note_off_c, 9, 62, 0
14, 48144, Note_on_c, 9, 62, 80
14, 48148, Note_off_c, 9, 62, 0
14, 48192, Note_on_c, 9, 63, 78
14, 48196, Note_off_c, 9, 63, 0
14, 48288, Note_on_c, 9, 64, 89
14, 48292, Note_off_c, 9, 64, 0
14, 48336, Note_on_c, 9, 64, 89
14, 48340, Note_off_c, 9, 64, 0
14, 48384, Note_on_c, 9, 62, 80
14, 48388, Note_off_c, 9, 62, 0
14, 48432, Note_on_c, 9, 62, 80
14, 48436, Note_off_c, 9, 62, 0
14, 48480, Note_on_c, 9, 61, 65
14, 48484, Note_off_c, 9, 61, 0
14, 48528, Note_on_c, 9, 62, 80
14, 48532, Note_off_c, 9, 62, 0
14, 48576, Note_on_c, 9, 63, 78
14, 48580, Note_off_c, 9, 63, 0
14, 48672, Note_on_c, 9, 64, 89
14, 48676, Note_off_c, 9, 64, 0
14, 48768, Note_on_c, 9, 62, 80
14, 48772, Note_off_c, 9, 62, 0
14, 48816, Note_on_c, 9, 61, 65
14, 48820, Note_off_c, 9, 61, 0
14, 48864, Note_on_c, 9, 62, 80
14, 48868, Note_off_c, 9, 62, 0
14, 48912, Note_on_c, 9, 62, 80
14, 48916, Note_off_c, 9, 62, 0
14, 48960, Note_on_c, 9, 63, 78
14, 48964, Note_off_c, 9, 63, 0
14, 49056, Note_on_c, 9, 64, 89
14, 49060, Note_off_c, 9, 64, 0
14, 49104, Note_on_c, 9, 64, 89
14, 49108, Note_off_c, 9, 64, 0
14, 49152, Note_on_c, 9, 62, 80
14, 49156, Note_off_c, 9, 62, 0
14, 49200, Note_on_c, 9, 62, 80
14, 49204, Note_off_c, 9, 62, 0
14, 49248, Note_on_c, 9, 61, 65
14, 49252, Note_off_c, 9, 61, 0
14, 49296, Note_on_c, 9, 62, 80
14, 49300, Note_off_c, 9, 62, 0
14, 49344, Note_on_c, 9, 63, 78
14, 49348, Note_off_c, 9, 63, 0
14, 49440, Note_on_c, 9, 64, 89
14, 49444, Note_off_c, 9, 64, 0
14, 49536, Note_on_c, 9, 62, 80
14, 49540, Note_off_c, 9, 62, 0
14, 49584, Note_on_c, 9, 61, 65
14, 49588, Note_off_c, 9, 61, 0
14, 49632, Note_on_c, 9, 62, 80
14, 49636, Note_off_c, 9, 62, 0
14, 49680, Note_on_c, 9, 62, 80
14, 49684, Note_off_c, 9, 62, 0
14, 49728, Note_on_c, 9, 63, 78
14, 49732, Note_off_c, 9, 63, 0
14, 49824, Note_on_c, 9, 64, 89
14, 49828, Note_off_c, 9, 64, 0
14, 49872, Note_on_c, 9, 64, 89
14, 49876, Note_off_c, 9, 64, 0
14, 49920, Note_on_c, 9, 62, 80
14, 49924, Note_off_c, 9, 62, 0
14, 49968, Note_on_c, 9, 62, 80
14, 49972, Note_off_c, 9, 62, 0
14, 50016, Note_on_c, 9, 61, 65
14, 50020, Note_off_c, 9, 61, 0
14, 50064, Note_on_c, 9, 62, 80
14, 50068, Note_off_c, 9, 62, 0
14, 50112, Note_on_c, 9, 63, 78
14, 50116, Note_off_c, 9, 63, 0
14, 50208, Note_on_c, 9, 64, 89
14, 50212, Note_off_c, 9, 64, 0
14, 50304, Note_on_c, 9, 62, 80
14, 50308, Note_off_c, 9, 62, 0
14, 50352, Note_on_c, 9, 61, 65
14, 50356, Note_off_c, 9, 61, 0
14, 50400, Note_on_c, 9, 62, 80
14, 50404, Note_off_c, 9, 62, 0
14, 50448, Note_on_c, 9, 62, 80
14, 50452, Note_off_c, 9, 62, 0
14, 50496, Note_on_c, 9, 63, 78
14, 50500, Note_off_c, 9, 63, 0
14, 50592, Note_on_c, 9, 64, 89
14, 50596, Note_off_c, 9, 64, 0
14, 50640, Note_on_c, 9, 64, 89
14, 50644, Note_off_c, 9, 64, 0
14, 50688, Note_on_c, 9, 62, 80
14, 50692, Note_off_c, 9, 62, 0
14, 50736, Note_on_c, 9, 62, 80
14, 50740, Note_off_c, 9, 62, 0
14, 50784, Note_on_c, 9, 61, 65
14, 50788, Note_off_c, 9, 61, 0
14, 50832, Note_on_c, 9, 62, 80
14, 50836, Note_off_c, 9, 62, 0
14, 50880, Note_on_c, 9, 63, 78
14, 50884, Note_off_c, 9, 63, 0
14, 50976, Note_on_c, 9, 64, 89
14, 50980, Note_off_c, 9, 64, 0
14, 51072, Note_on_c, 9, 62, 80
14, 51076, Note_off_c, 9, 62, 0
14, 51120, Note_on_c, 9, 61, 65
14, 51124, Note_off_c, 9, 61, 0
14, 51168, Note_on_c, 9, 62, 80
14, 51172, Note_off_c, 9, 62, 0
14, 51216, Note_on_c, 9, 62, 80
14, 51220, Note_off_c, 9, 62, 0
14, 51264, Note_on_c, 9, 63, 78
14, 51268, Note_off_c, 9, 63, 0
14, 51360, Note_on_c, 9, 64, 89
14, 51364, Note_off_c, 9, 64, 0
14, 51408, Note_on_c, 9, 64, 89
14, 51412, Note_off_c, 9, 64, 0
14, 51456, Note_on_c, 9, 62, 80
14, 51460, Note_off_c, 9, 62, 0
14, 51504, Note_on_c, 9, 62, 80
14, 51508, Note_off_c, 9, 62, 0
14, 51552, Note_on_c, 9, 61, 65
14, 51556, Note_off_c, 9, 61, 0
14, 51600, Note_on_c, 9, 62, 80
14, 51604, Note_off_c, 9, 62, 0
14, 51648, Note_on_c, 9, 63, 78
14, 51652, Note_off_c, 9, 63, 0
14, 51744, Note_on_c, 9, 64, 89
14, 51748, Note_off_c, 9, 64, 0
14, 51840, Note_on_c, 9, 62, 80
14, 51844, Note_off_c, 9, 62, 0
14, 51888, Note_on_c, 9, 61, 65
14, 51892, Note_off_c, 9, 61, 0
14, 51936, Note_on_c, 9, 62, 80
14, 51940, Note_off_c, 9, 62, 0
14, 51984, Note_on_c, 9, 62, 80
14, 51988, Note_off_c, 9, 62, 0
14, 52032, Note_on_c, 9, 63, 78
14, 52036, Note_off_c, 9, 63, 0
14, 52128, Note_on_c, 9, 64, 89
14, 52132, Note_off_c, 9, 64, 0
14, 52176, Note_on_c, 9, 64, 89
14, 52180, Note_off_c, 9, 64, 0
14, 52224, Note_on_c, 9, 62, 80
14, 52228, Note_off_c, 9, 62, 0
14, 52272, Note_on_c, 9, 62, 80
14, 52276, Note_off_c, 9, 62, 0
14, 52320, Note_on_c, 9, 61, 65
14, 52324, Note_off_c, 9, 61, 0
14, 52368, Note_on_c, 9, 62, 80
14, 52372, Note_off_c, 9, 62, 0
14, 52416, Note_on_c, 9, 63, 78
14, 52420, Note_off_c, 9, 63, 0
14, 52512, Note_on_c, 9, 64, 89
14, 52516, Note_off_c, 9, 64, 0
14, 52608, Note_on_c, 9, 62, 80
14, 52612, Note_off_c, 9, 62, 0
14, 52656, Note_on_c, 9, 61, 65
14, 52660, Note_off_c, 9, 61, 0
14, 52704, Note_on_c, 9, 62, 80
14, 52708, Note_off_c, 9, 62, 0
14, 52752, Note_on_c, 9, 62, 80
14, 52756, Note_off_c, 9, 62, 0
14, 52800, Note_on_c, 9, 63, 78
14, 52804, Note_off_c, 9, 63, 0
14, 52896, Note_on_c, 9, 64, 89
14, 52900, Note_off_c, 9, 64, 0
14, 52944, Note_on_c, 9, 64, 89
14, 52948, Note_off_c, 9, 64, 0
14, 52992, Note_on_c, 9, 62, 75
14, 52996, Note_off_c, 9, 62, 0
14, 53040, Note_on_c, 9, 62, 90
14, 53044, Note_off_c, 9, 62, 0
14, 53136, Note_on_c, 9, 62, 75
14, 53140, Note_off_c, 9, 62, 0
14, 53184, Note_on_c, 9, 62, 90
14, 53188, Note_off_c, 9, 62, 0
14, 53280, Note_on_c, 9, 62, 70
14, 53284, Note_off_c, 9, 62, 0
14, 53328, Note_on_c, 9, 62, 70
14, 53332, Note_off_c, 9, 62, 0
14, 53376, Note_on_c, 9, 62, 75
14, 53380, Note_off_c, 9, 62, 0
14, 53424, Note_on_c, 9, 60, 85
14, 53428, Note_off_c, 9, 60, 0
14, 53472, Note_on_c, 9, 62, 65
14, 53476, Note_off_c, 9, 62, 0
14, 53520, Note_on_c, 9, 62, 70
14, 53524, Note_off_c, 9, 62, 0
14, 53568, Note_on_c, 9, 62, 80
14, 53572, Note_off_c, 9, 62, 0
14, 53664, Note_on_c, 9, 62, 75
14, 53668, Note_off_c, 9, 62, 0
14, 53760, Note_on_c, 9, 62, 75
14, 53764, Note_off_c, 9, 62, 0
14, 53808, Note_on_c, 9, 62, 90
14, 53812, Note_off_c, 9, 62, 0
14, 53904, Note_on_c, 9, 62, 75
14, 53908, Note_off_c, 9, 62, 0
14, 53952, Note_on_c, 9, 62, 90
14, 53956, Note_off_c, 9, 62, 0
14, 54048, Note_on_c, 9, 60, 85
14, 54052, Note_off_c, 9, 60, 0
14, 54144, Note_on_c, 9, 62, 75
14, 54148, Note_off_c, 9, 62, 0
14, 54192, Note_on_c, 9, 62, 90
14, 54196, Note_off_c, 9, 62, 0
14, 54288, Note_on_c, 9, 62, 75
14, 54292, Note_off_c, 9, 62, 0
14, 54336, Note_on_c, 9, 62, 90
14, 54340, Note_off_c, 9, 62, 0
14, 54432, Note_on_c, 9, 62, 75
14, 54436, Note_off_c, 9, 62, 0
14, 54480, Note_on_c, 9, 62, 75
14, 54484, Note_off_c, 9, 62, 0
14, 54528, Note_on_c, 9, 62, 75
14, 54532, Note_off_c, 9, 62, 0
14, 54576, Note_on_c, 9, 62, 90
14, 54580, Note_off_c, 9, 62, 0
14, 54672, Note_on_c, 9, 62, 75
14, 54676, Note_off_c, 9, 62, 0
14, 54720, Note_on_c, 9, 62, 90
14, 54724, Note_off_c, 9, 62, 0
14, 54816, Note_on_c, 9, 62, 70
14, 54820, Note_off_c, 9, 62, 0
14, 54864, Note_on_c, 9, 62, 70
14, 54868, Note_off_c, 9, 62, 0
14, 54912, Note_on_c, 9, 62, 75
14, 54916, Note_off_c, 9, 62, 0
14, 54960, Note_on_c, 9, 60, 85
14, 54964, Note_off_c, 9, 60, 0
14, 55008, Note_on_c, 9, 62, 65
14, 55012, Note_off_c, 9, 62, 0
14, 55056, Note_on_c, 9, 62, 70
14, 55060, Note_off_c, 9, 62, 0
14, 55104, Note_on_c, 9, 62, 80
14, 55108, Note_off_c, 9, 62, 0
14, 55200, Note_on_c, 9, 62, 75
14, 55204, Note_off_c, 9, 62, 0
14, 55296, Note_on_c, 9, 62, 75
14, 55300, Note_off_c, 9, 62, 0
14, 55344, Note_on_c, 9, 62, 90
14, 55348, Note_off_c, 9, 62, 0
14, 55440, Note_on_c, 9, 62, 75
14, 55444, Note_off_c, 9, 62, 0
14, 55488, Note_on_c, 9, 62, 90
14, 55492, Note_off_c, 9, 62, 0
14, 55584, Note_on_c, 9, 60, 85
14, 55588, Note_off_c, 9, 60, 0
14, 55680, Note_on_c, 9, 62, 75
14, 55684, Note_off_c, 9, 62, 0
14, 55728, Note_on_c, 9, 62, 90
14, 55732, Note_off_c, 9, 62, 0
14, 55824, Note_on_c, 9, 62, 75
14, 55828, Note_off_c, 9, 62, 0
14, 55872, Note_on_c, 9, 62, 90
14, 55876, Note_off_c, 9, 62, 0
14, 55968, Note_on_c, 9, 62, 75
14, 55972, Note_off_c, 9, 62, 0
14, 56016, Note_on_c, 9, 62, 75
14, 56020, Note_off_c, 9, 62, 0
14, 56064, Note_on_c, 9, 62, 75
14, 56068, Note_off_c, 9, 62, 0
14, 56112, Note_on_c, 9, 62, 90
14, 56116, Note_off_c, 9, 62, 0
14, 56208, Note_on_c, 9, 62, 75
14, 56212, Note_off_c, 9, 62, 0
14, 56256, Note_on_c, 9, 62, 90
14, 56260, Note_off_c, 9, 62, 0
14, 56352, Note_on_c, 9, 62, 70
14, 56356, Note_off_c, 9, 62, 0
14, 56400, Note_on_c, 9, 62, 70
14, 56404, Note_off_c, 9, 62, 0
14, 56448, Note_on_c, 9, 62, 75
14, 56452, Note_off_c, 9, 62, 0
14, 56496, Note_on_c, 9, 60, 85
14, 56500, Note_off_c, 9, 60, 0
14, 56544, Note_on_c, 9, 62, 65
14, 56548, Note_off_c, 9, 62, 0
14, 56592, Note_on_c, 9, 62, 70
14, 56596, Note_off_c, 9, 62, 0
14, 56640, Note_on_c, 9, 62, 80
14, 56644, Note_off_c, 9, 62, 0
14, 56736, Note_on_c, 9, 62, 75
14, 56740, Note_off_c, 9, 62, 0
14, 56832, Note_on_c, 9, 62, 75
14, 56836, Note_off_c, 9, 62, 0
14, 56880, Note_on_c, 9, 62, 90
14, 56884, Note_off_c, 9, 62, 0
14, 56976, Note_on_c, 9, 62, 75
14, 56980, Note_off_c, 9, 62, 0
14, 57024, Note_on_c, 9, 62, 90
14, 57028, Note_off_c, 9, 62, 0
14, 57120, Note_on_c, 9, 60, 85
14, 57124, Note_off_c, 9, 60, 0
14, 57216, Note_on_c, 9, 62, 75
14, 57220, Note_off_c, 9, 62, 0
14, 57264, Note_on_c, 9, 62, 90
14, 57268, Note_off_c, 9, 62, 0
14, 57360, Note_on_c, 9, 62, 75
14, 57364, Note_off_c, 9, 62, 0
14, 57408, Note_on_c, 9, 62, 90
14, 57412, Note_off_c, 9, 62, 0
14, 57504, Note_on_c, 9, 62, 75
14, 57508, Note_off_c, 9, 62, 0
14, 57552, Note_on_c, 9, 62, 75
14, 57556, Note_off_c, 9, 62, 0
14, 57600, Note_on_c, 9, 62, 75
14, 57604, Note_off_c, 9, 62, 0
14, 57648, Note_on_c, 9, 62, 90
14, 57652, Note_off_c, 9, 62, 0
14, 57744, Note_on_c, 9, 62, 75
14, 57748, Note_off_c, 9, 62, 0
14, 57792, Note_on_c, 9, 62, 90
14, 57796, Note_off_c, 9, 62, 0
14, 57888, Note_on_c, 9, 62, 70
14, 57892, Note_off_c, 9, 62, 0
14, 57936, Note_on_c, 9, 62, 70
14, 57940, Note_off_c, 9, 62, 0
14, 57984, Note_on_c, 9, 62, 75
14, 57988, Note_off_c, 9, 62, 0
14, 58032, Note_on_c, 9, 60, 85
14, 58036, Note_off_c, 9, 60, 0
14, 58080, Note_on_c, 9, 62, 65
14, 58084, Note_off_c, 9, 62, 0
14, 58128, Note_on_c, 9, 62, 70
14, 58132, Note_off_c, 9, 62, 0
14, 58176, Note_on_c, 9, 62, 80
14, 58180, Note_off_c, 9, 62, 0
14, 58272, Note_on_c, 9, 62, 75
14, 58276, Note_off_c, 9, 62, 0
14, 58368, Note_on_c, 9, 62, 75
14, 58372, Note_off_c, 9, 62, 0
14, 58416, Note_on_c, 9, 62, 90
14, 58420, Note_off_c, 9, 62, 0
14, 58512, Note_on_c, 9, 62, 75
14, 58516, Note_off_c, 9, 62, 0
14, 58560, Note_on_c, 9, 62, 90
14, 58564, Note_off_c, 9, 62, 0
14, 58656, Note_on_c, 9, 60, 85
14, 58660, Note_off_c, 9, 60, 0
14, 58752, Note_on_c, 9, 62, 75
14, 58756, Note_off_c, 9, 62, 0
14, 58800, Note_on_c, 9, 62, 90
14, 58804, Note_off_c, 9, 62, 0
14, 58896, Note_on_c, 9, 62, 75
14, 58900, Note_off_c, 9, 62, 0
14, 58944, Note_on_c, 9, 62, 90
14, 58948, Note_off_c, 9, 62, 0
14, 59040, Note_on_c, 9, 62, 75
14, 59044, Note_off_c, 9, 62, 0
14, 59088, Note_on_c, 9, 62, 75
14, 59092, Note_off_c, 9, 62, 0
14, 59136, Note_on_c, 9, 62, 75
14, 59140, Note_off_c, 9, 62, 0
14, 59184, Note_on_c, 9, 62, 90
14, 59188, Note_off_c, 9, 62, 0
14, 59280, Note_on_c, 9, 62, 75
14, 59284, Note_off_c, 9, 62, 0
14, 59328, Note_on_c, 9, 62, 90
14, 59332, Note_off_c, 9, 62, 0
14, 59424, Note_on_c, 9, 62, 70
14, 59428, Note_off_c, 9, 62, 0
14, 59472, Note_on_c, 9, 62, 70
14, 59476, Note_off_c, 9, 62, 0
14, 59520, Note_on_c, 9, 62, 75
14, 59524, Note_off_c, 9, 62, 0
14, 59568, Note_on_c, 9, 60, 85
14, 59572, Note_off_c, 9, 60, 0
14, 59616, Note_on_c, 9, 62, 65
14, 59620, Note_off_c, 9, 62, 0
14, 59664, Note_on_c, 9, 62, 70
14, 59668, Note_off_c, 9, 62, 0
14, 59712, Note_on_c, 9, 62, 80
14, 59716, Note_off_c, 9, 62, 0
14, 59808, Note_on_c, 9, 62, 75
14, 59812, Note_off_c, 9, 62, 0
14, 59904, Note_on_c, 9, 62, 75
14, 59908, Note_off_c, 9, 62, 0
14, 59952, Note_on_c, 9, 62, 90
14, 59956, Note_off_c, 9, 62, 0
14, 60048, Note_on_c, 9, 62, 75
14, 60052, Note_off_c, 9, 62, 0
14, 60096, Note_on_c, 9, 62, 90
14, 60100, Note_off_c, 9, 62, 0
14, 60192, Note_on_c, 9, 60, 85
14, 60196, Note_off_c, 9, 60, 0
14, 60288, Note_on_c, 9, 62, 75
14, 60292, Note_off_c, 9, 62, 0
14, 60336, Note_on_c, 9, 62, 90
14, 60340, Note_off_c, 9, 62, 0
14, 60432, Note_on_c, 9, 62, 75
14, 60436, Note_off_c, 9, 62, 0
14, 60480, Note_on_c, 9, 62, 90
14, 60484, Note_off_c, 9, 62, 0
14, 60576, Note_on_c, 9, 62, 75
14, 60580, Note_off_c, 9, 62, 0
14, 60624, Note_on_c, 9, 62, 75
14, 60628, Note_off_c, 9, 62, 0
14, 60672, Note_on_c, 9, 62, 75
14, 60676, Note_off_c, 9, 62, 0
14, 60720, Note_on_c, 9, 62, 90
14, 60724, Note_off_c, 9, 62, 0
14, 60816, Note_on_c, 9, 62, 75
14, 60820, Note_off_c, 9, 62, 0
14, 60864, Note_on_c, 9, 62, 90
14, 60868, Note_off_c, 9, 62, 0
14, 60960, Note_on_c, 9, 62, 70
14, 60964, Note_off_c, 9, 62, 0
14, 61008, Note_on_c, 9, 62, 70
14, 61012, Note_off_c, 9, 62, 0
14, 61056, Note_on_c, 9, 62, 75
14, 61060, Note_off_c, 9, 62, 0
14, 61104, Note_on_c, 9, 60, 85
14, 61108, Note_off_c, 9, 60, 0
14, 61152, Note_on_c, 9, 62, 65
14, 61156, Note_off_c, 9, 62, 0
14, 61200, Note_on_c, 9, 62, 70
14, 61204, Note_off_c, 9, 62, 0
14, 61248, Note_on_c, 9, 62, 80
14, 61252, Note_off_c, 9, 62, 0
14, 61344, Note_on_c, 9, 62, 75
14, 61348, Note_off_c, 9, 62, 0
14, 61440, Note_on_c, 9, 62, 75
14, 61444, Note_off_c, 9, 62, 0
14, 61488, Note_on_c, 9, 62, 90
14, 61492, Note_off_c, 9, 62, 0
14, 61584, Note_on_c, 9, 62, 75
14, 61588, Note_off_c, 9, 62, 0
14, 61632, Note_on_c, 9, 62, 90
14, 61636, Note_off_c, 9, 62, 0
14, 61728, Note_on_c, 9, 60, 85
14, 61732, Note_off_c, 9, 60, 0
14, 61824, Note_on_c, 9, 62, 75
14, 61828, Note_off_c, 9, 62, 0
14, 61872, Note_on_c, 9, 62, 90
14, 61876, Note_off_c, 9, 62, 0
14, 61968, Note_on_c, 9, 62, 75
14, 61972, Note_off_c, 9, 62, 0
14, 62016, Note_on_c, 9, 62, 90
14, 62020, Note_off_c, 9, 62, 0
14, 62112, Note_on_c, 9, 62, 75
14, 62116, Note_off_c, 9, 62, 0
14, 62160, Note_on_c, 9, 62, 75
14, 62164, Note_off_c, 9, 62, 0
14, 62208, Note_on_c, 9, 62, 75
14, 62212, Note_off_c, 9, 62, 0
14, 62256, Note_on_c, 9, 62, 90
14, 62260, Note_off_c, 9, 62, 0
14, 62352, Note_on_c, 9, 62, 75
14, 62356, Note_off_c, 9, 62, 0
14, 62400, Note_on_c, 9, 62, 90
14, 62404, Note_off_c, 9, 62, 0
14, 62496, Note_on_c, 9, 62, 70
14, 62500, Note_off_c, 9, 62, 0
14, 62544, Note_on_c, 9, 62, 70
14, 62548, Note_off_c, 9, 62, 0
14, 62592, Note_on_c, 9, 62, 75
14, 62596, Note_off_c, 9, 62, 0
14, 62640, Note_on_c, 9, 60, 85
14, 62644, Note_off_c, 9, 60, 0
14, 62688, Note_on_c, 9, 62, 65
14, 62692, Note_off_c, 9, 62, 0
14, 62736, Note_on_c, 9, 62, 70
14, 62740, Note_off_c, 9, 62, 0
14, 62784, Note_on_c, 9, 62, 80
14, 62788, Note_off_c, 9, 62, 0
14, 62880, Note_on_c, 9, 62, 75
14, 62884, Note_off_c, 9, 62, 0
14, 62976, Note_on_c, 9, 62, 75
14, 62980, Note_off_c, 9, 62, 0
14, 63024, Note_on_c, 9, 62, 90
14, 63028, Note_off_c, 9, 62, 0
14, 63120, Note_on_c, 9, 62, 75
14, 63124, Note_off_c, 9, 62, 0
14, 63168, Note_on_c, 9, 62, 90
14, 63172, Note_off_c, 9, 62, 0
14, 63264, Note_on_c, 9, 60, 85
14, 63268, Note_off_c, 9, 60, 0
14, 63360, Note_on_c, 9, 62, 75
14, 63364, Note_off_c, 9, 62, 0
14, 63408, Note_on_c, 9, 62, 90
14, 63412, Note_off_c, 9, 62, 0
14, 63504, Note_on_c, 9, 62, 75
14, 63508, Note_off_c, 9, 62, 0
14, 63552, Note_on_c, 9, 62, 90
14, 63556, Note_off_c, 9, 62, 0
14, 63648, Note_on_c, 9, 62, 75
14, 63652, Note_off_c, 9, 62, 0
14, 63696, Note_on_c, 9, 62, 75
14, 63700, Note_off_c, 9, 62, 0
14, 63744, Note_on_c, 9, 62, 75
14, 63748, Note_off_c, 9, 62, 0
14, 63792, Note_on_c, 9, 62, 90
14, 63796, Note_off_c, 9, 62, 0
14, 63888, Note_on_c, 9, 62, 75
14, 63892, Note_off_c, 9, 62, 0
14, 63936, Note_on_c, 9, 62, 90
14, 63940, Note_off_c, 9, 62, 0
14, 64032, Note_on_c, 9, 62, 70
14, 64036, Note_off_c, 9, 62, 0
14, 64080, Note_on_c, 9, 62, 70
14, 64084, Note_off_c, 9, 62, 0
14, 64128, Note_on_c, 9, 62, 75
14, 64132, Note_off_c, 9, 62, 0
14, 64176, Note_on_c, 9, 60, 85
14, 64180, Note_off_c, 9, 60, 0
14, 64224, Note_on_c, 9, 62, 65
14, 64228, Note_off_c, 9, 62, 0
14, 64272, Note_on_c, 9, 62, 70
14, 64276, Note_off_c, 9, 62, 0
14, 64320, Note_on_c, 9, 62, 80
14, 64324, Note_off_c, 9, 62, 0
14, 64416, Note_on_c, 9, 62, 75
14, 64420, Note_off_c, 9, 62, 0
14, 64512, Note_on_c, 9, 62, 75
14, 64516, Note_off_c, 9, 62, 0
14, 64560, Note_on_c, 9, 62, 90
14, 64564, Note_off_c, 9, 62, 0
14, 64656, Note_on_c, 9, 62, 75
14, 64660, Note_off_c, 9, 62, 0
14, 64704, Note_on_c, 9, 62, 90
14, 64708, Note_off_c, 9, 62, 0
14, 64800, Note_on_c, 9, 60, 85
14, 64804, Note_off_c, 9, 60, 0
14, 64896, Note_on_c, 9, 62, 75
14, 64900, Note_off_c, 9, 62, 0
14, 64944, Note_on_c, 9, 62, 90
14, 64948, Note_off_c, 9, 62, 0
14, 65040, Note_on_c, 9, 62, 75
14, 65044, Note_off_c, 9, 62, 0
14, 65088, Note_on_c, 9, 62, 90
14, 65092, Note_off_c, 9, 62, 0
14, 65184, Note_on_c, 9, 62, 75
14, 65188, Note_off_c, 9, 62, 0
14, 65232, Note_on_c, 9, 62, 75
14, 65236, Note_off_c, 9, 62, 0
14, 65280, Note_on_c, 9, 62, 75
14, 65284, Note_off_c, 9, 62, 0
14, 65328, Note_on_c, 9, 62, 90
14, 65332, Note_off_c, 9, 62, 0
14, 65424, Note_on_c, 9, 62, 75
14, 65428, Note_off_c, 9, 62, 0
14, 65472, Note_on_c, 9, 62, 90
14, 65476, Note_off_c, 9, 62, 0
14, 65568, Note_on_c, 9, 62, 70
14, 65572, Note_off_c, 9, 62, 0
14, 65616, Note_on_c, 9, 62, 70
14, 65620, Note_off_c, 9, 62, 0
14, 65664, Note_on_c, 9, 62, 75
14, 65668, Note_off_c, 9, 62, 0
14, 65712, Note_on_c, 9, 60, 85
14, 65716, Note_off_c, 9, 60, 0
14, 65760, Note_on_c, 9, 62, 65
14, 65764, Note_off_c, 9, 62, 0
14, 65808, Note_on_c, 9, 62, 70
14, 65812, Note_off_c, 9, 62, 0
14, 65856, Note_on_c, 9, 62, 80
14, 65860, Note_off_c, 9, 62, 0
14, 65952, Note_on_c, 9, 62, 75
14, 65956, Note_off_c, 9, 62, 0
14, 66048, Note_on_c, 9, 62, 75
14, 66052, Note_off_c, 9, 62, 0
14, 66096, Note_on_c, 9, 62, 90
14, 66100, Note_off_c, 9, 62, 0
14, 66192, Note_on_c, 9, 62, 75
14, 66196, Note_off_c, 9, 62, 0
14, 66240, Note_on_c, 9, 62, 90
14, 66244, Note_off_c, 9, 62, 0
14, 66336, Note_on_c, 9, 60, 85
14, 66340, Note_off_c, 9, 60, 0
14, 66432, Note_on_c, 9, 62, 75
14, 66436, Note_off_c, 9, 62, 0
14, 66480, Note_on_c, 9, 62, 90
14, 66484, Note_off_c, 9, 62, 0
14, 66576, Note_on_c, 9, 62, 75
14, 66580, Note_off_c, 9, 62, 0
14, 66624, Note_on_c, 9, 62, 90
14, 66628, Note_off_c, 9, 62, 0
14, 66720, Note_on_c, 9, 62, 75
14, 66724, Note_off_c, 9, 62, 0
14, 66768, Note_on_c, 9, 62, 75
14, 66772, Note_off_c, 9, 62, 0
14, 66816, Note_on_c, 9, 62, 75
14, 66820, Note_off_c, 9, 62, 0
14, 66864, Note_on_c, 9, 62, 90
14, 66868, Note_off_c, 9, 62, 0
14, 66960, Note_on_c, 9, 62, 75
14, 66964, Note_off_c, 9, 62, 0
14, 67008, Note_on_c, 9, 62, 90
14, 67012, Note_off_c, 9, 62, 0
14, 67104, Note_on_c, 9, 62, 70
14, 67108, Note_off_c, 9, 62, 0
14, 67152, Note_on_c, 9, 62, 70
14, 67156, Note_off_c, 9, 62, 0
14, 67200, Note_on_c, 9, 62, 75
14, 67204, Note_off_c, 9, 62, 0
14, 67248, Note_on_c, 9, 60, 85
14, 67252, Note_off_c, 9, 60, 0
14, 67296, Note_on_c, 9, 62, 65
14, 67300, Note_off_c, 9, 62, 0
14, 67344, Note_on_c, 9, 62, 70
14, 67348, Note_off_c, 9, 62, 0
14, 67392, Note_on_c, 9, 62, 80
14, 67396, Note_off_c, 9, 62, 0
14, 67488, Note_on_c, 9, 62, 75
14, 67492, Note_off_c, 9, 62, 0
14, 67584, Note_on_c, 9, 62, 75
14, 67588, Note_off_c, 9, 62, 0
14, 67632, Note_on_c, 9, 62, 90
14, 67636, Note_off_c, 9, 62, 0
14, 67728, Note_on_c, 9, 62, 75
14, 67732, Note_off_c, 9, 62, 0
14, 67776, Note_on_c, 9, 62, 90
14, 67780, Note_off_c, 9, 62, 0
14, 67872, Note_on_c, 9, 60, 85
14, 67876, Note_off_c, 9, 60, 0
14, 67968, Note_on_c, 9, 62, 75
14, 67972, Note_off_c, 9, 62, 0
14, 68016, Note_on_c, 9, 62, 90
14, 68020, Note_off_c, 9, 62, 0
14, 68112, Note_on_c, 9, 62, 75
14, 68116, Note_off_c, 9, 62, 0
14, 68160, Note_on_c, 9, 62, 90
14, 68164, Note_off_c, 9, 62, 0
14, 68256, Note_on_c, 9, 62, 75
14, 68260, Note_off_c, 9, 62, 0
14, 68304, Note_on_c, 9, 62, 75
14, 68308, Note_off_c, 9, 62, 0
14, 68352, Note_on_c, 9, 62, 75
14, 68356, Note_off_c, 9, 62, 0
14, 68400, Note_on_c, 9, 62, 90
14, 68404, Note_off_c, 9, 62, 0
14, 68496, Note_on_c, 9, 62, 75
14, 68500, Note_off_c, 9, 62, 0
14, 68544, Note_on_c, 9, 62, 90
14, 68548, Note_off_c, 9, 62, 0
14, 68640, Note_on_c, 9, 62, 70
14, 68644, Note_off_c, 9, 62, 0
14, 68688, Note_on_c, 9, 62, 70
14, 68692, Note_off_c, 9, 62, 0
14, 68736, Note_on_c, 9, 62, 75
14, 68740, Note_off_c, 9, 62, 0
14, 68784, Note_on_c, 9, 60, 85
14, 68788, Note_off_c, 9, 60, 0
14, 68832, Note_on_c, 9, 62, 65
14, 68836, Note_off_c, 9, 62, 0
14, 68880, Note_on_c, 9, 62, 70
14, 68884, Note_off_c, 9, 62, 0
14, 68928, Note_on_c, 9, 62, 80
14, 68932, Note_off_c, 9, 62, 0
14, 69024, Note_on_c, 9, 62, 75
14, 69028, Note_off_c, 9, 62, 0
14, 69120, Note_on_c, 9, 62, 75
14, 69124, Note_off_c, 9, 62, 0
14, 69168, Note_on_c, 9, 62, 90
14, 69172, Note_off_c, 9, 62, 0
14, 69264, Note_on_c, 9, 62, 75
14, 69268, Note_off_c, 9, 62, 0
14, 69312, Note_on_c, 9, 62, 90
14, 69316, Note_off_c, 9, 62, 0
14, 69408, Note_on_c, 9, 60, 85
14, 69412, Note_off_c, 9, 60, 0
14, 69504, Note_on_c, 9, 62, 75
14, 69508, Note_off_c, 9, 62, 0
14, 69552, Note_on_c, 9, 62, 90
14, 69556, Note_off_c, 9, 62, 0
14, 69648, Note_on_c, 9, 62, 75
14, 69652, Note_off_c, 9, 62, 0
14, 69696, Note_on_c, 9, 62, 90
14, 69700, Note_off_c, 9, 62, 0
14, 69792, Note_on_c, 9, 62, 75
14, 69796, Note_off_c, 9, 62, 0
14, 69840, Note_on_c, 9, 62, 75
14, 69844, Note_off_c, 9, 62, 0
14, 69888, Note_on_c, 9, 62, 75
14, 69892, Note_off_c, 9, 62, 0
14, 69936, Note_on_c, 9, 62, 90
14, 69940, Note_off_c, 9, 62, 0
14, 70032, Note_on_c, 9, 62, 75
14, 70036, Note_off_c, 9, 62, 0
14, 70080, Note_on_c, 9, 62, 90
14, 70084, Note_off_c, 9, 62, 0
14, 70176, Note_on_c, 9, 62, 70
14, 70180, Note_off_c, 9, 62, 0
14, 70224, Note_on_c, 9, 62, 70
14, 70228, Note_off_c, 9, 62, 0
14, 70272, Note_on_c, 9, 62, 75
14, 70276, Note_off_c, 9, 62, 0
14, 70320, Note_on_c, 9, 60, 85
14, 70324, Note_off_c, 9, 60, 0
14, 70368, Note_on_c, 9, 62, 65
14, 70372, Note_off_c, 9, 62, 0
14, 70416, Note_on_c, 9, 62, 70
14, 70420, Note_off_c, 9, 62, 0
14, 70464, Note_on_c, 9, 62, 80
14, 70468, Note_off_c, 9, 62, 0
14, 70560, Note_on_c, 9, 62, 75
14, 70564, Note_off_c, 9, 62, 0
14, 70656, Note_on_c, 9, 62, 75
14, 70660, Note_off_c, 9, 62, 0
14, 70704, Note_on_c, 9, 62, 90
14, 70708, Note_off_c, 9, 62, 0
14, 70800, Note_on_c, 9, 62, 75
14, 70804, Note_off_c, 9, 62, 0
14, 70848, Note_on_c, 9, 62, 90
14, 70852, Note_off_c, 9, 62, 0
14, 70944, Note_on_c, 9, 60, 85
14, 70948, Note_off_c, 9, 60, 0
14, 71040, Note_on_c, 9, 62, 75
14, 71044, Note_off_c, 9, 62, 0
14, 71088, Note_on_c, 9, 62, 90
14, 71092, Note_off_c, 9, 62, 0
14, 71184, Note_on_c, 9, 62, 75
14, 71188, Note_off_c, 9, 62, 0
14, 71232, Note_on_c, 9, 62, 90
14, 71236, Note_off_c, 9, 62, 0
14, 71328, Note_on_c, 9, 62, 75
14, 71332, Note_off_c, 9, 62, 0
14, 71376, Note_on_c, 9, 62, 75
14, 71380, Note_off_c, 9, 62, 0
14, 71424, Note_on_c, 9, 62, 80
14, 71428, Note_off_c, 9, 62, 0
14, 71472, Note_on_c, 9, 62, 80
14, 71476, Note_off_c, 9, 62, 0
14, 71520, Note_on_c, 9, 61, 65
14, 71524, Note_off_c, 9, 61, 0
14, 71568, Note_on_c, 9, 62, 80
14, 71572, Note_off_c, 9, 62, 0
14, 71616, Note_on_c, 9, 63, 78
14, 71620, Note_off_c, 9, 63, 0
14, 71712, Note_on_c, 9, 64, 89
14, 71716, Note_off_c, 9, 64, 0
14, 71808, Note_on_c, 9, 62, 80
14, 71812, Note_off_c, 9, 62, 0
14, 71856, Note_on_c, 9, 61, 65
14, 71860, Note_off_c, 9, 61, 0
14, 71904, Note_on_c, 9, 62, 80
14, 71908, Note_off_c, 9, 62, 0
14, 71952, Note_on_c, 9, 62, 80
14, 71956, Note_off_c, 9, 62, 0
14, 72000, Note_on_c, 9, 63, 78
14, 72004, Note_off_c, 9, 63, 0
14, 72096, Note_on_c, 9, 64, 89
14, 72100, Note_off_c, 9, 64, 0
14, 72144, Note_on_c, 9, 64, 89
14, 72148, Note_off_c, 9, 64, 0
14, 72192, Note_on_c, 9, 62, 80
14, 72196, Note_off_c, 9, 62, 0
14, 72240, Note_on_c, 9, 62, 80
14, 72244, Note_off_c, 9, 62, 0
14, 72288, Note_on_c, 9, 61, 65
14, 72292, Note_off_c, 9, 61, 0
14, 72336, Note_on_c, 9, 62, 80
14, 72340, Note_off_c, 9, 62, 0
14, 72384, Note_on_c, 9, 63, 78
14, 72388, Note_off_c, 9, 63, 0
14, 72480, Note_on_c, 9, 64, 89
14, 72484, Note_off_c, 9, 64, 0
14, 72576, Note_on_c, 9, 62, 80
14, 72580, Note_off_c, 9, 62, 0
14, 72624, Note_on_c, 9, 61, 65
14, 72628, Note_off_c, 9, 61, 0
14, 72672, Note_on_c, 9, 62, 80
14, 72676, Note_off_c, 9, 62, 0
14, 72720, Note_on_c, 9, 62, 80
14, 72724, Note_off_c, 9, 62, 0
14, 72768, Note_on_c, 9, 63, 78
14, 72772, Note_off_c, 9, 63, 0
14, 72864, Note_on_c, 9, 64, 89
14, 72868, Note_off_c, 9, 64, 0
14, 72912, Note_on_c, 9, 64, 89
14, 72916, Note_off_c, 9, 64, 0
14, 72960, Note_on_c, 9, 62, 80
14, 72964, Note_off_c, 9, 62, 0
14, 73008, Note_on_c, 9, 62, 80
14, 73012, Note_off_c, 9, 62, 0
14, 73056, Note_on_c, 9, 61, 65
14, 73060, Note_off_c, 9, 61, 0
14, 73104, Note_on_c, 9, 62, 80
14, 73108, Note_off_c, 9, 62, 0
14, 73152, Note_on_c, 9, 63, 78
14, 73156, Note_off_c, 9, 63, 0
14, 73248, Note_on_c, 9, 64, 89
14, 73252, Note_off_c, 9, 64, 0
14, 73344, Note_on_c, 9, 62, 80
14, 73348, Note_off_c, 9, 62, 0
14, 73392, Note_on_c, 9, 61, 65
14, 73396, Note_off_c, 9, 61, 0
14, 73440, Note_on_c, 9, 62, 80
14, 73444, Note_off_c, 9, 62, 0
14, 73488, Note_on_c, 9, 62, 80
14, 73492, Note_off_c, 9, 62, 0
14, 73536, Note_on_c, 9, 63, 78
14, 73540, Note_off_c, 9, 63, 0
14, 73632, Note_on_c, 9, 64, 89
14, 73636, Note_off_c, 9, 64, 0
14, 73680, Note_on_c, 9, 64, 89
14, 73684, Note_off_c, 9, 64, 0
14, 73728, Note_on_c, 9, 62, 80
14, 73732, Note_off_c, 9, 62, 0
14, 73776, Note_on_c, 9, 62, 80
14, 73780, Note_off_c, 9, 62, 0
14, 73824, Note_on_c, 9, 61, 65
14, 73828, Note_off_c, 9, 61, 0
14, 73872, Note_on_c, 9, 62, 80
14, 73876, Note_off_c, 9, 62, 0
14, 73920, Note_on_c, 9, 63, 78
14, 73924, Note_off_c, 9, 63, 0
14, 74016, Note_on_c, 9, 64, 89
14, 74020, Note_off_c, 9, 64, 0
14, 74112, Note_on_c, 9, 62, 80
14, 74116, Note_off_c, 9, 62, 0
14, 74160, Note_on_c, 9, 61, 65
14, 74164, Note_off_c, 9, 61, 0
14, 74208, Note_on_c, 9, 62, 80
14, 74212, Note_off_c, 9, 62, 0
14, 74256, Note_on_c, 9, 62, 80
14, 74260, Note_off_c, 9, 62, 0
14, 74304, Note_on_c, 9, 63, 78
14, 74308, Note_off_c, 9, 63, 0
14, 74400, Note_on_c, 9, 64, 89
14, 74404, Note_off_c, 9, 64, 0
14, 74448, Note_on_c, 9, 64, 89
14, 74452, Note_off_c, 9, 64, 0
14, 74496, Note_on_c, 9, 62, 80
14, 74500, Note_off_c, 9, 62, 0
14, 74544, Note_on_c, 9, 62, 80
14, 74548, Note_off_c, 9, 62, 0
14, 74592, Note_on_c, 9, 61, 65
14, 74596, Note_off_c, 9, 61, 0
14, 74640, Note_on_c, 9, 62, 80
14, 74644, Note_off_c, 9, 62, 0
14, 74688, Note_on_c, 9, 63, 78
14, 74692, Note_off_c, 9, 63, 0
14, 74784, Note_on_c, 9, 64, 89
14, 74788, Note_off_c, 9, 64, 0
14, 74880, Note_on_c, 9, 62, 80
14, 74884, Note_off_c, 9, 62, 0
14, 74928, Note_on_c, 9, 61, 65
14, 74932, Note_off_c, 9, 61, 0
14, 74976, Note_on_c, 9, 62, 80
14, 74980, Note_off_c, 9, 62, 0
14, 75024, Note_on_c, 9, 62, 80
14, 75028, Note_off_c, 9, 62, 0
14, 75072, Note_on_c, 9, 63, 78
14, 75076, Note_off_c, 9, 63, 0
14, 75168, Note_on_c, 9, 64, 89
14, 75172, Note_off_c, 9, 64, 0
14, 75216, Note_on_c, 9, 64, 89
14, 75220, Note_off_c, 9, 64, 0
14, 75264, Note_on_c, 9, 62, 80
14, 75268, Note_off_c, 9, 62, 0
14, 75312, Note_on_c, 9, 62, 80
14, 75316, Note_off_c, 9, 62, 0
14, 75360, Note_on_c, 9, 61, 65
14, 75364, Note_off_c, 9, 61, 0
14, 75408, Note_on_c, 9, 62, 80
14, 75412, Note_off_c, 9, 62, 0
14, 75456, Note_on_c, 9, 63, 78
14, 75460, Note_off_c, 9, 63, 0
14, 75552, Note_on_c, 9, 64, 89
14, 75556, Note_off_c, 9, 64, 0
14, 75648, Note_on_c, 9, 62, 80
14, 75652, Note_off_c, 9, 62, 0
14, 75696, Note_on_c, 9, 61, 65
14, 75700, Note_off_c, 9, 61, 0
14, 75744, Note_on_c, 9, 62, 80
14, 75748, Note_off_c, 9, 62, 0
14, 75792, Note_on_c, 9, 62, 80
14, 75796, Note_off_c, 9, 62, 0
14, 75840, Note_on_c, 9, 63, 78
14, 75844, Note_off_c, 9, 63, 0
14, 75936, Note_on_c, 9, 64, 89
14, 75940, Note_off_c, 9, 64, 0
14, 75984, Note_on_c, 9, 64, 89
14, 75988, Note_off_c, 9, 64, 0
14, 76032, Note_on_c, 9, 62, 80
14, 76036, Note_off_c, 9, 62, 0
14, 76080, Note_on_c, 9, 62, 80
14, 76084, Note_off_c, 9, 62, 0
14, 76128, Note_on_c, 9, 61, 65
14, 76132, Note_off_c, 9, 61, 0
14, 76176, Note_on_c, 9, 62, 80
14, 76180, Note_off_c, 9, 62, 0
14, 76224, Note_on_c, 9, 63, 78
14, 76228, Note_off_c, 9, 63, 0
14, 76320, Note_on_c, 9, 64, 89
14, 76324, Note_off_c, 9, 64, 0
14, 76416, Note_on_c, 9, 62, 80
14, 76420, Note_off_c, 9, 62, 0
14, 76464, Note_on_c, 9, 61, 65
14, 76468, Note_off_c, 9, 61, 0
14, 76512, Note_on_c, 9, 62, 80
14, 76516, Note_off_c, 9, 62, 0
14, 76560, Note_on_c, 9, 62, 80
14, 76564, Note_off_c, 9, 62, 0
14, 76608, Note_on_c, 9, 63, 78
14, 76612, Note_off_c, 9, 63, 0
14, 76704, Note_on_c, 9, 64, 89
14, 76708, Note_off_c, 9, 64, 0
14, 76752, Note_on_c, 9, 64, 89
14, 76756, Note_off_c, 9, 64, 0
14, 76800, Note_on_c, 9, 62, 80
14, 76804, Note_off_c, 9, 62, 0
14, 76848, Note_on_c, 9, 62, 80
14, 76852, Note_off_c, 9, 62, 0
14, 76896, Note_on_c, 9, 61, 65
14, 76900, Note_off_c, 9, 61, 0
14, 76944, Note_on_c, 9, 62, 80
14, 76948, Note_off_c, 9, 62, 0
14, 76992, Note_on_c, 9, 63, 78
14, 76996, Note_off_c, 9, 63, 0
14, 77088, Note_on_c, 9, 64, 89
14, 77092, Note_off_c, 9, 64, 0
14, 77184, Note_on_c, 9, 62, 80
14, 77188, Note_off_c, 9, 62, 0
14, 77232, Note_on_c, 9, 61, 65
14, 77236, Note_off_c, 9, 61, 0
14, 77280, Note_on_c, 9, 62, 80
14, 77284, Note_off_c, 9, 62, 0
14, 77328, Note_on_c, 9, 62, 80
14, 77332, Note_off_c, 9, 62, 0
14, 77376, Note_on_c, 9, 63, 78
14, 77380, Note_off_c, 9, 63, 0
14, 77472, Note_on_c, 9, 64, 89
14, 77476, Note_off_c, 9, 64, 0
14, 77520, Note_on_c, 9, 64, 89
14, 77524, Note_off_c, 9, 64, 0
14, 77568, Note_on_c, 9, 62, 80
14, 77572, Note_off_c, 9, 62, 0
14, 77616, Note_on_c, 9, 62, 80
14, 77620, Note_off_c, 9, 62, 0
14, 77664, Note_on_c, 9, 61, 65
14, 77668, Note_off_c, 9, 61, 0
14, 77712, Note_on_c, 9, 62, 80
14, 77716, Note_off_c, 9, 62, 0
14, 77760, Note_on_c, 9, 63, 78
14, 77764, Note_off_c, 9, 63, 0
14, 77856, Note_on_c, 9, 64, 89
14, 77860, Note_off_c, 9, 64, 0
14, 77952, Note_on_c, 9, 62, 80
14, 77956, Note_off_c, 9, 62, 0
14, 78000, Note_on_c, 9, 61, 65
14, 78004, Note_off_c, 9, 61, 0
14, 78048, Note_on_c, 9, 62, 80
14, 78052, Note_off_c, 9, 62, 0
14, 78096, Note_on_c, 9, 62, 80
14, 78100, Note_off_c, 9, 62, 0
14, 78144, Note_on_c, 9, 63, 78
14, 78148, Note_off_c, 9, 63, 0
14, 78240, Note_on_c, 9, 64, 89
14, 78244, Note_off_c, 9, 64, 0
14, 78288, Note_on_c, 9, 64, 89
14, 78292, Note_off_c, 9, 64, 0
14, 78336, Note_on_c, 9, 62, 80
14, 78340, Note_off_c, 9, 62, 0
14, 78384, Note_on_c, 9, 62, 80
14, 78388, Note_off_c, 9, 62, 0
14, 78432, Note_on_c, 9, 61, 65
14, 78436, Note_off_c, 9, 61, 0
14, 78480, Note_on_c, 9, 62, 80
14, 78484, Note_off_c, 9, 62, 0
14, 78528, Note_on_c, 9, 63, 78
14, 78532, Note_off_c, 9, 63, 0
14, 78624, Note_on_c, 9, 64, 89
14, 78628, Note_off_c, 9, 64, 0
14, 78720, Note_on_c, 9, 62, 80
14, 78724, Note_off_c, 9, 62, 0
14, 78768, Note_on_c, 9, 61, 65
14, 78772, Note_off_c, 9, 61, 0
14, 78816, Note_on_c, 9, 62, 80
14, 78820, Note_off_c, 9, 62, 0
14, 78864, Note_on_c, 9, 62, 80
14, 78868, Note_off_c, 9, 62, 0
14, 78912, Note_on_c, 9, 63, 78
14, 78916, Note_off_c, 9, 63, 0
14, 79008, Note_on_c, 9, 64, 89
14, 79012, Note_off_c, 9, 64, 0
14, 79056, Note_on_c, 9, 64, 89
14, 79060, Note_off_c, 9, 64, 0
14, 79104, Note_on_c, 9, 62, 80
14, 79108, Note_off_c, 9, 62, 0
14, 79152, Note_on_c, 9, 62, 80
14, 79156, Note_off_c, 9, 62, 0
14, 79200, Note_on_c, 9, 61, 65
14, 79204, Note_off_c, 9, 61, 0
14, 79248, Note_on_c, 9, 62, 80
14, 79252, Note_off_c, 9, 62, 0
14, 79296, Note_on_c, 9, 63, 78
14, 79300, Note_off_c, 9, 63, 0
14, 79392, Note_on_c, 9, 64, 89
14, 79396, Note_off_c, 9, 64, 0
14, 79488, Note_on_c, 9, 62, 80
14, 79492, Note_off_c, 9, 62, 0
14, 79536, Note_on_c, 9, 61, 65
14, 79540, Note_off_c, 9, 61, 0
14, 79584, Note_on_c, 9, 62, 80
14, 79588, Note_off_c, 9, 62, 0
14, 79632, Note_on_c, 9, 62, 80
14, 79636, Note_off_c, 9, 62, 0
14, 79680, Note_on_c, 9, 63, 78
14, 79684, Note_off_c, 9, 63, 0
14, 79776, Note_on_c, 9, 64, 89
14, 79780, Note_off_c, 9, 64, 0
14, 79824, Note_on_c, 9, 64, 89
14, 79828, Note_off_c, 9, 64, 0
14, 79872, Note_on_c, 9, 62, 80
14, 79876, Note_off_c, 9, 62, 0
14, 79920, Note_on_c, 9, 62, 80
14, 79924, Note_off_c, 9, 62, 0
14, 79968, Note_on_c, 9, 61, 65
14, 79972, Note_off_c, 9, 61, 0
14, 80016, Note_on_c, 9, 62, 80
14, 80020, Note_off_c, 9, 62, 0
14, 80064, Note_on_c, 9, 63, 78
14, 80068, Note_off_c, 9, 63, 0
14, 80160, Note_on_c, 9, 64, 89
14, 80164, Note_off_c, 9, 64, 0
14, 80256, Note_on_c, 9, 62, 80
14, 80260, Note_off_c, 9, 62, 0
14, 80304, Note_on_c, 9, 61, 65
14, 80308, Note_off_c, 9, 61, 0
14, 80352, Note_on_c, 9, 62, 80
14, 80356, Note_off_c, 9, 62, 0
14, 80400, Note_on_c, 9, 62, 80
14, 80404, Note_off_c, 9, 62, 0
14, 80448, Note_on_c, 9, 63, 78
14, 80452, Note_off_c, 9, 63, 0
14, 80544, Note_on_c, 9, 64, 89
14, 80548, Note_off_c, 9, 64, 0
14, 80592, Note_on_c, 9, 64, 89
14, 80596, Note_off_c, 9, 64, 0
14, 80640, Note_on_c, 9, 62, 75
14, 80644, Note_off_c, 9, 62, 0
14, 80688, Note_on_c, 9, 62, 90
14, 80692, Note_off_c, 9, 62, 0
14, 80784, Note_on_c, 9, 62, 75
14, 80788, Note_off_c, 9, 62, 0
14, 80832, Note_on_c, 9, 62, 90
14, 80836, Note_off_c, 9, 62, 0
14, 80928, Note_on_c, 9, 62, 70
14, 80932, Note_off_c, 9, 62, 0
14, 80976, Note_on_c, 9, 62, 70
14, 80980, Note_off_c, 9, 62, 0
14, 81024, Note_on_c, 9, 62, 75
14, 81028, Note_off_c, 9, 62, 0
14, 81072, Note_on_c, 9, 60, 85
14, 81076, Note_off_c, 9, 60, 0
14, 81120, Note_on_c, 9, 62, 65
14, 81124, Note_off_c, 9, 62, 0
14, 81168, Note_on_c, 9, 62, 70
14, 81172, Note_off_c, 9, 62, 0
14, 81216, Note_on_c, 9, 62, 80
14, 81220, Note_off_c, 9, 62, 0
14, 81312, Note_on_c, 9, 62, 75
14, 81316, Note_off_c, 9, 62, 0
14, 81408, Note_on_c, 9, 62, 75
14, 81412, Note_off_c, 9, 62, 0
14, 81456, Note_on_c, 9, 62, 90
14, 81460, Note_off_c, 9, 62, 0
14, 81552, Note_on_c, 9, 62, 75
14, 81556, Note_off_c, 9, 62, 0
14, 81600, Note_on_c, 9, 62, 90
14, 81604, Note_off_c, 9, 62, 0
14, 81696, Note_on_c, 9, 60, 85
14, 81700, Note_off_c, 9, 60, 0
14, 81792, Note_on_c, 9, 62, 75
14, 81796, Note_off_c, 9, 62, 0
14, 81840, Note_on_c, 9, 62, 90
14, 81844, Note_off_c, 9, 62, 0
14, 81936, Note_on_c, 9, 62, 75
14, 81940, Note_off_c, 9, 62, 0
14, 81984, Note_on_c, 9, 62, 90
14, 81988, Note_off_c, 9, 62, 0
14, 82080, Note_on_c, 9, 62, 75
14, 82084, Note_off_c, 9, 62, 0
14, 82128, Note_on_c, 9, 62, 75
14, 82132, Note_off_c, 9, 62, 0
14, 82176, Note_on_c, 9, 62, 75
14, 82180, Note_off_c, 9, 62, 0
14, 82224, Note_on_c, 9, 62, 90
14, 82228, Note_off_c, 9, 62, 0
14, 82320, Note_on_c, 9, 62, 75
14, 82324, Note_off_c, 9, 62, 0
14, 82368, Note_on_c, 9, 62, 90
14, 82372, Note_off_c, 9, 62, 0
14, 82464, Note_on_c, 9, 62, 70
14, 82468, Note_off_c, 9, 62, 0
14, 82512, Note_on_c, 9, 62, 70
14, 82516, Note_off_c, 9, 62, 0
14, 82560, Note_on_c, 9, 62, 75
14, 82564, Note_off_c, 9, 62, 0
14, 82608, Note_on_c, 9, 60, 85
14, 82612, Note_off_c, 9, 60, 0
14, 82656, Note_on_c, 9, 62, 65
14, 82660, Note_off_c, 9, 62, 0
14, 82704, Note_on_c, 9, 62, 70
14, 82708, Note_off_c, 9, 62, 0
14, 82752, Note_on_c, 9, 62, 80
14, 82756, Note_off_c, 9, 62, 0
14, 82848, Note_on_c, 9, 62, 75
14, 82852, Note_off_c, 9, 62, 0
14, 82944, Note_on_c, 9, 62, 75
14, 82948, Note_off_c, 9, 62, 0
14, 82992, Note_on_c, 9, 62, 90
14, 82996, Note_off_c, 9, 62, 0
14, 83088, Note_on_c, 9, 62, 75
14, 83092, Note_off_c, 9, 62, 0
14, 83136, Note_on_c, 9, 62, 90
14, 83140, Note_off_c, 9, 62, 0
14, 83232, Note_on_c, 9, 60, 85
14, 83236, Note_off_c, 9, 60, 0
14, 83328, Note_on_c, 9, 62, 75
14, 83332, Note_off_c, 9, 62, 0
14, 83376, Note_on_c, 9, 62, 90
14, 83380, Note_off_c, 9, 62, 0
14, 83472, Note_on_c, 9, 62, 75
14, 83476, Note_off_c, 9, 62, 0
14, 83520, Note_on_c, 9, 62, 90
14, 83524, Note_off_c, 9, 62, 0
14, 83616, Note_on_c, 9, 62, 75
14, 83620, Note_off_c, 9, 62, 0
14, 83664, Note_on_c, 9, 62, 75
14, 83668, Note_off_c, 9, 62, 0
14, 83712, Note_on_c, 9, 62, 75
14, 83716, Note_off_c, 9, 62, 0
14, 83760, Note_on_c, 9, 62, 90
14, 83764, Note_off_c, 9, 62, 0
14, 83856, Note_on_c, 9, 62, 75
14, 83860, Note_off_c, 9, 62, 0
14, 83904, Note_on_c, 9, 62, 90
14, 83908, Note_off_c, 9, 62, 0
14, 84000, Note_on_c, 9, 62, 70
14, 84004, Note_off_c, 9, 62, 0
14, 84048, Note_on_c, 9, 62, 70
14, 84052, Note_off_c, 9, 62, 0
14, 84096, Note_on_c, 9, 62, 75
14, 84100, Note_off_c, 9, 62, 0
14, 84144, Note_on_c, 9, 60, 85
14, 84148, Note_off_c, 9, 60, 0
14, 84192, Note_on_c, 9, 62, 65
14, 84196, Note_off_c, 9, 62, 0
14, 84240, Note_on_c, 9, 62, 70
14, 84244, Note_off_c, 9, 62, 0
14, 84288, Note_on_c, 9, 62, 80
14, 84292, Note_off_c, 9, 62, 0
14, 84384, Note_on_c, 9, 62, 75
14, 84388, Note_off_c, 9, 62, 0
14, 84480, Note_on_c, 9, 62, 75
14, 84484, Note_off_c, 9, 62, 0
14, 84528, Note_on_c, 9, 62, 90
14, 84532, Note_off_c, 9, 62, 0
14, 84624, Note_on_c, 9, 62, 75
14, 84628, Note_off_c, 9, 62, 0
14, 84672, Note_on_c, 9, 62, 90
14, 84676, Note_off_c, 9, 62, 0
14, 84768, Note_on_c, 9, 60, 85
14, 84772, Note_off_c, 9, 60, 0
14, 84864, Note_on_c, 9, 62, 75
14, 84868, Note_off_c, 9, 62, 0
14, 84912, Note_on_c, 9, 62, 90
14, 84916, Note_off_c, 9, 62, 0
14, 85008, Note_on_c, 9, 62, 75
14, 85012, Note_off_c, 9, 62, 0
14, 85056, Note_on_c, 9, 62, 90
14, 85060, Note_off_c, 9, 62, 0
14, 85152, Note_on_c, 9, 62, 75
14, 85156, Note_off_c, 9, 62, 0
14, 85200, Note_on_c, 9, 62, 75
14, 85204, Note_off_c, 9, 62, 0
14, 85248, Note_on_c, 9, 62, 75
14, 85252, Note_off_c, 9, 62, 0
14, 85296, Note_on_c, 9, 62, 90
14, 85300, Note_off_c, 9, 62, 0
14, 85392, Note_on_c, 9, 62, 75
14, 85396, Note_off_c, 9, 62, 0
14, 85440, Note_on_c, 9, 62, 90
14, 85444, Note_off_c, 9, 62, 0
14, 85536, Note_on_c, 9, 62, 70
14, 85540, Note_off_c, 9, 62, 0
14, 85584, Note_on_c, 9, 62, 70
14, 85588, Note_off_c, 9, 62, 0
14, 85632, Note_on_c, 9, 62, 75
14, 85636, Note_off_c, 9, 62, 0
14, 85680, Note_on_c, 9, 60, 85
14, 85684, Note_off_c, 9, 60, 0
14, 85728, Note_on_c, 9, 62, 65
14, 85732, Note_off_c, 9, 62, 0
14, 85776, Note_on_c, 9, 62, 70
14, 85780, Note_off_c, 9, 62, 0
14, 85824, Note_on_c, 9, 62, 80
14, 85828, Note_off_c, 9, 62, 0
14, 85920, Note_on_c, 9, 62, 75
14, 85924, Note_off_c, 9, 62, 0
14, 86016, Note_on_c, 9, 62, 75
14, 86020, Note_off_c, 9, 62, 0
14, 86064, Note_on_c, 9, 62, 90
14, 86068, Note_off_c, 9, 62, 0
14, 86160, Note_on_c, 9, 62, 75
14, 86164, Note_off_c, 9, 62, 0
14, 86208, Note_on_c, 9, 62, 90
14, 86212, Note_off_c, 9, 62, 0
14, 86304, Note_on_c, 9, 60, 85
14, 86308, Note_off_c, 9, 60, 0
14, 86400, Note_on_c, 9, 62, 75
14, 86404, Note_off_c, 9, 62, 0
14, 86448, Note_on_c, 9, 62, 90
14, 86452, Note_off_c, 9, 62, 0
14, 86544, Note_on_c, 9, 62, 75
14, 86548, Note_off_c, 9, 62, 0
14, 86592, Note_on_c, 9, 62, 90
14, 86596, Note_off_c, 9, 62, 0
14, 86688, Note_on_c, 9, 62, 75
14, 86692, Note_off_c, 9, 62, 0
14, 86736, Note_on_c, 9, 62, 75
14, 86740, Note_off_c, 9, 62, 0
14, 86784, Note_on_c, 9, 62, 80
14, 86788, Note_off_c, 9, 62, 0
14, 86832, Note_on_c, 9, 62, 80
14, 86836, Note_off_c, 9, 62, 0
14, 86880, Note_on_c, 9, 61, 65
14, 86884, Note_off_c, 9, 61, 0
14, 86928, Note_on_c, 9, 62, 80
14, 86932, Note_off_c, 9, 62, 0
14, 86976, Note_on_c, 9, 63, 78
14, 86980, Note_off_c, 9, 63, 0
14, 87072, Note_on_c, 9, 64, 89
14, 87076, Note_off_c, 9, 64, 0
14, 87168, Note_on_c, 9, 62, 80
14, 87172, Note_off_c, 9, 62, 0
14, 87216, Note_on_c, 9, 61, 65
14, 87220, Note_off_c, 9, 61, 0
14, 87264, Note_on_c, 9, 62, 80
14, 87268, Note_off_c, 9, 62, 0
14, 87312, Note_on_c, 9, 62, 80
14, 87316, Note_off_c, 9, 62, 0
14, 87360, Note_on_c, 9, 63, 78
14, 87364, Note_off_c, 9, 63, 0
14, 87456, Note_on_c, 9, 64, 89
14, 87460, Note_off_c, 9, 64, 0
14, 87504, Note_on_c, 9, 64, 89
14, 87508, Note_off_c, 9, 64, 0
14, 87552, Note_on_c, 9, 62, 80
14, 87556, Note_off_c, 9, 62, 0
14, 87600, Note_on_c, 9, 62, 80
14, 87604, Note_off_c, 9, 62, 0
14, 87648, Note_on_c, 9, 61, 65
14, 87652, Note_off_c, 9, 61, 0
14, 87696, Note_on_c, 9, 62, 80
14, 87700, Note_off_c, 9, 62, 0
14, 87744, Note_on_c, 9, 63, 78
14, 87748, Note_off_c, 9, 63, 0
14, 87840, Note_on_c, 9, 64, 89
14, 87844, Note_off_c, 9, 64, 0
14, 87936, Note_on_c, 9, 62, 80
14, 87940, Note_off_c, 9, 62, 0
14, 87984, Note_on_c, 9, 61, 65
14, 87988, Note_off_c, 9, 61, 0
14, 88032, Note_on_c, 9, 62, 80
14, 88036, Note_off_c, 9, 62, 0
14, 88080, Note_on_c, 9, 62, 80
14, 88084, Note_off_c, 9, 62, 0
14, 88128, Note_on_c, 9, 63, 78
14, 88132, Note_off_c, 9, 63, 0
14, 88224, Note_on_c, 9, 64, 89
14, 88228, Note_off_c, 9, 64, 0
14, 88272, Note_on_c, 9, 64, 89
14, 88276, Note_off_c, 9, 64, 0
14, 88320, Note_on_c, 9, 62, 80
14, 88324, Note_off_c, 9, 62, 0
14, 88368, Note_on_c, 9, 62, 80
14, 88372, Note_off_c, 9, 62, 0
14, 88416, Note_on_c, 9, 61, 65
14, 88420, Note_off_c, 9, 61, 0
14, 88464, Note_on_c, 9, 62, 80
14, 88468, Note_off_c, 9, 62, 0
14, 88512, Note_on_c, 9, 63, 78
14, 88516, Note_off_c, 9, 63, 0
14, 88608, Note_on_c, 9, 64, 89
14, 88612, Note_off_c, 9, 64, 0
14, 88704, Note_on_c, 9, 62, 80
14, 88708, Note_off_c, 9, 62, 0
14, 88752, Note_on_c, 9, 61, 65
14, 88756, Note_off_c, 9, 61, 0
14, 88800, Note_on_c, 9, 62, 80
14, 88804, Note_off_c, 9, 62, 0
14, 88848, Note_on_c, 9, 62, 80
14, 88852, Note_off_c, 9, 62, 0
14, 88896, Note_on_c, 9, 63, 78
14, 88900, Note_off_c, 9, 63, 0
14, 88992, Note_on_c, 9, 64, 89
14, 88996, Note_off_c, 9, 64, 0
14, 89040, Note_on_c, 9, 64, 89
14, 89044, Note_off_c, 9, 64, 0
14, 89088, Note_on_c, 9, 62, 80
14, 89092, Note_off_c, 9, 62, 0
14, 89136, Note_on_c, 9, 62, 80
14, 89140, Note_off_c, 9, 62, 0
14, 89184, Note_on_c, 9, 61, 65
14, 89188, Note_off_c, 9, 61, 0
14, 89232, Note_on_c, 9, 62, 80
14, 89236, Note_off_c, 9, 62, 0
14, 89280, Note_on_c, 9, 63, 78
14, 89284, Note_off_c, 9, 63, 0
14, 89376, Note_on_c, 9, 64, 89
14, 89380, Note_off_c, 9, 64, 0
14, 89472, Note_on_c, 9, 62, 80
14, 89476, Note_off_c, 9, 62, 0
14, 89520, Note_on_c, 9, 61, 65
14, 89524, Note_off_c, 9, 61, 0
14, 89568, Note_on_c, 9, 62, 80
14, 89572, Note_off_c, 9, 62, 0
14, 89616, Note_on_c, 9, 62, 80
14, 89620, Note_off_c, 9, 62, 0
14, 89664, Note_on_c, 9, 63, 78
14, 89668, Note_off_c, 9, 63, 0
14, 89760, Note_on_c, 9, 64, 89
14, 89764, Note_off_c, 9, 64, 0
14, 89808, Note_on_c, 9, 64, 89
14, 89812, Note_off_c, 9, 64, 0
14, 89856, Note_on_c, 9, 62, 80
14, 89860, Note_off_c, 9, 62, 0
14, 89904, Note_on_c, 9, 62, 80
14, 89908, Note_off_c, 9, 62, 0
14, 89952, Note_on_c, 9, 61, 65
14, 89956, Note_off_c, 9, 61, 0
14, 90000, Note_on_c, 9, 62, 80
14, 90004, Note_off_c, 9, 62, 0
14, 90048, Note_on_c, 9, 63, 78
14, 90052, Note_off_c, 9, 63, 0
14, 90144, Note_on_c, 9, 64, 89
14, 90148, Note_off_c, 9, 64, 0
14, 90240, Note_on_c, 9, 62, 80
14, 90244, Note_off_c, 9, 62, 0
14, 90288, Note_on_c, 9, 61, 65
14, 90292, Note_off_c, 9, 61, 0
14, 90336, Note_on_c, 9, 62, 80
14, 90340, Note_off_c, 9, 62, 0
14, 90384, Note_on_c, 9, 62, 80
14, 90388, Note_off_c, 9, 62, 0
14, 90432, Note_on_c, 9, 63, 78
14, 90436, Note_off_c, 9, 63, 0
14, 90528, Note_on_c, 9, 64, 89
14, 90532, Note_off_c, 9, 64, 0
14, 90576, Note_on_c, 9, 64, 89
14, 90580, Note_off_c, 9, 64, 0
14, 90624, Note_on_c, 9, 62, 80
14, 90628, Note_off_c, 9, 62, 0
14, 90672, Note_on_c, 9, 62, 80
14, 90676, Note_off_c, 9, 62, 0
14, 90720, Note_on_c, 9, 61, 65
14, 90724, Note_off_c, 9, 61, 0
14, 90768, Note_on_c, 9, 62, 80
14, 90772, Note_off_c, 9, 62, 0
14, 90816, Note_on_c, 9, 63, 78
14, 90820, Note_off_c, 9, 63, 0
14, 90912, Note_on_c, 9, 64, 89
14, 90916, Note_off_c, 9, 64, 0
14, 91008, Note_on_c, 9, 62, 80
14, 91012, Note_off_c, 9, 62, 0
14, 91056, Note_on_c, 9, 61, 65
14, 91060, Note_off_c, 9, 61, 0
14, 91104, Note_on_c, 9, 62, 80
14, 91108, Note_off_c, 9, 62, 0
14, 91152, Note_on_c, 9, 62, 80
14, 91156, Note_off_c, 9, 62, 0
14, 91200, Note_on_c, 9, 63, 78
14, 91204, Note_off_c, 9, 63, 0
14, 91296, Note_on_c, 9, 64, 89
14, 91300, Note_off_c, 9, 64, 0
14, 91344, Note_on_c, 9, 64, 89
14, 91348, Note_off_c, 9, 64, 0
14, 91392, Note_on_c, 9, 62, 80
14, 91396, Note_off_c, 9, 62, 0
14, 91440, Note_on_c, 9, 62, 80
14, 91444, Note_off_c, 9, 62, 0
14, 91488, Note_on_c, 9, 61, 65
14, 91492, Note_off_c, 9, 61, 0
14, 91536, Note_on_c, 9, 62, 80
14, 91540, Note_off_c, 9, 62, 0
14, 91584, Note_on_c, 9, 63, 78
14, 91588, Note_off_c, 9, 63, 0
14, 91680, Note_on_c, 9, 64, 89
14, 91684, Note_off_c, 9, 64, 0
14, 91776, Note_on_c, 9, 62, 80
14, 91780, Note_off_c, 9, 62, 0
14, 91824, Note_on_c, 9, 61, 65
14, 91828, Note_off_c, 9, 61, 0
14, 91872, Note_on_c, 9, 62, 80
14, 91876, Note_off_c, 9, 62, 0
14, 91920, Note_on_c, 9, 62, 80
14, 91924, Note_off_c, 9, 62, 0
14, 91968, Note_on_c, 9, 63, 78
14, 91972, Note_off_c, 9, 63, 0
14, 92064, Note_on_c, 9, 64, 89
14, 92068, Note_off_c, 9, 64, 0
14, 92112, Note_on_c, 9, 64, 89
14, 92116, Note_off_c, 9, 64, 0
14, 92160, Note_on_c, 9, 62, 80
14, 92164, Note_off_c, 9, 62, 0
14, 92208, Note_on_c, 9, 62, 80
14, 92212, Note_off_c, 9, 62, 0
14, 92256, Note_on_c, 9, 61, 65
14, 92260, Note_off_c, 9, 61, 0
14, 92304, Note_on_c, 9, 62, 80
14, 92308, Note_off_c, 9, 62, 0
14, 92352, Note_on_c, 9, 63, 78
14, 92356, Note_off_c, 9, 63, 0
14, 92448, Note_on_c, 9, 64, 89
14, 92452, Note_off_c, 9, 64, 0
14, 92544, Note_on_c, 9, 62, 80
14, 92548, Note_off_c, 9, 62, 0
14, 92592, Note_on_c, 9, 61, 65
14, 92596, Note_off_c, 9, 61, 0
14, 92640, Note_on_c, 9, 62, 80
14, 92644, Note_off_c, 9, 62, 0
14, 92688, Note_on_c, 9, 62, 80
14, 92692, Note_off_c, 9, 62, 0
14, 92736, Note_on_c, 9, 63, 78
14, 92740, Note_off_c, 9, 63, 0
14, 92832, Note_on_c, 9, 64, 89
14, 92836, Note_off_c, 9, 64, 0
14, 92880, Note_on_c, 9, 64, 89
14, 92884, Note_off_c, 9, 64, 0
14, 92928, Note_on_c, 9, 62, 80
14, 92932, Note_off_c, 9, 62, 0
14, 92976, Note_on_c, 9, 62, 80
14, 92980, Note_off_c, 9, 62, 0
14, 93024, Note_on_c, 9, 61, 65
14, 93028, Note_off_c, 9, 61, 0
14, 93072, Note_on_c, 9, 62, 80
14, 93076, Note_off_c, 9, 62, 0
14, 93120, Note_on_c, 9, 63, 78
14, 93124, Note_off_c, 9, 63, 0
14, 93216, Note_on_c, 9, 64, 89
14, 93220, Note_off_c, 9, 64, 0
14, 93312, Note_on_c, 9, 62, 80
14, 93316, Note_off_c, 9, 62, 0
14, 93360, Note_on_c, 9, 61, 65
14, 93364, Note_off_c, 9, 61, 0
14, 93408, Note_on_c, 9, 62, 80
14, 93412, Note_off_c, 9, 62, 0
14, 93456, Note_on_c, 9, 62, 80
14, 93460, Note_off_c, 9, 62, 0
14, 93504, Note_on_c, 9, 63, 78
14, 93508, Note_off_c, 9, 63, 0
14, 93600, Note_on_c, 9, 64, 89
14, 93604, Note_off_c, 9, 64, 0
14, 93648, Note_on_c, 9, 64, 89
14, 93652, Note_off_c, 9, 64, 0
14, 93696, Note_on_c, 9, 62, 80
14, 93700, Note_off_c, 9, 62, 0
14, 93744, Note_on_c, 9, 62, 80
14, 93748, Note_off_c, 9, 62, 0
14, 93792, Note_on_c, 9, 61, 65
14, 93796, Note_off_c, 9, 61, 0
14, 93840, Note_on_c, 9, 62, 80
14, 93844, Note_off_c, 9, 62, 0
14, 93888, Note_on_c, 9, 63, 78
14, 93892, Note_off_c, 9, 63, 0
14, 93984, Note_on_c, 9, 64, 89
14, 93988, Note_off_c, 9, 64, 0
14, 94080, Note_on_c, 9, 62, 80
14, 94084, Note_off_c, 9, 62, 0
14, 94128, Note_on_c, 9, 61, 65
14, 94132, Note_off_c, 9, 61, 0
14, 94176, Note_on_c, 9, 62, 80
14, 94180, Note_off_c, 9, 62, 0
14, 94224, Note_on_c, 9, 62, 80
14, 94228, Note_off_c, 9, 62, 0
14, 94272, Note_on_c, 9, 63, 78
14, 94276, Note_off_c, 9, 63, 0
14, 94368, Note_on_c, 9, 64, 89
14, 94372, Note_off_c, 9, 64, 0
14, 94416, Note_on_c, 9, 64, 89
14, 94420, Note_off_c, 9, 64, 0
14, 94464, Note_on_c, 9, 62, 80
14, 94468, Note_off_c, 9, 62, 0
14, 94512, Note_on_c, 9, 62, 80
14, 94516, Note_off_c, 9, 62, 0
14, 94560, Note_on_c, 9, 61, 65
14, 94564, Note_off_c, 9, 61, 0
14, 94608, Note_on_c, 9, 62, 80
14, 94612, Note_off_c, 9, 62, 0
14, 94656, Note_on_c, 9, 63, 78
14, 94660, Note_off_c, 9, 63, 0
14, 94752, Note_on_c, 9, 64, 89
14, 94756, Note_off_c, 9, 64, 0
14, 94848, Note_on_c, 9, 62, 80
14, 94852, Note_off_c, 9, 62, 0
14, 94896, Note_on_c, 9, 61, 65
14, 94900, Note_off_c, 9, 61, 0
14, 94944, Note_on_c, 9, 62, 80
14, 94948, Note_off_c, 9, 62, 0
14, 94992, Note_on_c, 9, 62, 80
14, 94996, Note_off_c, 9, 62, 0
14, 95040, Note_on_c, 9, 63, 78
14, 95044, Note_off_c, 9, 63, 0
14, 95136, Note_on_c, 9, 64, 89
14, 95140, Note_off_c, 9, 64, 0
14, 95184, Note_on_c, 9, 64, 89
14, 95188, Note_off_c, 9, 64, 0
14, 95232, Note_on_c, 9, 62, 80
14, 95236, Note_off_c, 9, 62, 0
14, 95280, Note_on_c, 9, 62, 80
14, 95284, Note_off_c, 9, 62, 0
14, 95328, Note_on_c, 9, 61, 65
14, 95332, Note_off_c, 9, 61, 0
14, 95376, Note_on_c, 9, 62, 80
14, 95380, Note_off_c, 9, 62, 0
14, 95424, Note_on_c, 9, 63, 78
14, 95428, Note_off_c, 9, 63, 0
14, 95520, Note_on_c, 9, 64, 89
14, 95524, Note_off_c, 9, 64, 0
14, 95616, Note_on_c, 9, 62, 80
14, 95620, Note_off_c, 9, 62, 0
14, 95664, Note_on_c, 9, 61, 65
14, 95668, Note_off_c, 9, 61, 0
14, 95712, Note_on_c, 9, 62, 80
14, 95716, Note_off_c, 9, 62, 0
14, 95760, Note_on_c, 9, 62, 80
14, 95764, Note_off_c, 9, 62, 0
14, 95764, End_track
0, 0, End_of_file